<?xml version="1.0" encoding="UTF-8" standalone="no"?>
<!-- Created with Inkscape (http://www.inkscape.org/) -->

<svg
   version="1.1"
   width="100%"
   height="100%"
   viewBox="0 0 512 512"
   id="svg2"
   sodipodi:docname="distributor-logo-debian.svg"
   inkscape:version="1.1 (c68e22c387, 2021-05-23)"
   xmlns:inkscape="http://www.inkscape.org/namespaces/inkscape"
   xmlns:sodipodi="http://sodipodi.sourceforge.net/DTD/sodipodi-0.dtd"
   xmlns:xlink="http://www.w3.org/1999/xlink"
   xmlns="http://www.w3.org/2000/svg"
   xmlns:svg="http://www.w3.org/2000/svg"
   xmlns:rdf="http://www.w3.org/1999/02/22-rdf-syntax-ns#"
   xmlns:cc="http://creativecommons.org/ns#"
   xmlns:dc="http://purl.org/dc/elements/1.1/">
  <sodipodi:namedview
     id="namedview51"
     pagecolor="#ffffff"
     bordercolor="#666666"
     borderopacity="1.0"
     inkscape:pageshadow="2"
     inkscape:pageopacity="0.0"
     inkscape:pagecheckerboard="0"
     showgrid="false"
     inkscape:zoom="0.60490775"
     inkscape:cx="51.247484"
     inkscape:cy="254.58427"
     inkscape:window-width="1366"
     inkscape:window-height="700"
     inkscape:window-x="0"
     inkscape:window-y="0"
     inkscape:window-maximized="1"
     inkscape:current-layer="svg2" />
  <metadata
     id="metadata72">
    <rdf:RDF>
      <cc:Work
         rdf:about="">
        <dc:format>image/svg+xml</dc:format>
        <dc:type
           rdf:resource="http://purl.org/dc/dcmitype/StillImage" />
      </cc:Work>
    </rdf:RDF>
  </metadata>
  <defs
     id="defs70">
    <linearGradient
       x1="257"
       y1="256"
       x2="362"
       y2="256"
       id="linearGradient3153"
       xlink:href="#linearGradient4996-8"
       gradientUnits="userSpaceOnUse"
       gradientTransform="matrix(1.0380952,0,0,1.4619252,-337.28943,-118.25286)" />
    <linearGradient
       x1="257"
       y1="256"
       x2="362"
       y2="256"
       id="linearGradient3149"
       xlink:href="#linearGradient4996-8"
       gradientUnits="userSpaceOnUse"
       gradientTransform="matrix(1.0283468,0,0,1.4619252,209.19233,-118.25286)" />
    <linearGradient
       x1="257"
       y1="256"
       x2="362"
       y2="256"
       id="linearGradient3145"
       xlink:href="#linearGradient4996-8"
       gradientUnits="userSpaceOnUse"
       gradientTransform="matrix(1.0283468,0,0,1.4619252,101.21591,-118.25286)" />
    <linearGradient
       x1="257"
       y1="256"
       x2="362"
       y2="256"
       id="linearGradient3141"
       xlink:href="#linearGradient4996-8"
       gradientUnits="userSpaceOnUse"
       gradientTransform="matrix(1.0380952,0,0,1.4619252,-10.28943,-118.25286)" />
    <linearGradient
       x1="257"
       y1="256"
       x2="362"
       y2="256"
       id="linearGradient3137"
       xlink:href="#linearGradient4996-8"
       gradientUnits="userSpaceOnUse"
       gradientTransform="matrix(1.0380952,0,0,1.4619252,-119.28943,-118.25286)" />
    <linearGradient
       x1="257"
       y1="256"
       x2="362"
       y2="256"
       id="linearGradient3108"
       xlink:href="#linearGradient4996-8"
       gradientUnits="userSpaceOnUse"
       gradientTransform="matrix(1.0380952,0,0,1.4619252,-228.28943,-118.25286)" />
    <linearGradient
       id="linearGradient4996-8">
      <stop
         id="stop4998-0"
         style="stop-color:#000000;stop-opacity:1"
         offset="0" />
      <stop
         id="stop5000-6"
         style="stop-color:#ffffff;stop-opacity:1"
         offset="1" />
    </linearGradient>
    <linearGradient
       id="_lgradient_22"
       x1="0"
       y1="0.5"
       x2="1"
       y2="0.5"
       gradientTransform="matrix(34,0,0,44.201,7,1.9)"
       gradientUnits="userSpaceOnUse">
      <stop
         offset="0%"
         stop-opacity="1"
         style="stop-color:rgb(242,55,239)"
         id="stop2" />
      <stop
         offset="98.69565217391305%"
         stop-opacity="1"
         style="stop-color:rgb(252,82,82)"
         id="stop4" />
    </linearGradient>
    <linearGradient
       inkscape:collect="always"
       xlink:href="#_lgradient_22"
       id="linearGradient967"
       x1="38.500011"
       y1="253"
       x2="473.49997"
       y2="253"
       gradientUnits="userSpaceOnUse"
       gradientTransform="matrix(0.9870068,0,0,1.0023954,4.0421628,3.164021)" />
  </defs>
  <text
     x="729.82568"
     y="233.26677"
     id="text20"
     style="font-size:128.54px;line-height:125%;font-family:'Gentium Book Basic';letter-spacing:0;word-spacing:0;stroke-width:0.994672"
     transform="scale(0.99229436,1.0077655)"><tspan
       x="729.82568"
       y="233.26677"
       id="tspan22"
       style="stroke-width:0.994672" /></text>
  <text
     x="377.90421"
     y="588.75903"
     transform="scale(3.9818993,0.25113644)"
     id="text24"
     style="font-size:46.7036px;font-family:Arial;text-anchor:middle;stroke-width:0.994667" />
  <text
     x="1307.9983"
     y="153.69305"
     id="text26"
     style="font-size:128.54px;line-height:125%;font-family:'Gentium Book Basic';letter-spacing:0;word-spacing:0;stroke-width:0.994672"
     transform="scale(0.99229436,1.0077655)"><tspan
       x="1307.9983"
       y="153.69305"
       id="tspan28"
       style="stroke-width:0.994672" /></text>
  <text
     x="521.98157"
     y="269.44119"
     transform="scale(3.9818993,0.25113644)"
     id="text30"
     style="font-size:46.7036px;font-family:Arial;text-anchor:middle;stroke-width:0.994667" />
  <text
     x="242.12834"
     y="-26.602116"
     id="text32"
     style="font-size:128.54px;line-height:125%;font-family:'Gentium Book Basic';letter-spacing:0;word-spacing:0;stroke-width:0.994672"
     transform="scale(0.99229436,1.0077655)"><tspan
       x="242.12834"
       y="-26.602116"
       id="tspan34"
       style="stroke-width:0.994672" /></text>
  <text
     x="256.36588"
     y="-454.03925"
     transform="scale(3.9818993,0.25113644)"
     id="text36"
     style="font-size:46.7036px;font-family:Arial;text-anchor:middle;stroke-width:0.994667" />
  <text
     x="1334.3273"
     y="-241.91765"
     id="text38"
     style="font-size:128.54px;line-height:125%;font-family:'Gentium Book Basic';letter-spacing:0;word-spacing:0;stroke-width:0.994672"
     transform="scale(0.99229436,1.0077655)"><tspan
       x="1334.3273"
       y="-241.91765"
       id="tspan40"
       style="stroke-width:0.994672" /></text>
  <text
     x="528.54639"
     y="-1318.076"
     transform="scale(3.9818993,0.25113644)"
     id="text42"
     style="font-size:46.7036px;font-family:Arial;text-anchor:middle;stroke-width:0.994667" />
  <text
     x="1912.5"
     y="-321.50134"
     id="text44"
     style="font-size:128.54px;line-height:125%;font-family:'Gentium Book Basic';letter-spacing:0;word-spacing:0;stroke-width:0.994672"
     transform="scale(0.99229436,1.0077655)"><tspan
       x="1912.5"
       y="-321.50134"
       id="tspan46"
       style="stroke-width:0.994672" /></text>
  <text
     x="672.62396"
     y="-1637.4037"
     transform="scale(3.9818993,0.25113644)"
     id="text48"
     style="font-size:46.7036px;font-family:Arial;text-anchor:middle;stroke-width:0.994667" />
  <text
     x="1525.4536"
     y="-791.38422"
     id="text50"
     style="font-size:128.54px;line-height:125%;font-family:'Gentium Book Basic';letter-spacing:0;word-spacing:0;stroke-width:0.994672"
     transform="scale(0.99229436,1.0077655)"><tspan
       x="1525.4536"
       y="-791.38422"
       id="tspan52"
       style="stroke-width:0.994672" /></text>
  <text
     x="576.17102"
     y="-3522.9529"
     transform="scale(3.9818993,0.25113644)"
     id="text54"
     style="font-size:46.7036px;font-family:Arial;text-anchor:middle;stroke-width:0.994667" />
  <text
     x="2103.6165"
     y="-870.95801"
     id="text56"
     style="font-size:128.54px;line-height:125%;font-family:'Gentium Book Basic';letter-spacing:0;word-spacing:0;stroke-width:0.994672"
     transform="scale(0.99229436,1.0077655)"><tspan
       x="2103.6165"
       y="-870.95801"
       id="tspan58"
       style="stroke-width:0.994672" /></text>
  <text
     x="720.24854"
     y="-3842.2712"
     transform="scale(3.9818993,0.25113644)"
     id="text60"
     style="font-size:46.7036px;font-family:Arial;text-anchor:middle;stroke-width:0.994667" />
  <text
     x="280.58231"
     y="536.22388"
     id="text62"
     style="font-size:207.22px;line-height:125%;font-family:'Gentium Book Basic';letter-spacing:0;word-spacing:0;stroke-width:0.994672"
     transform="scale(0.99229436,1.0077655)"><tspan
       x="280.58231"
       y="536.22388"
       id="tspan64"
       style="stroke-width:0.994672" /></text>
  <rect
     width="429.34799"
     height="436.04199"
     rx="62.379162"
     ry="63.351723"
     x="42.042"
     y="38.749001"
     id="rect4981-8"
     style="fill:url(#linearGradient967);fill-opacity:1;stroke:none;stroke-width:0.994672" />
  <g
     transform="matrix(0.98700685,0,0,1.0023955,-9.3079189,3.164638)"
     id="g3201"
     style="fill:#ffffff">
    <path
       d="m 380.34662,239.3457 c 0.33605,9.03981 -2.63728,13.43051 -5.32775,21.20491 l -4.83772,2.40552 c -3.9549,7.68457 0.39813,4.87869 -2.43987,10.98841 -6.18075,5.48866 -18.72964,17.1691 -22.74765,18.24045 -2.9368,-0.0321 1.98634,-3.46466 2.62954,-4.7933 -8.26455,5.67165 -6.63321,8.51524 -19.27631,11.96881 l -0.36707,-0.82402 c -31.16413,14.6671 -74.4612,-14.39317 -73.89559,-54.03817 -0.33161,2.51421 -0.94158,1.88649 -1.63583,2.89572 -1.60812,-20.3942 9.42132,-40.87936 28.02553,-49.25264 18.19497,-9.00211 39.52522,-5.31343 52.54652,6.8428 -7.15336,-9.37585 -21.40567,-19.31732 -38.28311,-18.39682 -16.54139,0.26839 -32.02032,10.7788 -37.18291,22.19197 -8.47088,5.33117 -9.45793,20.56279 -13.14771,23.35647 -4.97296,36.51748 9.34259,52.29141 33.55966,70.84904 3.8018,2.56633 1.07134,2.96004 1.57707,4.91307 -8.0439,-3.7641 -15.40795,-9.45127 -21.46888,-16.41385 3.21733,4.70345 6.68754,9.27493 11.16808,12.86712 -7.59142,-2.563 -17.72697,-18.3824 -20.67924,-19.0201 13.07674,23.41192 53.04667,41.0679 73.98431,32.30645 -9.69082,0.356 -21.99566,0.19852 -32.87649,-3.82398 -4.58257,-2.3534 -10.78989,-7.22099 -9.67973,-8.13041 28.57008,10.66679 58.08064,8.07385 82.79014,-11.73701 6.29266,-4.90086 13.16217,-13.2331 15.14956,-13.34179 -2.98998,4.49716 0.51569,2.16263 -1.78555,6.1319 6.25612,-10.10561 -2.72711,-4.11566 6.47241,-17.4497 l 3.397,4.67684 c -1.27216,-8.39546 10.41944,-18.57981 9.23051,-31.84731 2.68282,-4.05577 2.98998,4.36964 0.1475,13.70114 3.94715,-10.35293 1.04143,-12.0176 2.05397,-20.56278 1.08907,2.87353 2.53638,5.92339 3.2739,8.96107 -2.57406,-10.00357 2.6307,-16.84749 3.92495,-22.66553 -1.27656,-0.56006 -3.97038,4.42286 -4.59035,-7.39289 0.12197,-5.13376 1.43506,-2.69053 1.9452,-3.95484 -1.00363,-0.58225 -3.64763,-4.51603 -5.25353,-12.06197 1.15679,-1.77779 3.11309,4.5981 4.699,4.8565 -1.02144,-5.9977 -2.77589,-10.57362 -2.85127,-15.17947 -4.63912,-9.69083 -1.6414,1.29314 -5.39884,-4.16003 -4.93863,-15.39242 4.09349,-3.57334 4.70675,-10.56253 7.475,10.83202 11.73704,27.63071 13.70108,34.59107 -1.49494,-8.48197 -3.91039,-16.7022 -6.86164,-24.65404 2.27916,0.95821 -3.66312,-17.44637 2.96004,-5.25687 -7.06787,-25.9849 -30.22139,-50.26186 -51.53724,-61.65175 2.60074,2.38334 5.88898,5.37665 4.7146,5.84799 -10.60369,-6.30491 -8.74047,-6.80177 -10.2598,-9.4668 -8.62394,-3.51344 -9.20067,0.28614 -14.90666,0.0105 -16.27525,-8.63501 -19.41052,-7.71893 -34.39149,-13.121085 l 0.68317,3.187385 c -10.77879,-3.592187 -12.56103,1.35415 -24.2071,0.009 -0.70535,-0.55119 3.73415,-2.00514 7.39289,-2.53305 -10.42391,1.37633 -9.93703,-2.057276 -20.14023,0.37264 2.51087,-1.761163 5.17479,-2.933422 7.85314,-4.430631 -8.49638,0.517924 -20.29439,4.946341 -16.65784,0.909416 -13.86194,6.188465 -38.48493,14.872275 -52.30251,27.825915 l -0.43363,-2.90348 c -6.33042,7.59917 -27.60854,22.69659 -29.30316,32.54711 l -1.69462,0.38927 c -3.28942,5.5785 -5.42544,11.89782 -8.03724,17.6338 -4.30641,7.3452 -6.31601,2.82918 -5.7027,3.98147 -8.47421,17.1813 -12.69079,31.61551 -16.32402,43.46343 2.58962,3.87277 0.0321,23.3121 1.04028,38.88307 -4.25096,76.86783 53.94501,151.4843 117.55865,168.71884 9.32373,3.33823 23.18678,3.22177 34.97924,3.55116 -13.91073,-3.98146 -15.70738,-2.10718 -29.26656,-6.83171 -9.77622,-4.60919 -11.91667,-9.86605 -18.84598,-15.87929 l 2.74267,4.84541 c -13.58135,-4.80881 -7.8975,-5.94891 -18.95356,-9.44794 l 2.92898,-3.81955 c -4.4029,-0.33603 -11.66159,-7.41618 -13.64456,-11.34774 l -4.8188,0.19852 c -5.78477,-7.13115 -8.87124,-12.28821 -8.64278,-16.27522 l -1.55709,2.77594 c -1.76117,-3.02658 -21.29365,-26.78341 -11.15699,-21.24928 -1.88204,-1.71457 -4.38516,-2.79479 -7.09787,-7.73003 l 2.0617,-2.3545 c -4.86759,-6.27498 -8.97215,-14.31443 -8.6583,-16.99277 2.6007,3.50901 4.40401,4.16779 6.19178,4.76999 -12.31038,-30.54639 -13.00575,-1.6802 -22.32505,-31.09759 l 1.96856,-0.16192 c -1.5072,-2.28573 -2.43214,-4.75113 -3.64432,-7.17995 l 0.85841,-8.54962 c -8.86017,-10.23647 -2.4765,-43.57433 -1.19223,-61.84693 0.87504,-7.43059 7.39733,-15.34362 12.34699,-27.75937 l -3.01549,-0.51792 c 5.76925,-10.05903 32.93306,-40.40468 45.51515,-38.84981 6.09531,-7.65462 -1.20996,-0.0105 -2.40551,-1.95302 13.38616,-13.85418 17.60053,-9.78732 26.63923,-12.28821 9.73852,-5.78034 -8.36218,2.26024 -3.74523,-2.20367 16.84857,-4.29866 11.93552,-9.78066 33.90901,-11.96104 2.319,1.31865 -5.37664,2.03509 -7.30749,3.74525 14.03051,-6.86943 44.40611,-5.30124 64.1471,3.80845 22.88626,10.70449 48.61721,42.33221 49.63529,72.08785 l 1.1567,0.31386 c -0.58447,11.83017 1.81109,25.508 -2.34563,38.07348 l 2.81033,-5.95224"
       inkscape:connector-curvature="0"
       id="path3199"
       style="opacity:0.2;fill:#ffffff;fill-opacity:1" />
    <path
       d="m 365.34662,224.3457 c 0.33605,9.03981 -2.63728,13.43051 -5.32775,21.20491 l -4.83772,2.40552 c -3.9549,7.68457 0.39813,4.87869 -2.43987,10.98841 -6.18075,5.48866 -18.72964,17.1691 -22.74765,18.24045 -2.9368,-0.0321 1.98634,-3.46466 2.62954,-4.7933 -8.26455,5.67165 -6.63321,8.51524 -19.27631,11.96881 l -0.36707,-0.82402 c -31.16413,14.6671 -74.4612,-14.39317 -73.89559,-54.03817 -0.33161,2.51421 -0.94158,1.88649 -1.63583,2.89572 -1.60812,-20.3942 9.42132,-40.87936 28.02553,-49.25264 18.19497,-9.00211 39.52522,-5.31343 52.54652,6.8428 -7.15336,-9.37585 -21.40567,-19.31732 -38.28311,-18.39682 -16.54139,0.26839 -32.02032,10.7788 -37.18291,22.19197 -8.47088,5.33117 -9.45793,20.56279 -13.14771,23.35647 -4.97296,36.51748 9.34259,52.29141 33.55966,70.84904 3.8018,2.56633 1.07134,2.96004 1.57707,4.91307 -8.0439,-3.7641 -15.40795,-9.45127 -21.46888,-16.41385 3.21733,4.70345 6.68754,9.27493 11.16808,12.86712 -7.59142,-2.563 -17.72697,-18.3824 -20.67924,-19.0201 13.07674,23.41192 53.04667,41.0679 73.98431,32.30645 -9.69082,0.356 -21.99566,0.19852 -32.87649,-3.82398 -4.58257,-2.3534 -10.78989,-7.22099 -9.67973,-8.13041 28.57008,10.66679 58.08064,8.07385 82.79014,-11.73701 6.29266,-4.90086 13.16217,-13.2331 15.14956,-13.34179 -2.98998,4.49716 0.51569,2.16263 -1.78555,6.1319 6.25612,-10.10561 -2.72711,-4.11566 6.47241,-17.4497 l 3.397,4.67684 c -1.27216,-8.39546 10.41944,-18.57981 9.23051,-31.84731 2.68282,-4.05577 2.98998,4.36964 0.1475,13.70114 3.94715,-10.35293 1.04143,-12.0176 2.05397,-20.56278 1.08907,2.87353 2.53638,5.92339 3.2739,8.96107 -2.57406,-10.00357 2.6307,-16.84749 3.92495,-22.66553 -1.27656,-0.56006 -3.97038,4.42286 -4.59035,-7.39289 0.12197,-5.13376 1.43506,-2.69053 1.9452,-3.95484 -1.00363,-0.58225 -3.64763,-4.51603 -5.25353,-12.06197 1.15679,-1.77779 3.11309,4.5981 4.699,4.8565 -1.02144,-5.9977 -2.77589,-10.57362 -2.85127,-15.17947 -4.63912,-9.69083 -1.6414,1.29314 -5.39884,-4.16003 -4.93863,-15.39242 4.09349,-3.57334 4.70675,-10.56253 7.475,10.83202 11.73704,27.63071 13.70108,34.59107 -1.49494,-8.48197 -3.91039,-16.7022 -6.86164,-24.65404 2.27916,0.95821 -3.66312,-17.44637 2.96004,-5.25687 -7.06787,-25.9849 -30.22139,-50.26186 -51.53724,-61.65175 2.60074,2.38334 5.88898,5.37665 4.7146,5.84799 -10.60369,-6.30491 -8.74047,-6.80177 -10.2598,-9.466796 -8.62394,-3.513448 -9.20067,0.286132 -14.90666,0.01047 -16.27525,-8.635012 -19.41052,-7.718934 -34.39149,-13.121089 l 0.68317,3.187386 c -10.77879,-3.592188 -12.56103,1.354144 -24.2071,0.0094 -0.70535,-0.55119 3.73415,-2.005142 7.39289,-2.533051 -10.42391,1.376328 -9.93703,-2.057276 -20.14023,0.372636 2.51087,-1.761159 5.17479,-2.933418 7.85314,-4.430627 -8.49638,0.517924 -20.29439,4.946339 -16.65784,0.909416 -13.86194,6.18846 -38.48493,14.872278 -52.30251,27.825915 l -0.43363,-2.90348 c -6.33042,7.59917 -27.60854,22.69659 -29.30316,32.54711 l -1.69462,0.38927 c -3.28942,5.5785 -5.42544,11.89782 -8.03724,17.6338 -4.30641,7.3452 -6.31601,2.82918 -5.7027,3.98147 -8.47421,17.1813 -12.69079,31.61551 -16.32402,43.46343 2.58962,3.87277 0.0321,23.3121 1.04028,38.88307 -4.25096,76.86783 53.94501,151.4843 117.55865,168.71884 9.32373,3.33823 23.18678,3.22177 34.97924,3.55116 -13.91073,-3.98146 -15.70738,-2.10718 -29.26656,-6.83171 -9.77622,-4.60919 -11.91667,-9.86605 -18.84598,-15.87929 l 2.74267,4.84541 c -13.58135,-4.80881 -7.8975,-5.94891 -18.95356,-9.44794 l 2.92898,-3.81955 c -4.4029,-0.33603 -11.66159,-7.41618 -13.64456,-11.34774 l -4.8188,0.19852 c -5.78477,-7.13115 -8.87124,-12.28821 -8.64278,-16.27522 l -1.55709,2.77594 c -1.76117,-3.02658 -21.29365,-26.78341 -11.15699,-21.24928 -1.88204,-1.71457 -4.38516,-2.79479 -7.09787,-7.73003 l 2.0617,-2.3545 c -4.86759,-6.27498 -8.97215,-14.31443 -8.6583,-16.99277 2.6007,3.50901 4.40401,4.16779 6.19178,4.76999 -12.31038,-30.54639 -13.00575,-1.6802 -22.32505,-31.09759 l 1.96856,-0.16192 c -1.5072,-2.28573 -2.43214,-4.75113 -3.64432,-7.17995 l 0.85841,-8.54962 c -8.86017,-10.23647 -2.4765,-43.57433 -1.19223,-61.84693 0.87504,-7.43059 7.39733,-15.34362 12.34699,-27.75937 l -3.01549,-0.51792 c 5.76925,-10.05903 32.93306,-40.40468 45.51515,-38.84981 6.09531,-7.65462 -1.20996,-0.0105 -2.40551,-1.95302 13.38616,-13.85418 17.60053,-9.78732 26.63923,-12.28821 9.73852,-5.78034 -8.36218,2.26024 -3.74523,-2.20367 16.84857,-4.29866 11.93552,-9.78066 33.90901,-11.96104 2.319,1.31865 -5.37664,2.03509 -7.30749,3.74525 14.03051,-6.86943 44.40611,-5.30124 64.1471,3.80845 22.88626,10.70449 48.61721,42.33221 49.63529,72.08785 l 1.1567,0.31386 c -0.58447,11.83017 1.81109,25.508 -2.34563,38.07348 l 2.81033,-5.95224"
       inkscape:connector-curvature="0"
       id="path66"
       style="fill:#ffffff;fill-opacity:1" />
  </g>
</svg>
