<?xml version="1.0" encoding="UTF-8" standalone="no"?>
<!-- Created with Inkscape (http://www.inkscape.org/) -->

<svg
   version="1.1"
   width="100%"
   height="100%"
   viewBox="0 0 512 512"
   id="svg2"
   sodipodi:docname="accessories-character-map (18th copy).svg"
   inkscape:version="1.1 (c68e22c387, 2021-05-23)"
   xmlns:inkscape="http://www.inkscape.org/namespaces/inkscape"
   xmlns:sodipodi="http://sodipodi.sourceforge.net/DTD/sodipodi-0.dtd"
   xmlns:xlink="http://www.w3.org/1999/xlink"
   xmlns="http://www.w3.org/2000/svg"
   xmlns:svg="http://www.w3.org/2000/svg"
   xmlns:rdf="http://www.w3.org/1999/02/22-rdf-syntax-ns#"
   xmlns:cc="http://creativecommons.org/ns#"
   xmlns:dc="http://purl.org/dc/elements/1.1/">
  <sodipodi:namedview
     id="namedview39"
     pagecolor="#ffffff"
     bordercolor="#666666"
     borderopacity="1.0"
     inkscape:pageshadow="2"
     inkscape:pageopacity="0.0"
     inkscape:pagecheckerboard="0"
     showgrid="false"
     inkscape:zoom="0.42773438"
     inkscape:cx="148.45662"
     inkscape:cy="420.82191"
     inkscape:window-width="1366"
     inkscape:window-height="706"
     inkscape:window-x="0"
     inkscape:window-y="0"
     inkscape:window-maximized="1"
     inkscape:current-layer="svg2" />
  <metadata
     id="metadata65">
    <rdf:RDF>
      <cc:Work
         rdf:about="">
        <dc:format>image/svg+xml</dc:format>
        <dc:type
           rdf:resource="http://purl.org/dc/dcmitype/StillImage" />
      </cc:Work>
    </rdf:RDF>
  </metadata>
  <defs
     id="defs4">
    <filter
       color-interpolation-filters="sRGB"
       id="7"
       x="-0.018107638"
       y="-0.017892786"
       width="1.0362153"
       height="1.0357856">
      <feGaussianBlur
         id="feGaussianBlur7"
         stdDeviation="3.7725" />
    </filter>
    <linearGradient
       y1="19.563999"
       x2="0"
       y2="504.01999"
       id="8"
       gradientUnits="userSpaceOnUse">
      <stop
         id="stop10"
         style="stop-color:#f3f3f3;stop-opacity:1"
         offset="0" />
      <stop
         id="stop12"
         style="stop-color:#eeeeee;stop-opacity:1"
         offset="0.5" />
      <stop
         id="stop14"
         style="stop-color:#ebebeb;stop-opacity:1"
         offset="1" />
    </linearGradient>
    <linearGradient
       x1="257"
       x2="362"
       id="5"
       xlink:href="#0"
       gradientUnits="userSpaceOnUse"
       gradientTransform="matrix(1.02835,0,0,1.46193,-383.73694,-115.70205)" />
    <linearGradient
       x1="257"
       x2="362"
       id="6"
       xlink:href="#0"
       gradientUnits="userSpaceOnUse"
       gradientTransform="matrix(1.0381,0,0,1.46193,-467.2489,-124.14041)" />
    <linearGradient
       x1="257"
       x2="362"
       id="4"
       xlink:href="#0"
       gradientUnits="userSpaceOnUse"
       gradientTransform="matrix(1.02835,0,0,1.46193,-610.00374,-127.97146)" />
    <linearGradient
       x1="257"
       x2="362"
       id="3"
       xlink:href="#0"
       gradientUnits="userSpaceOnUse"
       gradientTransform="matrix(1.0381,0,0,1.46193,-427.0919,-112.11041)" />
    <linearGradient
       id="0">
      <stop
         id="stop21"
         style="stop-color:#000000;stop-opacity:1"
         offset="0" />
      <stop
         id="stop23"
         style="stop-color:#ffffff;stop-opacity:1"
         offset="1" />
    </linearGradient>
    <linearGradient
       x1="257"
       x2="362"
       id="2"
       xlink:href="#0"
       gradientUnits="userSpaceOnUse"
       gradientTransform="matrix(1.0381,0,0,1.46193,-467.2489,-112.11041)" />
    <linearGradient
       x1="257"
       x2="362"
       id="1"
       xlink:href="#0"
       gradientUnits="userSpaceOnUse"
       gradientTransform="matrix(1.0381,0,0,1.46193,-467.2529,-112.11041)" />
    <linearGradient
       id="SVGID_3_"
       gradientUnits="userSpaceOnUse"
       x1="212.132"
       x2="284.116"
       y1="189.196"
       y2="261.17999">
      <stop
         offset="0"
         stop-color="#ebeff0"
         id="stop12-3" />
      <stop
         offset="1"
         stop-color="#e3e5e4"
         id="stop14-6" />
    </linearGradient>
    <linearGradient
       gradientTransform="matrix(0.69204,0,0,0.67579,117.88,177.07)"
       gradientUnits="userSpaceOnUse"
       y2="516.46002"
       x2="409.48999"
       y1="542.79999"
       x1="409.57001"
       id="0-7">
      <stop
         stop-color="#e54141"
         id="stop2" />
      <stop
         offset="1"
         stop-color="#ffbd00"
         id="stop4" />
    </linearGradient>
    <linearGradient
       inkscape:collect="always"
       xlink:href="#0-36"
       id="linearGradient920"
       x1="38.5"
       y1="256"
       x2="473.5"
       y2="256"
       gradientUnits="userSpaceOnUse"
       gradientTransform="matrix(1.0023953,0,0,0.987007,-513.38323,4.0422268)" />
    <linearGradient
       id="0-3"
       gradientUnits="userSpaceOnUse"
       y1="545.14001"
       x2="0"
       y2="518.14001">
      <stop
         stop-color="#a150c9"
         id="stop8" />
      <stop
         offset="1"
         stop-color="#e39aff"
         id="stop10-5" />
    </linearGradient>
    <linearGradient
       id="0-36"
       x1="67.400002"
       y1="24.832001"
       x2="66.709999"
       y2="-20.09"
       gradientUnits="userSpaceOnUse">
      <stop
         stop-color="#f16419"
         id="stop2-7" />
      <stop
         offset="1"
         stop-color="#feb600"
         id="stop4-5" />
    </linearGradient>
  </defs>
  <rect
     width="436.04199"
     height="429.34799"
     rx="63.351387"
     x="-474.79099"
     y="42.042"
     id="rect33"
     style="fill:url(#linearGradient920);fill-opacity:1.0;stroke-width:0.99467"
     transform="rotate(-90)" />
  <g
     fill="#ffffff"
     id="g12"
     transform="matrix(30.263134,0,0,30.562383,1.0858889,0.32155267)">
    <circle
       cx="8.467"
       cy="8.4659996"
       r="5.8210001"
       opacity="0.15"
       style="paint-order:stroke markers fill"
       id="circle4" />
    <path
       transform="scale(0.26458)"
       d="m 25.859,16.805 a 7.2493,7.2493 0 0 0 -1.9844,0.23828 c -1.7462,0.45355 -3.4168,1.511 -4.6074,2.9473 -1.1868,1.4287 -1.8964,3.2465 -1.6621,5.1816 0.24567,3.3034 1.7952,8.7378 3.7266,13.387 0.96758,2.3282 2.0296,4.4526 3.0879,6.0098 0.52914,0.78238 1.0548,1.4214 1.584,1.875 0.51781,0.44599 1.0496,0.72253 1.5977,0.71875 a 3.2353,3.2353 0 0 0 2.5176,-0.73047 c 0.72946,-0.57072 1.3536,-1.3896 1.9395,-2.293 1.1339,-1.7537 2.1541,-3.9797 3.3145,-5.2988 0.11339,0.13229 0.26792,0.55034 0.45312,0.88672 0.36284,0.67655 0.83276,1.6605 1.4375,2.6621 0.60474,1.0054 1.3478,1.9641 2.2852,2.7578 0.93356,0.78616 2.0724,1.2853 3.418,1.2891 0.80884,0.06047 1.6254,0.0046 2.2793,-0.32422 0.66143,-0.3326 1.1631,-0.86537 1.1934,-1.6855 v -0.0078 a 1.6101,1.6101 0 0 0 -0.80859,-1.4023 c -0.45733,-0.28725 -1.0158,-0.47901 -1.6055,-0.78516 -1.1755,-0.6123 -2.5093,-1.6067 -3.3105,-4.498 -0.63497,-2.2942 -1.4749,-4.0114 -2.3594,-5.168 -0.88443,-1.1528 -1.5984,-2.1793 -2.7285,-2.0508 -1.9692,0.223 -2.8947,3.0462 -3.832,4.543 -0.5745,0.92222 -1.1153,1.8389 -1.584,2.5684 -0.37796,0.5934 -0.66177,0.92362 -0.88477,1.1504 -0.72568,-0.7786 -1.1576,-1.6172 -1.082,-2.6074 0.09071,-1.1112 0.72666,-2.3812 1.3125,-3.7305 1.1717,-2.6949 2.6636,-5.7274 2.3574,-8.7246 -0.22299,-2.1922 -1.3704,-4.6478 -2.9805,-5.9102 a 5.3028,5.3028 0 0 0 -2.4199,-0.94531 5.7601,5.7601 0 0 0 -0.6543,-0.05273 z m -0.1582,3.7148 c 1.1377,0.44599 2.0266,1.4217 2.4121,2.1738 a 8.8178,8.8178 0 0 0 -2.4199,-1.0215 5.7828,5.7828 0 0 0 -2.0059,1.1602 3.7796,3.7796 0 0 1 2.0137,-2.3125 z m -4.4062,1.7344 c 0.92181,0.01382 1.8115,0.26681 2.3926,0.56445 -1.0092,0.03024 -1.9502,0.18729 -2.6191,0.41406 -0.41954,0.51025 -0.77586,1.1355 -0.96484,1.9141 -0.34772,-1.0129 -0.26535,-1.9737 0.26758,-2.8203 0.30426,-0.05575 0.61656,-0.07687 0.92383,-0.07227 z m 4.2285,0.54102 c 0.98647,-0.09449 1.84,1.1685 1.9043,2.8164 0.03024,0.70679 -0.09354,1.2464 -0.32031,1.7793 a 9.8081,9.8081 0 0 0 -2.668,0.42773 c -0.05291,-0.08315 -0.1148,-0.15929 -0.16016,-0.25 -0.0076,0.10583 -0.02602,0.21241 -0.04492,0.31445 -0.87309,0.29103 -1.6316,0.80451 -2.2363,1.2656 -0.42332,-0.46111 -0.75329,-1.203 -0.85156,-2.0723 -0.17386,-1.5043 0.3863,-3.042 1.248,-3.1289 0.56316,-0.05669 1.1099,0.66583 1.4766,1.418 0.10961,-1.3833 0.79059,-2.4872 1.6523,-2.5703 z m 2.5898,5.2383 c -0.02646,2.3736 -2.382,5.2164 -3.8145,5.2051 -2.0145,-0.0189 -2.7022,-1.3871 -3.1406,-2.332 2.2753,-0.54048 5.1673,-1.8223 6.9551,-2.873 z"
       fill-rule="evenodd"
       stroke-width="3.7796"
       id="path6" />
    <path
       d="m 6.217,7.055 a 0.1675,0.23069 0 0 1 -0.335,0 0.1675,0.23069 0 1 1 0.335,0 z M 6.936,6.883 a 0.1675,0.23069 0 0 1 -0.335,0 0.1675,0.23069 0 1 1 0.335,0 z"
       id="path8" />
    <path
       d="M 7.38,7.755 C 7.27,7.9 7.037,8.01 6.65,8.18 7.091,8.087 7.083,8.177 7.097,8.312 A 1.87,1.87 0 0 0 7.38,7.755 Z M 6.45,8.257 C 6.04,8.377 5.86,8.405 5.688,8.354 a 0.816,0.816 0 0 0 0.388,0.37 C 6.009,8.589 6.009,8.466 6.449,8.257 Z"
       opacity="0.5"
       id="path10" />
  </g>
</svg>
