<?xml version="1.0" encoding="UTF-8" standalone="no"?>
<!-- Created with Inkscape (http://www.inkscape.org/) -->

<svg
   version="1.1"
   width="100%"
   height="100%"
   viewBox="0 0 512 512"
   id="svg2"
   sodipodi:docname="postman.svg"
   inkscape:version="1.1 (c68e22c387, 2021-05-23)"
   xmlns:inkscape="http://www.inkscape.org/namespaces/inkscape"
   xmlns:sodipodi="http://sodipodi.sourceforge.net/DTD/sodipodi-0.dtd"
   xmlns:xlink="http://www.w3.org/1999/xlink"
   xmlns="http://www.w3.org/2000/svg"
   xmlns:svg="http://www.w3.org/2000/svg"
   xmlns:rdf="http://www.w3.org/1999/02/22-rdf-syntax-ns#"
   xmlns:cc="http://creativecommons.org/ns#"
   xmlns:dc="http://purl.org/dc/elements/1.1/">
  <sodipodi:namedview
     id="namedview39"
     pagecolor="#ffffff"
     bordercolor="#666666"
     borderopacity="1.0"
     inkscape:pageshadow="2"
     inkscape:pageopacity="0.0"
     inkscape:pagecheckerboard="0"
     showgrid="false"
     inkscape:zoom="0.60490775"
     inkscape:cx="328.97578"
     inkscape:cy="285.99402"
     inkscape:window-width="1366"
     inkscape:window-height="700"
     inkscape:window-x="0"
     inkscape:window-y="0"
     inkscape:window-maximized="1"
     inkscape:current-layer="svg2" />
  <metadata
     id="metadata65">
    <rdf:RDF>
      <cc:Work
         rdf:about="">
        <dc:format>image/svg+xml</dc:format>
        <dc:type
           rdf:resource="http://purl.org/dc/dcmitype/StillImage" />
      </cc:Work>
    </rdf:RDF>
  </metadata>
  <defs
     id="defs4">
    <filter
       color-interpolation-filters="sRGB"
       id="7"
       x="-0.018107638"
       y="-0.017892786"
       width="1.0362153"
       height="1.0357856">
      <feGaussianBlur
         id="feGaussianBlur7"
         stdDeviation="3.7725" />
    </filter>
    <linearGradient
       y1="19.563999"
       x2="0"
       y2="504.01999"
       id="8"
       gradientUnits="userSpaceOnUse">
      <stop
         id="stop10"
         style="stop-color:#f3f3f3;stop-opacity:1"
         offset="0" />
      <stop
         id="stop12"
         style="stop-color:#eeeeee;stop-opacity:1"
         offset="0.5" />
      <stop
         id="stop14"
         style="stop-color:#ebebeb;stop-opacity:1"
         offset="1" />
    </linearGradient>
    <linearGradient
       x1="257"
       x2="362"
       id="5"
       xlink:href="#0"
       gradientUnits="userSpaceOnUse"
       gradientTransform="matrix(1.02835,0,0,1.46193,-383.73694,-115.70205)" />
    <linearGradient
       x1="257"
       x2="362"
       id="6"
       xlink:href="#0"
       gradientUnits="userSpaceOnUse"
       gradientTransform="matrix(1.0381,0,0,1.46193,-467.2489,-124.14041)" />
    <linearGradient
       x1="257"
       x2="362"
       id="4"
       xlink:href="#0"
       gradientUnits="userSpaceOnUse"
       gradientTransform="matrix(1.02835,0,0,1.46193,-610.00374,-127.97146)" />
    <linearGradient
       x1="257"
       x2="362"
       id="3"
       xlink:href="#0"
       gradientUnits="userSpaceOnUse"
       gradientTransform="matrix(1.0381,0,0,1.46193,-427.0919,-112.11041)" />
    <linearGradient
       id="0">
      <stop
         id="stop21"
         style="stop-color:#000000;stop-opacity:1"
         offset="0" />
      <stop
         id="stop23"
         style="stop-color:#ffffff;stop-opacity:1"
         offset="1" />
    </linearGradient>
    <linearGradient
       x1="257"
       x2="362"
       id="2"
       xlink:href="#0"
       gradientUnits="userSpaceOnUse"
       gradientTransform="matrix(1.0381,0,0,1.46193,-467.2489,-112.11041)" />
    <linearGradient
       x1="257"
       x2="362"
       id="1"
       xlink:href="#0"
       gradientUnits="userSpaceOnUse"
       gradientTransform="matrix(1.0381,0,0,1.46193,-467.2529,-112.11041)" />
    <filter
       id="filter887"
       x="-0.04797075"
       y="-0.048029789"
       width="1.0959415"
       height="1.0960596"
       color-interpolation-filters="sRGB">
      <feGaussianBlur
         stdDeviation="0.959375"
         id="feGaussianBlur16" />
    </filter>
    <linearGradient
       id="linearGradient875"
       x1="7.9373002"
       x2="7.9373002"
       y1="15.081"
       y2="1.852"
       gradientTransform="matrix(20.646084,0,0,19.294646,87.207826,95.323294)"
       gradientUnits="userSpaceOnUse">
      <stop
         stop-color="#fee0d5"
         offset="0"
         id="stop11" />
      <stop
         stop-color="#fbfabb"
         offset="1"
         id="stop13" />
    </linearGradient>
    <linearGradient
       id="linearGradient862"
       x1="7.9373002"
       x2="7.9373002"
       y1="15.081"
       y2="1.852"
       gradientTransform="matrix(3.7796,0,0,3.7796,591.23453,366.43826)"
       gradientUnits="userSpaceOnUse">
      <stop
         stop-color="#ff5222"
         offset="0"
         id="stop6" />
      <stop
         stop-color="#ffad25"
         offset="1"
         id="stop8" />
    </linearGradient>
    <linearGradient
       inkscape:collect="always"
       xlink:href="#linearGradient862"
       id="linearGradient902"
       x1="38.5"
       y1="256"
       x2="473.5"
       y2="256"
       gradientUnits="userSpaceOnUse"
       gradientTransform="matrix(1.0023955,0,0,0.98700698,-513.38321,4.0422266)" />
  </defs>
  <rect
     width="436.04199"
     height="429.34799"
     rx="63.351387"
     x="-474.79099"
     y="42.042"
     id="rect33"
     style="fill:url(#linearGradient902);fill-opacity:1;stroke-width:0.994671"
     transform="rotate(-90)" />
  <path
     d="m 466.06609,334.76289 c -4.986,0 -9,4.014 -9,9 v 29.939 c 0,4.986 4.014,9 9,9 h 29.998 c 4.986,0 9,-4.014 9,-9 v -29.939 c 0,-4.986 -4.014,-9 -9,-9 z m 26.246,9.0332 c 0.85574,-0.036 1.7241,0.23211 2.4375,0.80859 l -3.2285,3.2129 c -0.0865,0.10089 -0.0865,0.24481 0,0.3457 l 2.5078,2.4941 c -1.4124,0.6918 -3.1136,0.40346 -4.209,-0.7207 l 0.0137,0.0293 c -1.398,-1.4557 -1.3404,-3.7621 0.11524,-5.1602 0.66297,-0.63415 1.5075,-0.97371 2.3633,-1.0098 z m 2.7832,1.1387 c 1.3259,1.4268 1.2828,3.6478 -0.11523,5.0312 -0.17295,0.15854 -0.34705,0.31756 -0.54883,0.44727 l -2.4062,-2.4082 z m -0.12109,1.8535 c -0.0594,-0.0108 -0.12399,-8.8e-4 -0.18164,0.0352 -0.12971,0.0577 -0.20218,0.21599 -0.14453,0.3457 0,0.0144 0.0137,0.0149 0.0137,0.0293 0.14412,0.28825 0.11658,0.64757 -0.0996,0.89258 -0.10089,0.10089 -0.1165,0.27411 -0.0156,0.375 l 0.0156,0.0156 c 0.0576,0.0144 0.12985,0.0144 0.1875,0 0.0721,0 0.15793,-0.0439 0.20117,-0.10156 0.36031,-0.41796 0.43129,-1.008 0.17188,-1.498 -0.036,-0.0504 -0.089,-0.0829 -0.14844,-0.0937 z m -7.2461,2.5176 c 0.51592,0.0417 0.921,0.2857 1.3281,0.61719 -0.44679,0.0144 -0.86461,0.18683 -1.1816,0.50391 l -8.9082,8.9062 -1.9023,-1.9023 c 6.5721,-6.5613 9.1164,-8.25 10.664,-8.125 z m 1.3574,1.168 c 0.31708,0 0.63389,0.11766 0.87891,0.35547 0.24501,0.24501 0.37378,0.57672 0.35938,0.9082 -0.0144,0.3459 -0.15854,0.66393 -0.41797,0.89453 l -9.3828,8.2734 -1.1953,-1.2539 8.877,-8.8223 c 0.24501,-0.2378 0.56378,-0.35547 0.88086,-0.35547 z m 1.3828,2.2305 c -0.30266,2.6807 -4.0781,6.4859 -7.9551,10.189 l -1.6719,-1.6719 9.3809,-8.2578 c 0.0865,-0.0721 0.17403,-0.15888 0.24609,-0.25977 z m -13.75,5.0156 1.7734,1.8164 -4.0215,0.86328 c -0.0865,0.0144 -0.17309,-0.0424 -0.1875,-0.12891 -0.0144,-0.0577 -2.7e-4,-0.10129 0.043,-0.14453 l 0.043,-0.0566 z m 2.2773,2.3496 0.99414,0.92188 -2.2051,0.5625 c -0.0432,0.0288 -0.0857,0.0288 -0.12891,0 -0.0288,-0.0432 -0.0288,-0.1013 0,-0.14453 z m 1.4121,1.3691 1.7441,1.7422 c -3.1131,2.5942 -6.5425,4.801 -10.203,6.5449 v 0.0273 h -0.0156 c -0.18736,0.10088 -0.28738,0.30409 -0.24414,0.50586 l 0.40234,1.7285 c 0.0288,0.1153 -0.0288,0.23141 -0.11524,0.28906 -0.0865,0.0721 -0.21505,0.0721 -0.28711,0 l -2.4512,-2.5234 7.5234,-7.5371 z m -11.559,8.6758 2.4512,2.4355 -4.209,-0.27344 c -0.0576,-0.0144 -0.11645,-0.0583 -0.13086,-0.10156 -0.0144,-0.0576 -0.0144,-0.11496 0,-0.1582 z"
     filter="url(#filter887)"
     opacity="0.15"
     stroke-width="3.2374"
     id="path37-3"
     transform="matrix(6.2906178,0,0,5.9778903,-2775.6931,-1886.2057)"
     style="fill:#ffffff" />
  <path
     d="m 146.07269,82.208831 c -36.88682,0 -66.582678,29.337139 -66.582678,65.778329 v 218.81528 c 0,36.44119 29.695858,65.7783 66.582678,65.7783 h 221.92752 c 36.88679,0 66.58269,-29.33711 66.58269,-65.7783 V 147.98716 c 0,-36.44119 -29.6959,-65.778329 -66.58269,-65.778329 z M 340.24262,148.2298 c 6.33084,-0.2631 12.75501,1.69644 18.03282,5.90976 l -23.88472,23.48212 c -0.63993,0.73737 -0.63993,1.78923 0,2.52663 l 18.55292,18.22863 c -10.44904,5.05614 -23.03465,2.94877 -31.13851,-5.26737 l 0.10123,0.21414 c -10.34249,-10.63927 -9.91635,-27.49606 0.85256,-37.7144 4.90473,-4.63479 11.15263,-7.11652 17.4839,-7.38031 z m 20.59032,8.32242 c 9.80912,10.42805 9.49027,26.66069 -0.85248,36.77159 -1.2795,1.15869 -2.5675,2.32091 -4.06029,3.26895 l -17.80125,-17.60084 22.71431,-22.43991 z m -0.8958,13.5467 c -0.43946,-0.079 -0.9173,-0.008 -1.34382,0.25725 -0.95959,0.42173 -1.49571,1.5786 -1.06922,2.52664 0,0.10521 0.10123,0.10885 0.10123,0.21414 1.06623,2.10671 0.86248,4.73288 -0.73685,6.5236 -0.74639,0.73736 -0.86187,2.00338 -0.11537,2.74075 l 0.11537,0.11408 c 0.42615,0.10521 0.96066,0.10521 1.38716,0 0.53339,0 1.16839,-0.32083 1.48828,-0.74225 2.66559,-3.05477 3.19069,-7.3672 1.27155,-10.94845 -0.26633,-0.36837 -0.6584,-0.60588 -1.09815,-0.68483 z m -53.60724,18.40039 c 3.81682,0.30475 6.81364,2.08808 9.8254,4.51084 -3.3054,0.10532 -6.39645,1.36547 -8.74158,3.68293 l -65.90354,65.09278 -14.07339,-13.90334 c 48.62092,-47.95461 67.44385,-60.29681 78.89311,-59.38321 z m 10.04215,8.53657 c 2.34581,0 4.68958,0.85993 6.50224,2.59802 1.81262,1.79069 2.76526,4.21504 2.65874,6.63776 -0.10649,2.52807 -1.1729,4.85246 -3.09217,6.53783 l -69.41471,60.46785 -8.8429,-9.1644 65.67273,-64.47957 c 1.81261,-1.73801 4.17087,-2.59801 6.51666,-2.59801 z m 10.23009,16.30205 c -2.23911,19.59243 -30.17011,47.40353 -58.85246,74.46836 l -12.36885,-12.2194 69.40064,-60.35381 c 0.63993,-0.52697 1.28747,-1.16123 1.82058,-1.89859 z m -101.72357,36.65752 13.11973,13.27555 -29.75134,6.30943 c -0.63995,0.10521 -1.28056,-0.30989 -1.38716,-0.94216 -0.10638,-0.4217 -9.7e-4,-0.74031 0.31813,-1.05633 l 0.31812,-0.41366 17.38252,-17.17255 z m 16.84764,17.17254 7.35473,6.73773 -16.31352,4.11116 c -0.31958,0.21047 -0.634,0.21047 -0.95369,0 -0.21306,-0.31575 -0.21306,-0.74039 0,-1.05633 l 9.91194,-9.79222 z m 10.4468,10.00634 12.90298,12.73322 c -23.0309,18.96021 -48.40189,35.08909 -75.48256,47.83473 v 0.19954 h -0.11538 c -1.38614,0.73728 -2.12606,2.22248 -1.80618,3.69718 l 2.97656,12.63308 c 0.21307,0.84268 -0.2131,1.6913 -0.85255,2.11267 -0.63993,0.52693 -1.59097,0.52693 -2.12408,0 l -18.13415,-18.44276 55.65867,-55.08648 26.97709,-5.68133 z m -85.51437,63.40886 18.1342,17.80034 -31.13852,-1.99849 c -0.42611,-0.10521 -0.86152,-0.4261 -0.96813,-0.74228 -0.10649,-0.42097 -0.10649,-0.84018 0,-1.15624 l 13.97275,-13.90333 z"
     fill="url(#linearGradient875)"
     stroke-width="23.8055"
     id="path39"
     style="fill:#ffffff" />
</svg>
