<?xml version="1.0" encoding="UTF-8" standalone="no"?>
<!-- Created with Inkscape (http://www.inkscape.org/) -->

<svg
   version="1.1"
   width="100%"
   height="100%"
   viewBox="0 0 512 512"
   id="svg2"
   sodipodi:docname="uget-icon.svg"
   inkscape:version="1.1 (c68e22c387, 2021-05-23)"
   xmlns:inkscape="http://www.inkscape.org/namespaces/inkscape"
   xmlns:sodipodi="http://sodipodi.sourceforge.net/DTD/sodipodi-0.dtd"
   xmlns:xlink="http://www.w3.org/1999/xlink"
   xmlns="http://www.w3.org/2000/svg"
   xmlns:svg="http://www.w3.org/2000/svg"
   xmlns:rdf="http://www.w3.org/1999/02/22-rdf-syntax-ns#"
   xmlns:cc="http://creativecommons.org/ns#"
   xmlns:dc="http://purl.org/dc/elements/1.1/">
  <sodipodi:namedview
     id="namedview71"
     pagecolor="#ffffff"
     bordercolor="#666666"
     borderopacity="1.0"
     inkscape:pageshadow="2"
     inkscape:pageopacity="0.0"
     inkscape:pagecheckerboard="0"
     showgrid="false"
     inkscape:zoom="0.60490775"
     inkscape:cx="350.46666"
     inkscape:cy="287.64717"
     inkscape:window-width="1366"
     inkscape:window-height="700"
     inkscape:window-x="0"
     inkscape:window-y="0"
     inkscape:window-maximized="1"
     inkscape:current-layer="svg2" />
  <metadata
     id="metadata10">
    <rdf:RDF>
      <cc:Work
         rdf:about="">
        <dc:format>image/svg+xml</dc:format>
        <dc:type
           rdf:resource="http://purl.org/dc/dcmitype/StillImage" />
        <dc:title />
      </cc:Work>
    </rdf:RDF>
  </metadata>
  <defs
     id="defs8">
    <linearGradient
       id="linearGradient4379">
      <stop
         id="stop4381"
         style="stop-color:#f3f3f3;stop-opacity:1"
         offset="0" />
      <stop
         id="stop4387"
         style="stop-color:#eeeeee;stop-opacity:1"
         offset="0.5" />
      <stop
         id="stop4383"
         style="stop-color:#ebebeb;stop-opacity:1"
         offset="1" />
    </linearGradient>
    <linearGradient
       id="linearGradient4996">
      <stop
         id="stop4998"
         style="stop-color:#000000;stop-opacity:1"
         offset="0" />
      <stop
         id="stop5000"
         style="stop-color:#ffffff;stop-opacity:1"
         offset="1" />
    </linearGradient>
    <linearGradient
       x1="257"
       y1="256"
       x2="362"
       y2="256"
       id="linearGradient3108"
       xlink:href="#linearGradient4996"
       gradientUnits="userSpaceOnUse"
       gradientTransform="matrix(1.0380952,0,0,1.4619252,-228.28943,-118.25286)" />
    <linearGradient
       x1="257"
       y1="256"
       x2="362"
       y2="256"
       id="linearGradient3137"
       xlink:href="#linearGradient4996"
       gradientUnits="userSpaceOnUse"
       gradientTransform="matrix(1.0380952,0,0,1.4619252,-119.28943,-118.25286)" />
    <linearGradient
       x1="257"
       y1="256"
       x2="362"
       y2="256"
       id="linearGradient3141"
       xlink:href="#linearGradient4996"
       gradientUnits="userSpaceOnUse"
       gradientTransform="matrix(1.0380952,0,0,1.4619252,-10.28943,-118.25286)" />
    <linearGradient
       x1="257"
       y1="256"
       x2="362"
       y2="256"
       id="linearGradient3145"
       xlink:href="#linearGradient4996"
       gradientUnits="userSpaceOnUse"
       gradientTransform="matrix(1.0283468,0,0,1.4619252,101.21591,-118.25286)" />
    <linearGradient
       x1="257"
       y1="256"
       x2="362"
       y2="256"
       id="linearGradient3149"
       xlink:href="#linearGradient4996"
       gradientUnits="userSpaceOnUse"
       gradientTransform="matrix(1.0283468,0,0,1.4619252,209.19233,-118.25286)" />
    <linearGradient
       x1="257"
       y1="256"
       x2="362"
       y2="256"
       id="linearGradient3153"
       xlink:href="#linearGradient4996"
       gradientUnits="userSpaceOnUse"
       gradientTransform="matrix(1.0380952,0,0,1.4619252,-337.28943,-118.25286)" />
    <filter
       color-interpolation-filters="sRGB"
       id="filter4375"
       x="-0.018108"
       y="-0.017893281"
       width="1.036216"
       height="1.0357866">
      <feGaussianBlur
         id="feGaussianBlur4377"
         stdDeviation="3.7725" />
    </filter>
    <linearGradient
       x1="243.40109"
       y1="19.563948"
       x2="243.40109"
       y2="504.01736"
       id="linearGradient4385"
       xlink:href="#linearGradient4379"
       gradientUnits="userSpaceOnUse" />
    <linearGradient
       id="2"
       y1="530.78003"
       x2="0"
       y2="523.38"
       gradientUnits="userSpaceOnUse"
       gradientTransform="matrix(1.61348,0,0,1.61348,154.04354,-749.48894)">
      <stop
         stop-color="#ec87c0"
         id="stop37" />
      <stop
         offset="1"
         stop-color="#ffc1e4"
         id="stop39" />
    </linearGradient>
    <linearGradient
       inkscape:collect="always"
       xlink:href="#5"
       id="linearGradient901"
       x1="38.500011"
       y1="256"
       x2="473.49997"
       y2="256"
       gradientUnits="userSpaceOnUse"
       gradientTransform="matrix(1.0023955,0,0,0.98700693,-513.38323,4.0422252)" />
    <linearGradient
       id="5"
       x1="400.62"
       y1="530.78003"
       x2="400.45001"
       y2="519.87"
       gradientUnits="userSpaceOnUse"
       gradientTransform="matrix(1.61348,0,0,1.61348,8.355023,-680.63055)">
      <stop
         stop-color="#eb4646"
         id="stop7" />
      <stop
         offset="1"
         stop-color="#ff8651"
         id="stop9" />
    </linearGradient>
  </defs>
  <rect
     width="436.04199"
     height="429.34799"
     rx="63.351727"
     ry="62.379166"
     x="-474.79099"
     y="42.042"
     id="rect4981"
     style="fill:url(#linearGradient901);fill-opacity:1;stroke:none;stroke-width:0.994671"
     transform="rotate(-90)" />
  <g
     transform="matrix(0.98700694,0,0,1.0023955,486.60743,82.373253)"
     id="g3111"
     style="fill:#ffffff">
    <g
       transform="matrix(11.174862,0,0,11.174862,-387.44763,13.979979)"
       id="g3075"
       style="opacity:0.2;fill:#ffffff;fill-opacity:1">
      <path
         d="m 24.973,19.105 v 6.848 H 4.025 V 19.105 H 0 v 8.861 c 0,1.111 0.9,2.012 2.016,2.012 h 24.967 c 1.115,0 2.016,-0.9 2.016,-2.012 v -8.861 z"
         inkscape:connector-curvature="0"
         id="path3077"
         style="fill:#ffffff;fill-opacity:1" />
      <path
         d="M 14.131,18.426 8.367,11.461 c 0,0 -0.877,-0.828 0.074,-0.828 0.951,0 3.248,0 3.248,0 0,0 0,-0.557 0,-1.416 0,-2.449 0,-6.906 0,-8.723 0,0 -0.129,-0.494 0.615,-0.494 0.75,0 4.035,0 4.572,0 0.536,0 0.524,0.416 0.524,0.416 0,1.762 0,6.373 0,8.742 0,0.768 0,1.266 0,1.266 0,0 1.842,0 2.998,0 1.154,0 0.285,0.867 0.285,0.867 0,0 -4.904,6.51 -5.588,7.193 -0.493,0.495 -0.964,-0.058 -0.964,-0.058 z"
         inkscape:connector-curvature="0"
         id="path3079"
         style="fill:#ffffff;fill-opacity:1" />
      <g
         id="g3081"
         style="fill:#ffffff;fill-opacity:1" />
      <g
         id="g3083"
         style="fill:#ffffff;fill-opacity:1" />
      <g
         id="g3085"
         style="fill:#ffffff;fill-opacity:1" />
      <g
         id="g3087"
         style="fill:#ffffff;fill-opacity:1" />
      <g
         id="g3089"
         style="fill:#ffffff;fill-opacity:1" />
      <g
         id="g3091"
         style="fill:#ffffff;fill-opacity:1" />
      <g
         id="g3093"
         style="fill:#ffffff;fill-opacity:1" />
      <g
         id="g3095"
         style="fill:#ffffff;fill-opacity:1" />
      <g
         id="g3097"
         style="fill:#ffffff;fill-opacity:1" />
      <g
         id="g3099"
         style="fill:#ffffff;fill-opacity:1" />
      <g
         id="g3101"
         style="fill:#ffffff;fill-opacity:1" />
      <g
         id="g3103"
         style="fill:#ffffff;fill-opacity:1" />
      <g
         id="g3105"
         style="fill:#ffffff;fill-opacity:1" />
      <g
         id="g3107"
         style="fill:#ffffff;fill-opacity:1" />
      <g
         id="g3109"
         style="fill:#ffffff;fill-opacity:1" />
    </g>
    <g
       transform="matrix(11.174862,0,0,11.174862,-402.44763,-1.0200213)"
       id="g3056"
       style="fill:#ffffff;fill-opacity:1">
      <path
         d="m 24.973,19.105 v 6.848 H 4.025 V 19.105 H 0 v 8.861 c 0,1.111 0.9,2.012 2.016,2.012 h 24.967 c 1.115,0 2.016,-0.9 2.016,-2.012 v -8.861 z"
         inkscape:connector-curvature="0"
         id="path3016"
         style="fill:#ffffff;fill-opacity:1" />
      <path
         d="M 14.131,18.426 8.367,11.461 c 0,0 -0.877,-0.828 0.074,-0.828 0.951,0 3.248,0 3.248,0 0,0 0,-0.557 0,-1.416 0,-2.449 0,-6.906 0,-8.723 0,0 -0.129,-0.494 0.615,-0.494 0.75,0 4.035,0 4.572,0 0.536,0 0.524,0.416 0.524,0.416 0,1.762 0,6.373 0,8.742 0,0.768 0,1.266 0,1.266 0,0 1.842,0 2.998,0 1.154,0 0.285,0.867 0.285,0.867 0,0 -4.904,6.51 -5.588,7.193 -0.493,0.495 -0.964,-0.058 -0.964,-0.058 z"
         inkscape:connector-curvature="0"
         id="path3018"
         style="fill:#ffffff;fill-opacity:1" />
      <g
         id="g3020"
         style="fill:#ffffff;fill-opacity:1" />
      <g
         id="g3022"
         style="fill:#ffffff;fill-opacity:1" />
      <g
         id="g3024"
         style="fill:#ffffff;fill-opacity:1" />
      <g
         id="g3026"
         style="fill:#ffffff;fill-opacity:1" />
      <g
         id="g3028"
         style="fill:#ffffff;fill-opacity:1" />
      <g
         id="g3030"
         style="fill:#ffffff;fill-opacity:1" />
      <g
         id="g3032"
         style="fill:#ffffff;fill-opacity:1" />
      <g
         id="g3034"
         style="fill:#ffffff;fill-opacity:1" />
      <g
         id="g3036"
         style="fill:#ffffff;fill-opacity:1" />
      <g
         id="g3038"
         style="fill:#ffffff;fill-opacity:1" />
      <g
         id="g3040"
         style="fill:#ffffff;fill-opacity:1" />
      <g
         id="g3042"
         style="fill:#ffffff;fill-opacity:1" />
      <g
         id="g3044"
         style="fill:#ffffff;fill-opacity:1" />
      <g
         id="g3046"
         style="fill:#ffffff;fill-opacity:1" />
      <g
         id="g3048"
         style="fill:#ffffff;fill-opacity:1" />
    </g>
  </g>
</svg>
