<?xml version="1.0" encoding="UTF-8" standalone="no"?>
<!-- Created with Inkscape (http://www.inkscape.org/) -->

<svg
   version="1.1"
   width="100%"
   height="100%"
   viewBox="0 0 512 512"
   id="svg2"
   sodipodi:docname="vmware-netcfg.svg"
   inkscape:version="1.1 (c68e22c387, 2021-05-23)"
   xmlns:inkscape="http://www.inkscape.org/namespaces/inkscape"
   xmlns:sodipodi="http://sodipodi.sourceforge.net/DTD/sodipodi-0.dtd"
   xmlns:xlink="http://www.w3.org/1999/xlink"
   xmlns="http://www.w3.org/2000/svg"
   xmlns:svg="http://www.w3.org/2000/svg"
   xmlns:rdf="http://www.w3.org/1999/02/22-rdf-syntax-ns#"
   xmlns:cc="http://creativecommons.org/ns#"
   xmlns:dc="http://purl.org/dc/elements/1.1/">
  <sodipodi:namedview
     id="namedview34"
     pagecolor="#ffffff"
     bordercolor="#666666"
     borderopacity="1.0"
     inkscape:pageshadow="2"
     inkscape:pageopacity="0.0"
     inkscape:pagecheckerboard="0"
     showgrid="false"
     inkscape:zoom="0.42773438"
     inkscape:cx="-266.52054"
     inkscape:cy="212.74886"
     inkscape:window-width="1366"
     inkscape:window-height="700"
     inkscape:window-x="0"
     inkscape:window-y="0"
     inkscape:window-maximized="1"
     inkscape:current-layer="svg2" />
  <metadata
     id="metadata57">
    <rdf:RDF>
      <cc:Work
         rdf:about="">
        <dc:format>image/svg+xml</dc:format>
        <dc:type
           rdf:resource="http://purl.org/dc/dcmitype/StillImage" />
      </cc:Work>
    </rdf:RDF>
  </metadata>
  <defs
     id="defs4">
    <filter
       color-interpolation-filters="sRGB"
       id="7"
       x="-0.018107638"
       y="-0.017892786"
       width="1.0362153"
       height="1.0357856">
      <feGaussianBlur
         id="feGaussianBlur7"
         stdDeviation="3.7725" />
    </filter>
    <linearGradient
       y1="19.563999"
       x2="0"
       y2="504.01999"
       id="8"
       gradientUnits="userSpaceOnUse">
      <stop
         id="stop10"
         style="stop-color:#f3f3f3;stop-opacity:1"
         offset="0" />
      <stop
         id="stop12"
         style="stop-color:#eeeeee;stop-opacity:1"
         offset="0.5" />
      <stop
         id="stop14"
         style="stop-color:#ebebeb;stop-opacity:1"
         offset="1" />
    </linearGradient>
    <linearGradient
       x1="257"
       x2="362"
       id="5"
       xlink:href="#0"
       gradientUnits="userSpaceOnUse"
       gradientTransform="matrix(1.02835,0,0,1.46193,209.19,-118.25)" />
    <linearGradient
       x1="257"
       x2="362"
       id="6"
       xlink:href="#0"
       gradientUnits="userSpaceOnUse"
       gradientTransform="matrix(1.0381,0,0,1.46193,-337.29,-118.25)" />
    <linearGradient
       x1="257"
       x2="362"
       id="4"
       xlink:href="#0"
       gradientUnits="userSpaceOnUse"
       gradientTransform="matrix(1.02835,0,0,1.46193,101.22,-118.25)" />
    <linearGradient
       x1="257"
       x2="362"
       id="3"
       xlink:href="#0"
       gradientUnits="userSpaceOnUse"
       gradientTransform="matrix(1.0381,0,0,1.46193,-10.289,-118.25)" />
    <linearGradient
       id="0">
      <stop
         id="stop21"
         style="stop-color:#000000;stop-opacity:1"
         offset="0" />
      <stop
         id="stop23"
         style="stop-color:#ffffff;stop-opacity:1"
         offset="1" />
    </linearGradient>
    <linearGradient
       x1="257"
       x2="362"
       id="2"
       xlink:href="#0"
       gradientUnits="userSpaceOnUse"
       gradientTransform="matrix(1.0381,0,0,1.46193,-119.29,-118.25)" />
    <linearGradient
       x1="257"
       x2="362"
       id="1"
       xlink:href="#0"
       gradientUnits="userSpaceOnUse"
       gradientTransform="matrix(1.0381,0,0,1.46193,-228.29,-118.25)" />
    <linearGradient
       id="h"
       x1="499.95001"
       x2="499.95001"
       y1="2.0078001"
       y2="1026"
       gradientTransform="matrix(0.25597642,0,0,0.23274261,236.24664,260.73723)"
       gradientUnits="userSpaceOnUse"
       spreadMethod="pad">
      <stop
         stop-color="#fff"
         offset="0"
         id="stop2" />
      <stop
         stop-color="#d7d7d7"
         offset="1"
         id="stop4" />
    </linearGradient>
    <radialGradient
       id="i-7"
       cx="512.01001"
       cy="512.01001"
       r="470.16"
       gradientTransform="matrix(0.25087789,0,0,0.22810687,208.78183,218.72686)"
       gradientUnits="userSpaceOnUse"
       xlink:href="#linearGradient862-3">
      <stop
         stop-opacity="0"
         offset="0"
         id="stop28" />
      <stop
         stop-opacity=".52593"
         offset="1"
         id="stop30" />
    </radialGradient>
    <linearGradient
       id="f"
       x1="2331.3"
       x2="2331.3"
       y1="435.51001"
       y2="45.726002"
       gradientTransform="matrix(0.67449251,0,0,0.62579736,-1201.432,232.0982)"
       gradientUnits="userSpaceOnUse">
      <stop
         stop-color="#807c76"
         offset=".057692"
         id="stop7" />
      <stop
         stop-color="#d4d7d0"
         offset=".38462"
         id="stop9" />
      <stop
         stop-color="#bdbfba"
         offset=".55769"
         id="stop11" />
      <stop
         stop-color="#acb3ac"
         offset=".63462"
         id="stop13" />
      <stop
         stop-color="#dadfda"
         offset=".75"
         id="stop15" />
      <stop
         stop-color="#c2c7c1"
         offset=".86274"
         id="stop17" />
      <stop
         stop-color="#7f7a75"
         offset=".94118"
         id="stop19" />
    </linearGradient>
    <linearGradient
       id="linearGradient862-3"
       x1="7.9373002"
       x2="7.9373002"
       y1="15.081"
       y2="1.852"
       gradientTransform="matrix(3.7796,0,0,3.7796,-121.27081,242.45241)"
       gradientUnits="userSpaceOnUse">
      <stop
         stop-color="#1560ff"
         offset="0"
         id="stop41" />
      <stop
         stop-color="#15afff"
         offset="1"
         id="stop43" />
    </linearGradient>
    <linearGradient
       inkscape:collect="always"
       xlink:href="#linearGradient862-3"
       id="linearGradient1448"
       x1="38.5"
       y1="256"
       x2="473.5"
       y2="256"
       gradientUnits="userSpaceOnUse"
       gradientTransform="matrix(1.0037787,0,0,0.98368796,-514.89673,7.7316613)" />
    <linearGradient
       id="linearGradient3549"
       x1="28.551001"
       x2="28.551001"
       y1="1052.4"
       y2="1004.4"
       gradientTransform="matrix(1.1667,0,0,1.1667,601.84707,-822.8682)"
       gradientUnits="userSpaceOnUse">
      <stop
         stop-color="#bfe1f9"
         offset="0"
         id="stop36" />
      <stop
         stop-color="#f6fbfe"
         offset="1"
         id="stop38" />
    </linearGradient>
    <linearGradient
       inkscape:collect="always"
       xlink:href="#linearGradient3549"
       id="linearGradient1470"
       x1="38.514999"
       y1="255.99734"
       x2="473.51999"
       y2="255.99734"
       gradientUnits="userSpaceOnUse" />
    <linearGradient
       inkscape:collect="always"
       xlink:href="#8"
       id="linearGradient1622"
       x1="236.24899"
       y1="379.89938"
       x2="498.3652"
       y2="379.89938"
       gradientUnits="userSpaceOnUse"
       gradientTransform="matrix(0.98368796,0,0,1.0037787,7.7316613,0.96199537)" />
    <linearGradient
       gradientUnits="userSpaceOnUse"
       y2="533.06"
       x2="0"
       y1="541.15997"
       id="1-6"
       gradientTransform="matrix(1.49857,0,0,1.49857,52.511651,-415.16702)">
      <stop
         stop-color="#0976da"
         id="stop52" />
      <stop
         offset="1"
         stop-color="#5de5f0"
         id="stop54" />
    </linearGradient>
  </defs>
  <rect
     width="436.6438"
     height="427.90433"
     rx="63.43882"
     x="-476.25125"
     y="45.603645"
     id="rect33"
     style="fill:url(#linearGradient1448);fill-opacity:1;stroke-width:0.993679"
     transform="rotate(-90)" />
  <g
     id="g37"
     style="fill:#ffffff"
     transform="matrix(0.98368796,0,0,1.0037788,7.7316621,0.96199761)">
    <path
       d="m 270.53,39.656 c -2.069,0.022 -3.961,0.214 -5.375,0.531 h -75.12 c 9.272,11.812 0.64,31.54 14.625,31.344 6.81,9.134 -13.591,2.71 1.125,9.75 8.463,6.323 -8.918,9.951 1.563,15.625 -12.08,5.913 1.966,30.927 10.938,37.19 14.767,11.793 6.523,-24.963 23,-26.875 8.953,-9.697 24.645,-15.933 35.813,-25.688 -10.914,-0.841 -17.274,-7.289 -6.938,-11.281 19.02,18.493 4.78,-8.748 -5.75,-13.06 10.189,-3.075 20.1,-0.836 18.688,-8.813 8.749,-6.072 -3.598,-8.814 -12.563,-8.719 m -172.37,9.313 c -7.936,11.805 1.148,21.274 7.75,6.875 4.673,-6.01 -3.468,-6.655 -7.75,-6.875 m 19.813,2.656 c -15.333,6.742 -3.786,22.472 -3.406,25.969 16.15,5.301 25.11,-3.453 31.22,11.531 14.559,7.96 1.284,21.458 -5.063,26.09 10.614,-5.949 29.2,23.529 24.13,7.188 -6.247,-4.327 16.818,6.939 4.875,-7.125 -10.991,-16.8 0.866,-7.515 5.5,-3.594 15.761,-13.408 -17.823,-15.05 -9.438,-28.844 -7.348,-5.646 -16.988,-22.75 -30,-19.406 -8.711,10.687 -1.22,-23.282 -14,-6.281 -0.662,9.503 -0.244,21.558 -3.969,5.094 -2.495,-2.882 4.296,-9.581 0.156,-10.625 m 22.75,63.59 c -0.342,0.192 -0.675,0.419 -1,0.688 0.304,-0.2 0.647,-0.43 1,-0.688 m -54,-63.47 C 76.442,55.001 76.985,68.207 89.64,69.621 93.975,64.934 91.372,52.634 86.734,51.746 M 65.296,56.59 c -3.778,0.662 1.415,19.978 -5.531,2.781 -1.386,2.922 -4.255,3.209 -6.969,2.25 -3.531,4.31 -6.512,9.09 -8.813,14.25 6.447,1.309 15.184,2.287 3.219,3.719 -17.311,6.559 16.644,14.277 22.22,6.5 21.377,4.96 0.783,-16.23 -1.094,-27.719 -1.133,-1.153 -1.979,-1.693 -2.625,-1.781 -0.141,-0.019 -0.284,-0.021 -0.406,0 m 31.469,10.844 c -12.891,11.493 16.369,20.97 -3.719,29.531 -3.01,-10.673 -8.164,5.338 -19.656,-3.281 -14.156,5.592 -23.396,1.088 -33.563,-4.906 -0.86,4.17 -1.313,8.474 -1.313,12.906 v 130.91 c 0.106,0.052 0.205,0.105 0.313,0.156 3.582,6.304 18.619,33.16 19.313,25.13 -7.536,-7.487 -15.283,-29.944 -2.531,-9.938 11.422,19.02 26.835,31.35 49.34,35.875 12.306,3.971 22.397,17.628 33.22,14.625 6.119,15.304 -18.14,30.01 0.813,44.28 9.893,14.451 26.554,23.931 17.563,44.22 -6.288,19.814 -3.624,41.38 -9.06,59.844 -1.688,11.237 16.514,39.776 14.938,16.938 5.313,-15.871 5.174,-33.32 17.688,-44.563 17.12,0.129 3.255,-17.486 20.25,-15.188 10.371,-12.896 13.374,-28.29 30.875,-33.406 2.091,-15.654 29.09,-39.624 1.188,-45.719 -7.583,-3.546 -27.12,-4.813 -25.625,-6.563 3.02,-15.533 -25.22,-19.958 -37.25,-26.313 -15.794,-10.635 -39.498,17.669 -45.06,-6.719 -3.32,-7.673 -15.485,-7.785 -9.906,-19.625 -10.05,9.487 -29.711,6.602 -24.563,-11.719 7.819,-15.43 37.852,-16.184 42.969,2.375 -7.104,-20.469 13.745,-36.406 25.313,-50.969 2.355,-6.96 16.316,-12.938 11.5,-3.688 8.205,-0.281 20.638,-14.327 6.06,-7.844 -0.206,-12.81 -12.739,-9.163 -16.813,-7.344 7.551,-11.369 46.3,-5.135 30.06,-23.719 -12.583,-4.837 -11.523,-33.07 -24.25,-17.344 1.071,-9.688 -25.901,-28.653 -25.313,-12.406 3.293,14.538 0.601,31.28 -6.406,40.813 -1.462,-21.302 -39.767,-16.612 -34.844,-39.31 7.133,-10.819 15.487,-25.752 16.281,-24.406 12.784,-4.63 23.07,-18.11 8.25,-26.969 -0.792,7.717 -11.145,23.632 -9.688,4.375 -9.585,10.781 -7.398,-17.13 -16.375,-20.03 m 306.84,7.094 c -0.421,0.022 -0.708,0.155 -0.875,0.375 -22.453,5.211 -31.393,25.555 -42.5,42.41 -16.373,7 -15.729,37.07 2.563,27.469 4.896,8.112 -3.448,20.888 10.813,10.281 11.502,-14.44 2.051,-37.801 21.625,-46.906 1.426,7.08 -18.07,33.533 4.688,29.19 20.574,0.736 -14.944,1.938 -4.938,14.406 -10.397,-5.852 -4.992,15.988 -18.563,10.906 -11.757,6.067 -19.506,-2.83 -16.813,-12.563 -9.249,5.119 2.93,19.57 -13.12,20.438 -3.596,12.12 -33.19,10.288 -16.375,22.625 7.467,18.36 -27.831,1.155 -17.813,23.19 8.572,21.786 26.524,-7.209 33.813,-12.813 13.622,-10.02 33.643,15.922 23.375,18.5 12.928,-2.316 9.877,-14.582 -1.188,-19.406 -6.14,-15.11 19.418,7.426 18,15 9.02,16.03 5.317,-16.426 14.5,-2.063 -1.072,15.15 36.961,3.564 18.813,22.875 -15.603,2.982 -31,-3.791 -44.44,0.563 -12.503,-0.105 -11.823,-12.795 -16.375,-15.969 -15.904,1.226 -35.603,1.092 -46.25,13.281 -11.514,14.986 -28.11,35.927 -15.563,55.06 12.558,28.357 43.724,1.472 61.63,18.219 5.321,6.983 -4.647,15.28 7.25,22.844 4.477,16.11 -5.058,31.411 5.938,46.813 5.685,14.485 9.214,36.17 30.375,22.938 22.396,-12.786 16.458,-36.35 34.938,-49.41 -14.622,-26.847 17.888,-38.612 26,-60.41 -17.722,2.461 -33.531,-14.316 -37.813,-31.19 -7.445,-8.195 -5.504,-20.27 2.813,-4.875 11.431,10.508 11.668,41.665 32.813,25.625 3.164,-1.255 8.095,-3.684 12.594,-6.594 v -17.344 c -12.791,3.919 -24.946,-27.739 -6.219,-7.469 2.179,0.877 4.256,1.674 6.219,2.375 v -151.22 c 0,-3.337 -0.256,-6.586 -0.75,-9.781 -1.013,-0.27 -1.958,-0.745 -2.781,-1.5 -10.06,1.329 -23.349,19.92 -20.19,1.969 -8.745,-0.55 -1.549,16.1 -13.563,16.563 -1.21,8.557 -12.1,1.561 -8,9.688 -8.432,-5.674 -15.614,-23.589 1,-12.344 24.673,-7.02 -16.277,-22.859 -19.438,-26.688 4.649,-1.057 -3.24,-5.219 -6.188,-5.063 m -204.56,5.063 c -8.212,6.492 15.613,7.714 0,0 m -109.66,3.5 c -9.185,9.115 14.628,8.379 0,0 m 53.22,9.03 c -6.956,10.81 10.277,3.991 0,0 m 152.31,12.781 c -8.143,8.894 -18.887,-2.332 -19.06,5.313 1.476,2.31 7.362,18.791 20.313,6.625 6.951,-2.78 4.235,-9.792 -1.25,-11.938 m -173.37,5.313 c -15.446,12.797 26.24,13.977 3.281,1.469 l -3.281,-1.469 m 203.56,35.563 c -10.717,6.931 5.511,21.398 -0.031,28.22 -6.968,11.518 25.896,-0.811 8.344,-10 -1.203,-7.594 -9.616,-16.795 -8.313,-18.219 m -7.313,13.75 c -15.494,4.156 -3.55,25.614 1.938,5.406 0.308,-1.172 0.76,-5.445 -1.938,-5.406 m -124.06,15.531 c -14.414,9.324 -2.251,18.633 8.313,14.438 -2.169,-5.626 -8.215,-9.172 -8.313,-14.438 m 272.25,15.688 c 7.192,3.443 -13.15,9.315 -0.25,15.375 7.507,8.375 4.639,26.349 -7.563,13.625 2.267,-14.206 -16.533,-24.801 7.813,-29 m -36.938,0.125 c -0.976,9.127 20.738,23.286 -2.688,18.656 -12.389,1.379 -30.982,-0.355 -15.375,-15 4.932,-2.809 17.926,9.714 11.188,-1.969 2.389,-0.144 4.625,-1 6.875,-1.688 m -71.56,19.75 c -9.04,5.523 6.248,9.758 0,0 m -226.91,51.47 c -1.523,4.822 28.553,9.725 7.781,2 l -3.063,-1.031 -4.719,-0.969 m 23.344,6.875 c -9.13,8.794 18.812,2.627 0,0 m 305.38,80.66 c -19.839,0.485 -17.205,49.04 -3.375,20.313 1.312,-6.234 6.571,-14.467 3.375,-20.313"
       inkscape:connector-curvature="0"
       id="path41"
       style="opacity:0.47;fill:url(#linearGradient1470);fill-opacity:1" />
  </g>
  <path
     id="path"
     d="m 488.58628,336.5058 q -2.34904,-5.28392 -5.29896,-10.35239 c -1.10627,-1.91329 -2.28072,-3.81379 -3.52345,-5.67655 -5.33987,-8.03337 -11.85425,-15.62358 -19.54339,-22.7571 -25.16969,-23.35254 -55.57065,-35.03547 -91.17351,-35.03547 -35.60532,0 -65.99069,11.68268 -91.15835,35.03547 -25.17002,23.35359 -37.76166,51.54704 -37.76166,84.57721 0,33.03016 12.59164,61.24048 37.76166,84.59125 25.16971,23.35258 55.55808,35.02141 91.15835,35.02141 35.60286,0 66.00584,-11.67019 91.17351,-35.02141 13.86192,-12.87383 23.91341,-27.21592 30.14013,-43.01914 5.06667,-12.88629 7.60688,-26.73514 7.60688,-41.57211 0,-11.37867 -1.48865,-22.18691 -4.47944,-32.42508 -0.34162,-1.15305 -0.69615,-2.30606 -1.0652,-3.44652 -1.1199,-3.3705 -2.40362,-6.67757 -3.83758,-9.92144 z"
     fill="url(#h)"
     stroke-width="10.3212"
     style="fill:url(#linearGradient1622);fill-opacity:1" />
  <ellipse
     cx="369.04706"
     cy="382.29694"
     color="#000000"
     fill="url(#i-7)"
     stroke-width="21.5919"
     id="circle86"
     style="fill:#22241c;fill-opacity:1"
     rx="116.02777"
     ry="107.65115" />
  <path
     class="shp86"
     d="m 424.43335,302.42489 -4.35048,10.78248 c -0.28369,0.70723 0.006,1.64583 0.64783,2.10262 l 5.1195,3.6359 c 0.62688,0.44408 1.69974,0.4695 2.36074,0.03 l 10.09036,-6.6834 c 0.66072,-0.4381 1.66597,-0.36331 2.23925,0.1749 l 4.22917,3.92385 c 0.58659,0.54422 0.66072,1.46434 0.18861,2.07761 l -7.20343,9.35577 c -0.47219,0.61304 -0.45203,1.59582 0.0404,2.19029 l 3.92556,4.7499 c 0.4786,0.58239 1.51086,0.86359 2.26628,0.60105 l 11.60809,-4.03642 c 0.76224,-0.26237 1.7065,0.0526 2.11114,0.7072 l 2.98799,4.79987 c 0.41814,0.66983 0.2296,1.57075 -0.39803,2.05263 l -9.57768,7.31555 c -0.62771,0.48219 -0.88363,1.43306 -0.57372,2.12143 l 2.4619,5.52574 c 0.30391,0.67582 1.2141,1.19524 2.0235,1.12645 l 12.35002,-1.11397 c 0.8094,-0.0748 1.63899,0.45679 1.84808,1.18903 l 1.54467,5.35689 c 0.21593,0.74457 -0.21596,1.57078 -0.95781,1.88369 l -11.29767,4.76862 c -0.7421,0.31322 -1.25457,1.17026 -1.14665,1.91492 l 0.84313,5.92641 c 0.10041,0.72588 0.84306,1.44557 1.64574,1.57075 l 12.23525,1.88987 c 0.80253,0.12483 1.45019,0.83855 1.45019,1.58949 v 5.54457 c 0,0.76968 -0.64783,1.47062 -1.45019,1.58949 l -12.22185,1.88997 c -0.80252,0.12482 -1.53784,0.82597 -1.63899,1.57071 l -0.83638,5.93268 c -0.10157,0.72593 0.41174,1.60202 1.1466,1.91493 l 11.27748,4.76236 c 0.73486,0.31323 1.16682,1.15769 0.95771,1.88359 l -1.54454,5.35689 c -0.21594,0.74457 -1.03878,1.26418 -1.84817,1.18901 l -12.33633,-1.10761 c -0.80939,-0.0755 -1.71319,0.43209 -2.02349,1.12638 l -2.47536,5.52576 c -0.30387,0.6758 -0.0561,1.64589 0.57289,2.12149 l 9.57768,7.31547 c 0.62768,0.48222 0.80938,1.39554 0.39804,2.05263 l -2.98797,4.79989 c -0.41817,0.66981 -1.35576,0.96998 -2.11794,0.7072 l -11.62143,-4.03646 c -0.76227,-0.26321 -1.77397,0.003 -2.26637,0.60104 l -3.9187,4.74993 c -0.47863,0.58239 -0.50599,1.57701 -0.0324,2.19029 l 7.20354,9.36188 c 0.47216,0.61305 0.39077,1.54574 -0.18863,2.07761 l -4.22917,3.92387 c -0.58659,0.54424 -1.57829,0.613 -2.23936,0.17488 l -10.08368,-6.6834 c -0.66074,-0.43809 -1.71995,-0.41937 -2.36081,0.0373 l -5.1194,3.64216 c -0.62769,0.44406 -0.93078,1.40181 -0.6478,2.10268 l 4.35046,10.77004 c 0.28367,0.70721 -0.0563,1.5833 -0.76222,1.95873 l -5.17336,2.77226 c -0.72193,0.388 -1.69296,0.21303 -2.21224,-0.36929 l -7.8848,-8.88624 c -0.51973,-0.58235 -1.54464,-0.81978 -2.2865,-0.53223 l -5.95575,2.28413 c -0.7284,0.28186 -1.28833,1.12647 -1.21411,1.87737 l 1.20058,11.45847 c 0.0805,0.75091 -0.49232,1.52067 -1.28157,1.71466 l -5.77369,1.43313 c -0.80255,0.20042 -1.69297,-0.20044 -2.03019,-0.88868 l -5.13976,-10.48202 c -0.33679,-0.68853 -1.26124,-1.16397 -2.06392,-1.06389 l -6.38745,0.7823 c -0.78239,0.0939 -1.55809,0.78217 -1.69298,1.52692 l -2.03703,11.35192 c -0.13457,0.74457 -0.90381,1.34547 -1.71315,1.34547 h -5.976 c -0.82961,0 -1.58498,-0.60104 -1.71319,-1.34547 l -2.03697,-11.33948 c -0.13456,-0.74463 -0.89033,-1.42684 -1.69298,-1.5207 l -6.39428,-0.77595 c -0.78241,-0.094 -1.72675,0.382 -2.06395,1.0638 l -5.13289,10.46332 c -0.33762,0.6818 -1.24781,1.08258 -2.03029,0.88856 l -5.77371,-1.43301 c -0.80251,-0.20044 -1.36238,-0.96382 -1.28154,-1.71476 l 1.19391,-11.44571 c 0.0805,-0.75092 -0.46571,-1.58952 -1.21414,-1.87743 l -5.95572,-2.29661 c -0.72841,-0.28187 -1.77388,-0.0523 -2.28651,0.53154 l -7.88479,8.88619 c -0.51969,0.58162 -1.50408,0.75094 -2.21228,0.36931 l -5.17333,-2.77225 c -0.72194,-0.388 -1.04547,-1.25788 -0.76223,-1.96503 l 4.35044,-10.78249 c 0.28367,-0.70718 -0.006,-1.64586 -0.64786,-2.10269 l -5.11943,-3.6358 c -0.62769,-0.44407 -1.69974,-0.46949 -2.36078,-0.0299 l -10.09031,6.68347 c -0.6607,0.43811 -1.66598,0.36332 -2.23933,-0.1749 l -4.22916,-3.92385 c -0.5866,-0.54425 -0.66074,-1.46439 -0.1886,-2.07767 l 7.20344,-9.35573 c 0.47215,-0.61299 0.45199,-1.59577 -0.0405,-2.19031 l -3.92557,-4.74985 c -0.47861,-0.58234 -1.51083,-0.86362 -2.26635,-0.60107 l -11.6081,4.03642 c -0.76226,0.26323 -1.7064,-0.0523 -2.1112,-0.7072 l -2.98796,-4.79985 c -0.41817,-0.66985 -0.2296,-1.57077 0.39809,-2.05258 l 9.5777,-7.31555 c 0.62763,-0.48216 0.88355,-1.43303 0.57286,-2.1214 l -2.46194,-5.52498 c -0.30388,-0.67583 -1.21407,-1.19533 -2.0235,-1.12644 l -12.34998,1.11389 c -0.80939,0.0751 -1.63902,-0.45679 -1.84818,-1.18905 l -1.54458,-5.35688 c -0.21592,-0.74457 0.21596,-1.57072 0.95782,-1.88358 l 11.29766,-4.76869 c 0.74211,-0.31324 1.25454,-1.17021 1.14657,-1.91493 l -0.84306,-5.92633 c -0.10157,-0.72588 -0.84316,-1.44558 -1.64575,-1.57075 l -12.23529,-1.88996 c -0.80253,-0.12483 -1.4501,-0.83855 -1.4501,-1.58948 v -5.54457 c 0,-0.76974 0.64781,-1.47058 1.4501,-1.58952 l 12.22184,-1.88988 c 0.80253,-0.12484 1.53787,-0.82608 1.63907,-1.57075 l 0.8364,-5.93266 c 0.10041,-0.72591 -0.41177,-1.60208 -1.14668,-1.91493 l -11.27742,-4.76234 c -0.73489,-0.31326 -1.16694,-1.15773 -0.95782,-1.88369 l 1.54461,-5.35691 c 0.21595,-0.74457 1.03871,-1.26406 1.84809,-1.18901 l 12.33643,1.10766 c 0.80937,0.0755 1.7132,-0.43206 2.02351,-1.12642 l 2.47533,-5.52578 c 0.30387,-0.6758 0.0564,-1.64578 -0.57288,-2.12142 l -9.57769,-7.31553 c -0.62769,-0.48216 -0.80938,-1.39551 -0.39804,-2.05255 l 2.988,-4.79987 c 0.41815,-0.66983 1.35566,-0.96998 2.11793,-0.7072 l 11.62146,4.03635 c 0.7622,0.26319 1.77384,-0.003 2.26629,-0.60105 l 3.91874,-4.74986 c 0.47865,-0.58238 0.50602,-1.57701 0.0324,-2.19033 l -7.20347,-9.36185 c -0.47221,-0.61301 -0.39163,-1.54571 0.18859,-2.07767 l 4.22915,-3.92383 c 0.58661,-0.54428 1.57832,-0.613 2.23929,-0.17492 l 10.08376,6.68341 c 0.66071,0.43807 1.71997,0.41937 2.36072,-0.0373 l 5.11952,-3.64217 c 0.62769,-0.44404 0.93078,-1.40177 0.64783,-2.10271 l -4.3505,-10.77008 c -0.28369,-0.70718 0.0562,-1.58322 0.76222,-1.9587 l 5.17337,-2.77228 c 0.72196,-0.38798 1.69293,-0.21301 2.21234,0.36931 l 7.88481,8.88623 c 0.51966,0.58236 1.54455,0.81982 2.2865,0.53152 l 5.95571,-2.28408 c 0.7284,-0.28186 1.28823,-1.12645 1.21409,-1.8774 l -1.20051,-11.45842 c -0.0805,-0.75093 0.4923,-1.52064 1.28153,-1.71473 l 5.77372,-1.43302 c 0.80253,-0.20043 1.69297,0.20043 2.03028,0.88865 l 5.13962,10.48201 c 0.33763,0.68852 1.26137,1.16397 2.06398,1.06381 l 6.3875,-0.78218 c 0.78237,-0.0943 1.55803,-0.78232 1.69299,-1.52699 l 2.03692,-11.35196 c 0.13458,-0.74458 0.90383,-1.34543 1.71323,-1.34543 h 5.97594 c 0.82962,0 1.5851,0.60108 1.71324,1.34543 l 2.03699,11.33949 c 0.13456,0.74459 0.8903,1.42683 1.69296,1.52074 l 6.39433,0.77599 c 0.78235,0.0939 1.72661,-0.38202 2.06395,-1.0639 l 5.13289,-10.46323 c 0.3376,-0.68178 1.2478,-1.08266 2.03017,-0.88866 l 5.77369,1.4331 c 0.80254,0.20044 1.36255,0.9637 1.28158,1.71467 l -1.19381,11.44581 c -0.0805,0.75094 0.46573,1.58951 1.21402,1.87739 l 5.95577,2.29666 c 0.7284,0.28185 1.77392,0.0523 2.28654,-0.53154 l 7.88471,-8.88623 c 0.5197,-0.58159 1.50412,-0.75093 2.21239,-0.36931 l 5.17332,2.77228 c 0.72195,0.38801 1.04545,1.25781 0.76224,1.96499 z m -19.80299,22.9731 c -16.76774,-8.98632 -35.83537,-10.93884 -53.22986,-6.84622 -3.35227,0.78854 -1.38266,0.3566 -1.38266,0.3566 -4.66756,1.47691 -6.52912,5.93877 -4.1751,9.91891 0,0 -1.35574,-2.29674 0.10803,0.17492 6.97422,11.80883 20.93633,35.43886 20.93633,35.43886 3.15654,5.34427 11.04133,9.5746 17.61755,9.4496 0,0 30.93134,-0.5943 46.40463,-0.89487 2.8734,-0.0597 0,0 0,0 4.76178,-0.0939 7.85796,-3.811 6.81919,-7.97267 -4.82929,-16.13305 -16.22145,-30.58863 -33.0901,-39.62538 z m -1.1669,115.25254 c 16.93639,-8.711 28.55761,-22.86661 33.73736,-38.81153 0.99814,-3.07272 0.38434,-1.28284 0.38434,-1.28284 1.03867,-4.47457 -2.12461,-8.24809 -7.01466,-8.42959 0,0 2.8193,0.10602 -0.21598,-0.003 -14.50144,-0.53228 -43.51768,-1.602 -43.51768,-1.602 -6.56281,-0.24372 -14.53539,3.84854 -17.8064,9.14278 0,0 -15.37849,24.90574 -23.07443,37.36674 -1.42988,2.3155 0,0 0,0 -2.36745,3.83617 -0.51968,8.21055 3.85816,9.531 0,0 -2.76552,-0.71318 0,0 17.39515,4.46825 36.61901,2.85362 53.64944,-5.90753 z m -84.43924,-10.5446 c 3.41982,2.85998 8.43104,2.15274 10.82575,-1.6709 0,0 -1.44344,2.30292 0,0 7.78368,-12.40946 23.33756,-37.22136 23.33756,-37.22136 3.30493,-5.27554 3.14314,-13.7238 -0.36422,-18.88042 0,0 -15.50659,-22.78524 -23.25658,-34.16768 -1.6255,-2.38435 -0.11437,-0.16888 -0.11437,-0.16888 -2.61031,-3.83618 -7.71616,-4.49331 -11.37201,-1.42056 0,0 1.36255,-1.38933 -1.00501,0.95119 -12.2893,12.13411 -19.69507,28.54814 -19.35782,46.51622 0.33758,18.06674 8.44466,34.31773 21.31394,46.05879 z"
     fill="url(#f)"
     stroke-width="25.489"
     id="path90"
     style="fill:url(#f)" />
</svg>
