<?xml version="1.0" encoding="UTF-8" standalone="no"?>
<!-- Created with Inkscape (http://www.inkscape.org/) -->

<svg
   version="1.1"
   width="100%"
   height="100%"
   viewBox="0 0 512 512"
   id="svg2"
   sodipodi:docname="1aim (74th copy).svg"
   inkscape:version="1.1 (c68e22c387, 2021-05-23)"
   xmlns:inkscape="http://www.inkscape.org/namespaces/inkscape"
   xmlns:sodipodi="http://sodipodi.sourceforge.net/DTD/sodipodi-0.dtd"
   xmlns:xlink="http://www.w3.org/1999/xlink"
   xmlns="http://www.w3.org/2000/svg"
   xmlns:svg="http://www.w3.org/2000/svg"
   xmlns:rdf="http://www.w3.org/1999/02/22-rdf-syntax-ns#"
   xmlns:cc="http://creativecommons.org/ns#"
   xmlns:dc="http://purl.org/dc/elements/1.1/">
  <sodipodi:namedview
     id="namedview39"
     pagecolor="#ffffff"
     bordercolor="#666666"
     borderopacity="1.0"
     inkscape:pageshadow="2"
     inkscape:pageopacity="0.0"
     inkscape:pagecheckerboard="0"
     showgrid="false"
     inkscape:zoom="0.21386719"
     inkscape:cx="383.41553"
     inkscape:cy="294.57534"
     inkscape:window-width="1366"
     inkscape:window-height="700"
     inkscape:window-x="0"
     inkscape:window-y="0"
     inkscape:window-maximized="1"
     inkscape:current-layer="svg2" />
  <metadata
     id="metadata65">
    <rdf:RDF>
      <cc:Work
         rdf:about="">
        <dc:format>image/svg+xml</dc:format>
        <dc:type
           rdf:resource="http://purl.org/dc/dcmitype/StillImage" />
      </cc:Work>
    </rdf:RDF>
  </metadata>
  <defs
     id="defs4">
    <inkscape:perspective
       sodipodi:type="inkscape:persp3d"
       inkscape:vp_x="0 : 256 : 1"
       inkscape:vp_y="0 : 1000 : 0"
       inkscape:vp_z="512 : 256 : 1"
       inkscape:persp3d-origin="256 : 170.66667 : 1"
       id="perspective2202" />
    <filter
       color-interpolation-filters="sRGB"
       id="7"
       x="-0.018107638"
       y="-0.017892786"
       width="1.0362153"
       height="1.0357856">
      <feGaussianBlur
         id="feGaussianBlur7"
         stdDeviation="3.7725" />
    </filter>
    <linearGradient
       y1="19.563999"
       x2="0"
       y2="504.01999"
       id="8"
       gradientUnits="userSpaceOnUse">
      <stop
         id="stop10"
         style="stop-color:#f3f3f3;stop-opacity:1"
         offset="0" />
      <stop
         id="stop12"
         style="stop-color:#eeeeee;stop-opacity:1"
         offset="0.5" />
      <stop
         id="stop14"
         style="stop-color:#ebebeb;stop-opacity:1"
         offset="1" />
    </linearGradient>
    <linearGradient
       x1="257"
       x2="362"
       id="5"
       xlink:href="#0"
       gradientUnits="userSpaceOnUse"
       gradientTransform="matrix(1.02835,0,0,1.46193,-383.73694,-115.70205)" />
    <linearGradient
       x1="257"
       x2="362"
       id="6"
       xlink:href="#0"
       gradientUnits="userSpaceOnUse"
       gradientTransform="matrix(1.0381,0,0,1.46193,-467.2489,-124.14041)" />
    <linearGradient
       x1="257"
       x2="362"
       id="4"
       xlink:href="#0"
       gradientUnits="userSpaceOnUse"
       gradientTransform="matrix(1.02835,0,0,1.46193,-610.00374,-127.97146)" />
    <linearGradient
       x1="257"
       x2="362"
       id="3"
       xlink:href="#0"
       gradientUnits="userSpaceOnUse"
       gradientTransform="matrix(1.0381,0,0,1.46193,-427.0919,-112.11041)" />
    <linearGradient
       id="0">
      <stop
         id="stop21"
         style="stop-color:#000000;stop-opacity:1"
         offset="0" />
      <stop
         id="stop23"
         style="stop-color:#ffffff;stop-opacity:1"
         offset="1" />
    </linearGradient>
    <linearGradient
       x1="257"
       x2="362"
       id="2"
       xlink:href="#0"
       gradientUnits="userSpaceOnUse"
       gradientTransform="matrix(1.0381,0,0,1.46193,-467.2489,-112.11041)" />
    <linearGradient
       x1="257"
       x2="362"
       id="1"
       xlink:href="#0"
       gradientUnits="userSpaceOnUse"
       gradientTransform="matrix(1.0381,0,0,1.46193,-467.2529,-112.11041)" />
    <linearGradient
       id="linearGradient1975"
       x1="44.636002"
       x2="45.200001"
       y1="-10.874"
       y2="-10.319"
       gradientUnits="userSpaceOnUse"
       gradientTransform="matrix(27.69151,0,0,26.46671,-1021.0107,560.16278)">
      <stop
         stop-color="#fefffe"
         offset="0"
         id="stop297" />
      <stop
         stop-color="#fff"
         offset=".78351"
         id="stop299" />
      <stop
         stop-color="#c1e4f9"
         offset="1"
         id="stop301" />
    </linearGradient>
    <linearGradient
       id="linearGradient1989"
       x1="3.5601001"
       x2="16.388"
       y1="13.475"
       y2="0.64687002"
       gradientTransform="matrix(10.666719,0,0,10.194928,166.71107,165.4897)"
       gradientUnits="userSpaceOnUse">
      <stop
         stop-color="#0096f0"
         offset="0"
         id="stop304" />
      <stop
         stop-color="#00b9ff"
         offset="1"
         id="stop306" />
    </linearGradient>
    <linearGradient
       id="linearGradient1967"
       x1="45.905998"
       x2="47.124001"
       y1="-12.504"
       y2="-11.243"
       gradientUnits="userSpaceOnUse"
       gradientTransform="matrix(27.69151,0,0,26.46671,-1021.0107,560.16278)">
      <stop
         stop-color="#ff4632"
         offset="0"
         id="stop290" />
      <stop
         stop-color="#ff6e41"
         offset=".51344"
         id="stop292" />
      <stop
         stop-color="#ff2800"
         offset="1"
         id="stop294" />
    </linearGradient>
    <linearGradient
       id="linearGradient1005-3-3"
       x1="5.2535"
       x2="9.3823996"
       y1="15.383"
       y2="2.9421"
       gradientTransform="matrix(0.91665,0,0,0.91665,0.70008,0.86469)"
       gradientUnits="userSpaceOnUse">
      <stop
         stop-color="#0098f0"
         offset="0"
         id="stop312" />
      <stop
         stop-color="#0087e6"
         offset=".36953"
         id="stop314" />
      <stop
         stop-color="#00b9ff"
         offset="1"
         id="stop316" />
    </linearGradient>
    <linearGradient
       id="linearGradient1989-3"
       x1="3.5601001"
       x2="16.388"
       y1="13.475"
       y2="0.64687002"
       gradientTransform="matrix(0.36355,0,0,0.36355,5.4027,5.544)"
       gradientUnits="userSpaceOnUse">
      <stop
         stop-color="#0096f0"
         offset="0"
         id="stop304-6" />
      <stop
         stop-color="#00b9ff"
         offset="1"
         id="stop306-7" />
    </linearGradient>
    <filter
       id="filter2043"
       x="-0.036000384"
       y="-0.035996539"
       width="1.0720008"
       height="1.0719931"
       color-interpolation-filters="sRGB">
      <feGaussianBlur
         stdDeviation="0.12641235"
         id="feGaussianBlur309" />
    </filter>
    <linearGradient
       id="linearGradient1967-5"
       x1="45.905998"
       x2="47.124001"
       y1="-12.504"
       y2="-11.243"
       gradientUnits="userSpaceOnUse"
       gradientTransform="translate(23.76475)">
      <stop
         stop-color="#ff4632"
         offset="0"
         id="stop290-3" />
      <stop
         stop-color="#ff6e41"
         offset=".51344"
         id="stop292-5" />
      <stop
         stop-color="#ff2800"
         offset="1"
         id="stop294-6" />
    </linearGradient>
    <linearGradient
       id="linearGradient1975-2"
       x1="44.636002"
       x2="45.200001"
       y1="-10.874"
       y2="-10.319"
       gradientUnits="userSpaceOnUse"
       gradientTransform="translate(-20.969434,1.4910012)">
      <stop
         stop-color="#fefffe"
         offset="0"
         id="stop297-9" />
      <stop
         stop-color="#fff"
         offset=".78351"
         id="stop299-1" />
      <stop
         stop-color="#c1e4f9"
         offset="1"
         id="stop301-2" />
    </linearGradient>
    <linearGradient
       inkscape:collect="always"
       xlink:href="#linearGradient1989-3"
       id="linearGradient1072"
       x1="42.042"
       y1="256.76999"
       x2="471.38998"
       y2="256.76999"
       gradientUnits="userSpaceOnUse"
       gradientTransform="translate(-513.43198,-513.54)" />
    <linearGradient
       id="linearGradient1967-5-6"
       x1="45.905998"
       x2="47.124001"
       y1="-12.504"
       y2="-11.243"
       gradientUnits="userSpaceOnUse"
       gradientTransform="matrix(3.8914458,0,0,3.8914458,-206.74649,39.232779)">
      <stop
         stop-color="#ff4632"
         offset="0"
         id="stop290-3-1" />
      <stop
         stop-color="#ff6e41"
         offset=".51344"
         id="stop292-5-8" />
      <stop
         stop-color="#ff2800"
         offset="1"
         id="stop294-6-7" />
    </linearGradient>
    <linearGradient
       id="linearGradient1967-5-2"
       x1="45.905998"
       x2="47.124001"
       y1="-12.504"
       y2="-11.243"
       gradientUnits="userSpaceOnUse"
       gradientTransform="matrix(3.8914458,0,0,3.8914458,-94.209353,50.417865)">
      <stop
         stop-color="#ff4632"
         offset="0"
         id="stop290-3-0" />
      <stop
         stop-color="#ff6e41"
         offset=".51344"
         id="stop292-5-2" />
      <stop
         stop-color="#ff2800"
         offset="1"
         id="stop294-6-3" />
    </linearGradient>
    <linearGradient
       id="linearGradient1975-2-7"
       x1="44.636002"
       x2="45.200001"
       y1="-10.874"
       y2="-10.319"
       gradientUnits="userSpaceOnUse"
       gradientTransform="matrix(3.8914458,0,0,3.8914458,-94.209353,50.417865)">
      <stop
         stop-color="#fefffe"
         offset="0"
         id="stop297-9-5" />
      <stop
         stop-color="#fff"
         offset=".78351"
         id="stop299-1-9" />
      <stop
         stop-color="#c1e4f9"
         offset="1"
         id="stop301-2-2" />
    </linearGradient>
    <linearGradient
       id="1-4"
       gradientUnits="userSpaceOnUse"
       x1="62.599998"
       y1="11.846"
       x2="62.150002"
       y2="-35.476002"
       gradientTransform="matrix(0.99999,0,0,0.99999,-250.67029,163.77835)">
      <stop
         stop-color="#197dec"
         id="stop7" />
      <stop
         offset="1"
         stop-color="#3fcffb"
         id="stop9" />
    </linearGradient>
    <linearGradient
       id="0-8"
       x1="64.459999"
       y1="13.252"
       x2="60.549999"
       y2="-36.791"
       gradientUnits="userSpaceOnUse"
       gradientTransform="matrix(3.149348,1.5896296,-1.5193075,3.0100271,42.816911,187.88039)">
      <stop
         stop-color="#0164c2"
         id="stop2" />
      <stop
         offset="1"
         stop-color="#00a9f3"
         id="stop4" />
    </linearGradient>
    <linearGradient
       id="1-45"
       gradientUnits="userSpaceOnUse"
       x1="62.599998"
       y1="11.846"
       x2="62.150002"
       y2="-35.476002"
       gradientTransform="matrix(3.5277918,0,0,3.3717293,37.011838,291.57549)">
      <stop
         stop-color="#197dec"
         id="stop7-0" />
      <stop
         offset="1"
         stop-color="#3fcffb"
         id="stop9-3" />
    </linearGradient>
    <linearGradient
       id="0-6"
       x1="64.459999"
       y1="13.252"
       x2="60.549999"
       y2="-36.791"
       gradientUnits="userSpaceOnUse"
       gradientTransform="matrix(6.3310048,0,0,6.133241,-726.39158,195.68164)">
      <stop
         stop-color="#0164c2"
         id="stop2-1" />
      <stop
         offset="1"
         stop-color="#00a9f3"
         id="stop4-0" />
    </linearGradient>
    <linearGradient
       id="1-6"
       gradientUnits="userSpaceOnUse"
       x1="62.599998"
       y1="11.846"
       x2="62.150002"
       y2="-35.476002"
       gradientTransform="matrix(6.3310048,0,0,6.133241,-726.39158,195.68164)">
      <stop
         stop-color="#197dec"
         id="stop7-3" />
      <stop
         offset="1"
         stop-color="#3fcffb"
         id="stop9-2" />
    </linearGradient>
  </defs>
  <rect
     width="429.34799"
     height="436.04199"
     rx="62.378838"
     x="-471.38998"
     y="-474.79102"
     id="rect33"
     style="fill:url(#linearGradient1072);fill-opacity:1;stroke-width:0.994674"
     transform="scale(-1)" />
  <path
     d="m 392.26972,258.49872 c 0,15.98262 -2.81602,31.30661 -7.97983,45.5079 -3.58937,9.87117 -8.31192,19.20363 -14.02019,27.83582 -2.39106,3.62932 -4.96208,7.13454 -7.69094,10.50282 -8.73658,10.78011 -19.11881,20.16744 -30.77456,27.78635 -4.29227,2.80799 -8.75324,5.37668 -13.37197,7.67811 -17.93541,8.96746 -38.18354,14.01206 -59.61027,14.01206 -21.42794,0 -41.67424,-5.04429 -59.61034,-14.01237 -4.61903,-2.30203 -9.08533,-4.87042 -13.37752,-7.67818 -11.80355,-7.72195 -22.3102,-17.25655 -31.11768,-28.21525 -2.73418,-3.39557 -5.29988,-6.9327 -7.69094,-10.59492 -5.55583,-8.48903 -10.15829,-17.64822 -13.67684,-27.32819 -5.16312,-14.19786 -7.97413,-29.51624 -7.97413,-45.49225 0,-73.63226 59.74512,-133.32458 133.44654,-133.32458 36.99489,0 70.471,15.04108 94.64507,39.33216 6.9662,6.9976 13.1596,14.7691 18.43096,23.17066 4.98415,7.91254 9.1506,16.39024 12.3916,25.30885 5.16441,14.20318 7.98013,29.52717 7.98013,45.5079 z"
     stroke-width="0.521059"
     id="path1241"
     style="fill:#ffffff;stroke:#ffffff" />
  <path
     d="m 342.05837,251.7379 c 0,9.70077 -1.78654,19.00176 -5.06273,27.62234 -2.27741,5.99129 -5.27331,11.65565 -8.89514,16.89513 -1.51685,2.20307 -3.14819,4.33036 -4.87958,6.37468 -5.543,6.54295 -12.12993,12.24069 -19.52487,16.86521 -2.72316,1.70412 -5.55361,3.26331 -8.48384,4.66015 -11.37911,5.44277 -24.22491,8.50476 -37.8198,8.50476 -13.59489,0 -26.44048,-3.06172 -37.81981,-8.50476 -2.93058,-1.39739 -5.76424,-2.9563 -8.48761,-4.66015 -7.48886,-4.68682 -14.1547,-10.47427 -19.74261,-17.12542 -1.7346,-2.06085 -3.36246,-4.20807 -4.87966,-6.43072 -3.5249,-5.15264 -6.44488,-10.71178 -8.6771,-16.58732 -3.27585,-8.61752 -5.05918,-17.91504 -5.05918,-27.61226 0,-44.69166 37.90491,-80.92281 84.66774,-80.92281 23.47204,0 44.71187,9.12932 60.04812,23.873 4.41989,4.24739 8.34913,8.96419 11.69364,14.06371 3.16199,4.80263 5.80559,9.94819 7.86175,15.36151 3.27678,8.62066 5.06304,17.92185 5.06304,27.62235 z"
     fill="url(#linearGradient1989)"
     stroke-width="0.323328"
     id="path1253"
     style="fill:url(#linearGradient1989)" />
  <ellipse
     cx="257.39301"
     cy="251.73849"
     fill="url(#1)"
     id="circle14"
     style="fill:url(#1-45);stroke-width:3.44886"
     rx="84.667"
     ry="80.921501" />
  <path
     class="shp40"
     d="m 238.9254,238.45995 39.6598,37.90563 96.85659,-130.47824 z m -96.85104,130.47824 136.51631,-92.57261 -39.65972,-37.90563 z"
     fill="url(#linearGradient1967)"
     id="path1261"
     style="fill:url(#linearGradient1967);stroke-width:27.0722" />
  <path
     d="m 288.01509,177.22037 c -9.83658,-4.07747 -19.90031,-6.14689 -29.8228,-6.57014 -0.85229,0.29497 -1.84362,0.38003 -2.46882,0.0607 -0.085,-0.0429 -0.15209,-0.13714 -0.2281,-0.20575 -4.95116,-0.0555 -9.84227,0.36512 -14.63738,1.15137 0.18464,0.98077 -0.0207,1.90441 -1.21503,1.89833 -0.20164,1.6e-4 -2.45005,-0.689 -3.20045,-1.01866 -13.97786,3.0781 -26.86204,9.66556 -37.29337,19.28509 0.0941,0.0248 0.18942,0.0162 0.28364,0.0487 0.85215,0.3395 1.97732,1.07747 2.72716,1.5805 0.69293,0.4592 1.10063,1.19382 1.73199,1.50874 1.78899,0.9026 2.79216,-0.29406 4.6126,-0.4403 1.46921,0.855 2.68796,0.82045 4.0335,1.5525 0.91854,0.49768 1.21056,1.76673 1.93176,2.13076 0.60337,0.32348 1.40885,-0.0745 1.97966,0.26651 0.55502,0.33313 1.07151,1.98739 0.88516,2.71672 -0.22743,0.91253 -1.32442,1.36345 -1.45139,2.41355 0.56772,1.31011 2.20006,2.20202 3.32726,3.28839 1.15501,-0.331 0.91771,-1.92757 1.20876,-2.97417 0.16547,-0.44521 0.40686,-0.80681 0.5041,-1.24119 0.19894,-0.72295 0.14726,-1.48177 0.37936,-2.07468 1.09351,-2.73017 3.91497,-3.05095 6.26015,-3.33645 1.01575,-0.1256 1.99871,-0.67941 2.85299,-0.72786 1.20733,-0.0667 2.00744,0.13322 3.0282,0.029 1.8417,-0.18837 3.40623,-0.30509 4.96461,-0.73847 1.04668,-1.00889 1.22748,-2.87027 1.77115,-4.07264 0.67697,-0.0964 0.96162,0.56098 1.55845,0.75649 0.98762,0.19633 1.56407,-1.00834 2.28215,-1.28796 0.41507,-0.15686 1.3221,-0.0201 1.80798,-0.14497 1.18659,-0.30749 1.90332,-1.21856 2.81823,-1.18355 0.32837,0.007 0.97367,0.31016 1.47174,0.38028 0.65164,0.0948 1.76615,-0.22652 2.85841,-0.14354 0.71351,0.0504 2.16432,0.60525 2.50001,0.47254 0.41183,-0.16604 0.44194,-1.10264 0.72082,-1.49065 1.36106,-1.96058 4.945,-1.01275 7.24426,-0.90973 1.61574,0.0715 3.4381,-0.26636 4.86622,0.66222 -0.71999,0.90185 -2.0126,-0.0603 -2.27586,1.29113 -0.36669,1.86954 2.9543,0.64513 3.69688,0.65362 1.41637,0.0124 3.62857,0.57757 5.45269,0.68248 1.60345,0.088 4.41974,0.3802 3.72194,-1.70563 -1.07825,-0.51781 -2.13795,0.56385 -3.25721,0.55785 -0.70278,-0.17344 -0.32205,-0.7555 -0.86549,-1.04113 -0.51219,-0.28485 -1.0329,0.12825 -1.54865,-0.18873 -0.51259,-0.31541 -0.94975,-1.46136 -0.78576,-2.11509 0.43028,-1.69016 2.32657,-1.67344 3.49977,-2.58071 0.12939,-1.63427 -2.42209,-1.3472 -3.45243,-2.43756 0.47271,-0.81135 1.64051,-1.01885 2.75735,-0.74972 0.91759,0.21765 2.81847,1.08648 3.14842,1.74023 0.19597,0.36331 -0.32685,0.85104 -0.004,1.45594 0.33146,0.65075 0.9739,0.86549 1.67507,1.03433 0.68269,-0.9924 -1.14782,-1.42912 -0.66796,-2.07449 1.69339,-0.28591 3.60337,1.31647 5.35278,1.76513 1.0073,0.25915 2.26536,0.0292 3.29079,-0.0763 0.97851,-0.10662 2.32898,-0.43343 2.88847,0.63459 -0.0872,0.87749 -1.16161,0.73555 -1.77614,0.93527 -2.0567,0.66906 -4.23592,1.5104 -6.0405,2.53333 0.45198,0.98352 1.91648,1.19019 3.08893,1.8424 0.45704,0.26105 1.00828,0.64868 1.48156,0.94799 0.55528,0.34827 1.1996,0.58276 1.61984,0.89322 0.75979,0.54592 0.63456,1.49865 1.46489,1.84223 1.36657,0.56511 1.95718,-0.84768 1.54573,-2.05246 0.61046,-0.80229 1.18586,-1.11236 1.11212,-1.88231 -0.13656,-1.43617 -2.84587,-1.25137 -2.36776,-2.7701 0.31548,-0.98517 1.20315,-0.56733 1.85459,-1.12983 0.58646,-1.9135 2.38008,-1.32543 2.86605,-3.05544 0.20044,-0.72596 -0.40357,-0.98551 -0.64583,-1.8443 -0.12185,-0.4241 -0.008,-1.088 -0.1873,-1.48441 -2.24902,-1.16555 -4.54317,-2.28868 -6.94219,-3.25101 m -46.30196,-1.58197 0.007,0.004 c 0.43988,0.25597 0.80663,0.96992 1.35299,1.24192 0.52699,0.23205 1.08811,0.12242 1.38049,0.34177 0.75058,0.55637 0.61091,1.91351 -0.41373,2.18193 -0.68586,-0.19132 -0.79566,-0.64712 -1.32264,-0.76954 -1.4446,-0.34012 -3.00036,1.99054 -3.9784,1.48555 -0.92318,-0.47269 -0.5333,-2.92056 0.70557,-3.18282 0.29983,-0.55495 -0.16876,-0.85568 0.095,-1.41744 0.42959,-0.23262 1.40279,-0.27396 2.17437,0.1155 m -4.6167,-1.56356 c 0.2738,0.12308 0.45734,0.2761 0.51587,0.43412 -0.54707,0.96645 -1.3534,0.55192 -2.36743,0.6897 -1.75355,0.23287 -3.08297,1.14434 -4.24655,2.71366 -0.3372,0.45679 -2.28771,1.2285 -2.90806,0.81339 -1.45223,-0.97474 1.71086,-2.9511 2.2385,-3.21355 0.58954,-0.30674 1.29481,-0.49837 1.98847,-0.84699 0.67193,-0.3369 1.25735,-0.92522 1.81529,-1.0364 0.61098,-0.12218 2.14249,0.0692 2.96543,0.44307 m 10.42063,8.33797 c 0.48951,0.24372 0.92775,0.48721 1.0538,0.76983 -0.8386,1.12903 -3.54597,-0.38104 -4.39828,-1.26826 0.26226,-0.44924 1.09043,-0.25784 1.77184,-0.0499 0.4637,0.17738 1.07234,0.32598 1.57264,0.5483 m -7.41259,-0.34609 c 0.32574,0.16106 0.65529,0.34588 0.97131,0.58089 -1.21872,0.35551 -2.37999,0.3623 -4.1535,0.18852 -0.85002,-0.0854 -2.27775,-0.34143 -2.07624,-1.21039 0.24714,-1.06117 1.41799,-0.30399 2.14773,-0.10563 0.91953,0.24507 2.07494,0.15597 3.11072,0.54657 m 96.86155,46.76061 c -0.22656,0.22179 -0.42322,0.45489 -0.51621,0.72522 -0.12428,0.4887 0.22151,1.15046 0.086,1.82611 -0.0699,0.35752 -0.58914,0.97921 -0.54618,1.34836 0.11594,1.0934 1.6366,0.9696 2.5181,1.39187 -0.476,-1.77366 -0.9473,-3.54877 -1.53848,-5.28995 m 2.42907,8.70055 c -0.41012,0.60125 -1.22892,1.26817 -1.83123,1.66288 -1.3873,0.9087 -2.59249,0.47792 -4.11575,0.63816 -1.26885,0.13382 -2.10192,0.89175 -3.11196,1.6245 -1.09365,0.78879 -1.76357,1.2627 -2.11621,2.91646 -1.58287,1.32746 -3.35469,1.80792 -5.52992,1.8506 -0.64075,0.009 -1.42553,-0.21343 -2.06591,-0.0721 -0.50956,0.10917 -1.03783,0.75651 -1.85462,1.12985 -1.00468,0.45599 -1.86422,0.46781 -2.4662,0.88536 -0.46267,0.32164 -0.92098,1.15919 -1.47387,1.62039 -0.75209,0.62881 -1.81945,0.64528 -2.71129,1.22998 -0.40873,0.26958 -0.88944,0.96362 -1.37168,1.33963 -1.08037,0.84079 -2.48371,1.18622 -2.76116,2.20568 -0.26388,0.98475 0.77683,1.60823 0.52188,2.4578 -0.17611,0.4663 -0.62103,0.61186 -0.80428,1.12367 -0.28616,0.73938 0.0245,1.47025 -0.1435,2.06152 -0.42859,1.48327 -1.31369,1.78059 -1.9859,2.63478 -0.32076,0.4084 -0.4813,0.95434 -0.75224,1.26325 -0.53352,0.61072 -1.8309,0.82454 -2.19236,1.65809 -0.24922,0.5956 0.20245,1.34481 -0.0852,2.20429 -0.22294,0.58239 -0.78312,1.07391 -0.89195,1.64973 -0.21024,1.12893 1.23838,3.14425 1.75081,4.30557 0.69003,1.55315 1.8272,3.00334 1.85299,4.34583 0.0181,1.13846 -0.49967,2.39916 -0.009,3.45504 0.36462,0.78079 1.19439,1.51688 1.71508,2.38779 0.48386,0.81075 1.0562,1.57931 1.57677,2.44256 0.84594,1.41654 1.93695,3.99168 3.93648,4.65723 1.04139,0.34814 2.39761,-0.0135 3.62401,0.26556 1.26248,0.28597 2.83642,0.81604 3.97855,1.42654 0.87587,0.46472 1.6035,1.37967 2.56673,1.72612 1.02589,0.35539 2.46053,0.12019 3.79217,0.11253 1.0691,-0.004 2.36396,0.0374 3.7237,0.24034 2.04497,-3.40945 3.86194,-7.01706 5.40422,-10.81615 6.20966,-15.29316 7.20013,-31.44179 3.83717,-46.63789 M 200.41406,209.26702 c -1.69222,-0.60108 -2.81062,-0.97676 -3.91858,-0.95812 -2.54561,0.0483 -3.26359,3.02096 -5.69132,2.78888 -0.84059,-0.0806 -1.86888,-0.49387 -2.75019,-0.68946 -0.76054,-0.16858 -1.77481,-0.15555 -2.50003,-0.47249 -0.2045,-0.0881 -0.43029,-0.35317 -0.6549,-0.53451 -0.72454,1.23193 -1.42206,2.49634 -2.08492,3.77828 1.90142,1.22791 1.89891,4.27837 3.36362,5.89393 0.40037,0.4438 1.04528,0.724 1.62796,1.12763 0.47213,0.32512 0.77916,0.69545 1.20971,1.06383 0.91793,0.7806 2.22562,1.27448 2.92533,1.98645 1.05344,1.06803 1.05497,3.75041 1.89895,4.81848 -0.1875,0.6456 -0.71361,1.39604 -0.67655,1.95107 0.2442,0.88622 1.03582,1.04028 1.70699,1.83228 0.80476,0.95008 0.56227,2.44038 1.36038,3.25492 0.27762,0.27987 1.12019,0.60698 1.58363,0.98063 1.16872,0.93361 1.00197,2.57925 2.2671,2.72686 0.82828,0.097 1.06896,-0.66152 1.46615,-1.29197 0.70049,-0.30737 1.56571,-0.89416 2.33762,-0.59142 1.26491,0.4534 0.85138,1.78939 0.83337,3.13245 -0.0108,0.75746 0.42352,1.60365 0.32049,2.36367 -0.17468,1.31687 -1.77441,4.81504 -2.32368,5.4178 -0.66757,0.74325 -2.04989,0.60073 -3.20173,1.2544 -0.54109,0.30476 -0.98263,0.89768 -1.3813,1.10814 -0.71992,0.36934 -1.5084,0.21685 -2.08908,0.59228 -0.3283,0.21197 -0.78605,0.76653 -1.15035,1.08117 -1.09414,0.96982 -2.24777,1.50174 -2.336,3.17188 -0.0322,0.69006 0.78459,1.49889 0.4979,2.20778 -0.33476,0.83566 -2.4891,0.81334 -3.00345,1.66794 -0.37995,0.63536 -0.1941,2.13036 -0.32836,3.10881 -0.10653,0.7356 1.04234,1.70076 1.27325,2.31586 0.3935,1.04461 0.51872,2.34664 0.77552,3.56024 0.50992,2.38754 0.57712,5.07282 1.0751,7.39019 0.26781,1.21535 0.8359,2.44629 0.87,3.60791 0.0195,0.58771 -0.24876,1.16617 -0.22699,1.69459 0.0862,1.84128 2.58116,4.75869 3.89791,6.19754 0.6178,0.67066 1.4094,1.14575 1.95674,1.80726 0.82898,1.00385 2.30648,3.3926 2.48053,4.50396 0.1521,0.99832 -0.34302,3.06748 -0.6295,4.4336 -0.37226,1.8101 -1.2041,2.97271 -1.84607,4.83176 -0.33696,1.01206 -0.40972,2.13485 -0.80013,3.12752 -0.16445,0.33246 -0.4347,0.52461 -0.59381,0.87111 -0.0285,0.0573 -0.0341,0.13008 -0.0598,0.18885 8.07884,8.31925 17.96311,15.2459 29.45719,20.00887 2.07896,0.86049 4.17503,1.60878 6.27185,2.30079 0.14685,-0.11096 0.29366,-0.22948 0.45803,-0.32025 0.70859,-0.39391 1.3335,-0.73946 1.8546,-1.12985 1.00643,-1.62596 0.47758,-3.27143 1.53178,-4.62403 1.17517,-1.52186 4.0791,-1.54423 6.13065,-1.60021 0.70468,-0.0182 1.49458,-0.19738 2.04381,-0.15812 1.366,0.0965 2.77715,0.93342 4.03338,1.00472 2.13694,0.11929 3.11517,-1.72483 4.69916,-2.97614 0.74948,-0.59238 1.63732,-1.13003 1.94871,-1.64514 0.24577,-0.48027 0.20056,-1.03937 0.52237,-1.59078 0.32508,-0.54218 1.06822,-0.81673 1.4961,-1.38258 0.55508,-0.73957 1.1413,-1.91667 1.51709,-2.84119 0.30786,-0.75863 0.20682,-1.5763 0.45302,-2.27541 0.87747,-2.53704 2.05533,-2.3731 3.56545,-3.32938 0.75279,-0.47362 1.24294,-1.16286 1.77565,-1.50584 2.54439,-1.63524 5.7854,-1.58944 6.99497,-5.15239 0.40174,-1.17953 0.70323,-4.09424 -0.0296,-4.82671 -0.42035,-0.41989 -1.66088,-0.70235 -2.28038,-1.27565 -2.01635,-1.82226 -2.26249,-5.20218 -4.63698,-6.39315 -0.49646,-0.27691 -1.08469,-0.20757 -1.66829,-0.46063 -0.94459,-0.46166 -2.16399,-1.65499 -3.18504,-2.21568 -0.65221,-0.35194 -1.66992,-0.46522 -2.00033,-0.82839 -0.50506,-0.54951 -0.12132,-1.67774 -0.49336,-2.21681 -0.29546,-0.43239 -1.03776,-0.84861 -1.55897,-1.32697 -0.83652,-0.76972 -1.44446,-1.5147 -2.54814,-2.06044 -0.34775,-0.1566 -0.85275,-0.16606 -1.23591,-0.39344 -0.58825,-0.36122 -0.79237,-1.27994 -1.23533,-1.85855 -0.55451,-0.72558 -1.14144,-1.20689 -1.19581,-1.93685 1.49324,-1.79189 -0.086,-3.11779 -0.0419,-4.48921 0.014,-0.64631 0.38467,-1.27882 0.40449,-1.85046 0.0271,-0.821 -0.53976,-1.5377 -1.10194,-2.46733 -1.01214,-1.66658 -1.88785,-3.19636 -3.85309,-4.29783 -0.86365,-0.48891 -1.91412,-0.49026 -2.98455,-1.00789 -1.13195,-0.55242 -2.19593,-2.13195 -2.67929,-3.44479 -0.46726,-1.28202 -0.53813,-2.2847 -1.09612,-3.03468 -0.52314,-0.71728 -1.45391,-1.08888 -1.75389,-1.72373 -0.1369,-0.27683 0.0321,-0.58813 -0.0117,-1.12764 -0.0685,-0.84286 -0.49815,-1.4714 0.27856,-2.12556 -0.63573,-0.72123 -1.11351,0.38976 -1.92585,-0.11471 -0.34828,-1.37686 -0.80032,-2.1489 -2.69314,-2.57175 -0.86405,-0.19062 -1.71382,0.60041 -2.66325,0.23448 -0.79469,-0.25759 -1.04258,-1.39493 -2.00423,-1.95587 -0.72823,-0.42055 -1.72487,-0.4816 -2.23291,-0.80601 -0.78595,-0.51757 -0.77238,-1.30387 -1.3532,-2.11826 -0.42603,-0.5965 -1.28415,-1.66792 -1.60951,-1.79059 -1.03054,-0.35397 -2.55032,1.33388 -3.64749,0.0549 -0.3395,-1.09672 1.60159,-0.793 1.11515,-1.88833 -0.37006,-0.83263 -1.21899,-0.19983 -1.8331,-0.0792 -0.70292,0.13995 -1.37295,0.2852 -2.07376,0.24873 -1.57044,-0.0751 -2.32342,-0.68929 -3.6117,-0.60305 -1.19148,0.0822 -1.57052,0.88799 -2.52876,1.63558 -0.78674,0.61134 -2.30786,1.34674 -3.01784,1.10924 -0.86386,-0.28496 -1.18138,-1.8011 -1.81264,-2.42943 -1.90018,-1.8958 -3.73465,-0.56317 -5.64644,-1.3242 -1.78852,-0.66859 -3.16985,-4.50061 -2.43746,-6.05337 0.40484,-0.96651 1.57179,-2.19798 2.17713,-3.35028 0.49473,-0.90981 1.40962,-1.20341 1.77213,-2.07039 0.48492,-1.15646 -0.77428,-2.72496 -1.50474,-3.18809 -1.73232,-1.10098 -4.74639,-1.12667 -6.55161,-2.83478 -0.14477,-0.81714 0.92475,-0.90045 1.4078,-1.43468 0.27682,-0.30595 0.3962,-0.81603 0.68967,-1.1551 0.48338,-0.51141 1.34179,-0.70889 1.90157,-1.23077 0.424,-0.40163 0.76726,-1.08952 1.23804,-1.60728 0.54164,-0.58771 1.20861,-0.83647 1.4629,-1.30111 0.33816,-0.61491 0.38353,-1.46448 0.0287,-2.10814 m 18.45977,31.32931 c 0.65371,0.34116 0.19222,1.71731 -0.54347,1.5386 -0.79226,-0.19972 -0.67181,-1.58927 0.18446,-1.61025 0.1468,-0.009 0.26627,0.0362 0.35909,0.0793 l 0.003,-0.006"
     fill="url(#0)"
     id="path16"
     style="fill:url(#0-8);stroke-width:3.44886" />
  <path
     d="m 238.9254,238.48641 -96.85104,130.47028 136.51631,-92.5673 -39.65972,-37.90564 z"
     fill="url(#linearGradient1975)"
     id="path1263"
     style="fill:url(#linearGradient1975);stroke-width:27.0722" />
  <path
     d="M 258.33601,69.195266 219.8656,132.76172 h 78.12301 z"
     id="path1243-0"
     style="fill:#ffffff;stroke-width:31.4653" />
  <path
     d="m 449.40243,256.93784 -63.56646,-38.47042 v 78.12302 z"
     id="path1243-0-3"
     style="fill:#ffffff;stroke-width:31.4653" />
  <path
     d="m 257.77777,446.85814 38.47042,-63.56646 h -78.12302 z"
     id="path1243-0-3-1"
     style="fill:#ffffff;stroke-width:31.4653" />
  <path
     d="m 67.38608,260.08959 63.56646,38.47042 v -78.12302 z"
     id="path1243-0-3-1-9"
     style="fill:#ffffff;stroke-width:31.4653" />
</svg>
