<?xml version="1.0" encoding="UTF-8" standalone="no"?>
<!-- Uploaded to: SVG Repo, www.svgrepo.com, Generator: SVG Repo Mixer Tools -->

<svg
   width="800"
   height="800"
   viewBox="0 0 24 24"
   version="1.1"
   id="svg1"
   sodipodi:docname="android-symbolic.svg"
   xmlns:inkscape="http://www.inkscape.org/namespaces/inkscape"
   xmlns:sodipodi="http://sodipodi.sourceforge.net/DTD/sodipodi-0.dtd"
   xmlns="http://www.w3.org/2000/svg"
   xmlns:svg="http://www.w3.org/2000/svg">
  <defs
     id="defs1" />
  <sodipodi:namedview
     id="namedview1"
     pagecolor="#ffffff"
     bordercolor="#000000"
     borderopacity="0.25"
     inkscape:showpageshadow="2"
     inkscape:pageopacity="0.0"
     inkscape:pagecheckerboard="0"
     inkscape:deskcolor="#d1d1d1">
    <inkscape:page
       x="0"
       y="0"
       width="24"
       height="24"
       id="page2"
       margin="0"
       bleed="0" />
  </sodipodi:namedview>
  <title
     id="title1">Android_2_fill</title>
  <path
     d="M 5.9360742,4.0017773 C 5.8064362,4.0100212 5.6763075,4.0437994 5.5528125,4.1055469 5.0588325,4.3525369 4.8585764,4.953188 5.1055664,5.447168 L 6.2801367,7.7963086 C 3.6925867,9.6037886 1.9999805,12.60422 1.9999805,16.00002 v 0.99996 c 0,1.1046 0.895469,2.00004 2.000039,2.00004 H 19.99998 c 1.1046,0 2.00004,-0.89544 2.00004,-2.00004 v -0.99996 c 0,-3.3958 -1.692598,-6.3962214 -4.280098,-8.2037114 L 18.894375,5.447168 c 0.247,-0.49398 0.04681,-1.0946311 -0.447188,-1.3416211 -0.494,-0.24699 -1.094562,-0.046793 -1.341562,0.4471875 L 15.972012,6.8199023 C 14.754512,6.2923823 13.4114,6 12,6 10.5886,6 9.2455183,6.2923923 8.0279883,6.8199023 L 6.8944336,4.5527344 C 6.7091911,4.1822494 6.3249881,3.9770456 5.9360742,4.0017773 Z M 7.5,12 C 8.32843,12 9,12.6716 9,13.5 9,14.3284 8.32843,15 7.5,15 6.67157,15 6,14.3284 6,13.5 6,12.6716 6.67157,12 7.5,12 Z m 9,0 C 17.3284,12 18,12.6716 18,13.5 18,14.3284 17.3284,15 16.5,15 15.6716,15 15,14.3284 15,13.5 15,12.6716 15.6716,12 16.5,12 Z"
     style="fill:#000000;fill-opacity:1;stroke:none;stroke-width:0.99999"
     id="path4" />
</svg>
