<?xml version="1.0" encoding="utf-8"?><!-- Uploaded to: SVG Repo, www.svgrepo.com, Generator: SVG Repo Mixer Tools -->
<svg version="1.1" id="Uploaded to svgrepo.com" xmlns="http://www.w3.org/2000/svg" xmlns:xlink="http://www.w3.org/1999/xlink" 
	 width="800px" height="800px" viewBox="0 0 32 32" xml:space="preserve">
<style type="text/css">
	.linesandangles_een{fill:#111918;}
</style>
<path class="linesandangles_een" d="M20,20.854c0-1.136,0.642-2.175,1.658-2.683L24,17L17,3h-2L8,17l2.342,1.171
	C11.358,18.679,12,19.718,12,20.854V21h-2v8h12v-8h-2V20.854z M11.236,16.382l-0.553-0.276L15,7.472V15h2V7.472l4.317,8.633
	l-0.553,0.276C19.059,17.234,18,18.948,18,20.854V21h-4v-0.146C14,18.948,12.941,17.234,11.236,16.382z M20,27h-8v-4h8V27z"/>
</svg>