<?xml version="1.0" encoding="UTF-8" standalone="no"?>
<!-- Uploaded to: SVG Repo, www.svgrepo.com, Generator: SVG Repo Mixer Tools -->

<svg
   width="800"
   height="800"
   viewBox="0 0 192 192"
   fill="none"
   version="1.1"
   id="svg2"
   xmlns="http://www.w3.org/2000/svg"
   xmlns:svg="http://www.w3.org/2000/svg">
  <g
     stroke="#000000"
     stroke-linecap="round"
     stroke-linejoin="round"
     stroke-width="12"
     clip-path="url(#a)"
     id="g1"
     style="fill:#000000;fill-opacity:1;stroke:none;stroke-width:11.9998;stroke-opacity:1">
    <path
       style="color:#000000;fill:#000000;fill-opacity:1;stroke:none;stroke-opacity:1;-inkscape-stroke:none"
       d="m 101.09766,16.457031 a 6.0005242,6.0005242 0 0 0 -3.251957,3.259766 L 91.144531,36 H 22 a 5.9999242,5.9999242 0 0 0 -6,6 5.9999242,5.9999242 0 0 0 6,6 H 86.205078 L 76.328125,72 H 22 a 5.9999242,5.9999242 0 0 0 -6,6 5.9999242,5.9999242 0 0 0 6,6 h 49.390625 l -9.878906,24 H 22 a 5.9999242,5.9999242 0 0 0 -6,6 5.9999242,5.9999242 0 0 0 6,6 h 34.574219 l -7.123047,17.30664 a 6.0005242,6.0005242 0 0 0 -0.337891,3.44141 L 49.751953,144 H 22 a 5.9999242,5.9999242 0 0 0 -6,6 5.9999242,5.9999242 0 0 0 6,6 h 30.111328 l 3.173828,16.15625 a 6.0005242,6.0005242 0 0 0 9.242188,3.81836 l 26.43164,-17.81445 A 6.0005242,6.0005242 0 0 0 92.71875,156 H 122 a 5.9999242,5.9999242 0 0 0 6,-6 5.9999242,5.9999242 0 0 0 -6,-6 H 97.873047 L 107.75,120 H 170 a 5.9999242,5.9999242 0 0 0 6,-6 5.9999242,5.9999242 0 0 0 -6,-6 h -57.31055 l 9.87696,-24 H 170 a 5.9999242,5.9999242 0 0 0 6,-6 5.9999242,5.9999242 0 0 0 -6,-6 h -42.49414 l 9.87695,-24 H 170 a 5.9999242,5.9999242 0 0 0 6,-6 5.9999242,5.9999242 0 0 0 -6,-6 h -28.02148 a 6.0005242,6.0005242 0 0 0 -3.66993,-5.943359 l -32.60546,-13.59375 a 6.0005242,6.0005242 0 0 0 -4.60547,-0.0059 z m 5.55273,13.400391 21.52734,8.976562 -45.429683,110.388676 -17.431641,11.75 -4.082031,-20.76563 z"
       id="path1" />
  </g>
  <defs
     id="defs2">
    <clipPath
       id="a">
      <path
         fill="#ffffff"
         d="M 0,0 H 192 V 192 H 0 Z"
         id="path2" />
    </clipPath>
  </defs>
</svg>
