<?xml version="1.0" encoding="UTF-8" standalone="no"?>
<!-- Created with Inkscape (http://www.inkscape.org/) -->

<svg
   version="1.1"
   width="100%"
   height="100%"
   viewBox="0 0 512 512"
   id="svg2"
   sodipodi:docname="distributor-logo-linux-mint.svg"
   inkscape:version="1.1 (c68e22c387, 2021-05-23)"
   xmlns:inkscape="http://www.inkscape.org/namespaces/inkscape"
   xmlns:sodipodi="http://sodipodi.sourceforge.net/DTD/sodipodi-0.dtd"
   xmlns:xlink="http://www.w3.org/1999/xlink"
   xmlns="http://www.w3.org/2000/svg"
   xmlns:svg="http://www.w3.org/2000/svg"
   xmlns:rdf="http://www.w3.org/1999/02/22-rdf-syntax-ns#"
   xmlns:cc="http://creativecommons.org/ns#"
   xmlns:dc="http://purl.org/dc/elements/1.1/">
  <sodipodi:namedview
     id="namedview51"
     pagecolor="#ffffff"
     bordercolor="#666666"
     borderopacity="1.0"
     inkscape:pageshadow="2"
     inkscape:pageopacity="0.0"
     inkscape:pagecheckerboard="0"
     showgrid="false"
     inkscape:zoom="0.42773438"
     inkscape:cx="-126.24657"
     inkscape:cy="219.76255"
     inkscape:window-width="1366"
     inkscape:window-height="700"
     inkscape:window-x="0"
     inkscape:window-y="0"
     inkscape:window-maximized="1"
     inkscape:current-layer="svg2" />
  <metadata
     id="metadata72">
    <rdf:RDF>
      <cc:Work
         rdf:about="">
        <dc:format>image/svg+xml</dc:format>
        <dc:type
           rdf:resource="http://purl.org/dc/dcmitype/StillImage" />
      </cc:Work>
    </rdf:RDF>
  </metadata>
  <defs
     id="defs70">
    <linearGradient
       x1="257"
       y1="256"
       x2="362"
       y2="256"
       id="linearGradient3153"
       xlink:href="#linearGradient4996-4"
       gradientUnits="userSpaceOnUse"
       gradientTransform="matrix(1.0380952,0,0,1.4619252,-337.28943,-118.25286)" />
    <linearGradient
       x1="257"
       y1="256"
       x2="362"
       y2="256"
       id="linearGradient3149"
       xlink:href="#linearGradient4996-4"
       gradientUnits="userSpaceOnUse"
       gradientTransform="matrix(1.0283468,0,0,1.4619252,209.19233,-118.25286)" />
    <linearGradient
       x1="257"
       y1="256"
       x2="362"
       y2="256"
       id="linearGradient3145"
       xlink:href="#linearGradient4996-4"
       gradientUnits="userSpaceOnUse"
       gradientTransform="matrix(1.0283468,0,0,1.4619252,101.21591,-118.25286)" />
    <linearGradient
       x1="257"
       y1="256"
       x2="362"
       y2="256"
       id="linearGradient3141"
       xlink:href="#linearGradient4996-4"
       gradientUnits="userSpaceOnUse"
       gradientTransform="matrix(1.0380952,0,0,1.4619252,-10.28943,-118.25286)" />
    <linearGradient
       x1="257"
       y1="256"
       x2="362"
       y2="256"
       id="linearGradient3137"
       xlink:href="#linearGradient4996-4"
       gradientUnits="userSpaceOnUse"
       gradientTransform="matrix(1.0380952,0,0,1.4619252,-119.28943,-118.25286)" />
    <linearGradient
       x1="257"
       y1="256"
       x2="362"
       y2="256"
       id="linearGradient3108"
       xlink:href="#linearGradient4996-4"
       gradientUnits="userSpaceOnUse"
       gradientTransform="matrix(1.0380952,0,0,1.4619252,-228.28943,-118.25286)" />
    <linearGradient
       id="linearGradient4996-4">
      <stop
         id="stop4998-8"
         style="stop-color:#000000;stop-opacity:1"
         offset="0" />
      <stop
         id="stop5000-8"
         style="stop-color:#ffffff;stop-opacity:1"
         offset="1" />
    </linearGradient>
    <linearGradient
       id="linearGradient900"
       x1="37.737"
       x2="37.737"
       y1="62.067001"
       y2="39.790001"
       gradientTransform="matrix(3.779602,0,0,3.779602,480.54632,-68.307707)"
       gradientUnits="userSpaceOnUse">
      <stop
         stop-color="#089"
         offset="0"
         id="stop2" />
      <stop
         stop-color="#6f6"
         offset="1"
         id="stop4" />
    </linearGradient>
    <linearGradient
       inkscape:collect="always"
       xlink:href="#linearGradient900"
       id="linearGradient968"
       x1="38.500011"
       y1="253"
       x2="473.49997"
       y2="253"
       gradientUnits="userSpaceOnUse"
       gradientTransform="matrix(1.0023954,0,0,0.98700689,-513.38323,7.0032386)" />
  </defs>
  <text
     x="729.82568"
     y="233.26678"
     id="text20"
     style="font-size:128.54px;line-height:125%;font-family:'Gentium Book Basic';letter-spacing:0;word-spacing:0;stroke-width:0.994672"
     transform="scale(0.99229443,1.0077654)"><tspan
       x="729.82568"
       y="233.26678"
       id="tspan22"
       style="stroke-width:0.994672" /></text>
  <text
     x="377.90421"
     y="588.75909"
     transform="scale(3.9818994,0.25113643)"
     id="text24"
     style="font-size:46.7036px;font-family:Arial;text-anchor:middle;stroke-width:0.994667" />
  <text
     x="1307.9983"
     y="153.69305"
     id="text26"
     style="font-size:128.54px;line-height:125%;font-family:'Gentium Book Basic';letter-spacing:0;word-spacing:0;stroke-width:0.994672"
     transform="scale(0.99229443,1.0077654)"><tspan
       x="1307.9983"
       y="153.69305"
       id="tspan28"
       style="stroke-width:0.994672" /></text>
  <text
     x="521.98157"
     y="269.44128"
     transform="scale(3.9818994,0.25113643)"
     id="text30"
     style="font-size:46.7036px;font-family:Arial;text-anchor:middle;stroke-width:0.994667" />
  <text
     x="242.12836"
     y="-26.602097"
     id="text32"
     style="font-size:128.54px;line-height:125%;font-family:'Gentium Book Basic';letter-spacing:0;word-spacing:0;stroke-width:0.994672"
     transform="scale(0.99229443,1.0077654)"><tspan
       x="242.12836"
       y="-26.602097"
       id="tspan34"
       style="stroke-width:0.994672" /></text>
  <text
     x="256.36591"
     y="-454.03922"
     transform="scale(3.9818994,0.25113643)"
     id="text36"
     style="font-size:46.7036px;font-family:Arial;text-anchor:middle;stroke-width:0.994667" />
  <text
     x="1334.3274"
     y="-241.91762"
     id="text38"
     style="font-size:128.54px;line-height:125%;font-family:'Gentium Book Basic';letter-spacing:0;word-spacing:0;stroke-width:0.994672"
     transform="scale(0.99229443,1.0077654)"><tspan
       x="1334.3274"
       y="-241.91762"
       id="tspan40"
       style="stroke-width:0.994672" /></text>
  <text
     x="528.54645"
     y="-1318.076"
     transform="scale(3.9818994,0.25113643)"
     id="text42"
     style="font-size:46.7036px;font-family:Arial;text-anchor:middle;stroke-width:0.994667" />
  <text
     x="1912.5001"
     y="-321.50137"
     id="text44"
     style="font-size:128.54px;line-height:125%;font-family:'Gentium Book Basic';letter-spacing:0;word-spacing:0;stroke-width:0.994672"
     transform="scale(0.99229443,1.0077654)"><tspan
       x="1912.5001"
       y="-321.50137"
       id="tspan46"
       style="stroke-width:0.994672" /></text>
  <text
     x="672.62396"
     y="-1637.4037"
     transform="scale(3.9818994,0.25113643)"
     id="text48"
     style="font-size:46.7036px;font-family:Arial;text-anchor:middle;stroke-width:0.994667" />
  <text
     x="1525.4536"
     y="-791.38422"
     id="text50"
     style="font-size:128.54px;line-height:125%;font-family:'Gentium Book Basic';letter-spacing:0;word-spacing:0;stroke-width:0.994672"
     transform="scale(0.99229443,1.0077654)"><tspan
       x="1525.4536"
       y="-791.38422"
       id="tspan52"
       style="stroke-width:0.994672" /></text>
  <text
     x="576.17102"
     y="-3522.9529"
     transform="scale(3.9818994,0.25113643)"
     id="text54"
     style="font-size:46.7036px;font-family:Arial;text-anchor:middle;stroke-width:0.994667" />
  <text
     x="2103.6165"
     y="-870.95801"
     id="text56"
     style="font-size:128.54px;line-height:125%;font-family:'Gentium Book Basic';letter-spacing:0;word-spacing:0;stroke-width:0.994672"
     transform="scale(0.99229443,1.0077654)"><tspan
       x="2103.6165"
       y="-870.95801"
       id="tspan58"
       style="stroke-width:0.994672" /></text>
  <text
     x="720.24854"
     y="-3842.271"
     transform="scale(3.9818994,0.25113643)"
     id="text60"
     style="font-size:46.7036px;font-family:Arial;text-anchor:middle;stroke-width:0.994667" />
  <text
     x="280.58231"
     y="536.22388"
     id="text62"
     style="font-size:207.22px;line-height:125%;font-family:'Gentium Book Basic';letter-spacing:0;word-spacing:0;stroke-width:0.994672"
     transform="scale(0.99229443,1.0077654)"><tspan
       x="280.58231"
       y="536.22388"
       id="tspan64"
       style="stroke-width:0.994672" /></text>
  <rect
     width="436.04199"
     height="429.34799"
     rx="63.351723"
     ry="62.379162"
     x="-474.79099"
     y="42.042"
     id="rect4981-4"
     style="fill:url(#linearGradient968);fill-opacity:1;stroke:none;stroke-width:0.994672"
     transform="rotate(-90)" />
  <g
     transform="matrix(0.98700692,0,0,1.0023955,-3.3603334,-4.3540169)"
     id="g3202">
    <path
       d="m 103.49975,111.0111 v 230.38346 c 0,24.44399 8.944,45.86087 26.3458,63.19112 14.8735,14.68154 32.7097,24.2548 52.8064,26.40322 h 56.8692 0.058 107.4068 c 25.226,0 47.2258,-9.4149 65.1111,-27.62247 h 0.1738 c 15.2098,-15.6275 24.0628,-34.3452 26.2294,-55.41872 v -25.64923 l -0.1163,-100.21729 c 0,-19.94677 -7.3968,-37.60497 -21.4127,-51.76236 -14.0284,-14.16861 -31.482,-21.47153 -51.1247,-21.47153 -19.2811,0 -36.1475,7.18241 -49.7891,20.30973 -13.6024,-13.1063 -30.3427,-20.30973 -49.6153,-20.30973 -19.6483,0 -37.1019,7.30573 -51.1247,21.47153 -14.0145,14.15459 -21.3553,31.81559 -21.3553,51.76236 v 100.85494 h 45.6689 V 222.08119 c 0,-7.64489 2.5492,-13.57719 8.0078,-19.09189 5.477,-5.53149 11.2676,-8.06671 18.8019,-8.06671 7.6882,0 13.4286,2.5212 18.9181,8.06671 5.4586,5.5147 7.9504,11.447 7.9504,19.09189 v 100.85494 h 45.6688 V 222.08119 c 0,-7.64489 2.5493,-13.57719 8.0079,-19.09189 5.488,-5.54411 11.1709,-8.06671 18.8592,-8.06671 7.53,0 13.3824,2.53381 18.8592,8.06671 5.4587,5.5147 7.8916,11.447 7.8916,19.09189 l 0.2326,117.80541 c 0,1.48134 -0.074,2.95285 -0.2326,4.41035 -0.014,0.0757 0.014,0.15556 0,0.23263 -0.063,0.55639 -0.1457,1.13238 -0.2326,1.68315 -0.192,1.18562 -0.4583,2.32499 -0.7541,3.48118 -5.2721,20.569 -26.6975,36.43755 -53.325,36.43755 l -98.7597,-0.34755 v 0.0575 l -48.8025,-0.23263 c -23.7278,0 -43.9871,-23.01172 -43.9871,-52.69151 V 111.0125 h -43.2319"
       inkscape:connector-curvature="0"
       id="path3200"
       style="opacity:0.2;fill:#ffffff;fill-opacity:1;fill-rule:evenodd" />
    <path
       d="M 88.49975,96.011103 V 326.39456 c 0,24.44399 8.944,45.86087 26.3458,63.19112 14.8735,14.68154 32.7097,24.2548 52.8064,26.40322 h 56.8692 0.058 107.4068 c 25.226,0 47.2258,-9.4149 65.1111,-27.62247 h 0.1738 c 15.2098,-15.6275 24.0628,-34.3452 26.2294,-55.41872 v -25.64923 l -0.1163,-100.21729 c 0,-19.94677 -7.3968,-37.60497 -21.4127,-51.76236 -14.0284,-14.16861 -31.482,-21.47153 -51.1247,-21.47153 -19.2811,0 -36.1475,7.18241 -49.7891,20.30973 -13.6024,-13.1063 -30.3427,-20.30973 -49.6153,-20.30973 -19.6483,0 -37.1019,7.30573 -51.1247,21.47153 -14.0145,14.15459 -21.3553,31.81559 -21.3553,51.76236 v 100.85494 h 45.6689 V 207.08119 c 0,-7.64489 2.5492,-13.57719 8.0078,-19.09189 5.477,-5.53149 11.2676,-8.06671 18.8019,-8.06671 7.6882,0 13.4286,2.5212 18.9181,8.06671 5.4586,5.5147 7.9504,11.447 7.9504,19.09189 v 100.85494 h 45.6688 V 207.08119 c 0,-7.64489 2.5493,-13.57719 8.0079,-19.09189 5.488,-5.54411 11.1709,-8.06671 18.8592,-8.06671 7.53,0 13.3824,2.53381 18.8592,8.06671 5.4587,5.5147 7.8916,11.447 7.8916,19.09189 l 0.2326,117.80541 c 0,1.48134 -0.074,2.95285 -0.2326,4.41035 -0.014,0.0757 0.014,0.15556 0,0.23263 -0.063,0.55639 -0.1457,1.13238 -0.2326,1.68315 -0.192,1.18562 -0.4583,2.32499 -0.7541,3.48118 -5.2721,20.569 -26.6975,36.43755 -53.325,36.43755 l -98.7597,-0.34755 v 0.0575 l -48.8025,-0.23263 c -23.7278,0 -43.9871,-23.01172 -43.9871,-52.69151 V 96.012504 h -43.2319"
       inkscape:connector-curvature="0"
       id="path66"
       style="fill:#ffffff;fill-opacity:1;fill-rule:evenodd" />
  </g>
</svg>
