<?xml version="1.0" encoding="UTF-8" standalone="no"?>
<!-- Created with Inkscape (http://www.inkscape.org/) -->

<svg
   version="1.1"
   width="100%"
   height="100%"
   viewBox="0 0 512 512"
   id="svg2"
   sodipodi:docname="gnome-software.svg"
   inkscape:version="1.1 (c68e22c387, 2021-05-23)"
   xmlns:inkscape="http://www.inkscape.org/namespaces/inkscape"
   xmlns:sodipodi="http://sodipodi.sourceforge.net/DTD/sodipodi-0.dtd"
   xmlns:xlink="http://www.w3.org/1999/xlink"
   xmlns="http://www.w3.org/2000/svg"
   xmlns:svg="http://www.w3.org/2000/svg"
   xmlns:rdf="http://www.w3.org/1999/02/22-rdf-syntax-ns#"
   xmlns:cc="http://creativecommons.org/ns#"
   xmlns:dc="http://purl.org/dc/elements/1.1/">
  <sodipodi:namedview
     id="namedview51"
     pagecolor="#ffffff"
     bordercolor="#666666"
     borderopacity="1.0"
     inkscape:pageshadow="2"
     inkscape:pageopacity="0.0"
     inkscape:pagecheckerboard="0"
     showgrid="false"
     inkscape:zoom="0.60490775"
     inkscape:cx="153.74245"
     inkscape:cy="282.68773"
     inkscape:window-width="1366"
     inkscape:window-height="700"
     inkscape:window-x="0"
     inkscape:window-y="0"
     inkscape:window-maximized="1"
     inkscape:current-layer="svg2" />
  <metadata
     id="metadata83">
    <rdf:RDF>
      <cc:Work
         rdf:about="">
        <dc:format>image/svg+xml</dc:format>
        <dc:type
           rdf:resource="http://purl.org/dc/dcmitype/StillImage" />
      </cc:Work>
    </rdf:RDF>
  </metadata>
  <defs
     id="defs4">
    <filter
       color-interpolation-filters="sRGB"
       id="7"
       x="-0.018107638"
       y="-0.017892786"
       width="1.0362153"
       height="1.0357856">
      <feGaussianBlur
         id="feGaussianBlur7"
         stdDeviation="3.7725" />
    </filter>
    <linearGradient
       y1="19.563999"
       x2="0"
       y2="504.01999"
       id="8"
       gradientUnits="userSpaceOnUse">
      <stop
         id="stop10"
         style="stop-color:#f3f3f3;stop-opacity:1"
         offset="0" />
      <stop
         id="stop12"
         style="stop-color:#eeeeee;stop-opacity:1"
         offset="0.5" />
      <stop
         id="stop14"
         style="stop-color:#ebebeb;stop-opacity:1"
         offset="1" />
    </linearGradient>
    <linearGradient
       x1="257"
       x2="362"
       id="5"
       xlink:href="#0"
       gradientUnits="userSpaceOnUse"
       gradientTransform="matrix(1.02835,0,0,1.46193,-462.30511,-120.08539)" />
    <linearGradient
       x1="257"
       x2="362"
       id="6"
       xlink:href="#0"
       gradientUnits="userSpaceOnUse"
       gradientTransform="matrix(1.0381,0,0,1.46193,-573.81511,-96.035388)" />
    <linearGradient
       x1="257"
       x2="362"
       id="4"
       xlink:href="#0"
       gradientUnits="userSpaceOnUse"
       gradientTransform="matrix(1.02835,0,0,1.46193,-530.12311,-120.08539)" />
    <linearGradient
       x1="257"
       x2="362"
       id="3"
       xlink:href="#0"
       gradientUnits="userSpaceOnUse"
       gradientTransform="matrix(1.0381,0,0,1.46193,-533.65811,-108.05539)" />
    <linearGradient
       id="0">
      <stop
         id="stop21"
         style="stop-color:#000000;stop-opacity:1"
         offset="0" />
      <stop
         id="stop23"
         style="stop-color:#ffffff;stop-opacity:1"
         offset="1" />
    </linearGradient>
    <linearGradient
       x1="257"
       x2="362"
       id="2"
       xlink:href="#0"
       gradientUnits="userSpaceOnUse"
       gradientTransform="matrix(1.0381,0,0,1.46193,-533.65911,-108.05539)" />
    <linearGradient
       x1="257"
       x2="362"
       id="1"
       xlink:href="#0"
       gradientUnits="userSpaceOnUse"
       gradientTransform="matrix(1.0381,0,0,1.46193,-573.81911,-108.05539)" />
    <linearGradient
       id="1-3"
       gradientUnits="userSpaceOnUse"
       y1="547.44"
       x2="0"
       y2="513.97998">
      <stop
         stop-color="#197cf1"
         id="stop3" />
      <stop
         stop-color="#20bcfa"
         offset="1"
         id="stop5" />
    </linearGradient>
    <linearGradient
       id="linearGradient886"
       gradientUnits="userSpaceOnUse"
       y1="547.44"
       x2="0"
       y2="513.97998">
      <stop
         stop-color="#197cf1"
         id="stop882" />
      <stop
         stop-color="#20bcfa"
         offset="1"
         id="stop884" />
    </linearGradient>
    <linearGradient
       id="linearGradient892"
       gradientUnits="userSpaceOnUse"
       y1="547.44"
       x2="0"
       y2="513.97998">
      <stop
         stop-color="#197cf1"
         id="stop888" />
      <stop
         stop-color="#20bcfa"
         offset="1"
         id="stop890" />
    </linearGradient>
    <linearGradient
       id="linearGradient898"
       gradientUnits="userSpaceOnUse"
       y1="547.44"
       x2="0"
       y2="513.97998">
      <stop
         stop-color="#197cf1"
         id="stop894" />
      <stop
         stop-color="#20bcfa"
         offset="1"
         id="stop896" />
    </linearGradient>
    <linearGradient
       id="linearGradient904"
       gradientUnits="userSpaceOnUse"
       y1="547.44"
       x2="0"
       y2="513.97998">
      <stop
         stop-color="#197cf1"
         id="stop900" />
      <stop
         stop-color="#20bcfa"
         offset="1"
         id="stop902" />
    </linearGradient>
    <linearGradient
       id="linearGradient910"
       gradientUnits="userSpaceOnUse"
       y1="547.44"
       x2="0"
       y2="513.97998">
      <stop
         stop-color="#197cf1"
         id="stop906" />
      <stop
         stop-color="#20bcfa"
         offset="1"
         id="stop908" />
    </linearGradient>
    <linearGradient
       id="linearGradient916"
       gradientUnits="userSpaceOnUse"
       y1="547.44"
       x2="0"
       y2="513.97998">
      <stop
         stop-color="#197cf1"
         id="stop912" />
      <stop
         stop-color="#20bcfa"
         offset="1"
         id="stop914" />
    </linearGradient>
    <linearGradient
       inkscape:collect="always"
       xlink:href="#linearGradient898"
       id="linearGradient961"
       x1="38.5"
       y1="256"
       x2="473.5"
       y2="256"
       gradientUnits="userSpaceOnUse"
       gradientTransform="matrix(1.0023953,0,0,0.98700701,-513.38326,4.0422307)" />
  </defs>
  <rect
     width="436.04199"
     height="429.34799"
     rx="63.351391"
     x="-474.79099"
     y="42.042"
     id="rect33"
     style="fill:url(#linearGradient961);fill-opacity:1;stroke-width:0.994672"
     transform="rotate(-90)" />
  <g
     transform="matrix(0.987007,0,0,1.0023954,414.51869,168.81986)"
     id="g39"
     style="fill:#ffffff">
    <g
       transform="matrix(11.16704,0,0,11.16704,-9872.79,-12007.15)"
       id="g41"
       style="opacity:0.2;fill:#ffffff">
      <path
         d="m 867.32,1077.09 -2.771,4.824 -3.051,5.316 -2.549,4.438 c -0.191,0.33 -0.074,0.756 0.258,0.945 l 1.805,1.039 c 0.332,0.189 0.758,0.074 0.949,-0.256 l 3.539,-6.166 2.289,-3.986 2.541,-4.426 c 0.189,-0.33 0.074,-0.756 -0.256,-0.949 l -1.809,-1.033 c -0.328,-0.191 -0.755,-0.076 -0.945,0.254"
         inkscape:connector-curvature="0"
         id="9"
         style="fill:#ffffff" />
      <path
         d="m 884.83,1081.91 h -6.1 c 0.717,1.346 1.381,2.611 1.85,3.506 0.326,0.619 0.582,1.109 0.674,1.273 0.094,0.174 0.162,0.354 0.207,0.537 h 3.369 c 0.346,0 0.627,-0.281 0.627,-0.627 v -4.063 c 0,-0.345 -0.281,-0.626 -0.627,-0.626"
         inkscape:connector-curvature="0"
         id="A"
         style="fill:#ffffff" />
      <path
         d="m 870,1081.91 -3.053,5.316 h 8.281 c -0.6,-1.188 -1.396,-2.885 -2.467,-5.316 H 870"
         inkscape:connector-curvature="0"
         id="B"
         style="fill:#ffffff" />
      <path
         d="m 856.08,1087.23 h 3.969 l 3.053,-5.316 h -7.02 c -0.348,0 -0.629,0.281 -0.629,0.627 v 4.063 c -10e-4,0.345 0.28,0.626 0.628,0.626"
         inkscape:connector-curvature="0"
         id="C"
         style="fill:#ffffff" />
      <path
         d="m 858.12,1096.78 2.334,-1.592 c 0.314,-0.213 0.303,-0.547 -0.029,-0.736 l -1.807,-1.037 c -0.33,-0.191 -0.637,-0.035 -0.68,0.344 l -0.313,2.721 c -0.044,0.378 0.179,0.513 0.495,0.3"
         inkscape:connector-curvature="0"
         id="D"
         style="fill:#ffffff" />
      <path
         d="m 880.12,1087.23 c -0.17,-0.311 -0.59,-1.119 -1.143,-2.168 -0.006,-0.014 -0.012,-0.027 -0.02,-0.041 -0.041,-0.08 -0.086,-0.162 -0.129,-0.244 -0.031,-0.061 -0.063,-0.121 -0.096,-0.182 -0.027,-0.053 -0.055,-0.105 -0.082,-0.158 -0.049,-0.092 -0.098,-0.186 -0.148,-0.281 -0.018,-0.029 -0.031,-0.059 -0.047,-0.088 -0.057,-0.107 -0.113,-0.215 -0.17,-0.324 -0.018,-0.031 -0.035,-0.063 -0.053,-0.094 -1.271,-2.406 -2.871,-5.369 -3.855,-6.926 -1.729,-2.73 -4.03,-7.281 -4.676,-6.957 -0.902,0.449 1.887,6.225 2.813,8.395 0.922,2.17 4.527,10.486 5.25,10.85 0.723,0.361 1,0.16 1.484,-0.039 0.484,-0.201 1.35,-0.869 0.906,-1.676 -0.008,-0.018 -0.022,-0.043 -0.034,-0.067"
         inkscape:connector-curvature="0"
         id="E"
         style="fill:#ffffff" />
      <path
         d="m 882.21,1091.59 -0.859,-1.652 c -0.195,-0.373 -0.654,-0.525 -1.02,-0.34 l -1.037,0.535 c -0.365,0.188 -0.48,0.631 -0.256,0.988 l 1.088,1.719 c 0.227,0.355 0.701,0.473 1.053,0.26 l 0.74,-0.445 c 0.355,-0.213 0.486,-0.692 0.291,-1.065"
         inkscape:connector-curvature="0"
         id="F"
         style="fill:#ffffff" />
      <path
         d="m 881.95,1093.98 c -0.271,0.26 -0.914,0.822 -0.135,1.918 0.777,1.098 2.514,1.146 2.742,1.875 10e-4,0 0.548,-5.573 -2.607,-3.793"
         inkscape:connector-curvature="0"
         id="G"
         style="fill:#ffffff" />
    </g>
    <g
       transform="matrix(11.16704,0,0,11.16704,-9887.79,-12022.15)"
       id="g51"
       style="fill:#ffffff">
      <use
         id="use53"
         x="0"
         y="0"
         width="1"
         height="1"
         xlink:href="#9"
         style="fill:#ffffff" />
      <use
         id="use55"
         x="0"
         y="0"
         width="1"
         height="1"
         xlink:href="#A"
         style="fill:#ffffff" />
      <use
         id="use57"
         x="0"
         y="0"
         width="1"
         height="1"
         xlink:href="#B"
         style="fill:#ffffff" />
      <use
         id="use59"
         x="0"
         y="0"
         width="1"
         height="1"
         xlink:href="#C"
         style="fill:#ffffff" />
      <use
         id="use61"
         x="0"
         y="0"
         width="1"
         height="1"
         xlink:href="#D"
         style="fill:#ffffff" />
      <use
         id="use63"
         x="0"
         y="0"
         width="1"
         height="1"
         xlink:href="#E"
         style="fill:#ffffff" />
      <use
         id="use65"
         x="0"
         y="0"
         width="1"
         height="1"
         xlink:href="#F"
         style="fill:#ffffff" />
      <use
         id="use67"
         x="0"
         y="0"
         width="1"
         height="1"
         xlink:href="#G"
         style="fill:#ffffff" />
    </g>
  </g>
  <g
     id="g936"
     transform="matrix(2.9460926,0,0,5.9311929,629.75187,99.518553)" />
</svg>
