<?xml version="1.0" encoding="UTF-8" standalone="no"?>
<!-- Created with Inkscape (http://www.inkscape.org/) -->

<svg
   version="1.1"
   width="100%"
   height="100%"
   viewBox="0 0 512 512"
   id="svg2"
   sodipodi:docname="gtranslator.svg"
   inkscape:version="1.1 (c68e22c387, 2021-05-23)"
   xmlns:inkscape="http://www.inkscape.org/namespaces/inkscape"
   xmlns:sodipodi="http://sodipodi.sourceforge.net/DTD/sodipodi-0.dtd"
   xmlns:xlink="http://www.w3.org/1999/xlink"
   xmlns="http://www.w3.org/2000/svg"
   xmlns:svg="http://www.w3.org/2000/svg"
   xmlns:rdf="http://www.w3.org/1999/02/22-rdf-syntax-ns#"
   xmlns:cc="http://creativecommons.org/ns#"
   xmlns:dc="http://purl.org/dc/elements/1.1/">
  <sodipodi:namedview
     id="namedview35"
     pagecolor="#ffffff"
     bordercolor="#666666"
     borderopacity="1.0"
     inkscape:pageshadow="2"
     inkscape:pageopacity="0.0"
     inkscape:pagecheckerboard="0"
     showgrid="false"
     inkscape:zoom="0.85546874"
     inkscape:cx="317.95434"
     inkscape:cy="223.26941"
     inkscape:window-width="1366"
     inkscape:window-height="700"
     inkscape:window-x="0"
     inkscape:window-y="0"
     inkscape:window-maximized="1"
     inkscape:current-layer="svg2" />
  <metadata
     id="metadata59">
    <rdf:RDF>
      <cc:Work
         rdf:about="">
        <dc:format>image/svg+xml</dc:format>
        <dc:type
           rdf:resource="http://purl.org/dc/dcmitype/StillImage" />
      </cc:Work>
    </rdf:RDF>
  </metadata>
  <defs
     id="defs4">
    <filter
       color-interpolation-filters="sRGB"
       id="7"
       x="-0.018107638"
       y="-0.017892786"
       width="1.0362153"
       height="1.0357856">
      <feGaussianBlur
         id="feGaussianBlur7"
         stdDeviation="3.7725" />
    </filter>
    <linearGradient
       y1="19.563999"
       x2="0"
       y2="504.01999"
       id="8"
       gradientUnits="userSpaceOnUse">
      <stop
         id="stop10"
         style="stop-color:#f3f3f3;stop-opacity:1"
         offset="0" />
      <stop
         id="stop12"
         style="stop-color:#eeeeee;stop-opacity:1"
         offset="0.5" />
      <stop
         id="stop14"
         style="stop-color:#ebebeb;stop-opacity:1"
         offset="1" />
    </linearGradient>
    <linearGradient
       x1="257"
       x2="362"
       id="5"
       xlink:href="#0"
       gradientUnits="userSpaceOnUse"
       gradientTransform="matrix(1.02835,0,0,1.46193,-461.29077,-114.96371)" />
    <linearGradient
       x1="257"
       x2="362"
       id="6"
       xlink:href="#0"
       gradientUnits="userSpaceOnUse"
       gradientTransform="matrix(1.0381,0,0,1.46193,-463.80077,-114.95371)" />
    <linearGradient
       x1="257"
       x2="362"
       id="4"
       xlink:href="#0"
       gradientUnits="userSpaceOnUse"
       gradientTransform="matrix(1.02835,0,0,1.46193,-461.29077,-102.92371)" />
    <linearGradient
       x1="257"
       x2="362"
       id="3"
       xlink:href="#0"
       gradientUnits="userSpaceOnUse"
       gradientTransform="matrix(1.0381,0,0,1.46193,-463.79977,-102.92371)" />
    <linearGradient
       id="0">
      <stop
         id="stop21"
         style="stop-color:#000000;stop-opacity:1"
         offset="0" />
      <stop
         id="stop23"
         style="stop-color:#ffffff;stop-opacity:1"
         offset="1" />
    </linearGradient>
    <linearGradient
       x1="257"
       x2="362"
       id="2"
       xlink:href="#0"
       gradientUnits="userSpaceOnUse"
       gradientTransform="matrix(1.0381,0,0,1.46193,-463.80077,-102.92371)" />
    <linearGradient
       x1="257"
       x2="362"
       id="1"
       xlink:href="#0"
       gradientUnits="userSpaceOnUse"
       gradientTransform="matrix(1.0381,0,0,1.46193,-394.96077,-102.92371)" />
    <linearGradient
       id="6-3"
       x1="403.66"
       y1="545.75"
       x2="402.64999"
       y2="517.44"
       gradientUnits="userSpaceOnUse">
      <stop
         stop-color="#dce2ff"
         id="stop17" />
      <stop
         offset="1"
         stop-color="#f8feff"
         id="stop19" />
    </linearGradient>
    <linearGradient
       id="1-6"
       x1="400.45001"
       y1="543.89001"
       x2="400.62"
       y2="532.98999"
       gradientUnits="userSpaceOnUse">
      <stop
         stop-color="#41b99b"
         id="stop42" />
      <stop
         offset="1"
         stop-color="#59ffd5"
         id="stop44" />
    </linearGradient>
    <linearGradient
       id="5-7"
       x1="400.62"
       y1="530.78003"
       x2="400.45001"
       y2="519.87"
       gradientUnits="userSpaceOnUse">
      <stop
         stop-color="#eb4646"
         id="stop7" />
      <stop
         offset="1"
         stop-color="#ff8651"
         id="stop9" />
    </linearGradient>
    <linearGradient
       id="4-5"
       x1="406.48999"
       y1="534.78998"
       x2="406.62"
       y2="528.59003"
       gradientUnits="userSpaceOnUse">
      <stop
         stop-color="#ffbc00"
         id="stop22" />
      <stop
         offset="1"
         stop-color="#ffec00"
         id="stop24" />
    </linearGradient>
    <linearGradient
       id="3-3"
       x1="394.51999"
       y1="535.15002"
       x2="394.26999"
       y2="528.96997"
       gradientUnits="userSpaceOnUse">
      <stop
         stop-color="#947ecb"
         id="stop27" />
      <stop
         offset="1"
         stop-color="#cab5ff"
         id="stop29" />
    </linearGradient>
    <linearGradient
       id="2-5"
       y1="530.78003"
       x2="0"
       y2="523.38"
       gradientUnits="userSpaceOnUse">
      <stop
         stop-color="#ec87c0"
         id="stop37" />
      <stop
         offset="1"
         stop-color="#ffc1e4"
         id="stop39" />
    </linearGradient>
    <linearGradient
       id="8-6"
       y1="541.15997"
       x2="0"
       y2="533.06"
       gradientUnits="userSpaceOnUse">
      <stop
         stop-color="#0976da"
         id="stop2" />
      <stop
         offset="1"
         stop-color="#5de5f0"
         id="stop4" />
    </linearGradient>
    <linearGradient
       id="0-2"
       x1="405.29999"
       y1="530.90997"
       x2="405.25"
       y2="523.03998"
       gradientUnits="userSpaceOnUse">
      <stop
         stop-color="#fc6e51"
         id="stop32" />
      <stop
         offset="1"
         stop-color="#ff937d"
         id="stop34" />
    </linearGradient>
    <linearGradient
       id="7-9"
       x1="405.14999"
       y1="540.40997"
       x2="404.17001"
       y2="532.98999"
       gradientUnits="userSpaceOnUse">
      <stop
         stop-color="#4fd127"
         id="stop12-1" />
      <stop
         offset="1"
         stop-color="#c6f61a"
         id="stop14-2" />
    </linearGradient>
    <linearGradient
       inkscape:collect="always"
       xlink:href="#1-6"
       id="linearGradient946"
       x1="38.5"
       y1="256"
       x2="473.5"
       y2="256"
       gradientUnits="userSpaceOnUse"
       gradientTransform="matrix(0.98700702,0,0,1.0023954,4.0422356,0.15677846)" />
  </defs>
  <rect
     width="429.34799"
     height="436.04199"
     rx="62.378838"
     x="42.042"
     y="38.749001"
     id="rect33"
     style="fill:url(#linearGradient946);fill-opacity:1;stroke-width:0.994672" />
  <g
     transform="matrix(0.98700699,0,0,1.0023954,769.52534,82.192818)"
     id="g39"
     style="color:#000000">
    <path
       d="m -650.31,21.656 c -12.05,0 -21.75,9.697 -21.75,21.75 v 156.5 c 0,12.05 9.697,21.75 21.75,21.75 h 4.094 l -0.719,0.719 h 15 v 39.5 c 6.484,6.615 12.958,13.156 19.25,19.5 0.497,0.502 1.01,1.032 1.5,1.531 6.228,6.406 12.636,12.986 19.25,19.469 h 39.875 v 17.531 c 0,12.05 9.697,21.75 21.75,21.75 h 156.5 c 12.05,0 21.75,-9.697 21.75,-21.75 v -156.5 c 0,-12.05 -9.697,-21.75 -21.75,-21.75 h -98.25 v -98.25 c 0,-12.05 -9.697,-21.75 -21.75,-21.75 h -156.5 m 68.906,22.406 h 9.594 9.594 v 8.5 8.531 l 28.563,0.281 28.531,0.281 v 9.06 9.06 l -11.344,0.313 -11.344,0.281 -3.438,10.906 c -5.859,18.596 -12.715,31.998 -23.406,45.688 l -2.188,2.813 5.938,3.938 c 2.481,1.222 4.53,2.317 6.25,3.313 -0.054,0.048 -0.102,0.108 -0.156,0.156 -0.04,0.035 -0.086,0.058 -0.125,0.094 -0.188,0.171 -0.38,0.354 -0.563,0.531 -0.265,0.258 -0.53,0.542 -0.781,0.813 -0.157,0.169 -0.318,0.326 -0.469,0.5 -0.097,0.112 -0.186,0.23 -0.281,0.344 -0.024,0.029 -0.038,0.064 -0.063,0.094 -0.216,0.262 -0.421,0.509 -0.625,0.781 -0.218,0.29 -0.422,0.574 -0.625,0.875 -0.013,0.019 -0.019,0.043 -0.031,0.063 -0.182,0.271 -0.393,0.564 -0.563,0.844 -0.024,0.039 -0.039,0.086 -0.063,0.125 -0.155,0.26 -0.293,0.515 -0.438,0.781 -0.129,0.239 -0.254,0.475 -0.375,0.719 -0.066,0.134 -0.124,0.271 -0.188,0.406 -0.016,0.034 -0.047,0.06 -0.063,0.094 -0.105,0.226 -0.184,0.457 -0.281,0.688 -0.108,0.257 -0.214,0.519 -0.313,0.781 -0.025,0.066 -0.069,0.121 -0.094,0.188 -0.06,0.164 -0.1,0.334 -0.156,0.5 -0.114,0.337 -0.215,0.687 -0.313,1.031 -0.015,0.054 -0.048,0.103 -0.063,0.156 -0.034,0.125 -0.062,0.249 -0.094,0.375 -0.057,0.224 -0.106,0.461 -0.156,0.688 -0.057,0.259 -0.108,0.519 -0.156,0.781 -0.023,0.127 -0.073,0.248 -0.094,0.375 -0.015,0.091 -0.017,0.189 -0.031,0.281 -0.055,0.361 -0.088,0.727 -0.125,1.094 -0.034,0.336 -0.075,0.66 -0.094,1 -0.022,0.403 -0.031,0.81 -0.031,1.219 v 0.063 l -9.969,-4.563 -9.656,-6.25 -15.781,10.313 c -16.262,10.595 -30.467,18.16 -36.25,19.313 -3.045,0.609 -3.694,0.155 -8.75,-6.094 -3.01,-3.717 -5.469,-7.28 -5.469,-7.906 0,-0.626 3.972,-2.739 8.813,-4.688 10.709,-4.312 21.903,-10.275 33.531,-17.875 l 8.718,-5.719 -7.03,-10.375 c -6.88,-10.147 -17.375,-30.08 -17.375,-33 0,-1.161 2.053,-1.399 9.75,-1.156 l 9.719,0.313 5.469,10.438 c 5.213,9.938 13.272,22.08 14.656,22.09 0.357,0.003 3.361,-3.419 6.688,-7.594 6.863,-8.614 13.717,-22.14 15.594,-30.813 0.698,-3.227 1.47,-6.698 1.75,-7.719 0.476,-1.738 -2.363,-1.864 -45.16,-2.125 l -45.656,-0.281 -0.313,-6.906 c -0.178,-3.795 -0.055,-7.974 0.281,-9.313 l 0.594,-2.438 h 28.25 28.25 v -8.531 -8.531 m 117.22,144 h 24.5 l 42.5,108.5 h -21.5 l -9.5,-25 h -47 l -9.5,25 h -21.5 l 42,-108.5 m 12.25,17.5 -19.25,50.5 h 38.5 l -19.25,-50.5 m -125.22,16.09 h 25.09 v 40.22 h -39.875 v -39.5 h 15.5 l -0.719,-0.719"
       inkscape:connector-curvature="0"
       id="path41"
       style="opacity:0.299919;fill:#ffffff" />
    <path
       d="m -665.31,6.656 c -12.05,0 -21.75,9.697 -21.75,21.75 v 156.5 c 0,12.05 9.697,21.75 21.75,21.75 h 4.094 l -0.719,0.719 h 15 v 39.5 c 6.484,6.615 12.958,13.156 19.25,19.5 0.497,0.502 1.01,1.032 1.5,1.531 6.228,6.406 12.636,12.986 19.25,19.469 h 39.875 v 17.531 c 0,12.05 9.697,21.75 21.75,21.75 h 156.5 c 12.05,0 21.75,-9.697 21.75,-21.75 v -156.5 c 0,-12.05 -9.697,-21.75 -21.75,-21.75 h -98.25 v -98.25 c 0,-12.05 -9.697,-21.75 -21.75,-21.75 h -156.5 m 68.906,22.406 h 9.594 9.594 v 8.5 8.531 l 28.563,0.281 28.531,0.281 v 9.06 9.06 l -11.344,0.313 -11.344,0.281 -3.438,10.906 c -5.859,18.596 -12.715,31.998 -23.406,45.688 l -2.188,2.813 5.938,3.938 c 2.481,1.222 4.53,2.317 6.25,3.313 -0.054,0.048 -0.102,0.108 -0.156,0.156 -0.04,0.035 -0.086,0.058 -0.125,0.094 -0.188,0.171 -0.38,0.354 -0.563,0.531 -0.265,0.258 -0.53,0.542 -0.781,0.813 -0.157,0.169 -0.318,0.326 -0.469,0.5 -0.097,0.112 -0.186,0.23 -0.281,0.344 -0.024,0.029 -0.038,0.064 -0.063,0.094 -0.216,0.262 -0.421,0.509 -0.625,0.781 -0.218,0.29 -0.422,0.574 -0.625,0.875 -0.013,0.019 -0.019,0.043 -0.031,0.063 -0.182,0.271 -0.393,0.564 -0.563,0.844 -0.024,0.039 -0.039,0.086 -0.063,0.125 -0.155,0.26 -0.293,0.515 -0.438,0.781 -0.129,0.239 -0.254,0.475 -0.375,0.719 -0.066,0.134 -0.124,0.271 -0.188,0.406 -0.016,0.034 -0.047,0.06 -0.063,0.094 -0.105,0.226 -0.184,0.457 -0.281,0.688 -0.108,0.257 -0.214,0.519 -0.313,0.781 -0.025,0.066 -0.069,0.121 -0.094,0.188 -0.06,0.164 -0.1,0.334 -0.156,0.5 -0.114,0.337 -0.215,0.687 -0.313,1.031 -0.015,0.054 -0.048,0.103 -0.063,0.156 -0.034,0.125 -0.062,0.249 -0.094,0.375 -0.057,0.224 -0.106,0.461 -0.156,0.688 -0.057,0.259 -0.108,0.519 -0.156,0.781 -0.023,0.127 -0.073,0.248 -0.094,0.375 -0.015,0.091 -0.017,0.189 -0.031,0.281 -0.055,0.361 -0.088,0.727 -0.125,1.094 -0.034,0.336 -0.075,0.66 -0.094,1 -0.022,0.403 -0.031,0.81 -0.031,1.219 v 0.063 l -9.969,-4.563 -9.656,-6.25 -15.781,10.313 c -16.262,10.595 -30.467,18.16 -36.25,19.313 -3.045,0.609 -3.694,0.155 -8.75,-6.094 -3.01,-3.717 -5.469,-7.28 -5.469,-7.906 0,-0.626 3.972,-2.739 8.813,-4.688 10.709,-4.312 21.903,-10.275 33.531,-17.875 l 8.718,-5.719 -7.03,-10.375 c -6.88,-10.147 -17.375,-30.08 -17.375,-33 0,-1.161 2.053,-1.399 9.75,-1.156 l 9.719,0.313 5.469,10.438 c 5.213,9.938 13.272,22.08 14.656,22.09 0.357,0.003 3.361,-3.419 6.688,-7.594 6.863,-8.614 13.717,-22.14 15.594,-30.813 0.698,-3.227 1.47,-6.698 1.75,-7.719 0.476,-1.738 -2.363,-1.864 -45.16,-2.125 l -45.656,-0.281 -0.313,-6.906 c -0.178,-3.795 -0.055,-7.974 0.281,-9.313 l 0.594,-2.438 h 28.25 28.25 v -8.531 -8.531 m 117.22,144 h 24.5 l 42.5,108.5 h -21.5 l -9.5,-25 h -47 l -9.5,25 h -21.5 l 42,-108.5 m 12.25,17.5 -19.25,50.5 h 38.5 l -19.25,-50.5 m -125.22,16.09 h 25.09 v 40.22 h -39.875 v -39.5 h 15.5 l -0.719,-0.719"
       inkscape:connector-curvature="0"
       id="path43"
       style="fill:#ffffff" />
  </g>
</svg>
