<?xml version="1.0" encoding="UTF-8" standalone="no"?>
<!-- Created with Inkscape (http://www.inkscape.org/) -->

<svg
   version="1.1"
   width="100%"
   height="100%"
   viewBox="0 0 512 512"
   id="svg2"
   sodipodi:docname="libreoffice-calc.svg"
   inkscape:version="1.1 (c68e22c387, 2021-05-23)"
   xmlns:inkscape="http://www.inkscape.org/namespaces/inkscape"
   xmlns:sodipodi="http://sodipodi.sourceforge.net/DTD/sodipodi-0.dtd"
   xmlns:xlink="http://www.w3.org/1999/xlink"
   xmlns="http://www.w3.org/2000/svg"
   xmlns:svg="http://www.w3.org/2000/svg"
   xmlns:rdf="http://www.w3.org/1999/02/22-rdf-syntax-ns#"
   xmlns:cc="http://creativecommons.org/ns#"
   xmlns:dc="http://purl.org/dc/elements/1.1/">
  <sodipodi:namedview
     id="namedview39"
     pagecolor="#ffffff"
     bordercolor="#666666"
     borderopacity="1.0"
     inkscape:pageshadow="2"
     inkscape:pageopacity="0.0"
     inkscape:pagecheckerboard="0"
     showgrid="false"
     inkscape:zoom="0.85546874"
     inkscape:cx="113.38813"
     inkscape:cy="259.50685"
     inkscape:window-width="1366"
     inkscape:window-height="700"
     inkscape:window-x="0"
     inkscape:window-y="0"
     inkscape:window-maximized="1"
     inkscape:current-layer="svg2" />
  <metadata
     id="metadata65">
    <rdf:RDF>
      <cc:Work
         rdf:about="">
        <dc:format>image/svg+xml</dc:format>
        <dc:type
           rdf:resource="http://purl.org/dc/dcmitype/StillImage" />
      </cc:Work>
    </rdf:RDF>
  </metadata>
  <defs
     id="defs4">
    <filter
       color-interpolation-filters="sRGB"
       id="7"
       x="-0.018107638"
       y="-0.017892786"
       width="1.0362153"
       height="1.0357856">
      <feGaussianBlur
         id="feGaussianBlur7"
         stdDeviation="3.7725" />
    </filter>
    <linearGradient
       y1="19.563999"
       x2="0"
       y2="504.01999"
       id="8"
       gradientUnits="userSpaceOnUse">
      <stop
         id="stop10"
         style="stop-color:#f3f3f3;stop-opacity:1"
         offset="0" />
      <stop
         id="stop12"
         style="stop-color:#eeeeee;stop-opacity:1"
         offset="0.5" />
      <stop
         id="stop14"
         style="stop-color:#ebebeb;stop-opacity:1"
         offset="1" />
    </linearGradient>
    <linearGradient
       x1="257"
       x2="362"
       id="5"
       xlink:href="#0"
       gradientUnits="userSpaceOnUse"
       gradientTransform="matrix(1.02835,0,0,1.46193,-383.73694,-115.70205)" />
    <linearGradient
       x1="257"
       x2="362"
       id="6"
       xlink:href="#0"
       gradientUnits="userSpaceOnUse"
       gradientTransform="matrix(1.0381,0,0,1.46193,-467.2489,-124.14041)" />
    <linearGradient
       x1="257"
       x2="362"
       id="4"
       xlink:href="#0"
       gradientUnits="userSpaceOnUse"
       gradientTransform="matrix(1.02835,0,0,1.46193,-610.00374,-127.97146)" />
    <linearGradient
       x1="257"
       x2="362"
       id="3"
       xlink:href="#0"
       gradientUnits="userSpaceOnUse"
       gradientTransform="matrix(1.0381,0,0,1.46193,-427.0919,-112.11041)" />
    <linearGradient
       id="0">
      <stop
         id="stop21"
         style="stop-color:#000000;stop-opacity:1"
         offset="0" />
      <stop
         id="stop23"
         style="stop-color:#ffffff;stop-opacity:1"
         offset="1" />
    </linearGradient>
    <linearGradient
       x1="257"
       x2="362"
       id="2"
       xlink:href="#0"
       gradientUnits="userSpaceOnUse"
       gradientTransform="matrix(1.0381,0,0,1.46193,-467.2489,-112.11041)" />
    <linearGradient
       x1="257"
       x2="362"
       id="1"
       xlink:href="#0"
       gradientUnits="userSpaceOnUse"
       gradientTransform="matrix(1.0381,0,0,1.46193,-467.2529,-112.11041)" />
    <linearGradient
       id="0-3"
       x1="-140.87"
       y1="47.535"
       x2="-141.42999"
       y2="1.316"
       gradientUnits="userSpaceOnUse">
      <stop
         stop-color="#dce2ff"
         id="stop2" />
      <stop
         offset="1"
         stop-color="#f8feff"
         id="stop4" />
    </linearGradient>
    <linearGradient
       id="1-6"
       gradientUnits="userSpaceOnUse"
       x1="10.366"
       y1="50.598999"
       x2="10.11"
       y2="-0.74699998">
      <stop
         stop-color="#5dae33"
         id="stop7" />
      <stop
         offset="1"
         stop-color="#9be058"
         id="stop9" />
    </linearGradient>
    <linearGradient
       id="2-7"
       gradientUnits="userSpaceOnUse"
       y1="18.757999"
       x2="0"
       y2="1.0779999">
      <stop
         stop-color="#84cd4a"
         id="stop12-5" />
      <stop
         offset="1"
         stop-color="#99de57"
         id="stop14-3" />
    </linearGradient>
    <linearGradient
       inkscape:collect="always"
       xlink:href="#1-6"
       id="linearGradient884"
       x1="38.5"
       y1="256"
       x2="473.5"
       y2="256"
       gradientUnits="userSpaceOnUse"
       gradientTransform="matrix(1.0023953,0,0,0.98700694,-513.38317,4.042235)" />
    <linearGradient
       inkscape:collect="always"
       xlink:href="#1-6"
       id="linearGradient892"
       x1="171.90833"
       y1="302.71915"
       x2="338.41974"
       y2="302.71915"
       gradientUnits="userSpaceOnUse"
       gradientTransform="matrix(0.98700694,0,0,1.0023953,4.042235,0.15676078)" />
  </defs>
  <rect
     width="436.04199"
     height="429.34799"
     rx="63.351391"
     x="-474.79099"
     y="42.042"
     id="rect33"
     style="fill:url(#linearGradient884);fill-opacity:1;stroke-width:0.994671"
     transform="rotate(-90)" />
  <path
     d="m 145.98114,122.248 c -1.74296,0 -3.14614,1.43179 -3.14614,3.2103 v 301.76789 c 0,1.77851 1.40318,3.21029 3.14614,3.21029 h 245.39862 c 1.74297,0 3.13309,-1.43188 3.14617,-3.21029 V 212.91481 L 305.67114,122.248 Z m 186.38497,0 62.16059,63.42825 V 125.4583 c 0,-1.77851 -1.40318,-3.2103 -3.14612,-3.2103 z"
     fill="#f5f5f5"
     id="path20-3"
     style="opacity:0.285477;fill:#ffffff;stroke-width:0.794512" />
  <path
     d="m 130.47245,105.79821 c -1.74297,0 -3.14615,1.43179 -3.14615,3.2103 V 410.7764 c 0,1.77851 1.40318,3.21029 3.14615,3.21029 h 245.39863 c 1.74295,0 3.13308,-1.43188 3.14616,-3.21029 V 196.46502 l -88.85478,-90.66681 z m 186.38498,0 62.16058,63.42825 v -60.21795 c 0,-1.77851 -1.40319,-3.2103 -3.14612,-3.2103 z"
     fill="#f5f5f5"
     id="path20"
     style="fill:#ffffff;stroke-width:0.794512" />
  <path
     style="fill:url(#linearGradient892);fill-opacity:1;stroke-width:1.09431"
     d="m 173.71693,303.60105 v -81.25812 h 82.17395 82.17399 v 81.25812 81.25812 h -82.17399 -82.17395 z m 55.11667,48.99386 v -16.7296 h -21.04455 -21.04454 v 16.7296 16.72962 h 21.04454 21.04455 z m 96.20367,0 v -16.7296 H 283.44924 241.8612 v 16.7296 16.72962 h 41.58804 41.58803 z M 228.8336,303.60105 v -16.7296 h -21.04455 -21.04454 v 16.7296 16.72962 h 21.04454 21.04455 z m 96.20367,0 v -16.7296 H 283.44924 241.8612 v 16.7296 16.72962 h 41.58804 41.58803 z M 228.8336,254.60719 V 237.8776 h -21.04455 -21.04454 v 16.72959 16.72961 h 21.04454 21.04455 z m 96.20367,0 V 237.8776 H 283.44924 241.8612 v 16.72959 16.72961 h 41.58804 41.58803 z"
     id="path4084" />
</svg>
