<?xml version="1.0" encoding="UTF-8" standalone="no"?>
<!-- Created with Inkscape (http://www.inkscape.org/) -->

<svg
   version="1.1"
   width="100%"
   height="100%"
   viewBox="0 0 512 512"
   id="svg2"
   sodipodi:docname="applications-office (another copy).svg"
   inkscape:version="1.1 (c68e22c387, 2021-05-23)"
   xmlns:inkscape="http://www.inkscape.org/namespaces/inkscape"
   xmlns:sodipodi="http://sodipodi.sourceforge.net/DTD/sodipodi-0.dtd"
   xmlns:xlink="http://www.w3.org/1999/xlink"
   xmlns="http://www.w3.org/2000/svg"
   xmlns:svg="http://www.w3.org/2000/svg"
   xmlns:rdf="http://www.w3.org/1999/02/22-rdf-syntax-ns#"
   xmlns:cc="http://creativecommons.org/ns#"
   xmlns:dc="http://purl.org/dc/elements/1.1/">
  <sodipodi:namedview
     id="namedview39"
     pagecolor="#ffffff"
     bordercolor="#666666"
     borderopacity="1.0"
     inkscape:pageshadow="2"
     inkscape:pageopacity="0.0"
     inkscape:pagecheckerboard="0"
     showgrid="false"
     inkscape:zoom="0.60490776"
     inkscape:cx="152.91588"
     inkscape:cy="85.963519"
     inkscape:window-width="1366"
     inkscape:window-height="706"
     inkscape:window-x="0"
     inkscape:window-y="0"
     inkscape:window-maximized="1"
     inkscape:current-layer="svg2" />
  <metadata
     id="metadata65">
    <rdf:RDF>
      <cc:Work
         rdf:about="">
        <dc:format>image/svg+xml</dc:format>
        <dc:type
           rdf:resource="http://purl.org/dc/dcmitype/StillImage" />
      </cc:Work>
    </rdf:RDF>
  </metadata>
  <defs
     id="defs4">
    <filter
       color-interpolation-filters="sRGB"
       id="7"
       x="-0.018107638"
       y="-0.017892786"
       width="1.0362153"
       height="1.0357856">
      <feGaussianBlur
         id="feGaussianBlur7"
         stdDeviation="3.7725" />
    </filter>
    <linearGradient
       y1="19.563999"
       x2="0"
       y2="504.01999"
       id="8"
       gradientUnits="userSpaceOnUse">
      <stop
         id="stop10"
         style="stop-color:#f3f3f3;stop-opacity:1"
         offset="0" />
      <stop
         id="stop12"
         style="stop-color:#eeeeee;stop-opacity:1"
         offset="0.5" />
      <stop
         id="stop14"
         style="stop-color:#ebebeb;stop-opacity:1"
         offset="1" />
    </linearGradient>
    <linearGradient
       x1="257"
       x2="362"
       id="5"
       xlink:href="#0"
       gradientUnits="userSpaceOnUse"
       gradientTransform="matrix(1.02835,0,0,1.46193,-383.73694,-115.70205)" />
    <linearGradient
       x1="257"
       x2="362"
       id="6"
       xlink:href="#0"
       gradientUnits="userSpaceOnUse"
       gradientTransform="matrix(1.0381,0,0,1.46193,-467.2489,-124.14041)" />
    <linearGradient
       x1="257"
       x2="362"
       id="4"
       xlink:href="#0"
       gradientUnits="userSpaceOnUse"
       gradientTransform="matrix(1.02835,0,0,1.46193,-610.00374,-127.97146)" />
    <linearGradient
       x1="257"
       x2="362"
       id="3"
       xlink:href="#0"
       gradientUnits="userSpaceOnUse"
       gradientTransform="matrix(1.0381,0,0,1.46193,-427.0919,-112.11041)" />
    <linearGradient
       id="0">
      <stop
         id="stop21"
         style="stop-color:#000000;stop-opacity:1"
         offset="0" />
      <stop
         id="stop23"
         style="stop-color:#ffffff;stop-opacity:1"
         offset="1" />
    </linearGradient>
    <linearGradient
       x1="257"
       x2="362"
       id="2"
       xlink:href="#0"
       gradientUnits="userSpaceOnUse"
       gradientTransform="matrix(1.0381,0,0,1.46193,-467.2489,-112.11041)" />
    <linearGradient
       x1="257"
       x2="362"
       id="1"
       xlink:href="#0"
       gradientUnits="userSpaceOnUse"
       gradientTransform="matrix(1.0381,0,0,1.46193,-467.2529,-112.11041)" />
    <linearGradient
       id="SVGID_3_"
       gradientUnits="userSpaceOnUse"
       x1="212.132"
       x2="284.116"
       y1="189.196"
       y2="261.17999">
      <stop
         offset="0"
         stop-color="#ebeff0"
         id="stop12-3" />
      <stop
         offset="1"
         stop-color="#e3e5e4"
         id="stop14-6" />
    </linearGradient>
    <linearGradient
       gradientTransform="matrix(0.69204,0,0,0.67579,117.88,177.07)"
       gradientUnits="userSpaceOnUse"
       y2="516.46002"
       x2="409.48999"
       y1="542.79999"
       x1="409.57001"
       id="0-7">
      <stop
         stop-color="#e54141"
         id="stop2" />
      <stop
         offset="1"
         stop-color="#ffbd00"
         id="stop4" />
    </linearGradient>
    <linearGradient
       inkscape:collect="always"
       xlink:href="#linearGradient862-3-3"
       id="linearGradient920"
       x1="38.5"
       y1="256"
       x2="473.5"
       y2="256"
       gradientUnits="userSpaceOnUse"
       gradientTransform="matrix(1.0023953,0,0,0.987007,0.15670717,-509.38976)" />
    <linearGradient
       id="0-3"
       gradientUnits="userSpaceOnUse"
       y1="545.14001"
       x2="0"
       y2="518.14001">
      <stop
         stop-color="#a150c9"
         id="stop8" />
      <stop
         offset="1"
         stop-color="#e39aff"
         id="stop10-5" />
    </linearGradient>
    <linearGradient
       gradientUnits="userSpaceOnUse"
       y2="533.06"
       x2="0"
       y1="541.15997"
       id="1-9-6"
       gradientTransform="matrix(1.49857,0,0,1.49857,100.4386,-473.61451)">
      <stop
         stop-color="#0976da"
         id="stop52-7" />
      <stop
         offset="1"
         stop-color="#5de5f0"
         id="stop54-5" />
    </linearGradient>
    <linearGradient
       id="c-3"
       x1="24.535"
       x2="24.535"
       y1="7.0931001"
       y2="44.483002"
       gradientTransform="matrix(1.4364,0,0,1.4364,1113.3157,-663.27108)"
       gradientUnits="userSpaceOnUse">
      <stop
         stop-color="#76dd38"
         offset="0"
         id="stop4-3" />
      <stop
         stop-color="#42c440"
         offset=".48433"
         id="stop6" />
      <stop
         stop-color="#14ab4b"
         offset="1"
         id="stop8-3" />
    </linearGradient>
    <linearGradient
       id="b"
       x1="45.627998"
       x2="45.627998"
       y1="57.955002"
       y2="12.461"
       gradientTransform="matrix(0,9.2616006,-9.3005032,0,555.70424,-44.163321)"
       gradientUnits="userSpaceOnUse">
      <stop
         offset="0"
         id="stop2-3" />
      <stop
         stop-opacity="0"
         offset="1"
         id="stop4-6" />
    </linearGradient>
    <linearGradient
       id="linearGradient909"
       x1="31.525"
       x2="31.525"
       y1="6.5419002"
       y2="59.044998"
       gradientUnits="userSpaceOnUse"
       gradientTransform="translate(596.19496,277.16805)">
      <stop
         stop-color="#ff413f"
         offset="0"
         id="stop2-7" />
      <stop
         stop-color="#e62f2e"
         offset="1"
         id="stop4-5" />
    </linearGradient>
    <linearGradient
       inkscape:collect="always"
       xlink:href="#a-7"
       id="linearGradient969"
       x1="16.141382"
       y1="256.11154"
       x2="497.23764"
       y2="256.11154"
       gradientUnits="userSpaceOnUse"
       gradientTransform="matrix(-0.87809425,0,0,-0.9455957,478.5296,498.91492)" />
    <linearGradient
       id="a-7"
       x1="32.341999"
       x2="32.341999"
       y1="2"
       y2="62"
       gradientUnits="userSpaceOnUse"
       gradientTransform="translate(673.68437,302.72705)">
      <stop
         stop-color="#ff850d"
         offset="0"
         id="stop2-5" />
      <stop
         stop-color="#ff2100"
         offset="1"
         id="stop4-35" />
    </linearGradient>
    <linearGradient
       id="linearGradient862-3-3"
       x1="7.9373002"
       x2="7.9373002"
       y1="15.081"
       y2="1.852"
       gradientTransform="matrix(3.7796,0,0,3.7796,695.38264,182.9392)"
       gradientUnits="userSpaceOnUse">
      <stop
         stop-color="#f1efeb"
         offset="0"
         id="stop7-3" />
      <stop
         stop-color="#fdfcfc"
         offset="1"
         id="stop9-6" />
    </linearGradient>
  </defs>
  <rect
     width="436.04199"
     height="429.34799"
     rx="63.351387"
     x="38.748978"
     y="-471.39001"
     id="rect33"
     style="fill:url(#linearGradient920);fill-opacity:1;stroke-width:0.99467"
     transform="rotate(90)" />
  <path
     d="M 312.81592,474.66849 A 211.22194,227.47011 0 0 0 464.35593,256.62588 211.22194,227.47011 0 0 0 392.48184,85.922267 C 366.20499,74.721293 338.31979,68.204849 310.38686,68.628522 263.57465,69.39772 216.68255,90.302179 179.53094,140.27246 c -19.76799,26.58197 -22.70633,58.43526 -16.36419,86.14379 6.36975,27.70493 21.50159,51.79903 39.65029,63.00475 h 0.35126 c 12.86187,6.54459 27.85625,6.10338 40.36846,-1.18571 10.70811,-6.23884 17.98747,-15.90197 20.32185,-25.42287 l 2.185,-7.81606 c 1.67475,0.0885 3.4681,0.44904 5.08803,0.77507 8.31895,1.56709 14.44206,5.29712 16.36419,12.12757 2.47105,21.08232 -2.63606,38.30925 -12.71248,51.28933 -10.24108,13.15807 -25.78392,22.06634 -44.37142,24.25433 -31.54717,3.72556 -59.43629,-11.3062 -80.66329,-35.64127 C 128.49809,283.49675 114.48552,249.7005 111.93208,217.38618 106.49569,149.29696 142.1329,80.592392 192.85352,38.805362 A 211.22194,227.47011 0 0 0 41.908057,256.62918 211.22194,227.47011 0 0 0 112.83486,426.37244 c 26.56624,11.45761 54.77922,18.13521 83.05713,17.68878 46.81223,-0.73886 93.70434,-21.64443 130.85594,-71.64392 19.768,-26.55179 22.71886,-58.43208 16.34854,-86.11011 -6.34231,-27.70492 -21.47109,-51.42001 -39.61971,-62.62682 l -0.36689,-0.37828 c -14.79888,-7.39227 -29.58986,-5.11672 -40.35282,1.15025 -10.7082,6.26841 -18.01485,15.93119 -20.32186,25.4229 l -2.2004,8.22726 c -1.75713,0 -3.37354,-0.14743 -5.10321,-0.39595 -4.14583,-0.59144 -8.06634,-1.64098 -10.89439,-3.50469 -2.47763,-1.46657 -4.40414,-3.83117 -5.43944,-6.66436 -0.0548,-0.0885 0.0236,-0.29571 0,-0.37826 -5.21664,-42.63712 20.1521,-73.15518 57.05338,-77.50172 31.57455,-3.72555 59.46992,10.90857 80.71813,35.21347 21.19569,24.30465 35.18959,58.13023 37.77032,90.41487 5.45149,68.48376 -30.39873,137.64487 -81.53164,179.37304 z"
     fill="#ffba24"
     fill-rule="evenodd"
     stroke-width="30.6867"
     id="path4"
     style="fill:url(#linearGradient969);fill-opacity:1" />
</svg>
