<?xml version="1.0" encoding="UTF-8" standalone="no"?>
<!-- Created with Inkscape (http://www.inkscape.org/) -->

<svg
   version="1.1"
   width="100%"
   height="100%"
   viewBox="0 0 512 512"
   id="svg2"
   sodipodi:docname="multimedia-volume-control.svg"
   inkscape:version="1.1 (c68e22c387, 2021-05-23)"
   xmlns:inkscape="http://www.inkscape.org/namespaces/inkscape"
   xmlns:sodipodi="http://sodipodi.sourceforge.net/DTD/sodipodi-0.dtd"
   xmlns:xlink="http://www.w3.org/1999/xlink"
   xmlns="http://www.w3.org/2000/svg"
   xmlns:svg="http://www.w3.org/2000/svg"
   xmlns:rdf="http://www.w3.org/1999/02/22-rdf-syntax-ns#"
   xmlns:cc="http://creativecommons.org/ns#"
   xmlns:dc="http://purl.org/dc/elements/1.1/">
  <sodipodi:namedview
     id="namedview39"
     pagecolor="#ffffff"
     bordercolor="#666666"
     borderopacity="1.0"
     inkscape:pageshadow="2"
     inkscape:pageopacity="0.0"
     inkscape:pagecheckerboard="0"
     showgrid="false"
     inkscape:zoom="0.60490775"
     inkscape:cx="110.76069"
     inkscape:cy="122.3327"
     inkscape:window-width="1366"
     inkscape:window-height="706"
     inkscape:window-x="0"
     inkscape:window-y="0"
     inkscape:window-maximized="1"
     inkscape:current-layer="svg2" />
  <metadata
     id="metadata65">
    <rdf:RDF>
      <cc:Work
         rdf:about="">
        <dc:format>image/svg+xml</dc:format>
        <dc:type
           rdf:resource="http://purl.org/dc/dcmitype/StillImage" />
      </cc:Work>
    </rdf:RDF>
  </metadata>
  <defs
     id="defs4">
    <filter
       color-interpolation-filters="sRGB"
       id="7"
       x="-0.018107638"
       y="-0.017892786"
       width="1.0362153"
       height="1.0357856">
      <feGaussianBlur
         id="feGaussianBlur7"
         stdDeviation="3.7725" />
    </filter>
    <linearGradient
       y1="19.563999"
       x2="0"
       y2="504.01999"
       id="8"
       gradientUnits="userSpaceOnUse">
      <stop
         id="stop10"
         style="stop-color:#f3f3f3;stop-opacity:1"
         offset="0" />
      <stop
         id="stop12"
         style="stop-color:#eeeeee;stop-opacity:1"
         offset="0.5" />
      <stop
         id="stop14"
         style="stop-color:#ebebeb;stop-opacity:1"
         offset="1" />
    </linearGradient>
    <linearGradient
       x1="257"
       x2="362"
       id="5"
       xlink:href="#0"
       gradientUnits="userSpaceOnUse"
       gradientTransform="matrix(1.02835,0,0,1.46193,-383.73694,-115.70205)" />
    <linearGradient
       x1="257"
       x2="362"
       id="6"
       xlink:href="#0"
       gradientUnits="userSpaceOnUse"
       gradientTransform="matrix(1.0381,0,0,1.46193,-467.2489,-124.14041)" />
    <linearGradient
       x1="257"
       x2="362"
       id="4"
       xlink:href="#0"
       gradientUnits="userSpaceOnUse"
       gradientTransform="matrix(1.02835,0,0,1.46193,-610.00374,-127.97146)" />
    <linearGradient
       x1="257"
       x2="362"
       id="3"
       xlink:href="#0"
       gradientUnits="userSpaceOnUse"
       gradientTransform="matrix(1.0381,0,0,1.46193,-427.0919,-112.11041)" />
    <linearGradient
       id="0">
      <stop
         id="stop21"
         style="stop-color:#000000;stop-opacity:1"
         offset="0" />
      <stop
         id="stop23"
         style="stop-color:#ffffff;stop-opacity:1"
         offset="1" />
    </linearGradient>
    <linearGradient
       x1="257"
       x2="362"
       id="2"
       xlink:href="#0"
       gradientUnits="userSpaceOnUse"
       gradientTransform="matrix(1.0381,0,0,1.46193,-467.2489,-112.11041)" />
    <linearGradient
       x1="257"
       x2="362"
       id="1"
       xlink:href="#0"
       gradientUnits="userSpaceOnUse"
       gradientTransform="matrix(1.0381,0,0,1.46193,-467.2529,-112.11041)" />
    <linearGradient
       id="SVGID_2_"
       gradientUnits="userSpaceOnUse"
       x1="233.547"
       x2="233.547"
       y1="512.00201"
       y2="0"
       gradientTransform="matrix(0.63664582,-0.11377739,0.10227068,0.57225958,70.73534,139.74048)">
      <stop
         offset="0"
         stop-color="#addcff"
         id="stop8" />
      <stop
         offset=".5028"
         stop-color="#eaf6ff"
         id="stop10-3" />
      <stop
         offset="1"
         stop-color="#eaf6ff"
         id="stop12-6" />
    </linearGradient>
    <linearGradient
       id="SVGID_1_"
       gradientUnits="userSpaceOnUse"
       x1="81.546997"
       x2="81.546997"
       xlink:href="#linearGradient880"
       y1="361.00201"
       y2="151.002"
       gradientTransform="matrix(0.63664582,-0.11377739,0.10227068,0.57225958,70.735341,139.74047)" />
    <linearGradient
       id="lg1">
      <stop
         offset="0"
         stop-color="#5558ff"
         id="stop2" />
      <stop
         offset="1"
         stop-color="#00c0ff"
         id="stop4" />
    </linearGradient>
    <linearGradient
       id="SVGID_4_"
       gradientUnits="userSpaceOnUse"
       x1="393.84201"
       x2="393.84201"
       xlink:href="#lg1"
       y1="334.642"
       y2="177.362"
       gradientTransform="matrix(0.63664582,-0.11377739,0.10227068,0.57225958,70.73534,139.74048)" />
    <linearGradient
       id="SVGID_3_"
       gradientUnits="userSpaceOnUse"
       x1="470.64099"
       x2="470.64099"
       xlink:href="#lg1"
       y1="398.28101"
       y2="113.723"
       gradientTransform="matrix(0.63664582,-0.11377739,0.10227068,0.57225958,70.73534,139.74048)" />
    <linearGradient
       inkscape:collect="always"
       xlink:href="#b"
       id="linearGradient886"
       x1="42.042"
       y1="256.76999"
       x2="471.38998"
       y2="256.76999"
       gradientUnits="userSpaceOnUse"
       gradientTransform="translate(-513.43198,-513.54)" />
    <linearGradient
       id="b"
       x1="97.425003"
       x2="97.425003"
       y1="-9.0071001"
       y2="209.87"
       gradientTransform="matrix(0.3,0,0,0.3,824.67577,216.31865)"
       gradientUnits="userSpaceOnUse">
      <stop
         stop-color="#5beaff"
         offset="0"
         id="stop870" />
      <stop
         stop-color="#4076ff"
         offset="1"
         id="stop872" />
    </linearGradient>
    <linearGradient
       id="linearGradient880"
       x1="14.361"
       x2="14.361"
       y1="27.368"
       y2="4.7614002"
       gradientUnits="userSpaceOnUse"
       gradientTransform="translate(641.95156,12.103459)">
      <stop
         stop-color="#e41162"
         offset="0"
         id="stop7" />
      <stop
         stop-color="#ff4f93"
         offset="1"
         id="stop9" />
    </linearGradient>
  </defs>
  <rect
     width="429.34799"
     height="436.04199"
     rx="62.378838"
     x="-471.39001"
     y="-474.79102"
     id="rect33"
     style="fill:url(#linearGradient886);fill-opacity:1.0;stroke-width:0.994674"
     transform="scale(-1)" />
  <path
     d="m 179.37306,334.40252 -73.30037,13.65329 c -5.06016,0.94253 -9.821552,-2.13665 -10.634416,-6.87724 L 77.775839,238.17184 c -0.812865,-4.7406 2.630514,-9.34802 7.690678,-10.29055 l 73.300363,-13.65329 10.73303,61.37965 z"
     fill="url(#SVGID_1_)"
     id="path17"
     style="fill:#ffffff;fill-opacity:1;stroke-width:0.600601"
     sodipodi:nodetypes="cssssccc" />
  <path
     d="m 276.78921,103.75555 c -3.60773,-0.81387 -7.4805,0.34477 -9.95223,2.9833 l -94.68145,104.04869 21.47684,120.17451 124.85949,64.81367 c 3.18088,1.59055 7.20064,1.39773 10.36949,-0.64847 3.09513,-2.01767 4.69325,-5.42722 4.09906,-8.75204 L 283.66594,110.54608 c -0.59419,-3.32483 -3.27433,-5.9698 -6.87673,-6.79053 z"
     fill="url(#SVGID_2_)"
     id="path19"
     style="fill:#ffffff;stroke-width:0.613158" />
  <path
     d="m 394.3461,317.10635 c -2.44409,0.4368 -5.03789,0.0358 -7.20165,-1.30778 -4.32856,-2.68579 -5.29982,-8.12054 -2.16946,-12.13934 34.37796,-44.13482 23.67236,-104.03839 -23.86446,-133.53449 -4.32856,-2.68579 -5.29983,-8.12054 -2.16947,-12.13934 3.12984,-4.01812 9.17661,-5.09935 13.50517,-2.41356 56.17983,34.85839 68.83184,105.6532 28.20329,157.8126 -1.56498,2.01054 -3.85933,3.28512 -6.30342,3.72191 z"
     fill="url(#SVGID_3_)"
     id="path21"
     style="fill:#ffffff;stroke-width:0.613158" />
  <path
     d="m 347.32219,287.929 c -2.44408,0.43679 -5.03789,0.0358 -7.20164,-1.30778 -4.32857,-2.6858 -5.29983,-8.12054 -2.16947,-12.13934 15.6261,-20.06167 10.75996,-47.29034 -10.84744,-60.69729 -4.32856,-2.68579 -5.29983,-8.12054 -2.16947,-12.13934 3.12973,-4.01869 9.17659,-5.09935 13.50517,-2.41356 30.2505,18.7698 37.06316,56.8903 15.18637,84.97597 -1.56581,2.00952 -3.86006,3.28466 -6.30352,3.72134 z"
     fill="url(#SVGID_4_)"
     id="path23"
     style="fill:#ffffff;stroke-width:0.613158" />
  <path
     d="m 193.99306,351.33232 -73.30037,13.65329 c -5.06016,0.94253 -9.82155,-2.13664 -10.63442,-6.87723 L 92.39584,255.10164 c -0.81287,-4.7406 2.63051,-9.34802 7.69068,-10.29055 l 73.30036,-13.65329 10.73303,61.37966 z"
     fill="url(#SVGID_1_)"
     id="path17-3"
     style="opacity:0.304357;fill:#ffffff;fill-opacity:1;stroke-width:0.600601"
     sodipodi:nodetypes="cssssccc" />
  <path
     d="m 291.40921,120.68536 c -3.60773,-0.81387 -7.4805,0.34477 -9.95223,2.9833 l -94.68145,104.04868 21.47684,120.17451 124.85949,64.81367 c 3.18088,1.59055 7.20064,1.39773 10.36949,-0.64847 3.09513,-2.01767 4.69325,-5.42721 4.09906,-8.75204 L 298.28594,127.47589 c -0.59419,-3.32483 -3.27433,-5.9698 -6.87673,-6.79053 z"
     fill="url(#SVGID_2_)"
     id="path19-6"
     style="opacity:0.304357;fill:#ffffff;stroke-width:0.613158" />
  <path
     d="m 408.9661,334.03616 c -2.44409,0.4368 -5.03789,0.0358 -7.20165,-1.30778 -4.32856,-2.68579 -5.29982,-8.12054 -2.16946,-12.13934 34.37796,-44.13482 23.67236,-104.03839 -23.86446,-133.53449 -4.32856,-2.68579 -5.29983,-8.12054 -2.16947,-12.13934 3.12984,-4.01812 9.17661,-5.09935 13.50517,-2.41356 56.17983,34.85839 68.83184,105.6532 28.20329,157.8126 -1.56498,2.01054 -3.85933,3.28512 -6.30342,3.72191 z"
     fill="url(#SVGID_3_)"
     id="path21-7"
     style="opacity:0.304357;fill:#ffffff;stroke-width:0.613158" />
  <path
     d="m 361.94219,304.8588 c -2.44408,0.43679 -5.03789,0.0358 -7.20164,-1.30778 -4.32857,-2.68579 -5.29983,-8.12054 -2.16947,-12.13934 15.6261,-20.06167 10.75996,-47.29034 -10.84744,-60.69729 -4.32856,-2.68579 -5.29983,-8.12054 -2.16947,-12.13934 3.12973,-4.01869 9.17659,-5.09935 13.50517,-2.41356 30.2505,18.7698 37.06316,56.8903 15.18637,84.97597 -1.56581,2.00952 -3.86006,3.28466 -6.30352,3.72134 z"
     fill="url(#SVGID_4_)"
     id="path23-5"
     style="opacity:0.304357;fill:#ffffff;stroke-width:0.613158" />
</svg>
