<?xml version="1.0" encoding="UTF-8" standalone="no"?>
<!-- Created with Inkscape (http://www.inkscape.org/) -->

<svg
   version="1.1"
   width="100%"
   height="100%"
   viewBox="0 0 512 512"
   id="svg2"
   sodipodi:docname="gnome-todo (another copy).svg"
   inkscape:version="1.1 (c68e22c387, 2021-05-23)"
   xmlns:inkscape="http://www.inkscape.org/namespaces/inkscape"
   xmlns:sodipodi="http://sodipodi.sourceforge.net/DTD/sodipodi-0.dtd"
   xmlns:xlink="http://www.w3.org/1999/xlink"
   xmlns="http://www.w3.org/2000/svg"
   xmlns:svg="http://www.w3.org/2000/svg"
   xmlns:rdf="http://www.w3.org/1999/02/22-rdf-syntax-ns#"
   xmlns:cc="http://creativecommons.org/ns#"
   xmlns:dc="http://purl.org/dc/elements/1.1/">
  <sodipodi:namedview
     id="namedview39"
     pagecolor="#ffffff"
     bordercolor="#666666"
     borderopacity="1.0"
     inkscape:pageshadow="2"
     inkscape:pageopacity="0.0"
     inkscape:pagecheckerboard="0"
     showgrid="false"
     inkscape:zoom="0.60490776"
     inkscape:cx="136.38443"
     inkscape:cy="211.60251"
     inkscape:window-width="1366"
     inkscape:window-height="706"
     inkscape:window-x="0"
     inkscape:window-y="0"
     inkscape:window-maximized="1"
     inkscape:current-layer="svg2" />
  <metadata
     id="metadata65">
    <rdf:RDF>
      <cc:Work
         rdf:about="">
        <dc:format>image/svg+xml</dc:format>
        <dc:type
           rdf:resource="http://purl.org/dc/dcmitype/StillImage" />
      </cc:Work>
    </rdf:RDF>
  </metadata>
  <defs
     id="defs4">
    <filter
       color-interpolation-filters="sRGB"
       id="7"
       x="-0.018107638"
       y="-0.017892786"
       width="1.0362153"
       height="1.0357856">
      <feGaussianBlur
         id="feGaussianBlur7"
         stdDeviation="3.7725" />
    </filter>
    <linearGradient
       y1="19.563999"
       x2="0"
       y2="504.01999"
       id="8"
       gradientUnits="userSpaceOnUse">
      <stop
         id="stop10"
         style="stop-color:#f3f3f3;stop-opacity:1"
         offset="0" />
      <stop
         id="stop12"
         style="stop-color:#eeeeee;stop-opacity:1"
         offset="0.5" />
      <stop
         id="stop14"
         style="stop-color:#ebebeb;stop-opacity:1"
         offset="1" />
    </linearGradient>
    <linearGradient
       x1="257"
       x2="362"
       id="5"
       xlink:href="#0"
       gradientUnits="userSpaceOnUse"
       gradientTransform="matrix(1.02835,0,0,1.46193,-383.73694,-115.70205)" />
    <linearGradient
       x1="257"
       x2="362"
       id="6"
       xlink:href="#0"
       gradientUnits="userSpaceOnUse"
       gradientTransform="matrix(1.0381,0,0,1.46193,-467.2489,-124.14041)" />
    <linearGradient
       x1="257"
       x2="362"
       id="4"
       xlink:href="#0"
       gradientUnits="userSpaceOnUse"
       gradientTransform="matrix(1.02835,0,0,1.46193,-610.00374,-127.97146)" />
    <linearGradient
       x1="257"
       x2="362"
       id="3"
       xlink:href="#0"
       gradientUnits="userSpaceOnUse"
       gradientTransform="matrix(1.0381,0,0,1.46193,-427.0919,-112.11041)" />
    <linearGradient
       id="0">
      <stop
         id="stop21"
         style="stop-color:#000000;stop-opacity:1"
         offset="0" />
      <stop
         id="stop23"
         style="stop-color:#ffffff;stop-opacity:1"
         offset="1" />
    </linearGradient>
    <linearGradient
       x1="257"
       x2="362"
       id="2"
       xlink:href="#0"
       gradientUnits="userSpaceOnUse"
       gradientTransform="matrix(1.0381,0,0,1.46193,-467.2489,-112.11041)" />
    <linearGradient
       x1="257"
       x2="362"
       id="1"
       xlink:href="#0"
       gradientUnits="userSpaceOnUse"
       gradientTransform="matrix(1.0381,0,0,1.46193,-467.2529,-112.11041)" />
    <linearGradient
       id="SVGID_3_"
       gradientUnits="userSpaceOnUse"
       x1="212.132"
       x2="284.116"
       y1="189.196"
       y2="261.17999">
      <stop
         offset="0"
         stop-color="#ebeff0"
         id="stop12-3" />
      <stop
         offset="1"
         stop-color="#e3e5e4"
         id="stop14-6" />
    </linearGradient>
    <linearGradient
       gradientTransform="matrix(0.69204,0,0,0.67579,117.88,177.07)"
       gradientUnits="userSpaceOnUse"
       y2="516.46002"
       x2="409.48999"
       y1="542.79999"
       x1="409.57001"
       id="0-7">
      <stop
         stop-color="#e54141"
         id="stop2" />
      <stop
         offset="1"
         stop-color="#ffbd00"
         id="stop4" />
    </linearGradient>
    <linearGradient
       inkscape:collect="always"
       xlink:href="#1-9-6-3"
       id="linearGradient920"
       x1="38.5"
       y1="256"
       x2="473.5"
       y2="256"
       gradientUnits="userSpaceOnUse"
       gradientTransform="matrix(1.0023953,0,0,0.98700703,-513.38327,4.0422236)" />
    <linearGradient
       id="0-3"
       gradientUnits="userSpaceOnUse"
       y1="545.14001"
       x2="0"
       y2="518.14001">
      <stop
         stop-color="#a150c9"
         id="stop8" />
      <stop
         offset="1"
         stop-color="#e39aff"
         id="stop10-5" />
    </linearGradient>
    <linearGradient
       gradientUnits="userSpaceOnUse"
       y2="533.06"
       x2="0"
       y1="541.15997"
       id="1-9-6"
       gradientTransform="matrix(1.49857,0,0,1.49857,100.4386,-473.61451)">
      <stop
         stop-color="#0976da"
         id="stop52-7" />
      <stop
         offset="1"
         stop-color="#5de5f0"
         id="stop54-5" />
    </linearGradient>
    <linearGradient
       gradientUnits="userSpaceOnUse"
       y2="533.06"
       x2="0"
       y1="541.15997"
       id="1-9-6-3"
       gradientTransform="matrix(1.49857,0,0,1.49857,100.4386,-473.61451)">
      <stop
         stop-color="#0976da"
         id="stop52-7-6" />
      <stop
         offset="1"
         stop-color="#5de5f0"
         id="stop54-5-7" />
    </linearGradient>
  </defs>
  <rect
     width="436.04199"
     height="429.34799"
     rx="63.351387"
     x="-474.79099"
     y="42.042"
     id="rect33"
     style="fill:url(#linearGradient920);fill-opacity:1.0;stroke-width:0.994669"
     transform="rotate(-90)" />
  <g
     id="g874"
     transform="translate(-92.044548,-791.51173)">
    <ellipse
       cx="347.86465"
       cy="1046.9379"
       fill="#ffffff"
       opacity="0.1"
       style="opacity:0.201274;stroke-width:30.7569;paint-order:stroke markers fill"
       id="circle8"
       rx="190.75984"
       ry="183.63805" />
    <path
       d="m 348.41659,900.36687 a 149.94372,148.4497 0 0 0 -149.9791,148.44973 149.94372,148.4497 0 0 0 149.9791,148.4848 149.94372,148.4497 0 0 0 149.94376,-148.4848 149.94372,148.4497 0 0 0 -149.94376,-148.44973 z m 13.35431,15.85148 c 14.59413,1.3326 28.69229,4.59413 41.55064,10.17015 a 12.575011,12.449715 0 0 0 -2.44414,4.34862 c -3.93194,11.71328 -9.81205,6.1021 -2.90467,20.79634 6.90747,14.65907 12.6813,18.44661 14.66499,11.60806 1.98368,-6.83864 -4.95922,-16.48278 2.94009,-12.55494 7.89923,3.89267 13.74391,-1.08719 7.79295,7.71529 -5.91564,8.80248 -5.77393,13.60705 -12.6813,11.64313 -6.94281,-1.96392 -6.8011,11.57298 -13.70858,13.53691 -6.90737,1.96382 -9.31608,-2.94588 -9.31608,1.92875 0,4.9098 3.96728,0.35073 2.97553,8.2414 -0.31866,2.3847 -0.24836,2.8056 -0.5314,3.8577 -6.48235,-1.8236 -9.35151,-2.8056 -14.16901,-0.982 -4.9237,1.9639 -10.76848,14.51884 -10.76848,14.51884 6.19895,6.1372 9.0682,10.5209 11.26444,12.6251 -1.38153,0.631 -3.04638,0.9469 -4.39248,1.8938 -9.88281,6.8736 -17.56957,8.1361 -20.545,17.8854 -2.94011,9.8196 -1.94826,0.8416 -1.94826,12.6252 0,11.7132 -3.01095,3.7875 2.94,14.5187 5.91564,10.7664 20.43882,15.9217 27.38172,21.8133 6.90738,5.8566 14.02731,-12.7653 27.87749,4.8396 13.81485,17.605 14.70042,10.5209 9.77663,20.3404 -4.95912,9.7494 -9.77663,12.9758 -11.7248,16.9036 -1.98368,3.9278 3.82558,17.3945 10.73296,20.3404 h 0.49578 c -0.35427,0.8416 -0.60263,1.5781 -0.99184,2.4197 -8.96192,3.9981 -19.90752,9.574 -21.96197,10.1703 -4.92378,1.4028 -22.17451,4.2785 -34.71411,7.7153 -1.594,0.4556 -2.83382,0.4556 -3.4714,0.5261 1.55857,-1.6833 13.95646,-8.066 20.08455,-11.6079 8.35977,-4.8748 -0.53139,-4.3838 -0.53139,-4.3838 0,0 -13.31888,-1.4379 -40.55889,-1.4379 -13.63763,0 -19.51783,0.5967 -22.49336,1.4379 a 7.4387388,7.3646201 0 0 0 -2.94001,1.4729 c -0.70852,0.631 -1.23982,1.2624 -2.47955,1.9288 -4.85294,2.8056 2.90458,5.6813 -3.40064,7.7504 -4.71114,1.543 -5.24254,0 -9.28067,-2.9108 2.86925,-2.8056 6.83653,-6.2424 11.72489,-12.099 8.89106,-10.6612 11.68946,-8.7323 14.66489,-18.4115 2.97553,-9.6792 -24.90206,-6.7685 -24.90206,-12.5901 0,-5.8215 -4.81742,-9.6792 -13.70848,-13.5368 -8.89106,-3.8576 -2.83382,-5.8216 -12.71672,-8.7324 -9.88291,-2.8756 -21.00564,14.554 -23.98108,8.7324 -2.9401,-5.8216 9.31609,-5.8216 9.31609,-12.59 0,-6.5931 -14.09816,4.9798 -16.64858,-3.4017 -0.075,-0.3155 -0.42549,-0.3155 -0.46017,-0.4909 -0.24835,-1.2273 -0.1059,-1.9288 0,-2.9106 0.60169,-6.9439 8.74936,-9.6794 12.22076,-16.4828 3.93185,-7.7153 1.91283,5.8567 6.83653,12.625 4.95921,6.8035 2.97553,-8.6972 0,-17.3945 -2.9401,-8.7674 1.8774,-8.7674 8.78478,-20.3404 6.90747,-11.6431 6.87205,-18.4115 6.87205,-27.1438 0,-8.6974 4.78198,-9.6793 14.66489,-18.3766 4.5341,-3.9979 8.07636,-7.46984 10.76847,-10.66124 0.6373,-0.3154 1.27525,-0.3154 1.94826,-0.4908 10.44963,-4.17327 14.87745,-10.3806 23.94565,-29.03765 9.06819,-18.69213 -3.54226,-1.26254 -6.34066,-1.96392 -2.79839,-0.70147 -6.83652,-5.61108 -16.64857,-11.11703 a 15.727619,15.570911 0 0 0 -5.34882,-1.92885 l 18.06545,-29.52857 c 5.80935,-1.54313 12.04372,-2.59525 18.06553,-3.40183 2.26711,12.51987 1.02727,24.19807 1.02727,24.19807 0,0 -3.43597,4.03297 -3.43597,6.80349 0,2.77051 18.70312,-22.79524 21.50151,-24.19799 2.83373,-1.40284 9.88291,7.29441 11.26435,-5.82162 0.075,-0.77106 -0.075,-0.77106 0,-1.40274 z m 24.79577,52.21868 c -0.60261,0.17537 -1.2043,0.31548 -1.80655,0.56136 0,3.40174 -1.346,5.89167 -1.98368,7.25943 -0.35426,-0.63094 -1.41686,-1.47298 -1.41686,-1.47298 -1.52315,2.70037 -4.71124,5.08517 -1.48772,4.34863 3.18799,-0.70147 5.66755,1.22747 3.43597,-1.43782 -0.42548,-0.5261 -0.24836,-0.35074 -0.53139,-0.5261 0.42549,0.35073 1.23983,0.5261 2.97553,0.5261 h 4.35696 c -2.37328,1.75348 -4.95912,2.48992 -1.41686,3.40174 4.6758,1.19239 6.83652,1.47298 6.83652,0.49084 a 22.63502,22.409487 0 0 0 -1.48772,-4.3837 c 0.92128,-0.35073 1.77113,-0.80631 0.95643,-2.3848 -1.45239,-2.94579 -3.79025,-5.85659 -6.8012,-6.31246 a 4.9591592,4.9097467 0 0 0 -1.62943,-0.0742 z m 76.40647,8.24131 c 2.47966,3.78754 4.81751,7.64523 6.87205,11.64313 -1.38154,7.82049 -4.81752,13.08103 0.95641,13.08103 1.62942,0 3.08171,-0.3508 4.39239,-0.4909 0.21275,0.4909 0.35427,0.982 0.49579,1.4028 -9.88291,0 -14.62957,2.9458 -19.55326,1.9639 -4.95912,-1.017 -18.66769,-1.8587 -9.77663,-10.66124 5.20711,-5.12013 11.68947,-13.32645 16.64858,-16.93863 z m -61.59977,17.88552 v 0.074 c 0.92127,0.3155 1.70027,1.2274 2.47956,2.8757 2.94001,6.83864 7.82837,12.55494 3.89642,13.53694 -3.96727,0.9819 -5.88011,1.9639 -5.88011,1.9639 0,0 13.67315,8.8024 14.6649,-0.982 0.99184,-9.7844 -3.89642,-15.50074 -3.89642,-15.50074 0,0 6.8011,6.76844 8.78478,10.66124 1.98368,3.9277 1.91283,0 6.83652,4.8395 4.95921,4.9098 3.8611,-19.42864 10.76848,-12.55494 6.90737,6.83864 11.26443,6.66324 9.28075,11.57304 -1.98369,4.9097 12.71663,-5.8917 12.71663,3.8927 0,9.4338 6.09276,13.2564 -5.84468,17.8855 -4.5341,-0.2802 -8.14721,-1.0521 -8.85564,-2.3848 -1.94826,-3.9277 -13.17717,-0.9468 -13.17717,-0.9468 -29.54244,-7.3295 -42.36545,-9.6442 -50.8314,-8.2413 0.14152,-0.3155 0.28303,-0.3155 0.46017,-0.4909 4.32163,-7.7152 12.46874,-18.4115 9.77662,-22.26924 3.79025,-2.1392 6.73034,-4.5239 8.85564,-3.8576 z m 83.13671,48.95724 c 0.075,1.9639 0,3.8577 0,5.8216 0,5.5059 -0.35427,11.0819 -0.95642,16.4125 -8.89107,-7.8205 -21.53694,-7.7153 -21.53694,-7.7153 0,0 7.68676,-8.6621 18.56151,-12.59 a 17.215368,17.043835 0 0 0 3.89642,-1.9288 z"
       fill="#ffffff"
       id="path4-3"
       style="opacity:1;stroke-width:35.2456" />
  </g>
</svg>
