<?xml version="1.0" encoding="UTF-8" standalone="no"?>
<!-- Created with Inkscape (http://www.inkscape.org/) -->

<svg
   version="1.1"
   width="100%"
   height="100%"
   viewBox="0 0 512 512"
   id="svg2"
   sodipodi:docname="1aim (75th copy).svg"
   inkscape:version="1.1 (c68e22c387, 2021-05-23)"
   xmlns:inkscape="http://www.inkscape.org/namespaces/inkscape"
   xmlns:sodipodi="http://sodipodi.sourceforge.net/DTD/sodipodi-0.dtd"
   xmlns:xlink="http://www.w3.org/1999/xlink"
   xmlns="http://www.w3.org/2000/svg"
   xmlns:svg="http://www.w3.org/2000/svg"
   xmlns:rdf="http://www.w3.org/1999/02/22-rdf-syntax-ns#"
   xmlns:cc="http://creativecommons.org/ns#"
   xmlns:dc="http://purl.org/dc/elements/1.1/">
  <sodipodi:namedview
     id="namedview39"
     pagecolor="#ffffff"
     bordercolor="#666666"
     borderopacity="1.0"
     inkscape:pageshadow="2"
     inkscape:pageopacity="0.0"
     inkscape:pagecheckerboard="0"
     showgrid="false"
     inkscape:zoom="0.60490775"
     inkscape:cx="18.184591"
     inkscape:cy="180.19276"
     inkscape:window-width="1366"
     inkscape:window-height="706"
     inkscape:window-x="0"
     inkscape:window-y="0"
     inkscape:window-maximized="1"
     inkscape:current-layer="svg2" />
  <metadata
     id="metadata65">
    <rdf:RDF>
      <cc:Work
         rdf:about="">
        <dc:format>image/svg+xml</dc:format>
        <dc:type
           rdf:resource="http://purl.org/dc/dcmitype/StillImage" />
      </cc:Work>
    </rdf:RDF>
  </metadata>
  <defs
     id="defs4">
    <filter
       color-interpolation-filters="sRGB"
       id="7"
       x="-0.018107638"
       y="-0.017892786"
       width="1.0362153"
       height="1.0357856">
      <feGaussianBlur
         id="feGaussianBlur7"
         stdDeviation="3.7725" />
    </filter>
    <linearGradient
       y1="19.563999"
       x2="0"
       y2="504.01999"
       id="8"
       gradientUnits="userSpaceOnUse">
      <stop
         id="stop10"
         style="stop-color:#f3f3f3;stop-opacity:1"
         offset="0" />
      <stop
         id="stop12"
         style="stop-color:#eeeeee;stop-opacity:1"
         offset="0.5" />
      <stop
         id="stop14"
         style="stop-color:#ebebeb;stop-opacity:1"
         offset="1" />
    </linearGradient>
    <linearGradient
       x1="257"
       x2="362"
       id="5"
       xlink:href="#0"
       gradientUnits="userSpaceOnUse"
       gradientTransform="matrix(1.02835,0,0,1.46193,-383.73694,-115.70205)" />
    <linearGradient
       x1="257"
       x2="362"
       id="6"
       xlink:href="#0"
       gradientUnits="userSpaceOnUse"
       gradientTransform="matrix(1.0381,0,0,1.46193,-467.2489,-124.14041)" />
    <linearGradient
       x1="257"
       x2="362"
       id="4"
       xlink:href="#0"
       gradientUnits="userSpaceOnUse"
       gradientTransform="matrix(1.02835,0,0,1.46193,-610.00374,-127.97146)" />
    <linearGradient
       x1="257"
       x2="362"
       id="3"
       xlink:href="#0"
       gradientUnits="userSpaceOnUse"
       gradientTransform="matrix(1.0381,0,0,1.46193,-427.0919,-112.11041)" />
    <linearGradient
       id="0">
      <stop
         id="stop21"
         style="stop-color:#000000;stop-opacity:1"
         offset="0" />
      <stop
         id="stop23"
         style="stop-color:#ffffff;stop-opacity:1"
         offset="1" />
    </linearGradient>
    <linearGradient
       x1="257"
       x2="362"
       id="2"
       xlink:href="#0"
       gradientUnits="userSpaceOnUse"
       gradientTransform="matrix(1.0381,0,0,1.46193,-467.2489,-112.11041)" />
    <linearGradient
       x1="257"
       x2="362"
       id="1"
       xlink:href="#0"
       gradientUnits="userSpaceOnUse"
       gradientTransform="matrix(1.0381,0,0,1.46193,-467.2529,-112.11041)" />
    <linearGradient
       id="linearGradient862-3"
       x1="7.9373002"
       x2="7.9373002"
       y1="15.081"
       y2="1.852"
       gradientTransform="matrix(3.7796,0,0,3.7796,758.20213,80.444236)"
       gradientUnits="userSpaceOnUse">
      <stop
         stop-color="#6083f1"
         offset="0"
         id="stop2" />
      <stop
         stop-color="#85b6ff"
         offset="1"
         id="stop4" />
    </linearGradient>
    <linearGradient
       inkscape:collect="always"
       xlink:href="#linearGradient862-3"
       id="linearGradient865"
       x1="42.042"
       y1="256.76999"
       x2="471.38998"
       y2="256.76999"
       gradientUnits="userSpaceOnUse"
       gradientTransform="translate(-513.43198,-513.54)" />
  </defs>
  <rect
     width="429.34799"
     height="436.04199"
     rx="62.378838"
     x="-471.38998"
     y="-474.79102"
     id="rect33"
     style="fill:url(#linearGradient865);fill-opacity:1;stroke-width:0.994674"
     transform="scale(-1)" />
  <path
     d="m 129.84325,179.126 c -10.88319,0 -19.63925,8.89769 -19.63925,19.95269 v 113.08017 c 0,29.47925 23.36129,53.21835 52.38315,53.21835 h 163.72399 c 10.8832,0 19.63927,-8.89769 19.63927,-19.95269 V 232.34436 c 0,-29.47925 -23.3613,-53.21836 -52.38316,-53.21836 H 162.5935 Z m 286.19284,0.0373 c -3.85224,-0.29241 -8.23707,1.636 -12.41372,5.91122 -14.68955,15.03389 -31.91244,27.72014 -43.95441,45.68837 -4.95869,7.39961 -4.61849,17.19623 -4.65748,26.40896 -0.0181,5.05504 0.0272,10.08996 0,15.07767 0.0272,4.98854 -0.0181,10.0229 0,15.07766 0.0363,9.21329 -0.30103,19.00935 4.65748,26.40896 12.04106,17.96916 29.26486,30.65448 43.95441,45.68838 4.17701,4.27512 8.56185,6.20381 12.41372,5.91121 6.4203,-0.48797 11.35197,-7.1803 11.35197,-19.58858 0,-24.29226 0.34636,-48.8732 0,-73.49885 0.34636,-24.62471 0,-49.20658 0,-73.49884 0,-12.40874 -4.93122,-19.10061 -11.35197,-19.58858 z"
     fill="#ffffff"
     id="path28-3"
     style="opacity:0.294757;stroke-width:9.1889" />
  <path
     d="m 114.47426,163.276 c -10.8832,0 -19.63926,8.89769 -19.63926,19.95269 v 113.08017 c 0,29.47925 23.36129,53.21835 52.38315,53.21835 h 163.72399 c 10.8832,0 19.63927,-8.89769 19.63927,-19.95269 V 216.49436 c 0,-29.47925 -23.3613,-53.21836 -52.38316,-53.21836 H 147.2245 Z m 286.19284,0.0373 c -3.85224,-0.29241 -8.23707,1.636 -12.41372,5.91122 -14.68955,15.03389 -31.91244,27.72014 -43.95441,45.68837 -4.95869,7.39961 -4.61849,17.19623 -4.65748,26.40896 -0.0181,5.05504 0.0272,10.08996 0,15.07767 0.0272,4.98854 -0.0181,10.0229 0,15.07766 0.0363,9.21329 -0.30103,19.00935 4.65748,26.40896 12.04106,17.96916 29.26486,30.65448 43.95441,45.68838 4.17701,4.27512 8.56185,6.20381 12.41372,5.91121 6.42029,-0.48797 11.35196,-7.1803 11.35196,-19.58858 0,-24.29226 0.34636,-48.8732 0,-73.49885 0.34636,-24.62471 0,-49.20658 0,-73.49884 0,-12.40874 -4.93121,-19.10061 -11.35196,-19.58858 z"
     fill="#ffffff"
     id="path28"
     style="stroke-width:9.1889" />
</svg>
