<?xml version="1.0" encoding="UTF-8" standalone="no"?>
<!-- Created with Inkscape (http://www.inkscape.org/) -->

<svg
   version="1.1"
   width="100%"
   height="100%"
   viewBox="0 0 512 512"
   id="svg2"
   sodipodi:docname="distributor-logo-ubuntu.svg"
   inkscape:version="1.1 (c68e22c387, 2021-05-23)"
   xmlns:inkscape="http://www.inkscape.org/namespaces/inkscape"
   xmlns:sodipodi="http://sodipodi.sourceforge.net/DTD/sodipodi-0.dtd"
   xmlns:xlink="http://www.w3.org/1999/xlink"
   xmlns="http://www.w3.org/2000/svg"
   xmlns:svg="http://www.w3.org/2000/svg"
   xmlns:rdf="http://www.w3.org/1999/02/22-rdf-syntax-ns#"
   xmlns:cc="http://creativecommons.org/ns#"
   xmlns:dc="http://purl.org/dc/elements/1.1/">
  <sodipodi:namedview
     id="namedview51"
     pagecolor="#ffffff"
     bordercolor="#666666"
     borderopacity="1.0"
     inkscape:pageshadow="2"
     inkscape:pageopacity="0.0"
     inkscape:pagecheckerboard="0"
     showgrid="false"
     inkscape:zoom="0.85546875"
     inkscape:cx="256"
     inkscape:cy="256"
     inkscape:window-width="1366"
     inkscape:window-height="700"
     inkscape:window-x="0"
     inkscape:window-y="0"
     inkscape:window-maximized="1"
     inkscape:current-layer="svg2" />
  <metadata
     id="metadata72">
    <rdf:RDF>
      <cc:Work
         rdf:about="">
        <dc:format>image/svg+xml</dc:format>
        <dc:type
           rdf:resource="http://purl.org/dc/dcmitype/StillImage" />
      </cc:Work>
    </rdf:RDF>
  </metadata>
  <defs
     id="defs70">
    <linearGradient
       x1="257"
       y1="256"
       x2="362"
       y2="256"
       id="linearGradient3153"
       xlink:href="#linearGradient4996-6"
       gradientUnits="userSpaceOnUse"
       gradientTransform="matrix(1.0380952,0,0,1.4619252,-337.28943,-118.25286)" />
    <linearGradient
       x1="257"
       y1="256"
       x2="362"
       y2="256"
       id="linearGradient3149"
       xlink:href="#linearGradient4996-6"
       gradientUnits="userSpaceOnUse"
       gradientTransform="matrix(1.0283468,0,0,1.4619252,209.19233,-118.25286)" />
    <linearGradient
       x1="257"
       y1="256"
       x2="362"
       y2="256"
       id="linearGradient3145"
       xlink:href="#linearGradient4996-6"
       gradientUnits="userSpaceOnUse"
       gradientTransform="matrix(1.0283468,0,0,1.4619252,101.21591,-118.25286)" />
    <linearGradient
       x1="257"
       y1="256"
       x2="362"
       y2="256"
       id="linearGradient3141"
       xlink:href="#linearGradient4996-6"
       gradientUnits="userSpaceOnUse"
       gradientTransform="matrix(1.0380952,0,0,1.4619252,-10.28943,-118.25286)" />
    <linearGradient
       x1="257"
       y1="256"
       x2="362"
       y2="256"
       id="linearGradient3137"
       xlink:href="#linearGradient4996-6"
       gradientUnits="userSpaceOnUse"
       gradientTransform="matrix(1.0380952,0,0,1.4619252,-119.28943,-118.25286)" />
    <linearGradient
       x1="257"
       y1="256"
       x2="362"
       y2="256"
       id="linearGradient3108"
       xlink:href="#linearGradient4996-6"
       gradientUnits="userSpaceOnUse"
       gradientTransform="matrix(1.0380952,0,0,1.4619252,-228.28943,-118.25286)" />
    <linearGradient
       id="linearGradient4996-6">
      <stop
         id="stop4998-9"
         style="stop-color:#000000;stop-opacity:1"
         offset="0" />
      <stop
         id="stop5000-7"
         style="stop-color:#ffffff;stop-opacity:1"
         offset="1" />
    </linearGradient>
    <linearGradient
       inkscape:collect="always"
       xlink:href="#linearGradient862"
       id="linearGradient962"
       x1="38.500011"
       y1="253"
       x2="473.49997"
       y2="253"
       gradientUnits="userSpaceOnUse"
       gradientTransform="matrix(0.98700687,0,0,1.0023954,4.0421995,3.1639488)" />
    <linearGradient
       id="linearGradient862"
       x1="7.9373002"
       x2="7.9373002"
       y1="15.081"
       y2="1.852"
       gradientTransform="matrix(3.7796,0,0,3.7796,536.10859,277.80209)"
       gradientUnits="userSpaceOnUse">
      <stop
         stop-color="#ff540d"
         offset="0"
         id="stop2" />
      <stop
         stop-color="#ff9f00"
         offset="1"
         id="stop4" />
    </linearGradient>
  </defs>
  <text
     x="729.82574"
     y="233.26675"
     id="text20"
     style="font-size:128.542px;line-height:125%;font-family:'Gentium Book Basic';letter-spacing:0;word-spacing:0;stroke-width:0.99467"
     transform="scale(0.99229441,1.0077654)"><tspan
       x="729.82574"
       y="233.26675"
       id="tspan22"
       style="stroke-width:0.99467" /></text>
  <text
     x="377.90424"
     y="588.75903"
     transform="scale(3.9818995,0.25113643)"
     id="text24"
     style="font-size:46.7036px;font-family:Arial;text-anchor:middle;stroke-width:0.994666" />
  <text
     x="1307.9984"
     y="153.69305"
     id="text26"
     style="font-size:128.542px;line-height:125%;font-family:'Gentium Book Basic';letter-spacing:0;word-spacing:0;stroke-width:0.99467"
     transform="scale(0.99229441,1.0077654)"><tspan
       x="1307.9984"
       y="153.69305"
       id="tspan28"
       style="stroke-width:0.99467" /></text>
  <text
     x="521.98163"
     y="269.44135"
     transform="scale(3.9818995,0.25113643)"
     id="text30"
     style="font-size:46.7036px;font-family:Arial;text-anchor:middle;stroke-width:0.994666" />
  <text
     x="242.12833"
     y="-26.602089"
     id="text32"
     style="font-size:128.542px;line-height:125%;font-family:'Gentium Book Basic';letter-spacing:0;word-spacing:0;stroke-width:0.99467"
     transform="scale(0.99229441,1.0077654)"><tspan
       x="242.12833"
       y="-26.602089"
       id="tspan34"
       style="stroke-width:0.99467" /></text>
  <text
     x="256.36591"
     y="-454.03915"
     transform="scale(3.9818995,0.25113643)"
     id="text36"
     style="font-size:46.7036px;font-family:Arial;text-anchor:middle;stroke-width:0.994666" />
  <text
     x="1334.3273"
     y="-241.9176"
     id="text38"
     style="font-size:128.542px;line-height:125%;font-family:'Gentium Book Basic';letter-spacing:0;word-spacing:0;stroke-width:0.99467"
     transform="scale(0.99229441,1.0077654)"><tspan
       x="1334.3273"
       y="-241.9176"
       id="tspan40"
       style="stroke-width:0.99467" /></text>
  <text
     x="528.54639"
     y="-1318.076"
     transform="scale(3.9818995,0.25113643)"
     id="text42"
     style="font-size:46.7036px;font-family:Arial;text-anchor:middle;stroke-width:0.994666" />
  <text
     x="1912.4999"
     y="-321.50128"
     id="text44"
     style="font-size:128.542px;line-height:125%;font-family:'Gentium Book Basic';letter-spacing:0;word-spacing:0;stroke-width:0.99467"
     transform="scale(0.99229441,1.0077654)"><tspan
       x="1912.4999"
       y="-321.50128"
       id="tspan46"
       style="stroke-width:0.99467" /></text>
  <text
     x="672.6239"
     y="-1637.4036"
     transform="scale(3.9818995,0.25113643)"
     id="text48"
     style="font-size:46.7036px;font-family:Arial;text-anchor:middle;stroke-width:0.994666" />
  <text
     x="1525.4535"
     y="-791.38403"
     id="text50"
     style="font-size:128.542px;line-height:125%;font-family:'Gentium Book Basic';letter-spacing:0;word-spacing:0;stroke-width:0.99467"
     transform="scale(0.99229441,1.0077654)"><tspan
       x="1525.4535"
       y="-791.38403"
       id="tspan52"
       style="stroke-width:0.99467" /></text>
  <text
     x="576.17102"
     y="-3522.9531"
     transform="scale(3.9818995,0.25113643)"
     id="text54"
     style="font-size:46.7036px;font-family:Arial;text-anchor:middle;stroke-width:0.994666" />
  <text
     x="2103.616"
     y="-870.95776"
     id="text56"
     style="font-size:128.542px;line-height:125%;font-family:'Gentium Book Basic';letter-spacing:0;word-spacing:0;stroke-width:0.99467"
     transform="scale(0.99229441,1.0077654)"><tspan
       x="2103.616"
       y="-870.95776"
       id="tspan58"
       style="stroke-width:0.99467" /></text>
  <text
     x="720.24847"
     y="-3842.271"
     transform="scale(3.9818995,0.25113643)"
     id="text60"
     style="font-size:46.7036px;font-family:Arial;text-anchor:middle;stroke-width:0.994666" />
  <text
     x="280.58234"
     y="536.22382"
     id="text62"
     style="font-size:207.221px;line-height:125%;font-family:'Gentium Book Basic';letter-spacing:0;word-spacing:0;stroke-width:0.99467"
     transform="scale(0.99229441,1.0077654)"><tspan
       x="280.58234"
       y="536.22382"
       id="tspan64"
       style="stroke-width:0.99467" /></text>
  <rect
     width="429.34799"
     height="436.04199"
     rx="62.379162"
     ry="63.351723"
     x="42.042"
     y="38.749001"
     id="rect4981-0"
     style="fill:url(#linearGradient962);fill-opacity:1;stroke:none;stroke-width:0.99467" />
  <g
     transform="matrix(0.98700692,0,0,1.0023955,-3.3603211,-4.3540053)"
     id="g3330">
    <path
       d="m 376.21734,103.5 c -18.4013,0 -33.3277,14.89544 -33.3277,33.29667 0,18.40123 14.9264,33.32769 33.3277,33.32769 18.4012,0 33.3277,-14.92646 33.3277,-33.32769 0,-18.40123 -14.9265,-33.29667 -33.3277,-33.29667 m -77.9078,34.8312 c -21.5264,0 -41.8476,5.03435 -59.86581,13.95873 l 24.56561,42.55158 c 10.7298,-4.99856 22.6839,-7.80868 35.2953,-7.80868 43.4108,0 79.0893,33.05086 83.2883,75.35424 h 50.3316 c -2.1383,-33.95058 -17.2366,-64.41803 -40.43,-86.66633 -11.4385,4.48784 -24.7207,3.91508 -36.1915,-2.70511 -11.3563,-6.55695 -18.4669,-17.62562 -20.3809,-29.63814 -11.6378,-3.26595 -23.9247,-5.04271 -36.6175,-5.04271 m -73.54043,21.76741 c -27.20746,17.72227 -47.5036,44.99059 -55.98647,76.98899 9.95178,7.64402 16.38702,19.65536 16.38702,33.17378 0,13.61387 -6.49849,25.69322 -16.57197,33.32768 8.36474,32.39696 28.80525,60.00895 56.29791,77.87202 l 24.65744,-42.70431 c -21.14807,-15.19496 -34.96241,-39.98011 -34.96241,-68.00854 0,-27.98071 13.74513,-52.74201 34.83119,-67.9465 l -24.65748,-42.70432 m -81.41599,76.83389 c -18.40123,0 -33.32769,14.92645 -33.32769,33.32769 0,18.40123 14.92646,33.32769 33.32769,33.32769 18.40123,0 33.3277,-14.92646 33.3277,-33.32769 0,-18.40124 -14.92647,-33.32769 -33.3277,-33.32769 m 238.34139,41.19841 c -3.7397,42.77353 -39.64,76.33987 -83.3802,76.33987 -12.5709,0 -24.4737,-2.78387 -35.1724,-7.74782 l -24.56561,42.55158 c 17.98241,8.88738 38.26781,13.89668 59.73451,13.89668 12.4003,0 24.3926,-1.67653 35.787,-4.7969 1.976,-11.91349 9.0794,-22.88668 20.357,-29.39233 11.5483,-6.66792 24.9402,-7.17148 36.4325,-2.58221 23.7673,-22.51558 39.1818,-53.62262 41.1066,-88.26887 h -50.2959 m -6.3338,93.74235 c -18.4012,0 -33.3276,14.92646 -33.3276,33.32769 0,18.40123 14.9264,33.29667 33.3276,33.29667 18.4013,0 33.3277,-14.89544 33.3277,-33.29667 0,-18.40123 -14.9264,-33.32769 -33.3277,-33.32769"
       inkscape:connector-curvature="0"
       id="path3328"
       style="opacity:0.2;fill:#ffffff;fill-opacity:1" />
    <path
       d="m 361.21734,88.5 c -18.4013,0 -33.3277,14.89544 -33.3277,33.29667 0,18.40123 14.9264,33.32769 33.3277,33.32769 18.4012,0 33.3277,-14.92646 33.3277,-33.32769 0,-18.40123 -14.9265,-33.29667 -33.3277,-33.29667 m -77.9078,34.8312 c -21.5264,0 -41.8476,5.03435 -59.86581,13.95873 l 24.56561,42.55158 c 10.7298,-4.99856 22.6839,-7.80868 35.2953,-7.80868 43.4108,0 79.0893,33.05086 83.2883,75.35424 h 50.3316 c -2.1383,-33.95058 -17.2366,-64.41803 -40.43,-86.66633 -11.4385,4.48784 -24.7207,3.91508 -36.1915,-2.70511 -11.3563,-6.55695 -18.4669,-17.62562 -20.3809,-29.63814 -11.6378,-3.26595 -23.9247,-5.04271 -36.6175,-5.04271 m -73.54043,21.76741 c -27.20746,17.72227 -47.5036,44.99059 -55.98647,76.98899 9.95178,7.64402 16.38702,19.65536 16.38702,33.17378 0,13.61387 -6.49849,25.69322 -16.57197,33.32768 8.36474,32.39696 28.80525,60.00895 56.29791,77.87202 l 24.65744,-42.70431 c -21.14807,-15.19496 -34.96241,-39.98011 -34.96241,-68.00854 0,-27.98071 13.74513,-52.74201 34.83119,-67.9465 l -24.65748,-42.70432 m -81.41599,76.83389 c -18.40123,0 -33.32769,14.92645 -33.32769,33.32769 0,18.40123 14.92646,33.32769 33.32769,33.32769 18.40123,0 33.3277,-14.92646 33.3277,-33.32769 0,-18.40124 -14.92647,-33.32769 -33.3277,-33.32769 m 238.34139,41.19841 c -3.7397,42.77353 -39.64,76.33987 -83.3802,76.33987 -12.5709,0 -24.4737,-2.78387 -35.1724,-7.74782 l -24.56561,42.55158 c 17.98241,8.88738 38.26781,13.89668 59.73451,13.89668 12.4003,0 24.3926,-1.67653 35.787,-4.7969 1.976,-11.91349 9.0794,-22.88668 20.357,-29.39233 11.5483,-6.66792 24.9402,-7.17148 36.4325,-2.58221 23.7673,-22.51558 39.1818,-53.62262 41.1066,-88.26887 h -50.2959 m -6.3338,93.74235 c -18.4012,0 -33.3276,14.92646 -33.3276,33.32769 0,18.40123 14.9264,33.29667 33.3276,33.29667 18.4013,0 33.3277,-14.89544 33.3277,-33.29667 0,-18.40123 -14.9264,-33.32769 -33.3277,-33.32769"
       inkscape:connector-curvature="0"
       id="path66"
       style="fill:#ffffff;fill-opacity:1" />
  </g>
</svg>
