<?xml version="1.0" encoding="UTF-8" standalone="no"?>
<!-- Created with Inkscape (http://www.inkscape.org/) -->

<svg
   version="1.1"
   width="100%"
   height="100%"
   viewBox="0 0 512 512"
   id="svg2"
   sodipodi:docname="firefox.svg"
   inkscape:version="1.1 (c68e22c387, 2021-05-23)"
   xmlns:inkscape="http://www.inkscape.org/namespaces/inkscape"
   xmlns:sodipodi="http://sodipodi.sourceforge.net/DTD/sodipodi-0.dtd"
   xmlns:xlink="http://www.w3.org/1999/xlink"
   xmlns="http://www.w3.org/2000/svg"
   xmlns:svg="http://www.w3.org/2000/svg"
   xmlns:rdf="http://www.w3.org/1999/02/22-rdf-syntax-ns#"
   xmlns:cc="http://creativecommons.org/ns#"
   xmlns:dc="http://purl.org/dc/elements/1.1/">
  <sodipodi:namedview
     id="namedview61"
     pagecolor="#ffffff"
     bordercolor="#666666"
     borderopacity="1.0"
     inkscape:pageshadow="2"
     inkscape:pageopacity="0.0"
     inkscape:pagecheckerboard="0"
     showgrid="false"
     inkscape:zoom="0.85546876"
     inkscape:cx="204.56621"
     inkscape:cy="272.36529"
     inkscape:window-width="1366"
     inkscape:window-height="700"
     inkscape:window-x="0"
     inkscape:window-y="0"
     inkscape:window-maximized="1"
     inkscape:current-layer="svg2" />
  <metadata
     id="metadata111">
    <rdf:RDF>
      <cc:Work
         rdf:about="">
        <dc:format>image/svg+xml</dc:format>
        <dc:type
           rdf:resource="http://purl.org/dc/dcmitype/StillImage" />
      </cc:Work>
    </rdf:RDF>
  </metadata>
  <defs
     id="defs4">
    <filter
       color-interpolation-filters="sRGB"
       id="7"
       x="-0.018107638"
       y="-0.017892786"
       width="1.0362153"
       height="1.0357856">
      <feGaussianBlur
         id="feGaussianBlur7"
         stdDeviation="3.7725" />
    </filter>
    <linearGradient
       y1="19.563999"
       x2="0"
       y2="504.01999"
       id="8"
       gradientUnits="userSpaceOnUse">
      <stop
         id="stop10"
         style="stop-color:#f3f3f3;stop-opacity:1"
         offset="0" />
      <stop
         id="stop12"
         style="stop-color:#eeeeee;stop-opacity:1"
         offset="0.5" />
      <stop
         id="stop14"
         style="stop-color:#ebebeb;stop-opacity:1"
         offset="1" />
    </linearGradient>
    <linearGradient
       x1="257"
       x2="362"
       id="5"
       xlink:href="#0"
       gradientUnits="userSpaceOnUse"
       gradientTransform="matrix(1.02835,0,0,1.46193,-399.97691,-130.28)" />
    <linearGradient
       x1="257"
       x2="362"
       id="6"
       xlink:href="#0"
       gradientUnits="userSpaceOnUse"
       gradientTransform="matrix(1.0381,0,0,1.46193,-550.48635,-116.629)" />
    <linearGradient
       x1="257"
       x2="362"
       id="4"
       xlink:href="#0"
       gradientUnits="userSpaceOnUse"
       gradientTransform="matrix(1.02835,0,0,1.46193,-546.95035,-116.629)" />
    <linearGradient
       x1="257"
       x2="362"
       id="3"
       xlink:href="#0"
       gradientUnits="userSpaceOnUse"
       gradientTransform="matrix(1.0381,0,0,1.46193,-527.01046,-86.359589)" />
    <linearGradient
       id="0">
      <stop
         id="stop21"
         style="stop-color:#000000;stop-opacity:1"
         offset="0" />
      <stop
         id="stop23"
         style="stop-color:#ffffff;stop-opacity:1"
         offset="1" />
    </linearGradient>
    <linearGradient
       x1="257"
       x2="362"
       id="2"
       xlink:href="#0"
       gradientUnits="userSpaceOnUse"
       gradientTransform="matrix(1.0381,0,0,1.46193,-511.48691,-118.25)" />
    <linearGradient
       x1="257"
       x2="362"
       id="1"
       xlink:href="#0"
       gradientUnits="userSpaceOnUse"
       gradientTransform="matrix(1.0381,0,0,1.46193,-511.49091,-118.25)" />
    <linearGradient
       id="0-3"
       gradientUnits="userSpaceOnUse"
       y1="42.369999"
       x2="0"
       y2="-6.4289999">
      <stop
         stop-color="#ff6835"
         id="stop2" />
      <stop
         offset="1"
         stop-color="#ff956f"
         id="stop4" />
    </linearGradient>
    <linearGradient
       inkscape:collect="always"
       xlink:href="#3-3"
       id="linearGradient898"
       x1="38.5"
       y1="256"
       x2="473.5"
       y2="256"
       gradientUnits="userSpaceOnUse"
       gradientTransform="matrix(1.0023953,0,0,0.98700701,-513.38326,4.0422307)" />
    <linearGradient
       id="3-3"
       gradientUnits="userSpaceOnUse"
       x1="276.07001"
       y1="521.29999"
       x2="263.67999"
       y2="24.896"
       gradientTransform="matrix(0.09000258,0,0,0.08986572,-193.49954,235.54252)">
      <stop
         stop-color="#fc5500"
         id="stop17" />
      <stop
         offset="1"
         stop-color="#ffc200"
         id="stop19" />
    </linearGradient>
  </defs>
  <rect
     width="436.04199"
     height="429.34799"
     rx="63.351391"
     x="-474.79099"
     y="42.042"
     id="rect33"
     style="fill:url(#linearGradient898);fill-opacity:1;stroke-width:0.994672"
     transform="rotate(-90)" />
  <text
     x="-1801.2848"
     y="527.8089"
     id="text39"
     style="font-size:207.22px;line-height:125%;font-family:'Gentium Book Basic';letter-spacing:0;word-spacing:0;stroke-width:0.994672"
     transform="scale(0.99229444,1.0077654)"><tspan
       x="-1801.2848"
       y="527.8089"
       id="tspan41"
       style="stroke-width:0.994672" /></text>
  <text
     x="-132.84705"
     y="1558.1125"
     transform="scale(3.9818996,0.25113642)"
     id="text43"
     style="font-size:75.2963px;font-family:Arial;text-anchor:middle;stroke-width:0.994666" />
  <text
     x="78.763489"
     y="211.34427"
     id="text45"
     style="font-size:128.54px;line-height:125%;font-family:'Gentium Book Basic';letter-spacing:0;word-spacing:0;stroke-width:0.994672"
     transform="scale(0.99229444,1.0077654)"><tspan
       x="78.763489"
       y="211.34427"
       id="tspan47"
       style="stroke-width:0.994672" /></text>
  <text
     x="215.65419"
     y="500.80225"
     transform="scale(3.9818996,0.25113642)"
     id="text49"
     style="font-size:46.7036px;font-family:Arial;text-anchor:middle;stroke-width:0.994666" />
  <text
     x="656.9361"
     y="131.77058"
     id="text51"
     style="font-size:128.54px;line-height:125%;font-family:'Gentium Book Basic';letter-spacing:0;word-spacing:0;stroke-width:0.994672"
     transform="scale(0.99229444,1.0077654)"><tspan
       x="656.9361"
       y="131.77058"
       id="tspan53"
       style="stroke-width:0.994672" /></text>
  <text
     x="359.73166"
     y="181.47467"
     transform="scale(3.9818996,0.25113642)"
     id="text55"
     style="font-size:46.7036px;font-family:Arial;text-anchor:middle;stroke-width:0.994666" />
  <text
     x="-408.93387"
     y="-48.521606"
     id="text57"
     style="font-size:128.54px;line-height:125%;font-family:'Gentium Book Basic';letter-spacing:0;word-spacing:0;stroke-width:0.994672"
     transform="scale(0.99229444,1.0077654)"><tspan
       x="-408.93387"
       y="-48.521606"
       id="tspan59"
       style="stroke-width:0.994672" /></text>
  <text
     x="94.115921"
     y="-541.98596"
     transform="scale(3.9818996,0.25113642)"
     id="text61"
     style="font-size:46.7036px;font-family:Arial;text-anchor:middle;stroke-width:0.994666" />
  <text
     x="683.26514"
     y="-263.84015"
     id="text63"
     style="font-size:128.54px;line-height:125%;font-family:'Gentium Book Basic';letter-spacing:0;word-spacing:0;stroke-width:0.994672"
     transform="scale(0.99229444,1.0077654)"><tspan
       x="683.26514"
       y="-263.84015"
       id="tspan65"
       style="stroke-width:0.994672" /></text>
  <text
     x="366.29648"
     y="-1406.0227"
     transform="scale(3.9818996,0.25113642)"
     id="text67"
     style="font-size:46.7036px;font-family:Arial;text-anchor:middle;stroke-width:0.994666" />
  <text
     x="1261.4375"
     y="-343.41385"
     id="text69"
     style="font-size:128.54px;line-height:125%;font-family:'Gentium Book Basic';letter-spacing:0;word-spacing:0;stroke-width:0.994672"
     transform="scale(0.99229444,1.0077654)"><tspan
       x="1261.4375"
       y="-343.41385"
       id="tspan71"
       style="stroke-width:0.994672" /></text>
  <text
     x="510.37378"
     y="-1725.3403"
     transform="scale(3.9818996,0.25113642)"
     id="text73"
     style="font-size:46.7036px;font-family:Arial;text-anchor:middle;stroke-width:0.994666" />
  <text
     x="874.39124"
     y="-813.29669"
     id="text75"
     style="font-size:128.54px;line-height:125%;font-family:'Gentium Book Basic';letter-spacing:0;word-spacing:0;stroke-width:0.994672"
     transform="scale(0.99229444,1.0077654)"><tspan
       x="874.39124"
       y="-813.29669"
       id="tspan77"
       style="stroke-width:0.994672" /></text>
  <text
     x="413.92096"
     y="-3610.8701"
     transform="scale(3.9818996,0.25113642)"
     id="text79"
     style="font-size:46.7036px;font-family:Arial;text-anchor:middle;stroke-width:0.994666" />
  <text
     x="1452.5537"
     y="-892.88019"
     id="text81"
     style="font-size:128.54px;line-height:125%;font-family:'Gentium Book Basic';letter-spacing:0;word-spacing:0;stroke-width:0.994672"
     transform="scale(0.99229444,1.0077654)"><tspan
       x="1452.5537"
       y="-892.88019"
       id="tspan83"
       style="stroke-width:0.994672" /></text>
  <text
     x="557.99841"
     y="-3930.197"
     transform="scale(3.9818996,0.25113642)"
     id="text85"
     style="font-size:46.7036px;font-family:Arial;text-anchor:middle;stroke-width:0.994666" />
  <text
     x="-370.47986"
     y="514.30127"
     id="text87"
     style="font-size:207.22px;line-height:125%;font-family:'Gentium Book Basic';letter-spacing:0;word-spacing:0;stroke-width:0.994672"
     transform="scale(0.99229444,1.0077654)"><tspan
       x="-370.47986"
       y="514.30127"
       id="tspan89"
       style="stroke-width:0.994672" /></text>
  <g
     transform="matrix(0.987007,0,0,1.0023954,640.93808,13.468639)"
     id="g91"
     style="fill:#ffffff">
    <path
       d="m -384.37,87.3 c -45.11,0 -85.9,18.532 -115.2,48.36 1.364,1.657 2.996,3.245 4.959,4.738 h 0.032 c 0.305,-0.31 0.577,-0.64 0.884,-0.948 14.202,-14.202 30.743,-25.322 49.15,-33.1 19.05,-8.06 39.3,-12.161 60.17,-12.161 19.703,0 38.842,3.648 56.952,10.834 10.579,1.828 24.702,5.356 36.452,12.03 -26.361,-18.723 -58.6,-29.755 -93.4,-29.755 m 58.4,21.985 c 33.669,19.235 50.16,49.5 50.16,49.5 -17.18,-16.49 -30.924,-15.13 -30.924,-15.13 10.306,7.558 15.11,15.807 24.733,30.924 9.62,15.12 8.939,50.824 8.939,50.824 -4.809,-11.681 -14.435,-16.488 -14.435,-16.488 0,0 2.068,20.633 3.443,32.31 1.375,11.681 -4.801,33.672 -4.801,33.672 0,-8.245 -4.801,-10.329 -4.801,-10.329 0,0 1.375,4.83 -5.496,26.817 -6.871,21.987 -19.924,29.526 -21.985,28.839 -2.061,-0.687 0,-4.106 0,-4.106 0,0 -3.435,-2.756 -8.244,4.801 -4.053,6.374 -11.05,9.819 -13.14,10.74 2.241,-1.272 2.811,-5.938 2.811,-5.938 0,0 -4.798,2.755 -26.786,6.191 -21.987,3.436 -32.28,-6.191 -32.28,-6.191 2.061,-2.061 11.656,0 11.656,0 0,-2.061 -10.991,-5.48 -21.985,-6.854 -8.939,-1.117 -13.278,-5.267 -15.351,-8.592 -4.122,-2.769 -7.555,-5.808 -10.424,-9.03 -3.287,-3.695 -5.804,-7.642 -7.676,-11.624 -3.746,-7.978 -4.958,-16.15 -4.959,-23.374 0.001,-6.822 1.088,-12.825 2.148,-17.15 1.061,-4.326 2.1,-6.984 2.148,-7.107 l 0.158,0.063 c 1.291,-3.97 3.825,-7.164 6.823,-8.465 -0.941,-0.642 -1.909,-1.243 -2.906,-1.769 -4.487,-2.4 -9.56,-3.387 -14.562,-2.559 -5.01,0.793 -9.825,3.28 -14.09,6.539 -4.091,3.12 -7.34,7.571 -9.476,12.477 -2.151,4.921 -3.223,10.338 -3.222,15.794 -0.005,5.462 1.081,10.941 3.064,16.11 1.975,5.175 4.844,10.04 8.307,14.435 3.47,4.402 7.504,8.353 11.908,11.877 -4.593,-3.275 -8.873,-7.01 -12.635,-11.277 -3.76,-4.257 -6.97,-9.06 -9.318,-14.309 -2.351,-5.243 -3.816,-10.92 -4.138,-16.741 -0.323,-5.814 0.494,-11.757 2.559,-17.31 2.068,-5.538 5.332,-10.704 10.01,-14.72 2.261,-1.893 4.75,-3.631 7.423,-5.05 2.668,-1.424 5.57,-2.533 8.623,-3.159 3.053,-0.627 6.236,-0.751 9.35,-0.316 3.118,0.425 6.139,1.386 8.939,2.716 2.802,1.329 5.4,3.01 7.77,4.928 1.185,0.961 2.299,1.981 3.38,3.064 0.541,0.54 1.065,1.1 1.579,1.674 0.429,0.482 0.834,0.941 1.263,1.485 2.448,-6.347 0.718,-16.946 0.316,-19.17 -1.296,-1.835 -3.14,-4.152 -5.212,-7.455 -1.562,-2.493 -3.231,-5.554 -4.959,-9.445 -2.705,-6.085 -3.633,-12.223 -3.633,-17.752 0.002,-6.459 1.246,-12.142 2.495,-16.236 0.386,-1.262 0.785,-2.378 1.137,-3.317 3.882,-16.889 22.458,-33.482 22.458,-33.482 -26.11,-3.436 -43.969,20.595 -43.969,20.595 -0.072,-0.044 -0.148,-0.083 -0.221,-0.126 -1.852,2.052 -8.132,9.407 -8.718,15.257 0,0 0.214,-10.529 2.843,-17.878 -9.962,-3.174 -21.686,-1.5 -27.702,-0.253 l 0.063,0.19 c -6.162,1.106 -11.805,3.492 -16.804,6.475 -4.998,2.983 -9.368,6.564 -12.951,10.04 -7.156,6.946 -11.173,13.446 -11.213,13.519 l -0.221,-0.126 c -12.646,18.326 -20.595,57.43 -20.595,57.43 1.375,-6.184 7.581,-13.74 7.581,-13.74 -6.871,10.306 -5.496,57.71 -5.496,57.71 0,-7.558 4.106,-16.488 4.106,-16.488 1.375,15.803 8.249,66.65 52.908,105.12 44.657,38.481 82.44,41.916 82.44,41.916 -8.932,-2.748 -10.992,-6.886 -10.992,-6.886 28.858,11.681 46.717,9.634 46.717,9.634 -4.809,-2.748 -5.496,-4.833 -5.496,-4.833 30.919,1.375 72.16,-9.618 81.78,-16.488 9.62,-6.871 17.847,-20.595 17.847,-20.595 24.735,-11.681 41.911,-35.742 46.717,-48.11 4.809,-12.368 0,-25.428 0,-25.428 0,0 0.007,-0.676 11.687,-26.786 11.595,-25.919 0.199,-62.58 0.032,-63.11 -0.055,5.579 -5.062,13.329 -6.03,14.783 0.203,-0.519 0.537,-2.168 0.537,-7.328 0,-7.558 2.038,-26.776 -7.581,-48.08 -9.62,-21.297 -24.04,-31.619 -24.04,-31.619 v 4.801 c -1.257,-4.191 -8.882,-10.641 -14.656,-15.07 -3.693,-2.831 -6.633,-4.864 -6.633,-4.864 v 6.886 c 34.35,31.607 37.778,53.603 37.778,53.603 -6.184,-19.926 -24.05,-35.07 -39.17,-49.5 -15.12,-14.429 -46.717,-21.985 -46.717,-21.985 m 106.51,98.36 c 0,-0.031 0,-0.064 0,-0.095 h -0.032 c 0,0 0.03,0.091 0.032,0.095 m -291.36,-88.73 c -13.231,12.78 -16.442,34.34 -17.12,47.38 0.187,-0.219 0.373,-0.44 0.569,-0.663 4.478,-5.15 10.992,-11.538 19.394,-16.583 2.898,-1.739 6.04,-3.316 9.381,-4.612 -13.231,-11.01 -12.224,-25.522 -12.224,-25.522 m 83.52,52.28 c -0.917,3.42 -1.739,7.73 -1.737,12.445 0.001,4.771 0.821,9.924 3.064,14.972 1.8,4.053 3.477,6.997 5.02,9.381 1.087,1.675 2.12,3.071 3.064,4.359 1.935,-1.78 4.184,-3.569 6.03,-4.801 4.123,-2.748 19.924,-10.289 21.985,-12.351 2.061,-2.061 6.184,-13.05 2.748,-16.488 -3.436,-3.436 -25.41,-1.374 -32.28,-2.748 -2.881,-0.576 -5.662,-2.611 -7.897,-4.77 m 4.517,67.12 -0.095,0.063 c 0.021,0.055 0.032,0.095 0.032,0.095 0.026,-0.053 0.037,-0.104 0.063,-0.158 m -17.404,20.532 c -0.276,2.306 -0.443,4.786 -0.442,7.391 -0.001,4.851 0.617,10.1 2.274,15.288 1.661,5.196 4.34,10.341 8.592,15.13 2.837,3.189 6.382,6.215 10.803,8.971 l -0.253,0.411 c 8.307,0.151 21.802,-0.024 28.649,-2.306 10.306,-3.436 26.817,-16.488 26.817,-16.488 4.123,-4.123 8.923,-2.053 13.05,-2.053 4.123,0 5.497,-6.167 0,-12.351 -5.497,-6.184 -24.739,-12.399 -39.17,-2.78 -14.429,9.62 -35.05,2.062 -47.41,-8.244 -1.124,-0.937 -2.087,-1.925 -2.906,-2.969"
       inkscape:connector-curvature="0"
       id="path93"
       style="opacity:0.2;fill:#ffffff" />
    <path
       d="m -399.37,72.3 c -45.11,0 -85.9,18.532 -115.2,48.36 1.364,1.657 2.996,3.245 4.959,4.738 h 0.032 c 0.305,-0.31 0.577,-0.64 0.884,-0.948 14.202,-14.202 30.743,-25.322 49.15,-33.1 19.05,-8.06 39.3,-12.161 60.17,-12.161 19.703,0 38.842,3.648 56.952,10.834 10.579,1.828 24.702,5.356 36.452,12.03 -26.361,-18.723 -58.6,-29.755 -93.4,-29.755 m 58.4,21.985 c 33.669,19.235 50.16,49.5 50.16,49.5 -17.18,-16.49 -30.924,-15.13 -30.924,-15.13 10.306,7.558 15.11,15.807 24.733,30.924 9.62,15.12 8.939,50.824 8.939,50.824 -4.809,-11.681 -14.435,-16.488 -14.435,-16.488 0,0 2.068,20.633 3.443,32.31 1.375,11.681 -4.801,33.672 -4.801,33.672 0,-8.245 -4.801,-10.329 -4.801,-10.329 0,0 1.375,4.83 -5.496,26.817 -6.871,21.987 -19.924,29.526 -21.985,28.839 -2.061,-0.687 0,-4.106 0,-4.106 0,0 -3.435,-2.756 -8.244,4.801 -4.053,6.374 -11.05,9.819 -13.14,10.74 2.241,-1.272 2.811,-5.938 2.811,-5.938 0,0 -4.798,2.755 -26.786,6.191 -21.987,3.436 -32.28,-6.191 -32.28,-6.191 2.061,-2.061 11.656,0 11.656,0 0,-2.061 -10.991,-5.48 -21.985,-6.854 -8.939,-1.117 -13.278,-5.267 -15.351,-8.592 -4.122,-2.769 -7.555,-5.808 -10.424,-9.03 -3.287,-3.695 -5.804,-7.642 -7.676,-11.624 -3.746,-7.978 -4.958,-16.15 -4.959,-23.374 0.001,-6.822 1.088,-12.825 2.148,-17.15 1.061,-4.326 2.1,-6.984 2.148,-7.107 l 0.158,0.063 c 1.291,-3.97 3.825,-7.164 6.823,-8.465 -0.941,-0.642 -1.909,-1.243 -2.906,-1.769 -4.487,-2.4 -9.56,-3.387 -14.562,-2.559 -5.01,0.793 -9.825,3.28 -14.09,6.539 -4.091,3.12 -7.34,7.571 -9.476,12.477 -2.151,4.921 -3.223,10.338 -3.222,15.794 -0.005,5.462 1.081,10.941 3.064,16.11 1.975,5.175 4.844,10.04 8.307,14.435 3.47,4.402 7.504,8.353 11.908,11.877 -4.593,-3.275 -8.873,-7.01 -12.635,-11.277 -3.76,-4.257 -6.97,-9.06 -9.318,-14.309 -2.351,-5.243 -3.816,-10.92 -4.138,-16.741 -0.323,-5.814 0.494,-11.757 2.559,-17.31 2.068,-5.538 5.332,-10.704 10.01,-14.72 2.261,-1.893 4.75,-3.631 7.423,-5.05 2.668,-1.424 5.57,-2.533 8.623,-3.159 3.053,-0.627 6.236,-0.751 9.35,-0.316 3.118,0.425 6.139,1.386 8.939,2.716 2.802,1.329 5.4,3.01 7.77,4.928 1.185,0.961 2.299,1.981 3.38,3.064 0.541,0.54 1.065,1.1 1.579,1.674 0.429,0.482 0.834,0.941 1.263,1.485 2.448,-6.347 0.718,-16.946 0.316,-19.17 -1.296,-1.835 -3.14,-4.152 -5.212,-7.455 -1.562,-2.493 -3.231,-5.554 -4.959,-9.445 -2.705,-6.085 -3.633,-12.223 -3.633,-17.752 0.002,-6.459 1.246,-12.142 2.495,-16.236 0.386,-1.262 0.785,-2.378 1.137,-3.317 3.882,-16.889 22.458,-33.482 22.458,-33.482 -26.11,-3.436 -43.969,20.595 -43.969,20.595 -0.072,-0.044 -0.148,-0.083 -0.221,-0.126 -1.852,2.052 -8.132,9.407 -8.718,15.257 0,0 0.214,-10.529 2.843,-17.878 -9.962,-3.174 -21.686,-1.5 -27.702,-0.253 l 0.063,0.19 c -6.162,1.106 -11.805,3.492 -16.804,6.475 -4.998,2.983 -9.368,6.564 -12.951,10.04 -7.156,6.946 -11.173,13.447 -11.213,13.519 l -0.221,-0.126 c -12.646,18.326 -20.595,57.43 -20.595,57.43 1.375,-6.184 7.581,-13.74 7.581,-13.74 -6.871,10.306 -5.496,57.71 -5.496,57.71 0,-7.558 4.106,-16.488 4.106,-16.488 1.375,15.803 8.249,66.65 52.908,105.12 44.657,38.481 82.44,41.916 82.44,41.916 -8.932,-2.748 -10.992,-6.886 -10.992,-6.886 28.858,11.681 46.717,9.634 46.717,9.634 -4.809,-2.748 -5.496,-4.833 -5.496,-4.833 30.919,1.375 72.16,-9.618 81.78,-16.488 9.62,-6.871 17.847,-20.595 17.847,-20.595 24.735,-11.681 41.911,-35.742 46.717,-48.11 4.809,-12.368 0,-25.428 0,-25.428 0,0 0.007,-0.676 11.687,-26.786 11.595,-25.919 0.199,-62.58 0.032,-63.11 -0.055,5.579 -5.062,13.329 -6.03,14.783 0.203,-0.519 0.537,-2.168 0.537,-7.328 0,-7.558 2.038,-26.776 -7.581,-48.08 -9.62,-21.297 -24.04,-31.619 -24.04,-31.619 v 4.801 c -1.257,-4.191 -8.882,-10.641 -14.656,-15.07 -3.693,-2.831 -6.633,-4.864 -6.633,-4.864 v 6.886 c 34.35,31.607 37.778,53.603 37.778,53.603 -6.184,-19.926 -24.05,-35.07 -39.17,-49.5 -15.12,-14.429 -46.717,-21.985 -46.717,-21.985 m 106.51,98.36 c 0,-0.031 0,-0.064 0,-0.095 h -0.032 c 0,0 0.03,0.091 0.032,0.095 m -291.36,-88.73 c -13.231,12.78 -16.442,34.34 -17.12,47.38 0.187,-0.219 0.373,-0.44 0.569,-0.663 4.478,-5.15 10.992,-11.538 19.394,-16.583 2.898,-1.739 6.04,-3.316 9.381,-4.612 -13.231,-11.01 -12.224,-25.522 -12.224,-25.522 m 83.52,52.28 c -0.917,3.42 -1.739,7.73 -1.737,12.445 0.001,4.771 0.821,9.924 3.064,14.972 1.8,4.053 3.477,6.997 5.02,9.381 1.087,1.675 2.12,3.071 3.064,4.359 1.935,-1.78 4.184,-3.569 6.03,-4.801 4.123,-2.748 19.924,-10.289 21.985,-12.351 2.061,-2.061 6.184,-13.05 2.748,-16.488 -3.436,-3.436 -25.41,-1.374 -32.28,-2.748 -2.881,-0.576 -5.662,-2.611 -7.897,-4.77 m 4.517,67.12 -0.095,0.063 c 0.021,0.055 0.032,0.095 0.032,0.095 0.026,-0.053 0.037,-0.104 0.063,-0.158 m -17.404,20.532 c -0.276,2.306 -0.443,4.786 -0.442,7.391 -0.001,4.851 0.617,10.1 2.274,15.288 1.661,5.196 4.34,10.341 8.592,15.13 2.837,3.189 6.382,6.215 10.803,8.971 l -0.253,0.411 c 8.307,0.151 21.802,-0.024 28.649,-2.306 10.306,-3.436 26.817,-16.488 26.817,-16.488 4.123,-4.123 8.923,-2.053 13.05,-2.053 4.123,0 5.497,-6.167 0,-12.351 -5.497,-6.184 -24.739,-12.399 -39.17,-2.78 -14.429,9.62 -35.05,2.062 -47.41,-8.244 -1.124,-0.937 -2.087,-1.925 -2.906,-2.969"
       inkscape:connector-curvature="0"
       id="path95"
       style="fill:#ffffff" />
  </g>
</svg>
