<?xml version="1.0" encoding="UTF-8" standalone="no"?>
<!-- Created with Inkscape (http://www.inkscape.org/) -->

<svg
   version="1.1"
   width="100%"
   height="100%"
   viewBox="0 0 512 512"
   id="svg2"
   sodipodi:docname="google-earth.svg"
   inkscape:version="1.1 (c68e22c387, 2021-05-23)"
   xmlns:inkscape="http://www.inkscape.org/namespaces/inkscape"
   xmlns:sodipodi="http://sodipodi.sourceforge.net/DTD/sodipodi-0.dtd"
   xmlns:xlink="http://www.w3.org/1999/xlink"
   xmlns="http://www.w3.org/2000/svg"
   xmlns:svg="http://www.w3.org/2000/svg"
   xmlns:rdf="http://www.w3.org/1999/02/22-rdf-syntax-ns#"
   xmlns:cc="http://creativecommons.org/ns#"
   xmlns:dc="http://purl.org/dc/elements/1.1/">
  <sodipodi:namedview
     id="namedview58"
     pagecolor="#ffffff"
     bordercolor="#666666"
     borderopacity="1.0"
     inkscape:pageshadow="2"
     inkscape:pageopacity="0.0"
     inkscape:pagecheckerboard="0"
     showgrid="false"
     inkscape:zoom="0.21386719"
     inkscape:cx="-317.95433"
     inkscape:cy="275.87214"
     inkscape:window-width="1366"
     inkscape:window-height="700"
     inkscape:window-x="0"
     inkscape:window-y="0"
     inkscape:window-maximized="1"
     inkscape:current-layer="svg2" />
  <metadata
     id="metadata105">
    <rdf:RDF>
      <cc:Work
         rdf:about="">
        <dc:format>image/svg+xml</dc:format>
        <dc:type
           rdf:resource="http://purl.org/dc/dcmitype/StillImage" />
      </cc:Work>
    </rdf:RDF>
  </metadata>
  <defs
     id="defs4">
    <filter
       color-interpolation-filters="sRGB"
       id="7"
       x="-0.018107638"
       y="-0.017892786"
       width="1.0362153"
       height="1.0357856">
      <feGaussianBlur
         id="feGaussianBlur7"
         stdDeviation="3.7725" />
    </filter>
    <linearGradient
       y1="19.563999"
       x2="0"
       y2="504.01999"
       id="8"
       gradientUnits="userSpaceOnUse">
      <stop
         id="stop10"
         style="stop-color:#f3f3f3;stop-opacity:1"
         offset="0" />
      <stop
         id="stop12"
         style="stop-color:#eeeeee;stop-opacity:1"
         offset="0.5" />
      <stop
         id="stop14"
         style="stop-color:#ebebeb;stop-opacity:1"
         offset="1" />
    </linearGradient>
    <linearGradient
       x1="257"
       x2="362"
       id="5"
       xlink:href="#0"
       gradientUnits="userSpaceOnUse"
       gradientTransform="matrix(1.02835,0,0,1.46193,-393.93068,-118.24)" />
    <linearGradient
       x1="257"
       x2="362"
       id="6"
       xlink:href="#0"
       gradientUnits="userSpaceOnUse"
       gradientTransform="matrix(1.0381,0,0,1.46193,-505.44068,-118.25)" />
    <linearGradient
       x1="257"
       x2="362"
       id="4"
       xlink:href="#0"
       gradientUnits="userSpaceOnUse"
       gradientTransform="matrix(1.02835,0,0,1.46193,-462.78068,-118.24)" />
    <linearGradient
       x1="257"
       x2="362"
       id="3"
       xlink:href="#0"
       gradientUnits="userSpaceOnUse"
       gradientTransform="matrix(1.0381,0,0,1.46193,-465.27968,-118.24)" />
    <linearGradient
       id="0">
      <stop
         id="stop21"
         style="stop-color:#000000;stop-opacity:1"
         offset="0" />
      <stop
         id="stop23"
         style="stop-color:#ffffff;stop-opacity:1"
         offset="1" />
    </linearGradient>
    <linearGradient
       x1="257"
       x2="362"
       id="2"
       xlink:href="#0"
       gradientUnits="userSpaceOnUse"
       gradientTransform="matrix(1.0381,0,0,1.46193,-465.28068,-118.24)" />
    <linearGradient
       x1="257"
       x2="362"
       id="1"
       xlink:href="#0"
       gradientUnits="userSpaceOnUse"
       gradientTransform="matrix(1.0381,0,0,1.46193,-533.8973,-83.034521)" />
    <linearGradient
       id="0-3"
       y1="547.32001"
       x2="0"
       y2="500.66"
       gradientUnits="userSpaceOnUse"
       gradientTransform="matrix(9.7029468,0,0,8.9700761,-4785.8382,-4557.9403)">
      <stop
         stop-color="#0d5ec2"
         id="stop7" />
      <stop
         offset="1"
         stop-color="#38b2fa"
         id="stop9" />
    </linearGradient>
    <linearGradient
       inkscape:collect="always"
       xlink:href="#0-3"
       id="linearGradient889"
       x1="38.5"
       y1="256"
       x2="473.5"
       y2="256"
       gradientUnits="userSpaceOnUse"
       gradientTransform="matrix(1.0023953,0,0,0.98700701,-513.38326,4.0422307)" />
  </defs>
  <rect
     width="436.04199"
     height="429.34799"
     rx="63.351391"
     x="-474.79099"
     y="42.042"
     id="rect45"
     style="fill:url(#linearGradient889);fill-opacity:1;stroke-width:0.994672"
     transform="rotate(-90)" />
  <text
     x="177.62386"
     y="219.98795"
     id="text51"
     style="font-size:128.54px;line-height:125%;font-family:'Gentium Book Basic';letter-spacing:0;word-spacing:0;stroke-width:0.994672"
     transform="scale(0.99229444,1.0077654)"><tspan
       x="177.62386"
       y="219.98795"
       id="tspan53"
       style="stroke-width:0.994672" /></text>
  <text
     x="240.29208"
     y="535.45648"
     transform="scale(3.9818996,0.25113642)"
     id="text55"
     style="font-size:46.7036px;font-family:Arial;text-anchor:middle;stroke-width:0.994666" />
  <text
     x="755.79657"
     y="140.41423"
     id="text57"
     style="font-size:128.54px;line-height:125%;font-family:'Gentium Book Basic';letter-spacing:0;word-spacing:0;stroke-width:0.994672"
     transform="scale(0.99229444,1.0077654)"><tspan
       x="755.79657"
       y="140.41423"
       id="tspan59"
       style="stroke-width:0.994672" /></text>
  <text
     x="384.36951"
     y="216.14879"
     transform="scale(3.9818996,0.25113642)"
     id="text61"
     style="font-size:46.7036px;font-family:Arial;text-anchor:middle;stroke-width:0.994666" />
  <text
     x="-310.07343"
     y="-39.879906"
     id="text63"
     style="font-size:128.54px;line-height:125%;font-family:'Gentium Book Basic';letter-spacing:0;word-spacing:0;stroke-width:0.994672"
     transform="scale(0.99229444,1.0077654)"><tspan
       x="-310.07343"
       y="-39.879906"
       id="tspan65"
       style="stroke-width:0.994672" /></text>
  <text
     x="118.75381"
     y="-507.3317"
     transform="scale(3.9818996,0.25113642)"
     id="text67"
     style="font-size:46.7036px;font-family:Arial;text-anchor:middle;stroke-width:0.994666" />
  <text
     x="782.12543"
     y="-255.19646"
     id="text69"
     style="font-size:128.54px;line-height:125%;font-family:'Gentium Book Basic';letter-spacing:0;word-spacing:0;stroke-width:0.994672"
     transform="scale(0.99229444,1.0077654)"><tspan
       x="782.12543"
       y="-255.19646"
       id="tspan71"
       style="stroke-width:0.994672" /></text>
  <text
     x="390.93433"
     y="-1371.3687"
     transform="scale(3.9818996,0.25113642)"
     id="text73"
     style="font-size:46.7036px;font-family:Arial;text-anchor:middle;stroke-width:0.994666" />
  <text
     x="1360.298"
     y="-334.78006"
     id="text75"
     style="font-size:128.54px;line-height:125%;font-family:'Gentium Book Basic';letter-spacing:0;word-spacing:0;stroke-width:0.994672"
     transform="scale(0.99229444,1.0077654)"><tspan
       x="1360.298"
       y="-334.78006"
       id="tspan77"
       style="stroke-width:0.994672" /></text>
  <text
     x="535.01172"
     y="-1690.6862"
     transform="scale(3.9818996,0.25113642)"
     id="text79"
     style="font-size:46.7036px;font-family:Arial;text-anchor:middle;stroke-width:0.994666" />
  <text
     x="973.25165"
     y="-804.6629"
     id="text81"
     style="font-size:128.54px;line-height:125%;font-family:'Gentium Book Basic';letter-spacing:0;word-spacing:0;stroke-width:0.994672"
     transform="scale(0.99229444,1.0077654)"><tspan
       x="973.25165"
       y="-804.6629"
       id="tspan83"
       style="stroke-width:0.994672" /></text>
  <text
     x="438.55887"
     y="-3576.2253"
     transform="scale(3.9818996,0.25113642)"
     id="text85"
     style="font-size:46.7036px;font-family:Arial;text-anchor:middle;stroke-width:0.994666" />
  <text
     x="1551.4142"
     y="-884.23645"
     id="text87"
     style="font-size:128.54px;line-height:125%;font-family:'Gentium Book Basic';letter-spacing:0;word-spacing:0;stroke-width:0.994672"
     transform="scale(0.99229444,1.0077654)"><tspan
       x="1551.4142"
       y="-884.23645"
       id="tspan89"
       style="stroke-width:0.994672" /></text>
  <text
     x="582.63635"
     y="-3895.5437"
     transform="scale(3.9818996,0.25113642)"
     id="text91"
     style="font-size:46.7036px;font-family:Arial;text-anchor:middle;stroke-width:0.994666" />
  <text
     x="-271.61948"
     y="522.94495"
     id="text93"
     style="font-size:207.22px;line-height:125%;font-family:'Gentium Book Basic';letter-spacing:0;word-spacing:0;stroke-width:0.994672"
     transform="scale(0.99229444,1.0077654)"><tspan
       x="-271.61948"
       y="522.94495"
       id="tspan95"
       style="stroke-width:0.994672" /></text>
  <g
     transform="matrix(0.987007,0,0,1.0023954,544.59635,3.0216753)"
     id="g97"
     style="color:#000000;fill:#ffffff;fill-rule:evenodd">
    <path
       d="m -300.14792,109.16486 c -20.01,0 -39.1,3.707 -56.774,10.303 48.638,0.84 76.09,5.813 100.99,19.232 2.075,1.118 4.142,2.282 6.192,3.52 6.15,3.714 12.266,7.998 18.576,12.878 27.2,21.04 29.575,46.635 52.675,66.19 14.06,11.908 12.16,10.904 18.663,10.904 7.117,0 10.741,-6.333 12.471,-13.222 -20.71,-63.66 -81.28,-109.81 -152.79,-109.81 m -64.36,29.02 c -3.401,0 -6.79,0.361 -10.116,1.03 -1.109,0.223 -2.216,0.483 -3.314,0.773 -30.75,8.11 -57.06,41.505 -65.67,56.836 -0.547,0.975 -1.168,2.121 -1.744,3.177 -4.57,9.554 -8.25,19.567 -10.814,30.05 2.462,-3.101 4.858,-6.01 7.238,-8.757 16.662,-19.217 31.909,-29.62 53.808,-29.62 39.07,0 44.04,17.14 115.64,63.1 35.24,22.622 88.71,53.819 132.82,58.47 1.809,-5.84 3.243,-11.839 4.361,-17.944 -16.502,-1.173 -31.367,-7.366 -47.44,-17.858 -2.296,-1.499 -4.623,-3.048 -6.977,-4.722 -18.828,-13.391 -39.754,-32.32 -66.977,-55.806 -20.728,-17.88 -72.862,-78.73 -100.81,-78.73 m -55.989,180.38 c -12.389,0 -21.634,6.182 -22.675,20.09 17.369,33.569 46.539,60.2 82.15,74.61 -0.472,-0.65 -0.92,-1.335 -1.395,-2.061 -3.326,-5.077 -6.541,-11.944 -6.541,-19.833 0,-9.177 6.03,-12.792 12.82,-12.792 9.04,0 38.899,13.994 88.87,13.994 24.993,0 56.17,-3.604 79.01,-12.277 9.02,-8.646 16.957,-18.327 23.721,-28.847 -14.598,5.826 -41.592,14.252 -76.74,14.252 -67.91,0 -129.84,-28.536 -147.73,-37.691 -4.746,-2.428 -16.912,-9.444 -31.483,-9.444"
       inkscape:connector-curvature="0"
       id="path99"
       style="opacity:0.2;fill:#ffffff" />
    <path
       d="m -292.56492,90.452857 c -20.01,0 -39.1,3.707 -56.774,10.303003 48.638,0.84 76.09,5.813 100.99,19.232 2.075,1.118 4.142,2.282 6.192,3.52 6.15,3.714 12.266,7.998 18.576,12.878 27.2,21.04 29.575,46.635 52.675,66.19 14.06,11.908 12.16,10.904 18.663,10.904 7.117,0 10.741,-6.333 12.471,-13.222 -20.71,-63.66 -81.28,-109.810003 -152.79,-109.810003 m -64.36,29.020003 c -3.401,0 -6.79,0.361 -10.116,1.03 -1.109,0.223 -2.216,0.483 -3.314,0.773 -30.75,8.11 -57.06,41.505 -65.67,56.836 -0.547,0.975 -1.168,2.121 -1.744,3.177 -4.57,9.554 -8.25,19.567 -10.814,30.05 2.462,-3.101 4.858,-6.01 7.238,-8.757 16.662,-19.217 31.909,-29.62 53.808,-29.62 39.07,0 44.04,17.14 115.64,63.1 35.24,22.622 88.71,53.819 132.82,58.47 1.809,-5.84 3.243,-11.839 4.361,-17.944 -16.502,-1.173 -31.367,-7.366 -47.44,-17.858 -2.296,-1.499 -4.623,-3.048 -6.977,-4.722 -18.828,-13.391 -39.754,-32.32 -66.977,-55.806 -20.728,-17.88 -72.862,-78.73 -100.81,-78.73 m -55.989,180.38 c -12.389,0 -21.634,6.182 -22.675,20.09 17.369,33.569 46.539,60.2 82.15,74.61 -0.472,-0.65 -0.92,-1.335 -1.395,-2.061 -3.326,-5.077 -6.541,-11.944 -6.541,-19.833 0,-9.177 6.03,-12.792 12.82,-12.792 9.04,0 38.899,13.994 88.87,13.994 24.993,0 56.17,-3.604 79.01,-12.277 9.02,-8.646 16.957,-18.327 23.721,-28.847 -14.598,5.826 -41.592,14.252 -76.74,14.252 -67.91,0 -129.84,-28.536 -147.73,-37.691 -4.746,-2.428 -16.912,-9.444 -31.483,-9.444"
       inkscape:connector-curvature="0"
       id="path101"
       style="fill:#ffffff" />
  </g>
</svg>
