<?xml version="1.0" encoding="UTF-8" standalone="no"?>
<!-- Created with Inkscape (http://www.inkscape.org/) -->

<svg
   version="1.1"
   width="100%"
   height="100%"
   viewBox="0 0 512 512"
   id="svg2"
   sodipodi:docname="hwinfo.svg"
   inkscape:version="1.1 (c68e22c387, 2021-05-23)"
   xmlns:inkscape="http://www.inkscape.org/namespaces/inkscape"
   xmlns:sodipodi="http://sodipodi.sourceforge.net/DTD/sodipodi-0.dtd"
   xmlns:xlink="http://www.w3.org/1999/xlink"
   xmlns="http://www.w3.org/2000/svg"
   xmlns:svg="http://www.w3.org/2000/svg"
   xmlns:rdf="http://www.w3.org/1999/02/22-rdf-syntax-ns#"
   xmlns:cc="http://creativecommons.org/ns#"
   xmlns:dc="http://purl.org/dc/elements/1.1/">
  <sodipodi:namedview
     id="namedview39"
     pagecolor="#ffffff"
     bordercolor="#666666"
     borderopacity="1.0"
     inkscape:pageshadow="2"
     inkscape:pageopacity="0.0"
     inkscape:pagecheckerboard="0"
     showgrid="false"
     inkscape:zoom="0.21386719"
     inkscape:cx="338.99543"
     inkscape:cy="-84.164382"
     inkscape:window-width="1366"
     inkscape:window-height="706"
     inkscape:window-x="0"
     inkscape:window-y="0"
     inkscape:window-maximized="1"
     inkscape:current-layer="svg2" />
  <metadata
     id="metadata65">
    <rdf:RDF>
      <cc:Work
         rdf:about="">
        <dc:format>image/svg+xml</dc:format>
        <dc:type
           rdf:resource="http://purl.org/dc/dcmitype/StillImage" />
      </cc:Work>
    </rdf:RDF>
  </metadata>
  <defs
     id="defs4">
    <filter
       color-interpolation-filters="sRGB"
       id="7"
       x="-0.018107638"
       y="-0.017892786"
       width="1.0362153"
       height="1.0357856">
      <feGaussianBlur
         id="feGaussianBlur7"
         stdDeviation="3.7725" />
    </filter>
    <linearGradient
       y1="19.563999"
       x2="0"
       y2="504.01999"
       id="8"
       gradientUnits="userSpaceOnUse">
      <stop
         id="stop10"
         style="stop-color:#f3f3f3;stop-opacity:1"
         offset="0" />
      <stop
         id="stop12"
         style="stop-color:#eeeeee;stop-opacity:1"
         offset="0.5" />
      <stop
         id="stop14"
         style="stop-color:#ebebeb;stop-opacity:1"
         offset="1" />
    </linearGradient>
    <linearGradient
       x1="257"
       x2="362"
       id="5"
       xlink:href="#0"
       gradientUnits="userSpaceOnUse"
       gradientTransform="matrix(1.02835,0,0,1.46193,-383.73694,-115.70205)" />
    <linearGradient
       x1="257"
       x2="362"
       id="6"
       xlink:href="#0"
       gradientUnits="userSpaceOnUse"
       gradientTransform="matrix(1.0381,0,0,1.46193,-467.2489,-124.14041)" />
    <linearGradient
       x1="257"
       x2="362"
       id="4"
       xlink:href="#0"
       gradientUnits="userSpaceOnUse"
       gradientTransform="matrix(1.02835,0,0,1.46193,-610.00374,-127.97146)" />
    <linearGradient
       x1="257"
       x2="362"
       id="3"
       xlink:href="#0"
       gradientUnits="userSpaceOnUse"
       gradientTransform="matrix(1.0381,0,0,1.46193,-427.0919,-112.11041)" />
    <linearGradient
       id="0">
      <stop
         id="stop21"
         style="stop-color:#000000;stop-opacity:1"
         offset="0" />
      <stop
         id="stop23"
         style="stop-color:#ffffff;stop-opacity:1"
         offset="1" />
    </linearGradient>
    <linearGradient
       x1="257"
       x2="362"
       id="2"
       xlink:href="#0"
       gradientUnits="userSpaceOnUse"
       gradientTransform="matrix(1.0381,0,0,1.46193,-467.2489,-112.11041)" />
    <linearGradient
       x1="257"
       x2="362"
       id="1"
       xlink:href="#0"
       gradientUnits="userSpaceOnUse"
       gradientTransform="matrix(1.0381,0,0,1.46193,-467.2529,-112.11041)" />
    <linearGradient
       id="SVGID_3_"
       gradientUnits="userSpaceOnUse"
       x1="212.132"
       x2="284.116"
       y1="189.196"
       y2="261.17999">
      <stop
         offset="0"
         stop-color="#ebeff0"
         id="stop12-3" />
      <stop
         offset="1"
         stop-color="#e3e5e4"
         id="stop14-6" />
    </linearGradient>
    <linearGradient
       gradientTransform="matrix(0.69204,0,0,0.67579,117.88,177.07)"
       gradientUnits="userSpaceOnUse"
       y2="516.46002"
       x2="409.48999"
       y1="542.79999"
       x1="409.57001"
       id="0-7">
      <stop
         stop-color="#e54141"
         id="stop2" />
      <stop
         offset="1"
         stop-color="#ffbd00"
         id="stop4" />
    </linearGradient>
    <linearGradient
       inkscape:collect="always"
       xlink:href="#c-3"
       id="linearGradient920"
       x1="38.5"
       y1="256"
       x2="473.5"
       y2="256"
       gradientUnits="userSpaceOnUse"
       gradientTransform="matrix(1.0023953,0,0,0.987007,0.15673717,-509.38979)" />
    <linearGradient
       id="0-3"
       gradientUnits="userSpaceOnUse"
       y1="545.14001"
       x2="0"
       y2="518.14001">
      <stop
         stop-color="#a150c9"
         id="stop8" />
      <stop
         offset="1"
         stop-color="#e39aff"
         id="stop10-5" />
    </linearGradient>
    <linearGradient
       gradientUnits="userSpaceOnUse"
       y2="533.06"
       x2="0"
       y1="541.15997"
       id="1-9-6"
       gradientTransform="matrix(1.49857,0,0,1.49857,100.4386,-473.61451)">
      <stop
         stop-color="#0976da"
         id="stop52-7" />
      <stop
         offset="1"
         stop-color="#5de5f0"
         id="stop54-5" />
    </linearGradient>
    <linearGradient
       id="c-3"
       x1="24.535"
       x2="24.535"
       y1="7.0931001"
       y2="44.483002"
       gradientTransform="matrix(1.4364,0,0,1.4364,1113.3157,-663.27108)"
       gradientUnits="userSpaceOnUse">
      <stop
         stop-color="#76dd38"
         offset="0"
         id="stop4-3" />
      <stop
         stop-color="#42c440"
         offset=".48433"
         id="stop6" />
      <stop
         stop-color="#14ab4b"
         offset="1"
         id="stop8-3" />
    </linearGradient>
    <linearGradient
       id="0-3-3"
       x1="-22.705"
       x2="3.8789999"
       gradientUnits="userSpaceOnUse"
       gradientTransform="matrix(7.0999253,0,0,8.8178989,262.48171,225.50252)">
      <stop
         stop-color="#d3d3d3"
         id="stop2-6" />
      <stop
         offset="1"
         stop-color="#fcf9f9"
         id="stop4-7" />
    </linearGradient>
    <linearGradient
       id="c-5"
       x1="32"
       x2="32"
       y1="11"
       y2="53"
       gradientTransform="matrix(7.8101963,0,0,6.5195937,530.38979,-410.28662)"
       gradientUnits="userSpaceOnUse">
      <stop
         stop-color="#dcdede"
         offset="0"
         id="stop2-3" />
      <stop
         stop-color="#939493"
         offset="1"
         id="stop4-5" />
    </linearGradient>
    <linearGradient
       id="linearGradient964"
       x1="30"
       x2="30"
       y1="10"
       y2="70"
       gradientUnits="userSpaceOnUse"
       gradientTransform="matrix(6.6325782,0,0,6.5100595,56.462932,48.222787)">
      <stop
         offset="0"
         id="stop20" />
      <stop
         stop-opacity=".35"
         offset="1"
         id="stop22" />
    </linearGradient>
    <linearGradient
       id="0-3-36"
       x1="-22.705"
       x2="3.8789999"
       gradientUnits="userSpaceOnUse"
       gradientTransform="matrix(8.0230451,0,0,8.7063858,-190.13999,738.8969)">
      <stop
         stop-color="#d3d3d3"
         id="stop2-6-7" />
      <stop
         offset="1"
         stop-color="#fcf9f9"
         id="stop4-7-5" />
    </linearGradient>
    <linearGradient
       id="c-5-3"
       x1="32"
       x2="32"
       y1="11"
       y2="53"
       gradientTransform="matrix(7.7114267,0,0,7.3672598,7.43623,23.117746)"
       gradientUnits="userSpaceOnUse">
      <stop
         stop-color="#dcdede"
         offset="0"
         id="stop2-3-5" />
      <stop
         stop-color="#939493"
         offset="1"
         id="stop4-5-6" />
    </linearGradient>
  </defs>
  <rect
     width="436.04199"
     height="429.34799"
     rx="63.351387"
     x="38.748978"
     y="-471.39001"
     id="rect33"
     style="fill:url(#linearGradient920);fill-opacity:1;stroke-width:0.99467"
     transform="rotate(90)" />
  <path
     d="m 169.21676,74.263028 v 40.179442 l 26.53031,26.04024 -0.84748,-101.748559 c -10.99407,-0.0281 -17.79591,-0.311943 -26.524,0.149087 z m 39.79546,0 v 79.240452 l 23.21403,22.7852 4.4563,-4.37397 h -7.77272 l 0.15343,-133.275914 -20.42443,0.0639 z m 33.1629,0 V 166.5236 L 263.213,145.87433 h -1.14001 l 0.95253,-107.127058 -20.97306,0.0045 z m 33.6711,-35.47539 -0.5082,95.185012 19.89773,-19.53018 0.59451,-75.675015 z m 32.65468,35.47539 v 45.570422 l -66.89619,65.66046 7.20233,7.06928 79.59094,-78.12072 1.06951,-75.648968 c -7.42783,-0.267263 -14.94969,0.29836 -21.32927,-0.02228 z m 33.1629,0 v 45.570422 l -89.11533,87.46916 -3.74375,-3.6746 -3.74377,3.6746 -12.83735,-12.60023 -12.83736,12.60023 -3.74376,-3.6746 -3.74376,3.6746 -89.11532,-87.46916 -6.99322,-80.734602 C 112.01091,37.145273 77.230783,37.891252 59.427506,57.842443 50.797692,69.268936 41.88137,84.306079 42.312788,98.57971 c -0.503046,8.30971 -1.43012,53.89416 0.365352,55.98145 l 40.309783,31.8728 21.426547,21.03075 h 63.5925 l -49.53674,-48.62234 c -5.08196,-0.50267 -8.9505,-4.70093 -8.95132,-9.7143 -1e-5,-5.39311 4.45426,-9.76509 9.94886,-9.76509 5.49461,0 9.94888,4.37198 9.94887,9.76509 9.5e-4,0.6273 -0.0597,1.25322 -0.18108,1.86911 l 57.52967,56.46694 h 189.08154 l 49.99042,-56.08545 45.02784,-47.17303 c 0.53968,-22.188301 -4.82428,-24.600951 -7.97175,-34.438268 L 368.69632,179.4279 h -21.42654 l 57.14099,-63.10461 2.72672,-77.139574 c -12.23177,-0.879625 -23.18674,0.21567 -32.20776,-0.376164 l -0.10623,81.024658 -89.11532,87.46916 -9.37914,-9.20587 85.22863,-83.65427 0.003,-75.750904 -20.17332,-0.02756 z M 146.59059,38.636409 c -10.52982,0.348144 -7.47235,0.0066 -12.39792,0.348251 l 1.86119,75.45794 79.59094,78.12072 7.20232,-7.06928 -13.8349,-13.57933 h -13.26515 v -13.02012 l -39.79548,-39.06036 -0.0399,-81.200738 z m 7.83239,252.961321 -112.284726,85.99532 c -0.01643,5.75965 -0.124317,11.29654 -0.07047,14.23688 0.06631,3.6208 -0.204812,2.44832 -0.02359,4.45001 l 83.798696,-55.60255 v 14.01159 l -38.694478,25.32805 c 0.301782,0.92339 0.677518,1.81195 1.010407,2.721 h 23.408371 l -5.81403,91.59968 c 20.83712,1.20863 19.64074,-0.84409 42.69539,0.64864 l 5.97106,-113.27711 42.85243,-35.05536 h 21.42655 l -42.85243,35.05536 -4.04929,112.71776 c 13.10297,0.38712 17.32221,0.29733 28.45799,0.16747 l 2.12162,-69.16105 89.11531,-87.46917 3.74377,3.67459 3.74376,-3.67459 12.83735,12.60022 12.83735,-12.60022 3.74377,3.67459 3.74375,-3.67459 89.11533,87.46917 3.41408,66.93469 c 20.08978,-3.81664 38.56299,-24.96575 40.93415,-35.13204 l -109.67913,-110.0666 9.37913,-9.20588 105.23287,104.17162 c 1.79862,-14.40929 0.65418,-24.9264 0.47866,-43.56803 l -66.60585,-72.95252 h -14.27529 l -14.28857,-14.02462 h -85.92505 l 1.56748,1.53853 -82.66183,81.13487 c 0.12138,0.61588 0.18201,1.24181 0.18107,1.8691 0,5.39311 -4.45426,9.76509 -9.94887,9.76509 -5.49461,0 -9.94887,-4.37198 -9.94887,-9.76509 8.2e-4,-5.01336 3.86935,-9.21164 8.95133,-9.71431 L 274.29703,291.5916 H 154.41981 Z m 140.80964,41.10777 -79.59093,78.12071 -1.24363,64.03239 c 7.98034,0.45084 13.19598,-0.59191 19.72166,0.0694 l 1.4197,-69.49276 39.79547,-39.06036 v -13.02011 h 13.26516 l 13.8349,-13.57934 -7.20233,-7.06927 z m 33.1629,0 -7.20232,7.06928 66.89619,65.66045 -0.55126,69.03195 c 8.95055,0.15194 13.78358,-0.0822 20.48512,0.24934 l -0.0361,-63.89031 -79.59095,-78.12071 z m -16.58144,16.27514 -23.21403,22.78521 -0.86186,103.04192 c 6.66627,-0.58816 12.67733,-0.0847 19.15422,-0.0978 l 1.60538,-121.36112 h 7.77272 l -4.45629,-4.37397 z m 9.94886,9.76509 0.19765,116.24983 20.24843,-0.38395 -0.54834,-95.21987 h 1.14001 l -21.03787,-20.64927 z m -46.42805,26.04024 -26.53031,26.04024 0.006,63.98385 c 8.44376,0.52104 17.08637,0.0243 25.46471,-0.0609 z m 79.59094,6.51006 -0.0405,83.05117 12.60178,0.2258 c 7.95872,0.0541 6.08119,0.24461 7.95872,0.0541 l -0.62229,-63.80091 z"
     fill="url(#linearGradient964)"
     opacity="0.1"
     stroke-width="7.07635"
     id="path31"
     style="fill:url(#linearGradient964)"
     sodipodi:nodetypes="cccccccccccccccccccccccccccccccccccccccccccccccccccccsccccccccccccccccccccccccccccccccsccccccccccccccccccccccccccccccccccccscccccccccccccccccccccccccccccccccccccccccccccccccc" />
  <path
     d="m 161.66488,119.13549 -3.85577,14.7345 h -3.85568 v 29.22425 H 123.1077 v 3.92842 l -15.42284,3.68361 15.42284,3.68369 v 3.43887 h 30.84573 v 14.73449 H 123.1077 v 3.92841 l -15.42284,3.6836 15.42284,3.68361 v 3.43886 h 30.84573 v 14.73457 H 123.1077 v 3.92835 l -15.42284,3.68368 15.42284,3.6836 v 3.43888 h 30.84573 v 14.73449 H 123.1077 v 3.92841 l -15.42284,3.68361 15.42284,3.68368 v 3.43888 h 30.84573 v 14.7345 H 123.1077 v 3.92842 l -15.42284,3.68359 15.42284,3.68361 v 3.43887 h 30.84573 V 310.4395 H 123.1077 v 3.92836 l -15.42284,3.6836 15.42284,3.68366 v 3.43889 h 30.84573 v 14.73448 H 123.1077 v 3.92841 l -15.42284,3.68362 15.42284,3.6836 v 3.43894 h 30.84573 v 29.71374 h 3.85568 l 3.85577,14.73457 3.85568,-14.73457 h 3.85569 v -29.71374 h 15.42291 v 29.71374 h 3.8557 l 3.85568,14.73457 3.85576,-14.73457 h 3.85569 v -29.71374 h 15.42281 v 29.71374 h 3.85578 l 3.8557,14.73457 3.85569,-14.73457 h 3.85576 v -29.71374 h 15.42282 v 29.71374 h 3.8557 l 3.85567,14.73457 3.85576,-14.73457 h 3.85571 v -29.71374 h 15.4228 v 29.71374 h 3.85579 l 3.85569,14.73457 3.8557,-14.73457 h 3.85576 v -29.71374 h 15.4228 v 29.71374 h 3.8557 l 3.85578,14.73457 3.85567,-14.73457 h 3.8557 v -29.71374 h 15.4229 v 29.71374 h 3.8557 l 3.85567,14.73457 3.85577,-14.73457 h 3.8557 v -29.71374 h 30.84573 v -3.43894 l 15.42281,-3.6836 -15.42281,-3.68362 v -3.92841 h -30.84573 v -14.73448 h 30.84573 v -3.43889 l 15.42281,-3.68366 -15.42281,-3.6836 v -3.92836 h -30.84573 v -14.73456 h 30.84573 v -3.43887 l 15.42281,-3.68361 -15.42281,-3.68359 v -3.92842 h -30.84573 v -14.7345 h 30.84573 v -3.43888 l 15.42281,-3.68368 -15.42281,-3.68361 v -3.92841 h -30.84573 v -14.73449 h 30.84573 V 233.328 l 15.42281,-3.6836 -15.42281,-3.68368 v -3.92835 H 354.45052 V 207.2978 h 30.84573 v -3.43886 l 15.42281,-3.68361 -15.42281,-3.6836 v -3.92841 h -30.84573 v -14.73449 h 30.84573 v -3.43887 l 15.42281,-3.68369 -15.42281,-3.68361 v -3.92842 h -30.84573 v -29.22425 h -3.8557 l -3.85577,-14.7345 -3.85567,14.7345 h -3.8557 v 29.22425 h -15.4229 v -29.22425 h -3.8557 l -3.85567,-14.7345 -3.85578,14.7345 h -3.8557 v 29.22425 h -15.4228 v -29.22425 h -3.85576 l -3.8557,-14.7345 -3.85569,14.7345 h -3.85579 v 29.22425 h -15.4228 v -29.22425 h -3.85571 l -3.85576,-14.7345 -3.85567,14.7345 h -3.8557 v 29.22425 h -15.42282 v -29.22425 h -3.85576 l -3.85569,-14.7345 -3.8557,14.7345 h -3.85578 v 29.22425 h -15.42281 v -29.22425 h -3.85569 l -3.85576,-14.7345 -3.85568,14.7345 h -3.8557 v 29.22425 h -15.42291 v -29.22425 h -3.85569 z m 7.71137,58.69334 h 15.42291 v 14.73449 h -15.42291 z m 30.84574,0 h 15.42281 v 14.73449 h -15.42281 z m 30.84574,0 h 15.42282 v 14.73449 h -15.42282 z m 30.84566,0 h 15.4228 v 14.73449 h -15.4228 z m 30.84574,0 h 15.4228 v 14.73449 h -15.4228 z m 30.84565,0 h 15.4229 v 14.73449 h -15.4229 z M 169.37625,207.2978 h 15.42291 v 14.73457 h -15.42291 z m 30.84574,0 h 15.42281 v 14.73457 h -15.42281 z m 30.84574,0 h 15.42282 v 14.73457 h -15.42282 z m 30.84566,0 h 15.4228 v 14.73457 h -15.4228 z m 30.84574,0 h 15.4228 v 14.73457 h -15.4228 z m 30.84565,0 h 15.4229 v 14.73457 h -15.4229 z m -154.22853,29.46908 h 15.42291 v 14.73449 h -15.42291 z m 30.84574,0 h 15.42281 v 14.73449 h -15.42281 z m 30.84574,0 h 15.42282 v 14.73449 h -15.42282 z m 30.84566,0 h 15.4228 v 14.73449 h -15.4228 z m 30.84574,0 h 15.4228 v 14.73449 h -15.4228 z m 30.84565,0 h 15.4229 v 14.73449 h -15.4229 z m -154.22853,29.46907 h 15.42291 v 14.7345 h -15.42291 z m 30.84574,0 h 15.42281 v 14.7345 h -15.42281 z m 30.84574,0 h 15.42282 v 14.7345 h -15.42282 z m 30.84566,0 h 15.4228 v 14.7345 h -15.4228 z m 30.84574,0 h 15.4228 v 14.7345 h -15.4228 z m 30.84565,0 h 15.4229 v 14.7345 h -15.4229 z m -154.22853,29.46899 h 15.42291 v 14.73456 h -15.42291 z m 30.84574,0 h 15.42281 v 14.73456 h -15.42281 z m 30.84574,0 h 15.42282 v 14.73456 h -15.42282 z m 30.84566,0 h 15.4228 v 14.73456 h -15.4228 z m 30.84574,0 h 15.4228 v 14.73456 h -15.4228 z m 30.84565,0 h 15.4229 v 14.73456 h -15.4229 z m -154.22853,29.46907 h 15.42291 v 14.73448 h -15.42291 z m 30.84574,0 h 15.42281 v 14.73448 h -15.42281 z m 30.84574,0 h 15.42282 v 14.73448 h -15.42282 z m 30.84566,0 h 15.4228 v 14.73448 h -15.4228 z m 30.84574,0 h 15.4228 v 14.73448 h -15.4228 z m 30.84565,0 h 15.4229 v 14.73448 h -15.4229 z"
     fill="url(#c)"
     id="path33-2"
     style="fill:url(#c-5-3);stroke-width:7.53739" />
  <rect
     x="-372.30347"
     y="-370.03564"
     width="213.29266"
     height="231.45926"
     transform="matrix(0,-1,-1,0,0,0)"
     rx="10.662628"
     ry="14.470015"
     fill="url(#0)"
     id="rect16-9"
     style="fill:url(#0-3-36);stroke-width:8.35773" />
  <path
     d="m 324.41416,247.74548 c -6.66037,-28.77863 -69.48567,-30.59988 -109.97042,-8.67284 v 2.4229 c 40.44122,-18.50108 97.82497,-18.38884 103.04885,8.12735 1.75863,8.78524 -3.77859,17.91547 -13.72131,23.17055 v 6.87574 c 11.96261,-3.89114 24.18632,-16.47934 20.64288,-31.91567 m -73.63866,50.39278 c -27.94752,2.2946 -57.06162,-1.3158 -61.11883,-20.74757 -2.02851,-9.57151 2.89925,-19.72871 9.4029,-26.02679 v -3.37772 c -11.71873,9.14628 -18.09188,20.71555 -14.40904,34.37877 4.69272,17.53036 29.68002,27.45489 67.83144,24.14936 15.10556,-1.29172 34.91261,-5.6161 48.59031,-12.33138 v -9.53943 c -12.46749,6.61901 -33.08426,12.08269 -50.27065,13.49476 z"
     id="path18-1"
     style="fill:#6bc123;fill-opacity:1;stroke-width:8.35773" />
  <path
     d="m 304.30238,243.03599 h -7.73126 v 29.95 c 0,3.51415 1.94154,6.57888 7.73126,7.06027"
     id="path20-2"
     style="fill:#6bc123;fill-opacity:1;stroke-width:8.35773" />
  <path
     d="m 212.18886,253.97946 h -7.73128 v 19.56013 c 0,3.52215 1.94147,6.57888 7.73128,7.06028"
     id="path22-7"
     style="fill:#6bc123;fill-opacity:1;stroke-width:8.35773" />
  <path
     d="m 204.44017,243.95062 h 7.73126 v 6.37027 h -7.73126 z"
     id="path24-0"
     style="fill:#6bc123;fill-opacity:1;stroke-width:8.35773" />
  <path
     d="m 258.50677,280.28696 c -6.26858,0 -8.91534,-3.78682 -8.91534,-7.52561 v -25.97856 h 7.64427 v 7.19667 h 5.78973 v 5.38343 h -5.78973 v 12.9973 c 0,1.53243 0.84453,2.36683 2.67281,2.36683 h 3.11692 v 5.55994 h -4.52736"
     id="path26-9"
     style="fill:#6bc123;fill-opacity:1;stroke-width:8.35773" />
  <path
     d="m 278.79268,259.04197 c -2.61195,0 -4.64048,1.17941 -5.48499,2.76798 -0.50499,0.95475 -0.67913,1.68478 -0.75747,2.86418 h 11.84063 c -0.16542,-2.88023 -1.66287,-5.63216 -5.59817,-5.63216 m -6.24246,10.16522 c 0,3.40977 2.47253,5.92099 6.79965,5.92099 3.40423,0 5.09322,-0.82639 7.06086,-2.51122 l 4.72763,3.93934 c -3.03858,2.59941 -6.21642,4.17194 -11.8407,4.17194 -7.33949,0 -14.36553,-3.48195 -14.36553,-13.63113 0,-8.67291 6.12926,-13.57495 14.20009,-13.57495 8.18398,0 12.87679,5.73643 12.87679,13.27811 v 2.3989 h -19.4588"
     id="path28-3"
     style="fill:#6bc123;fill-opacity:1;stroke-width:8.35773" />
  <path
     d="m 232.99706,259.37091 c 2.24628,0 3.17786,0.96278 3.17786,2.52728 v 18.42889 h 7.67903 v -18.45295 c 0,-3.7468 -2.30722,-7.88666 -9.02853,-7.88666 h -15.82819 v 26.33961 h 7.64418 v -20.95617"
     id="path30-6"
     style="fill:#6bc123;fill-opacity:1;stroke-width:8.35773" />
</svg>
