<?xml version="1.0" encoding="UTF-8" standalone="no"?>
<svg
   xmlns:dc="http://purl.org/dc/elements/1.1/"
   xmlns:cc="http://creativecommons.org/ns#"
   xmlns:rdf="http://www.w3.org/1999/02/22-rdf-syntax-ns#"
   xmlns:svg="http://www.w3.org/2000/svg"
   xmlns="http://www.w3.org/2000/svg"
   xmlns:sodipodi="http://sodipodi.sourceforge.net/DTD/sodipodi-0.dtd"
   xmlns:inkscape="http://www.inkscape.org/namespaces/inkscape"
   fill="#000000"
   height="24"
   viewBox="0 0 24 24"
   width="24"
   id="svg2"
   version="1.1"
   inkscape:version="0.92.5 (2060ec1f9f, 2020-04-08)"
   sodipodi:docname="checkbox.svg">
  <metadata
     id="metadata12">
    <rdf:RDF>
      <cc:Work
         rdf:about="">
        <dc:format>image/svg+xml</dc:format>
        <dc:type
           rdf:resource="http://purl.org/dc/dcmitype/StillImage" />
        <dc:title />
      </cc:Work>
    </rdf:RDF>
  </metadata>
  <defs
     id="defs10" />
  <sodipodi:namedview
     pagecolor="#ffffff"
     bordercolor="#666666"
     borderopacity="1"
     objecttolerance="10"
     gridtolerance="10"
     guidetolerance="10"
     inkscape:pageopacity="0"
     inkscape:pageshadow="2"
     inkscape:window-width="1856"
     inkscape:window-height="1015"
     id="namedview8"
     showgrid="true"
     inkscape:zoom="12.050278"
     inkscape:cx="-16.528923"
     inkscape:cy="2.6870825"
     inkscape:window-x="64"
     inkscape:window-y="28"
     inkscape:window-maximized="1"
     inkscape:current-layer="svg2">
    <inkscape:grid
       type="xygrid"
       id="grid4140" />
  </sodipodi:namedview>
  <path
     d="M19 3H5c-1.11 0-2 .9-2 2v14c0 1.1.89 2 2 2h14c1.11 0 2-.9 2-2V5c0-1.1-.89-2-2-2zm-9 14l-5-5 1.41-1.41L10 14.17l7.59-7.59L19 8l-9 9z"
     id="path6"
     style="fill:#315bef;fill-opacity:1" />
  <path
     style="fill:#ff00ff;stroke-width:0.08298564"
     d="M 4.175282,20.776417 C 3.7980394,20.605039 3.3390167,20.120874 3.169785,19.715846 3.0758063,19.490924 3.056009,18.129013 3.0575102,11.992147 3.0592345,4.9430868 3.0675397,4.5236295 3.2116044,4.2095776 3.3972009,3.804989 3.7316221,3.4635823 4.1749062,3.2261538 4.5074349,3.0480473 4.5189197,3.0477442 11.802639,3.0248397 c 8.060692,-0.025348 7.872562,-0.036321 8.477088,0.49446 0.162639,0.1427995 0.377531,0.4125453 0.477537,0.5994352 l 0.181829,0.3397996 0.02584,7.2612435 c 0.01824,5.124859 -0.0014,7.387623 -0.06682,7.690789 -0.124396,0.576693 -0.486272,1.054682 -0.992802,1.311361 l -0.412946,0.209256 -7.492213,-0.0018 c -7.0674777,-0.0017 -7.5110741,-0.01042 -7.82487,-0.15297 z M 18.303827,7.2600143 17.577919,6.5341065 13.780925,10.330429 9.9839298,14.12675 8.2014494,12.342823 6.418969,10.558895 l -0.7279212,0.724548 -0.7279212,0.724549 2.5106284,2.511642 2.5106284,2.51164 4.5226756,-4.522676 4.522677,-4.5226759 z"
     id="path8"
     inkscape:connector-curvature="0" />
</svg>
