<?xml version="1.0" encoding="UTF-8" standalone="no"?>
<!-- Uploaded to: SVG Repo, www.svgrepo.com, Generator: SVG Repo Mixer Tools -->

<svg
   fill="#000000"
   width="800"
   height="800"
   viewBox="0 0 24 24"
   id="download-2-1"
   data-name="Layer 1"
   class="icon line"
   version="1.1"
   xmlns="http://www.w3.org/2000/svg"
   xmlns:svg="http://www.w3.org/2000/svg">
  <defs
     id="defs1" />
  <path
     style="color:#000000;fill:#000000;stroke-linecap:round;stroke-linejoin:round;-inkscape-stroke:none"
     d="m 9,13.25 a 0.75,0.75 0 0 0 -0.53125,0.21875 0.75,0.75 0 0 0 0,1.0625 l 3,3 a 0.750075,0.750075 0 0 0 1.0625,0 l 3,-3 a 0.75,0.75 0 0 0 0,-1.0625 0.75,0.75 0 0 0 -1.0625,0 L 12,15.9375 9.53125,13.46875 A 0.75,0.75 0 0 0 9,13.25 Z"
     id="primary" />
  <path
     style="color:#000000;fill:#000000;stroke-linecap:round;stroke-linejoin:round;-inkscape-stroke:none"
     d="M 12,2.25 A 0.75,0.75 0 0 0 11.25,3 V 17 A 0.75,0.75 0 0 0 12,17.75 0.75,0.75 0 0 0 12.75,17 V 3 A 0.75,0.75 0 0 0 12,2.25 Z m -7,7 C 4.0423861,9.25 3.25,10.042386 3.25,11 v 9 c 0,0.957614 0.7923861,1.75 1.75,1.75 h 14 c 0.957614,0 1.75,-0.792386 1.75,-1.75 V 11 C 20.75,10.042386 19.957614,9.25 19,9.25 H 16 A 0.75,0.75 0 0 0 15.25,10 0.75,0.75 0 0 0 16,10.75 h 3 c 0.146955,0 0.25,0.103045 0.25,0.25 v 9 c 0,0.146955 -0.103045,0.25 -0.25,0.25 H 5 C 4.8530455,20.25 4.75,20.146955 4.75,20 V 11 C 4.75,10.853045 4.8530455,10.75 5,10.75 H 8 A 0.75,0.75 0 0 0 8.75,10 0.75,0.75 0 0 0 8,9.25 Z"
     id="primary-2" />
</svg>
