<?xml version="1.0" encoding="UTF-8" standalone="no"?>
<!-- Uploaded to: SVG Repo, www.svgrepo.com, Generator: SVG Repo Mixer Tools -->

<svg
   width="800"
   height="800"
   viewBox="0 0 24 24"
   fill="none"
   version="1.1"
   id="svg1"
   sodipodi:docname="video-plus-symbolic.svg"
   xmlns:inkscape="http://www.inkscape.org/namespaces/inkscape"
   xmlns:sodipodi="http://sodipodi.sourceforge.net/DTD/sodipodi-0.dtd"
   xmlns="http://www.w3.org/2000/svg"
   xmlns:svg="http://www.w3.org/2000/svg">
  <defs
     id="defs1" />
  <sodipodi:namedview
     id="namedview1"
     pagecolor="#ffffff"
     bordercolor="#000000"
     borderopacity="0.25"
     inkscape:showpageshadow="2"
     inkscape:pageopacity="0.0"
     inkscape:pagecheckerboard="0"
     inkscape:deskcolor="#d1d1d1">
    <inkscape:page
       x="0"
       y="0"
       width="24"
       height="24"
       id="page2"
       margin="0"
       bleed="0" />
  </sodipodi:namedview>
  <path
     style="fill:#000000;stroke-width:1.0646;stroke-linecap:round;stroke-linejoin:round"
     d="m 5.0401948,3.6017618 c -1.3438994,0 -2.184565,-0.062939 -3.0752673,0.3909062 C 1.2877684,4.3376803 0.73799778,4.8895305 0.39298544,5.5666892 -0.0608567,6.4573849 0,7.2959659 0,8.6398774 v 6.7202596 c 0,1.343899 -0.06089444,2.182458 0.39298544,3.073189 0.34454413,0.676185 0.89587246,1.226844 1.57194206,1.571941 0.8907023,0.453867 1.7313559,0.392986 3.0752673,0.392986 h 7.9179302 c 1.343899,0 2.18453,0.06092 3.075268,-0.392986 0.67599,-0.345084 1.227399,-0.895619 1.571941,-1.571941 0.294832,-0.578576 0.237743,-1.308564 0.255752,-1.996117 l 1.411837,0.84627 c 0.951617,0.571018 1.490568,1.084015 2.547128,0.985583 0.682205,-0.06355 1.305815,-0.416779 1.711254,-0.968948 0.628128,-0.85542 0.465761,-1.580902 0.465761,-2.6906 V 9.3905004 c 0,-1.1097578 0.162488,-1.8351775 -0.465761,-2.690599 C 23.125843,6.1476243 22.502111,5.7945337 21.820051,5.730953 20.763343,5.6324395 20.22451,6.1455482 19.272923,6.7165357 L 17.861086,7.562806 C 17.843073,6.8752596 17.900146,6.1452464 17.605334,5.5666892 17.260551,4.8898409 16.709857,4.3397911 16.033393,3.9947472 15.142663,3.5408664 14.302024,3.6017618 12.958125,3.6017618 Z m 0,2.3994987 h 7.9179302 c 1.343899,0 1.849899,0.061786 1.98572,0.1309951 0.225891,0.1151007 0.408986,0.2982334 0.523981,0.5239807 0.06924,0.1358903 0.130994,0.6397416 0.130994,1.9836411 v 6.7202596 c 0,1.343899 -0.06179,1.847824 -0.130994,1.983641 -0.115007,0.225754 -0.298229,0.408975 -0.523981,0.523981 -0.135815,0.06921 -0.641821,0.130995 -1.98572,0.130995 H 5.0401948 c -1.3439114,0 -1.8498231,-0.06175 -1.9857202,-0.130995 -0.2257457,-0.114993 -0.40888,-0.29809 -0.5239807,-0.523981 -0.06921,-0.135823 -0.1309952,-0.639742 -0.1309952,-1.983641 V 8.6398774 c 0,-1.3439115 0.061748,-1.8477374 0.1309952,-1.9836411 C 2.6455821,6.4303514 2.8285897,6.2473438 3.0544746,6.1322556 3.1903717,6.063011 3.6962954,6.0012605 5.0401948,6.0012605 Z m 3.958965,1.1997494 A 1.1998046,1.1998046 0 0 0 7.7994104,8.4007592 V 10.800258 H 5.3999117 a 1.1998046,1.1998046 0 0 0 -1.1997493,1.199749 1.1998046,1.1998046 0 0 0 1.1997493,1.199749 h 2.3994987 v 2.399499 a 1.1998046,1.1998046 0 0 0 1.1997494,1.199749 1.1998046,1.1998046 0 0 0 1.1997492,-1.199749 v -2.399499 h 2.399499 a 1.1998046,1.1998046 0 0 0 1.199749,-1.199749 1.1998046,1.1998046 0 0 0 -1.199749,-1.199749 H 10.198909 V 8.4007592 A 1.1998046,1.1998046 0 0 0 8.9991598,7.2010099 Z M 21.597568,8.1200553 c -0.162725,-0.2215654 0,0.1606873 0,1.2704451 v 5.2190136 c 0,1.109698 -0.162604,1.491887 0,1.270445 0.273567,-0.02549 -0.140114,-0.08402 -1.091627,-0.654975 L 17.99832,13.719578 V 10.280436 L 20.505941,8.7750311 C 21.457484,8.2040699 21.871284,8.145573 21.597568,8.1200553 Z"
     id="path1" />
</svg>
