<?xml version="1.0" standalone="no"?>
<!DOCTYPE svg PUBLIC "-//W3C//DTD SVG 20010904//EN"
"http://www.w3.org/TR/2001/REC-SVG-20010904/DTD/svg10.dtd"
[
 <!ATTLIST svg
  xmlns:xlink CDATA #FIXED "http://www.w3.org/1999/xlink">
]>
<!-- Created with Sodipodi ("http://www.sodipodi.com/") -->
<svg
   id="svg1"
   sodipodi:version="0.28"
   width="640pt"
   height="640pt"
   sodipodi:docname="/home/tom/Pics/Cursors/yellowdot/sources/h_double_arrow.svg"
   sodipodi:docbase="/home/tom/Pics/Cursors/yellowdot/sources/"
   xmlns="http://www.w3.org/2000/svg"
   xmlns:sodipodi="http://sodipodi.sourceforge.net/DTD/sodipodi-0.dtd"
   xmlns:xlink="http://www.w3.org/1999/xlink">
  <defs
     id="defs3">
    <linearGradient
       id="linearGradient8">
      <stop
         style="stop-color:#000;stop-opacity:1;"
         offset="0"
         id="stop9" />
      <stop
         style="stop-color:#fff;stop-opacity:1;"
         offset="1"
         id="stop10" />
    </linearGradient>
    <linearGradient
       xlink:href="#linearGradient8"
       id="linearGradient11"
       x1="0.144828"
       y1="0.46803"
       x2="0.506899"
       y2="0.58904"
       gradientUnits="objectBoundingBox"
       gradientTransform="matrix(1.00002,-4.41926e-06,-1.54511e-06,0.999979,-4.26137e-09,-5.38237e-08)"
       spreadMethod="reflect" />
    <linearGradient
       xlink:href="#linearGradient8"
       id="linearGradient12" />
    <radialGradient
       xlink:href="#linearGradient8"
       id="radialGradient31"
       cx="0.5"
       cy="0.5"
       fx="0.5"
       fy="0.5"
       r="0.5"
       gradientUnits="objectBoundingBox"
       gradientTransform="translate(-1.55528e-08,6.44504e-10)"
       spreadMethod="pad" />
    <linearGradient
       x1="0.144828"
       y1="0.468030"
       x2="0.506899"
       y2="0.589040"
       xlink:href="#linearGradient8"
       id="linearGradient45" />
  </defs>
  <sodipodi:namedview
     id="base" />
  <rect
     style="font-size:12;fill:#808080;fill-opacity:0;fill-rule:evenodd;stroke:#000000;stroke-width:23.1832;stroke-opacity:0.82;"
     id="rect13"
     x="-416.533908"
     y="84.630411"
     width="62.502421"
     height="508.837001"
     ry="44.439942"
     rx="0.000000"
     transform="matrix(0.999999,-0.00140117,-0.00308282,0.999995,719.495,-41.9225)" />
  <path
     sodipodi:type="arc"
     style="font-size:12;fill:#ffc736;fill-opacity:1;fill-rule:evenodd;stroke:#000000;stroke-width:16.9862;"
     id="path15"
     d="M 295.327118 468.535828 A 62.305298 66.043625 0 1 0 170.716522,468.535828 A 62.3053 66.0436 0 1 0 295.327 468.536 L 233.021820 468.535828 z"
     sodipodi:cx="233.021820"
     sodipodi:cy="468.535828"
     sodipodi:rx="62.305298"
     sodipodi:ry="66.043625"
     transform="matrix(0.10856,-1.13539,1.07098,0.130117,-193.122,498.839)" />
  <path
     style="font-size:12;fill:#efedd3;fill-opacity:0.811765;fill-rule:evenodd;stroke:#000000;stroke-width:56.9299;stroke-linejoin:round;stroke-dashoffset:0;"
     d="M 279.439 191.109 C 265.969 197.844 79.0695 644.046 102.642 672.67 C 129.583 689.508 247.448 583.43 276.072 588.481 C 297.961 581.746 430.112 677.913 453.685 671.178 C 480.625 652.656 294.593 189.425 279.439 191.109 z "
     id="path13"
     sodipodi:nodetypes="ccccc"
     transform="matrix(0.00973706,-0.453431,0.49145,-0.00466404,290.022,422.796)" />
  <path
     style="font-size:12;fill:#efedd3;fill-opacity:0.811765;fill-rule:evenodd;stroke:#000000;stroke-width:56.9299;stroke-linejoin:round;stroke-dashoffset:0;"
     d="M 279.439 191.109 C 265.969 197.844 79.0695 644.046 102.642 672.67 C 129.583 689.508 247.448 583.43 276.072 588.481 C 297.961 581.746 430.112 677.913 453.685 671.178 C 480.625 652.656 294.593 189.425 279.439 191.109 z "
     id="path87"
     sodipodi:nodetypes="ccccc"
     transform="matrix(-0.00973706,0.453431,-0.49145,0.00466404,379.184,165.779)" />
</svg>
