<?xml version="1.0" encoding="UTF-8" standalone="no"?>
<!-- Created with Inkscape (http://www.inkscape.org/) -->

<svg
   version="1.1"
   width="100%"
   height="100%"
   viewBox="0 0 512 512"
   id="svg2"
   sodipodi:docname="applications-games.svg"
   inkscape:version="1.1 (c68e22c387, 2021-05-23)"
   xmlns:inkscape="http://www.inkscape.org/namespaces/inkscape"
   xmlns:sodipodi="http://sodipodi.sourceforge.net/DTD/sodipodi-0.dtd"
   xmlns:xlink="http://www.w3.org/1999/xlink"
   xmlns="http://www.w3.org/2000/svg"
   xmlns:svg="http://www.w3.org/2000/svg"
   xmlns:rdf="http://www.w3.org/1999/02/22-rdf-syntax-ns#"
   xmlns:cc="http://creativecommons.org/ns#"
   xmlns:dc="http://purl.org/dc/elements/1.1/">
  <sodipodi:namedview
     id="namedview35"
     pagecolor="#ffffff"
     bordercolor="#666666"
     borderopacity="1.0"
     inkscape:pageshadow="2"
     inkscape:pageopacity="0.0"
     inkscape:pagecheckerboard="0"
     showgrid="false"
     inkscape:zoom="0.45117188"
     inkscape:cx="-152.93506"
     inkscape:cy="277.05627"
     inkscape:window-width="1366"
     inkscape:window-height="700"
     inkscape:window-x="0"
     inkscape:window-y="0"
     inkscape:window-maximized="1"
     inkscape:current-layer="svg2" />
  <metadata
     id="metadata59">
    <rdf:RDF>
      <cc:Work
         rdf:about="">
        <dc:format>image/svg+xml</dc:format>
        <dc:type
           rdf:resource="http://purl.org/dc/dcmitype/StillImage" />
      </cc:Work>
    </rdf:RDF>
  </metadata>
  <defs
     id="defs4">
    <filter
       color-interpolation-filters="sRGB"
       id="7"
       x="-0.018107638"
       y="-0.017892786"
       width="1.0362153"
       height="1.0357856">
      <feGaussianBlur
         id="feGaussianBlur7"
         stdDeviation="3.7725" />
    </filter>
    <linearGradient
       y1="19.563999"
       x2="0"
       y2="504.01999"
       id="8"
       gradientUnits="userSpaceOnUse">
      <stop
         id="stop10"
         style="stop-color:#f3f3f3;stop-opacity:1"
         offset="0" />
      <stop
         id="stop12"
         style="stop-color:#eeeeee;stop-opacity:1"
         offset="0.5" />
      <stop
         id="stop14"
         style="stop-color:#ebebeb;stop-opacity:1"
         offset="1" />
    </linearGradient>
    <linearGradient
       x1="257"
       x2="362"
       id="5"
       xlink:href="#0"
       gradientUnits="userSpaceOnUse"
       gradientTransform="matrix(1.02835,0,0,1.46193,209.19,-118.25)" />
    <linearGradient
       x1="257"
       x2="362"
       id="6"
       xlink:href="#0"
       gradientUnits="userSpaceOnUse"
       gradientTransform="matrix(1.0381,0,0,1.46193,-337.29,-118.25)" />
    <linearGradient
       x1="257"
       x2="362"
       id="4"
       xlink:href="#0"
       gradientUnits="userSpaceOnUse"
       gradientTransform="matrix(1.02835,0,0,1.46193,101.22,-118.25)" />
    <linearGradient
       x1="257"
       x2="362"
       id="3"
       xlink:href="#0"
       gradientUnits="userSpaceOnUse"
       gradientTransform="matrix(1.0381,0,0,1.46193,-10.289,-118.25)" />
    <linearGradient
       id="0">
      <stop
         id="stop21"
         style="stop-color:#000000;stop-opacity:1"
         offset="0" />
      <stop
         id="stop23"
         style="stop-color:#ffffff;stop-opacity:1"
         offset="1" />
    </linearGradient>
    <linearGradient
       x1="257"
       x2="362"
       id="2"
       xlink:href="#0"
       gradientUnits="userSpaceOnUse"
       gradientTransform="matrix(1.0381,0,0,1.46193,-119.29,-118.25)" />
    <linearGradient
       x1="257"
       x2="362"
       id="1"
       xlink:href="#0"
       gradientUnits="userSpaceOnUse"
       gradientTransform="matrix(1.0381,0,0,1.46193,-228.29,-118.25)" />
    <linearGradient
       id="6-6"
       x1="403.66"
       y1="545.75"
       x2="402.64999"
       y2="517.44"
       gradientUnits="userSpaceOnUse">
      <stop
         stop-color="#dce2ff"
         id="stop17" />
      <stop
         offset="1"
         stop-color="#f8feff"
         id="stop19" />
    </linearGradient>
    <linearGradient
       id="1-7"
       x1="400.45001"
       y1="543.89001"
       x2="400.62"
       y2="532.98999"
       gradientUnits="userSpaceOnUse">
      <stop
         stop-color="#41b99b"
         id="stop42" />
      <stop
         offset="1"
         stop-color="#59ffd5"
         id="stop44" />
    </linearGradient>
    <linearGradient
       id="5-5"
       x1="400.62"
       y1="530.78003"
       x2="400.45001"
       y2="519.87"
       gradientUnits="userSpaceOnUse">
      <stop
         stop-color="#eb4646"
         id="stop7" />
      <stop
         offset="1"
         stop-color="#ff8651"
         id="stop9" />
    </linearGradient>
    <linearGradient
       id="4-3"
       x1="406.48999"
       y1="534.78998"
       x2="406.62"
       y2="528.59003"
       gradientUnits="userSpaceOnUse">
      <stop
         stop-color="#ffbc00"
         id="stop22" />
      <stop
         offset="1"
         stop-color="#ffec00"
         id="stop24" />
    </linearGradient>
    <linearGradient
       id="3-5"
       x1="394.51999"
       y1="535.15002"
       x2="394.26999"
       y2="528.96997"
       gradientUnits="userSpaceOnUse">
      <stop
         stop-color="#947ecb"
         id="stop27" />
      <stop
         offset="1"
         stop-color="#cab5ff"
         id="stop29" />
    </linearGradient>
    <linearGradient
       id="2-6"
       y1="530.78003"
       x2="0"
       y2="523.38"
       gradientUnits="userSpaceOnUse">
      <stop
         stop-color="#ec87c0"
         id="stop37" />
      <stop
         offset="1"
         stop-color="#ffc1e4"
         id="stop39" />
    </linearGradient>
    <linearGradient
       id="8-2"
       y1="541.15997"
       x2="0"
       y2="533.06"
       gradientUnits="userSpaceOnUse">
      <stop
         stop-color="#0976da"
         id="stop2" />
      <stop
         offset="1"
         stop-color="#5de5f0"
         id="stop4" />
    </linearGradient>
    <linearGradient
       id="0-9"
       x1="405.29999"
       y1="530.90997"
       x2="405.25"
       y2="523.03998"
       gradientUnits="userSpaceOnUse"
       spreadMethod="pad">
      <stop
         stop-color="#fc6e51"
         id="stop32" />
      <stop
         offset="1"
         stop-color="#ff937d"
         id="stop34" />
    </linearGradient>
    <linearGradient
       id="7-1"
       x1="405.14999"
       y1="540.40997"
       x2="404.17001"
       y2="532.98999"
       gradientUnits="userSpaceOnUse">
      <stop
         stop-color="#4fd127"
         id="stop12-2" />
      <stop
         offset="1"
         stop-color="#c6f61a"
         id="stop14-7" />
    </linearGradient>
    <linearGradient
       inkscape:collect="always"
       xlink:href="#2-6"
       id="linearGradient1498"
       x1="38.5"
       y1="256"
       x2="473.5"
       y2="256"
       gradientUnits="userSpaceOnUse"
       gradientTransform="matrix(1.0023954,0,0,0.98700701,-513.38327,4.0422386)" />
  </defs>
  <rect
     width="436.04199"
     height="429.34799"
     rx="63.351387"
     x="-474.79099"
     y="42.042"
     id="rect33"
     style="fill:url(#linearGradient1498);fill-opacity:1;stroke-width:0.994671"
     transform="rotate(-90)" />
  <g
     transform="matrix(0.98700694,0,0,1.0023954,686.21207,26.600001)"
     id="g39"
     style="fill:#ffffff">
    <path
       d="m -569.07,354.7 c -12.237,-3.248 -20.706,-12.08 -24.05,-25.1 -1.763,-6.853 -2.475,-18.697 -1.743,-28.982 1.547,-21.717 10.617,-116.06 11.535,-119.99 3.632,-15.551 11.09,-28.653 22.593,-39.703 12.12,-11.645 25.548,-18.19 43.25,-21.07 7.948,-1.297 10.958,-1.342 89.84,-1.342 78.879,0 81.89,0.045 89.84,1.342 17.684,2.885 30.812,9.242 42.931,20.789 12.871,12.262 21.537,28.622 23.81,44.944 0.875,6.285 9.657,101.2 10.626,114.85 0.744,10.481 0.045,22.269 -1.731,29.17 -3.386,13.159 -11.889,21.934 -24.358,25.14 -7.932,2.037 -15.201,0.968 -24.553,-3.609 -11.847,-5.798 -18.94,-12.309 -48.39,-44.42 l -24.12,-26.3 h -44.05 -44.05 l -24.12,26.3 c -29.447,32.11 -36.54,38.618 -48.39,44.42 -9.307,4.555 -16.987,5.658 -24.857,3.568 m 74.01,-113.58 c 15.435,-4.15 28.16,-17.1 32.16,-32.739 1.462,-5.712 1.436,-16.17 -0.055,-21.808 -4.24,-16.03 -16.824,-28.47 -33.07,-32.682 -5.132,-1.33 -16.07,-1.33 -21.2,0 -16.249,4.212 -28.84,16.656 -33.07,32.682 -1.508,5.713 -1.543,16.15 -0.074,21.808 3.317,12.769 12.218,23.797 23.632,29.28 3.428,1.647 7.869,3.313 9.868,3.702 1.999,0.389 4.229,0.844 4.956,1.012 2.369,0.547 13.13,-0.255 16.851,-1.256 m -20.824,-11.739 c -0.171,-0.465 -0.388,-5.603 -0.482,-11.418 l -0.171,-10.573 -11.234,-0.33 -11.234,-0.33 -0.185,-8.87 c -0.139,-6.653 0.027,-9 0.661,-9.407 0.465,-0.295 5.678,-0.541 11.585,-0.547 l 10.739,-0.01 V 177.13 c 0,-7.497 0.241,-11.01 0.793,-11.565 1.096,-1.096 16.482,-1.096 17.578,0 0.552,0.552 0.793,4.068 0.793,11.565 v 10.772 l 10.739,0.01 c 5.906,0.005 11.12,0.252 11.585,0.547 0.635,0.403 0.8,2.754 0.661,9.407 l -0.185,8.87 -11.234,0.33 -11.234,0.33 -0.33,11.234 -0.33,11.234 -9.1,0.184 c -6.92,0.14 -9.175,-0.018 -9.411,-0.661 m 173.34,7.32 c 8.821,-4.27 9.148,-17.65 0.554,-22.686 -3.97,-2.327 -9.426,-2.327 -13.396,0 -8.568,5.02 -8.275,18.326 0.5,22.67 3.78,1.871 8.498,1.877 12.342,0.016 m -30.429,-26.449 c 6.509,-1.639 11.169,-9.264 9.477,-15.505 -1.669,-6.156 -6.734,-10.157 -12.859,-10.157 -9.625,0 -15.848,10.169 -11.597,18.951 1.493,3.084 4.04,5.226 7.797,6.571 3,1.074 3.439,1.082 7.181,0.14 m 58.928,-1.729 c 4.24,-2.604 6.175,-6.519 5.855,-11.848 -0.203,-3.379 -0.603,-4.548 -2.262,-6.608 -2.864,-3.556 -6.486,-5.452 -10.437,-5.466 -11.886,-0.04 -17.691,13.766 -9.312,22.15 4.606,4.606 10.493,5.254 16.16,1.776 m -27.383,-27.748 c 3.638,-2.557 5.603,-6.235 5.616,-10.515 0.019,-5.885 -2.405,-9.772 -7.589,-12.172 -5.4,-2.5 -11.806,-0.787 -15.792,4.224 -2.702,3.397 -3.211,9.469 -1.135,13.539 1.498,2.937 4.828,5.833 7.798,6.783 3.191,1.021 8.198,0.183 11.1,-1.858"
       inkscape:connector-curvature="0"
       id="path41"
       style="opacity:0.2;fill:#ffffff" />
    <path
       d="m -584.07,339.7 c -12.237,-3.248 -20.706,-12.08 -24.05,-25.1 -1.763,-6.853 -2.475,-18.697 -1.743,-28.982 1.547,-21.717 10.617,-116.06 11.535,-119.99 3.632,-15.551 11.09,-28.653 22.593,-39.703 12.12,-11.645 25.548,-18.19 43.25,-21.07 7.948,-1.297 10.958,-1.342 89.84,-1.342 78.879,0 81.89,0.045 89.84,1.342 17.684,2.885 30.812,9.242 42.931,20.789 12.871,12.262 21.537,28.622 23.81,44.944 0.875,6.285 9.657,101.2 10.626,114.85 0.744,10.481 0.045,22.269 -1.731,29.17 -3.386,13.159 -11.889,21.934 -24.358,25.14 -7.932,2.037 -15.201,0.968 -24.553,-3.609 -11.847,-5.798 -18.94,-12.309 -48.39,-44.42 l -24.12,-26.3 h -44.05 -44.05 l -24.12,26.3 c -29.447,32.11 -36.54,38.618 -48.39,44.42 -9.307,4.555 -16.987,5.658 -24.857,3.568 m 74.01,-113.58 c 15.435,-4.15 28.16,-17.1 32.16,-32.739 1.462,-5.712 1.436,-16.17 -0.055,-21.808 -4.24,-16.03 -16.824,-28.47 -33.07,-32.682 -5.132,-1.33 -16.07,-1.33 -21.2,0 -16.249,4.212 -28.84,16.656 -33.07,32.682 -1.508,5.713 -1.543,16.15 -0.074,21.808 3.317,12.769 12.218,23.797 23.632,29.28 3.428,1.647 7.869,3.313 9.868,3.702 1.999,0.389 4.229,0.844 4.956,1.012 2.369,0.547 13.13,-0.255 16.851,-1.256 m -20.824,-11.739 c -0.171,-0.465 -0.388,-5.603 -0.482,-11.418 l -0.171,-10.573 -11.234,-0.33 -11.234,-0.33 -0.185,-8.87 c -0.139,-6.653 0.027,-9 0.661,-9.407 0.465,-0.295 5.678,-0.541 11.585,-0.547 l 10.739,-0.01 V 162.13 c 0,-7.497 0.241,-11.01 0.793,-11.565 1.096,-1.096 16.482,-1.096 17.578,0 0.552,0.552 0.793,4.068 0.793,11.565 v 10.772 l 10.739,0.01 c 5.906,0.005 11.12,0.252 11.585,0.547 0.635,0.403 0.8,2.754 0.661,9.407 l -0.185,8.87 -11.234,0.33 -11.234,0.33 -0.33,11.234 -0.33,11.234 -9.1,0.184 c -6.92,0.14 -9.175,-0.018 -9.411,-0.661 m 173.34,7.32 c 8.821,-4.27 9.148,-17.65 0.554,-22.686 -3.97,-2.327 -9.426,-2.327 -13.396,0 -8.568,5.02 -8.275,18.326 0.5,22.67 3.78,1.871 8.498,1.877 12.342,0.016 m -30.429,-26.449 c 6.509,-1.639 11.169,-9.264 9.477,-15.505 -1.669,-6.156 -6.734,-10.157 -12.859,-10.157 -9.625,0 -15.848,10.169 -11.597,18.951 1.493,3.084 4.04,5.226 7.797,6.571 3,1.074 3.439,1.082 7.181,0.14 m 58.928,-1.729 c 4.24,-2.604 6.175,-6.519 5.855,-11.848 -0.203,-3.379 -0.603,-4.548 -2.262,-6.608 -2.864,-3.556 -6.486,-5.452 -10.437,-5.466 -11.886,-0.04 -17.691,13.766 -9.312,22.15 4.606,4.606 10.493,5.254 16.16,1.776 m -27.383,-27.748 c 3.638,-2.557 5.603,-6.235 5.616,-10.515 0.019,-5.885 -2.405,-9.772 -7.589,-12.172 -5.4,-2.5 -11.806,-0.787 -15.792,4.224 -2.702,3.397 -3.211,9.469 -1.135,13.539 1.498,2.937 4.828,5.833 7.798,6.783 3.191,1.021 8.198,0.183 11.1,-1.858"
       inkscape:connector-curvature="0"
       id="path43"
       style="fill:#ffffff" />
  </g>
</svg>
