<?xml version="1.0" encoding="UTF-8" standalone="no"?>
<!-- Created with Inkscape (http://www.inkscape.org/) -->

<svg
   version="1.1"
   width="100%"
   height="100%"
   viewBox="0 0 512 512"
   id="svg2"
   sodipodi:docname="cheese.svg"
   inkscape:version="1.1 (c68e22c387, 2021-05-23)"
   xmlns:inkscape="http://www.inkscape.org/namespaces/inkscape"
   xmlns:sodipodi="http://sodipodi.sourceforge.net/DTD/sodipodi-0.dtd"
   xmlns:xlink="http://www.w3.org/1999/xlink"
   xmlns="http://www.w3.org/2000/svg"
   xmlns:svg="http://www.w3.org/2000/svg"
   xmlns:rdf="http://www.w3.org/1999/02/22-rdf-syntax-ns#"
   xmlns:cc="http://creativecommons.org/ns#"
   xmlns:dc="http://purl.org/dc/elements/1.1/">
  <sodipodi:namedview
     id="namedview66"
     pagecolor="#ffffff"
     bordercolor="#666666"
     borderopacity="1.0"
     inkscape:pageshadow="2"
     inkscape:pageopacity="0.0"
     inkscape:pagecheckerboard="0"
     showgrid="false"
     inkscape:zoom="0.30245388"
     inkscape:cx="-71.085218"
     inkscape:cy="366.9981"
     inkscape:window-width="1366"
     inkscape:window-height="706"
     inkscape:window-x="0"
     inkscape:window-y="0"
     inkscape:window-maximized="1"
     inkscape:current-layer="svg2" />
  <metadata
     id="metadata120">
    <rdf:RDF>
      <cc:Work
         rdf:about="">
        <dc:format>image/svg+xml</dc:format>
        <dc:type
           rdf:resource="http://purl.org/dc/dcmitype/StillImage" />
      </cc:Work>
    </rdf:RDF>
  </metadata>
  <defs
     id="defs4">
    <path
       d="m 946.44068,213.15254 a 16.271187,16.271187 0 1 1 -32.54237,0 16.271187,16.271187 0 1 1 32.54237,0"
       inkscape:connector-curvature="0"
       id="0" />
    <filter
       color-interpolation-filters="sRGB"
       id="1"
       x="-0.018107638"
       y="-0.017892786"
       width="1.0362153"
       height="1.0357856">
      <feGaussianBlur
         id="feGaussianBlur8"
         stdDeviation="3.7725" />
    </filter>
    <linearGradient
       x1="257"
       x2="362"
       id="6"
       xlink:href="#9"
       gradientUnits="userSpaceOnUse"
       gradientTransform="matrix(1.02835,0,0,1.46193,-512.02126,-90.47744)" />
    <linearGradient
       x1="257"
       x2="362"
       id="7"
       xlink:href="#9"
       gradientUnits="userSpaceOnUse"
       gradientTransform="matrix(1.0381,0,0,1.46193,-514.53026,-102.50744)" />
    <linearGradient
       x1="257"
       x2="362"
       id="8"
       xlink:href="#9"
       gradientUnits="userSpaceOnUse"
       gradientTransform="matrix(1.0381,0,0,1.46193,-585.69639,-76.884703)" />
    <linearGradient
       x1="257"
       x2="362"
       id="5"
       xlink:href="#9"
       gradientUnits="userSpaceOnUse"
       gradientTransform="matrix(1.02835,0,0,1.46193,-595.95352,-31.537671)" />
    <linearGradient
       id="9">
      <stop
         id="stop15"
         style="stop-color:#000000;stop-opacity:1"
         offset="0" />
      <stop
         id="stop17"
         style="stop-color:#ffffff;stop-opacity:1"
         offset="1" />
    </linearGradient>
    <linearGradient
       x1="257"
       x2="362"
       id="2"
       xlink:href="#9"
       gradientUnits="userSpaceOnUse"
       gradientTransform="matrix(1.0381,0,0,1.46193,-554.69126,-102.50744)" />
    <linearGradient
       x1="257"
       x2="362"
       id="4"
       xlink:href="#9"
       gradientUnits="userSpaceOnUse"
       gradientTransform="matrix(1.0381,0,0,1.46193,-554.68726,-90.487443)" />
    <linearGradient
       y1="19.563999"
       x2="0"
       y2="504.01999"
       id="3"
       gradientUnits="userSpaceOnUse">
      <stop
         id="stop22"
         style="stop-color:#f3f3f3;stop-opacity:1"
         offset="0" />
      <stop
         id="stop24"
         style="stop-color:#eeeeee;stop-opacity:1"
         offset="0.5" />
      <stop
         id="stop26"
         style="stop-color:#ebebeb;stop-opacity:1"
         offset="1" />
    </linearGradient>
    <linearGradient
       id="6-3"
       x1="403.66"
       y1="545.75"
       x2="402.64999"
       y2="517.44"
       gradientUnits="userSpaceOnUse">
      <stop
         stop-color="#dce2ff"
         id="stop17-6" />
      <stop
         offset="1"
         stop-color="#f8feff"
         id="stop19" />
    </linearGradient>
    <linearGradient
       id="1-7"
       x1="400.45001"
       y1="543.89001"
       x2="400.62"
       y2="532.98999"
       gradientUnits="userSpaceOnUse">
      <stop
         stop-color="#41b99b"
         id="stop42" />
      <stop
         offset="1"
         stop-color="#59ffd5"
         id="stop44" />
    </linearGradient>
    <linearGradient
       id="5-5"
       x1="400.62"
       y1="530.78003"
       x2="400.45001"
       y2="519.87"
       gradientUnits="userSpaceOnUse">
      <stop
         stop-color="#eb4646"
         id="stop7" />
      <stop
         offset="1"
         stop-color="#ff8651"
         id="stop9" />
    </linearGradient>
    <linearGradient
       id="4-3"
       x1="406.48999"
       y1="534.78998"
       x2="406.62"
       y2="528.59003"
       gradientUnits="userSpaceOnUse">
      <stop
         stop-color="#ffbc00"
         id="stop22-5" />
      <stop
         offset="1"
         stop-color="#ffec00"
         id="stop24-6" />
    </linearGradient>
    <linearGradient
       id="3-2"
       x1="394.51999"
       y1="535.15002"
       x2="394.26999"
       y2="528.96997"
       gradientUnits="userSpaceOnUse">
      <stop
         stop-color="#947ecb"
         id="stop27" />
      <stop
         offset="1"
         stop-color="#cab5ff"
         id="stop29" />
    </linearGradient>
    <linearGradient
       id="2-9"
       y1="530.78003"
       x2="0"
       y2="523.38"
       gradientUnits="userSpaceOnUse">
      <stop
         stop-color="#ec87c0"
         id="stop37" />
      <stop
         offset="1"
         stop-color="#ffc1e4"
         id="stop39" />
    </linearGradient>
    <linearGradient
       id="8-1"
       y1="541.15997"
       x2="0"
       y2="533.06"
       gradientUnits="userSpaceOnUse">
      <stop
         stop-color="#0976da"
         id="stop2" />
      <stop
         offset="1"
         stop-color="#5de5f0"
         id="stop4" />
    </linearGradient>
    <linearGradient
       id="0-2"
       x1="405.29999"
       y1="530.90997"
       x2="405.25"
       y2="523.03998"
       gradientUnits="userSpaceOnUse">
      <stop
         stop-color="#fc6e51"
         id="stop32" />
      <stop
         offset="1"
         stop-color="#ff937d"
         id="stop34" />
    </linearGradient>
    <linearGradient
       id="7-7"
       x1="405.14999"
       y1="540.40997"
       x2="404.17001"
       y2="532.98999"
       gradientUnits="userSpaceOnUse">
      <stop
         stop-color="#4fd127"
         id="stop12" />
      <stop
         offset="1"
         stop-color="#c6f61a"
         id="stop14" />
    </linearGradient>
    <linearGradient
       inkscape:collect="always"
       xlink:href="#0-3"
       id="linearGradient988"
       x1="38.5"
       y1="256"
       x2="473.5"
       y2="256"
       gradientUnits="userSpaceOnUse"
       gradientTransform="matrix(1.0023954,0,0,0.98700693,-513.38326,4.0422376)" />
    <linearGradient
       inkscape:collect="always"
       xlink:href="#6-3"
       id="linearGradient996"
       x1="38.5"
       y1="279.86499"
       x2="473.5"
       y2="279.86499"
       gradientUnits="userSpaceOnUse"
       gradientTransform="matrix(0.98700693,0,0,1.0023954,4.0422376,0.15682392)" />
    <linearGradient
       id="0-3"
       gradientUnits="userSpaceOnUse"
       y1="545.14001"
       x2="0"
       y2="518.14001">
      <stop
         stop-color="#a150c9"
         id="stop8" />
      <stop
         offset="1"
         stop-color="#e39aff"
         id="stop10-5" />
    </linearGradient>
  </defs>
  <rect
     width="436.04199"
     height="429.34799"
     rx="63.351383"
     x="-474.79099"
     y="42.042"
     id="rect34"
     style="fill:url(#linearGradient988);fill-opacity:1.0;stroke-width:0.994672"
     transform="rotate(-90)" />
  <path
     d="M 42.042002,165.43176 V 395.95262 H 471.39 V 165.43176 H 42.042002"
     inkscape:connector-curvature="0"
     id="path36"
     style="opacity:1;fill:url(#linearGradient996);fill-opacity:1;stroke-width:0.994672" />
  <text
     x="1265.5955"
     y="-235.30299"
     id="text42"
     style="font-size:128.541px;line-height:125%;font-family:'Gentium Book Basic';letter-spacing:0;word-spacing:0;stroke-width:0.994672"
     transform="scale(0.99229444,1.0077654)"><tspan
       x="1265.5955"
       y="-235.30299"
       id="tspan44"
       style="stroke-width:0.994672" /></text>
  <text
     x="511.41821"
     y="-1291.507"
     transform="scale(3.9818997,0.25113641)"
     id="text46"
     style="font-size:46.7036px;font-family:Arial;text-anchor:middle;stroke-width:0.994667" />
  <text
     x="1843.7683"
     y="-314.87674"
     id="text48"
     style="font-size:128.541px;line-height:125%;font-family:'Gentium Book Basic';letter-spacing:0;word-spacing:0;stroke-width:0.994672"
     transform="scale(0.99229444,1.0077654)"><tspan
       x="1843.7683"
       y="-314.87674"
       id="tspan50"
       style="stroke-width:0.994672" /></text>
  <text
     x="655.49561"
     y="-1610.8243"
     transform="scale(3.9818997,0.25113641)"
     id="text52"
     style="font-size:46.7036px;font-family:Arial;text-anchor:middle;stroke-width:0.994667" />
  <text
     x="777.89807"
     y="-495.17093"
     id="text54"
     style="font-size:128.541px;line-height:125%;font-family:'Gentium Book Basic';letter-spacing:0;word-spacing:0;stroke-width:0.994672"
     transform="scale(0.99229444,1.0077654)"><tspan
       x="777.89807"
       y="-495.17093"
       id="tspan56"
       style="stroke-width:0.994672" /></text>
  <text
     x="389.87994"
     y="-2334.3049"
     transform="scale(3.9818997,0.25113641)"
     id="text58"
     style="font-size:46.7036px;font-family:Arial;text-anchor:middle;stroke-width:0.994667" />
  <text
     x="1870.097"
     y="-710.48749"
     id="text60"
     style="font-size:128.541px;line-height:125%;font-family:'Gentium Book Basic';letter-spacing:0;word-spacing:0;stroke-width:0.994672"
     transform="scale(0.99229444,1.0077654)"><tspan
       x="1870.097"
       y="-710.48749"
       id="tspan62"
       style="stroke-width:0.994672" /></text>
  <text
     x="662.06049"
     y="-3198.3318"
     transform="scale(3.9818997,0.25113641)"
     id="text64"
     style="font-size:46.7036px;font-family:Arial;text-anchor:middle;stroke-width:0.994667" />
  <text
     x="2448.27"
     y="-790.07111"
     id="text66"
     style="font-size:128.541px;line-height:125%;font-family:'Gentium Book Basic';letter-spacing:0;word-spacing:0;stroke-width:0.994672"
     transform="scale(0.99229444,1.0077654)"><tspan
       x="2448.27"
       y="-790.07111"
       id="tspan68"
       style="stroke-width:0.994672" /></text>
  <text
     x="806.13782"
     y="-3517.6594"
     transform="scale(3.9818997,0.25113641)"
     id="text70"
     style="font-size:46.7036px;font-family:Arial;text-anchor:middle;stroke-width:0.994667" />
  <text
     x="2061.2231"
     y="-1259.9539"
     id="text72"
     style="font-size:128.541px;line-height:125%;font-family:'Gentium Book Basic';letter-spacing:0;word-spacing:0;stroke-width:0.994672"
     transform="scale(0.99229444,1.0077654)"><tspan
       x="2061.2231"
       y="-1259.9539"
       id="tspan74"
       style="stroke-width:0.994672" /></text>
  <text
     x="709.685"
     y="-5403.1978"
     transform="scale(3.9818997,0.25113641)"
     id="text76"
     style="font-size:46.7036px;font-family:Arial;text-anchor:middle;stroke-width:0.994667" />
  <text
     x="2639.3857"
     y="-1339.5276"
     id="text78"
     style="font-size:128.541px;line-height:125%;font-family:'Gentium Book Basic';letter-spacing:0;word-spacing:0;stroke-width:0.994672"
     transform="scale(0.99229444,1.0077654)"><tspan
       x="2639.3857"
       y="-1339.5276"
       id="tspan80"
       style="stroke-width:0.994672" /></text>
  <text
     x="853.76245"
     y="-5722.5161"
     transform="scale(3.9818997,0.25113641)"
     id="text82"
     style="font-size:46.7036px;font-family:Arial;text-anchor:middle;stroke-width:0.994667" />
  <text
     x="816.35217"
     y="67.657005"
     id="text84"
     style="font-size:207.221px;line-height:125%;font-family:'Gentium Book Basic';letter-spacing:0;word-spacing:0;stroke-width:0.994672"
     transform="scale(0.99229444,1.0077654)"><tspan
       x="816.35217"
       y="67.657005"
       id="tspan86"
       style="stroke-width:0.994672" /></text>
  <path
     d="m 425.0599,89.660712 c -15.88095,0 -28.75151,13.061198 -28.75151,29.189748 0,16.12853 12.87056,29.19978 28.75151,29.19978 15.88094,0 28.75152,-13.07125 28.75152,-29.19978 0,-16.12855 -12.87058,-29.189748 -28.75152,-29.189748"
     inkscape:connector-curvature="0"
     id="path88"
     style="opacity:0.2;stroke-width:0.994672" />
  <path
     d="m 411.41946,75.807608 c -15.88092,0 -28.75151,13.061204 -28.75151,29.189742 0,16.12854 12.87059,29.19979 28.75151,29.19979 15.88095,0 28.75151,-13.07125 28.75151,-29.19979 0,-16.128538 -12.87056,-29.189742 -28.75151,-29.189742"
     inkscape:connector-curvature="0"
     id="path90"
     style="fill:#dcdbdb;stroke-width:0.994672" />
  <g
     transform="matrix(0.92899063,0,0,0.94347457,11.930395,25.817144)"
     id="g92">
    <use
       transform="matrix(9.21139,0,0,9.21139,-8297.94,-1688.88)"
       id="use94"
       style="opacity:0.2"
       x="0"
       y="0"
       width="512"
       height="512"
       xlink:href="#0" />
    <use
       transform="matrix(9.21139,0,0,9.21139,-8311.37,-1702.3)"
       id="use96"
       style="fill:#dcdbdb"
       x="0"
       y="0"
       width="512"
       height="512"
       xlink:href="#0" />
    <use
       transform="matrix(7.34298,0,0,7.34298,-6560,-1290.63)"
       id="use98"
       style="opacity:0.2"
       x="0"
       y="0"
       width="512"
       height="512"
       xlink:href="#0" />
    <use
       transform="matrix(7.34298,0,0,7.34298,-6573.43,-1304.05)"
       id="use100"
       style="fill:#60636c"
       x="0"
       y="0"
       width="512"
       height="512"
       xlink:href="#0" />
    <use
       transform="matrix(4.97632,0,0,4.97632,-4358.61,-786.16)"
       id="use102"
       style="opacity:0.2"
       x="0"
       y="0"
       width="512"
       height="512"
       xlink:href="#0" />
    <use
       transform="matrix(4.97632,0,0,4.97632,-4372.03,-799.58)"
       id="use104"
       style="fill:#dcdbdb"
       x="0"
       y="0"
       width="512"
       height="512"
       xlink:href="#0" />
  </g>
  <path
     style="opacity:0.284981;fill:#ffffff;stroke-width:1.16273"
     d="m 232.48702,345.73985 c -12.41842,-3.30061 -25.17839,-10.71986 -33.96898,-19.75118 -9.31053,-9.5655 -14.49834,-17.86735 -18.84615,-30.15881 -2.66131,-7.5236 -3.04371,-10.41915 -3.06943,-23.24121 -0.032,-15.99371 1.13721,-21.4186 7.3988,-34.32624 12.99308,-26.78395 40.90007,-43.23636 70.39689,-41.5021 19.26178,1.13248 34.82715,8.19087 48.41913,21.95654 14.10814,14.28838 20.69346,29.59779 21.66712,50.37119 0.69961,14.92634 -1.03961,23.10909 -7.95815,37.4417 -8.96521,18.57254 -28.62853,34.51809 -48.40421,39.2524 -9.21002,2.20489 -27.26072,2.18346 -35.63502,-0.0424 z"
     id="path221" />
  <path
     style="opacity:0.284981;fill:#ffffff;stroke-width:1.16273"
     d="m 240.56334,346.27593 c -15.83462,-1.49593 -29.63516,-8.60907 -42.71963,-22.01886 -9.20812,-9.43704 -17.08266,-23.19915 -19.50721,-34.09217 -1.50564,-6.76453 -1.51735,-28.30985 -0.0191,-35.15249 5.22369,-23.85706 24.05018,-45.129 47.46995,-53.63602 11.00438,-3.99725 31.23335,-5.01211 42.56285,-2.13532 22.17045,5.62953 42.99968,24.09121 50.66948,44.91018 3.56285,9.67107 4.68632,16.93421 4.6992,30.38 0.0192,19.94311 -6.37107,34.93281 -21.41295,50.22912 -17.40852,17.703 -35.4715,23.99742 -61.7426,21.51556 z"
     id="path260" />
  <path
     style="opacity:0.284981;fill:#ffffff;stroke-width:1.16273"
     d="m 232.80517,344.63787 c -11.80606,-2.60528 -22.70658,-9.18999 -33.86837,-20.45895 -17.22577,-17.39115 -23.20107,-34.24104 -21.20361,-59.79252 1.43722,-18.38487 8.44105,-32.61943 22.83853,-46.41699 9.57503,-9.17607 20.5565,-15.52291 31.33841,-18.11227 9.34865,-2.24517 31.12193,-1.96554 39.22788,0.50377 11.30355,3.44343 21.17151,9.74584 31.28632,19.98184 15.60026,15.78715 20.61196,28.67532 20.54419,52.83178 -0.0374,13.34384 -0.41199,16.28125 -3.02057,23.68812 -7.81539,22.19122 -30.85275,43.1579 -52.55128,47.8277 -9.63631,2.07386 -25.06185,2.05046 -34.5915,-0.0526 z"
     id="path299" />
  <path
     style="opacity:0.284981;fill:#ffffff;stroke-width:1.16273"
     d="m 229.75158,411.35524 c -14.65993,-2.3153 -27.64416,-6.63924 -41.92159,-13.96051 -32.54721,-16.68976 -56.8939,-45.17041 -68.58379,-80.22906 -11.59637,-34.77818 -9.04083,-75.07259 6.80296,-107.26563 13.88084,-28.20451 40.10712,-53.72792 68.09691,-66.27194 51.87282,-23.24754 110.63293,-12.84145 151.76385,26.87647 56.40695,54.46918 57.52027,145.12491 2.46881,201.03469 -31.21689,31.70357 -75.62245,46.60786 -118.62715,39.81598 z m 55.23158,-15.60816 c 42.98606,-9.05773 75.91836,-41.41369 86.76675,-85.24831 2.99695,-12.10963 2.69677,-41.2719 -0.54879,-53.31443 -3.5082,-13.01698 -8.732,-24.77286 -15.77762,-35.50666 -8.63223,-13.15091 -34.00215,-38.20817 -46.65245,-46.07747 -36.43201,-22.66307 -83.92412,-21.9747 -119.41711,1.73087 -10.77709,7.19795 -25.59231,22.24867 -32.32739,32.8413 -23.24926,36.56526 -23.86985,84.18168 -1.57887,121.14168 8.14467,13.50442 32.455,38.68124 46.35789,48.01026 24.23256,16.26034 55.06137,22.34723 83.17759,16.42276 z"
     id="path338" />
  <path
     style="opacity:0.284981;fill:#ffffff;stroke-width:1.16273"
     d="m 225.50832,410.21444 c -34.57678,-6.36068 -69.93245,-29.85367 -88.97021,-59.11854 -15.3355,-23.57375 -22.17088,-44.26645 -23.64342,-71.5755 -2.26142,-41.93897 12.56427,-79.54126 42.83468,-108.64148 41.80973,-40.19344 100.81503,-50.24748 152.51854,-25.98796 26.34834,12.36276 51.26411,36.57854 64.77718,62.95734 31.52753,61.54473 13.00178,138.48932 -43.01628,178.66325 -16.21757,11.63059 -36.88645,20.44444 -55.79708,23.7936 -11.99775,2.12485 -36.91182,2.07846 -48.70341,-0.0908 z m 58.52981,-14.08716 c 42.38931,-8.89225 75.27647,-39.97633 87.1981,-82.41734 2.12185,-7.55384 2.49948,-11.90763 2.49948,-28.81793 0,-23.1401 -1.70495,-31.32907 -10.2463,-49.21348 -6.65643,-13.93759 -13.55408,-22.87674 -30.76991,-39.87686 -19.99742,-19.74684 -32.75528,-27.65115 -54.08261,-33.50765 -8.31068,-2.28214 -12.62201,-2.69285 -28.26658,-2.69285 -15.54003,0 -20.01152,0.42062 -28.26714,2.65901 -35.97759,9.75472 -66.16207,38.52089 -77.30665,73.67414 -4.70774,14.84961 -6.12255,25.50383 -5.48864,41.33231 0.84237,21.03399 6.467,39.2306 17.57979,56.87355 4.99617,7.932 29.13727,33.45623 38.88202,41.10964 12.51469,9.82893 28.29077,16.98758 46.06811,20.90413 10.17494,2.24168 31.45128,2.22822 42.20033,-0.0268 z"
     id="path377" />
  <path
     style="opacity:0.284981;fill:#ffffff;stroke-width:1.16273"
     d="M 233.64077,410.776 C 205.017,408.07876 172.03078,390.9507 149.95935,367.32453 117.81903,332.92021 105.51674,282.36414 117.7821,235.09266 c 7.99169,-30.8005 29.29917,-60.37308 57.01684,-79.13347 28.86146,-19.53458 62.03635,-27.33889 94.60845,-22.25642 30.87969,4.81842 55.20506,17.17873 77.31792,39.28716 20.73746,20.7333 34.30818,46.60814 39.33147,74.99198 2.23997,12.65686 1.96545,38.1831 -0.54188,50.38524 -6.08188,29.59841 -19.80015,54.89545 -40.7278,75.10381 -11.5117,11.11607 -20.49289,17.34485 -35.42478,24.56836 -24.43762,11.82206 -46.33705,15.50563 -75.72155,12.73668 z m 57.68807,-16.03017 c 25.18463,-7.7482 46.03541,-21.99321 60.96445,-41.65032 6.46735,-8.51553 14.38982,-24.1945 18.18058,-35.98037 3.01878,-9.38561 3.20387,-11.17595 3.2102,-31.05138 0.008,-24.67661 -1.29516,-31.64141 -9.01682,-48.19617 -7.06705,-15.15128 -10.63558,-20.03971 -27.11945,-37.15007 -21.8004,-22.62898 -34.34918,-31.09194 -56.11697,-37.84561 -9.47108,-2.9385 -11.90475,-3.19935 -30.48363,-3.26738 -25.89782,-0.0949 -36.11826,2.52586 -57.34549,14.70429 -12.47756,7.15857 -31.63252,26.42811 -38.87396,39.10646 -11.91829,20.86669 -16.31165,38.95114 -15.37154,63.27449 0.87278,22.58202 6.85293,41.82065 18.30584,58.89147 5.33566,7.9529 32.60966,35.94712 40.789,41.86608 12.42403,8.99063 30.24021,16.68796 44.60893,19.27289 10.46113,1.88196 39.60966,0.68966 48.26886,-1.97438 z"
     id="path416" />
  <path
     style="opacity:0.284981;fill:#ffffff;stroke-width:1.16273"
     d="m 225.69523,409.533 c -8.72862,-1.47212 -25.0564,-7.19944 -34.98765,-12.27266 -41.31231,-21.10377 -67.60217,-56.92208 -75.47889,-102.83532 -2.72337,-15.87454 -1.66057,-41.96859 2.34499,-57.57474 11.15961,-43.47883 45.94861,-81.38441 88.56803,-96.50242 16.28127,-5.77531 26.38684,-7.5169 43.65173,-7.52291 30.91962,-0.01 58.45909,9.22194 82.57341,27.68303 8.98098,6.87555 24.07677,22.80238 30.88431,32.58456 11.02935,15.84877 19.74035,37.441 22.71668,56.30852 2.30454,14.60905 0.88896,44.65223 -2.72129,57.75422 -10.96496,39.79291 -35.6176,70.9441 -69.99623,88.44759 -23.53279,11.98146 -37.64463,15.32098 -63.87277,15.11529 -9.60708,-0.0754 -20.26412,-0.60866 -23.68232,-1.18516 z m 58.71104,-13.22701 c 19.23235,-3.50748 40.06013,-14.67175 55.73547,-29.87574 14.3759,-13.9436 23.38897,-28.4342 30.46766,-48.98374 2.99767,-8.70238 3.1405,-10.13778 3.12214,-31.38275 -0.0224,-25.78232 -1.0678,-31.32586 -9.12139,-48.36302 -7.15435,-15.13481 -10.59918,-19.87712 -26.48806,-36.46461 -21.82858,-22.78832 -36.2885,-32.53536 -57.75398,-38.93041 -8.19576,-2.44169 -11.55736,-2.74726 -29.9978,-2.72674 -23.93758,0.0267 -31.7252,1.65116 -48.21044,10.05692 -12.67653,6.46371 -18.08253,10.36599 -28.91226,20.87005 -15.07085,14.61762 -24.46613,30.16572 -30.27872,50.10762 -4.07466,13.9794 -5.08735,37.2239 -2.27992,52.33119 2.469,13.28611 7.45124,27.1257 13.46812,37.41151 5.58819,9.55295 33.77792,39.53502 44.29396,47.11022 11.7211,8.44324 27.75149,15.68595 41.5354,18.76614 9.07138,2.02714 33.48587,2.06746 44.41982,0.0735 z"
     id="path455" />
  <path
     style="opacity:0.284981;fill:#ffffff;stroke-width:1.16273"
     d="m 237.67894,345.18945 c -14.81336,-1.97356 -26.82752,-9.02458 -40.65497,-23.86008 -9.57551,-10.27359 -15.3229,-20.24811 -17.61998,-30.57924 -1.90941,-8.58758 -1.5891,-30.33196 0.568,-38.55906 5.55385,-21.18215 23.82268,-41.34673 45.42422,-50.13783 5.81702,-2.36733 8.48892,-2.65095 24.9741,-2.65095 16.4852,0 19.1571,0.28362 24.97412,2.65095 9.62663,3.91773 19.07566,10.56222 27.52203,19.35334 9.68108,10.0762 15.54202,19.98754 17.81132,30.12044 2.42796,10.84137 2.40851,33.77165 -0.036,42.2334 -7.17562,24.84034 -33.59098,48.19865 -58.16945,51.43747 -9.86319,1.29973 -14.9877,1.29799 -24.79355,-0.008 z"
     id="path494" />
  <path
     style="opacity:0.284981;fill:#ffffff;stroke-width:1.16273"
     d="m 398.82293,130.09991 c -20.20272,-10.22441 -20.29784,-39.918008 -0.16108,-50.281179 14.52236,-7.473772 32.59503,-0.741957 38.85457,14.472761 2.1666,5.26628 2.10023,16.007478 -0.13248,21.434388 -6.24214,15.1725 -23.94457,21.77128 -38.56101,14.37403 z"
     id="path533" />
  <path
     style="opacity:0.284981;fill:#ffffff;stroke-width:1.16273"
     d="m 405.07737,131.8654 c -10.25787,-2.50105 -17.98771,-10.64081 -20.36952,-21.44982 -2.57134,-11.669128 3.52247,-24.507098 14.38847,-30.312521 6.16642,-3.294577 17.92205,-3.487277 23.76134,-0.389523 4.97157,2.637434 11.22231,8.504346 13.25501,12.441096 2.49895,4.83968 3.26625,13.459468 1.76413,19.818548 -3.29322,13.94179 -18.75199,23.31723 -32.79943,19.89222 z"
     id="path572" />
  <path
     style="opacity:0.284981;fill:#ffffff;stroke-width:1.16273"
     d="m 400.35932,129.75253 c -17.3331,-8.16764 -20.93859,-31.174348 -7.03463,-44.888218 8.37372,-8.259271 23.66676,-9.196979 33.46344,-2.051839 8.04703,5.869029 11.06842,11.753249 11.06842,21.555947 0,8.97217 -1.94484,14.17242 -7.35543,19.66736 -7.62982,7.74878 -20.60647,10.20995 -30.1418,5.71675 z"
     id="path611" />
  <path
     style="opacity:0.284981;fill:#ffffff;stroke-width:1.16273"
     d="m 402.73354,130.30021 c -11.99331,-4.52344 -19.17182,-16.19921 -17.51362,-28.48571 3.053,-22.62141 28.55524,-31.491433 44.72559,-15.556178 12.90551,12.71786 9.7495,34.079178 -6.26052,42.374228 -6.03074,3.12463 -15.16155,3.85142 -20.95145,1.66766 z"
     id="path650" />
  <path
     style="opacity:0.284981;fill:#ffffff;stroke-width:1.16273"
     d="m 399.96352,128.82346 c -9.23965,-4.62355 -14.34272,-13.14326 -14.38493,-24.01604 -0.084,-21.653268 23.45616,-33.786454 40.87694,-21.068928 11.87661,8.67016 14.5657,23.920438 6.38378,36.203508 -5.03967,7.56576 -11.57304,10.87275 -21.41229,10.83824 -4.68424,-0.0163 -9.08822,-0.76817 -11.4635,-1.95678 z"
     id="path689" />
</svg>
