<?xml version="1.0" encoding="UTF-8" standalone="no"?>
<!-- Created with Inkscape (http://www.inkscape.org/) -->

<svg
   version="1.1"
   width="100%"
   height="100%"
   viewBox="0 0 512 512"
   id="svg2"
   sodipodi:docname="distributor-logo-fedora.svg"
   inkscape:version="1.1 (c68e22c387, 2021-05-23)"
   xmlns:inkscape="http://www.inkscape.org/namespaces/inkscape"
   xmlns:sodipodi="http://sodipodi.sourceforge.net/DTD/sodipodi-0.dtd"
   xmlns:xlink="http://www.w3.org/1999/xlink"
   xmlns="http://www.w3.org/2000/svg"
   xmlns:svg="http://www.w3.org/2000/svg"
   xmlns:rdf="http://www.w3.org/1999/02/22-rdf-syntax-ns#"
   xmlns:cc="http://creativecommons.org/ns#"
   xmlns:dc="http://purl.org/dc/elements/1.1/">
  <sodipodi:namedview
     id="namedview53"
     pagecolor="#ffffff"
     bordercolor="#666666"
     borderopacity="1.0"
     inkscape:pageshadow="2"
     inkscape:pageopacity="0.0"
     inkscape:pagecheckerboard="0"
     showgrid="false"
     inkscape:zoom="0.85546875"
     inkscape:cx="256"
     inkscape:cy="256"
     inkscape:window-width="1366"
     inkscape:window-height="700"
     inkscape:window-x="0"
     inkscape:window-y="0"
     inkscape:window-maximized="1"
     inkscape:current-layer="svg2" />
  <metadata
     id="metadata75">
    <rdf:RDF>
      <cc:Work
         rdf:about="">
        <dc:format>image/svg+xml</dc:format>
        <dc:type
           rdf:resource="http://purl.org/dc/dcmitype/StillImage" />
      </cc:Work>
    </rdf:RDF>
  </metadata>
  <defs
     id="defs73">
    <linearGradient
       x1="257"
       y1="256"
       x2="362"
       y2="256"
       id="linearGradient3153"
       xlink:href="#linearGradient4996-3"
       gradientUnits="userSpaceOnUse"
       gradientTransform="matrix(1.0380952,0,0,1.4619252,-337.28943,-118.25286)" />
    <linearGradient
       x1="257"
       y1="256"
       x2="362"
       y2="256"
       id="linearGradient3149"
       xlink:href="#linearGradient4996-3"
       gradientUnits="userSpaceOnUse"
       gradientTransform="matrix(1.0283468,0,0,1.4619252,209.19233,-118.25286)" />
    <linearGradient
       x1="257"
       y1="256"
       x2="362"
       y2="256"
       id="linearGradient3145"
       xlink:href="#linearGradient4996-3"
       gradientUnits="userSpaceOnUse"
       gradientTransform="matrix(1.0283468,0,0,1.4619252,101.21591,-118.25286)" />
    <linearGradient
       x1="257"
       y1="256"
       x2="362"
       y2="256"
       id="linearGradient3141"
       xlink:href="#linearGradient4996-3"
       gradientUnits="userSpaceOnUse"
       gradientTransform="matrix(1.0380952,0,0,1.4619252,-10.28943,-118.25286)" />
    <linearGradient
       x1="257"
       y1="256"
       x2="362"
       y2="256"
       id="linearGradient3137"
       xlink:href="#linearGradient4996-3"
       gradientUnits="userSpaceOnUse"
       gradientTransform="matrix(1.0380952,0,0,1.4619252,-119.28943,-118.25286)" />
    <linearGradient
       x1="257"
       y1="256"
       x2="362"
       y2="256"
       id="linearGradient3108"
       xlink:href="#linearGradient4996-3"
       gradientUnits="userSpaceOnUse"
       gradientTransform="matrix(1.0380952,0,0,1.4619252,-228.28943,-118.25286)" />
    <linearGradient
       id="linearGradient4996-3">
      <stop
         id="stop4998-1"
         style="stop-color:#000000;stop-opacity:1"
         offset="0" />
      <stop
         id="stop5000-2"
         style="stop-color:#ffffff;stop-opacity:1"
         offset="1" />
    </linearGradient>
    <radialGradient
       id="radialGradient5521-1"
       cx="10.255"
       cy="9.9089003"
       r="12.672"
       fx="9.7251997"
       gradientTransform="matrix(0,2.5253,-4.9716,0,632.40099,221.1157)"
       gradientUnits="userSpaceOnUse">
      <stop
         stop-color="#6e95e3"
         offset="0"
         id="stop2" />
      <stop
         stop-color="#223459"
         offset="1"
         id="stop4" />
    </radialGradient>
    <linearGradient
       inkscape:collect="always"
       xlink:href="#radialGradient5521-1"
       id="linearGradient1024"
       x1="38.500011"
       y1="253"
       x2="473.49997"
       y2="253"
       gradientUnits="userSpaceOnUse"
       gradientTransform="matrix(1.0023954,0,0,0.98700687,0.1567432,-506.42872)" />
  </defs>
  <text
     x="729.82574"
     y="233.26674"
     id="text19"
     style="font-size:128.542px;line-height:125%;font-family:'Gentium Book Basic';letter-spacing:0;word-spacing:0;stroke-width:0.99467"
     transform="scale(0.99229441,1.0077654)"><tspan
       x="729.82574"
       y="233.26674"
       id="tspan21"
       style="stroke-width:0.99467" /></text>
  <text
     x="377.90424"
     y="588.75903"
     transform="scale(3.9818995,0.25113643)"
     id="text23"
     style="font-size:46.7036px;font-family:Arial;text-anchor:middle;stroke-width:0.994666" />
  <text
     x="1307.9984"
     y="153.69304"
     id="text25"
     style="font-size:128.542px;line-height:125%;font-family:'Gentium Book Basic';letter-spacing:0;word-spacing:0;stroke-width:0.99467"
     transform="scale(0.99229441,1.0077654)"><tspan
       x="1307.9984"
       y="153.69304"
       id="tspan27"
       style="stroke-width:0.99467" /></text>
  <text
     x="521.98163"
     y="269.44135"
     transform="scale(3.9818995,0.25113643)"
     id="text29"
     style="font-size:46.7036px;font-family:Arial;text-anchor:middle;stroke-width:0.994666" />
  <text
     x="242.12834"
     y="-26.602089"
     id="text31"
     style="font-size:128.542px;line-height:125%;font-family:'Gentium Book Basic';letter-spacing:0;word-spacing:0;stroke-width:0.99467"
     transform="scale(0.99229441,1.0077654)"><tspan
       x="242.12834"
       y="-26.602089"
       id="tspan33"
       style="stroke-width:0.99467" /></text>
  <text
     x="256.36591"
     y="-454.03915"
     transform="scale(3.9818995,0.25113643)"
     id="text35"
     style="font-size:46.7036px;font-family:Arial;text-anchor:middle;stroke-width:0.994666" />
  <text
     x="1334.3273"
     y="-241.91762"
     id="text37"
     style="font-size:128.542px;line-height:125%;font-family:'Gentium Book Basic';letter-spacing:0;word-spacing:0;stroke-width:0.99467"
     transform="scale(0.99229441,1.0077654)"><tspan
       x="1334.3273"
       y="-241.91762"
       id="tspan39"
       style="stroke-width:0.99467" /></text>
  <text
     x="528.54639"
     y="-1318.076"
     transform="scale(3.9818995,0.25113643)"
     id="text41"
     style="font-size:46.7036px;font-family:Arial;text-anchor:middle;stroke-width:0.994666" />
  <text
     x="1912.4999"
     y="-321.50128"
     id="text43"
     style="font-size:128.542px;line-height:125%;font-family:'Gentium Book Basic';letter-spacing:0;word-spacing:0;stroke-width:0.99467"
     transform="scale(0.99229441,1.0077654)"><tspan
       x="1912.4999"
       y="-321.50128"
       id="tspan45"
       style="stroke-width:0.99467" /></text>
  <text
     x="672.6239"
     y="-1637.4036"
     transform="scale(3.9818995,0.25113643)"
     id="text47"
     style="font-size:46.7036px;font-family:Arial;text-anchor:middle;stroke-width:0.994666" />
  <text
     x="1525.4535"
     y="-791.38403"
     id="text49"
     style="font-size:128.542px;line-height:125%;font-family:'Gentium Book Basic';letter-spacing:0;word-spacing:0;stroke-width:0.99467"
     transform="scale(0.99229441,1.0077654)"><tspan
       x="1525.4535"
       y="-791.38403"
       id="tspan51"
       style="stroke-width:0.99467" /></text>
  <text
     x="576.17102"
     y="-3522.9531"
     transform="scale(3.9818995,0.25113643)"
     id="text53"
     style="font-size:46.7036px;font-family:Arial;text-anchor:middle;stroke-width:0.994666" />
  <text
     x="2103.616"
     y="-870.95776"
     id="text55"
     style="font-size:128.542px;line-height:125%;font-family:'Gentium Book Basic';letter-spacing:0;word-spacing:0;stroke-width:0.99467"
     transform="scale(0.99229441,1.0077654)"><tspan
       x="2103.616"
       y="-870.95776"
       id="tspan57"
       style="stroke-width:0.99467" /></text>
  <text
     x="720.24847"
     y="-3842.271"
     transform="scale(3.9818995,0.25113643)"
     id="text59"
     style="font-size:46.7036px;font-family:Arial;text-anchor:middle;stroke-width:0.994666" />
  <text
     x="280.58231"
     y="536.22382"
     id="text61"
     style="font-size:207.221px;line-height:125%;font-family:'Gentium Book Basic';letter-spacing:0;word-spacing:0;stroke-width:0.99467"
     transform="scale(0.99229441,1.0077654)"><tspan
       x="280.58231"
       y="536.22382"
       id="tspan63"
       style="stroke-width:0.99467" /></text>
  <rect
     width="436.04199"
     height="429.34799"
     rx="63.351723"
     ry="62.379162"
     x="38.749001"
     y="-471.38998"
     id="rect4981-0"
     style="fill:url(#linearGradient1024);fill-opacity:1;stroke:none;stroke-width:0.99467"
     transform="rotate(90)" />
  <g
     transform="matrix(0.98700692,0,0,1.0023955,-919.83192,3.2000264)"
     id="g3329">
    <path
       d="m 1119.5275,226.26108 c -52.1175,0 -94.852,42.7693 -94.852,94.88685 0,52.11759 42.7333,94.85207 94.852,94.85207 52.1176,0 94.8521,-42.73332 94.8521,-94.85207 v -72.68275 -22.19249 h -22.1577 -72.6828 m 0,44.39659 h 50.4903 v 50.49027 c 0,28.11205 -22.3782,50.49027 -50.4903,50.49027 -28.112,0 -50.4902,-22.37822 -50.4902,-50.49027 0,-28.11206 22.3782,-50.49027 50.4902,-50.49027"
       inkscape:connector-curvature="0"
       id="0"
       style="color:#000000;fill:#ffffff;fill-opacity:0.314" />
    <use
       transform="rotate(180,1192.0362,248.53482)"
       id="use65"
       style="fill:#ffffff;stroke:none"
       x="0"
       y="0"
       width="1"
       height="1"
       xlink:href="#0" />
    <path
       d="m 1279.5101,96 c -52.4055,0 -94.8869,42.47798 -94.8869,94.88689 v 50.45541 h -39.7538 c -12.3928,0 -22.3853,9.7545 -22.3795,22.12288 0,12.29408 9.9008,22.05323 22.1577,22.05323 h 32.8988 c 3.9069,0 7.0732,3.17333 7.0732,7.07327 v 43.52608 c -0.049,27.63151 -22.4594,50.01438 -50.0956,50.01438 -9.3551,0 -11.6766,-1.23381 -18.0639,-1.23381 -13.4246,0 -22.3793,8.99191 -22.3793,21.36375 0,10.23503 8.7458,19.02729 19.4776,21.83619 7.3599,1.92442 13.0137,2.82977 20.9622,2.82977 52.4054,0 94.9216,-42.47799 94.9216,-94.88687 v -50.45545 h 39.7191 c 12.3927,0 22.421,-9.75449 22.4164,-22.12286 0,-12.29409 -9.9007,-22.05323 -22.1576,-22.05323 h -32.9347 c -3.907,0 -7.0733,-3.17334 -7.0733,-7.07326 v -43.52609 c 0.049,-27.63153 22.4594,-50.01438 50.0956,-50.01438 9.3551,0 11.6765,1.23381 18.0638,1.23381 13.4246,0 22.4165,-8.99192 22.4165,-21.36375 0,-10.23504 -8.7819,-19.06327 -19.5149,-21.872156 -7.3599,-1.924444 -13.0136,-2.792643 -20.9619,-2.792643"
       inkscape:connector-curvature="0"
       id="path3327"
       style="opacity:0.2;fill:#000000;fill-opacity:1" />
    <path
       d="m 1264.5101,81 c -52.4055,0 -94.8869,42.47798 -94.8869,94.88689 v 50.45541 h -39.7538 c -12.3928,0 -22.3853,9.7545 -22.3795,22.12288 0,12.29408 9.9008,22.05323 22.1577,22.05323 h 32.8988 c 3.9069,0 7.0732,3.17333 7.0732,7.07327 v 43.52608 c -0.049,27.63151 -22.4594,50.01438 -50.0956,50.01438 -9.3551,0 -11.6766,-1.23381 -18.0639,-1.23381 -13.4246,0 -22.3793,8.99191 -22.3793,21.36375 0,10.23503 8.7458,19.02729 19.4776,21.83619 7.3599,1.92442 13.0137,2.82977 20.9622,2.82977 52.4054,0 94.9216,-42.47799 94.9216,-94.88687 v -50.45545 h 39.7191 c 12.3927,0 22.421,-9.75449 22.4164,-22.12286 0,-12.29409 -9.9007,-22.05323 -22.1576,-22.05323 h -32.9347 c -3.907,0 -7.0733,-3.17334 -7.0733,-7.07326 v -43.52609 c 0.049,-27.63153 22.4594,-50.01438 50.0956,-50.01438 9.3551,0 11.6765,1.23381 18.0638,1.23381 13.4246,0 22.4165,-8.99192 22.4165,-21.36375 0,-10.235039 -8.7819,-19.063273 -19.5149,-21.872156 -7.3599,-1.924444 -13.0136,-2.792643 -20.9619,-2.792643"
       inkscape:connector-curvature="0"
       id="path69"
       style="fill:#ffffff;fill-opacity:1" />
  </g>
</svg>
