<?xml version="1.0" encoding="UTF-8" standalone="no"?>
<!-- Created with Inkscape (http://www.inkscape.org/) -->

<svg
   version="1.1"
   width="100%"
   height="100%"
   viewBox="0 0 512 512"
   id="svg2"
   sodipodi:docname="dropbox.svg"
   inkscape:version="1.1 (c68e22c387, 2021-05-23)"
   xmlns:inkscape="http://www.inkscape.org/namespaces/inkscape"
   xmlns:sodipodi="http://sodipodi.sourceforge.net/DTD/sodipodi-0.dtd"
   xmlns:xlink="http://www.w3.org/1999/xlink"
   xmlns="http://www.w3.org/2000/svg"
   xmlns:svg="http://www.w3.org/2000/svg"
   xmlns:rdf="http://www.w3.org/1999/02/22-rdf-syntax-ns#"
   xmlns:cc="http://creativecommons.org/ns#"
   xmlns:dc="http://purl.org/dc/elements/1.1/">
  <sodipodi:namedview
     id="namedview61"
     pagecolor="#ffffff"
     bordercolor="#666666"
     borderopacity="1.0"
     inkscape:pageshadow="2"
     inkscape:pageopacity="0.0"
     inkscape:pagecheckerboard="0"
     showgrid="false"
     inkscape:zoom="0.85546876"
     inkscape:cx="112.21918"
     inkscape:cy="254.83105"
     inkscape:window-width="1366"
     inkscape:window-height="700"
     inkscape:window-x="0"
     inkscape:window-y="0"
     inkscape:window-maximized="1"
     inkscape:current-layer="svg2" />
  <metadata
     id="metadata111">
    <rdf:RDF>
      <cc:Work
         rdf:about="">
        <dc:format>image/svg+xml</dc:format>
        <dc:type
           rdf:resource="http://purl.org/dc/dcmitype/StillImage" />
      </cc:Work>
    </rdf:RDF>
  </metadata>
  <defs
     id="defs4">
    <filter
       color-interpolation-filters="sRGB"
       id="7"
       x="-0.018107638"
       y="-0.017892786"
       width="1.0362153"
       height="1.0357856">
      <feGaussianBlur
         id="feGaussianBlur7"
         stdDeviation="3.7725" />
    </filter>
    <linearGradient
       y1="19.563999"
       x2="0"
       y2="504.01999"
       id="8"
       gradientUnits="userSpaceOnUse">
      <stop
         id="stop10"
         style="stop-color:#f3f3f3;stop-opacity:1"
         offset="0" />
      <stop
         id="stop12"
         style="stop-color:#eeeeee;stop-opacity:1"
         offset="0.5" />
      <stop
         id="stop14"
         style="stop-color:#ebebeb;stop-opacity:1"
         offset="1" />
    </linearGradient>
    <linearGradient
       x1="257"
       x2="362"
       id="5"
       xlink:href="#0"
       gradientUnits="userSpaceOnUse"
       gradientTransform="matrix(1.02835,0,0,1.46193,-422.07112,-118.25)" />
    <linearGradient
       x1="257"
       x2="362"
       id="6"
       xlink:href="#0"
       gradientUnits="userSpaceOnUse"
       gradientTransform="matrix(1.0381,0,0,1.46193,-464.73712,-118.25)" />
    <linearGradient
       x1="257"
       x2="362"
       id="4"
       xlink:href="#0"
       gradientUnits="userSpaceOnUse"
       gradientTransform="matrix(1.02835,0,0,1.46193,-530.04512,-118.24)" />
    <linearGradient
       x1="257"
       x2="362"
       id="3"
       xlink:href="#0"
       gradientUnits="userSpaceOnUse"
       gradientTransform="matrix(1.0381,0,0,1.46193,-424.58012,-106.21)" />
    <linearGradient
       id="0">
      <stop
         id="stop21"
         style="stop-color:#000000;stop-opacity:1"
         offset="0" />
      <stop
         id="stop23"
         style="stop-color:#ffffff;stop-opacity:1"
         offset="1" />
    </linearGradient>
    <linearGradient
       x1="257"
       x2="362"
       id="2"
       xlink:href="#0"
       gradientUnits="userSpaceOnUse"
       gradientTransform="matrix(1.0381,0,0,1.46193,-424.58112,-106.21)" />
    <linearGradient
       x1="257"
       x2="362"
       id="1"
       xlink:href="#0"
       gradientUnits="userSpaceOnUse"
       gradientTransform="matrix(1.0381,0,0,1.46193,-464.74112,-106.21)" />
    <linearGradient
       id="0-3"
       x1="-10.767"
       y1="4.6750002"
       x2="-11.233"
       y2="-22.851"
       gradientUnits="userSpaceOnUse"
       gradientTransform="matrix(1.77384,0,0,1.71427,42.46,39.38)">
      <stop
         stop-color="#155bc2"
         id="stop14-6" />
      <stop
         stop-color="#369dff"
         offset="1"
         id="stop16" />
    </linearGradient>
    <linearGradient
       inkscape:collect="always"
       xlink:href="#0-3"
       id="linearGradient5975"
       x1="38.5"
       y1="256"
       x2="473.5"
       y2="256"
       gradientUnits="userSpaceOnUse"
       gradientTransform="matrix(1.0023953,0,0,0.98700701,-513.38326,4.0422301)" />
  </defs>
  <rect
     width="436.04199"
     height="429.34799"
     rx="63.351391"
     x="-474.79099"
     y="42.042"
     id="rect33"
     style="fill:url(#linearGradient5975);fill-opacity:1;stroke-width:0.994672"
     transform="rotate(-90)" />
  <text
     x="-1964.5702"
     y="443.36133"
     id="text39"
     style="font-size:207.22px;line-height:125%;font-family:'Gentium Book Basic';letter-spacing:0;word-spacing:0;stroke-width:0.994672"
     transform="scale(0.99229444,1.0077654)"><tspan
       x="-1964.5702"
       y="443.36133"
       id="tspan41"
       style="stroke-width:0.994672" /></text>
  <text
     x="-173.53885"
     y="1219.2399"
     transform="scale(3.9818996,0.25113642)"
     id="text43"
     style="font-size:75.2963px;font-family:Arial;text-anchor:middle;stroke-width:0.994666" />
  <text
     x="-876.89685"
     y="126.89663"
     id="text45"
     style="font-size:128.54px;line-height:125%;font-family:'Gentium Book Basic';letter-spacing:0;word-spacing:0;stroke-width:0.994672"
     transform="scale(0.99229444,1.0077654)"><tspan
       x="-876.89685"
       y="126.89663"
       id="tspan47"
       style="stroke-width:0.994672" /></text>
  <text
     x="-22.49379"
     y="161.91956"
     transform="scale(3.9818996,0.25113642)"
     id="text49"
     style="font-size:46.7036px;font-family:Arial;text-anchor:middle;stroke-width:0.994666" />
  <text
     x="-298.7243"
     y="47.322937"
     id="text51"
     style="font-size:128.54px;line-height:125%;font-family:'Gentium Book Basic';letter-spacing:0;word-spacing:0;stroke-width:0.994672"
     transform="scale(0.99229444,1.0077654)"><tspan
       x="-298.7243"
       y="47.322937"
       id="tspan53"
       style="stroke-width:0.994672" /></text>
  <text
     x="121.57864"
     y="-157.39815"
     transform="scale(3.9818996,0.25113642)"
     id="text55"
     style="font-size:46.7036px;font-family:Arial;text-anchor:middle;stroke-width:0.994666" />
  <text
     x="-1364.5944"
     y="-132.97124"
     id="text57"
     style="font-size:128.54px;line-height:125%;font-family:'Gentium Book Basic';letter-spacing:0;word-spacing:0;stroke-width:0.994672"
     transform="scale(0.99229444,1.0077654)"><tspan
       x="-1364.5944"
       y="-132.97124"
       id="tspan59"
       style="stroke-width:0.994672" /></text>
  <text
     x="-144.0271"
     y="-880.86877"
     transform="scale(3.9818996,0.25113642)"
     id="text61"
     style="font-size:46.7036px;font-family:Arial;text-anchor:middle;stroke-width:0.994666" />
  <text
     x="-272.39532"
     y="-348.28772"
     id="text63"
     style="font-size:128.54px;line-height:125%;font-family:'Gentium Book Basic';letter-spacing:0;word-spacing:0;stroke-width:0.994672"
     transform="scale(0.99229444,1.0077654)"><tspan
       x="-272.39532"
       y="-348.28772"
       id="tspan65"
       style="stroke-width:0.994672" /></text>
  <text
     x="128.14345"
     y="-1744.9055"
     transform="scale(3.9818996,0.25113642)"
     id="text67"
     style="font-size:46.7036px;font-family:Arial;text-anchor:middle;stroke-width:0.994666" />
  <text
     x="305.77737"
     y="-427.8714"
     id="text69"
     style="font-size:128.54px;line-height:125%;font-family:'Gentium Book Basic';letter-spacing:0;word-spacing:0;stroke-width:0.994672"
     transform="scale(0.99229444,1.0077654)"><tspan
       x="305.77737"
       y="-427.8714"
       id="tspan71"
       style="stroke-width:0.994672" /></text>
  <text
     x="272.22086"
     y="-2064.2332"
     transform="scale(3.9818996,0.25113642)"
     id="text73"
     style="font-size:46.7036px;font-family:Arial;text-anchor:middle;stroke-width:0.994666" />
  <text
     x="-81.269196"
     y="-897.75403"
     id="text75"
     style="font-size:128.54px;line-height:125%;font-family:'Gentium Book Basic';letter-spacing:0;word-spacing:0;stroke-width:0.994672"
     transform="scale(0.99229444,1.0077654)"><tspan
       x="-81.269196"
       y="-897.75403"
       id="tspan77"
       style="stroke-width:0.994672" /></text>
  <text
     x="175.76808"
     y="-3949.7722"
     transform="scale(3.9818996,0.25113642)"
     id="text79"
     style="font-size:46.7036px;font-family:Arial;text-anchor:middle;stroke-width:0.994666" />
  <text
     x="496.89349"
     y="-977.32788"
     id="text81"
     style="font-size:128.54px;line-height:125%;font-family:'Gentium Book Basic';letter-spacing:0;word-spacing:0;stroke-width:0.994672"
     transform="scale(0.99229444,1.0077654)"><tspan
       x="496.89349"
       y="-977.32788"
       id="tspan83"
       style="stroke-width:0.994672" /></text>
  <text
     x="319.84549"
     y="-4269.0806"
     transform="scale(3.9818996,0.25113642)"
     id="text85"
     style="font-size:46.7036px;font-family:Arial;text-anchor:middle;stroke-width:0.994666" />
  <text
     x="-1326.1401"
     y="429.8537"
     id="text87"
     style="font-size:207.22px;line-height:125%;font-family:'Gentium Book Basic';letter-spacing:0;word-spacing:0;stroke-width:0.994672"
     transform="scale(0.99229444,1.0077654)"><tspan
       x="-1326.1401"
       y="429.8537"
       id="tspan89"
       style="stroke-width:0.994672" /></text>
  <g
     transform="matrix(0.987007,0,0,1.0023954,992.1053,509.09302)"
     id="g91"
     style="fill-rule:evenodd">
    <path
       d="m -673.23,-389.61 -64.952,53.842 102.58,61.755 62.691,-53.874 -100.32,-61.722 m -131.91,0.517 -99.93,65.66 66.15,51.29 100.22,-64.34 -66.44,-52.614 m 169.63,116.86 -101.16,63.79 65.18,52.52 101.42,-62.43 -65.44,-53.874 m -203.22,1.906 -64.952,53.842 102.55,61.755 62.724,-53.874 -100.32,-61.722 m 105.84,75.55 v 95.96 l 94.73,-46.32 v -21.543 c -11.311,6.963 -22.631,13.921 -33.978,20.833 -20.26,-16.3 -40.499,-32.625 -60.753,-48.932 m -10.04,1.098 c -19.1,16.383 -38.19,32.777 -57.3,49.16 -12.484,-7.502 -24.955,-15 -37.434,-22.512 v 22.609 l 94.73,45.41 v -94.67"
       inkscape:connector-curvature="0"
       id="path93"
       style="opacity:0.2;fill:#ffffff" />
    <path
       d="m -688.23,-404.61 -64.952,53.842 102.58,61.755 62.691,-53.874 -100.32,-61.722 m -131.91,0.517 -99.93,65.66 66.15,51.29 100.22,-64.34 -66.44,-52.614 m 169.63,116.86 -101.16,63.79 65.18,52.52 101.42,-62.43 -65.44,-53.874 m -203.22,1.906 -64.952,53.842 102.55,61.755 62.724,-53.874 -100.32,-61.722 m 105.84,75.55 v 95.96 l 94.73,-46.32 v -21.543 c -11.311,6.963 -22.631,13.921 -33.978,20.833 -20.26,-16.3 -40.499,-32.625 -60.753,-48.932 m -10.04,1.098 c -19.1,16.383 -38.19,32.777 -57.3,49.16 -12.484,-7.502 -24.955,-15 -37.434,-22.512 v 22.609 l 94.73,45.41 v -94.67"
       inkscape:connector-curvature="0"
       id="path95"
       style="fill:#ffffff" />
  </g>
</svg>
