<?xml version="1.0" encoding="UTF-8" standalone="no"?>
<!-- Created with Inkscape (http://www.inkscape.org/) -->

<svg
   version="1.1"
   width="100%"
   height="100%"
   viewBox="0 0 512 512"
   id="svg2"
   sodipodi:docname="skype.svg"
   inkscape:version="1.1 (c68e22c387, 2021-05-23)"
   xmlns:inkscape="http://www.inkscape.org/namespaces/inkscape"
   xmlns:sodipodi="http://sodipodi.sourceforge.net/DTD/sodipodi-0.dtd"
   xmlns:xlink="http://www.w3.org/1999/xlink"
   xmlns="http://www.w3.org/2000/svg"
   xmlns:svg="http://www.w3.org/2000/svg"
   xmlns:rdf="http://www.w3.org/1999/02/22-rdf-syntax-ns#"
   xmlns:cc="http://creativecommons.org/ns#"
   xmlns:dc="http://purl.org/dc/elements/1.1/">
  <sodipodi:namedview
     id="namedview34"
     pagecolor="#ffffff"
     bordercolor="#666666"
     borderopacity="1.0"
     inkscape:pageshadow="2"
     inkscape:pageopacity="0.0"
     inkscape:pagecheckerboard="0"
     showgrid="false"
     inkscape:zoom="0.60490776"
     inkscape:cx="338.89464"
     inkscape:cy="390.14213"
     inkscape:window-width="1366"
     inkscape:window-height="700"
     inkscape:window-x="0"
     inkscape:window-y="0"
     inkscape:window-maximized="1"
     inkscape:current-layer="svg2" />
  <metadata
     id="metadata57">
    <rdf:RDF>
      <cc:Work
         rdf:about="">
        <dc:format>image/svg+xml</dc:format>
        <dc:type
           rdf:resource="http://purl.org/dc/dcmitype/StillImage" />
      </cc:Work>
    </rdf:RDF>
  </metadata>
  <defs
     id="defs4">
    <filter
       color-interpolation-filters="sRGB"
       id="7"
       x="-0.018107638"
       y="-0.017892786"
       width="1.0362153"
       height="1.0357856">
      <feGaussianBlur
         id="feGaussianBlur7"
         stdDeviation="3.7725" />
    </filter>
    <linearGradient
       y1="19.563999"
       x2="0"
       y2="504.01999"
       id="8"
       gradientUnits="userSpaceOnUse">
      <stop
         id="stop10"
         style="stop-color:#f3f3f3;stop-opacity:1"
         offset="0" />
      <stop
         id="stop12"
         style="stop-color:#eeeeee;stop-opacity:1"
         offset="0.5" />
      <stop
         id="stop14"
         style="stop-color:#ebebeb;stop-opacity:1"
         offset="1" />
    </linearGradient>
    <linearGradient
       x1="257"
       x2="362"
       id="5"
       xlink:href="#0"
       gradientUnits="userSpaceOnUse"
       gradientTransform="matrix(1.02835,0,0,1.46193,-414.66498,-70.536575)" />
    <linearGradient
       x1="257"
       x2="362"
       id="6"
       xlink:href="#0"
       gradientUnits="userSpaceOnUse"
       gradientTransform="matrix(1.0381,0,0,1.46193,-369.79,-124.28)" />
    <linearGradient
       x1="257"
       x2="362"
       id="4"
       xlink:href="#0"
       gradientUnits="userSpaceOnUse"
       gradientTransform="matrix(1.02835,0,0,1.46193,-414.67498,-58.496575)" />
    <linearGradient
       x1="257"
       x2="362"
       id="3"
       xlink:href="#0"
       gradientUnits="userSpaceOnUse"
       gradientTransform="matrix(1.0381,0,0,1.46193,-381.6543,-62.743151)" />
    <linearGradient
       id="0">
      <stop
         id="stop21"
         style="stop-color:#000000;stop-opacity:1"
         offset="0" />
      <stop
         id="stop23"
         style="stop-color:#ffffff;stop-opacity:1"
         offset="1" />
    </linearGradient>
    <linearGradient
       x1="257"
       x2="362"
       id="2"
       xlink:href="#0"
       gradientUnits="userSpaceOnUse"
       gradientTransform="matrix(1.0381,0,0,1.46193,-448.55484,-71.076484)" />
    <linearGradient
       x1="257"
       x2="362"
       id="1"
       xlink:href="#0"
       gradientUnits="userSpaceOnUse"
       gradientTransform="matrix(1.0381,0,0,1.46193,-468.10279,-118.62443)" />
    <linearGradient
       id="0-3"
       x1="54.189999"
       y1="22.898001"
       x2="53.629002"
       y2="-28.23"
       gradientUnits="userSpaceOnUse">
      <stop
         stop-color="#0a80fd"
         id="stop2" />
      <stop
         offset="1"
         stop-color="#56c5fa"
         id="stop4" />
    </linearGradient>
    <linearGradient
       inkscape:collect="always"
       xlink:href="#0-3"
       id="linearGradient871"
       x1="38.5"
       y1="256"
       x2="473.5"
       y2="256"
       gradientUnits="userSpaceOnUse"
       gradientTransform="matrix(1.0023954,0,0,0.98700703,-513.38325,4.0422388)" />
  </defs>
  <rect
     width="436.04199"
     height="429.34799"
     rx="63.351387"
     x="-474.79099"
     y="42.042"
     id="rect33"
     style="fill:url(#linearGradient871);fill-opacity:1;stroke-width:0.994671"
     transform="rotate(-90)" />
  <path
     d="m 421.37768,266.01658 c 0,-87.20497 -69.60994,-157.93376 -155.50922,-157.93376 -9.03738,0 -17.9315,0.80588 -26.58316,2.29456 -13.90875,-8.87607 -30.33034,-14.058465 -47.96426,-14.058465 -49.81587,0 -90.17552,41.011295 -90.17552,91.603845 0,16.90149 4.5187,32.72842 12.37681,46.32797 -2.07198,10.23043 -3.14105,20.87502 -3.14105,31.74345 0,87.22736 69.60995,157.93378 155.50922,157.93378 9.75377,0 19.24303,-0.89545 28.47879,-2.64157 12.69644,6.9285 27.21136,10.86845 42.61903,10.86845 49.81584,0 90.17551,-40.98892 90.17551,-91.58144 0,-14.6069 -3.38351,-28.39674 -9.36805,-40.66432 2.35854,-10.93558 3.60394,-22.25176 3.60394,-33.9149 m -75.74874,75.47467 c -7.16378,10.34238 -17.82131,18.51328 -31.57576,24.33365 -13.64427,5.75322 -29.9887,8.67462 -48.58149,8.67462 -22.33998,0 -41.05398,-3.97354 -55.65708,-11.85344 -10.43708,-5.73083 -19.06669,-13.48759 -25.59123,-23.09122 -6.59069,-9.65961 -9.94114,-19.26323 -9.94114,-28.53106 0,-5.77563 2.17117,-10.80129 6.48047,-14.88675 4.24316,-4.08546 9.70969,-6.14496 16.23424,-6.14496 5.33425,0 9.94113,1.62298 13.71037,4.83537 3.54885,3.07807 6.63478,7.65605 9.10352,13.53238 2.7553,6.42481 5.74206,11.83106 8.91616,16.07322 3.05286,4.10784 7.45032,7.56649 13.04912,10.25282 5.64285,2.70872 13.23646,4.08546 22.58244,4.08546 12.85072,0 23.39803,-2.79826 31.3443,-8.28285 7.7479,-5.36146 11.49512,-11.80865 11.49512,-19.72215 0,-6.21214 -1.96178,-11.10348 -6.00655,-14.95389 -4.24318,-4.04068 -9.81991,-7.15236 -16.59795,-9.31262 -7.06458,-2.2274 -16.66405,-4.65628 -28.52287,-7.1971 -16.14607,-3.48104 -29.85646,-7.65605 -40.7454,-12.35712 -11.15348,-4.8354 -20.14677,-11.51764 -26.7154,-19.84524 -6.66782,-8.50672 -10.05133,-19.12892 -10.05133,-31.65394 0,-11.93176 3.54883,-22.68826 10.54728,-31.9561 6.95439,-9.20068 17.11593,-16.37542 30.19811,-21.26678 12.89481,-4.85778 28.24735,-7.29786 45.61675,-7.29786 13.88673,0 26.06517,1.63417 36.27081,4.85778 10.27177,3.21239 18.87932,7.61125 25.67941,12.98392 6.84417,5.43982 11.94699,11.19304 15.13212,17.27086 3.20717,6.07783 4.83831,12.13325 4.83831,17.9872 0,5.66369 -2.1271,10.7789 -6.37025,15.25613 -4.26522,4.4772 -9.64355,6.77178 -15.96975,6.77178 -5.74203,0 -10.27173,-1.4439 -13.3687,-4.24217 -2.93167,-2.61916 -5.94045,-6.69344 -9.30192,-12.54739 -3.87945,-7.47694 -8.58552,-13.37569 -13.95284,-17.5283 -5.23507,-4.06306 -13.97489,-6.07782 -25.95495,-6.07782 -11.15344,0 -20.21289,2.2498 -26.92479,6.76062 -6.50252,4.30929 -9.6656,9.24544 -9.6656,15.13296 0,3.60417 1.01396,6.60391 3.11901,9.17829 2.21524,2.75349 5.3122,5.13761 9.25778,7.15234 4.08889,2.1043 8.31002,3.76088 12.53113,4.91376 4.3093,1.24242 11.56125,3.03332 21.50236,5.37266 12.59725,2.75347 24.14747,5.82036 34.35311,9.13352 10.37097,3.3691 19.30916,7.49934 26.60519,12.33473 7.47238,4.93612 13.36874,11.19302 17.54576,18.8043 4.19908,7.58888 6.32618,16.94625 6.32618,27.8035 -0.0114,13.00633 -3.67007,24.88215 -10.91099,35.24689"
     inkscape:connector-curvature="0"
     id="path39"
     style="opacity:0.2;fill:#ffffff;stroke-width:11.1068" />
  <path
     d="m 406.57257,250.98065 c 0,-87.20497 -69.60992,-157.933765 -155.50921,-157.933765 -9.0374,0 -17.93151,0.8059 -26.58316,2.29456 -13.90875,-8.87609 -30.33035,-14.058457 -47.96428,-14.058457 -49.81584,0 -90.175523,41.011302 -90.175523,91.603842 0,16.90148 4.51871,32.72844 12.37685,46.32796 -2.07202,10.23044 -3.14107,20.87504 -3.14107,31.74345 0,87.22737 69.609953,157.93379 155.509233,157.93379 9.75375,0 19.24302,-0.89546 28.47878,-2.64157 12.69642,6.92849 27.21136,10.86844 42.619,10.86844 49.81586,0 90.17552,-40.9889 90.17552,-91.58144 0,-14.6069 -3.38352,-28.39673 -9.36802,-40.6643 2.35854,-10.9356 3.60394,-22.25176 3.60394,-33.91492 m -75.74875,75.47469 c -7.1638,10.34235 -17.8213,18.51327 -31.57578,24.33364 -13.64423,5.75322 -29.98869,8.67462 -48.58145,8.67462 -22.33998,0 -41.054,-3.97355 -55.65711,-11.85343 -10.43707,-5.73084 -19.06668,-13.4876 -25.59123,-23.09123 -6.59068,-9.65961 -9.94114,-19.26324 -9.94114,-28.53106 0,-5.77561 2.1712,-10.80129 6.48048,-14.88675 4.24318,-4.08546 9.70969,-6.14496 16.23424,-6.14496 5.33426,0 9.94112,1.62297 13.71037,4.83537 3.54884,3.07808 6.63477,7.65604 9.10351,13.53238 2.75531,6.42482 5.74206,11.83103 8.91616,16.07321 3.05288,4.10785 7.45034,7.56649 13.04912,10.25283 5.64285,2.70871 13.23647,4.08547 22.58243,4.08547 12.85074,0 23.39803,-2.79826 31.34431,-8.28287 7.74793,-5.36146 11.49512,-11.80865 11.49512,-19.72212 0,-6.21215 -1.96176,-11.1035 -6.00655,-14.95389 -4.24317,-4.0407 -9.8199,-7.15236 -16.59795,-9.31262 -7.06459,-2.22743 -16.66405,-4.65631 -28.52286,-7.19713 -16.14607,-3.48103 -29.85645,-7.65604 -40.74541,-12.35711 -11.15345,-4.83538 -20.14676,-11.51765 -26.7154,-19.84527 -6.66783,-8.5067 -10.05133,-19.12889 -10.05133,-31.65391 0,-11.93176 3.54882,-22.68827 10.54729,-31.95609 6.95438,-9.20068 17.11594,-16.37544 30.19811,-21.2668 12.89481,-4.85777 28.24735,-7.29786 45.61676,-7.29786 13.88673,0 26.06515,1.63419 36.27079,4.8578 10.27178,3.21238 18.87933,7.61125 25.67942,12.9839 6.84417,5.43982 11.94698,11.19305 15.1321,17.27086 3.20719,6.07783 4.83833,12.13326 4.83833,17.98721 0,5.66367 -2.1271,10.7789 -6.37027,15.25612 -4.2652,4.4772 -9.64355,6.77179 -15.96971,6.77179 -5.74206,0 -10.27178,-1.4439 -13.36874,-4.24217 -2.93165,-2.61918 -5.94044,-6.69343 -9.3019,-12.54739 -3.87946,-7.47695 -8.58551,-13.37568 -13.95283,-17.52831 -5.23509,-4.06305 -13.9749,-6.07781 -25.95495,-6.07781 -11.15347,0 -20.21289,2.24982 -26.9248,6.7606 -6.50251,4.30931 -9.6656,9.24545 -9.6656,15.133 0,3.60415 1.01395,6.60389 3.11899,9.17827 2.21526,2.75349 5.31222,5.13761 9.25782,7.15234 4.08889,2.10432 8.30998,3.76088 12.53111,4.91375 4.30928,1.24244 11.56123,3.03332 21.50237,5.37266 12.59725,2.75349 24.14745,5.82039 34.35309,9.13353 10.37095,3.3691 19.30916,7.49934 26.60521,12.33473 7.47237,4.93612 13.36872,11.19303 17.54575,18.8043 4.1991,7.58887 6.32617,16.94625 6.32617,27.8035 -0.0114,13.00632 -3.67004,24.88213 -10.91099,35.2469"
     inkscape:connector-curvature="0"
     id="path41"
     style="fill:#ffffff;stroke-width:11.1068" />
</svg>
