<?xml version="1.0" encoding="UTF-8" standalone="no"?>
<!-- Created with Inkscape (http://www.inkscape.org/) -->

<svg
   version="1.1"
   width="100%"
   height="100%"
   viewBox="0 0 512 512"
   id="svg2"
   sodipodi:docname="accessories-image-viewer.svg"
   inkscape:version="1.1 (c68e22c387, 2021-05-23)"
   xmlns:inkscape="http://www.inkscape.org/namespaces/inkscape"
   xmlns:sodipodi="http://sodipodi.sourceforge.net/DTD/sodipodi-0.dtd"
   xmlns:xlink="http://www.w3.org/1999/xlink"
   xmlns="http://www.w3.org/2000/svg"
   xmlns:svg="http://www.w3.org/2000/svg"
   xmlns:rdf="http://www.w3.org/1999/02/22-rdf-syntax-ns#"
   xmlns:cc="http://creativecommons.org/ns#"
   xmlns:dc="http://purl.org/dc/elements/1.1/">
  <sodipodi:namedview
     id="namedview35"
     pagecolor="#ffffff"
     bordercolor="#666666"
     borderopacity="1.0"
     inkscape:pageshadow="2"
     inkscape:pageopacity="0.0"
     inkscape:pagecheckerboard="0"
     showgrid="false"
     inkscape:zoom="0.42773437"
     inkscape:cx="474.59361"
     inkscape:cy="371.72603"
     inkscape:window-width="1366"
     inkscape:window-height="706"
     inkscape:window-x="0"
     inkscape:window-y="0"
     inkscape:window-maximized="1"
     inkscape:current-layer="svg2" />
  <metadata
     id="metadata59">
    <rdf:RDF>
      <cc:Work
         rdf:about="">
        <dc:format>image/svg+xml</dc:format>
        <dc:type
           rdf:resource="http://purl.org/dc/dcmitype/StillImage" />
      </cc:Work>
    </rdf:RDF>
  </metadata>
  <defs
     id="defs4">
    <filter
       color-interpolation-filters="sRGB"
       id="7"
       x="-0.018107638"
       y="-0.017892786"
       width="1.0362153"
       height="1.0357856">
      <feGaussianBlur
         id="feGaussianBlur7"
         stdDeviation="3.7725" />
    </filter>
    <linearGradient
       y1="19.563999"
       x2="0"
       y2="504.01999"
       id="8"
       gradientUnits="userSpaceOnUse">
      <stop
         id="stop10"
         style="stop-color:#f3f3f3;stop-opacity:1"
         offset="0" />
      <stop
         id="stop12"
         style="stop-color:#eeeeee;stop-opacity:1"
         offset="0.5" />
      <stop
         id="stop14"
         style="stop-color:#ebebeb;stop-opacity:1"
         offset="1" />
    </linearGradient>
    <linearGradient
       x1="257"
       x2="362"
       id="5"
       xlink:href="#0"
       gradientUnits="userSpaceOnUse"
       gradientTransform="matrix(1.02835,0,0,1.46193,-556.69324,-120.38612)" />
    <linearGradient
       x1="257"
       x2="362"
       id="6"
       xlink:href="#0"
       gradientUnits="userSpaceOnUse"
       gradientTransform="matrix(1.0381,0,0,1.46193,-559.20324,-120.39612)" />
    <linearGradient
       x1="257"
       x2="362"
       id="4"
       xlink:href="#0"
       gradientUnits="userSpaceOnUse"
       gradientTransform="matrix(1.02835,0,0,1.46193,-594.74258,-87.16977)" />
    <linearGradient
       x1="257"
       x2="362"
       id="3"
       xlink:href="#0"
       gradientUnits="userSpaceOnUse"
       gradientTransform="matrix(1.0381,0,0,1.46193,-559.20224,-108.35612)" />
    <linearGradient
       id="0">
      <stop
         id="stop21"
         style="stop-color:#000000;stop-opacity:1"
         offset="0" />
      <stop
         id="stop23"
         style="stop-color:#ffffff;stop-opacity:1"
         offset="1" />
    </linearGradient>
    <linearGradient
       x1="257"
       x2="362"
       id="2"
       xlink:href="#0"
       gradientUnits="userSpaceOnUse"
       gradientTransform="matrix(1.0381,0,0,1.46193,-598.27858,-99.199772)" />
    <linearGradient
       x1="257"
       x2="362"
       id="1"
       xlink:href="#0"
       gradientUnits="userSpaceOnUse"
       gradientTransform="matrix(1.0381,0,0,1.46193,-598.27858,-111.22977)" />
    <linearGradient
       id="0-3"
       y1="543.79999"
       x2="0"
       y2="503.79999"
       gradientUnits="userSpaceOnUse"
       gradientTransform="matrix(1.125,0,0,1,-51.07,0)"
       x1="0"
       spreadMethod="pad">
      <stop
         stop-color="#31d145"
         id="stop4" />
      <stop
         offset="1"
         stop-color="#4bf082"
         id="stop6" />
    </linearGradient>
    <linearGradient
       xlink:href="#1-7"
       id="3-6"
       y1="525.79999"
       x2="0"
       y2="503.79999"
       gradientUnits="userSpaceOnUse"
       gradientTransform="matrix(1.01896,0,0,1.16964,-8.472,-91.37)" />
    <linearGradient
       id="1-7">
      <stop
         stop-color="#1c6b2a"
         id="stop9" />
      <stop
         offset="1"
         stop-color="#468e5e"
         id="stop11" />
    </linearGradient>
    <linearGradient
       gradientUnits="userSpaceOnUse"
       y2="503.79999"
       x2="0"
       y1="543.79999"
       id="2-5"
       xlink:href="#1-7"
       gradientTransform="matrix(0.67024,0,0,0.41636,135.45,294.04)" />
    <linearGradient
       inkscape:collect="always"
       xlink:href="#0-3"
       id="linearGradient942"
       x1="38.5"
       y1="256"
       x2="473.5"
       y2="256"
       gradientUnits="userSpaceOnUse"
       gradientTransform="matrix(1.0023953,0,0,0.98700701,-513.38326,4.0422307)" />
  </defs>
  <rect
     width="436.04199"
     height="429.34799"
     rx="63.351391"
     x="-474.79099"
     y="42.042"
     id="rect33"
     style="fill:url(#linearGradient942);fill-opacity:1;stroke-width:0.994672"
     transform="rotate(-90)" />
  <g
     transform="matrix(1.0733602,0,0,1.0900949,-17.15177,-30.3611)"
     id="g39">
    <path
       d="m 206.12,157.06 c -24.812,0 -45.32,19.965 -45.32,44.806 0,24.843 20.483,45.32 45.32,45.32 24.843,0 45.33,-20.483 45.33,-45.32 0,-24.843 -20.517,-44.806 -45.33,-44.806 m 121.39,88.57 c -21.479,-0.317 -37.859,11.167 -52.1,25.01 -14.241,13.842 -26.394,30.23 -40.639,41.16 -4.836,3.586 -9.32,5.825 -13.03,6.776 -3.705,0.948 -6.35,0.679 -8.854,-1.564 -15.378,-20.498 -29.99,-31.3 -43.24,-34.385 -13.335,-3.1 -25.435,2.097 -35.427,11.462 -19.984,18.726 -32.912,55.14 -38.55,88.05 l -0.519,2.605 h 335 l -1.564,-3.123 c -14.987,-30.494 -25.405,-63.891 -39.594,-90.14 -7.097,-13.12 -15.09,-24.689 -25.01,-32.819 -9.917,-8.13 -21.924,-12.857 -36.468,-13.03"
       inkscape:connector-curvature="0"
       id="path41"
       style="opacity:0.2" />
    <path
       d="m 191.12,142.06 c -24.812,0 -45.32,19.965 -45.32,44.806 0,24.843 20.483,45.32 45.32,45.32 24.843,0 45.33,-20.483 45.33,-45.32 0,-24.843 -20.517,-44.806 -45.33,-44.806 m 121.39,88.57 c -21.479,-0.317 -37.859,11.167 -52.1,25.01 -14.241,13.842 -26.394,30.23 -40.639,41.16 -4.836,3.586 -9.32,5.825 -13.03,6.776 -3.705,0.948 -6.35,0.679 -8.854,-1.564 -15.378,-20.498 -29.99,-31.3 -43.24,-34.385 -13.335,-3.1 -25.435,2.097 -35.427,11.462 -19.984,18.726 -32.912,55.14 -38.55,88.05 l -0.519,2.605 h 335 l -1.564,-3.123 c -14.987,-30.494 -25.405,-63.891 -39.594,-90.14 -7.097,-13.12 -15.09,-24.689 -25.01,-32.819 -9.917,-8.13 -21.924,-12.857 -36.468,-13.03"
       inkscape:connector-curvature="0"
       id="path43"
       style="fill:#dcdbdb" />
  </g>
  <path
     style="opacity:0.284981;fill:#ffff00"
     id="path1596"
     sodipodi:type="arc"
     sodipodi:cx="187.9257"
     sodipodi:cy="173.73824"
     sodipodi:rx="63.151043"
     sodipodi:ry="63.647526"
     sodipodi:start="1.5347657"
     sodipodi:end="1.5295961"
     sodipodi:arc-type="slice"
     d="m 190.20058,237.34445 a 63.151043,63.647526 0 0 1 -65.38194,-61.23125 63.151043,63.647526 0 0 1 60.66907,-65.97504 63.151043,63.647526 0 0 1 65.53876,61.06072 63.151043,63.647526 0 0 1 -60.49966,66.13287 l -2.60111,-63.59351 z" />
  <path
     style="opacity:0.284981;fill:#ffffff;stroke-width:2.32544"
     d="m 70.960403,369.06262 c 0,-8.14582 10.855298,-43.56781 18.321838,-59.78609 13.846219,-30.07568 32.914279,-47.62367 51.905959,-47.76803 11.09851,-0.0844 26.57703,9.19046 41.64978,24.95675 14.58567,15.25685 19.73122,17.37391 29.60992,12.18262 2.77211,-1.45675 19.05841,-16.55423 36.19178,-33.54992 18.86412,-18.71254 35.29112,-32.91203 41.64635,-35.99904 26.09521,-12.67566 50.41555,-8.17294 71.26109,13.19339 15.31404,15.69668 24.39128,32.64201 47.3243,88.34485 l 16.86516,40.96439 h -177.3881 c -125.8226,0 -177.388077,-0.73806 -177.388077,-2.53892 z"
     id="path2846" />
  <path
     style="opacity:0.284981;fill:#ffffff;stroke-width:2.32544"
     d="m 105.25517,369.85044 -33.777146,-0.71468 2.187689,-9.89875 c 13.970118,-63.2112 47.307997,-104.92741 75.989107,-95.0864 9.75428,3.34684 25.7451,15.04186 37.72692,27.59186 15.448,16.18053 17.88728,15.19386 59.95821,-24.25287 19.83077,-18.59382 40.50509,-35.9943 45.9429,-38.66775 13.45964,-6.61728 34.87656,-6.58007 48.83792,0.0849 13.42052,6.40674 30.39498,25.41318 40.83428,45.72251 7.87161,15.31392 41.05639,92.54595 41.05639,95.55187 0,1.37549 -250.39728,1.11573 -318.75627,-0.33066 z"
     id="path2885" />
  <path
     style="opacity:0.284981;fill:#ffffff;stroke-width:2.32544"
     d="M 179.99085,369.95726 C 56.832706,369.09634 69.374952,372.7432 79.270617,340.67114 c 11.097894,-35.96856 29.336793,-64.01312 48.029613,-73.85151 11.09479,-5.83938 24.34303,-2.82647 41.01838,9.32834 8.00617,5.83579 17.60649,13.88158 21.33406,17.87954 7.17438,7.6948 14.34242,9.12386 22.77495,4.54054 2.76097,-1.50067 16.9705,-13.77812 31.57673,-27.28325 39.24381,-36.28533 50.66159,-44.33444 65.57303,-46.22654 31.96928,-4.05658 56.57866,15.58047 78.57308,62.69744 14.51313,31.09032 33.55347,76.06948 33.55347,79.26362 0,1.36257 -22.45039,2.23872 -57.36602,2.23872 -31.55131,0 -61.92409,0.32517 -67.49507,0.72264 -5.57094,0.39743 -58.15435,0.3869 -116.85199,-0.0234 z"
     id="path2924" />
  <path
     style="opacity:0.284981;fill:#ffff00;stroke-width:1.16272"
     d="m 176.24192,220.46829 c -9.25627,-2.64657 -15.09555,-6.1187 -21.88304,-13.01205 -20.46477,-20.7838 -18.51947,-53.54301 4.26563,-71.83441 23.70666,-19.03122 58.74798,-10.87121 72.22284,16.81837 15.05326,30.9331 -6.15507,67.23649 -40.47263,69.27906 -5.03162,0.29946 -10.35957,-0.17213 -14.1328,-1.25097 z"
     id="path114" />
  <path
     style="opacity:0.284981;fill:#ffff00;stroke-width:1.16272"
     d="m 172.87083,218.83284 c -31.75547,-11.96736 -42.15221,-51.37753 -20.17277,-76.46751 22.66944,-25.87757 63.38738,-19.81177 78.2121,11.6514 4.18648,8.88509 5.14234,23.87024 2.11763,33.19776 -4.44641,13.7117 -12.92429,23.39684 -25.86887,29.55261 -9.88417,4.70039 -24.89701,5.60487 -34.28809,2.06574 z"
     id="path153" />
  <path
     style="opacity:0.284981;fill:#ffff00;stroke-width:1.16272"
     d="m 179.10419,219.81567 c -13.33304,-2.27667 -25.96401,-12.50942 -32.81256,-26.58255 -4.02702,-8.27519 -4.29729,-9.5121 -4.26463,-19.51906 0.0455,-13.95551 2.91076,-21.64418 11.63054,-31.20939 18.65313,-20.46174 50.07754,-20.75399 68.18364,-0.63414 6.91172,7.68042 10.19594,14.47973 11.74221,24.30992 5.00284,31.80478 -22.6854,59.06408 -54.4792,53.63522 z"
     id="path192" />
  <path
     style="opacity:0.284981;fill:#ffff00;stroke-width:1.16272"
     d="m 174.61917,218.22687 c -11.44055,-4.15037 -21.41849,-13.17792 -28.08739,-25.41207 -3.26266,-5.9854 -3.46004,-7.08936 -3.43957,-19.23901 0.018,-10.73924 0.44272,-13.82322 2.54564,-18.48843 3.97283,-8.8136 13.96922,-18.6076 23.7034,-23.22355 7.58998,-3.59914 9.2783,-3.95005 18.72596,-3.89187 7.95045,0.049 11.94787,0.68653 17.05787,2.72057 9.31606,3.70829 19.34908,13.39651 24.16866,23.33803 3.4707,7.15914 3.76724,8.66301 3.73349,18.93392 -0.0289,8.79894 -0.59069,12.56916 -2.65798,17.83796 -4.78637,12.19891 -17.11926,23.33896 -30.10853,27.19648 -7.51245,2.23099 -19.81862,2.34041 -25.64155,0.22797 z"
     id="path231" />
  <path
     style="opacity:0.284981;fill:#ffff00;stroke-width:1.16272"
     d="m 179.18445,218.65604 c -11.735,-2.00921 -26.22064,-14.02722 -32.79927,-27.21192 -2.7761,-5.5638 -2.94326,-6.83618 -2.56526,-19.52634 0.36254,-12.17151 0.72084,-14.12148 3.46625,-18.86402 4.4986,-7.77109 14.88635,-17.1655 23.51484,-21.26621 7.13138,-3.3892 8.19555,-3.56665 18.79692,-3.1342 9.31339,0.3799 12.33651,1.00445 17.6557,3.64746 8.13357,4.04142 18.62409,15.10643 22.5237,23.75715 2.69547,5.97946 2.92503,7.65873 2.52963,18.50634 -0.36725,10.07586 -0.92589,12.94945 -3.59422,18.48834 -3.74886,7.78189 -13.11113,17.16135 -21.37504,21.41426 -4.67858,2.4078 -19.15851,5.82728 -22.15492,5.23199 -0.31728,-0.063 -3.01653,-0.53232 -5.99833,-1.04285 z"
     id="path270" />
  <path
     style="opacity:0.284981;fill:#ffff00;stroke-width:1.16272"
     d="m 174.45592,216.99812 c -10.45062,-3.78592 -22.07468,-14.79135 -27.54735,-26.08123 -3.5421,-7.30719 -3.56841,-7.49782 -2.7495,-19.91348 0.57374,-8.69884 1.50391,-13.88354 3.03903,-16.93953 3.17538,-6.32131 13.91868,-16.52426 22.20677,-21.08983 6.87322,-3.7862 7.54494,-3.91788 19.02938,-3.73024 10.16997,0.16615 12.7777,0.62827 17.89593,3.17143 7.3751,3.66456 17.85517,14.11627 22.27433,22.21405 3.10115,5.68259 3.29489,6.82774 3.13227,18.51331 -0.13529,9.72048 -0.69123,13.64502 -2.53148,17.87007 -2.84948,6.54217 -12.74701,17.44225 -19.47276,21.44525 -9.88695,5.88448 -25.88304,7.94321 -35.27662,4.5402 z"
     id="path309" />
  <path
     style="opacity:0.284981;fill:#ffff00;stroke-width:1.16272"
     d="m 177.68335,217.65035 c -13.3518,-3.55358 -29.33377,-19.55959 -32.87816,-32.92757 -1.90931,-7.20121 0.39736,-26.04179 3.93996,-32.18103 3.79127,-6.57016 14.0036,-15.80837 22.04036,-19.938 5.94203,-3.05327 6.96056,-3.2029 18.70551,-2.74811 10.00816,0.38752 13.38326,0.99137 17.37267,3.10823 6.75796,3.58593 17.9937,15.25193 21.54575,22.37085 2.5522,5.11501 2.91739,7.31683 2.87317,17.32332 -0.0589,13.29065 -1.3965,17.89912 -7.59154,26.15197 -5.71747,7.61656 -13.00287,13.36601 -20.58982,16.24892 -6.81664,2.59018 -20.26928,3.96171 -25.4179,2.59142 z"
     id="path348" />
  <path
     style="opacity:0.284981;fill:#ffff00;stroke-width:1.16272"
     d="m 179.09395,217.43853 c -10.66831,-1.75894 -24.59692,-13.1983 -31.30022,-25.7065 -2.89297,-5.39822 -3.27298,-7.27516 -3.16637,-15.63911 0.24194,-18.98116 3.7447,-26.77368 16.54203,-36.80066 10.71998,-8.39934 15.71411,-10.03773 28.66624,-9.40431 14.1562,0.69229 18.99459,2.96498 29.22584,13.72797 10.13817,10.66505 12.21407,15.45925 12.24644,28.28252 0.037,14.65856 -2.07957,20.62467 -10.59774,29.87258 -3.88713,4.22016 -9.18768,8.91893 -11.77893,10.4417 -7.9763,4.68733 -20.16038,6.82129 -29.83729,5.22581 z"
     id="path387" />
  <path
     style="opacity:0.284981;fill:#ffff00;stroke-width:1.16272"
     d="m 170.56255,214.04949 c -8.31277,-4.26671 -19.46371,-15.69806 -23.4301,-24.01928 -2.34683,-4.92349 -2.56924,-6.77401 -2.09439,-17.42606 0.38724,-8.68642 1.19219,-13.42799 2.9689,-17.48844 2.89434,-6.61462 11.31157,-15.11289 20.59526,-20.79352 6.57536,-4.02343 6.93502,-4.09967 18.98302,-4.02415 10.93181,0.0686 12.98432,0.42661 18.68671,3.26003 7.17744,3.56634 18.65609,15.19598 22.23918,22.53177 3.29294,6.7417 3.18111,27.01509 -0.19017,34.47633 -3.77252,8.34928 -13.38311,18.14567 -22.05497,22.48137 -6.50019,3.24992 -9.07637,3.85165 -18.08141,4.22337 -9.88815,0.40817 -10.91697,0.2201 -17.62203,-3.22142 z"
     id="path426" />
  <path
     style="opacity:0.284981;fill:#ffff00;stroke-width:1.16272"
     d="m 174.41287,215.78053 c -10.28637,-4.01144 -22.79522,-16.34684 -27.4772,-27.09624 -2.12389,-4.87625 -2.3559,-7.01306 -1.76135,-16.22102 1.0084,-15.61661 2.29833,-18.72465 11.69626,-28.18123 11.54312,-11.61514 15.79707,-13.47792 30.74611,-13.46365 15.03166,0.0144 21.17387,2.55826 31.13216,12.89406 8.14757,8.45641 10.86297,13.60895 11.84917,22.48414 1.26978,11.42725 -0.96431,22.81084 -5.91552,30.14187 -5.13802,7.60766 -14.99424,15.752 -22.17466,18.32328 -7.45653,2.67015 -22.57325,3.27212 -28.09497,1.11879 z"
     id="path465" />
  <path
     style="opacity:0.284981;fill:#ffff00;stroke-width:0.0256928"
     d="m 190.32841,237.04319 -0.1188,-0.0372 -0.0149,-0.2135 c -0.0138,-0.19676 -0.501,-13.84704 -0.49991,-14.00762 4.6e-4,-0.067 0.007,-0.071 0.11521,-0.071 0.11394,0 0.11472,6.1e-4 0.11472,0.0898 0,0.13856 0.55593,13.76913 0.57267,14.0408 0.0164,0.26746 0.0237,0.25895 -0.16884,0.19875 z"
     id="path986" />
</svg>
