<?xml version="1.0" encoding="UTF-8" standalone="no"?>
<!-- Created with Inkscape (http://www.inkscape.org/) -->

<svg
   version="1.1"
   width="100%"
   height="100%"
   viewBox="0 0 512 512"
   id="svg2"
   sodipodi:docname="addressbook.svg"
   inkscape:version="1.1 (c68e22c387, 2021-05-23)"
   xmlns:inkscape="http://www.inkscape.org/namespaces/inkscape"
   xmlns:sodipodi="http://sodipodi.sourceforge.net/DTD/sodipodi-0.dtd"
   xmlns:xlink="http://www.w3.org/1999/xlink"
   xmlns="http://www.w3.org/2000/svg"
   xmlns:svg="http://www.w3.org/2000/svg"
   xmlns:rdf="http://www.w3.org/1999/02/22-rdf-syntax-ns#"
   xmlns:cc="http://creativecommons.org/ns#"
   xmlns:dc="http://purl.org/dc/elements/1.1/">
  <sodipodi:namedview
     id="namedview64"
     pagecolor="#ffffff"
     bordercolor="#666666"
     borderopacity="1.0"
     inkscape:pageshadow="2"
     inkscape:pageopacity="0.0"
     inkscape:pagecheckerboard="0"
     showgrid="false"
     inkscape:zoom="0.60490775"
     inkscape:cx="-28.103459"
     inkscape:cy="239.70597"
     inkscape:window-width="1366"
     inkscape:window-height="700"
     inkscape:window-x="0"
     inkscape:window-y="0"
     inkscape:window-maximized="1"
     inkscape:current-layer="svg2" />
  <metadata
     id="metadata117">
    <rdf:RDF>
      <cc:Work
         rdf:about="">
        <dc:format>image/svg+xml</dc:format>
        <dc:type
           rdf:resource="http://purl.org/dc/dcmitype/StillImage" />
      </cc:Work>
    </rdf:RDF>
  </metadata>
  <defs
     id="defs4">
    <filter
       color-interpolation-filters="sRGB"
       id="7"
       x="-0.018107638"
       y="-0.017892786"
       width="1.0362153"
       height="1.0357856">
      <feGaussianBlur
         id="feGaussianBlur7"
         stdDeviation="3.7725" />
    </filter>
    <linearGradient
       y1="19.563999"
       x2="0"
       y2="504.01999"
       id="8"
       gradientUnits="userSpaceOnUse">
      <stop
         id="stop10"
         style="stop-color:#f3f3f3;stop-opacity:1"
         offset="0" />
      <stop
         id="stop12"
         style="stop-color:#eeeeee;stop-opacity:1"
         offset="0.5" />
      <stop
         id="stop14"
         style="stop-color:#ebebeb;stop-opacity:1"
         offset="1" />
    </linearGradient>
    <linearGradient
       x1="257"
       x2="362"
       id="5"
       xlink:href="#0"
       gradientUnits="userSpaceOnUse"
       gradientTransform="matrix(1.02835,0,0,1.46193,-446.30511,-134.54484)" />
    <linearGradient
       x1="257"
       x2="362"
       id="6"
       xlink:href="#0"
       gradientUnits="userSpaceOnUse"
       gradientTransform="matrix(1.0381,0,0,1.46193,-512.79228,-126.32306)" />
    <linearGradient
       x1="257"
       x2="362"
       id="4"
       xlink:href="#0"
       gradientUnits="userSpaceOnUse"
       gradientTransform="matrix(1.02835,0,0,1.46193,-446.31511,-122.50484)" />
    <linearGradient
       x1="257"
       x2="362"
       id="3"
       xlink:href="#0"
       gradientUnits="userSpaceOnUse"
       gradientTransform="matrix(1.0381,0,0,1.46193,-448.81411,-122.51484)" />
    <linearGradient
       id="0">
      <stop
         id="stop21"
         style="stop-color:#000000;stop-opacity:1"
         offset="0" />
      <stop
         id="stop23"
         style="stop-color:#ffffff;stop-opacity:1"
         offset="1" />
    </linearGradient>
    <linearGradient
       x1="257"
       x2="362"
       id="2"
       xlink:href="#0"
       gradientUnits="userSpaceOnUse"
       gradientTransform="matrix(1.0381,0,0,1.46193,-539.6279,-97.277397)" />
    <linearGradient
       x1="257"
       x2="362"
       id="1"
       xlink:href="#0"
       gradientUnits="userSpaceOnUse"
       gradientTransform="matrix(1.0381,0,0,1.46193,-470.7879,-97.277397)" />
    <linearGradient
       id="0-3"
       y1="546.28998"
       x2="0"
       y2="501.51001"
       gradientUnits="userSpaceOnUse">
      <stop
         stop-color="#00a199"
         id="stop2" />
      <stop
         offset="1"
         stop-color="#00f89a"
         stop-opacity=".988"
         id="stop4" />
    </linearGradient>
    <linearGradient
       inkscape:collect="always"
       xlink:href="#0-3"
       id="linearGradient913"
       x1="38.5"
       y1="256"
       x2="473.5"
       y2="256"
       gradientUnits="userSpaceOnUse"
       gradientTransform="matrix(1.0023838,0,0,0.98639106,-513.3778,4.333838)" />
  </defs>
  <rect
     width="436.03699"
     height="429.08011"
     rx="63.350655"
     x="-474.78598"
     y="42.309883"
     id="rect45"
     style="fill:url(#linearGradient913);fill-opacity:1;stroke-width:0.994354"
     transform="rotate(-90)" />
  <path
     d="m 119.43581,53.784802 c -33.823357,0 -61.145396,27.094437 -62.261005,61.175498 v 39.18317 H 158.83225 V 53.784802 h -39.39447 m -17.84381,25.02852 h 12.76192 l 17.47785,50.309628 h -11.25077 l -3.57565,-11.93436 H 99.005663 l -3.57565,11.93436 H 84.179233 L 101.59496,78.813322 m 6.44211,7.76848 c -0.74176,2.92495 -2.87237,10.16618 -6.38095,21.707618 h 12.85267 c -3.30638,-10.809698 -5.18249,-16.939268 -5.6106,-18.356648 -0.40442,-1.41737 -0.68357,-2.52902 -0.86308,-3.35198 M 57.112662,165.298 V 267.45092 H 158.77012 V 165.298 H 57.112662 m 33.074681,26.0309 h 15.351197 c 6.9945,0 12.07935,1.00238 15.22791,3.03723 3.17125,2.01479 4.74651,5.20537 4.7475,9.61686 0,2.99412 -0.70133,5.47301 -2.09608,7.39258 -1.37207,1.91956 -3.19295,3.05727 -5.48729,3.4462 v 0.34482 c 3.12585,0.70868 5.37877,2.03583 6.75085,3.97846 1.39476,1.94261 2.09609,4.51474 2.09609,7.7374 0,4.57087 -1.64037,8.15338 -4.90139,10.71348 -3.23832,2.56009 -7.6465,3.8221 -13.22354,3.8221 H 90.188323 V 191.3299 m 10.480397,8.67664 v 11.15152 h 6.07222 c 2.83392,0 4.87476,-0.45609 6.13438,-1.34721 1.2823,-0.89111 1.91064,-2.35961 1.91163,-4.41649 0,-1.91957 -0.70133,-3.28081 -2.09609,-4.10376 -1.37205,-0.84602 -3.54409,-1.28406 -6.53484,-1.28406 h -5.4873 m 0,19.57755 v 13.06106 h 6.81202 c 2.8783,0 5.0089,-0.54028 6.38097,-1.65994 1.37206,-1.11967 2.03394,-2.82873 2.03493,-5.13723 0,-4.15989 -2.90689,-6.26488 -8.75423,-6.26488 h -6.47369 M 57.149159,278.59843 V 380.75137 H 158.80662 V 278.59843 H 57.149159 m 55.176731,25.3102 c 4.78993,0 9.62127,1.18582 14.45656,3.53942 l -3.39121,8.64556 c -1.84456,-0.89112 -3.6822,-1.68702 -5.54846,-2.3496 -1.86624,-0.66256 -3.71869,-1.00237 -5.51786,-1.00237 -3.93571,0 -6.96394,1.52562 -9.12412,4.54178 -2.15921,2.99414 -3.236357,7.15904 -3.236357,12.5298 0,11.17558 4.107337,16.78994 12.360477,16.78994 3.46321,0 7.65142,-0.90316 12.57648,-2.66233 v 8.92723 c -4.04813,1.71408 -8.56977,2.56911 -13.56288,2.56911 -7.17402,0 -12.659327,-2.19824 -16.460887,-6.60973 -3.80057,-4.43355 -5.70233,-10.80368 -5.70233,-19.07535 0,-5.2104 0.93805,-9.74919 2.80531,-13.65748 1.86623,-3.93136 4.55909,-6.94151 8.044987,-9.02146 3.50859,-2.103 7.59916,-3.16351 12.29932,-3.16351 m -55.021885,84.89188 v 42.32064 c 0.843365,11.91432 4.915187,22.88241 11.31292,32.0452 10.166735,7.3144 22.575528,11.62163 36.033855,11.62163 H 158.9605 V 388.80452 H 57.303035 m 30.362098,24.52734 h 15.505087 c 8.05092,0 14.28887,2.16514 18.74142,6.48442 4.45259,4.31927 6.68871,10.35763 6.68871,18.10304 0,8.25063 -2.3338,14.56364 -6.96391,18.95107 -4.6104,4.38844 -11.27938,6.57865 -20.00499,6.57865 H 87.668093 v -50.1192 m 10.4804,8.70871 v 32.64062 h 4.469337 c 10.07502,0 15.10363,-5.51512 15.10462,-16.50825 0,-10.7646 -4.6696,-16.12836 -14.02551,-16.12836 h -5.548447"
     inkscape:connector-curvature="0"
     id="path47"
     style="opacity:0.2;stroke-width:0.994354" />
  <g
     id="g49"
     style="fill:#dcdbdb"
     transform="matrix(0.98639108,0,0,1.0023838,4.333836,0.15726892)">
    <path
       d="M 101.69,38.5 C 67.4,38.5 39.701,65.53 38.57,99.53 v 39.09 H 141.63 V 38.5 H 101.692 M 83.602,63.469 H 96.54 l 17.719,50.19 h -11.406 l -3.625,-11.906 h -18.25 l -3.625,11.906 H 65.947 l 17.656,-50.19 m 6.531,7.75 c -0.752,2.918 -2.912,10.142 -6.469,21.656 h 13.03 C 93.343,82.091 91.441,75.976 91.007,74.562 90.597,73.148 90.314,72.039 90.132,71.218"
       inkscape:connector-curvature="0"
       id="path51" />
    <path
       d="M 38.5,149.75 V 251.66 H 141.56 V 149.75 H 38.5 m 33.531,25.969 h 15.563 c 7.091,0 12.245,1 15.438,3.03 3.215,2.01 4.812,5.193 4.813,9.594 0,2.987 -0.711,5.46 -2.125,7.375 -1.391,1.915 -3.237,3.05 -5.563,3.438 v 0.344 c 3.169,0.707 5.453,2.031 6.844,3.969 1.414,1.938 2.125,4.504 2.125,7.719 0,4.56 -1.663,8.134 -4.969,10.688 -3.283,2.554 -7.752,3.813 -13.406,3.813 H 72.032 V 175.72 m 10.625,8.656 v 11.125 h 6.156 c 2.873,0 4.942,-0.455 6.219,-1.344 1.3,-0.889 1.937,-2.354 1.938,-4.406 0,-1.915 -0.711,-3.273 -2.125,-4.094 -1.391,-0.844 -3.593,-1.281 -6.625,-1.281 h -5.563 m 0,19.531 v 13.03 h 6.906 c 2.918,0 5.078,-0.539 6.469,-1.656 1.391,-1.117 2.062,-2.822 2.063,-5.125 0,-4.15 -2.947,-6.25 -8.875,-6.25 h -6.563"
       inkscape:connector-curvature="0"
       id="path53" />
    <path
       d="m 38.531,262.78 v 101.91 h 103.06 V 262.78 H 38.531 m 55.938,25.25 c 4.856,0 9.754,1.183 14.656,3.531 l -3.438,8.625 c -1.87,-0.889 -3.733,-1.683 -5.625,-2.344 -1.892,-0.661 -3.77,-1 -5.594,-1 -3.99,0 -7.06,1.522 -9.25,4.531 -2.189,2.987 -3.281,7.142 -3.281,12.5 0,11.149 4.164,16.75 12.531,16.75 3.511,0 7.757,-0.901 12.75,-2.656 v 8.906 c -4.104,1.71 -8.688,2.563 -13.75,2.563 -7.273,0 -12.834,-2.193 -16.688,-6.594 -3.853,-4.423 -5.781,-10.778 -5.781,-19.03 0,-5.198 0.951,-9.726 2.844,-13.625 1.892,-3.922 4.622,-6.925 8.156,-9 3.557,-2.098 7.704,-3.156 12.469,-3.156"
       inkscape:connector-curvature="0"
       id="path55" />
    <path
       d="m 38.688,372.72 v 42.22 c 0.053,0.744 0.109,1.483 0.188,2.219 0.079,0.736 0.178,1.459 0.281,2.188 0.092,0.645 0.201,1.299 0.313,1.938 0.027,0.155 0.034,0.314 0.063,0.469 0.248,1.365 0.542,2.699 0.875,4.03 0.139,0.554 0.284,1.108 0.438,1.656 0.079,0.282 0.167,0.563 0.25,0.844 0.163,0.555 0.353,1.108 0.531,1.656 0.443,1.364 0.906,2.711 1.438,4.03 0.266,0.66 0.557,1.32 0.844,1.969 0.285,0.645 0.569,1.304 0.875,1.938 0.308,0.637 0.64,1.25 0.969,1.875 0.285,0.543 0.575,1.092 0.875,1.625 0.116,0.207 0.225,0.42 0.344,0.625 0.28,0.485 0.582,0.961 0.875,1.438 0.368,0.599 0.738,1.196 1.125,1.781 0.387,0.585 0.781,1.147 1.188,1.719 0.406,0.572 0.825,1.13 1.25,1.688 0.425,0.557 0.87,1.114 1.313,1.656 0.066,0.081 0.121,0.17 0.188,0.25 0.379,0.459 0.765,0.896 1.156,1.344 0.46,0.527 0.929,1.051 1.406,1.563 1.873,2.01 3.881,3.908 6,5.656 0.04,0.033 0.085,0.061 0.125,0.094 0.092,0.075 0.189,0.144 0.281,0.219 0.613,0.497 1.212,0.995 1.844,1.469 0.143,0.107 0.293,0.206 0.438,0.313 0.36,0.266 0.728,0.523 1.094,0.781 1.609,1.135 3.285,2.204 5,3.188 0.611,0.35 1.22,0.701 1.844,1.031 0.624,0.33 1.239,0.628 1.875,0.938 0.636,0.31 1.29,0.617 1.938,0.906 7.872,3.507 16.578,5.469 25.781,5.469 h 40.06 v -1.844 -6.563 -92.37 H 38.693 m 30.781,24.469 h 15.719 c 8.162,0 14.486,2.16 19,6.469 4.514,4.309 6.781,10.333 6.781,18.06 0,8.231 -2.366,14.529 -7.06,18.906 -4.674,4.378 -11.435,6.563 -20.281,6.563 H 69.477 v -50 m 10.625,8.688 v 32.563 h 4.531 c 10.214,0 15.312,-5.502 15.313,-16.469 0,-10.739 -4.734,-16.09 -14.219,-16.09 h -5.625"
       inkscape:connector-curvature="0"
       id="path57" />
  </g>
  <text
     x="1556.806"
     y="160.41624"
     id="text63"
     style="font-size:128.501px;line-height:125%;font-family:'Gentium Book Basic';letter-spacing:0;word-spacing:0;stroke-width:0.994354"
     transform="scale(0.99199058,1.0080741)"><tspan
       x="1556.806"
       y="160.41624"
       id="tspan65"
       style="stroke-width:0.994354" /></text>
  <text
     x="583.92712"
     y="296.55457"
     transform="scale(3.98068,0.25121336)"
     id="text67"
     style="font-size:46.6887px;font-family:Arial;text-anchor:middle;stroke-width:0.99435" />
  <text
     x="2134.7949"
     y="80.867828"
     id="text69"
     style="font-size:128.501px;line-height:125%;font-family:'Gentium Book Basic';letter-spacing:0;word-spacing:0;stroke-width:0.994354"
     transform="scale(0.99199058,1.0080741)"><tspan
       x="2134.7949"
       y="80.867828"
       id="tspan71"
       style="stroke-width:0.994354" /></text>
  <text
     x="727.94879"
     y="-22.663622"
     transform="scale(3.98068,0.25121336)"
     id="text73"
     style="font-size:46.6887px;font-family:Arial;text-anchor:middle;stroke-width:0.99435" />
  <text
     x="1069.2637"
     y="-99.369011"
     id="text75"
     style="font-size:128.501px;line-height:125%;font-family:'Gentium Book Basic';letter-spacing:0;word-spacing:0;stroke-width:0.994354"
     transform="scale(0.99199058,1.0080741)"><tspan
       x="1069.2637"
       y="-99.369011"
       id="tspan77"
       style="stroke-width:0.994354" /></text>
  <text
     x="462.4274"
     y="-745.91217"
     transform="scale(3.98068,0.25121336)"
     id="text79"
     style="font-size:46.6887px;font-family:Arial;text-anchor:middle;stroke-width:0.99435" />
  <text
     x="2161.1155"
     y="-314.6171"
     id="text81"
     style="font-size:128.501px;line-height:125%;font-family:'Gentium Book Basic';letter-spacing:0;word-spacing:0;stroke-width:0.994354"
     transform="scale(0.99199058,1.0080741)"><tspan
       x="2161.1155"
       y="-314.6171"
       id="tspan83"
       style="stroke-width:0.994354" /></text>
  <text
     x="734.51147"
     y="-1609.6644"
     transform="scale(3.98068,0.25121336)"
     id="text85"
     style="font-size:46.6887px;font-family:Arial;text-anchor:middle;stroke-width:0.99435" />
  <text
     x="2739.1042"
     y="-394.17545"
     id="text87"
     style="font-size:128.501px;line-height:125%;font-family:'Gentium Book Basic';letter-spacing:0;word-spacing:0;stroke-width:0.994354"
     transform="scale(0.99199058,1.0080741)"><tspan
       x="2739.1042"
       y="-394.17545"
       id="tspan89"
       style="stroke-width:0.994354" /></text>
  <text
     x="878.54315"
     y="-1928.8909"
     transform="scale(3.98068,0.25121336)"
     id="text91"
     style="font-size:46.6887px;font-family:Arial;text-anchor:middle;stroke-width:0.99435" />
  <text
     x="2352.1804"
     y="-863.90875"
     id="text93"
     style="font-size:128.501px;line-height:125%;font-family:'Gentium Book Basic';letter-spacing:0;word-spacing:0;stroke-width:0.994354"
     transform="scale(0.99199058,1.0080741)"><tspan
       x="2352.1804"
       y="-863.90875"
       id="tspan95"
       style="stroke-width:0.994354" /></text>
  <text
     x="782.12091"
     y="-3813.8306"
     transform="scale(3.98068,0.25121336)"
     id="text97"
     style="font-size:46.6887px;font-family:Arial;text-anchor:middle;stroke-width:0.99435" />
  <text
     x="2930.1597"
     y="-943.45721"
     id="text99"
     style="font-size:128.501px;line-height:125%;font-family:'Gentium Book Basic';letter-spacing:0;word-spacing:0;stroke-width:0.994354"
     transform="scale(0.99199058,1.0080741)"><tspan
       x="2930.1597"
       y="-943.45721"
       id="tspan101"
       style="stroke-width:0.994354" /></text>
  <text
     x="926.15253"
     y="-4133.0469"
     transform="scale(3.98068,0.25121336)"
     id="text103"
     style="font-size:46.6887px;font-family:Arial;text-anchor:middle;stroke-width:0.99435" />
  <text
     x="1107.7054"
     y="463.27698"
     id="text105"
     style="font-size:207.155px;line-height:125%;font-family:'Gentium Book Basic';letter-spacing:0;word-spacing:0;stroke-width:0.994354"
     transform="scale(0.99199058,1.0080741)"><tspan
       x="1107.7054"
       y="463.27698"
       id="tspan107"
       style="stroke-width:0.994354" /></text>
  <g
     transform="matrix(0.98639108,0,0,1.0023838,4.333836,-7.3606094)"
     id="g109"
     style="fill:#ffffff">
    <path
       d="m 334.4,103.5 c 0,0 -2.751,1.42 -5.306,4.51 -1.919,1.092 -6.503,4.215 -8.05,9.728 l -1.503,-0.708 c 0.719,-1.545 1.791,-3.16 3.095,-4.864 0,0 -1.894,1.774 -3.626,4.599 l -2.919,-1.503 c 0.801,-1.624 1.878,-3.303 3.449,-4.953 0,0 -1.534,1.195 -3.184,3.272 0.504,-1.916 0.429,-4.119 -5.483,2.299 0,0 -26.44,11.45 -34.14,35.29 0,0 -4.488,10.802 1.503,42.36 -8.524,-3.968 -2.713,16.867 -2.742,16.892 0.852,5.538 3.187,7.919 4.599,8.932 3.356,28.08 27.545,57.13 49.44,57.13 25.17,0 49.07,-30.552 52.799,-57.13 1.438,-1.01 3.719,-3.394 4.599,-8.932 0,0 5.422,-19.269 -1.769,-17.246 2.502,-7.415 10.761,-36.26 -5.218,-54.21 0,0 -7.396,-10.185 -25.559,-15.565 -0.64,-0.535 -1.252,-1.085 -1.946,-1.592 0,0 0.387,0.44 0.973,1.238 -1.039,-0.32 -2.126,-0.53 -3.272,-0.796 -0.931,-1.039 -1.968,-2.126 -3.272,-3.272 0,0 1.029,1.205 2.388,3.095 -0.478,-0.108 -0.883,-0.246 -1.415,-0.354 -0.826,-1.279 -1.845,-2.587 -3.095,-3.891 0,0 0.573,0.966 1.238,2.565 -3.331,-2.425 -10.08,-8.02 -10.08,-14.416 0,0 -4.157,1.915 -6.633,5.483 1.01,-2.939 2.522,-5.679 5.13,-7.96 m 34.757,162.02 c -44.23,87.04 -77.83,0.177 -77.83,0.177 -3.113,11.765 -48.554,25.648 -48.554,25.648 -13.327,5.114 -19.01,12.735 -19.01,12.735 -19.63,29.16 -21.961,94.19 -21.933,94.19 0.266,14.807 6.633,16.361 6.633,16.361 45.25,20.241 116.21,23.79 116.21,23.79 72.895,1.542 126.03,-20.695 126.03,-20.695 7.698,-4.822 7.96,-8.667 7.96,-8.667 5.326,-46.555 -17.688,-99.05 -17.688,-99.05 -6.925,-15.314 -49.17,-28.655 -49.17,-28.655 -21.818,-7.677 -22.613,-15.38 -22.641,-15.831"
       inkscape:connector-curvature="0"
       id="path111"
       style="opacity:0.2;fill:#ffffff" />
    <path
       d="m 319.4,88.5 c 0,0 -2.751,1.42 -5.306,4.51 -1.919,1.092 -6.503,4.215 -8.05,9.728 l -1.503,-0.708 c 0.719,-1.545 1.791,-3.16 3.095,-4.864 0,0 -1.894,1.774 -3.626,4.599 l -2.919,-1.503 c 0.801,-1.624 1.878,-3.303 3.449,-4.953 0,0 -1.534,1.195 -3.184,3.272 0.504,-1.916 0.429,-4.119 -5.483,2.299 0,0 -26.44,11.45 -34.14,35.29 0,0 -4.488,10.802 1.503,42.36 -8.524,-3.968 -2.713,16.867 -2.742,16.892 0.852,5.538 3.187,7.919 4.599,8.932 3.356,28.08 27.545,57.13 49.44,57.13 25.17,0 49.07,-30.552 52.799,-57.13 1.438,-1.01 3.719,-3.394 4.599,-8.932 0,0 5.422,-19.269 -1.769,-17.246 2.502,-7.415 10.761,-36.26 -5.218,-54.21 0,0 -7.396,-10.185 -25.559,-15.565 -0.64,-0.535 -1.252,-1.085 -1.946,-1.592 0,0 0.387,0.44 0.973,1.238 -1.039,-0.32 -2.126,-0.53 -3.272,-0.796 -0.931,-1.039 -1.968,-2.126 -3.272,-3.272 0,0 1.029,1.205 2.388,3.095 -0.478,-0.108 -0.883,-0.246 -1.415,-0.354 -0.826,-1.279 -1.845,-2.587 -3.095,-3.891 0,0 0.573,0.966 1.238,2.565 -3.331,-2.425 -10.08,-8.02 -10.08,-14.416 0,0 -4.157,1.915 -6.633,5.483 1.01,-2.939 2.522,-5.679 5.13,-7.96 m 34.757,162.02 c -44.23,87.04 -77.83,0.177 -77.83,0.177 -3.113,11.765 -48.554,25.648 -48.554,25.648 -13.327,5.114 -19.01,12.735 -19.01,12.735 -19.63,29.16 -21.961,94.19 -21.933,94.19 0.266,14.807 6.633,16.361 6.633,16.361 45.25,20.241 116.21,23.79 116.21,23.79 72.895,1.542 126.03,-20.695 126.03,-20.695 7.698,-4.822 7.96,-8.667 7.96,-8.667 5.326,-46.555 -17.688,-99.05 -17.688,-99.05 -6.925,-15.314 -49.17,-28.655 -49.17,-28.655 -21.818,-7.677 -22.613,-15.38 -22.641,-15.831"
       inkscape:connector-curvature="0"
       id="path113"
       style="fill:#ffffff" />
  </g>
  <path
     style="opacity:0.284981;fill:#ffffff;stroke-width:1.16236"
     d="m 42.715897,122.89664 c 0.727936,-17.40335 2.31154,-24.510288 8.02857,-36.030878 4.344605,-8.754981 15.317798,-19.854068 24.519428,-24.800749 11.807888,-6.347775 18.296208,-7.422006 44.828795,-7.422006 h 23.75917 V 96.825522 139.00803 H 92.946933 42.042 Z m 40.164246,-14.06083 1.69737,-5.56574 8.75634,-0.33992 8.756317,-0.33991 1.39415,5.90565 1.39415,5.90567 h 6.22673 c 3.42468,0 6.22672,-0.2122 6.22672,-0.47158 0,-0.25938 -3.16494,-9.61862 -7.03317,-20.798318 -3.86824,-11.179713 -7.80852,-22.567687 -8.7562,-25.306622 l -1.723047,-4.979877 h -6.64637 -6.6464 l -8.413222,24.313529 c -4.627279,13.372428 -8.647869,24.972628 -8.934652,25.778198 -0.376289,1.05699 1.221714,1.46467 5.741241,1.46467 h 6.262653 z"
     id="path345" />
  <path
     style="opacity:0.284981;fill:#ffffff;stroke-width:1.16236"
     d="m 42.384209,201.11005 v -50.38467 h 50.733834 50.733817 v 50.38467 50.38465 H 93.118043 42.384209 Z m 62.019381,23.44653 c 8.61928,-3.9754 10.97796,-16.04541 4.2897,-21.95165 -2.93628,-2.59295 -2.93973,-2.61791 -0.67975,-4.91453 3.10421,-3.15453 4.15527,-9.63782 2.22179,-13.70469 -2.79186,-5.87235 -7.75969,-7.73376 -22.391277,-8.38992 l -13.174674,-0.59082 v 25.94163 25.94164 l 12.395184,-0.0258 c 9.77913,-0.0204 13.438627,-0.50699 17.339027,-2.30594 z"
     id="path384" />
  <path
     style="opacity:0.284981;fill:#ffffff;stroke-width:1.16236"
     d="M 42.384209,314.76847 V 264.3838 h 50.733834 50.733817 v 50.38467 50.38466 H 93.118043 42.384209 Z M 107.456,339.40393 c 2.5164,-0.97226 2.95767,-1.86524 2.95767,-5.9857 0,-4.42873 -0.22192,-4.78885 -2.59436,-4.21008 -11.669577,2.84681 -17.004317,1.77664 -19.944337,-4.00092 -2.02522,-3.97983 -2.20299,-16.18173 -0.29766,-20.43126 1.47412,-3.28778 6.32238,-6.41181 9.95066,-6.41181 1.22011,0 4.321037,0.75389 6.890957,1.6753 4.63453,1.66168 4.68168,1.64975 5.79222,-1.46468 0.61583,-1.72697 1.45371,-3.97268 1.86197,-4.99047 1.57204,-3.91908 -16.326447,-6.46586 -24.143767,-3.43542 -8.841163,3.42734 -13.698446,12.1209 -13.755468,24.61958 -0.07862,17.22147 7.383908,25.72083 22.616478,25.75893 4.239367,0.01 9.038927,-0.49497 10.665637,-1.12347 z"
     id="path423" />
  <path
     style="opacity:0.284981;fill:#ffffff;stroke-width:1.16236"
     d="M 89.658903,472.2598 C 70.019343,466.96235 54.46436,452.85061 46.813567,433.38983 44.391202,427.22823 44.138497,424.501 43.775096,400.59815 L 43.37873,374.52701 h 50.236563 50.236567 v 49.79879 49.7988 l -23.9256,-0.077 c -17.09862,-0.0552 -25.735177,-0.56523 -30.267357,-1.7877 z m 9.22434,-25.23234 c 10.393827,-3.67882 14.989537,-11.05519 14.989537,-24.05902 0,-11.38029 -3.14471,-17.35452 -11.45821,-21.76797 -5.521647,-2.9313 -7.237477,-3.23873 -18.076007,-3.23873 h -11.97527 v 25.9552 25.95522 l 11.24216,-0.70816 c 6.18318,-0.38947 13.05818,-1.35093 15.27779,-2.13654 z"
     id="path462" />
  <path
     style="opacity:0.284981;fill:#ffffff;stroke-width:1.16236"
     d="M 42.948551,125.24011 C 44.499902,98.266302 48.799357,86.473642 61.852765,73.389202 76.702468,58.504199 84.506983,55.983475 118.77321,55.004896 l 25.07865,-0.7162 V 96.648352 139.00803 H 93.004293 42.156717 Z m 39.841982,-15.23256 c 0.75996,-2.4167 1.70823,-4.73628 2.10724,-5.1546 0.39901,-0.41832 4.42273,-1.12435 8.94156,-1.56895 l 8.216077,-0.80837 1.01479,5.67003 1.01478,5.67003 6.62347,0.35141 c 4.86664,0.25819 6.60676,-0.0526 6.56049,-1.17174 -0.0346,-0.83775 -3.85338,-12.3324 -8.48614,-25.543738 l -8.42321,-24.020593 h -7.219467 -7.2195 l -8.50823,24.575213 c -4.679526,13.516358 -8.508225,24.984718 -8.508225,25.485258 0,0.50052 2.813532,0.91006 6.252309,0.91006 6.210546,0 6.261536,-0.0293 7.634056,-4.39401 z"
     id="path501" />
  <path
     style="opacity:0.284981;fill:#ffffff;stroke-width:1.16236"
     d="m 42.384209,201.11005 v -50.38467 h 50.733834 50.733817 v 50.38467 50.38465 H 93.118043 42.384209 Z m 61.899531,23.50107 c 8.44972,-3.89852 11.15438,-14.17961 5.52023,-20.98396 l -2.91577,-3.52138 2.33494,-3.89189 c 3.19807,-5.33052 2.99467,-10.542 -0.57989,-14.859 -3.36789,-4.06743 -9.261767,-5.59518 -24.461277,-6.34067 l -9.512594,-0.46656 v 26.17028 26.1703 l 12.395184,-0.0258 c 9.67497,-0.02 13.453877,-0.51418 17.219177,-2.2514 z"
     id="path540" />
  <path
     style="opacity:0.284981;fill:#ffffff;stroke-width:1.16236"
     d="M 42.384209,314.76847 V 264.3838 h 50.733834 50.733817 v 50.38467 50.38466 H 93.118043 42.384209 Z m 65.799181,24.56523 c 1.62743,-0.88511 2.23028,-2.46464 2.23028,-5.84373 v -4.63077 l -8.35956,0.71237 c -7.118297,0.60662 -8.753357,0.38694 -11.011777,-1.4796 -3.24654,-2.6832 -5.2399,-10.94598 -4.19246,-17.3783 1.04674,-6.42811 2.27666,-8.49435 6.32122,-10.61979 3.32157,-1.7455 7.382357,-1.35923 14.374337,1.36736 1.04096,0.40593 2.22393,-0.89447 3.38699,-3.72321 2.42079,-5.88767 2.37745,-6.02462 -2.41408,-7.63162 -5.98736,-2.00804 -17.719807,-1.77519 -21.925937,0.43513 -9.777842,5.13831 -14.482769,17.12134 -12.180138,31.02183 1.39376,8.41385 5.013682,14.09427 10.841598,17.01272 4.38629,2.19652 19.373297,2.69171 22.929527,0.75761 z"
     id="path579" />
  <path
     style="opacity:0.284981;fill:#ffffff;stroke-width:1.16236"
     d="M 100.03628,472.93808 C 77.391885,471.23049 59.845558,459.11065 49.640967,438.1283 45.40218,429.41264 45.353496,429.14797 44.544434,410.42289 44.095159,400.02474 43.684747,387.6944 43.632409,383.0221 l -0.09515,-8.49509 h 50.157304 50.157297 v 49.79879 49.7988 l -16.43083,-0.18026 c -9.03697,-0.099 -21.36011,-0.55197 -27.38475,-1.00626 z m -7.054677,-24.60067 c 14.444877,-2.07205 20.818417,-9.77802 20.865857,-25.22798 0.0349,-11.32461 -3.06812,-17.54201 -10.92857,-21.89804 -5.251417,-2.91019 -6.869847,-3.19734 -18.160397,-3.22228 l -12.3952,-0.0274 v 26.16754 26.16753 l 6.629985,-0.45194 c 3.646495,-0.24854 9.941235,-0.92691 13.988325,-1.50746 z"
     id="path618" />
  <path
     style="opacity:0.284981;fill:#ffffff;stroke-width:1.16236"
     d="M 42.920582,128.75533 C 45.306043,95.855472 49.103016,86.078742 65.4784,70.671838 78.376774,58.536296 85.425253,56.630084 122.80886,55.167223 l 21.043,-0.823436 V 96.675902 139.00803 H 93.014523 42.177195 Z m 40.339551,-18.85341 c 1.60139,-4.85205 2.8771,-5.55052 11.77146,-6.44523 l 7.102247,-0.71442 0.78899,5.82964 0.78897,5.82965 h 6.93505 6.93506 l -0.76009,-3.22228 c -0.84051,-3.5632 -12.71365,-38.468279 -15.16505,-44.582822 -1.54636,-3.857007 -1.56452,-3.864268 -8.791527,-3.51521 l -7.24197,0.349781 -8.30228,24.020593 c -4.566249,13.211338 -8.328049,24.705988 -8.359556,25.543738 -0.04202,1.11682 1.685309,1.42939 6.474851,1.17174 6.266835,-0.33715 6.584575,-0.51037 7.823845,-4.26518 z"
     id="path657" />
  <path
     style="opacity:0.284981;fill:#ffffff;stroke-width:1.16236"
     d="m 42.384209,201.11005 v -50.38467 h 50.733834 50.733817 v 50.38467 50.38465 H 93.118043 42.384209 Z m 61.899531,23.50107 c 7.9832,-3.68327 11.07328,-13.91924 6.12993,-20.3056 -2.762,-3.56824 -2.81068,-4.28789 -0.58363,-8.62729 4.32469,-8.4267 0.11144,-16.84145 -9.51267,-18.99876 -3.008377,-0.67435 -10.009857,-1.5644 -15.558877,-1.97791 l -10.089114,-0.75181 v 26.46924 26.46925 l 12.395184,-0.0258 c 9.67497,-0.02 13.453877,-0.51418 17.219177,-2.2514 z"
     id="path696" />
  <path
     style="opacity:0.284981;fill:#ffffff;stroke-width:1.16236"
     d="M 42.384209,314.76847 V 264.3838 h 50.733834 50.733817 v 50.38467 50.38466 H 93.118043 42.384209 Z m 65.799181,24.56523 c 1.64943,-0.89704 2.23028,-2.46671 2.23028,-6.02694 v -4.81399 l -8.00484,0.75603 c -7.327127,0.69205 -8.273397,0.52125 -11.177607,-2.01732 -2.73893,-2.39414 -3.2395,-3.83808 -3.66066,-10.55938 -0.95423,-15.2288 4.51287,-19.6049 19.098097,-15.28692 2.18563,0.64707 2.87017,0.10368 4.3239,-3.43196 0.94995,-2.3104 1.72718,-4.68098 1.72718,-5.26797 0,-3.43717 -18.686317,-5.48582 -25.393007,-2.78391 -17.517176,7.05708 -18.324192,42.38394 -1.12695,49.33213 3.84883,1.55502 19.180127,1.62492 21.983607,0.10015 z"
     id="path735" />
  <path
     style="opacity:0.284981;fill:#ffffff;stroke-width:1.16236"
     d="M 109.83714,472.90074 C 90.585733,471.96487 81.511403,469.73118 71.971281,463.57995 63.293213,457.98454 55.401593,448.8036 50.347729,438.42356 l -4.581961,-9.41079 -1.083986,-24.60648 c -0.596191,-13.53356 -1.097607,-25.79284 -1.114257,-27.24286 l -0.03027,-2.63642 h 50.157308 50.157297 v 49.79879 49.7988 l -8.35953,-0.19153 c -4.59777,-0.10534 -16.14259,-0.56988 -25.65519,-1.03233 z M 85.925943,449.42465 c 16.521497,-1.87212 21.820467,-4.62282 25.778287,-13.38147 2.88054,-6.37466 2.86621,-19.41686 -0.0285,-25.89414 -4.01062,-8.97429 -11.19724,-12.1873 -27.259777,-12.1873 H 72.363275 v 26.36406 c 0,17.46137 0.404706,26.36409 1.198485,26.36409 0.659164,0 6.223047,-0.56937 12.364163,-1.26524 z"
     id="path774" />
</svg>
