<?xml version="1.0" encoding="UTF-8" standalone="no"?>
<!-- Created with Inkscape (http://www.inkscape.org/) -->

<svg
   version="1.1"
   width="100%"
   height="100%"
   viewBox="0 0 512 512"
   id="svg2"
   sodipodi:docname="atom.svg"
   inkscape:version="1.1 (c68e22c387, 2021-05-23)"
   xmlns:inkscape="http://www.inkscape.org/namespaces/inkscape"
   xmlns:sodipodi="http://sodipodi.sourceforge.net/DTD/sodipodi-0.dtd"
   xmlns:xlink="http://www.w3.org/1999/xlink"
   xmlns="http://www.w3.org/2000/svg"
   xmlns:svg="http://www.w3.org/2000/svg"
   xmlns:rdf="http://www.w3.org/1999/02/22-rdf-syntax-ns#"
   xmlns:cc="http://creativecommons.org/ns#"
   xmlns:dc="http://purl.org/dc/elements/1.1/">
  <sodipodi:namedview
     id="namedview39"
     pagecolor="#ffffff"
     bordercolor="#666666"
     borderopacity="1.0"
     inkscape:pageshadow="2"
     inkscape:pageopacity="0.0"
     inkscape:pagecheckerboard="0"
     showgrid="false"
     inkscape:zoom="0.85546874"
     inkscape:cx="244.31051"
     inkscape:cy="215.08676"
     inkscape:window-width="1366"
     inkscape:window-height="700"
     inkscape:window-x="0"
     inkscape:window-y="0"
     inkscape:window-maximized="1"
     inkscape:current-layer="svg2" />
  <metadata
     id="metadata65">
    <rdf:RDF>
      <cc:Work
         rdf:about="">
        <dc:format>image/svg+xml</dc:format>
        <dc:type
           rdf:resource="http://purl.org/dc/dcmitype/StillImage" />
      </cc:Work>
    </rdf:RDF>
  </metadata>
  <defs
     id="defs4">
    <filter
       color-interpolation-filters="sRGB"
       id="7"
       x="-0.018107638"
       y="-0.017892786"
       width="1.0362153"
       height="1.0357856">
      <feGaussianBlur
         id="feGaussianBlur7"
         stdDeviation="3.7725" />
    </filter>
    <linearGradient
       y1="19.563999"
       x2="0"
       y2="504.01999"
       id="8"
       gradientUnits="userSpaceOnUse">
      <stop
         id="stop10"
         style="stop-color:#f3f3f3;stop-opacity:1"
         offset="0" />
      <stop
         id="stop12"
         style="stop-color:#eeeeee;stop-opacity:1"
         offset="0.5" />
      <stop
         id="stop14"
         style="stop-color:#ebebeb;stop-opacity:1"
         offset="1" />
    </linearGradient>
    <linearGradient
       x1="257"
       x2="362"
       id="5"
       xlink:href="#0"
       gradientUnits="userSpaceOnUse"
       gradientTransform="matrix(1.02835,0,0,1.46193,-383.73694,-115.70205)" />
    <linearGradient
       x1="257"
       x2="362"
       id="6"
       xlink:href="#0"
       gradientUnits="userSpaceOnUse"
       gradientTransform="matrix(1.0381,0,0,1.46193,-467.2489,-124.14041)" />
    <linearGradient
       x1="257"
       x2="362"
       id="4"
       xlink:href="#0"
       gradientUnits="userSpaceOnUse"
       gradientTransform="matrix(1.02835,0,0,1.46193,-610.00374,-127.97146)" />
    <linearGradient
       x1="257"
       x2="362"
       id="3"
       xlink:href="#0"
       gradientUnits="userSpaceOnUse"
       gradientTransform="matrix(1.0381,0,0,1.46193,-427.0919,-112.11041)" />
    <linearGradient
       id="0">
      <stop
         id="stop21"
         style="stop-color:#000000;stop-opacity:1"
         offset="0" />
      <stop
         id="stop23"
         style="stop-color:#ffffff;stop-opacity:1"
         offset="1" />
    </linearGradient>
    <linearGradient
       x1="257"
       x2="362"
       id="2"
       xlink:href="#0"
       gradientUnits="userSpaceOnUse"
       gradientTransform="matrix(1.0381,0,0,1.46193,-467.2489,-112.11041)" />
    <linearGradient
       x1="257"
       x2="362"
       id="1"
       xlink:href="#0"
       gradientUnits="userSpaceOnUse"
       gradientTransform="matrix(1.0381,0,0,1.46193,-467.2529,-112.11041)" />
    <linearGradient
       id="0-3"
       gradientUnits="userSpaceOnUse"
       y1="76.760002"
       x2="0"
       y2="27.959">
      <stop
         stop-color="#dce2ff"
         id="stop4" />
      <stop
         offset="1"
         stop-color="#f8feff"
         id="stop6" />
    </linearGradient>
    <linearGradient
       id="linearGradient856"
       gradientUnits="userSpaceOnUse"
       y1="76.760002"
       x2="0"
       y2="27.959">
      <stop
         stop-color="#dce2ff"
         id="stop852" />
      <stop
         offset="1"
         stop-color="#f8feff"
         id="stop854" />
    </linearGradient>
    <linearGradient
       xlink:href="#linearGradient856"
       id="2-6"
       y1="22.129999"
       x2="0"
       y2="52.130001"
       gradientUnits="userSpaceOnUse"
       gradientTransform="matrix(10.554782,0,0,10.433413,-1326.3809,-421.73059)" />
    <linearGradient
       id="1-7">
      <stop
         stop-color="#00a199"
         id="stop9" />
      <stop
         offset="1"
         stop-color="#00f89a"
         stop-opacity=".988"
         id="stop11" />
    </linearGradient>
    <linearGradient
       xlink:href="#linearGradient856"
       id="3-5"
       y1="32.130001"
       x2="0"
       y2="47.130001"
       gradientUnits="userSpaceOnUse"
       gradientTransform="matrix(10.554782,0,0,10.433413,-1326.3809,-421.73059)" />
    <linearGradient
       inkscape:collect="always"
       xlink:href="#1-7"
       id="linearGradient891"
       x1="38.5"
       y1="256"
       x2="473.5"
       y2="256"
       gradientUnits="userSpaceOnUse"
       gradientTransform="matrix(1.0023954,0,0,0.98700695,-513.38326,4.0422346)" />
  </defs>
  <rect
     width="436.04199"
     height="429.34799"
     rx="63.351383"
     x="-474.79099"
     y="42.042"
     id="rect33"
     style="fill:url(#linearGradient891);fill-opacity:1;stroke-width:0.994672"
     transform="rotate(-90)" />
  <g
     transform="matrix(0.98699707,0,0,1.0023853,709.19606,273.47151)"
     enable-background="new"
     id="g22">
    <path
       d="m -397.27972,144.59965 c -27.46355,-4.45506 -63.13872,-35.58837 -95.73189,-83.394258 -13.64732,-20.053025 -27.62186,-44.83238 -36.7623,-65.1462388 -1.79432,-4.0898925 -2.50149,-5.0497715 -3.05033,-4.4550615 -1.08715,1.1267995 -9.07712,18.2167317 -13.26737,28.4310463 -7.0717,17.20469 -12.01134,33.553863 -14.84002,49.297876 -1.84709,9.890872 -1.9632,29.025756 -0.27444,34.993666 3.91582,13.76167 12.45463,19.57307 25.78533,17.30902 9.61541,-1.60674 21.21511,-6.77128 33.55366,-15.05541 5.44626,-3.66213 6.90282,-4.309 9.02434,-4.309 3.26142,0 5.65736,1.72152 6.79728,4.8411 0.77049,2.08669 0.77049,2.73356 0,4.73678 -0.77051,1.99278 -2.01597,3.11959 -7.77888,6.93821 -7.98997,5.38364 -21.70063,12.25927 -28.61402,14.46072 -18.3231,5.81141 -32.57206,3.66212 -42.64132,-6.34352 -9.24599,-9.19184 -13.05627,-24.02816 -11.86358,-44.780198 1.45657,-26.928642 13.60512,-63.758592 32.51928,-99.87906 l 4.72855,-9.024906 -3.58863,-9.619604 c -3.48307,-9.191838 -10.21702,-30.486434 -10.21702,-32.093185 0,-1.178974 -2.05818,-0.907706 -11.20918,1.293744 -20.87736,5.049772 -36.38234,11.56022 -47.47542,19.792179 -21.85895,16.234401 -16.09603,34.513729 16.63434,52.688746 5.22462,2.96308 6.41731,4.5176704 6.41731,8.378034 0,1.992778 -0.37997,2.796148 -2.05818,4.455061 -3.58863,3.547356 -6.90283,2.796161 -17.9959,-3.975134 -15.97994,-9.8387105 -26.10198,-20.9711526 -29.69061,-32.792219 -1.30879,-4.308986 -1.30879,-12.947866 0,-17.309026 1.84709,-6.291342 5.05574,-11.288952 10.81865,-16.985596 12.83462,-12.801791 34.20805,-22.640506 63.43424,-29.244868 5.98456,-1.345894 7.33558,-1.825833 7.12448,-2.587476 -0.16885,-0.532102 -0.87605,-3.870799 -1.57266,-7.52249 -3.96859,-21.075502 -4.07415,-45.260152 -0.27444,-58.708812 4.40135,-15.43102 12.34909,-24.67502 25.01484,-28.96316 5.16128,-1.72151 15.54719,-1.43981 22.6189,0.64687 7.18781,2.08668 15.97994,6.39568 23.82215,11.61238 9.35154,6.17659 12.12745,8.76408 12.49686,11.7689 0.87604,6.87561 -6.24843,10.60035 -12.12745,6.22874 -18.37587,-13.4904 -31.49548,-18.69667 -42.0397,-16.49522 -7.67333,1.60675 -13.48902,9.35877 -16.42324,21.8267 -1.1927,4.94544 -1.36157,7.30339 -1.36157,19.62526 0,14.03293 0.22165,16.23438 2.76535,30.903764 l 1.30879,7.365993 3.05034,-0.375579 c 14.09063,-1.669348 26.21808,-2.848322 33.6592,-3.2761 l 8.86603,-0.479928 1.45655,-1.72151 c 15.00891,-19.03054 36.7623,-41.28502 53.30165,-54.39981 31.60102,-25.05063 58.6846,-33.75209 77.3349,-24.84197 10.55478,4.99761 17.18318,15.31626 19.80076,30.59077 1.68877,9.95348 0.31666,33.55386 -2.27983,40.21038 -0.87604,2.253625 -3.79972,3.92296 -6.9556,3.92296 -1.96319,0 -2.99756,-0.375579 -4.50689,-1.773675 -1.84708,-1.554575 -1.96319,-2.034515 -1.96319,-5.216705 0,-1.88846 0.48551,-7.36599 1.08715,-12.09234 1.7943,-13.76167 0.53829,-26.66779 -3.1981,-34.03378 -1.91042,-3.60996 -5.65738,-7.41816 -8.98213,-8.97274 -2.44871,-1.24158 -3.79972,-1.40851 -9.46763,-1.40851 -6.10066,0 -7.2828,0.21912 -13.15127,2.25362 -18.42865,6.22875 -39.53821,21.17983 -62.27322,44.01857 -4.40133,4.40289 -10.81864,11.28895 -14.40727,15.431015 l -6.68118,7.418158 5.71014,0.166945 c 79.94193,1.888455 147.3131,20.05303 179.07245,48.22323 7.12447,6.343529 13.32013,15.7962 15.06166,23.172615 0.91827,3.756027 0.97105,11.0281187 0.0526,14.888482 -3.26143,14.2937717 -19.19915,28.431046 -42.43023,37.528984 -3.70473,1.439807 -4.40134,1.554577 -6.47007,0.959879 -3.1981,-0.959879 -5.33017,-3.662126 -5.33017,-6.875617 0,-3.808202 1.79431,-5.644483 8.47549,-8.440631 14.40728,-5.967912 25.61645,-14.3563807 29.85947,-22.4214069 1.5199,-2.7335513 1.68877,-3.8082014 1.68877,-8.2841321 0,-4.569832 -0.16885,-5.477538 -2.01595,-8.920571 -2.56482,-4.945436 -11.09308,-13.386066 -18.16479,-18.018494 -34.6934,-22.640552 -100.11194,-37.414281 -166.19543,-37.414281 h -10.87144 l -4.13747,5.477555 c -6.14289,8.231958 -19.46302,28.284983 -24.74041,37.24728 l -4.67577,7.898094 3.1981,7.303383 c 32.24486,73.138221 82.27453,134.935323 119.20572,147.319793 8.04274,2.58749 14.14341,2.62922 18.9775,0.27129 9.19322,-4.45507 14.05897,-16.01529 14.7978,-35.275363 1.19269,-32.312278 -10.55478,-76.977726 -32.46651,-123.156011 -2.27984,-4.788939 -3.65195,-8.44063 -3.65195,-9.786536 0,-3.870799 3.26142,-6.938227 7.2828,-6.875618 3.58862,0 5.16128,1.408515 7.93719,7.157321 17.77425,36.7673524 29.63783,73.659899 34.09195,105.899134 1.45657,10.79859 1.45657,32.90699 0,40.805083 -2.39594,12.63485 -6.63896,21.71192 -13.05626,28.17021 -7.88443,7.79376 -18.05923,10.74641 -30.12336,8.81623 M -525.00315,-51.924108 c 2.27983,-3.714301 6.68117,-10.266476 9.78428,-14.72155 3.10312,-4.517658 5.59403,-8.325859 5.59403,-8.597133 0,-0.813804 -28.49791,2.086685 -29.30007,2.900489 -0.4855,0.532101 1.13991,6.771295 4.93963,18.331515 2.65981,8.378021 3.53586,10.099531 4.13748,9.463106 0.43277,-0.479927 2.61758,-3.756027 4.84465,-7.365992"
       opacity="0.9"
       fill="url(#2)"
       id="path18"
       style="fill:#ffffff;fill-opacity:1;stroke-width:10.4939" />
    <path
       d="m -430.84393,-13.070088 c 0,11.3933002 -9.35154,20.6373 -20.87736,20.6373 -11.52582,0 -20.87736,-9.2439998 -20.87736,-20.6373 0,-11.393289 9.35154,-20.699885 20.87736,-20.699885 11.52582,0 20.87736,9.306596 20.87736,20.699885"
       opacity="0.9"
       fill="url(#3)"
       id="path20"
       style="fill:#ffffff;fill-opacity:1;stroke-width:10.4939" />
  </g>
</svg>
