<?xml version="1.0" encoding="UTF-8" standalone="no"?>
<!-- Created with Inkscape (http://www.inkscape.org/) -->

<svg
   version="1.1"
   width="100%"
   height="100%"
   viewBox="0 0 512 512"
   id="svg2"
   sodipodi:docname="browser-tor.svg"
   inkscape:version="1.1 (c68e22c387, 2021-05-23)"
   xmlns:inkscape="http://www.inkscape.org/namespaces/inkscape"
   xmlns:sodipodi="http://sodipodi.sourceforge.net/DTD/sodipodi-0.dtd"
   xmlns:xlink="http://www.w3.org/1999/xlink"
   xmlns="http://www.w3.org/2000/svg"
   xmlns:svg="http://www.w3.org/2000/svg"
   xmlns:rdf="http://www.w3.org/1999/02/22-rdf-syntax-ns#"
   xmlns:cc="http://creativecommons.org/ns#"
   xmlns:dc="http://purl.org/dc/elements/1.1/">
  <sodipodi:namedview
     id="namedview35"
     pagecolor="#ffffff"
     bordercolor="#666666"
     borderopacity="1.0"
     inkscape:pageshadow="2"
     inkscape:pageopacity="0.0"
     inkscape:pagecheckerboard="0"
     showgrid="false"
     inkscape:zoom="0.42773438"
     inkscape:cx="-46.75799"
     inkscape:cy="334.31963"
     inkscape:window-width="1366"
     inkscape:window-height="700"
     inkscape:window-x="0"
     inkscape:window-y="0"
     inkscape:window-maximized="1"
     inkscape:current-layer="svg2" />
  <metadata
     id="metadata59">
    <rdf:RDF>
      <cc:Work
         rdf:about="">
        <dc:format>image/svg+xml</dc:format>
        <dc:type
           rdf:resource="http://purl.org/dc/dcmitype/StillImage" />
      </cc:Work>
    </rdf:RDF>
  </metadata>
  <defs
     id="defs4">
    <filter
       color-interpolation-filters="sRGB"
       id="7"
       x="-0.018107638"
       y="-0.017892786"
       width="1.0362153"
       height="1.0357856">
      <feGaussianBlur
         id="feGaussianBlur7"
         stdDeviation="3.7725" />
    </filter>
    <linearGradient
       y1="19.563999"
       x2="0"
       y2="504.01999"
       id="8"
       gradientUnits="userSpaceOnUse">
      <stop
         id="stop10"
         style="stop-color:#f3f3f3;stop-opacity:1"
         offset="0" />
      <stop
         id="stop12"
         style="stop-color:#eeeeee;stop-opacity:1"
         offset="0.5" />
      <stop
         id="stop14"
         style="stop-color:#ebebeb;stop-opacity:1"
         offset="1" />
    </linearGradient>
    <linearGradient
       x1="257"
       x2="362"
       id="5"
       xlink:href="#0"
       gradientUnits="userSpaceOnUse"
       gradientTransform="matrix(1.02835,0,0,1.46193,-462.74151,-42.373288)" />
    <linearGradient
       x1="257"
       x2="362"
       id="6"
       xlink:href="#0"
       gradientUnits="userSpaceOnUse"
       gradientTransform="matrix(1.0381,0,0,1.46193,-559.70096,-87.496575)" />
    <linearGradient
       x1="257"
       x2="362"
       id="4"
       xlink:href="#0"
       gradientUnits="userSpaceOnUse"
       gradientTransform="matrix(1.02835,0,0,1.46193,-488.35096,-63.436575)" />
    <linearGradient
       x1="257"
       x2="362"
       id="3"
       xlink:href="#0"
       gradientUnits="userSpaceOnUse"
       gradientTransform="matrix(1.0381,0,0,1.46193,-490.85996,-63.436575)" />
    <linearGradient
       id="0">
      <stop
         id="stop21"
         style="stop-color:#000000;stop-opacity:1"
         offset="0" />
      <stop
         id="stop23"
         style="stop-color:#ffffff;stop-opacity:1"
         offset="1" />
    </linearGradient>
    <linearGradient
       x1="257"
       x2="362"
       id="2"
       xlink:href="#0"
       gradientUnits="userSpaceOnUse"
       gradientTransform="matrix(1.0381,0,0,1.46193,-500.02973,-122.90753)" />
    <linearGradient
       x1="257"
       x2="362"
       id="1"
       xlink:href="#0"
       gradientUnits="userSpaceOnUse"
       gradientTransform="matrix(1.0381,0,0,1.46193,-490.86096,-75.466575)" />
    <linearGradient
       id="1-3"
       gradientUnits="userSpaceOnUse"
       x1="62.599998"
       y1="11.846"
       x2="62.150002"
       y2="-35.476002">
      <stop
         stop-color="#197dec"
         id="stop7" />
      <stop
         offset="1"
         stop-color="#3fcffb"
         id="stop9" />
    </linearGradient>
    <linearGradient
       id="0-6"
       x1="64.459999"
       y1="13.252"
       x2="60.549999"
       y2="-36.791"
       gradientUnits="userSpaceOnUse">
      <stop
         stop-color="#0164c2"
         id="stop2" />
      <stop
         offset="1"
         stop-color="#00a9f3"
         id="stop4" />
    </linearGradient>
    <linearGradient
       inkscape:collect="always"
       xlink:href="#1-3"
       id="linearGradient965"
       x1="38.5"
       y1="256"
       x2="473.5"
       y2="256"
       gradientUnits="userSpaceOnUse"
       gradientTransform="matrix(1.0023953,0,0,0.98700701,-513.38326,4.0422307)" />
  </defs>
  <rect
     width="436.04199"
     height="429.34799"
     rx="63.351391"
     x="-474.79099"
     y="42.042"
     id="rect33"
     style="fill:url(#linearGradient965);fill-opacity:1;stroke-width:0.994672"
     transform="rotate(-90)" />
  <g
     transform="matrix(0.987007,0,0,1.0023954,555.64094,4.3688943)"
     id="g39"
     style="fill:#ffffff">
    <path
       d="M -128.26,248.13 C -133.754,164.51 -200.58,97.67 -284.19,92.18 V 91.8 h -11.167 -11.167 v 0.38 c -83.62,5.494 -150.46,72.34 -155.95,155.95 h -0.38 v 11.167 11.167 h 0.38 c 5.494,83.62 72.34,150.44 155.95,155.93 v 0.402 h 11.167 11.167 v -0.402 c 83.62,-5.494 150.44,-72.32 155.93,-155.93 h 0.402 V 259.297 248.13 h -0.402 M -358,128.31 c -10.787,14.338 -19.743,32.32 -26.26,52.818 h -33.455 c 14.561,-22.713 35.24,-41.09 59.719,-52.818 m -71.4,75.15 h 39.26 c -2.993,14.11 -4.891,29.1 -5.494,44.667 h -44.47 c 1.184,-15.723 4.891,-30.753 10.698,-44.667 m -10.698,67 h 44.47 c 0.603,15.566 2.501,30.552 5.494,44.667 h -39.26 c -5.807,-13.914 -9.514,-28.944 -10.698,-44.667 m 22.378,67 h 33.433 c 6.521,20.502 15.477,38.48 26.286,52.818 -24.477,-11.725 -45.16,-30.08 -59.719,-52.818 m 111.2,65.57 c -22.959,-6.142 -42.724,-30.798 -54.717,-65.57 h 54.717 v 65.57 m 0,-87.9 h -60.992 c -3.149,-13.914 -5.137,-28.944 -5.784,-44.667 h 66.777 v 44.667 m 0,-67 h -66.777 c 0.648,-15.723 2.635,-30.753 5.784,-44.667 h 60.992 v 44.667 m 0,-67 h -54.717 c 11.993,-34.773 31.758,-59.43 54.717,-65.55 v 65.55 m 133.53,0 h -33.411 c -6.544,-20.502 -15.477,-38.48 -26.309,-52.818 24.455,11.725 45.16,30.11 59.719,52.818 m -111.2,-65.55 c 22.936,6.119 42.724,30.775 54.717,65.55 h -54.717 v -65.55 m 0,87.88 h 60.97 c 3.171,13.914 5.114,28.944 5.807,44.667 h -66.777 V 203.46 m 0,67 h 66.777 c -0.648,15.723 -2.635,30.753 -5.807,44.667 h -60.97 V 270.46 m 0,132.57 v -65.57 h 54.717 c -11.993,34.773 -31.78,59.43 -54.717,65.57 m 51.48,-12.752 c 10.787,-14.36 19.765,-32.32 26.309,-52.818 h 33.411 c -14.561,22.735 -35.26,41.09 -59.719,52.818 m 71.4,-75.15 h -39.26 c 2.993,-14.11 4.891,-29.1 5.494,-44.667 h 44.44 c -1.161,15.723 -4.869,30.753 -10.675,44.667 m -33.768,-67 c -0.603,-15.566 -2.501,-30.552 -5.494,-44.667 h 39.26 c 5.807,13.914 9.514,28.944 10.698,44.667 h -44.47"
       inkscape:connector-curvature="0"
       id="path41"
       style="opacity:0.2;fill:#ffffff" />
    <path
       d="M -143.26,233.13 C -148.754,149.51 -215.58,82.67 -299.19,77.18 V 76.8 h -11.167 -11.167 v 0.38 c -83.62,5.494 -150.46,72.34 -155.95,155.95 h -0.38 v 11.167 11.167 h 0.38 c 5.494,83.62 72.34,150.44 155.95,155.93 v 0.402 h 11.167 11.167 v -0.402 c 83.62,-5.494 150.44,-72.32 155.93,-155.93 h 0.402 V 244.297 233.13 h -0.402 M -373,113.31 c -10.787,14.338 -19.743,32.32 -26.26,52.818 h -33.455 c 14.561,-22.713 35.24,-41.09 59.719,-52.818 m -71.4,75.15 h 39.26 c -2.993,14.11 -4.891,29.1 -5.494,44.667 h -44.47 c 1.184,-15.723 4.891,-30.753 10.698,-44.667 m -10.698,67 h 44.47 c 0.603,15.566 2.501,30.552 5.494,44.667 h -39.26 c -5.807,-13.914 -9.514,-28.944 -10.698,-44.667 m 22.378,67 h 33.433 c 6.521,20.502 15.477,38.48 26.286,52.818 -24.477,-11.725 -45.16,-30.08 -59.719,-52.818 m 111.2,65.57 c -22.959,-6.142 -42.724,-30.798 -54.717,-65.57 h 54.717 v 65.57 m 0,-87.9 h -60.992 c -3.149,-13.914 -5.137,-28.944 -5.784,-44.667 h 66.777 v 44.667 m 0,-67 h -66.777 c 0.648,-15.723 2.635,-30.753 5.784,-44.667 h 60.992 v 44.667 m 0,-67 h -54.717 c 11.993,-34.773 31.758,-59.43 54.717,-65.55 v 65.55 m 133.53,0 h -33.411 c -6.544,-20.502 -15.477,-38.48 -26.309,-52.818 24.455,11.725 45.16,30.11 59.719,52.818 m -111.2,-65.55 c 22.936,6.119 42.724,30.775 54.717,65.55 h -54.717 v -65.55 m 0,87.88 h 60.97 c 3.171,13.914 5.114,28.944 5.807,44.667 h -66.777 V 188.46 m 0,67 h 66.777 c -0.648,15.723 -2.635,30.753 -5.807,44.667 h -60.97 V 255.46 m 0,132.57 v -65.57 h 54.717 c -11.993,34.773 -31.78,59.43 -54.717,65.57 m 51.48,-12.752 c 10.787,-14.36 19.765,-32.32 26.309,-52.818 h 33.411 c -14.561,22.735 -35.26,41.09 -59.719,52.818 m 71.4,-75.15 h -39.26 c 2.993,-14.11 4.891,-29.1 5.494,-44.667 h 44.44 c -1.161,15.723 -4.869,30.753 -10.675,44.667 m -33.768,-67 c -0.603,-15.566 -2.501,-30.552 -5.494,-44.667 h 39.26 c 5.807,13.914 9.514,28.944 10.698,44.667 h -44.47"
       inkscape:connector-curvature="0"
       id="path43"
       style="fill:#ffffff" />
  </g>
</svg>
