<?xml version="1.0" encoding="UTF-8" standalone="no"?>
<!-- Created with Inkscape (http://www.inkscape.org/) -->

<svg
   version="1.1"
   width="100%"
   height="100%"
   viewBox="0 0 512 512"
   id="svg2"
   sodipodi:docname="applications-office (copy).svg"
   inkscape:version="1.1 (c68e22c387, 2021-05-23)"
   xmlns:inkscape="http://www.inkscape.org/namespaces/inkscape"
   xmlns:sodipodi="http://sodipodi.sourceforge.net/DTD/sodipodi-0.dtd"
   xmlns:xlink="http://www.w3.org/1999/xlink"
   xmlns="http://www.w3.org/2000/svg"
   xmlns:svg="http://www.w3.org/2000/svg"
   xmlns:rdf="http://www.w3.org/1999/02/22-rdf-syntax-ns#"
   xmlns:cc="http://creativecommons.org/ns#"
   xmlns:dc="http://purl.org/dc/elements/1.1/">
  <sodipodi:namedview
     id="namedview39"
     pagecolor="#ffffff"
     bordercolor="#666666"
     borderopacity="1.0"
     inkscape:pageshadow="2"
     inkscape:pageopacity="0.0"
     inkscape:pagecheckerboard="0"
     showgrid="false"
     inkscape:zoom="0.21386719"
     inkscape:cx="-516.67579"
     inkscape:cy="257.16895"
     inkscape:window-width="1366"
     inkscape:window-height="706"
     inkscape:window-x="0"
     inkscape:window-y="0"
     inkscape:window-maximized="1"
     inkscape:current-layer="svg2" />
  <metadata
     id="metadata65">
    <rdf:RDF>
      <cc:Work
         rdf:about="">
        <dc:format>image/svg+xml</dc:format>
        <dc:type
           rdf:resource="http://purl.org/dc/dcmitype/StillImage" />
      </cc:Work>
    </rdf:RDF>
  </metadata>
  <defs
     id="defs4">
    <filter
       color-interpolation-filters="sRGB"
       id="7"
       x="-0.018107638"
       y="-0.017892786"
       width="1.0362153"
       height="1.0357856">
      <feGaussianBlur
         id="feGaussianBlur7"
         stdDeviation="3.7725" />
    </filter>
    <linearGradient
       y1="19.563999"
       x2="0"
       y2="504.01999"
       id="8"
       gradientUnits="userSpaceOnUse">
      <stop
         id="stop10"
         style="stop-color:#f3f3f3;stop-opacity:1"
         offset="0" />
      <stop
         id="stop12"
         style="stop-color:#eeeeee;stop-opacity:1"
         offset="0.5" />
      <stop
         id="stop14"
         style="stop-color:#ebebeb;stop-opacity:1"
         offset="1" />
    </linearGradient>
    <linearGradient
       x1="257"
       x2="362"
       id="5"
       xlink:href="#0"
       gradientUnits="userSpaceOnUse"
       gradientTransform="matrix(1.02835,0,0,1.46193,-383.73694,-115.70205)" />
    <linearGradient
       x1="257"
       x2="362"
       id="6"
       xlink:href="#0"
       gradientUnits="userSpaceOnUse"
       gradientTransform="matrix(1.0381,0,0,1.46193,-467.2489,-124.14041)" />
    <linearGradient
       x1="257"
       x2="362"
       id="4"
       xlink:href="#0"
       gradientUnits="userSpaceOnUse"
       gradientTransform="matrix(1.02835,0,0,1.46193,-610.00374,-127.97146)" />
    <linearGradient
       x1="257"
       x2="362"
       id="3"
       xlink:href="#0"
       gradientUnits="userSpaceOnUse"
       gradientTransform="matrix(1.0381,0,0,1.46193,-427.0919,-112.11041)" />
    <linearGradient
       id="0">
      <stop
         id="stop21"
         style="stop-color:#000000;stop-opacity:1"
         offset="0" />
      <stop
         id="stop23"
         style="stop-color:#ffffff;stop-opacity:1"
         offset="1" />
    </linearGradient>
    <linearGradient
       x1="257"
       x2="362"
       id="2"
       xlink:href="#0"
       gradientUnits="userSpaceOnUse"
       gradientTransform="matrix(1.0381,0,0,1.46193,-467.2489,-112.11041)" />
    <linearGradient
       x1="257"
       x2="362"
       id="1"
       xlink:href="#0"
       gradientUnits="userSpaceOnUse"
       gradientTransform="matrix(1.0381,0,0,1.46193,-467.2529,-112.11041)" />
    <linearGradient
       id="SVGID_3_"
       gradientUnits="userSpaceOnUse"
       x1="212.132"
       x2="284.116"
       y1="189.196"
       y2="261.17999">
      <stop
         offset="0"
         stop-color="#ebeff0"
         id="stop12-3" />
      <stop
         offset="1"
         stop-color="#e3e5e4"
         id="stop14-6" />
    </linearGradient>
    <linearGradient
       gradientTransform="matrix(0.69204,0,0,0.67579,117.88,177.07)"
       gradientUnits="userSpaceOnUse"
       y2="516.46002"
       x2="409.48999"
       y1="542.79999"
       x1="409.57001"
       id="0-7">
      <stop
         stop-color="#e54141"
         id="stop2" />
      <stop
         offset="1"
         stop-color="#ffbd00"
         id="stop4" />
    </linearGradient>
    <linearGradient
       inkscape:collect="always"
       xlink:href="#0-6"
       id="linearGradient920"
       x1="38.5"
       y1="256"
       x2="473.5"
       y2="256"
       gradientUnits="userSpaceOnUse"
       gradientTransform="matrix(1.0023953,0,0,0.987007,-513.38321,4.0422473)" />
    <linearGradient
       id="0-3"
       gradientUnits="userSpaceOnUse"
       y1="545.14001"
       x2="0"
       y2="518.14001">
      <stop
         stop-color="#a150c9"
         id="stop8" />
      <stop
         offset="1"
         stop-color="#e39aff"
         id="stop10-5" />
    </linearGradient>
    <linearGradient
       gradientUnits="userSpaceOnUse"
       y2="533.06"
       x2="0"
       y1="541.15997"
       id="1-9-6"
       gradientTransform="matrix(1.49857,0,0,1.49857,100.4386,-473.61451)">
      <stop
         stop-color="#0976da"
         id="stop52-7" />
      <stop
         offset="1"
         stop-color="#5de5f0"
         id="stop54-5" />
    </linearGradient>
    <linearGradient
       id="c-3"
       x1="24.535"
       x2="24.535"
       y1="7.0931001"
       y2="44.483002"
       gradientTransform="matrix(1.4364,0,0,1.4364,1113.3157,-663.27108)"
       gradientUnits="userSpaceOnUse">
      <stop
         stop-color="#76dd38"
         offset="0"
         id="stop4-3" />
      <stop
         stop-color="#42c440"
         offset=".48433"
         id="stop6" />
      <stop
         stop-color="#14ab4b"
         offset="1"
         id="stop8-3" />
    </linearGradient>
    <linearGradient
       id="b"
       x1="45.627998"
       x2="45.627998"
       y1="57.955002"
       y2="12.461"
       gradientTransform="matrix(0,9.2616006,-9.3005032,0,555.70424,-44.163321)"
       gradientUnits="userSpaceOnUse">
      <stop
         offset="0"
         id="stop2-3" />
      <stop
         stop-opacity="0"
         offset="1"
         id="stop4-6" />
    </linearGradient>
    <linearGradient
       id="linearGradient909"
       x1="31.525"
       x2="31.525"
       y1="6.5419002"
       y2="59.044998"
       gradientUnits="userSpaceOnUse"
       gradientTransform="translate(596.19496,277.16805)">
      <stop
         stop-color="#ff413f"
         offset="0"
         id="stop2-7" />
      <stop
         stop-color="#e62f2e"
         offset="1"
         id="stop4-5" />
    </linearGradient>
    <linearGradient
       id="0-6"
       gradientUnits="userSpaceOnUse"
       y1="61.831001"
       x2="0"
       y2="-0.20299999">
      <stop
         stop-color="#673508"
         id="stop6-3" />
      <stop
         stop-color="#ce873f"
         offset="1"
         id="stop8-6" />
    </linearGradient>
  </defs>
  <rect
     width="436.04199"
     height="429.34799"
     rx="63.351387"
     x="-474.79095"
     y="42.042023"
     id="rect33"
     style="fill:url(#linearGradient920);fill-opacity:1.0;stroke-width:0.99467"
     transform="rotate(-90)" />
  <circle
     cx="718.74847"
     cy="-56.883087"
     id="circle29"
     style="fill:#ffffff;stroke-width:10.2237"
     r="0" />
  <g
     transform="matrix(13.15654,0,0,12.913768,414.83297,-472.00718)"
     id="g4" />
  <path
     d="m 117.36906,210.43259 v 142.05256 c 0,28.61732 23.47196,51.65618 52.62727,51.65618 h 131.5654 c 29.15531,0 52.62727,-23.03886 52.62727,-51.65618 h 13.15654 c 29.15531,0 52.62728,-23.03884 52.62728,-51.65618 v -12.91376 c 0,-28.61732 -23.47197,-51.65618 -52.62728,-51.65618 H 354.189 V 210.4315 Z m 236.81546,51.65618 h 13.15654 c 14.57766,0 26.31308,11.51887 26.31308,25.82754 v 12.91376 c 0,14.30868 -11.73542,25.82754 -26.31308,25.82754 h -13.15654 z"
     fill="#ffffff"
     id="path6"
     style="stroke-width:11.1037" />
  <path
     d="m 169.9997,94.209783 c -26.31308,0 -46.04845,20.662687 -46.04845,33.576447 0,23.8133 32.89192,30.9935 32.89192,43.90726 0,15.49674 -13.15655,19.47461 -26.31308,25.82754 26.31308,0 46.04844,-11.62228 46.04844,-25.82754 0,-25.82753 -32.89191,-30.06391 -32.89191,-45.19873 0,-19.37121 30.01044,-32.284977 26.31308,-32.284977 z m 78.94035,0 c -26.31307,0 -46.04845,20.662687 -46.04845,33.576447 0,23.8133 32.89192,30.9935 32.89192,43.90726 0,15.49674 -13.15654,19.47461 -26.31308,25.82754 26.31308,0 46.04844,-11.62228 46.04844,-25.82754 0,-25.82753 -32.8919,-30.06391 -32.8919,-45.19873 0,-19.37121 30.01043,-32.284977 26.31307,-32.284977 z m 72.36153,0 c -26.31307,0 -46.04845,20.662687 -46.04845,33.576447 0,23.8133 32.89192,30.9935 32.89192,43.90726 0,15.49674 -13.15654,19.47461 -26.3131,25.82754 26.3131,0 46.04846,-11.62228 46.04846,-25.82754 0,-25.82753 -32.8919,-30.06391 -32.8919,-45.19873 0,-19.37121 30.01044,-32.284977 26.31307,-32.284977 z"
     fill="#ffffff"
     id="path8"
     style="stroke-width:11.1037" />
</svg>
