<?xml version="1.0" encoding="UTF-8" standalone="no"?>
<!-- Created with Inkscape (http://www.inkscape.org/) -->

<svg
   version="1.1"
   width="100%"
   height="100%"
   viewBox="0 0 512 512"
   id="svg2"
   sodipodi:docname="desktop-environment-kde.svg"
   inkscape:version="1.1 (c68e22c387, 2021-05-23)"
   xmlns:inkscape="http://www.inkscape.org/namespaces/inkscape"
   xmlns:sodipodi="http://sodipodi.sourceforge.net/DTD/sodipodi-0.dtd"
   xmlns:xlink="http://www.w3.org/1999/xlink"
   xmlns="http://www.w3.org/2000/svg"
   xmlns:svg="http://www.w3.org/2000/svg"
   xmlns:rdf="http://www.w3.org/1999/02/22-rdf-syntax-ns#"
   xmlns:cc="http://creativecommons.org/ns#"
   xmlns:dc="http://purl.org/dc/elements/1.1/">
  <sodipodi:namedview
     id="namedview51"
     pagecolor="#ffffff"
     bordercolor="#666666"
     borderopacity="1.0"
     inkscape:pageshadow="2"
     inkscape:pageopacity="0.0"
     inkscape:pagecheckerboard="0"
     showgrid="false"
     inkscape:zoom="0.85546875"
     inkscape:cx="256"
     inkscape:cy="256"
     inkscape:window-width="1366"
     inkscape:window-height="700"
     inkscape:window-x="0"
     inkscape:window-y="0"
     inkscape:window-maximized="1"
     inkscape:current-layer="svg2" />
  <metadata
     id="metadata72">
    <rdf:RDF>
      <cc:Work
         rdf:about="">
        <dc:format>image/svg+xml</dc:format>
        <dc:type
           rdf:resource="http://purl.org/dc/dcmitype/StillImage" />
      </cc:Work>
    </rdf:RDF>
  </metadata>
  <defs
     id="defs70">
    <linearGradient
       x1="257"
       y1="256"
       x2="362"
       y2="256"
       id="linearGradient3153"
       xlink:href="#linearGradient4996-7"
       gradientUnits="userSpaceOnUse"
       gradientTransform="matrix(1.0380952,0,0,1.4619252,-337.28943,-118.25286)" />
    <linearGradient
       x1="257"
       y1="256"
       x2="362"
       y2="256"
       id="linearGradient3149"
       xlink:href="#linearGradient4996-7"
       gradientUnits="userSpaceOnUse"
       gradientTransform="matrix(1.0283468,0,0,1.4619252,209.19233,-118.25286)" />
    <linearGradient
       x1="257"
       y1="256"
       x2="362"
       y2="256"
       id="linearGradient3145"
       xlink:href="#linearGradient4996-7"
       gradientUnits="userSpaceOnUse"
       gradientTransform="matrix(1.0283468,0,0,1.4619252,101.21591,-118.25286)" />
    <linearGradient
       x1="257"
       y1="256"
       x2="362"
       y2="256"
       id="linearGradient3141"
       xlink:href="#linearGradient4996-7"
       gradientUnits="userSpaceOnUse"
       gradientTransform="matrix(1.0380952,0,0,1.4619252,-10.28943,-118.25286)" />
    <linearGradient
       x1="257"
       y1="256"
       x2="362"
       y2="256"
       id="linearGradient3137"
       xlink:href="#linearGradient4996-7"
       gradientUnits="userSpaceOnUse"
       gradientTransform="matrix(1.0380952,0,0,1.4619252,-119.28943,-118.25286)" />
    <linearGradient
       x1="257"
       y1="256"
       x2="362"
       y2="256"
       id="linearGradient3108"
       xlink:href="#linearGradient4996-7"
       gradientUnits="userSpaceOnUse"
       gradientTransform="matrix(1.0380952,0,0,1.4619252,-228.28943,-118.25286)" />
    <linearGradient
       id="linearGradient4996-7">
      <stop
         id="stop4998-7"
         style="stop-color:#000000;stop-opacity:1"
         offset="0" />
      <stop
         id="stop5000-9"
         style="stop-color:#ffffff;stop-opacity:1"
         offset="1" />
    </linearGradient>
    <linearGradient
       id="linearGradient873"
       x1="-273.48001"
       x2="-273.48001"
       y1="36.745998"
       y2="210.99001"
       gradientTransform="matrix(0.29999457,0,0,0.29999457,612.07962,196.45877)"
       gradientUnits="userSpaceOnUse">
      <stop
         stop-color="#23edff"
         offset="0"
         id="stop2" />
      <stop
         stop-color="#0194cf"
         offset="1"
         id="stop4" />
    </linearGradient>
    <linearGradient
       inkscape:collect="always"
       xlink:href="#linearGradient873"
       id="linearGradient986"
       x1="38.500011"
       y1="253"
       x2="473.49997"
       y2="253"
       gradientUnits="userSpaceOnUse"
       gradientTransform="matrix(1.0023954,0,0,0.98700689,0.15674266,-506.42872)" />
  </defs>
  <text
     x="729.82568"
     y="233.26675"
     id="text20"
     style="font-size:128.541px;line-height:125%;font-family:'Gentium Book Basic';letter-spacing:0;word-spacing:0;stroke-width:0.994671"
     transform="scale(0.99229443,1.0077654)"><tspan
       x="729.82568"
       y="233.26675"
       id="tspan22"
       style="stroke-width:0.994671" /></text>
  <text
     x="377.90421"
     y="588.75909"
     transform="scale(3.9818994,0.25113643)"
     id="text24"
     style="font-size:46.7037px;font-family:Arial;text-anchor:middle;stroke-width:0.994667" />
  <text
     x="1307.9983"
     y="153.69304"
     id="text26"
     style="font-size:128.541px;line-height:125%;font-family:'Gentium Book Basic';letter-spacing:0;word-spacing:0;stroke-width:0.994671"
     transform="scale(0.99229443,1.0077654)"><tspan
       x="1307.9983"
       y="153.69304"
       id="tspan28"
       style="stroke-width:0.994671" /></text>
  <text
     x="521.98157"
     y="269.44135"
     transform="scale(3.9818994,0.25113643)"
     id="text30"
     style="font-size:46.7037px;font-family:Arial;text-anchor:middle;stroke-width:0.994667" />
  <text
     x="242.12834"
     y="-26.602089"
     id="text32"
     style="font-size:128.541px;line-height:125%;font-family:'Gentium Book Basic';letter-spacing:0;word-spacing:0;stroke-width:0.994671"
     transform="scale(0.99229443,1.0077654)"><tspan
       x="242.12834"
       y="-26.602089"
       id="tspan34"
       style="stroke-width:0.994671" /></text>
  <text
     x="256.36591"
     y="-454.03918"
     transform="scale(3.9818994,0.25113643)"
     id="text36"
     style="font-size:46.7037px;font-family:Arial;text-anchor:middle;stroke-width:0.994667" />
  <text
     x="1334.3273"
     y="-241.91759"
     id="text38"
     style="font-size:128.541px;line-height:125%;font-family:'Gentium Book Basic';letter-spacing:0;word-spacing:0;stroke-width:0.994671"
     transform="scale(0.99229443,1.0077654)"><tspan
       x="1334.3273"
       y="-241.91759"
       id="tspan40"
       style="stroke-width:0.994671" /></text>
  <text
     x="528.54645"
     y="-1318.076"
     transform="scale(3.9818994,0.25113643)"
     id="text42"
     style="font-size:46.7037px;font-family:Arial;text-anchor:middle;stroke-width:0.994667" />
  <text
     x="1912.4999"
     y="-321.50128"
     id="text44"
     style="font-size:128.541px;line-height:125%;font-family:'Gentium Book Basic';letter-spacing:0;word-spacing:0;stroke-width:0.994671"
     transform="scale(0.99229443,1.0077654)"><tspan
       x="1912.4999"
       y="-321.50128"
       id="tspan46"
       style="stroke-width:0.994671" /></text>
  <text
     x="672.6239"
     y="-1637.4034"
     transform="scale(3.9818994,0.25113643)"
     id="text48"
     style="font-size:46.7037px;font-family:Arial;text-anchor:middle;stroke-width:0.994667" />
  <text
     x="1525.4535"
     y="-791.38409"
     id="text50"
     style="font-size:128.541px;line-height:125%;font-family:'Gentium Book Basic';letter-spacing:0;word-spacing:0;stroke-width:0.994671"
     transform="scale(0.99229443,1.0077654)"><tspan
       x="1525.4535"
       y="-791.38409"
       id="tspan52"
       style="stroke-width:0.994671" /></text>
  <text
     x="576.17102"
     y="-3522.9529"
     transform="scale(3.9818994,0.25113643)"
     id="text54"
     style="font-size:46.7037px;font-family:Arial;text-anchor:middle;stroke-width:0.994667" />
  <text
     x="2103.6162"
     y="-870.95776"
     id="text56"
     style="font-size:128.541px;line-height:125%;font-family:'Gentium Book Basic';letter-spacing:0;word-spacing:0;stroke-width:0.994671"
     transform="scale(0.99229443,1.0077654)"><tspan
       x="2103.6162"
       y="-870.95776"
       id="tspan58"
       style="stroke-width:0.994671" /></text>
  <text
     x="720.24854"
     y="-3842.271"
     transform="scale(3.9818994,0.25113643)"
     id="text60"
     style="font-size:46.7037px;font-family:Arial;text-anchor:middle;stroke-width:0.994667" />
  <text
     x="280.58228"
     y="536.22382"
     id="text62"
     style="font-size:207.22px;line-height:125%;font-family:'Gentium Book Basic';letter-spacing:0;word-spacing:0;stroke-width:0.994671"
     transform="scale(0.99229443,1.0077654)"><tspan
       x="280.58228"
       y="536.22382"
       id="tspan64"
       style="stroke-width:0.994671" /></text>
  <rect
     width="436.04199"
     height="429.34799"
     rx="63.351723"
     ry="62.379162"
     x="38.749001"
     y="-471.38998"
     id="rect4981-0"
     style="fill:url(#linearGradient986);fill-opacity:1;stroke:none;stroke-width:0.994671"
     transform="rotate(90)" />
  <g
     transform="matrix(0.98700692,0,0,1.0023955,-3.3603285,-4.354006)"
     id="g3381">
    <path
       d="m 297.37777,103.50691 -55.83788,5.53425 v 229.07845 l 55.24108,-8.00582 V 232.1969 l 73.6206,108.39197 57.7161,-18.48206 -75.4953,-104.08257 76.0945,-98.50569 -58.8914,-13.57578 -73.0295,98.54025 0.5922,-100.98302 m -125.8024,56.00732 c -0.62454,0 -1.37349,0.37909 -1.84476,0.6614 l -21.47675,22.13814 c -0.91489,0.9529 -1.29745,2.60292 -0.62682,3.72406 l 25.16625,41.8727 c -4.51682,7.62097 -7.85488,15.94826 -10.43937,24.60971 l -46.64415,9.85057 c -1.30092,0.35259 -2.43704,1.1315 -2.43704,2.47158 v 30.80534 c 0,1.30435 1.18566,2.74582 2.43704,3.06269 l 45.4216,11.06964 c 2.41858,10.04068 6.07812,19.59974 11.03393,28.33493 l -26.38532,40.03025 c -0.73168,1.12805 -0.33992,2.74465 0.62681,3.6895 l 21.47676,21.54704 c 0.91489,0.88262 2.57297,1.36656 3.6895,0.66139 l 41.10874,-25.2711 c 8.08879,4.68043 16.57739,8.60729 25.79308,11.10421 l 9.816,46.15906 c 0.28115,1.34007 1.11192,2.47157 2.43701,2.47157 h 30.70159 c 1.2929,0 2.7539,-1.20064 3.0627,-2.47157 l 11.034,-46.15906 c 9.4991,-2.57412 18.7297,-6.80056 27.0121,-11.69532 l 40.51299,27.08129 c 1.1143,0.70518 2.7067,0.36065 3.655,-0.62682 l 21.4768,-21.54705 c 0.9206,-0.9529 1.3009,-2.60638 0.6268,-3.72406 l -14.7246,-24.60971 -4.9086,1.84475 c -0.7006,0.35259 -1.4334,-0.0265 -1.8447,-0.6614 0,0 -9.2756,-14.10928 -21.4768,-32.02443 -14.5817,28.63568 -44.3051,48.03607 -78.5603,48.03607 -48.67093,0 -88.37739,-39.18795 -88.37739,-88.03175 0,-35.92709 21.51822,-66.84191 52.17378,-80.69193 v -22.76497 c -5.58034,1.97495 -10.81846,3.9453 -15.94251,6.75333 h -0.62681 l -41.10876,-27.08129 c -0.55884,-0.35374 -1.21908,-0.66254 -1.84476,-0.59225 v -0.0345"
       inkscape:connector-curvature="0"
       id="path3379"
       style="opacity:0.2;fill:#ffffff;fill-opacity:1" />
    <path
       d="m 282.37777,88.506914 -55.83788,5.534248 V 323.11961 l 55.24108,-8.00582 V 217.1969 l 73.6206,108.39197 57.7161,-18.48206 -75.4953,-104.08257 76.0945,-98.50569 -58.8914,-13.575784 -73.0295,98.540254 L 282.38817,88.5 m -125.8024,56.00732 c -0.62454,0 -1.37349,0.37909 -1.84476,0.6614 l -21.47675,22.13814 c -0.91489,0.9529 -1.29745,2.60292 -0.62682,3.72406 l 25.16625,41.8727 c -4.51682,7.62097 -7.85488,15.94826 -10.43937,24.60971 l -46.64415,9.85057 c -1.300915,0.35259 -2.437035,1.1315 -2.437035,2.47158 v 30.80534 c 0,1.30435 1.18566,2.74582 2.437035,3.06269 l 45.4216,11.06964 c 2.41858,10.04068 6.07812,19.59974 11.03393,28.33493 l -26.38532,40.03025 c -0.73168,1.12805 -0.33992,2.74465 0.62681,3.6895 l 21.47676,21.54704 c 0.91489,0.88262 2.57297,1.36656 3.6895,0.66139 l 41.10874,-25.2711 c 8.08879,4.68043 16.57739,8.60729 25.79308,11.10421 l 9.816,46.15906 c 0.28115,1.34007 1.11192,2.47157 2.43701,2.47157 h 30.70159 c 1.2929,0 2.7539,-1.20064 3.0627,-2.47157 l 11.034,-46.15906 c 9.4991,-2.57412 18.7297,-6.80056 27.0121,-11.69532 l 40.51299,27.08129 c 1.1143,0.70518 2.7067,0.36065 3.655,-0.62682 l 21.4768,-21.54705 c 0.9206,-0.9529 1.3009,-2.60638 0.6268,-3.72406 l -14.7246,-24.60971 -4.9086,1.84475 c -0.7006,0.35259 -1.4334,-0.0265 -1.8447,-0.6614 0,0 -9.2756,-14.10928 -21.4768,-32.02443 -14.5817,28.63568 -44.3051,48.03607 -78.5603,48.03607 -48.67093,0 -88.37739,-39.18795 -88.37739,-88.03175 0,-35.92709 21.51822,-66.84191 52.17378,-80.69193 v -22.76497 c -5.58034,1.97495 -10.81846,3.9453 -15.94251,6.75333 h -0.62681 l -41.10876,-27.08129 c -0.55884,-0.35374 -1.21908,-0.66254 -1.84476,-0.59225 v -0.0345"
       inkscape:connector-curvature="0"
       id="path66"
       style="fill:#ffffff;fill-opacity:1" />
  </g>
</svg>
