<?xml version="1.0" encoding="UTF-8" standalone="no"?>
<!-- Created with Inkscape (http://www.inkscape.org/) -->

<svg
   version="1.1"
   width="100%"
   height="100%"
   viewBox="0 0 512 512"
   id="svg2"
   sodipodi:docname="1aim (79th copy).svg"
   inkscape:version="1.1 (c68e22c387, 2021-05-23)"
   xmlns:inkscape="http://www.inkscape.org/namespaces/inkscape"
   xmlns:sodipodi="http://sodipodi.sourceforge.net/DTD/sodipodi-0.dtd"
   xmlns:xlink="http://www.w3.org/1999/xlink"
   xmlns="http://www.w3.org/2000/svg"
   xmlns:svg="http://www.w3.org/2000/svg"
   xmlns:rdf="http://www.w3.org/1999/02/22-rdf-syntax-ns#"
   xmlns:cc="http://creativecommons.org/ns#"
   xmlns:dc="http://purl.org/dc/elements/1.1/">
  <sodipodi:namedview
     id="namedview39"
     pagecolor="#ffffff"
     bordercolor="#666666"
     borderopacity="1.0"
     inkscape:pageshadow="2"
     inkscape:pageopacity="0.0"
     inkscape:pagecheckerboard="0"
     showgrid="false"
     inkscape:zoom="0.30245388"
     inkscape:cx="-274.42201"
     inkscape:cy="426.51131"
     inkscape:window-width="1366"
     inkscape:window-height="706"
     inkscape:window-x="0"
     inkscape:window-y="0"
     inkscape:window-maximized="1"
     inkscape:current-layer="svg2" />
  <metadata
     id="metadata65">
    <rdf:RDF>
      <cc:Work
         rdf:about="">
        <dc:format>image/svg+xml</dc:format>
        <dc:type
           rdf:resource="http://purl.org/dc/dcmitype/StillImage" />
      </cc:Work>
    </rdf:RDF>
  </metadata>
  <defs
     id="defs4">
    <filter
       color-interpolation-filters="sRGB"
       id="7"
       x="-0.018107638"
       y="-0.017892786"
       width="1.0362153"
       height="1.0357856">
      <feGaussianBlur
         id="feGaussianBlur7"
         stdDeviation="3.7725" />
    </filter>
    <linearGradient
       y1="19.563999"
       x2="0"
       y2="504.01999"
       id="8"
       gradientUnits="userSpaceOnUse">
      <stop
         id="stop10"
         style="stop-color:#f3f3f3;stop-opacity:1"
         offset="0" />
      <stop
         id="stop12"
         style="stop-color:#eeeeee;stop-opacity:1"
         offset="0.5" />
      <stop
         id="stop14"
         style="stop-color:#ebebeb;stop-opacity:1"
         offset="1" />
    </linearGradient>
    <linearGradient
       x1="257"
       x2="362"
       id="5"
       xlink:href="#0"
       gradientUnits="userSpaceOnUse"
       gradientTransform="matrix(1.02835,0,0,1.46193,-383.73694,-115.70205)" />
    <linearGradient
       x1="257"
       x2="362"
       id="6"
       xlink:href="#0"
       gradientUnits="userSpaceOnUse"
       gradientTransform="matrix(1.0381,0,0,1.46193,-467.2489,-124.14041)" />
    <linearGradient
       x1="257"
       x2="362"
       id="4"
       xlink:href="#0"
       gradientUnits="userSpaceOnUse"
       gradientTransform="matrix(1.02835,0,0,1.46193,-610.00374,-127.97146)" />
    <linearGradient
       x1="257"
       x2="362"
       id="3"
       xlink:href="#0"
       gradientUnits="userSpaceOnUse"
       gradientTransform="matrix(1.0381,0,0,1.46193,-427.0919,-112.11041)" />
    <linearGradient
       id="0">
      <stop
         id="stop21"
         style="stop-color:#000000;stop-opacity:1"
         offset="0" />
      <stop
         id="stop23"
         style="stop-color:#ffffff;stop-opacity:1"
         offset="1" />
    </linearGradient>
    <linearGradient
       x1="257"
       x2="362"
       id="2"
       xlink:href="#0"
       gradientUnits="userSpaceOnUse"
       gradientTransform="matrix(1.0381,0,0,1.46193,-467.2489,-112.11041)" />
    <linearGradient
       x1="257"
       x2="362"
       id="1"
       xlink:href="#0"
       gradientUnits="userSpaceOnUse"
       gradientTransform="matrix(1.0381,0,0,1.46193,-467.2529,-112.11041)" />
    <linearGradient
       id="e"
       x1="24.586"
       x2="24.586"
       y1="12.173"
       y2="35.945999"
       gradientTransform="matrix(12.738243,0,0,13.415992,-53.010572,-66.029175)"
       gradientUnits="userSpaceOnUse">
      <stop
         stop-color="#fff"
         offset="0"
         id="stop2" />
      <stop
         stop-color="#e8e8e8"
         offset="1"
         id="stop4" />
    </linearGradient>
    <linearGradient
       id="linearGradient903"
       x1="-210.92"
       x2="-210.92"
       y1="-6.5022001"
       y2="213.83"
       gradientTransform="matrix(0.24,0,0,0.24,671.52267,217.32712)"
       gradientUnits="userSpaceOnUse">
      <stop
         stop-color="#66effd"
         offset="0"
         id="stop7" />
      <stop
         stop-color="#2ba5c7"
         offset="1"
         id="stop9" />
    </linearGradient>
    <linearGradient
       inkscape:collect="always"
       xlink:href="#linearGradient903"
       id="linearGradient871"
       x1="42.042"
       y1="256.76999"
       x2="471.38998"
       y2="256.76999"
       gradientUnits="userSpaceOnUse"
       gradientTransform="translate(1.1576719e-5,5.2949219e-5)" />
  </defs>
  <rect
     width="429.34799"
     height="436.04199"
     rx="62.378838"
     x="42.042007"
     y="38.749023"
     id="rect33"
     style="fill:url(#linearGradient871);fill-opacity:1;stroke-width:0.994674" />
  <path
     d="m 193.27664,98.892055 c -3.77529,-0.11195 -7.33695,0.25511 -9.70006,1.09328 -11.59162,4.185755 -18.8634,13.189345 -22.88875,28.228645 -3.47749,13.10766 -3.37512,36.70586 0.25528,57.24555 0.63691,3.56863 1.27661,6.80719 1.42944,7.33043 0.19082,0.73779 -1.04024,1.2124 -6.51768,2.5271 -26.77557,6.43959 -46.33601,16.02028 -58.080116,28.49752 -5.273563,5.55415 -8.192903,10.42997 -9.887387,16.56076 -1.197412,4.25284 -1.197412,12.68372 0,16.88287 3.286415,11.53757 12.536103,22.38231 27.159823,31.97447 10.15225,6.60063 13.18608,7.33265 16.47259,3.87137 1.54131,-1.62332 1.88895,-2.40993 1.88895,-4.35524 0,-3.76988 -1.09417,-5.2884 -5.87101,-8.17274 -29.947069,-17.76289 -35.229694,-35.57166 -15.23013,-51.40289 10.15226,-8.02271 24.33859,-14.36117 43.44508,-19.28526 8.36891,-2.14657 10.26117,-2.42626 10.26117,-1.27251 0,1.56964 6.158,22.33185 9.34283,31.29359 l 3.28432,9.37376 -4.32237,8.80005 c -17.31077,35.21652 -28.42581,71.11944 -29.76323,97.37147 -1.09548,20.23135 2.39901,34.69805 10.85713,43.65978 9.24786,9.75367 22.29106,11.84499 39.05465,6.18339 6.31806,-2.14656 18.86079,-8.85961 26.17264,-14.10515 5.27357,-3.71619 6.41269,-4.81159 7.1133,-6.75691 0.70052,-1.94532 0.70052,-2.58482 0,-4.62411 -1.0445,-3.04539 -3.23065,-4.71368 -6.21134,-4.71368 -1.93617,0 -3.27282,0.62492 -8.25336,4.19392 -11.29888,8.07639 -21.89723,13.1095 -30.69899,14.67867 -12.19021,2.20025 -20.00654,-3.46741 -23.5858,-16.88286 -1.54131,-5.82246 -1.43893,-24.46078 0.25529,-34.10708 2.58581,-15.34764 7.10884,-31.28073 13.57991,-48.05073 3.83419,-9.95463 11.13943,-26.62643 12.13356,-27.72669 0.49664,-0.57719 1.14766,0.37073 2.79083,4.35525 8.36891,19.80189 21.16013,43.95343 33.64308,63.50022 29.80679,46.60635 62.43917,76.95109 87.57325,81.29797 l -0.27185,0.055 c 11.04359,1.87824 20.35854,-1.00959 27.56845,-8.60293 5.87232,-6.29203 9.75496,-15.14208 11.94625,-27.45782 1.33751,-7.7007 1.33751,-29.25732 0,-39.78823 -4.07624,-31.39269 -14.92605,-67.3883 -31.19302,-103.23524 -2.53492,-5.60783 -3.96296,-6.97191 -7.24938,-6.97191 -3.68128,-0.055 -6.67076,2.93325 -6.67076,6.70313 0,1.31481 1.24638,4.86619 3.33537,9.53527 20.05011,45.01056 30.80791,88.5639 29.71271,120.06487 -0.67526,18.76862 -5.1387,30.04741 -13.54594,34.39339 -4.42013,2.29412 -9.99543,2.25337 -17.35781,-0.26887 C 271.45888,388.73515 225.67352,328.46412 196.16818,257.1896 l -2.92701,-7.11534 4.27141,-7.70676 c 4.82773,-8.74719 17.03283,-28.28921 22.65003,-36.31128 l 3.77782,-5.34098 h 9.93792 c 60.46745,0 120.34243,14.40338 152.08348,36.47278 6.47097,4.50776 14.26474,12.74795 16.60851,17.56468 1.69413,3.354 1.85488,4.23851 1.85488,8.6925 0,4.3602 -0.16031,5.39548 -1.54863,8.06528 -3.88507,7.86166 -14.12882,16.04322 -27.31316,21.86569 -6.11426,2.72338 -7.75987,4.51041 -7.75987,8.22651 0,3.13927 1.95421,5.76402 4.884,6.70314 1.89802,0.5772 2.53372,0.47625 5.92207,-0.93196 21.29779,-8.86786 35.87009,-22.65945 38.85078,-36.59851 0.84079,-3.76987 0.78938,-10.85483 -0.0522,-14.51716 -1.59229,-7.19086 -7.26211,-16.39834 -13.7838,-22.58237 C 374.56863,206.21344 312.9232,188.50196 239.7785,186.66483 l -5.22433,-0.16152 6.10921,-7.24077 c 3.28642,-4.0382 9.16335,-10.74381 13.18871,-15.03748 20.80114,-22.27036 40.1089,-36.82974 56.97444,-42.90732 5.3755,-1.98551 6.46897,-2.20446 12.04818,-2.20446 5.18444,0 6.41993,0.15508 8.66184,1.36216 3.04446,1.51595 6.47428,5.23132 8.21939,8.74627 3.42652,7.17747 4.57017,19.77712 2.92701,33.19311 -0.54804,4.61502 -1.00399,9.95555 -1.00399,11.7936 0,3.09907 0.10979,3.55615 1.80383,5.07219 1.38849,1.3684 2.32215,1.73849 4.11823,1.73849 2.89155,0 5.57904,-1.63525 6.38149,-3.83549 2.38203,-6.49327 3.61743,-29.49775 2.07612,-39.19727 -2.39474,-14.89157 -8.45099,-24.95357 -18.10626,-29.82351 -17.06942,-8.693515 -41.84278,-0.20281 -70.75825,24.21393 -15.12034,12.78557 -35.02319,34.47965 -48.75471,53.03355 l -1.3444,1.6847 -8.11727,0.46617 c -6.81487,0.41569 -17.91022,1.56698 -30.8018,3.19029 l -2.79083,0.3588 -1.19123,-7.16911 c -2.33104,-14.30152 -2.53562,-16.44423 -2.53562,-30.12817 0,-12.00741 0.14724,-14.32538 1.24228,-19.1412 2.68776,-12.15514 8.02466,-19.70462 15.04368,-21.27471 9.65562,-2.14656 21.64456,2.94711 38.45956,16.0946 5.3755,4.25284 11.89745,0.63226 11.09499,-6.07583 -0.34415,-2.92463 -2.87569,-5.44687 -11.43566,-11.47058 -7.17158,-5.08458 -15.22664,-9.28842 -21.79965,-11.32743 -3.23545,-1.019595 -7.21794,-1.608265 -10.99305,-1.720575 z m 8.74687,103.180175 c 2.45607,-0.16609 4.08417,-0.19821 4.08417,0 0,0.26795 -2.28165,3.98745 -5.12223,8.38784 -2.84057,4.34671 -6.86209,10.73371 -8.95075,14.35658 v 0.0183 c -2.03811,3.51495 -4.04661,6.69954 -4.44156,7.1691 -0.54804,0.61758 -1.34484,-1.05996 -3.77783,-9.2306 -3.47749,-11.26961 -4.97244,-17.34535 -4.5266,-17.86933 0.55414,-0.59372 15.36692,-2.33248 22.73541,-2.83176 z m 57.04241,40.41591 c -10.54695,0 -19.09343,9.05478 -19.09343,20.16344 0,11.10866 8.54631,20.12766 19.09343,20.12766 10.54713,0 19.11085,-9.019 19.11085,-20.12766 0,-11.10866 -8.56338,-20.16344 -19.11085,-20.16344 z"
     fill="url(#e)"
     stroke-width="208.35"
     id="path30"
     style="fill:url(#e)" />
</svg>
