<?xml version="1.0" encoding="UTF-8" standalone="no"?>
<!-- Created with Inkscape (http://www.inkscape.org/) -->

<svg
   version="1.1"
   width="100%"
   height="100%"
   viewBox="0 0 512 512"
   id="svg2"
   sodipodi:docname="applications-office (copy).svg"
   inkscape:version="1.1 (c68e22c387, 2021-05-23)"
   xmlns:inkscape="http://www.inkscape.org/namespaces/inkscape"
   xmlns:sodipodi="http://sodipodi.sourceforge.net/DTD/sodipodi-0.dtd"
   xmlns:xlink="http://www.w3.org/1999/xlink"
   xmlns="http://www.w3.org/2000/svg"
   xmlns:svg="http://www.w3.org/2000/svg"
   xmlns:rdf="http://www.w3.org/1999/02/22-rdf-syntax-ns#"
   xmlns:cc="http://creativecommons.org/ns#"
   xmlns:dc="http://purl.org/dc/elements/1.1/">
  <sodipodi:namedview
     id="namedview39"
     pagecolor="#ffffff"
     bordercolor="#666666"
     borderopacity="1.0"
     inkscape:pageshadow="2"
     inkscape:pageopacity="0.0"
     inkscape:pagecheckerboard="0"
     showgrid="false"
     inkscape:zoom="0.60490776"
     inkscape:cx="73.564935"
     inkscape:cy="201.68364"
     inkscape:window-width="1366"
     inkscape:window-height="706"
     inkscape:window-x="0"
     inkscape:window-y="0"
     inkscape:window-maximized="1"
     inkscape:current-layer="svg2" />
  <metadata
     id="metadata65">
    <rdf:RDF>
      <cc:Work
         rdf:about="">
        <dc:format>image/svg+xml</dc:format>
        <dc:type
           rdf:resource="http://purl.org/dc/dcmitype/StillImage" />
      </cc:Work>
    </rdf:RDF>
  </metadata>
  <defs
     id="defs4">
    <filter
       color-interpolation-filters="sRGB"
       id="7"
       x="-0.018107638"
       y="-0.017892786"
       width="1.0362153"
       height="1.0357856">
      <feGaussianBlur
         id="feGaussianBlur7"
         stdDeviation="3.7725" />
    </filter>
    <linearGradient
       y1="19.563999"
       x2="0"
       y2="504.01999"
       id="8"
       gradientUnits="userSpaceOnUse">
      <stop
         id="stop10"
         style="stop-color:#f3f3f3;stop-opacity:1"
         offset="0" />
      <stop
         id="stop12"
         style="stop-color:#eeeeee;stop-opacity:1"
         offset="0.5" />
      <stop
         id="stop14"
         style="stop-color:#ebebeb;stop-opacity:1"
         offset="1" />
    </linearGradient>
    <linearGradient
       x1="257"
       x2="362"
       id="5"
       xlink:href="#0"
       gradientUnits="userSpaceOnUse"
       gradientTransform="matrix(1.02835,0,0,1.46193,-383.73694,-115.70205)" />
    <linearGradient
       x1="257"
       x2="362"
       id="6"
       xlink:href="#0"
       gradientUnits="userSpaceOnUse"
       gradientTransform="matrix(1.0381,0,0,1.46193,-467.2489,-124.14041)" />
    <linearGradient
       x1="257"
       x2="362"
       id="4"
       xlink:href="#0"
       gradientUnits="userSpaceOnUse"
       gradientTransform="matrix(1.02835,0,0,1.46193,-610.00374,-127.97146)" />
    <linearGradient
       x1="257"
       x2="362"
       id="3"
       xlink:href="#0"
       gradientUnits="userSpaceOnUse"
       gradientTransform="matrix(1.0381,0,0,1.46193,-427.0919,-112.11041)" />
    <linearGradient
       id="0">
      <stop
         id="stop21"
         style="stop-color:#000000;stop-opacity:1"
         offset="0" />
      <stop
         id="stop23"
         style="stop-color:#ffffff;stop-opacity:1"
         offset="1" />
    </linearGradient>
    <linearGradient
       x1="257"
       x2="362"
       id="2"
       xlink:href="#0"
       gradientUnits="userSpaceOnUse"
       gradientTransform="matrix(1.0381,0,0,1.46193,-467.2489,-112.11041)" />
    <linearGradient
       x1="257"
       x2="362"
       id="1"
       xlink:href="#0"
       gradientUnits="userSpaceOnUse"
       gradientTransform="matrix(1.0381,0,0,1.46193,-467.2529,-112.11041)" />
    <linearGradient
       id="SVGID_3_"
       gradientUnits="userSpaceOnUse"
       x1="212.132"
       x2="284.116"
       y1="189.196"
       y2="261.17999">
      <stop
         offset="0"
         stop-color="#ebeff0"
         id="stop12-3" />
      <stop
         offset="1"
         stop-color="#e3e5e4"
         id="stop14-6" />
    </linearGradient>
    <linearGradient
       gradientTransform="matrix(0.69204,0,0,0.67579,117.88,177.07)"
       gradientUnits="userSpaceOnUse"
       y2="516.46002"
       x2="409.48999"
       y1="542.79999"
       x1="409.57001"
       id="0-7">
      <stop
         stop-color="#e54141"
         id="stop2" />
      <stop
         offset="1"
         stop-color="#ffbd00"
         id="stop4" />
    </linearGradient>
    <linearGradient
       inkscape:collect="always"
       xlink:href="#a-5"
       id="linearGradient920"
       x1="38.5"
       y1="256"
       x2="473.5"
       y2="256"
       gradientUnits="userSpaceOnUse"
       gradientTransform="matrix(1.0023953,0,0,0.987007,0.15670717,-509.38976)" />
    <linearGradient
       id="0-3"
       gradientUnits="userSpaceOnUse"
       y1="545.14001"
       x2="0"
       y2="518.14001">
      <stop
         stop-color="#a150c9"
         id="stop8" />
      <stop
         offset="1"
         stop-color="#e39aff"
         id="stop10-5" />
    </linearGradient>
    <linearGradient
       gradientUnits="userSpaceOnUse"
       y2="533.06"
       x2="0"
       y1="541.15997"
       id="1-9-6"
       gradientTransform="matrix(1.49857,0,0,1.49857,100.4386,-473.61451)">
      <stop
         stop-color="#0976da"
         id="stop52-7" />
      <stop
         offset="1"
         stop-color="#5de5f0"
         id="stop54-5" />
    </linearGradient>
    <linearGradient
       id="c-3"
       x1="24.535"
       x2="24.535"
       y1="7.0931001"
       y2="44.483002"
       gradientTransform="matrix(1.4364,0,0,1.4364,1113.3157,-663.27108)"
       gradientUnits="userSpaceOnUse">
      <stop
         stop-color="#76dd38"
         offset="0"
         id="stop4-3" />
      <stop
         stop-color="#42c440"
         offset=".48433"
         id="stop6" />
      <stop
         stop-color="#14ab4b"
         offset="1"
         id="stop8-3" />
    </linearGradient>
    <linearGradient
       id="b"
       x1="45.627998"
       x2="45.627998"
       y1="57.955002"
       y2="12.461"
       gradientTransform="matrix(0,9.2616006,-9.3005032,0,555.70424,-44.163321)"
       gradientUnits="userSpaceOnUse">
      <stop
         offset="0"
         id="stop2-3" />
      <stop
         stop-opacity="0"
         offset="1"
         id="stop4-6" />
    </linearGradient>
    <linearGradient
       id="linearGradient909"
       x1="31.525"
       x2="31.525"
       y1="6.5419002"
       y2="59.044998"
       gradientUnits="userSpaceOnUse"
       gradientTransform="translate(596.19496,277.16805)">
      <stop
         stop-color="#ff413f"
         offset="0"
         id="stop2-7" />
      <stop
         stop-color="#e62f2e"
         offset="1"
         id="stop4-5" />
    </linearGradient>
    <linearGradient
       id="a-5"
       x2="0"
       y1="47"
       y2="1"
       gradientTransform="matrix(0.26458,0,0,0.26458,0,284.3)"
       gradientUnits="userSpaceOnUse">
      <stop
         stop-color="#fb5164"
         offset="0"
         id="stop2-35" />
      <stop
         stop-color="#ee4e8a"
         offset="1"
         id="stop4-62" />
    </linearGradient>
    <linearGradient
       id="a-5-6"
       x2="0"
       y1="47"
       y2="1"
       gradientTransform="matrix(0.26458,0,0,0.26458,0,284.3)"
       gradientUnits="userSpaceOnUse">
      <stop
         stop-color="#fb5164"
         offset="0"
         id="stop2-35-7" />
      <stop
         stop-color="#ee4e8a"
         offset="1"
         id="stop4-62-5" />
    </linearGradient>
  </defs>
  <rect
     width="436.04199"
     height="429.34799"
     rx="63.351387"
     x="38.748978"
     y="-471.39001"
     id="rect33"
     style="fill:url(#linearGradient920);fill-opacity:1;stroke-width:0.99467"
     transform="rotate(90)" />
  <rect
     width="344.93176"
     height="356.92603"
     rx="50.114223"
     x="84.450829"
     y="-434.18936"
     id="rect33-35"
     style="opacity:0.25;fill:#f9f9f9;fill-opacity:1;stroke-width:0.806614"
     transform="rotate(90)" />
  <path
     d="m 139.81875,141.8967 v 45.73355 a 4.1411877,4.1575968 0 0 0 4.14118,4.15759 4.1411877,4.1575968 0 0 0 4.1412,-4.15759 v -37.41837 h 37.27067 a 4.1411877,4.1575968 0 0 0 4.14121,-4.15759 4.1411877,4.1575968 0 0 0 -4.14121,-4.15759 z"
     color="#000000"
     fill="#ffffff"
     stroke-linecap="round"
     style="stroke-width:8.29877;-inkscape-stroke:none"
     id="path6" />
  <path
     d="m 326.1722,141.8967 a 4.1411877,4.1575968 0 0 0 -4.1412,4.15759 4.1411877,4.1575968 0 0 0 4.1412,4.15759 h 37.27069 v 37.41837 a 4.1411877,4.1575968 0 0 0 4.14118,4.15759 4.1411877,4.1575968 0 0 0 4.1412,-4.15759 V 141.8967 Z"
     color="#000000"
     fill="#ffffff"
     stroke-linecap="round"
     style="stroke-width:8.29877;-inkscape-stroke:none"
     id="path8" />
  <path
     d="m 367.58407,324.83094 a 4.1411877,4.1575968 0 0 0 -4.14118,4.15759 v 37.41838 H 326.1722 a 4.1411877,4.1575968 0 0 0 -4.1412,4.15759 4.1411877,4.1575968 0 0 0 4.1412,4.15761 h 45.55307 v -45.73358 a 4.1411877,4.1575968 0 0 0 -4.1412,-4.15759 z"
     color="#000000"
     fill="#ffffff"
     stroke-linecap="round"
     style="stroke-width:8.29877;-inkscape-stroke:none"
     id="path10" />
  <path
     d="m 143.95993,324.83094 a 4.1411877,4.1575968 0 0 0 -4.14118,4.15759 v 45.73358 h 45.55305 a 4.1411877,4.1575968 0 0 0 4.14121,-4.15761 4.1411877,4.1575968 0 0 0 -4.14121,-4.15759 h -37.27067 v -37.41838 a 4.1411877,4.1575968 0 0 0 -4.1412,-4.15759 z"
     color="#000000"
     fill="#ffffff"
     stroke-linecap="round"
     style="stroke-width:8.29877;-inkscape-stroke:none"
     id="path12" />
  <path
     d="m 239.20725,216.73343 c -9.17687,0 -16.56476,7.41715 -16.56476,16.63038 v 49.89117 c 0,9.21323 7.38789,16.63039 16.56476,16.63039 h 66.259 c 9.17689,0 16.56475,-7.41716 16.56475,-16.63039 v -49.89117 c 0,-9.21323 -7.38786,-16.63038 -16.56475,-16.63038 z m -16.56476,41.57596 -24.84711,-33.26076 h -8.28237 v 66.52154 h 8.28237 z m 49.19235,-33.26076 a 33.129501,33.260774 0 0 1 0.50192,0 33.129501,33.260774 0 0 1 33.12949,33.26076 33.129501,33.260774 0 0 1 -33.12949,33.26078 33.129501,33.260774 0 0 1 -33.12951,-33.26078 33.129501,33.260774 0 0 1 32.62759,-33.26076 z m 0.0969,16.63038 a 16.564751,16.630387 0 0 0 -16.16056,16.63038 16.564751,16.630387 0 0 0 16.56473,16.63038 16.564751,16.630387 0 0 0 16.56476,-16.63038 16.564751,16.630387 0 0 0 -16.56476,-16.63038 16.564751,16.630387 0 0 0 -0.40417,0 z"
     fill="#ffffff"
     id="path14"
     style="stroke-width:8.29877" />
</svg>
