<?xml version="1.0" encoding="UTF-8" standalone="no"?>
<!-- Created with Inkscape (http://www.inkscape.org/) -->

<svg
   version="1.1"
   width="100%"
   height="100%"
   viewBox="0 0 512 512"
   id="svg2"
   sodipodi:docname="office-calendar.svg"
   inkscape:version="1.1 (c68e22c387, 2021-05-23)"
   xmlns:inkscape="http://www.inkscape.org/namespaces/inkscape"
   xmlns:sodipodi="http://sodipodi.sourceforge.net/DTD/sodipodi-0.dtd"
   xmlns:xlink="http://www.w3.org/1999/xlink"
   xmlns="http://www.w3.org/2000/svg"
   xmlns:svg="http://www.w3.org/2000/svg"
   xmlns:rdf="http://www.w3.org/1999/02/22-rdf-syntax-ns#"
   xmlns:cc="http://creativecommons.org/ns#"
   xmlns:dc="http://purl.org/dc/elements/1.1/">
  <sodipodi:namedview
     id="namedview58"
     pagecolor="#ffffff"
     bordercolor="#666666"
     borderopacity="1.0"
     inkscape:pageshadow="2"
     inkscape:pageopacity="0.0"
     inkscape:pagecheckerboard="0"
     showgrid="false"
     inkscape:zoom="0.42773437"
     inkscape:cx="126.24658"
     inkscape:cy="299.25115"
     inkscape:window-width="1366"
     inkscape:window-height="700"
     inkscape:window-x="0"
     inkscape:window-y="0"
     inkscape:window-maximized="1"
     inkscape:current-layer="svg2" />
  <metadata
     id="metadata105">
    <rdf:RDF>
      <cc:Work
         rdf:about="">
        <dc:format>image/svg+xml</dc:format>
        <dc:type
           rdf:resource="http://purl.org/dc/dcmitype/StillImage" />
      </cc:Work>
    </rdf:RDF>
  </metadata>
  <defs
     id="defs4">
    <filter
       color-interpolation-filters="sRGB"
       id="7"
       x="-0.018107638"
       y="-0.017892786"
       width="1.0362153"
       height="1.0357856">
      <feGaussianBlur
         id="feGaussianBlur7"
         stdDeviation="3.7725" />
    </filter>
    <linearGradient
       y1="19.563999"
       x2="0"
       y2="504.01999"
       id="8"
       gradientUnits="userSpaceOnUse">
      <stop
         id="stop10"
         style="stop-color:#f3f3f3;stop-opacity:1"
         offset="0" />
      <stop
         id="stop12"
         style="stop-color:#eeeeee;stop-opacity:1"
         offset="0.5" />
      <stop
         id="stop14"
         style="stop-color:#ebebeb;stop-opacity:1"
         offset="1" />
    </linearGradient>
    <linearGradient
       x1="257"
       x2="362"
       id="5"
       xlink:href="#0"
       gradientUnits="userSpaceOnUse"
       gradientTransform="matrix(1.02835,0,0,1.46193,-443.33968,-52.656393)" />
    <linearGradient
       x1="257"
       x2="362"
       id="6"
       xlink:href="#0"
       gradientUnits="userSpaceOnUse"
       gradientTransform="matrix(1.0381,0,0,1.46193,-523.44525,-118.25)" />
    <linearGradient
       x1="257"
       x2="362"
       id="4"
       xlink:href="#0"
       gradientUnits="userSpaceOnUse"
       gradientTransform="matrix(1.02835,0,0,1.46193,-501.12333,-70.991689)" />
    <linearGradient
       x1="257"
       x2="362"
       id="3"
       xlink:href="#0"
       gradientUnits="userSpaceOnUse"
       gradientTransform="matrix(1.0381,0,0,1.46193,-476.00133,-46.875571)" />
    <linearGradient
       id="0">
      <stop
         id="stop21"
         style="stop-color:#000000;stop-opacity:1"
         offset="0" />
      <stop
         id="stop23"
         style="stop-color:#ffffff;stop-opacity:1"
         offset="1" />
    </linearGradient>
    <linearGradient
       x1="257"
       x2="362"
       id="2"
       xlink:href="#0"
       gradientUnits="userSpaceOnUse"
       gradientTransform="matrix(1.0381,0,0,1.46193,-503.61933,-83.021689)" />
    <linearGradient
       x1="257"
       x2="362"
       id="1"
       xlink:href="#0"
       gradientUnits="userSpaceOnUse"
       gradientTransform="matrix(1.0381,0,0,1.46193,-503.62333,-83.021689)" />
    <linearGradient
       gradientTransform="matrix(2.44033,0,0,2.44351,-838.36,-1011.07)"
       xlink:href="#1-6"
       id="0-3"
       y1="651.25"
       x2="0"
       y2="630.42999"
       gradientUnits="userSpaceOnUse" />
    <linearGradient
       id="1-6">
      <stop
         stop-color="#981fe7"
         id="stop5" />
      <stop
         offset="1"
         stop-color="#db50c8"
         id="stop7" />
    </linearGradient>
    <linearGradient
       gradientTransform="matrix(2.44033,0,0,2.44351,-838.36,-1011.07)"
       xlink:href="#1-6"
       id="linearGradient1039"
       y1="651.25"
       x2="0"
       y2="630.42999"
       gradientUnits="userSpaceOnUse" />
    <linearGradient
       xlink:href="#1-6"
       id="2-7"
       x1="375.73001"
       y1="576.15997"
       x2="376.76001"
       y2="536.29999"
       gradientUnits="userSpaceOnUse" />
    <linearGradient
       gradientTransform="matrix(2.73113,0,0,2.73291,-1074.8,-1262.93)"
       xlink:href="#1-6"
       id="3-5"
       y1="666.34998"
       x2="0"
       y2="647.5"
       gradientUnits="userSpaceOnUse" />
    <linearGradient
       inkscape:collect="always"
       xlink:href="#1-6"
       id="linearGradient933"
       x1="38.5"
       y1="256"
       x2="473.5"
       y2="256"
       gradientUnits="userSpaceOnUse"
       gradientTransform="matrix(1.0023954,0,0,0.98700703,-513.38325,4.0422388)" />
  </defs>
  <rect
     width="436.04199"
     height="429.34799"
     rx="63.351387"
     x="-474.79099"
     y="42.042"
     id="rect33"
     style="fill:url(#linearGradient933);fill-opacity:1;stroke-width:0.994671"
     transform="rotate(-90)" />
  <text
     x="1290.1436"
     y="132.63589"
     id="text39"
     style="font-size:128.542px;line-height:125%;font-family:'Gentium Book Basic';letter-spacing:0;word-spacing:0;stroke-width:0.994672"
     transform="scale(0.99229445,1.0077654)"><tspan
       x="1290.1436"
       y="132.63589"
       id="tspan41"
       style="stroke-width:0.994672" /></text>
  <text
     x="517.5354"
     y="184.94592"
     transform="scale(3.9818996,0.25113642)"
     id="text43"
     style="font-size:46.7036px;font-family:Arial;text-anchor:middle;stroke-width:0.994666" />
  <text
     x="1868.3164"
     y="53.062168"
     id="text45"
     style="font-size:128.542px;line-height:125%;font-family:'Gentium Book Basic';letter-spacing:0;word-spacing:0;stroke-width:0.994672"
     transform="scale(0.99229445,1.0077654)"><tspan
       x="1868.3164"
       y="53.062168"
       id="tspan47"
       style="stroke-width:0.994672" /></text>
  <text
     x="661.61279"
     y="-134.37177"
     transform="scale(3.9818996,0.25113642)"
     id="text49"
     style="font-size:46.7036px;font-family:Arial;text-anchor:middle;stroke-width:0.994666" />
  <text
     x="802.44672"
     y="-127.23198"
     id="text51"
     style="font-size:128.542px;line-height:125%;font-family:'Gentium Book Basic';letter-spacing:0;word-spacing:0;stroke-width:0.994672"
     transform="scale(0.99229445,1.0077654)"><tspan
       x="802.44672"
       y="-127.23198"
       id="tspan53"
       style="stroke-width:0.994672" /></text>
  <text
     x="395.99713"
     y="-857.84247"
     transform="scale(3.9818996,0.25113642)"
     id="text55"
     style="font-size:46.7036px;font-family:Arial;text-anchor:middle;stroke-width:0.994666" />
  <text
     x="1894.6454"
     y="-342.54852"
     id="text57"
     style="font-size:128.542px;line-height:125%;font-family:'Gentium Book Basic';letter-spacing:0;word-spacing:0;stroke-width:0.994672"
     transform="scale(0.99229445,1.0077654)"><tspan
       x="1894.6454"
       y="-342.54852"
       id="tspan59"
       style="stroke-width:0.994672" /></text>
  <text
     x="668.17761"
     y="-1721.889"
     transform="scale(3.9818996,0.25113642)"
     id="text61"
     style="font-size:46.7036px;font-family:Arial;text-anchor:middle;stroke-width:0.994666" />
  <text
     x="2472.8181"
     y="-422.12219"
     id="text63"
     style="font-size:128.542px;line-height:125%;font-family:'Gentium Book Basic';letter-spacing:0;word-spacing:0;stroke-width:0.994672"
     transform="scale(0.99229445,1.0077654)"><tspan
       x="2472.8181"
       y="-422.12219"
       id="tspan65"
       style="stroke-width:0.994672" /></text>
  <text
     x="812.255"
     y="-2041.2067"
     transform="scale(3.9818996,0.25113642)"
     id="text67"
     style="font-size:46.7036px;font-family:Arial;text-anchor:middle;stroke-width:0.994666" />
  <text
     x="2085.7717"
     y="-892.005"
     id="text69"
     style="font-size:128.542px;line-height:125%;font-family:'Gentium Book Basic';letter-spacing:0;word-spacing:0;stroke-width:0.994672"
     transform="scale(0.99229445,1.0077654)"><tspan
       x="2085.7717"
       y="-892.005"
       id="tspan71"
       style="stroke-width:0.994672" /></text>
  <text
     x="715.80231"
     y="-3926.7454"
     transform="scale(3.9818996,0.25113642)"
     id="text73"
     style="font-size:46.7036px;font-family:Arial;text-anchor:middle;stroke-width:0.994666" />
  <text
     x="2663.9348"
     y="-971.58868"
     id="text75"
     style="font-size:128.542px;line-height:125%;font-family:'Gentium Book Basic';letter-spacing:0;word-spacing:0;stroke-width:0.994672"
     transform="scale(0.99229445,1.0077654)"><tspan
       x="2663.9348"
       y="-971.58868"
       id="tspan77"
       style="stroke-width:0.994672" /></text>
  <text
     x="859.87964"
     y="-4246.0635"
     transform="scale(3.9818996,0.25113642)"
     id="text79"
     style="font-size:46.7036px;font-family:Arial;text-anchor:middle;stroke-width:0.994666" />
  <text
     x="840.9007"
     y="435.59296"
     id="text81"
     style="font-size:207.22px;line-height:125%;font-family:'Gentium Book Basic';letter-spacing:0;word-spacing:0;stroke-width:0.994672"
     transform="scale(0.99229445,1.0077654)"><tspan
       x="840.9007"
       y="435.59296"
       id="tspan83"
       style="stroke-width:0.994672" /></text>
  <g
     transform="matrix(0.98700694,0,0,1.0023954,780.24423,-46.707194)"
     id="g85"
     style="fill:#ffffff">
    <path
       d="m -599.81557,130.89897 c -2.903,-0.038 -5.842,1.01647 -8.344,3.26994 -4.543,4.09049 -4.491,3.96843 -4.719,27.30927 -0.133,13.53515 0.038,22.27925 0.5,24.48861 0.901,4.30794 3.334,7.65891 6.813,9.32362 6.137,2.94376 13.89,0.25643 16.719,-5.73777 1.377,-2.91915 1.402,-3.56123 1.219,-26.76053 l -0.188,-23.786 -1.875,-2.53246 c -2.698,-3.62175 -6.392,-5.5275 -10.125,-5.57775 m 154.25,0 c -3.733,0.0493 -7.427,1.94985 -10.125,5.57775 l -1.875,2.53246 v 24.61681 24.58503 l 1.719,2.72426 c 1.023,1.58471 2.934,3.29148 4.594,4.13357 5.384,2.7335 12.406,1.22674 15.844,-3.39815 2.807,-3.7756 3.162,-7.37478 2.938,-30.19457 -0.229,-23.34084 -0.21,-23.18596 -4.75,-27.27749 -2.502,-2.25346 -5.44,-3.30788 -8.344,-3.26993 z m -196.09,26.66822 c -11.925,0 -16.497,0.2636 -19.469,1.05749 -12.637,3.37558 -22.974,13.37514 -27.344,26.47641 l -1.469,4.35923 -0.188,124.01747 c -0.196,138.27471 -0.478,129.07417 4.406,139.23887 4.932,10.26726 15.08,18.24618 26.25,20.70889 6.535,1.44008 266.55,1.46983 273.25,0.0318 11.443,-2.45553 21.534,-10.33907 26.531,-20.73967 4.884,-10.16161 4.602,-0.96723 4.406,-139.23886 l -0.156,-124.01747 -1.469,-4.35924 c -4.369,-13.10025 -14.707,-23.09569 -27.344,-26.47641 -2.97,-0.79389 -7.544,-1.05749 -19.469,-1.05749 h -15.563 v 12.94947 c -0.002,7.1081 -0.283,14.64598 -0.625,16.79585 -1.66,10.39547 -8.54,18.67288 -18.06,21.63203 -4.254,1.32315 -11.03,1.24724 -15.03,-0.12822 -8.02,-2.75605 -14.19,-9.00668 -16.906,-17.2769 -0.888,-2.70067 -1.063,-6.11215 -1.063,-18.62673 v -15.35371 h -51.719 -51.719 v 15.35375 c 0,12.51048 -0.205,15.92093 -1.094,18.62673 -6.366,19.35805 -30,24.84247 -43.31,10.03238 -3.377,-3.75817 -5.813,-8.97898 -6.656,-14.2634 -0.344,-2.14986 -0.653,-9.68671 -0.656,-16.79584 v -12.94951 z m -23.06,91.96431 h 142.03 142.03 v 93.17466 c -0.002,66.16795 -0.234,93.92341 -0.75,95.84147 -0.948,3.50379 -5.335,8.00149 -8.75,8.97488 -1.878,0.53439 -39.4,0.78773 -132.87,0.76927 -110.58,-0.0215 -130.63,-0.18667 -132.84,-0.9939 -3.312,-1.20212 -7.24,-5.43314 -8.156,-8.81487 -0.488,-1.80011 -0.685,-31.33721 -0.688,-95.76967 v -93.14388 z m 92.13,31.25208 c -19.323,0.26053 -38.03,16.18556 -39.34,36.38057 4.7,11.41811 26.503,7.92868 27.22,1.12213 0.828,-14.99575 25.962,-18.59596 30.28,-3.65458 2.792,13.88491 -9.255,24.20141 -18.688,31.70031 -15.547,13.4777 -33.19,27.24979 -39.19,48.11151 -0.225,5.79111 -1.485,15.09627 5.969,16.60405 27.367,-0.95083 54.751,-0.13437 82.13,-0.44926 -4.947,-23.91831 0.104,0.37951 -5,-24.2968 -16.796,-1.15801 -33.674,-0.4031 -50.47,-0.38464 16.01,-19.38881 42.35,-30.9659 50.781,-56.47507 6.583,-19.41139 -5.358,-43.85076 -25.781,-47.08582 -5.231,-1.2893 -10.642,-1.73241 -16.03,-1.53855 -0.624,-0.0246 -1.252,-0.04 -1.875,-0.0317 m 93.72,0 c -1.272,-0.005 -2.554,0.006 -3.813,0.0317 -19.328,0.48926 -38.14,16.54455 -38.438,37.05856 4.542,10.3924 24.788,6.28858 26.531,1.31393 -0.163,-11.05501 13.04,-16.34762 22.19,-13.49412 11.349,2.31603 13.02,21.54997 1.656,25.41789 -6.964,4.14383 -16.08,-1.12212 -22.563,3.74995 -7.229,9.60364 -2.406,26.58309 10.406,23.3029 8.695,-0.55183 21.15,1.60932 22.813,12.1484 1.651,8.92359 -5.842,18.10465 -14.719,17.43691 -8.846,1.40624 -20.854,-3.54071 -20.813,-14.07159 -3.483,-8.62409 -27.388,-6.76449 -27.2,1.52215 0.119,3.31609 0.717,6.53679 1.719,9.60363 5,15.31576 20.09,26.78105 36.07,27.01799 18.647,2.86991 41.39,-3.62586 49.03,-22.7603 6.741,-15.38141 2.025,-36.53239 -12.594,-44.7462 18.482,-13.78849 15.916,-46.99145 -4.563,-57.72643 -7.705,-4.76951 -16.815,-5.76649 -25.719,-5.80137"
       inkscape:connector-curvature="0"
       id="path87"
       style="opacity:0.289777;fill:#ffffff;stroke-width:1.01277" />
    <path
       d="m -614.81557,115.51346 c -2.903,-0.038 -5.842,1.01647 -8.344,3.26993 -4.543,4.09049 -4.491,3.96844 -4.719,27.30929 -0.133,13.53514 0.038,22.27924 0.5,24.4886 0.901,4.30794 3.334,7.6589 6.813,9.32362 6.137,2.94376 13.89,0.25642 16.719,-5.73777 1.377,-2.91914 1.402,-3.56123 1.219,-26.76053 l -0.188,-23.786 -1.875,-2.53246 c -2.698,-3.62175 -6.392,-5.5275 -10.125,-5.57775 m 154.25,0 c -3.733,0.0493 -7.427,1.94985 -10.125,5.57775 l -1.875,2.53246 v 24.61682 24.58502 l 1.719,2.72425 c 1.023,1.58472 2.934,3.29148 4.594,4.13358 5.384,2.73349 12.406,1.22673 15.844,-3.39815 2.807,-3.7756 3.162,-7.37479 2.938,-30.19458 -0.229,-23.34084 -0.21,-23.18596 -4.75,-27.27748 -2.502,-2.25346 -5.44,-3.30788 -8.344,-3.26993 z m -196.09,26.66821 c -11.925,0 -16.497,0.26361 -19.469,1.0575 -12.637,3.37558 -22.974,13.37513 -27.344,26.47641 l -1.469,4.35923 -0.188,124.01747 c -0.196,138.27471 -0.478,129.07417 4.406,139.23887 4.932,10.26727 15.08,18.24619 26.25,20.70889 6.535,1.44009 266.55,1.46984 273.25,0.0317 11.443,-2.45552 21.534,-10.33906 26.531,-20.73967 4.884,-10.16162 4.602,-0.96723 4.406,-139.23886 l -0.156,-124.01748 -1.469,-4.35922 c -4.369,-13.10025 -14.707,-23.09571 -27.344,-26.47641 -2.97,-0.7939 -7.544,-1.0575 -19.469,-1.0575 h -15.563 V 155.129 c -0.002,7.10811 -0.283,14.64598 -0.625,16.79584 -1.66,10.39549 -8.54,18.67289 -18.06,21.63203 -4.254,1.32316 -11.03,1.24726 -15.03,-0.1282 -8.02,-2.75606 -14.19,-9.00668 -16.906,-17.27691 -0.888,-2.70066 -1.063,-6.11215 -1.063,-18.62672 v -15.35372 h -51.719 -51.719 v 15.35372 c 0,12.51047 -0.205,15.92092 -1.094,18.62672 -6.366,19.35805 -30,24.84247 -43.31,10.03238 -3.377,-3.75817 -5.813,-8.97899 -6.656,-14.26339 -0.344,-2.14987 -0.653,-9.68672 -0.656,-16.79586 v -12.94947 z m -23.06,91.96433 h 142.03 142.03 v 93.17464 c -0.002,66.16795 -0.234,93.92342 -0.75,95.84148 -0.948,3.5038 -5.335,8.00149 -8.75,8.97488 -1.878,0.53439 -39.4,0.78774 -132.87,0.76927 -110.58,-0.0215 -130.63,-0.18667 -132.84,-0.9939 -3.312,-1.20212 -7.24,-5.43314 -8.156,-8.81487 -0.488,-1.80011 -0.685,-31.33721 -0.688,-95.76967 v -93.14389 z m 92.13,31.25207 c -19.323,0.26053 -38.03,16.18556 -39.34,36.38058 4.7,11.41809 26.503,7.92866 27.22,1.12211 0.828,-14.99574 25.962,-18.59595 30.28,-3.65456 2.792,13.8849 -9.255,24.2014 -18.688,31.7003 -15.547,13.4777 -33.19,27.24979 -39.19,48.11152 -0.225,5.7911 -1.485,15.09625 5.969,16.60404 27.367,-0.95083 54.751,-0.13437 82.13,-0.44926 -4.947,-23.91832 0.104,0.37951 -5,-24.2968 -16.796,-1.15801 -33.674,-0.4031 -50.47,-0.38463 16.01,-19.38882 42.35,-30.96591 50.781,-56.47509 6.583,-19.41138 -5.358,-43.85075 -25.781,-47.08581 -5.231,-1.2893 -10.642,-1.73241 -16.03,-1.53855 -0.624,-0.0246 -1.252,-0.04 -1.875,-0.0318 m 93.72,0 c -1.272,-0.005 -2.554,0.006 -3.813,0.0318 -19.328,0.48925 -38.14,16.54455 -38.438,37.05856 4.542,10.39241 24.788,6.28857 26.531,1.31392 -0.163,-11.05499 13.04,-16.34761 22.19,-13.49411 11.349,2.31603 13.02,21.54997 1.656,25.41789 -6.964,4.14383 -16.08,-1.12212 -22.563,3.74996 -7.229,9.60364 -2.406,26.58308 10.406,23.30289 8.695,-0.55182 21.15,1.60933 22.813,12.1484 1.651,8.9236 -5.842,18.10465 -14.719,17.43691 -8.846,1.40624 -20.854,-3.54072 -20.813,-14.07158 -3.483,-8.6241 -27.388,-6.7645 -27.2,1.52214 0.119,3.31609 0.717,6.53678 1.719,9.60363 5,15.31576 20.09,26.78105 36.07,27.01798 18.647,2.86991 41.39,-3.62585 49.03,-22.76029 6.741,-15.38141 2.025,-36.53239 -12.594,-44.7462 18.482,-13.78849 15.916,-46.99145 -4.563,-57.72643 -7.705,-4.76952 -16.815,-5.76649 -25.719,-5.80136"
       inkscape:connector-curvature="0"
       id="path89"
       style="fill:#ffffff;stroke-width:1.01277" />
  </g>
</svg>
