<?xml version="1.0" encoding="UTF-8" standalone="no"?>
<!-- Created with Inkscape (http://www.inkscape.org/) -->

<svg
   version="1.1"
   width="100%"
   height="100%"
   viewBox="0 0 512 512"
   id="svg2"
   sodipodi:docname="slack.svg"
   inkscape:version="1.1 (c68e22c387, 2021-05-23)"
   xmlns:inkscape="http://www.inkscape.org/namespaces/inkscape"
   xmlns:sodipodi="http://sodipodi.sourceforge.net/DTD/sodipodi-0.dtd"
   xmlns:xlink="http://www.w3.org/1999/xlink"
   xmlns="http://www.w3.org/2000/svg"
   xmlns:svg="http://www.w3.org/2000/svg"
   xmlns:rdf="http://www.w3.org/1999/02/22-rdf-syntax-ns#"
   xmlns:cc="http://creativecommons.org/ns#"
   xmlns:dc="http://purl.org/dc/elements/1.1/">
  <sodipodi:namedview
     id="namedview39"
     pagecolor="#ffffff"
     bordercolor="#666666"
     borderopacity="1.0"
     inkscape:pageshadow="2"
     inkscape:pageopacity="0.0"
     inkscape:pagecheckerboard="0"
     showgrid="false"
     inkscape:zoom="0.60490775"
     inkscape:cx="328.97578"
     inkscape:cy="285.99402"
     inkscape:window-width="1366"
     inkscape:window-height="700"
     inkscape:window-x="0"
     inkscape:window-y="0"
     inkscape:window-maximized="1"
     inkscape:current-layer="svg2" />
  <metadata
     id="metadata65">
    <rdf:RDF>
      <cc:Work
         rdf:about="">
        <dc:format>image/svg+xml</dc:format>
        <dc:type
           rdf:resource="http://purl.org/dc/dcmitype/StillImage" />
      </cc:Work>
    </rdf:RDF>
  </metadata>
  <defs
     id="defs4">
    <filter
       color-interpolation-filters="sRGB"
       id="7"
       x="-0.018107638"
       y="-0.017892786"
       width="1.0362153"
       height="1.0357856">
      <feGaussianBlur
         id="feGaussianBlur7"
         stdDeviation="3.7725" />
    </filter>
    <linearGradient
       y1="19.563999"
       x2="0"
       y2="504.01999"
       id="8"
       gradientUnits="userSpaceOnUse">
      <stop
         id="stop10"
         style="stop-color:#f3f3f3;stop-opacity:1"
         offset="0" />
      <stop
         id="stop12"
         style="stop-color:#eeeeee;stop-opacity:1"
         offset="0.5" />
      <stop
         id="stop14"
         style="stop-color:#ebebeb;stop-opacity:1"
         offset="1" />
    </linearGradient>
    <linearGradient
       x1="257"
       x2="362"
       id="5"
       xlink:href="#0"
       gradientUnits="userSpaceOnUse"
       gradientTransform="matrix(1.02835,0,0,1.46193,-383.73694,-115.70205)" />
    <linearGradient
       x1="257"
       x2="362"
       id="6"
       xlink:href="#0"
       gradientUnits="userSpaceOnUse"
       gradientTransform="matrix(1.0381,0,0,1.46193,-467.2489,-124.14041)" />
    <linearGradient
       x1="257"
       x2="362"
       id="4"
       xlink:href="#0"
       gradientUnits="userSpaceOnUse"
       gradientTransform="matrix(1.02835,0,0,1.46193,-610.00374,-127.97146)" />
    <linearGradient
       x1="257"
       x2="362"
       id="3"
       xlink:href="#0"
       gradientUnits="userSpaceOnUse"
       gradientTransform="matrix(1.0381,0,0,1.46193,-427.0919,-112.11041)" />
    <linearGradient
       id="0">
      <stop
         id="stop21"
         style="stop-color:#000000;stop-opacity:1"
         offset="0" />
      <stop
         id="stop23"
         style="stop-color:#ffffff;stop-opacity:1"
         offset="1" />
    </linearGradient>
    <linearGradient
       x1="257"
       x2="362"
       id="2"
       xlink:href="#0"
       gradientUnits="userSpaceOnUse"
       gradientTransform="matrix(1.0381,0,0,1.46193,-467.2489,-112.11041)" />
    <linearGradient
       x1="257"
       x2="362"
       id="1"
       xlink:href="#0"
       gradientUnits="userSpaceOnUse"
       gradientTransform="matrix(1.0381,0,0,1.46193,-467.2529,-112.11041)" />
    <filter
       style="color-interpolation-filters:sRGB"
       inkscape:label="Drop Shadow"
       id="filter4883"
       x="-0.063157583"
       y="-0.063157158"
       width="1.1263152"
       height="1.1526298">
      <feFlood
         flood-opacity="0.12"
         flood-color="rgb(0,0,0)"
         result="flood"
         id="feFlood4885" />
      <feComposite
         in="flood"
         in2="SourceGraphic"
         operator="in"
         result="composite1"
         id="feComposite4887" />
      <feGaussianBlur
         in="composite1"
         stdDeviation="2"
         result="blur"
         id="feGaussianBlur4889" />
      <feOffset
         dx="0"
         dy="0"
         result="offset"
         id="feOffset4891" />
      <feComposite
         in="SourceGraphic"
         in2="offset"
         operator="over"
         result="fbSourceGraphic"
         id="feComposite4893" />
      <feColorMatrix
         result="fbSourceGraphicAlpha"
         in="fbSourceGraphic"
         values="0 0 0 -1 0 0 0 0 -1 0 0 0 0 -1 0 0 0 0 1 0"
         id="feColorMatrix4895" />
      <feFlood
         id="feFlood4897"
         flood-opacity="0.23999999999999999"
         flood-color="rgb(0,0,0)"
         result="flood"
         in="fbSourceGraphic" />
      <feComposite
         id="feComposite4899"
         in2="fbSourceGraphic"
         in="flood"
         operator="in"
         result="composite1" />
      <feGaussianBlur
         id="feGaussianBlur4901"
         in="composite1"
         stdDeviation="2"
         result="blur" />
      <feOffset
         id="feOffset4903"
         dx="0"
         dy="4"
         result="offset" />
      <feComposite
         id="feComposite4905"
         in2="offset"
         in="fbSourceGraphic"
         operator="over"
         result="composite2" />
    </filter>
    <linearGradient
       inkscape:collect="always"
       xlink:href="#linearGradient7066"
       id="linearGradient7072"
       x1="43.003906"
       y1="920.99628"
       x2="77.117836"
       y2="955.11023"
       gradientUnits="userSpaceOnUse"
       gradientTransform="matrix(2.2660122,0,0,2.2393446,38.466819,-1882.8015)" />
    <linearGradient
       inkscape:collect="always"
       id="linearGradient7066">
      <stop
         style="stop-color:#263238;stop-opacity:0.2"
         offset="0"
         id="stop7068" />
      <stop
         style="stop-color:#263238;stop-opacity:0;"
         offset="1"
         id="stop7070" />
    </linearGradient>
    <clipPath
       clipPathUnits="userSpaceOnUse"
       id="clipPath7129">
      <path
         style="fill:#f9ce1d;fill-opacity:1;fill-rule:nonzero;stroke:none"
         clip-path="none"
         d="m 51.279297,897.98911 c -1.331953,0.0168 -2.684038,0.23278 -4.017578,0.66602 -7.111594,2.31063 -11.003861,9.95028 -8.69336,17.0625 l 4.435547,13.64844 -14.078125,4.57617 c -6.643811,2.40347 -10.377885,9.58156 -8.394531,16.4707 2.068555,7.18612 9.701214,11.56699 16.759766,9.27344 0.03508,-0.0114 10.910831,-3.54572 14.082031,-4.57617 l 22.207031,68.32619 c 2.403475,6.6443 9.581074,10.3783 16.470703,8.3945 7.186249,-2.0677 11.566989,-9.7013 9.273438,-16.7598 -0.05525,-0.1701 -11.919654,-36.68465 -22.201172,-68.32808 6.84382,-2.22376 7.411408,-2.40765 14.800781,-4.80859 l -7.017578,-26.1875 -16.150391,5.25 c -0.979051,-3.01323 -4.433593,-13.64844 -4.433593,-13.64844 -1.877688,-5.77797 -7.271175,-9.43207 -13.042969,-9.35938 z"
         id="path7131"
         inkscape:connector-curvature="0" />
    </clipPath>
    <filter
       style="color-interpolation-filters:sRGB"
       inkscape:label="Drop Shadow"
       id="filter7257"
       x="-0.15475197"
       y="-0.071442707"
       width="1.3739839"
       height="1.1726532">
      <feFlood
         flood-opacity="0.2"
         flood-color="rgb(38,50,56)"
         result="flood"
         id="feFlood7259" />
      <feComposite
         in="flood"
         in2="SourceGraphic"
         operator="in"
         result="composite1"
         id="feComposite7261" />
      <feGaussianBlur
         in="composite1"
         stdDeviation="4"
         result="blur"
         id="feGaussianBlur7263" />
      <feOffset
         dx="4"
         dy="4"
         result="offset"
         id="feOffset7265" />
      <feComposite
         in="SourceGraphic"
         in2="offset"
         operator="over"
         result="composite2"
         id="feComposite7267" />
    </filter>
    <linearGradient
       inkscape:collect="always"
       xlink:href="#linearGradient7066"
       id="linearGradient7104"
       x1="60.636719"
       y1="114.88477"
       x2="100.12527"
       y2="154.37332"
       gradientUnits="userSpaceOnUse"
       gradientTransform="matrix(2.2660122,0,0,2.2393446,38.466819,43.845913)" />
    <clipPath
       clipPathUnits="userSpaceOnUse"
       id="clipPath7217">
      <path
         style="fill:#ffeb3b;fill-opacity:1;fill-rule:nonzero;stroke:none"
         clip-path="none"
         d="m 51.279297,897.98911 c -1.331953,0.0168 -2.684038,0.23278 -4.017578,0.66602 -7.111594,2.31063 -11.003861,9.95028 -8.69336,17.0625 l 22.06836,67.89648 -14.083985,4.57813 c -6.644359,2.4035 -10.377382,9.58108 -8.394531,16.47066 2.068596,7.1861 9.700641,11.567 16.759766,9.2735 0.035,-0.011 10.865448,-3.5298 14.085937,-4.5762 l 4.576172,14.0762 c 2.403475,6.6443 9.581074,10.3783 16.470703,8.3945 7.186249,-2.0677 11.566989,-9.7013 9.273438,-16.7598 -0.01138,-0.035 -3.528853,-10.8607 -4.574219,-14.0781 31.6306,-10.27728 67.89062,-22.05857 67.89062,-22.05857 7.1126,-2.311 11.00399,-9.94831 8.69336,-17.06055 -2.31062,-7.11159 -9.9492,-11.00386 -17.06054,-8.69336 l -67.888674,22.06641 c -10.277797,-31.63202 -22.0625,-67.89844 -22.0625,-67.89844 -1.877688,-5.77797 -7.271175,-9.43207 -13.042969,-9.35938 z"
         id="path7219"
         inkscape:connector-curvature="0" />
    </clipPath>
    <filter
       style="color-interpolation-filters:sRGB"
       inkscape:label="Drop Shadow"
       id="filter7245"
       x="-0.071442886"
       y="-0.15475306"
       width="1.1726536"
       height="1.3739866">
      <feFlood
         flood-opacity="0.2"
         flood-color="rgb(38,50,56)"
         result="flood"
         id="feFlood7247" />
      <feComposite
         in="flood"
         in2="SourceGraphic"
         operator="in"
         result="composite1"
         id="feComposite7249" />
      <feGaussianBlur
         in="composite1"
         stdDeviation="4"
         result="blur"
         id="feGaussianBlur7251" />
      <feOffset
         dx="4"
         dy="4"
         result="offset"
         id="feOffset7253" />
      <feComposite
         in="SourceGraphic"
         in2="offset"
         operator="over"
         result="composite2"
         id="feComposite7255" />
    </filter>
    <linearGradient
       inkscape:collect="always"
       xlink:href="#linearGradient7056"
       id="linearGradient7062"
       x1="114.88472"
       y1="957.61346"
       x2="149.00189"
       y2="991.73065"
       gradientUnits="userSpaceOnUse"
       gradientTransform="matrix(2.2660122,0,0,2.2393446,38.466819,-1882.8015)" />
    <linearGradient
       inkscape:collect="always"
       id="linearGradient7056">
      <stop
         style="stop-color:#3e2723;stop-opacity:0.2"
         offset="0"
         id="stop7058" />
      <stop
         style="stop-color:#3e2723;stop-opacity:0;"
         offset="1"
         id="stop7060" />
    </linearGradient>
    <clipPath
       clipPathUnits="userSpaceOnUse"
       id="clipPath7175">
      <path
         style="fill:#ffeb3b;fill-opacity:1;fill-rule:nonzero;stroke:none"
         clip-path="none"
         d="m 105.5293,880.36216 c -1.33196,0.0169 -2.68404,0.23254 -4.01758,0.66602 -7.111599,2.31062 -11.003863,9.9492 -8.693361,17.06054 l 22.066411,67.89453 -68.332036,22.20899 c -6.644359,2.4035 -10.377382,9.58107 -8.394531,16.47066 2.068596,7.1861 9.700641,11.567 16.759766,9.2735 0.169824,-0.055 36.691671,-11.9234 68.335941,-22.2051 l 4.57617,14.0781 c 2.40347,6.6438 9.58057,10.3774 16.4707,8.3946 7.18625,-2.0691 11.56661,-9.7012 9.27344,-16.75981 -0.0114,-0.035 -3.52884,-10.86085 -4.57422,-14.07812 3.01008,-0.97803 13.64062,-4.43164 13.64062,-4.43164 7.1126,-2.311 11.00399,-9.94832 8.69336,-17.06055 -2.31062,-7.11159 -9.9492,-11.00386 -17.06054,-8.69336 l -13.64063,4.43359 c -10.27756,-31.63095 -22.06054,-67.89257 -22.06054,-67.89257 -1.87768,-5.77899 -7.27118,-9.43271 -13.04297,-9.35938 z"
         id="path7177"
         inkscape:connector-curvature="0" />
    </clipPath>
    <filter
       style="color-interpolation-filters:sRGB"
       inkscape:label="Drop Shadow"
       id="filter7233"
       x="-0.15475193"
       y="-0.07144265"
       width="1.3739838"
       height="1.1726531">
      <feFlood
         flood-opacity="0.2"
         flood-color="rgb(62,39,35)"
         result="flood"
         id="feFlood7235" />
      <feComposite
         in="flood"
         in2="SourceGraphic"
         operator="in"
         result="composite1"
         id="feComposite7237" />
      <feGaussianBlur
         in="composite1"
         stdDeviation="4"
         result="blur"
         id="feGaussianBlur7239" />
      <feOffset
         dx="4"
         dy="4"
         result="offset"
         id="feOffset7241" />
      <feComposite
         in="SourceGraphic"
         in2="offset"
         operator="over"
         result="composite2"
         id="feComposite7243" />
    </filter>
    <linearGradient
       inkscape:collect="always"
       xlink:href="#linearGradient7046"
       id="linearGradient7052"
       x1="97.253906"
       y1="903.36346"
       x2="147.7933"
       y2="953.90289"
       gradientUnits="userSpaceOnUse"
       gradientTransform="matrix(2.2660122,0,0,2.2393446,38.466819,-1882.8015)" />
    <linearGradient
       inkscape:collect="always"
       id="linearGradient7046">
      <stop
         style="stop-color:#bf360c;stop-opacity:0.2"
         offset="0"
         id="stop7048" />
      <stop
         style="stop-color:#bf360c;stop-opacity:0;"
         offset="1"
         id="stop7050" />
    </linearGradient>
    <clipPath
       clipPathUnits="userSpaceOnUse"
       id="clipPath7152">
      <path
         style="fill:#ffeb3b;fill-opacity:1;fill-rule:nonzero;stroke:none"
         clip-path="none"
         d="m 105.5293,20 c -1.33196,0.01692 -2.68404,0.232538 -4.01758,0.666016 -7.111599,2.31062 -11.003863,9.949207 -8.693361,17.060546 L 97.253906,51.371094 83.589844,55.8125 90.607422,82 c 7.315321,-2.376878 8.1037,-2.633065 15.015628,-4.878906 l 22.20703,68.326176 c 2.40347,6.6438 9.58057,10.37733 16.4707,8.39453 7.18625,-2.0691 11.56661,-9.70114 9.27344,-16.75977 -0.0553,-0.1698 -11.91964,-36.68484 -22.20117,-68.328124 3.04584,-0.989679 13.64062,-4.43164 13.64062,-4.43164 7.11134,-2.31099 11.00399,-9.948327 8.69336,-17.060547 -1.87739,-5.77898 -7.2711,-9.432335 -13.04297,-9.359375 -1.33197,0.0168 -2.68404,0.232775 -4.01758,0.666015 l -13.64062,4.433594 C 122.02751,39.990908 118.57227,29.359375 118.57227,29.359375 116.69459,23.580387 111.30109,19.926669 105.5293,20 Z"
         id="path7154"
         inkscape:connector-curvature="0" />
    </clipPath>
    <filter
       style="color-interpolation-filters:sRGB"
       inkscape:label="Drop Shadow"
       id="filter7221"
       x="-0.13562567"
       y="-0.21769321"
       width="1.327762"
       height="1.5260919">
      <feFlood
         flood-opacity="0.2"
         flood-color="rgb(191,54,12)"
         result="flood"
         id="feFlood7223" />
      <feComposite
         in="flood"
         in2="SourceGraphic"
         operator="in"
         result="composite1"
         id="feComposite7225" />
      <feGaussianBlur
         in="composite1"
         stdDeviation="4"
         result="blur"
         id="feGaussianBlur7227" />
      <feOffset
         dx="4"
         dy="4"
         result="offset"
         id="feOffset7229" />
      <feComposite
         in="SourceGraphic"
         in2="offset"
         operator="over"
         result="composite2"
         id="feComposite7231" />
    </filter>
    <linearGradient
       inkscape:collect="always"
       xlink:href="#8"
       id="linearGradient1221"
       x1="38.5"
       y1="256"
       x2="473.5"
       y2="256"
       gradientUnits="userSpaceOnUse"
       gradientTransform="matrix(0.98700701,0,0,1.0023953,4.0962577,-513.32919)" />
  </defs>
  <rect
     width="429.34799"
     height="436.04199"
     rx="62.378849"
     x="42.096024"
     y="-474.737"
     id="rect33"
     style="fill:url(#linearGradient1221);fill-opacity:1;stroke-width:0.994672"
     transform="rotate(90)" />
  <path
     inkscape:connector-curvature="0"
     style="fill:#ffffff;fill-opacity:1;fill-rule:nonzero;stroke:none;filter:url(#filter4883)"
     d="m 153.66937,89.258395 c -1.33196,0.0169 -2.68404,0.23254 -4.01758,0.66602 -7.1116,2.31062 -11.00386,9.94921 -8.69336,17.060545 l 4.43555,13.64648 -28.49805,9.26172 c -0.97905,-3.01323 -4.43359,-13.64844 -4.43359,-13.64844 -2.311,-7.11135 -9.94833,-11.00399 -17.060554,-8.69336 -7.1116,2.31063 -11.00386,9.95028 -8.69336,17.0625 l 4.43555,13.64844 -14.07813,4.57617 c -6.64381,2.40347 -10.37788,9.58157 -8.39453,16.47071 2.06856,7.18612 9.70121,11.56698 16.75977,9.27343 0.0351,-0.0114 10.86295,-3.53024 14.08203,-4.57617 l 9.263674,28.5039 -14.083994,4.57813 c -6.64436,2.4035 -10.37738,9.58107 -8.39453,16.47072 2.0686,7.1861 9.70064,11.567 16.759774,9.2735 0.035,-0.011 10.86545,-3.5298 14.08594,-4.5762 l 4.57617,14.0762 c 2.40347,6.6443 9.58107,10.3783 16.4707,8.3945 7.18625,-2.0677 11.56699,-9.7013 9.27344,-16.7598 -0.0114,-0.035 -3.52885,-10.8607 -4.57422,-14.0782 13.28018,-4.31489 15.30467,-4.97301 28.50391,-9.26166 l 4.57617,14.07816 c 2.40347,6.6438 9.58057,10.3774 16.4707,8.3946 7.18625,-2.0691 11.56661,-9.7012 9.27344,-16.75987 -0.0114,-0.035 -3.52884,-10.86085 -4.57422,-14.07812 3.01008,-0.97803 13.64062,-4.43164 13.64062,-4.43164 7.1126,-2.311 11.00399,-9.94832 8.69336,-17.06055 -2.31062,-7.11159 -9.9492,-11.00386 -17.06054,-8.69336 l -13.64063,4.4336 c -4.31402,-13.27713 -4.97157,-15.30036 -9.25976,-28.49805 3.01009,-0.97803 13.64062,-4.43164 13.64062,-4.43164 7.11134,-2.31099 11.00399,-9.94833 8.69336,-17.06055 -2.31063,-7.11259 -9.94834,-11.00399 -17.06055,-8.69336 l -13.64062,4.4336 c -0.97835,-3.01105 -4.43359,-13.642575 -4.43359,-13.642575 -1.87768,-5.77899 -7.27118,-9.43271 -13.04297,-9.35938 z m 0.0937,57.121095 9.26172,28.49999 -28.5,9.26368 c -4.31459,-13.27917 -4.9726,-15.30343 -9.26167,-28.50391 13.27837,-4.31437 15.30201,-4.9715 28.5,-9.25976 z"
     id="path14-4-8-8"
     transform="matrix(2.2660122,0,0,2.2393449,-70.619155,-111.24899)" />
  <path
     style="fill:#7cd3dc;fill-opacity:1;fill-rule:nonzero;stroke:none;stroke-width:2.25265"
     d="M 230.86542,167.87149 104.013,208.61708 c -15.054959,5.38219 -23.516416,21.45641 -19.022119,36.88356 4.68737,16.09222 21.983069,25.90248 37.977839,20.76644 0.30838,-0.0989 61.99067,-19.90657 123.79862,-39.75274 z"
     id="path24-5"
     inkscape:connector-curvature="0"
     sodipodi:nodetypes="cccccc"
     clip-path="none" />
  <path
     style="opacity:0.2;fill:#263238;fill-opacity:1;fill-rule:nonzero;stroke:none;stroke-width:2.25265"
     d="m 243.22737,225.41192 c -39.40446,12.65281 -77.78238,24.97608 -120.25865,38.6158 -15.99477,5.13606 -33.290469,-4.67422 -37.977839,-20.76641 -0.71334,-2.4486 -1.06471,-4.91202 -1.15072,-7.34786 -0.12734,3.15837 0.21733,6.3831 1.15072,9.58719 4.68737,16.09222 21.983069,25.90248 37.977839,20.76644 42.66851,-13.70147 81.22376,-26.08197 120.81629,-38.79515 z"
     id="path24-1-8"
     inkscape:connector-curvature="0"
     sodipodi:nodetypes="cscccscc" />
  <path
     style="opacity:0.2;fill:#ffffff;fill-opacity:1;fill-rule:nonzero;stroke:none;stroke-width:2.25265"
     d="m 214.36511,173.17146 c -39.81152,12.78749 -70.54067,22.65787 -110.35211,35.44562 -12.664019,4.52741 -20.626779,16.6263 -20.172839,29.53572 0.48391,-12.05019 8.24322,-23.03151 20.172839,-27.29639 40.22584,-12.92084 71.36982,-22.92301 111.59575,-35.84362 z"
     id="path24-8-7"
     inkscape:connector-curvature="0"
     sodipodi:nodetypes="cccccc" />
  <path
     style="color:#000000;clip-rule:nonzero;display:inline;overflow:visible;visibility:visible;isolation:auto;mix-blend-mode:normal;color-interpolation:sRGB;color-interpolation-filters:linearRGB;solid-color:#000000;solid-opacity:1;fill:url(#linearGradient7072);fill-opacity:1;fill-rule:nonzero;stroke:none;stroke-width:9.01056;stroke-linecap:butt;stroke-linejoin:miter;stroke-miterlimit:4;stroke-dasharray:none;stroke-dashoffset:0;stroke-opacity:1;color-rendering:auto;image-rendering:auto;shape-rendering:auto;text-rendering:auto;enable-background:accumulate"
     d="m 135.9142,198.36797 58.35423,-18.74138 48.68525,48.11228 -88.07491,28.28058 z"
     id="path7064"
     inkscape:connector-curvature="0" />
  <path
     inkscape:connector-curvature="0"
     id="path16"
     style="fill:#4dc088;fill-opacity:1;fill-rule:nonzero;stroke:none;filter:url(#filter7257)"
     d="m 64.322846,907.34808 c -2.311,-7.11135 -9.949402,-11.00352 -17.061619,-8.69289 -7.111594,2.31063 -11.00389,9.9494 -8.693389,17.06162 l 35.012094,107.71959 c 2.403475,6.6443 9.580375,10.3778 16.470004,8.394 7.186249,-2.0677 11.567714,-9.7003 9.274159,-16.7588 -0.0871,-0.2683 -35.001249,-107.72352 -35.001249,-107.72352"
     clip-path="url(#clipPath7129)"
     transform="matrix(2.2660122,0,0,2.2393449,38.466818,-1882.8015)" />
  <path
     style="opacity:0.2;fill:#ffffff;fill-opacity:1;fill-rule:nonzero;stroke:none;stroke-width:2.25265"
     d="m 154.66633,128.10457 c -3.01824,0.0376 -6.08206,0.52127 -9.10389,1.49144 -13.37278,4.29381 -21.69294,16.80418 -21.15534,30.03871 0.43293,-12.38283 8.54177,-23.74932 21.15534,-27.79936 16.1164,-5.1743 33.42266,3.54267 38.65942,19.46743 0,0 79.11748,240.62742 79.31485,241.22823 0.82925,2.52195 1.23302,5.07412 1.32776,7.60595 0.14138,-3.25714 -0.25305,-6.57675 -1.32776,-9.84529 -0.19737,-0.60083 -79.31485,-241.22824 -79.31485,-241.22824 -4.25487,-12.93886 -16.47657,-21.12166 -29.55553,-20.95887 z"
     id="path16-9"
     inkscape:connector-curvature="0" />
  <path
     style="opacity:0.2;fill:#263238;fill-opacity:1;fill-rule:nonzero;stroke:none;stroke-width:2.25265"
     d="m 124.4071,157.39724 c -0.11987,3.4366 0.31879,6.94536 1.45609,10.40505 l 79.33699,241.22375 c 5.44629,14.87889 21.71081,23.2408 37.32281,18.79842 13.68584,-3.89155 22.84038,-16.58995 22.34148,-29.92505 -0.54209,12.49332 -9.4247,24.01273 -22.34148,27.68569 -15.612,4.44242 -31.87652,-3.91953 -37.32281,-18.7984 L 125.86319,165.56734 c -0.89127,-2.71119 -1.3461,-5.45523 -1.45609,-8.1701 z"
     id="path16-6"
     inkscape:connector-curvature="0" />
  <path
     style="color:#000000;clip-rule:nonzero;display:inline;overflow:visible;visibility:visible;isolation:auto;mix-blend-mode:normal;color-interpolation:sRGB;color-interpolation-filters:linearRGB;solid-color:#000000;solid-opacity:1;fill:url(#linearGradient7104);fill-opacity:1;fill-rule:nonzero;stroke:none;stroke-width:9.01056;stroke-linecap:butt;stroke-linejoin:miter;stroke-miterlimit:4;stroke-dasharray:none;stroke-dashoffset:0;stroke-opacity:1;color-rendering:auto;image-rendering:auto;shape-rendering:auto;text-rendering:auto;enable-background:accumulate"
     d="m 234.21577,301.11251 -58.34539,18.73702 0.58861,1.78885 18.37153,55.86555 0.004,0.003 50.09125,49.50178 c 14.83151,-5.55798 23.54539,-21.70894 18.61052,-36.7174 -0.0259,-0.0787 -7.99644,-24.32103 -10.36522,-31.52576 z"
     id="path7074" />
  <path
     inkscape:connector-curvature="0"
     id="path18"
     style="fill:#e10d63;fill-opacity:1;fill-rule:nonzero;stroke:none;filter:url(#filter7245)"
     d="m 162.64073,978.93497 c 7.1126,-2.311 11.00352,-9.94937 8.69289,-17.0616 -2.31062,-7.11159 -9.94915,-11.00388 -17.06049,-8.69338 L 46.553457,988.19207 c -6.644359,2.4035 -10.377877,9.5804 -8.395026,16.47003 2.068596,7.1861 9.700642,11.5672 16.759767,9.2737 0.267704,-0.087 107.722532,-35.00083 107.722532,-35.00083"
     clip-path="url(#clipPath7217)"
     transform="matrix(2.2660122,0,0,2.2393449,38.466818,-1882.8015)" />
  <path
     style="opacity:0.2;fill:#ffffff;fill-opacity:1;fill-rule:nonzero;stroke:none;stroke-width:2.25265"
     d="m 397.15622,250.20771 c -3.018,0.0376 -6.08247,0.52132 -9.10388,1.49144 l -244.09648,78.40334 c -12.66505,4.52748 -20.62631,16.62193 -20.1728,29.53142 0.48588,-12.0484 8.24368,-23.02768 20.1728,-27.29208 L 388.05234,253.9385 c 16.11438,-5.174 33.42349,3.54213 38.65937,19.46743 0.89243,2.71457 1.34673,5.46073 1.4561,8.17884 0.12099,-3.44001 -0.31749,-6.95479 -1.4561,-10.41818 -4.25414,-12.93933 -16.47758,-21.12145 -29.55549,-20.95888 z"
     id="path18-0"
     inkscape:connector-curvature="0" />
  <path
     style="opacity:0.2;fill:#3e2723;fill-opacity:1;fill-rule:nonzero;stroke:none;stroke-width:2.25265"
     d="m 428.16781,279.34548 c -0.43552,12.3793 -8.54293,23.73649 -21.15535,27.78626 0,0 -243.49423,78.18657 -244.10086,78.3814 -15.99608,5.13593 -33.29036,-4.67419 -37.97782,-20.76633 -0.71358,-2.4503 -1.06507,-4.91492 -1.15072,-7.35222 -0.12736,3.15813 0.21754,6.38728 1.15072,9.59156 4.68746,16.09215 21.98174,25.90227 37.97782,20.76634 0.60663,-0.19484 244.10086,-78.38141 244.10086,-78.38141 13.37023,-4.29308 21.68772,-16.79611 21.15535,-30.0256 z"
     id="path18-9"
     inkscape:connector-curvature="0" />
  <path
     style="color:#000000;clip-rule:nonzero;display:inline;overflow:visible;visibility:visible;isolation:auto;mix-blend-mode:normal;color-interpolation:sRGB;color-interpolation-filters:linearRGB;solid-color:#000000;solid-opacity:1;fill:url(#linearGradient7062);fill-opacity:1;fill-rule:nonzero;stroke:none;stroke-width:9.01056;stroke-linecap:butt;stroke-linejoin:miter;stroke-miterlimit:4;stroke-dasharray:none;stroke-dashoffset:0;stroke-opacity:1;color-rendering:auto;image-rendering:auto;shape-rendering:auto;text-rendering:auto;enable-background:accumulate"
     d="m 298.797,280.36646 58.34548,-18.74136 48.69625,48.12315 -88.07705,28.27699 z"
     id="path7054"
     inkscape:connector-curvature="0" />
  <path
     inkscape:connector-curvature="0"
     id="path14"
     style="fill:#e7a213;fill-opacity:1;fill-rule:nonzero;stroke:none;filter:url(#filter7233)"
     d="m 118.57258,889.72177 c -2.31099,-7.1126 -9.9494,-11.00477 -17.06161,-8.69289 -7.111598,2.31062 -11.003894,9.94915 -8.693392,17.06049 l 35.012092,107.71973 c 2.40347,6.6438 9.58037,10.3778 16.4705,8.395 7.18625,-2.0691 11.56696,-9.7011 9.27379,-16.75973 -0.0872,-0.2677 -35.00138,-107.7226 -35.00138,-107.7226"
     clip-path="url(#clipPath7175)"
     transform="matrix(2.2660122,0,0,2.2393449,38.466818,-1882.8015)" />
  <path
     style="opacity:0.2;fill:#ffffff;fill-opacity:1;fill-rule:nonzero;stroke:none;stroke-width:2.25265"
     d="m 277.5975,88.633891 c -3.01823,0.0379 -6.08206,0.52074 -9.10389,1.49145 -13.37275,4.29378 -21.69294,16.805389 -21.15536,30.038699 0.43294,-12.38175 8.54179,-23.749329 21.15536,-27.799359 16.11637,-5.1771 33.42269,3.53986 38.65942,19.467419 0,0 79.11725,240.62868 79.31486,241.22817 0.8291,2.52211 1.23304,5.07419 1.32774,7.606 0.14141,-3.25735 -0.25308,-6.57627 -1.32774,-9.84535 C 386.27028,350.22146 307.15303,109.59277 307.15303,109.59277 302.89818,96.651621 290.67646,88.469671 277.5975,88.633891 Z"
     id="path14-6"
     inkscape:connector-curvature="0" />
  <path
     style="opacity:0.2;fill:#bf360c;fill-opacity:1;fill-rule:nonzero;stroke:none;stroke-width:2.25265"
     d="m 247.33825,117.92295 c -0.11986,3.43629 0.31879,6.94581 1.45612,10.40511 l 79.33698,241.22369 c 5.44629,14.87777 21.70969,23.23858 37.32281,18.79843 13.68584,-3.89422 22.84024,-16.59021 22.34147,-29.92505 -0.54205,12.49309 -9.42472,24.01025 -22.34147,27.68569 -15.61312,4.44017 -31.87652,-3.92066 -37.32281,-18.79839 L 248.79437,126.0887 c -0.89128,-2.71087 -1.34612,-5.45115 -1.45612,-8.16575 z"
     id="path14-8"
     inkscape:connector-curvature="0" />
  <path
     style="color:#000000;clip-rule:nonzero;display:inline;overflow:visible;visibility:visible;isolation:auto;mix-blend-mode:normal;color-interpolation:sRGB;color-interpolation-filters:linearRGB;solid-color:#000000;solid-opacity:1;fill:url(#linearGradient7052);fill-opacity:1;fill-rule:nonzero;stroke:none;stroke-width:9.01056;stroke-linecap:butt;stroke-linejoin:miter;stroke-miterlimit:4;stroke-dasharray:none;stroke-dashoffset:0;stroke-opacity:1;color-rendering:auto;image-rendering:auto;shape-rendering:auto;text-rendering:auto;enable-background:accumulate"
     d="m 258.84537,158.88349 18.96457,57.66314 95.55833,94.43373 -56.16868,-170.83973 z"
     id="path7044"
     inkscape:connector-curvature="0" />
  <path
     style="fill:#7cd3dc;fill-opacity:1;fill-rule:nonzero;stroke:none;filter:url(#filter7221)"
     d="m 140.66406,37.902344 c -1.33197,0.01684 -2.68404,0.232772 -4.01758,0.666015 l -53.0563,17.244169 7.017578,26.1875 c 26.505662,-8.612163 54.405912,-17.677762 54.405912,-17.677762 7.11134,-2.31099 11.00399,-9.948327 8.69336,-17.060547 -1.87739,-5.77898 -7.2711,-9.432344 -13.04297,-9.359375 z"
     transform="matrix(2.2660122,0,0,2.2393449,38.466818,43.845916)"
     id="path24"
     inkscape:connector-curvature="0"
     sodipodi:nodetypes="scccccs"
     clip-path="url(#clipPath7152)" />
  <path
     style="opacity:0.2;fill:#263238;fill-opacity:1;fill-rule:nonzero;stroke:none;stroke-width:2.25265"
     d="m 388.22493,157.85129 c -0.43294,12.38204 -8.54225,23.74434 -21.15536,27.79501 -45.5699,14.63245 -85.20743,27.35996 -123.8505,39.76827 l 0.55764,2.06004 c 38.47421,-12.35411 77.93325,-25.02404 123.29286,-39.58897 13.37123,-4.29414 21.69153,-16.80169 21.15536,-30.03435 z"
     id="path24-1-8-3"
     inkscape:connector-curvature="0"
     sodipodi:nodetypes="cccccc" />
  <path
     style="opacity:0.2;fill:#ffffff;fill-opacity:1;fill-rule:nonzero;stroke:none;stroke-width:2.25265"
     d="m 357.21331,128.72231 c -3.01826,0.0376 -6.08207,0.52128 -9.10389,1.49145 -41.55415,13.34632 -92.19044,29.61057 -133.74431,42.9577 l 1.24364,1.84133 c 41.13947,-13.21403 91.36094,-29.34644 132.50067,-42.55969 3.02182,-0.97016 6.08563,-1.45383 9.10389,-1.49145 13.07913,-0.16347 25.30135,8.01774 29.55553,20.95887 0.89145,2.71161 1.34619,5.455 1.45609,8.17013 0.12008,-3.4371 -0.31846,-6.94898 -1.45609,-10.40946 -4.25418,-12.94112 -16.4764,-21.1223 -29.55553,-20.95888 z"
     id="path24-8-7-4"
     inkscape:connector-curvature="0"
     sodipodi:nodetypes="cccccccccc" />
</svg>
