<?xml version="1.0" encoding="UTF-8" standalone="no"?>
<!-- Created with Inkscape (http://www.inkscape.org/) -->

<svg
   version="1.1"
   width="100%"
   height="100%"
   viewBox="0 0 512 512"
   id="svg2"
   sodipodi:docname="usb-creator.svg"
   inkscape:version="1.1 (c68e22c387, 2021-05-23)"
   xmlns:inkscape="http://www.inkscape.org/namespaces/inkscape"
   xmlns:sodipodi="http://sodipodi.sourceforge.net/DTD/sodipodi-0.dtd"
   xmlns:xlink="http://www.w3.org/1999/xlink"
   xmlns="http://www.w3.org/2000/svg"
   xmlns:svg="http://www.w3.org/2000/svg"
   xmlns:rdf="http://www.w3.org/1999/02/22-rdf-syntax-ns#"
   xmlns:cc="http://creativecommons.org/ns#"
   xmlns:dc="http://purl.org/dc/elements/1.1/">
  <sodipodi:namedview
     id="namedview39"
     pagecolor="#ffffff"
     bordercolor="#666666"
     borderopacity="1.0"
     inkscape:pageshadow="2"
     inkscape:pageopacity="0.0"
     inkscape:pagecheckerboard="0"
     showgrid="false"
     inkscape:zoom="0.60490775"
     inkscape:cx="328.97578"
     inkscape:cy="285.99402"
     inkscape:window-width="1366"
     inkscape:window-height="700"
     inkscape:window-x="0"
     inkscape:window-y="0"
     inkscape:window-maximized="1"
     inkscape:current-layer="svg2" />
  <metadata
     id="metadata65">
    <rdf:RDF>
      <cc:Work
         rdf:about="">
        <dc:format>image/svg+xml</dc:format>
        <dc:type
           rdf:resource="http://purl.org/dc/dcmitype/StillImage" />
      </cc:Work>
    </rdf:RDF>
  </metadata>
  <defs
     id="defs4">
    <filter
       color-interpolation-filters="sRGB"
       id="7"
       x="-0.018107638"
       y="-0.017892785"
       width="1.0362153"
       height="1.0357856">
      <feGaussianBlur
         id="feGaussianBlur7"
         stdDeviation="3.7725" />
    </filter>
    <linearGradient
       y1="19.563999"
       x2="0"
       y2="504.01999"
       id="8"
       gradientUnits="userSpaceOnUse">
      <stop
         id="stop10"
         style="stop-color:#f3f3f3;stop-opacity:1"
         offset="0" />
      <stop
         id="stop12"
         style="stop-color:#eeeeee;stop-opacity:1"
         offset="0.5" />
      <stop
         id="stop14"
         style="stop-color:#ebebeb;stop-opacity:1"
         offset="1" />
    </linearGradient>
    <linearGradient
       x1="257"
       x2="362"
       id="5"
       xlink:href="#0"
       gradientUnits="userSpaceOnUse"
       gradientTransform="matrix(1.02835,0,0,1.46193,-383.73694,-115.70205)" />
    <linearGradient
       x1="257"
       x2="362"
       id="6"
       xlink:href="#0"
       gradientUnits="userSpaceOnUse"
       gradientTransform="matrix(1.0381,0,0,1.46193,-467.2489,-124.14041)" />
    <linearGradient
       x1="257"
       x2="362"
       id="4"
       xlink:href="#0"
       gradientUnits="userSpaceOnUse"
       gradientTransform="matrix(1.02835,0,0,1.46193,-610.00374,-127.97146)" />
    <linearGradient
       x1="257"
       x2="362"
       id="3"
       xlink:href="#0"
       gradientUnits="userSpaceOnUse"
       gradientTransform="matrix(1.0381,0,0,1.46193,-427.0919,-112.11041)" />
    <linearGradient
       id="0">
      <stop
         id="stop21"
         style="stop-color:#000000;stop-opacity:1"
         offset="0" />
      <stop
         id="stop23"
         style="stop-color:#ffffff;stop-opacity:1"
         offset="1" />
    </linearGradient>
    <linearGradient
       x1="257"
       x2="362"
       id="2"
       xlink:href="#0"
       gradientUnits="userSpaceOnUse"
       gradientTransform="matrix(1.0381,0,0,1.46193,-467.2489,-112.11041)" />
    <linearGradient
       x1="257"
       x2="362"
       id="1"
       xlink:href="#0"
       gradientUnits="userSpaceOnUse"
       gradientTransform="matrix(1.0381,0,0,1.46193,-467.2529,-112.11041)" />
    <linearGradient
       id="paint0_linear"
       x1="64.076897"
       y1="120"
       x2="64.076897"
       y2="24"
       gradientUnits="userSpaceOnUse"
       gradientTransform="matrix(3.4852345,0,0,3.3644918,37.108597,10.515631)">
      <stop
         stop-color="#5570FF"
         id="stop6" />
      <stop
         offset="1"
         stop-color="#4DD3FF"
         id="stop8" />
    </linearGradient>
    <linearGradient
       inkscape:collect="always"
       xlink:href="#paint0_linear"
       id="linearGradient863"
       x1="38.5"
       y1="256"
       x2="473.5"
       y2="256"
       gradientUnits="userSpaceOnUse"
       gradientTransform="matrix(1.0023955,0,0,0.98700703,-513.38328,4.0422388)" />
  </defs>
  <rect
     width="436.04199"
     height="429.34799"
     rx="63.351395"
     x="-474.79099"
     y="42.042"
     id="rect33"
     style="fill:url(#linearGradient863);fill-opacity:1;stroke-width:0.994671"
     transform="rotate(-90)" />
  <path
     d="m 260.09081,113.75014 c -2.67251,-4.36644 -9.12687,-4.36644 -11.79902,0 l -29.07896,47.51487 c -1.37563,2.24812 0.2759,5.10771 2.94977,5.10771 h 15.88738 c 1.89957,0 3.43996,1.51022 3.43996,3.37255 v 146.84188 c -9.91977,-4.09663 -20.19524,-5.65339 -29.77207,-7.0105 -11.11379,-1.55678 -21.23655,-3.11321 -26.59666,-5.84024 -5.33468,-2.71459 -7.13823,-4.0346 -7.13823,-12.83865 V 262.4938 c 7.5954,-4.33373 12.70131,-12.20357 12.70131,-21.40592 0,-6.60515 -2.67626,-12.9398 -7.44025,-17.61046 -4.76402,-4.67064 -11.22526,-7.29447 -17.9624,-7.29447 -6.73715,0 -13.19841,2.62383 -17.9624,7.29447 -4.76398,4.67066 -7.44027,11.00531 -7.44027,17.61046 0,9.18987 5.10594,17.07219 12.70134,21.40592 v 28.40396 c 0,16.10124 9.32294,28.80263 20.6397,34.6304 11.30438,5.84023 23.42125,7.397 34.53503,8.95343 11.11381,1.55644 21.23654,3.11321 26.59667,5.84024 5.34706,2.71456 7.13823,4.03459 7.13823,12.83865 v 2.32841 c -14.73363,5.16809 -25.40298,18.82692 -25.40298,35.02866 0,9.90857 4.01476,19.40905 11.16057,26.4172 7.14581,7.00478 16.83787,10.94056 26.94377,10.94056 10.10587,0 19.79758,-3.93578 26.9434,-10.94056 7.14615,-7.00815 11.16057,-16.50863 11.16057,-26.4172 0,-16.18823 -10.66901,-29.86057 -25.40266,-35.02866 0.0986,-0.77301 0.0986,-1.55544 0,-2.32841 v -22.9627 c 0.0506,-0.62257 0.0506,-1.30754 0,-1.9426 0,-8.31806 2.42586,-10.74629 9.52593,-14.79337 7.10004,-4.03456 19.05215,-7.38454 31.75348,-10.49739 12.70135,-3.11322 26.15189,-5.97718 38.104,-12.85112 11.95211,-6.84897 22.22724,-19.9864 22.22724,-36.57295 v -18.67887 c 0,-3.43865 2.84346,-6.22607 6.35083,-6.22607 v 0 c 3.50738,0 6.3505,-2.78775 6.3505,-6.2264 v -36.83872 c 0,-3.72497 -3.08013,-6.74509 -6.8799,-6.74509 h -37.04551 c -3.79978,0 -6.87991,3.02012 -6.87991,6.74509 v 36.83872 c 0,3.43865 2.84346,6.2264 6.35083,6.2264 v 0 c 3.50739,0 6.35051,2.78742 6.35051,6.22607 v 18.67887 c 0,8.31839 -2.42585,10.74664 -9.52592,14.79371 -7.10006,4.03459 -19.05217,7.38421 -31.75351,10.49738 -11.6088,2.82654 -23.8151,5.64095 -34.92857,11.29434 V 169.74527 c 0,-1.86233 1.54007,-3.37255 3.43996,-3.37255 h 15.88707 c 2.67387,0 4.32538,-2.85959 2.94977,-5.10771 z"
     fill="url(#paint0_linear)"
     id="path2"
     style="opacity:0.31218;fill:#ffffff;stroke-width:3.40607" />
  <path
     d="m 242.3601,100.13952 c -2.67252,-4.366456 -9.12688,-4.366456 -11.79903,0 l -29.07896,47.51486 c -1.37562,2.24813 0.27591,5.10772 2.94977,5.10772 h 15.88739 c 1.89956,0 3.43996,1.51021 3.43996,3.37254 v 146.84188 c -9.91977,-4.09663 -20.19525,-5.65339 -29.77208,-7.0105 -11.11379,-1.55678 -21.23655,-3.1132 -26.59665,-5.84024 -5.33469,-2.71459 -7.13824,-4.0346 -7.13824,-12.83865 v -28.40396 c 7.59541,-4.33373 12.70131,-12.20357 12.70131,-21.40591 0,-6.60515 -2.67626,-12.93981 -7.44025,-17.61047 -4.76402,-4.67064 -11.22526,-7.29446 -17.96239,-7.29446 -6.73715,0 -13.19842,2.62382 -17.9624,7.29446 -4.76399,4.67066 -7.44027,11.00532 -7.44027,17.61047 0,9.18986 5.10593,17.07218 12.70133,21.40591 v 28.40396 c 0,16.10125 9.32295,28.80263 20.6397,34.63039 11.30438,5.84023 23.42126,7.39701 34.53503,8.95345 11.11381,1.55643 21.23654,3.1132 26.59667,5.84023 5.34707,2.71456 7.13824,4.03459 7.13824,12.83865 v 2.32842 c -14.73364,5.16809 -25.40299,18.82691 -25.40299,35.02865 0,9.90858 4.01477,19.40905 11.16058,26.4172 7.14581,7.00479 16.83786,10.94056 26.94376,10.94056 10.10587,0 19.79759,-3.93577 26.94341,-10.94056 7.14615,-7.00815 11.16056,-16.50862 11.16056,-26.4172 0,-16.18823 -10.66901,-29.86056 -25.40265,-35.02865 0.0986,-0.77302 0.0986,-1.55545 0,-2.32842 v -22.9627 c 0.0506,-0.62258 0.0506,-1.30755 0,-1.94261 0,-8.31806 2.42586,-10.74628 9.52592,-14.79335 7.10004,-4.03457 19.05215,-7.38454 31.75349,-10.49739 12.70133,-3.11323 26.15189,-5.97719 38.10399,-12.85113 11.95211,-6.84897 22.22725,-19.9864 22.22725,-36.57295 v -18.67887 c 0,-3.43865 2.84345,-6.22606 6.35083,-6.22606 v 0 c 3.50737,0 6.35049,-2.78775 6.35049,-6.22641 v -36.83871 c 0,-3.72498 -3.08012,-6.74509 -6.8799,-6.74509 h -37.0455 c -3.79979,0 -6.87991,3.02011 -6.87991,6.74509 v 36.83871 c 0,3.43866 2.84345,6.22641 6.35083,6.22641 v 0 c 3.50738,0 6.3505,2.78741 6.3505,6.22606 v 18.67887 c 0,8.31839 -2.42585,10.74664 -9.52591,14.79371 -7.10007,4.03459 -19.05219,7.38421 -31.75351,10.49738 -11.60881,2.82655 -23.8151,5.64095 -34.92857,11.29435 V 156.13464 c 0,-1.86233 1.54006,-3.37254 3.43996,-3.37254 h 15.88707 c 2.67387,0 4.32538,-2.85959 2.94976,-5.10772 z"
     fill="url(#paint0_linear)"
     id="path2-3"
     style="fill:#ffffff;stroke-width:3.40607" />
</svg>
