<?xml version="1.0" encoding="UTF-8" standalone="no"?>
<!-- Uploaded to: SVG Repo, www.svgrepo.com, Generator: SVG Repo Mixer Tools -->

<svg
   width="800"
   height="800"
   viewBox="0 0 24 24"
   fill="none"
   version="1.1"
   id="svg1"
   xmlns="http://www.w3.org/2000/svg"
   xmlns:svg="http://www.w3.org/2000/svg">
  <defs
     id="defs1" />
  <path
     style="color:#000000;fill:#000000;stroke-linecap:round;stroke-linejoin:round;-inkscape-stroke:none"
     d="M 4.5996094,3 C 4.0395599,3 3.6202543,2.9494939 3.0917969,3.21875 2.7156114,3.4104414 2.4104414,3.7156114 2.21875,4.0917969 1.9494939,4.6202543 2,5.0395599 2,5.5996094 V 16.400391 c 0,0.560099 -0.050507,0.979378 0.21875,1.507812 0.1917365,0.376354 0.4971269,0.681451 0.8730469,0.873047 C 3.6202653,19.050536 4.0395599,19 4.5996094,19 H 7.546875 c 0.5401895,0 0.7526614,0.0056 0.8964844,0.03125 0.154674,0.02756 0.3037559,0.07206 0.4472656,0.134766 a 1.0001,1.0001 0 0 0 0.00195,0.002 c 0.1339232,0.05844 0.3123405,0.171037 0.7617188,0.470703 l 1.7910162,1.193359 a 1,1 0 0 0 0.195312,0.03906 1,1 0 0 0 0.263672,0.08984 A 1,1 0 0 0 12,21 1,1 0 0 0 12.0957,20.96094 1,1 0 0 0 12.359372,20.8711 1,1 0 0 0 12.554685,20.83204 L 14.3457,19.638681 c 0.4493,-0.299633 0.627743,-0.41223 0.761719,-0.470703 a 1.0001,1.0001 0 0 0 0.002,-0.002 c 0.143539,-0.06272 0.292542,-0.107211 0.447266,-0.134766 C 15.700311,19.005608 15.912926,19 16.453125,19 h 2.947266 c 0.560099,0 0.979367,0.05054 1.507812,-0.21875 0.376089,-0.191641 0.681406,-0.496958 0.873047,-0.873047 C 22.050537,17.379758 22,16.96049 22,16.400391 V 5.5996094 C 22,5.0395599 22.050536,4.6202653 21.78125,4.0917969 21.589654,3.7158769 21.284557,3.4104865 20.908203,3.21875 20.379769,2.9494932 19.96049,3 19.400391,3 h -1 C 16.160193,3 14.900682,2.9487107 13.730469,3.5449219 12.98569,3.9244366 12.469938,4.592267 12,5.2753906 11.530057,4.5922641 11.014347,3.9244353 10.269531,3.5449219 9.0993424,2.9486884 7.8398171,3 5.5996094,3 Z M 4,5 C 3.8993622,5.051276 4.03956,5 4.5996094,5 h 1 c 2.2402077,0 3.2206092,0.050466 3.7617187,0.3261719 0.564591,0.2876815 1.0248089,0.7478817 1.3124999,1.3125 C 10.949548,7.1797731 11,8.1601829 11,10.400391 v 7.732421 L 10.763672,17.974609 C 10.314191,17.674875 10.043743,17.487741 9.6914063,17.333984 9.4032964,17.208092 9.1019142,17.117543 8.7929688,17.0625 8.4144323,16.994961 8.0870645,17 7.546875,17 H 4.5996094 C 4.0395599,17 3.8993512,16.948713 4,17 4.051277,17.100634 4,16.96049 4,16.400391 V 5.5996094 C 4,5.0395599 4.0512763,4.8993622 4,5 Z m 14.400391,0 h 1 C 19.96049,5 20.100634,5.051277 20,5 19.94871,4.8993512 20,5.03956 20,5.5996094 V 16.400391 C 20,16.96049 19.94871,17.100645 20,17 c 0.100645,-0.05129 -0.03951,0 -0.599609,0 h -2.947266 c -0.540199,0 -0.867564,-0.0051 -1.246094,0.0625 -0.309075,0.05504 -0.610377,0.145608 -0.898437,0.271484 -0.352224,0.153727 -0.622767,0.340859 -1.072266,0.640625 L 13,18.132812 v -7.732421 c 0,-2.2402081 0.05045,-3.2206179 0.326172,-3.7617191 0.287691,-0.5646183 0.747942,-1.0248202 1.3125,-1.3125 C 15.179857,5.050444 16.160193,5 18.400391,5 Z"
     id="path1" />
</svg>
