<?xml version="1.0" encoding="UTF-8" standalone="no"?>
<!-- Uploaded to: SVG Repo, www.svgrepo.com, Generator: SVG Repo Mixer Tools -->

<svg
   fill="#000000"
   width="800"
   height="800"
   viewBox="0 0 24 24"
   version="1.1"
   id="svg1"
   xmlns="http://www.w3.org/2000/svg"
   xmlns:svg="http://www.w3.org/2000/svg">
  <defs
     id="defs1" />
  <path
     d="m 13.733032,12.866516 c 0,-3.187913 -3.061401,-4.2459293 -3.192245,-4.2875221 a 0.85871759,0.85871759 0 0 0 -0.5476386,0 C 9.8623045,8.6205867 6.8009026,9.678603 6.8009026,12.866516 c 0,1.314505 0.399464,2.147227 1.1879938,2.473038 a 2.4141142,2.4141142 0 0 0 2.2780716,-0.475718 2.934024,2.934024 0 0 0 1.62905,0.606562 1.6775754,1.6775754 0 0 0 0.649021,-0.126512 c 0.788529,-0.330143 1.187993,-1.162865 1.187993,-2.47737 z m -1.842213,0.866516 a 1.97739,1.97739 0 0 1 -1.011224,-0.613493 0.86651623,0.86651623 0 0 0 -1.2252544,0 2.5440917,2.5440917 0 0 1 -0.9670322,0.640355 c 0,0 -0.1533733,-0.184567 -0.1533733,-0.893378 A 2.8534379,2.8534379 0 0 1 10.266968,10.340621 2.8534379,2.8534379 0 0 1 12,12.866516 2.8924312,2.8924312 0 0 1 11.890819,13.733032 Z M 6.8009026,7.6674188 A 0.86651623,0.86651623 0 1 1 7.6674188,6.8009026 0.86651623,0.86651623 0 0 1 6.8009026,7.6674188 Z m 7.7986464,9.5316782 a 0.86651623,0.86651623 0 1 1 -0.866517,-0.866516 0.86651623,0.86651623 0 0 1 0.866517,0.866516 z M 18.93213,4.2013539 H 17.906175 A 2.5995487,2.5995487 0 0 0 15.466065,2.4683215 H 5.0678701 A 2.5995487,2.5995487 0 0 0 2.4683215,5.0678701 V 18.93213 a 2.5995487,2.5995487 0 0 0 2.5995486,2.599549 H 18.93213 A 2.5995487,2.5995487 0 0 0 21.531679,18.93213 V 6.8009026 A 2.5995487,2.5995487 0 0 0 18.93213,4.2013539 Z M 16.332581,18.93213 a 0.86651623,0.86651623 0 0 1 -0.866516,0.866516 H 5.0678701 A 0.86651623,0.86651623 0 0 1 4.2013539,18.93213 V 5.0678701 A 0.86651623,0.86651623 0 0 1 5.0678701,4.2013539 H 15.466065 a 0.86651623,0.86651623 0 0 1 0.866516,0.8665162 z m 3.466065,0 a 0.86651623,0.86651623 0 0 1 -0.866516,0.866516 h -1.014691 c 0.279019,-0.790263 0.08665,-0.758202 0.148175,-13.8642596 h 0.866516 a 0.86651623,0.86651623 0 0 1 0.866516,0.8665162 z"
     id="path1"
     style="stroke-width:0.866516" />
</svg>
