<?xml version="1.0" encoding="UTF-8" standalone="no"?>
<!-- Uploaded to: SVG Repo, www.svgrepo.com, Generator: SVG Repo Mixer Tools -->

<svg
   width="800"
   height="800"
   viewBox="0 0 24 24"
   fill="none"
   version="1.1"
   id="svg2"
   xmlns="http://www.w3.org/2000/svg"
   xmlns:svg="http://www.w3.org/2000/svg">
  <defs
     id="defs2" />
  <path
     style="baseline-shift:baseline;display:inline;overflow:visible;opacity:1;vector-effect:none;fill:#000000;stroke-width:1.11771;enable-background:accumulate;stop-color:#000000;stop-opacity:1"
     d="M 12,0.82285114 C 5.8402724,0.82285114 0.82285114,5.8402724 0.82285114,12 0.82285114,18.159767 5.8402784,23.177149 12,23.177149 18.159761,23.177149 23.177149,18.159761 23.177149,12 23.177149,5.8402784 18.159767,0.82285114 12,0.82285114 Z m 0,2.23542976 c 4.95166,0 8.941719,3.9901029 8.941719,8.9417191 0,4.951666 -3.990053,8.941719 -8.941719,8.941719 C 7.0483838,20.941719 3.0582809,16.95166 3.0582809,12 3.0582809,7.0483898 7.0483898,3.0582809 12,3.0582809 Z"
     id="path1" />
  <path
     style="baseline-shift:baseline;display:inline;overflow:visible;opacity:1;vector-effect:none;fill:#000000;stroke-width:1.11771;stroke-linecap:round;stroke-linejoin:round;enable-background:accumulate;stop-color:#000000;stop-opacity:1"
     d="M 15.353145,8.6468553 A 1.1177149,1.1177149 0 0 0 14.562886,8.9743109 L 10.882285,12.654912 9.4371148,11.209741 a 1.1177149,1.1177149 0 0 0 -1.5805188,0 1.1177149,1.1177149 0 0 0 0,1.580518 l 1.8817778,1.881778 c 0.6228742,0.622874 1.6649482,0.622874 2.2878232,0 l 4.117207,-4.117208 a 1.1177149,1.1177149 0 0 0 0,-1.5805181 1.1177149,1.1177149 0 0 0 -0.790259,-0.3274556 z"
     id="path2" />
</svg>
