<?xml version="1.0" encoding="UTF-8" standalone="no"?>
<svg
   width="800"
   height="800"
   viewBox="0 0 24 24"
   fill="none"
   version="1.1"
   id="svg1"
   sodipodi:docname="command-terminal-symbolic.svg"
   xmlns:inkscape="http://www.inkscape.org/namespaces/inkscape"
   xmlns:sodipodi="http://sodipodi.sourceforge.net/DTD/sodipodi-0.dtd"
   xmlns="http://www.w3.org/2000/svg"
   xmlns:svg="http://www.w3.org/2000/svg">
  <defs
     id="defs1" />
  <sodipodi:namedview
     id="namedview1"
     pagecolor="#ffffff"
     bordercolor="#000000"
     borderopacity="0.25"
     inkscape:showpageshadow="2"
     inkscape:pageopacity="0.0"
     inkscape:pagecheckerboard="0"
     inkscape:deskcolor="#d1d1d1">
    <inkscape:page
       x="0"
       y="0"
       width="24"
       height="24"
       id="page2"
       margin="0"
       bleed="0" />
  </sodipodi:namedview>
  <g
     id="System / Terminal"
     transform="matrix(1.1997186,0,0,1.1997186,-2.3966232,-2.3966232)">
    <path
       style="fill:#000000;stroke-linecap:round;stroke-linejoin:round"
       d="m 6.2011719,4 c -1.12011,0 -1.8198963,-0.052212 -2.5625,0.3261719 -0.5642564,0.2874884 -1.0250116,0.7482436 -1.3125,1.3125 C 1.947788,6.3812756 2,7.0810619 2,8.2011719 v 7.5996091 c 0,1.1201 -0.051895,1.8186 0.3261719,2.560547 0.2871461,0.56354 0.7468501,1.024362 1.3125,1.3125 C 4.3807958,20.052009 5.0793456,20 6.1972656,20 H 17.802734 c 1.1179,0 1.816914,0.05178 2.558594,-0.326172 0.564933,-0.287796 1.024704,-0.747567 1.3125,-1.3125 C 22.051783,17.619648 22,16.920634 22,15.802734 V 8.1972656 C 22,7.0793456 22.052009,6.3807958 21.673828,5.6386719 21.38569,5.073022 20.924868,4.613318 20.361328,4.3261719 19.619381,3.948105 18.920881,4 17.800781,4 Z m 0,2 H 17.800781 c 1.1201,0 1.538691,0.051462 1.652344,0.109375 0.18906,0.096334 0.342238,0.2485367 0.4375,0.4355469 C 19.948044,6.6575979 20,7.0793456 20,8.1972656 v 7.6054684 c 0,1.1179 -0.05173,1.537271 -0.109375,1.650391 -0.0956,0.187667 -0.249833,0.341896 -0.4375,0.4375 C 19.340005,17.94827 18.920634,18 17.802734,18 H 6.1972656 C 5.0793456,18 4.6575979,17.948044 4.5449219,17.890625 4.3579117,17.795363 4.2057088,17.642185 4.109375,17.453125 4.0514618,17.339472 4,16.920881 4,15.800781 V 8.2011719 C 4,7.0810619 4.0517789,6.6579582 4.109375,6.5449219 4.2053666,6.3565183 4.3565183,6.2053666 4.5449219,6.109375 4.6579582,6.0517789 5.0810619,6 6.2011719,6 Z M 7.640625,9.2324219 A 1,1 0 0 0 6.2324219,9.359375 1,1 0 0 0 6.359375,10.767578 L 8.4375,12.5 6.359375,14.232422 a 1,1 0 0 0 -0.1269531,1.408203 1,1 0 0 0 1.4082031,0.126953 l 3,-2.5 a 1.0001,1.0001 0 0 0 0,-1.535156 z M 12,14 a 1,1 0 0 0 -1,1 1,1 0 0 0 1,1 h 5 a 1,1 0 0 0 1,-1 1,1 0 0 0 -1,-1 z"
       id="Vector" />
  </g>
</svg>
