<?xml version="1.0" encoding="UTF-8" standalone="no"?>
<!-- Uploaded to: SVG Repo, www.svgrepo.com, Generator: SVG Repo Mixer Tools -->

<svg
   width="800"
   height="800"
   viewBox="0 0 16 16"
   fill="none"
   version="1.1"
   id="svg3"
   xmlns="http://www.w3.org/2000/svg"
   xmlns:svg="http://www.w3.org/2000/svg">
  <defs
     id="defs3" />
  <path
     d="M 13.1371,6.91018 C 13.4184,6.7695 13.7123,6.59981 14,6.40001 V 8 C 14,9.65685 11.3137,11 8,11 4.68629,11 2,9.65685 2,8 V 6.40001 C 2.28772,6.59981 2.58158,6.7695 2.86293,6.91018 4.28096,7.61919 6.09998,8 8,8 9.90002,8 11.719,7.61919 13.1371,6.91018 Z"
     fill="#000000"
     id="path1" />
  <path
     d="M 2,11.4 V 13 c 0,1.6569 2.68629,3 6,3 3.3137,0 6,-1.3431 6,-3 v -1.6 c -0.2877,0.1998 -0.5816,0.3695 -0.8629,0.5102 C 11.719,12.6192 9.90002,13 8,13 6.09998,13 4.28096,12.6192 2.86293,11.9102 2.58158,11.7695 2.28772,11.5998 2,11.4 Z"
     fill="#000000"
     id="path2" />
  <path
     d="m 8,0 c 3.3137,0 6,1.34315 6,3 C 14,4.65685 11.3137,6 8,6 4.68629,6 2,4.65685 2,3 2,1.34315 4.68629,0 8,0 Z"
     fill="#000000"
     id="path3" />
</svg>
