<?xml version="1.0" encoding="UTF-8" standalone="no"?>
<!-- Uploaded to: SVG Repo, www.svgrepo.com, Generator: SVG Repo Mixer Tools -->

<svg
   width="800px"
   height="800px"
   viewBox="0 0 48 48"
   id="b"
   version="1.1"
   sodipodi:docname="input-method-set-symbolic.svg"
   inkscape:version="1.3.2 (091e20ef0f, 2023-11-25, custom)"
   xmlns:inkscape="http://www.inkscape.org/namespaces/inkscape"
   xmlns:sodipodi="http://sodipodi.sourceforge.net/DTD/sodipodi-0.dtd"
   xmlns="http://www.w3.org/2000/svg"
   xmlns:svg="http://www.w3.org/2000/svg">
  <sodipodi:namedview
     id="namedview13"
     pagecolor="#505050"
     bordercolor="#eeeeee"
     borderopacity="1"
     inkscape:showpageshadow="0"
     inkscape:pageopacity="0"
     inkscape:pagecheckerboard="0"
     inkscape:deskcolor="#d1d1d1"
     inkscape:zoom="0.90582771"
     inkscape:cx="487.39953"
     inkscape:cy="375.8993"
     inkscape:window-width="1880"
     inkscape:window-height="1004"
     inkscape:window-x="0"
     inkscape:window-y="0"
     inkscape:window-maximized="1"
     inkscape:current-layer="b" />
  <defs
     id="defs1">
    <style
       id="style1">.c{fill:none;stroke:#000000;stroke-linecap:round;stroke-linejoin:round;}</style>
  </defs>
  <path
     style="color:#000000;fill:#000000;stroke-linecap:round;stroke-linejoin:round;-inkscape-stroke:none"
     d="m 7.640625,17.373047 c -1.7960472,0 -3.2791404,1.481353 -3.2792969,3.277344 v 19.771484 c 0,1.796117 1.4832497,3.277344 3.2792969,3.277344 h 32.71875 c 1.796047,0 3.27914,-1.481353 3.279297,-3.277344 V 20.650391 c 0,-1.796117 -1.48325,-3.277344 -3.279297,-3.277344 h -7.869141 a 1.2,1.2 0 0 0 -1.201172,1.199219 1.2,1.2 0 0 0 1.201172,1.201171 h 7.869141 c 0.499151,0 0.878906,0.377873 0.878906,0.876954 v 19.771484 c -4.3e-5,0.499207 -0.379755,0.878906 -0.878906,0.878906 H 7.640625 c -0.4991505,0 -0.8789063,-0.379825 -0.8789063,-0.878906 V 20.650391 c 4.36e-5,-0.499207 0.3797558,-0.876954 0.8789063,-0.876954 h 7.869141 a 1.2,1.2 0 0 0 1.201171,-1.201171 1.2,1.2 0 0 0 -1.201171,-1.199219 z"
     id="path1" />
  <path
     style="color:#000000;fill:#000000;stroke-linecap:round;stroke-linejoin:round;-inkscape-stroke:none"
     d="m 14.519531,35.263672 c -0.502623,0 -0.919922,0.417299 -0.919922,0.919922 v 2.486328 c 0,0.502623 0.417299,0.919922 0.919922,0.919922 h 19.203125 c 0.502623,0 0.921875,-0.417299 0.921875,-0.919922 v -2.486328 c 0,-0.502623 -0.419252,-0.919922 -0.921875,-0.919922 z m 0.08008,1 h 19.044922 v 2.326172 H 14.599609 Z"
     id="path2" />
  <path
     style="color:#000000;fill:#000000;stroke-linecap:round;stroke-linejoin:round;-inkscape-stroke:none"
     d="m 11.154297,29.279297 c -0.502623,0 -0.921875,0.419252 -0.921875,0.921875 v 2.523437 c 0,0.502624 0.419252,0.921875 0.921875,0.921875 h 2.525391 c 0.502623,0 0.919921,-0.419251 0.919921,-0.921875 v -2.523437 c 0,-0.502623 -0.417298,-0.921875 -0.919921,-0.921875 z m 0.07813,1 h 2.367187 v 2.367187 h -2.367187 z"
     id="path3" />
  <path
     style="color:#000000;fill:#000000;stroke-linecap:round;stroke-linejoin:round;-inkscape-stroke:none"
     d="m 17.005859,29.279297 c -0.502623,0 -0.919922,0.419252 -0.919922,0.921875 v 2.523437 c 0,0.502624 0.417299,0.921875 0.919922,0.921875 h 2.525391 c 0.502623,0 0.921875,-0.419251 0.921875,-0.921875 v -2.523437 c 0,-0.502623 -0.419252,-0.921875 -0.921875,-0.921875 z m 0.08008,1 h 2.367188 v 2.367187 h -2.367188 z"
     id="path4" />
  <path
     style="color:#000000;fill:#000000;stroke-linecap:round;stroke-linejoin:round;-inkscape-stroke:none"
     d="m 28.712891,29.279297 c -0.502624,0 -0.921875,0.419252 -0.921875,0.921875 v 2.523437 c 0,0.502624 0.419251,0.921875 0.921875,0.921875 h 2.523437 c 0.502623,0 0.921875,-0.419251 0.921875,-0.921875 v -2.523437 c 0,-0.502623 -0.419252,-0.921875 -0.921875,-0.921875 z m 0.07813,1 h 2.367187 v 2.367187 h -2.367187 z"
     id="path5" />
  <path
     style="color:#000000;fill:#000000;stroke-linecap:round;stroke-linejoin:round;-inkscape-stroke:none"
     d="m 34.564453,29.279297 c -0.502623,0 -0.919922,0.419252 -0.919922,0.921875 v 2.523437 c 0,0.502624 0.417299,0.921875 0.919922,0.921875 h 2.525391 c 0.502623,0 0.919922,-0.419251 0.919922,-0.921875 v -2.523437 c 0,-0.502623 -0.417299,-0.921875 -0.919922,-0.921875 z m 0.08008,1 h 2.365235 v 2.367187 h -2.365235 z"
     id="path6" />
  <path
     style="color:#000000;fill:#000000;stroke-linecap:round;stroke-linejoin:round;-inkscape-stroke:none"
     d="m 11.154297,23.296875 c -0.502623,0 -0.921875,0.417299 -0.921875,0.919922 v 2.52539 c 0,0.502624 0.419252,0.919922 0.921875,0.919922 h 2.525391 c 0.502623,0 0.919921,-0.417298 0.919921,-0.919922 v -2.52539 c 0,-0.502623 -0.417298,-0.919922 -0.919921,-0.919922 z m 0.07813,1 h 2.367187 v 2.365234 h -2.367187 z"
     id="path7" />
  <path
     style="color:#000000;fill:#000000;stroke-linecap:round;stroke-linejoin:round;-inkscape-stroke:none"
     d="m 34.564453,23.296875 c -0.502623,0 -0.919922,0.417299 -0.919922,0.919922 v 2.52539 c 0,0.502624 0.417299,0.919922 0.919922,0.919922 h 2.525391 c 0.502623,0 0.919922,-0.417298 0.919922,-0.919922 v -2.52539 c 0,-0.502623 -0.417299,-0.919922 -0.919922,-0.919922 z m 0.08008,1 h 2.365235 v 2.365234 h -2.365235 z"
     id="path8" />
  <path
     style="color:#000000;fill:#000000;stroke-linecap:round;stroke-linejoin:round;-inkscape-stroke:none"
     d="m 16.542969,23.503906 a 0.5,0.5 0 0 0 -0.3125,0.21875 c -0.09114,0.142841 -0.144532,0.31437 -0.144532,0.494141 v 2.52539 c 0,0.502624 0.417299,0.919922 0.919922,0.919922 h 2.525391 c 0.319654,0 0.607349,-0.165974 0.771484,-0.417968 a 0.5,0.5 0 0 0 -0.144531,-0.691407 0.5,0.5 0 0 0 -0.638672,0.109375 h -2.433594 v -2.445312 a 0.5,0.5 0 0 0 -0.166015,-0.646485 0.5,0.5 0 0 0 -0.376953,-0.06641 z"
     id="path9" />
  <path
     style="color:#000000;fill:#000000;stroke-linecap:round;stroke-linejoin:round;-inkscape-stroke:none"
     d="m 31.208984,23.367187 a 0.5,0.5 0 0 0 -0.271484,0.269532 0.5,0.5 0 0 0 0.220703,0.605468 v 2.419922 h -2.402344 a 0.5,0.5 0 0 0 -0.484375,-0.402343 0.5,0.5 0 0 0 -0.478515,0.521484 c 0.02021,0.4871 0.430271,0.880859 0.919922,0.880859 h 2.523437 c 0.502623,0 0.921875,-0.417298 0.921875,-0.919922 v -2.52539 c 0,-0.378428 -0.232345,-0.710363 -0.566406,-0.84961 a 0.5,0.5 0 0 0 -0.382813,0 z"
     id="path10" />
  <path
     style="color:#000000;fill:#000000;stroke-linecap:round;stroke-linejoin:round;-inkscape-stroke:none"
     d="m 22.859375,29.279297 c -0.502623,0 -0.919922,0.419252 -0.919922,0.921875 v 2.523437 c 0,0.502624 0.417299,0.921875 0.919922,0.921875 h 2.525391 c 0.502623,0 0.919922,-0.419251 0.919921,-0.921875 v -2.523437 c 0,-0.502623 -0.417298,-0.921875 -0.919921,-0.921875 z m 0.08008,1 h 2.365234 v 2.367187 h -2.365234 z"
     id="path11" />
  <path
     style="color:#000000;fill:#000000;stroke-linecap:round;stroke-linejoin:round;-inkscape-stroke:none"
     d="M 15.509766,4.3007812 A 1.20012,1.20012 0 0 0 14.310547,5.5 v 16.181641 c 0,1.097218 0.54768,1.950784 1.224609,2.832031 0.67693,0.881246 1.558916,1.754884 2.519531,2.554687 0.960616,0.799804 1.995778,1.521026 2.998047,2.0625 1.00227,0.541475 1.933473,0.941407 2.947266,0.941407 1.024926,0 1.93871,-0.420773 2.935547,-0.978516 0.996837,-0.557743 2.031502,-1.295673 2.992187,-2.105469 0.960686,-0.809795 1.843648,-1.686276 2.521485,-2.550781 0.677836,-0.864505 1.240234,-1.653714 1.240234,-2.755859 V 5.5 A 1.20012,1.20012 0 0 0 32.490234,4.3007812 Z m 1.201171,2.3984375 H 31.289062 V 21.681641 c 0,-0.04435 -0.19359,0.593153 -0.728515,1.27539 -0.534925,0.682238 -1.321225,1.471685 -2.179688,2.195313 -0.858462,0.723628 -1.794863,1.385603 -2.617187,1.845703 -0.822324,0.4601 -1.5758,0.673828 -1.763672,0.673828 -0.230906,0 -0.983769,-0.207788 -1.806641,-0.652344 -0.822872,-0.444555 -1.752957,-1.086752 -2.603515,-1.794922 -0.850558,-0.70817 -1.624528,-1.487291 -2.150391,-2.171875 -0.525863,-0.684583 -0.728516,-1.308713 -0.728516,-1.371093 z"
     id="path12" />
  <path
     style="color:#000000;fill:#000000;stroke-linecap:round;stroke-linejoin:round;-inkscape-stroke:none"
     d="m 22.90625,9.3339844 a 1.2,1.2 0 0 0 -0.917969,0.033203 l -4.970703,2.2812505 a 1.2,1.2 0 0 0 -0.589844,1.589843 1.2,1.2 0 0 0 1.589844,0.591797 l 4.972656,-2.28125 a 1.2,1.2 0 0 0 0.589844,-1.5898436 1.2,1.2 0 0 0 -0.673828,-0.625 z"
     id="line12" />
  <path
     style="color:#000000;fill:#000000;stroke-linecap:round;stroke-linejoin:round;-inkscape-stroke:none"
     d="m 25.09375,9.3339844 a 1.2,1.2 0 0 0 -0.673828,0.625 1.2,1.2 0 0 0 0.589844,1.5898436 l 5,2.292969 a 1.2,1.2 0 0 0 1.591796,-0.589844 1.2,1.2 0 0 0 -0.589843,-1.591797 l -5,-2.2929685 A 1.2,1.2 0 0 0 25.09375,9.3339844 Z"
     id="line13" />
  <path
     style="color:#000000;fill:#000000;stroke-linecap:round;stroke-linejoin:round;-inkscape-stroke:none"
     d="M 21.101562,18.705078 A 1.20012,1.20012 0 0 0 20,20.380859 l 1.826172,4.222657 a 1.20012,1.20012 0 0 0 1.101562,0.724609 h 2.144532 a 1.20012,1.20012 0 0 0 1.101562,-0.722656 l 1.835938,-4.222657 a 1.20012,1.20012 0 0 0 -1.09961,-1.677734 z m 1.826172,2.398438 h 2.152344 l -0.794922,1.824218 h -0.570312 z"
     id="polygon13" />
</svg>
