<?xml version="1.0" encoding="UTF-8" standalone="no"?>
<!-- Uploaded to: SVG Repo, www.svgrepo.com, Generator: SVG Repo Mixer Tools -->

<svg
   fill="#000000"
   width="800"
   height="800"
   viewBox="0 0 15 15"
   id="college-JP"
   version="1.1"
   xmlns="http://www.w3.org/2000/svg"
   xmlns:svg="http://www.w3.org/2000/svg">
  <defs
     id="defs1" />
  <path
     d="m 12.5,2.9992 h -4 v -1 a 1,1 0 0 0 -2,0 v 1 h -4 a 1,1 0 0 0 0,2 h 0.67 a 10.8169,10.8169 0 0 0 1.98,3.8113 c 0.3331,0.4313 0.6594,0.8248 0.9785,1.1936 a 14.3825,14.3825 0 0 1 -2.6074,2.117 1.0003675,1.0003675 0 1 0 0.955,1.7581 v 0 A 15.65,15.65 0 0 0 7.5,11.4613 15.65,15.65 0 0 0 10.5239,13.8792 1.0002596,1.0002596 0 1 0 11.479,12.1214 14.3789,14.3789 0 0 1 8.8717,10.0043 C 9.1908,9.6355 9.517,9.2421 9.8501,8.8108 a 10.818,10.818 0 0 0 1.98,-3.8116 h 0.67 a 1,1 0 0 0 0,-2 z M 8.2671,7.5879 C 8.0057,7.9264 7.7517,8.2292 7.5001,8.5249 7.2484,8.2292 6.9944,7.9264 6.7329,7.5879 A 9.5885,9.5885 0 0 1 5.2676,4.9992 H 9.7319 A 9.5789,9.5789 0 0 1 8.2671,7.5879 Z"
     id="path1" />
</svg>
