<?xml version="1.0" encoding="UTF-8" standalone="no"?>
<!-- Uploaded to: SVG Repo, www.svgrepo.com, Generator: SVG Repo Mixer Tools -->

<svg
   width="800px"
   height="800px"
   viewBox="0 0 24 24"
   fill="none"
   version="1.1"
   id="svg1"
   sodipodi:docname="network-wired-logical-symbolic.svg"
   inkscape:version="1.4 (e7c3feb100, 2024-10-09)"
   xmlns:inkscape="http://www.inkscape.org/namespaces/inkscape"
   xmlns:sodipodi="http://sodipodi.sourceforge.net/DTD/sodipodi-0.dtd"
   xmlns="http://www.w3.org/2000/svg"
   xmlns:svg="http://www.w3.org/2000/svg">
  <defs
     id="defs1" />
  <sodipodi:namedview
     id="namedview1"
     pagecolor="#505050"
     bordercolor="#eeeeee"
     borderopacity="1"
     inkscape:showpageshadow="0"
     inkscape:pageopacity="0"
     inkscape:pagecheckerboard="0"
     inkscape:deskcolor="#d1d1d1"
     inkscape:zoom="1.0825"
     inkscape:cx="400"
     inkscape:cy="400"
     inkscape:window-width="1880"
     inkscape:window-height="1004"
     inkscape:window-x="0"
     inkscape:window-y="0"
     inkscape:window-maximized="1"
     inkscape:current-layer="svg1" />
  <path
     style="fill:#000000;stroke-linecap:round;stroke-linejoin:round"
     d="M 10.099609,2 C 9.5395594,2 9.1202548,1.9494936 8.5917969,2.21875 8.2156111,2.4104416 7.9104416,2.7156111 7.71875,3.0917969 7.4494936,3.6202548 7.5,4.0395594 7.5,4.5996094 v 1.8007812 c 0,0.56005 -0.050506,0.9793546 0.21875,1.5078125 C 7.9104416,8.2843889 8.2156111,8.5895584 8.5917969,8.78125 9.1202548,9.0505064 9.5395594,9 10.099609,9 H 11 v 2 H 6.5 3 a 1,1 0 0 0 -1,1 1,1 0 0 0 1,1 h 2.5 v 2 H 4.5996094 C 4.0395594,15 3.6202658,14.949463 3.0917969,15.21875 2.7158765,15.410346 2.4104867,15.715443 2.21875,16.091797 1.949493,16.620231 2,17.039509 2,17.599609 v 1.800782 c 0,0.5601 -0.050507,0.979378 0.21875,1.507812 0.1917367,0.376354 0.4971265,0.681451 0.8730469,0.873047 C 3.6202658,22.050537 4.0395594,22 4.5996094,22 h 3.8007812 c 0.56005,0 0.9793436,0.05054 1.5078125,-0.21875 C 10.284123,21.589654 10.589513,21.284557 10.78125,20.908203 11.050507,20.379769 11,19.960491 11,19.400391 v -1.800782 c 0,-0.5601 0.05051,-0.979378 -0.21875,-1.507812 C 10.589513,15.715443 10.284123,15.410346 9.9082031,15.21875 9.3797342,14.949463 8.9604406,15 8.4003906,15 H 7.5 v -2 h 4.5 4.5 v 2 h -0.900391 c -0.5601,0 -0.979367,-0.05054 -1.507812,0.21875 -0.376089,0.191641 -0.681406,0.496958 -0.873047,0.873047 C 12.949463,16.620242 13,17.039509 13,17.599609 v 1.800782 c 0,0.5601 -0.05054,0.979367 0.21875,1.507812 0.191641,0.376089 0.496958,0.681406 0.873047,0.873047 C 14.620242,22.050537 15.039509,22 15.599609,22 h 3.800782 c 0.5601,0 0.979367,0.05054 1.507812,-0.21875 0.376089,-0.191641 0.681406,-0.496958 0.873047,-0.873047 C 22.050537,20.379758 22,19.960491 22,19.400391 v -1.800782 c 0,-0.5601 0.05054,-0.979367 -0.21875,-1.507812 C 21.589609,15.715708 21.284292,15.410391 20.908203,15.21875 20.379758,14.949463 19.960491,15 19.400391,15 H 18.5 V 13 H 21 a 1,1 0 0 0 1,-1 1,1 0 0 0 -1,-1 H 17.5 13 V 9 h 0.900391 c 0.5601,0 0.979378,0.050507 1.507812,-0.21875 C 15.784557,8.5895133 16.089654,8.2841235 16.28125,7.9082031 16.550537,7.3797342 16.5,6.9604406 16.5,6.4003906 V 4.5996094 c 0,-0.56005 0.05054,-0.9793436 -0.21875,-1.5078125 C 16.089654,2.7158765 15.784557,2.4104867 15.408203,2.21875 14.879769,1.949493 14.460491,2 13.900391,2 Z M 9.5,4 c -0.1006379,0.051276 0.039559,0 0.599609,0 h 3.800782 c 0.5601,0 0.700244,0.051277 0.599609,0 -0.05129,-0.1006489 0,0.039559 0,0.5996094 v 1.8007812 c 0,0.56005 -0.05129,0.7002583 0,0.5996094 0.100635,-0.051277 -0.03951,0 -0.599609,0 H 12 10.099609 C 9.5395594,7 9.3993621,6.9487236 9.5,7 c 0.051276,0.1006379 0,-0.039559 0,-0.5996094 V 4.5996094 C 9.5,4.0395594 9.5512764,3.8993621 9.5,4 Z M 4,17 c -0.1006489,0.05129 0.039559,0 0.5996094,0 H 6.5 8.4003906 c 0.56005,0 0.7002583,0.05129 0.5996094,0 -0.051277,-0.100635 0,0.03951 0,0.599609 v 1.800782 C 9,19.960491 8.948723,20.100635 9,20 9.1006489,19.948713 8.9604406,20 8.4003906,20 H 4.5996094 C 4.0395594,20 3.8993511,19.948713 4,20 4.051277,20.100635 4,19.960491 4,19.400391 V 17.599609 C 4,17.039509 4.051277,16.899365 4,17 Z m 11,0 c -0.100646,0.05129 0.03951,0 0.599609,0 H 17.5 19.400391 c 0.5601,0 0.700255,0.05129 0.599609,0 -0.05129,-0.100646 0,0.03951 0,0.599609 v 1.800782 c 0,0.5601 -0.05129,0.700255 0,0.599609 0.100646,-0.05129 -0.03951,0 -0.599609,0 h -3.800782 c -0.5601,0 -0.700255,-0.05129 -0.599609,0 0.05129,0.100646 0,-0.03951 0,-0.599609 V 17.599609 C 15,17.039509 15.051287,16.899354 15,17 Z"
     id="path1" />
</svg>
