<?xml version="1.0" encoding="UTF-8" standalone="no"?>
<!-- Uploaded to: SVG Repo, www.svgrepo.com, Generator: SVG Repo Mixer Tools -->

<svg
   width="800"
   height="800"
   viewBox="0 0 24 24"
   fill="none"
   version="1.1"
   id="svg1"
   xmlns="http://www.w3.org/2000/svg"
   xmlns:svg="http://www.w3.org/2000/svg">
  <defs
     id="defs1" />
  <g
     id="File / Note_Edit"
     style="fill:#f9f9f9">
    <path
       id="Vector"
       d="m 10.0002,4 h -2.8 C 6.08009,4 5.51962,4 5.0918,4.21799 4.71547,4.40973 4.40973,4.71547 4.21799,5.0918 4,5.51962 4,6.08009 4,7.2002 v 9.6 c 0,1.1201 0,1.6799 0.21799,2.1077 0.19174,0.3763 0.49748,0.6826 0.87381,0.8743 C 5.5192,20 6.07899,20 7.19691,20 h 9.60619 c 1.1179,0 1.6769,0 2.1043,-0.2178 0.3763,-0.1917 0.6831,-0.4983 0.8748,-0.8746 C 20,18.4802 20,17.921 20,16.8031 V 14 m -4,-9 -6,6 v 3 h 3 l 6,-6 m -3,-3 3,-3 3,3 -3,3 m -3,-3 3,3"
       stroke="#000000"
       stroke-width="2"
       stroke-linecap="round"
       stroke-linejoin="round"
       style="fill:#f9f9f9" />
  </g>
</svg>
