<?xml version="1.0" encoding="UTF-8" standalone="no"?>
<!-- Uploaded to: SVG Repo, www.svgrepo.com, Generator: SVG Repo Mixer Tools -->

<svg
   fill="#000000"
   width="800"
   height="800"
   viewBox="0 0 36 36"
   version="1.1"
   preserveAspectRatio="xMidYMid"
   id="svg1"
   sodipodi:docname="unknown-status-symbolic.svg"
   inkscape:export-filename="unknown-status-symbolic.svg"
   inkscape:export-xdpi="96"
   inkscape:export-ydpi="96"
   inkscape:version="1.4.2 (ebf0e940d0, 2025-05-08)"
   xmlns:inkscape="http://www.inkscape.org/namespaces/inkscape"
   xmlns:sodipodi="http://sodipodi.sourceforge.net/DTD/sodipodi-0.dtd"
   xmlns="http://www.w3.org/2000/svg"
   xmlns:svg="http://www.w3.org/2000/svg">
  <defs
     id="defs1" />
  <sodipodi:namedview
     id="namedview1"
     pagecolor="#ffffff"
     bordercolor="#000000"
     borderopacity="0.25"
     inkscape:showpageshadow="2"
     inkscape:pageopacity="0.0"
     inkscape:pagecheckerboard="0"
     inkscape:deskcolor="#d1d1d1"
     inkscape:zoom="0.4925"
     inkscape:cx="398.98477"
     inkscape:cy="400"
     inkscape:window-width="1880"
     inkscape:window-height="1000"
     inkscape:window-x="0"
     inkscape:window-y="0"
     inkscape:window-maximized="1"
     inkscape:current-layer="svg1">
    <inkscape:page
       x="0"
       y="0"
       width="36"
       height="36"
       id="page2"
       margin="0"
       bleed="0" />
  </sodipodi:namedview>
  <title
     id="title1">unknown-status-line</title>
  <g
     id="g1"
     transform="matrix(1.8602167,0,0,1.8602167,-15.64026,-15.397787)">
    <circle
       class="clr-i-outline clr-i-outline-path-1"
       cx="17.58"
       cy="26.23"
       r="1.4"
       id="circle1" />
    <path
       class="clr-i-outline clr-i-outline-path-2"
       d="M 24.7,13 A 5.18,5.18 0 0 0 22.54,9.44 7.26,7.26 0 0 0 16.83,8.35 11.34,11.34 0 0 0 12,10.44 1.0026465,1.0026465 0 1 0 13.26,12 a 9.32,9.32 0 0 1 3.94,-1.72 5.29,5.29 0 0 1 4.16,0.74 3.21,3.21 0 0 1 1.35,2.19 c 0.33,2.69 -3.19,3.75 -5.32,4.14 l -0.82,0.15 v 4.36 a 1,1 0 0 0 2,0 V 19.17 C 24.61,17.79 24.88,14.41 24.7,13 Z"
       id="path1" />
  </g>
  <rect
     x="0"
     y="0"
     width="36"
     height="36"
     fill-opacity="0"
     id="rect1" />
</svg>
