<?xml version="1.0" encoding="UTF-8" standalone="no"?>
<!-- Uploaded to: SVG Repo, www.svgrepo.com, Generator: SVG Repo Mixer Tools -->

<svg
   version="1.1"
   id="Capa_1"
   width="800"
   height="800"
   viewBox="0 0 32 32"
   enable-background="new 0 0 32 32"
   xml:space="preserve"
   xmlns="http://www.w3.org/2000/svg"
   xmlns:svg="http://www.w3.org/2000/svg"><defs
   id="defs9" />
<path
   fill="#2D2220"
   d="M 15.63,3.98 C 15.23,3.98 15,4 15,4 15,4 4,5 4,17 c 0,0 0,7 4,7 3.5,0 3.94,-5.36 6,-5.36 0.3,0 0.62,0.11 1,0.36 3,2 -7,5 -4,8 0.79,0.79 2.36,1.24 4.23,1.24 C 20.44,28.24 28,24.82 28,16 28,4.73 18.24,3.98 15.63,3.98 Z m -0.4,23.26 c -1.59,0 -2.94,-0.36 -3.52,-0.95 -0.29,-0.29 -0.28,-0.46 -0.28,-0.51 0.05,-0.69 1.44,-1.78 2.46,-2.58 1.46,-1.15 2.73,-2.13 2.68,-3.42 -0.02,-0.44 -0.21,-1.07 -1.01,-1.61 -0.53,-0.35 -1.05,-0.53 -1.56,-0.53 -1.47,0 -2.25,1.351 -3.02,2.65 C 10.03,21.93 9.31,23 8,23 5.09,23 5,17.06 5,17 5,6.08 14.68,5.04 15.08,5 15.09,5 15.29,4.98 15.63,4.98 18.3,4.98 27,5.78 27,16 27,24.25 19.96,27.24 15.23,27.24 Z"
   id="path1"
   style="fill:#000000;fill-opacity:1" />
<path
   fill="#FFD561"
   d="M 25.07,9.16 C 22.4,7.22 19.1,6.98 17.63,6.98 17.29,6.98 17.09,7 17.08,7 16.68,7.04 7,8.08 7,19 7,19.04 7.03,21.25 7.72,22.98 7.81,22.99 7.9,23 8,23 c 1.31,0 2.03,-1.07 2.98,-2.71 0.77,-1.3 1.55,-2.65 3.02,-2.65 0.51,0 1.03,0.181 1.56,0.53 0.76,0.521 0.97,1.11 1,1.55 0.01,0.021 0.01,0.04 0.01,0.061 0.05,1.29 -1.22,2.27 -2.68,3.42 -1.02,0.8 -2.41,1.89 -2.46,2.58 0,0.05 -0.01,0.22 0.28,0.51 0.39,0.4 1.12,0.69 2.05,0.83 0.45,0.08 0.95,0.12 1.47,0.12 C 19.96,27.24 27,24.25 27,16 27,12.96 26.23,10.75 25.07,9.16 Z M 13,13 c -1.1,0 -2,-0.9 -2,-2 0,-1.1 0.9,-2 2,-2 1.1,0 2,0.9 2,2 0,1.1 -0.9,2 -2,2 z m 8,9 c -1.1,0 -2,-0.9 -2,-2 0,-1.1 0.9,-2 2,-2 1.1,0 2,0.9 2,2 0,1.1 -0.9,2 -2,2 z m 0,-8 c -1.1,0 -2,-0.9 -2,-2 0,-1.1 0.9,-2 2,-2 1.1,0 2,0.9 2,2 0,1.1 -0.9,2 -2,2 z"
   id="path2"
   style="fill:#ffffff;fill-opacity:1" />
<path
   fill="#2D2220"
   d="m 8,15 c -1.1,0 -2,0.9 -2,2 0,1.1 0.9,2 2,2 1.1,0 2,-0.9 2,-2 0,-1.1 -0.9,-2 -2,-2 z m 0,3 c -0.55,0 -1,-0.45 -1,-1 0,-0.55 0.45,-1 1,-1 0.55,0 1,0.45 1,1 0,0.55 -0.45,1 -1,1 z"
   id="path3"
   style="fill:#000000;fill-opacity:1" />
<circle
   fill="#31CFFF"
   cx="8"
   cy="17"
   r="1"
   id="circle3"
   style="fill:#68a8ff;fill-opacity:1" />
<path
   fill="#2D2220"
   d="m 13,8 c -1.66,0 -3,1.34 -3,3 0,1.66 1.34,3 3,3 1.66,0 3,-1.34 3,-3 0,-1.66 -1.34,-3 -3,-3 z m 0,5 c -1.1,0 -2,-0.9 -2,-2 0,-1.1 0.9,-2 2,-2 1.1,0 2,0.9 2,2 0,1.1 -0.9,2 -2,2 z"
   id="path4"
   style="fill:#000000;fill-opacity:1" />
<path
   fill="#e371ff"
   d="m 15,11 c 0,1.1 -0.9,2 -2,2 -0.29,0 -0.57,-0.06 -0.82,-0.18 C 12.06,12.57 12,12.29 12,12 c 0,-1.1 0.9,-2 2,-2 0.29,0 0.57,0.06 0.82,0.18 C 14.94,10.43 15,10.71 15,11 Z"
   id="path5" />
<path
   fill="#2D2220"
   d="m 21,9 c -1.66,0 -3,1.34 -3,3 0,1.66 1.34,3 3,3 1.66,0 3,-1.34 3,-3 0,-1.66 -1.34,-3 -3,-3 z m 0,5 c -1.1,0 -2,-0.9 -2,-2 0,-1.1 0.9,-2 2,-2 1.1,0 2,0.9 2,2 0,1.1 -0.9,2 -2,2 z"
   id="path6"
   style="fill:#000000;fill-opacity:1" />
<path
   fill="#FF6B43"
   d="m 23,12 c 0,1.1 -0.9,2 -2,2 -0.29,0 -0.57,-0.06 -0.82,-0.18 C 20.06,13.57 20,13.29 20,13 c 0,-1.1 0.9,-2 2,-2 0.29,0 0.57,0.06 0.82,0.18 C 22.94,11.43 23,11.71 23,12 Z"
   id="path7"
   style="fill:#ff4411;fill-opacity:1" />
<path
   fill="#2D2220"
   d="m 21,17 c -1.66,0 -3,1.34 -3,3 0,1.66 1.34,3 3,3 1.66,0 3,-1.34 3,-3 0,-1.66 -1.34,-3 -3,-3 z m 0,5 c -1.1,0 -2,-0.9 -2,-2 0,-1.1 0.9,-2 2,-2 1.1,0 2,0.9 2,2 0,1.1 -0.9,2 -2,2 z"
   id="path8"
   style="fill:#000000;fill-opacity:1" />
<path
   fill="#FFA28D"
   d="m 23,20 c 0,1.1 -0.9,2 -2,2 -0.29,0 -0.57,-0.06 -0.82,-0.18 C 20.06,21.57 20,21.29 20,21 c 0,-1.1 0.9,-2 2,-2 0.29,0 0.57,0.06 0.82,0.18 C 22.94,19.43 23,19.71 23,20 Z"
   id="path9"
   style="fill:#65ff4f;fill-opacity:1" />
</svg>
