<?xml version="1.0" encoding="UTF-8" standalone="no"?>
<!-- Uploaded to: SVG Repo, www.svgrepo.com, Generator: SVG Repo Mixer Tools -->

<svg
   width="800"
   height="800"
   viewBox="0 0 16 16"
   version="1.1"
   id="svg1"
   xmlns="http://www.w3.org/2000/svg"
   xmlns:svg="http://www.w3.org/2000/svg">
  <defs
     id="defs1" />
  <path
     style="fill:#000000;fill-opacity:1"
     d="M 8,10"
     id="path4" />
  <path
     style="fill:#000000;fill-opacity:0.5"
     d="m 8,10 c -0.511719,0 -1.023438,0.195312 -1.414062,0.585938 -0.78125,0.78125 -0.78125,2.046874 0,2.828124 0.78125,0.78125 2.046874,0.78125 2.828124,0 0.78125,-0.78125 0.78125,-2.046874 0,-2.828124 C 9.023438,10.195312 8.511719,10 8,10 Z"
     id="path3" />
  <path
     style="fill:#000000;fill-opacity:0.5"
     d="M 7.96875,6 C 6.398438,6.011719 4.839844,6.628906 3.761719,7.8125 l -0.5,0.550781 C 3.082031,8.558594 2.984375,8.816406 3,9.082031 3.011719,9.347656 3.128906,9.597656 3.328125,9.777344 3.523438,9.957031 3.78125,10.050781 4.046875,10.035156 4.3125,10.023438 4.5625,9.90625 4.742188,9.707031 L 5.238281,9.160156 c 1.277344,-1.402344 4.160157,-1.496094 5.523438,0.00391 l 0.5,0.542969 C 11.4375,9.90625 11.6875,10.023438 11.953125,10.035156 12.21875,10.050781 12.476562,9.957031 12.675781,9.777344 12.871094,9.597656 12.988281,9.347656 13,9.082031 13.011719,8.820312 12.917969,8.558594 12.738281,8.363281 l -0.5,-0.546875 C 11.117188,6.582031 9.535156,5.988281 7.96875,6 Z"
     id="path2" />
  <path
     style="fill:#000000;fill-opacity:0.25"
     d="m 8,1.992188 c -2.617188,0 -5.238281,0.933593 -7.195312,2.808593 L 0.308594,5.28125 c -0.3984378,0.378906 -0.410156,1.011719 -0.03125,1.410156 0.382812,0.398438 1.015625,0.410156 1.414062,0.03125 l 0.5,-0.476562 c 3.085938,-2.957032 8.53125,-2.957032 11.617188,0 l 0.5,0.476562 c 0.398437,0.378906 1.03125,0.367188 1.414062,-0.03125 0.378906,-0.398437 0.367188,-1.03125 -0.03125,-1.410156 L 15.195312,4.796875 C 13.238281,2.925781 10.617188,1.992188 8,1.992188 Z"
     id="path1" />
</svg>
