<?xml version="1.0" encoding="UTF-8" standalone="no"?>
<svg
   xmlns:dc="http://purl.org/dc/elements/1.1/"
   xmlns:cc="http://creativecommons.org/ns#"
   xmlns:rdf="http://www.w3.org/1999/02/22-rdf-syntax-ns#"
   xmlns:svg="http://www.w3.org/2000/svg"
   xmlns="http://www.w3.org/2000/svg"
   xmlns:sodipodi="http://sodipodi.sourceforge.net/DTD/sodipodi-0.dtd"
   xmlns:inkscape="http://www.inkscape.org/namespaces/inkscape"
   width="64"
   height="64"
   version="1.1"
   viewBox="0 0 64 64"
   id="svg16"
   sodipodi:docname="applications-all.svg"
   inkscape:version="0.92.5 (2060ec1f9f, 2020-04-08)">
  <metadata
     id="metadata22">
    <rdf:RDF>
      <cc:Work
         rdf:about="">
        <dc:format>image/svg+xml</dc:format>
        <dc:type
           rdf:resource="http://purl.org/dc/dcmitype/StillImage" />
      </cc:Work>
    </rdf:RDF>
  </metadata>
  <defs
     id="defs20" />
  <sodipodi:namedview
     pagecolor="#ffffff"
     bordercolor="#666666"
     borderopacity="1"
     objecttolerance="10"
     gridtolerance="10"
     guidetolerance="10"
     inkscape:pageopacity="0"
     inkscape:pageshadow="2"
     inkscape:window-width="1856"
     inkscape:window-height="1015"
     id="namedview18"
     showgrid="false"
     inkscape:zoom="3.6875"
     inkscape:cx="32.542373"
     inkscape:cy="30.644068"
     inkscape:window-x="64"
     inkscape:window-y="28"
     inkscape:window-maximized="1"
     inkscape:current-layer="svg16" />
  <g
     transform="translate(-1,-1)"
     stroke-linecap="round"
     stroke-linejoin="round"
     id="g14">
    <circle
       cx="33"
       cy="33"
       r="28"
       fill="#528fff"
       stroke-width="2.2958"
       id="circle2" />
    <g
       fill="#fff"
       stroke-width="2.8"
       id="g12">
      <rect
         x="17"
         y="17"
         width="14"
         height="14"
         rx="2"
         ry="2"
         id="rect4" />
      <path
         d="m37 17c-1.108 0-2 0.892-2 2v10c0 1.108 0.892 2 2 2h10c1.108 0 2-0.892 2-2v-10c0-1.108-0.892-2-2-2zm0 2h10v10h-10z"
         id="path6" />
      <path
         d="m37 35c-1.108 0-2 0.892-2 2v10c0 1.108 0.892 2 2 2h10c1.108 0 2-0.892 2-2v-10c0-1.108-0.892-2-2-2zm0 2h10v10h-10z"
         id="path8" />
      <path
         d="m19 35c-1.108 0-2 0.892-2 2v10c0 1.108 0.892 2 2 2h10c1.108 0 2-0.892 2-2v-10c0-1.108-0.892-2-2-2zm0 2h10v10h-10z"
         id="path10" />
    </g>
  </g>
  <path
     style="fill:#ff00ff;stroke-width:0.27118644"
     d="M 26.576271,59.380315 C 19.347642,57.867512 12.863972,53.505228 8.8152456,47.430508 3.0856913,38.833866 2.5667504,28.077515 7.4396312,18.917449 13.131089,8.2186194 24.960334,2.4881359 37.01478,4.5902553 47.908014,6.4898763 56.935536,15.267244 59.267406,26.226255 c 2.258628,10.6148 -1.843786,21.442919 -10.660485,28.137832 -2.298834,1.745608 -6.592803,3.844236 -9.42048,4.604149 -2.782758,0.747845 -9.895191,0.980266 -12.61017,0.412079 z m 2.859785,-11.937481 c 0.664284,-0.664285 0.665639,-0.67718 0.665639,-6.336309 0,-5.326235 -0.03414,-5.714069 -0.562056,-6.385207 L 28.977584,34.00678 h -5.946419 c -5.584837,0 -5.979399,0.03298 -6.488792,0.542373 C 16.03298,35.058546 16,35.453106 16,41.037944 v 5.946419 l 0.714538,0.562056 c 0.671137,0.527916 1.058973,0.562056 6.385208,0.562056 5.659129,0 5.672025,-0.0014 6.33631,-0.665641 z M 47.285462,47.546419 48,46.984363 V 41.037944 C 48,35.453106 47.96702,35.058546 47.457627,34.549153 46.948233,34.039759 46.553673,34.00678 40.968835,34.00678 h -5.946419 l -0.562055,0.714538 c -0.527916,0.671138 -0.562056,1.058972 -0.562056,6.385207 0,5.659129 0.0014,5.672024 0.665641,6.336309 0.664285,0.664285 0.677179,0.665641 6.336309,0.665641 5.326234,0 5.714069,-0.03414 6.385207,-0.562056 z M 28.638212,29.928321 c 1.395159,-0.530438 1.445574,-0.771009 1.454858,-6.942346 0.0079,-5.245726 -0.03537,-5.787049 -0.509314,-6.372881 -0.510979,-0.631611 -0.595863,-0.641318 -6.317873,-0.722511 -5.568784,-0.07902 -5.829147,-0.05932 -6.532909,0.494259 L 16,16.961399 v 5.828654 c 0,6.071335 0.105919,6.7182 1.17027,7.147037 0.84461,0.340301 10.569376,0.332866 11.467942,-0.0088 z M 47.482085,29.434364 C 47.956458,28.847975 48,28.296747 48,22.877775 v -5.916376 l -0.732974,-0.576557 c -0.703761,-0.553579 -0.964124,-0.573278 -6.532908,-0.494259 -5.722012,0.08119 -5.806894,0.0909 -6.317874,0.722511 -0.473944,0.585832 -0.517207,1.127155 -0.509315,6.372881 0.0092,6.105586 0.06722,6.399012 1.37191,6.936512 0.376323,0.155034 2.992277,0.244347 6.169348,0.210629 5.436933,-0.0577 5.523406,-0.06771 6.033898,-0.698752 z"
     id="path3739"
     inkscape:connector-curvature="0" />
  <path
     style="fill:#ff00ff;stroke-width:0.27118644"
     d="m 18.169492,41.057627 v -4.881356 h 4.881355 4.881356 v 4.881356 4.881356 h -4.881356 -4.881355 z"
     id="path3741"
     inkscape:connector-curvature="0" />
  <path
     style="fill:#ff00ff;stroke-width:0.27118644"
     d="m 36.067797,41.057627 v -4.881356 h 4.881356 4.881355 v 4.881356 4.881356 h -4.881355 -4.881356 z"
     id="path3743"
     inkscape:connector-curvature="0" />
  <path
     style="fill:#ff00ff;stroke-width:0.27118644"
     d="M 36.067797,22.888136 V 18.00678 h 4.881356 4.881355 v 4.881356 4.881356 h -4.881355 -4.881356 z"
     id="path3745"
     inkscape:connector-curvature="0" />
</svg>
