<svg width="190" height="200" viewBox="0 0 190 200" fill="none" xmlns="http://www.w3.org/2000/svg">
<path fill-rule="evenodd" clip-rule="evenodd" d="M94.8044 10V190Z" fill="#88CDFF"/>
<path d="M94.8044 10V190" stroke="#88CDFF" stroke-width="20" stroke-linecap="round"/>
<path fill-rule="evenodd" clip-rule="evenodd" d="M177.282 52.7293L10 142.729Z" fill="#88CDFF"/>
<path d="M177.282 52.7293L10 142.729" stroke="#88CDFF" stroke-width="20" stroke-linecap="round"/>
<path fill-rule="evenodd" clip-rule="evenodd" d="M10.0407 51.9444L177.323 141.944Z" fill="#88CDFF"/>
<path d="M10.0407 51.9444L177.323 141.944" stroke="#88CDFF" stroke-width="20" stroke-linecap="round"/>
<path d="M67.3361 25.8654L94.5036 56.7561L121.671 26.3299" stroke="#88CDFF" stroke-width="20" stroke-linecap="round"/>
<path d="M67.3871 177.718L94.5546 146.827L121.722 177.253" stroke="#88CDFF" stroke-width="20" stroke-linecap="round"/>
<path d="M153.238 34.1101L139.827 72.8711L180 80.9735" stroke="#88CDFF" stroke-width="20" stroke-linecap="round"/>
<path d="M178.859 112.056L138.279 119.926L151.285 158.455" stroke="#88CDFF" stroke-width="20" stroke-linecap="round"/>
<path d="M42.0406 156.152L55.4525 117.392L15.279 109.289" stroke="#88CDFF" stroke-width="20" stroke-linecap="round"/>
<path d="M11.9903 83.387L52.5697 75.5168L39.5638 36.9881" stroke="#88CDFF" stroke-width="20" stroke-linecap="round"/>
</svg>
