<svg width="192" height="193" viewBox="0 0 192 193" fill="none" xmlns="http://www.w3.org/2000/svg">
<path d="M171 101C171 81.1088 163.098 62.0322 149.033 47.967C134.968 33.9018 115.891 26 96.0001 26C76.1088 26 57.0322 33.9018 42.967 47.967C28.9018 62.0322 21 81.1088 21 101H45.6711C45.6711 87.6519 50.9736 74.8506 60.4121 65.4121C69.8506 55.9736 82.652 50.6711 96.0001 50.6711C109.348 50.6711 122.149 55.9736 131.588 65.4121C141.026 74.8506 146.329 87.6519 146.329 101H171Z" fill="#5BCD33"/>
<path d="M160.032 154.774C168.386 154.774 176.399 151.455 182.306 145.548C188.213 139.64 191.532 131.628 191.532 123.274C191.532 114.92 188.213 106.907 182.306 101C176.399 95.0926 168.386 91.7739 160.032 91.7739V154.774Z" fill="#5BCD33"/>
<path d="M160.032 91.7739V154.774H137.532V91.7739H160.032Z" fill="#5BCD33"/>
<path d="M31.5 154.774C23.1457 154.774 15.1335 151.455 9.22614 145.548C3.31874 139.64 -2.32402e-07 131.628 0 123.274C2.32402e-07 114.92 3.31874 106.907 9.22614 101C15.1335 95.0926 23.1457 91.7739 31.5 91.7739V154.774Z" fill="#5BCD33"/>
<path d="M31.5 91.7739V154.774H54V91.7739H31.5Z" fill="#5BCD33"/>
</svg>
