<svg width="200" height="200" viewBox="0 0 200 200" fill="none" xmlns="http://www.w3.org/2000/svg">
<path d="M175 99.5C175 84.5675 170.572 69.9704 162.276 57.5545C153.98 45.1386 142.188 35.4615 128.393 29.7471C114.597 24.0327 99.4163 22.5376 84.7707 25.4507C70.1251 28.3639 56.6723 35.5546 46.1135 46.1135C35.5546 56.6723 28.3639 70.1251 25.4507 84.7707C22.5376 99.4163 24.0327 114.597 29.7471 128.393C35.4615 142.188 45.1386 153.98 57.5545 162.276C69.9704 170.572 84.5675 175 99.5 175V144C90.6988 144 82.0951 141.39 74.7772 136.5C67.4592 131.611 61.7555 124.661 58.3874 116.529C55.0193 108.398 54.138 99.4507 55.8551 90.8185C57.5721 82.1864 61.8103 74.2572 68.0338 68.0338C74.2572 61.8103 82.1864 57.5721 90.8185 55.8551C99.4507 54.138 108.398 55.0193 116.529 58.3874C124.661 61.7555 131.611 67.4592 136.5 74.7772C141.39 82.0951 144 90.6988 144 99.5H175Z" fill="#D9D9D9"/>
<path d="M175 99.5H144H124.5L159 136.5L194.5 99.5H175Z" fill="#D9D9D9"/>
</svg>
