<?xml version="1.0" encoding="UTF-8" standalone="no"?>
<!-- Uploaded to: SVG Repo, www.svgrepo.com, Generator: SVG Repo Mixer Tools -->

<svg
   width="800"
   height="800"
   viewBox="0 0 50.8 50.8"
   xml:space="preserve"
   version="1.1"
   id="svg1"
   sodipodi:docname="code-editor-symbolic.svg"
   xmlns:inkscape="http://www.inkscape.org/namespaces/inkscape"
   xmlns:sodipodi="http://sodipodi.sourceforge.net/DTD/sodipodi-0.dtd"
   xmlns="http://www.w3.org/2000/svg"
   xmlns:svg="http://www.w3.org/2000/svg"><defs
   id="defs1" /><sodipodi:namedview
   id="namedview1"
   pagecolor="#ffffff"
   bordercolor="#000000"
   borderopacity="0.25"
   inkscape:showpageshadow="2"
   inkscape:pageopacity="0.0"
   inkscape:pagecheckerboard="0"
   inkscape:deskcolor="#d1d1d1"><inkscape:page
     x="0"
     y="0"
     width="50.799999"
     height="50.799999"
     id="page2"
     margin="0"
     bleed="0" /></sodipodi:namedview>

<g
   style="stroke-width:1.27;stroke-dasharray:none"
   id="g1"
   transform="matrix(1.2015434,0,0,1.2015434,-5.1192965,-5.1147202)">

<path
   style="color:#000000;font-style:normal;font-variant:normal;font-weight:normal;font-stretch:normal;font-size:medium;line-height:normal;font-family:sans-serif;font-variant-ligatures:normal;font-variant-position:normal;font-variant-caps:normal;font-variant-numeric:normal;font-variant-alternates:normal;font-variant-east-asian:normal;font-feature-settings:normal;font-variation-settings:normal;text-indent:0;text-align:start;text-decoration-line:none;text-decoration-style:solid;text-decoration-color:#000000;letter-spacing:normal;word-spacing:normal;text-transform:none;writing-mode:lr-tb;direction:ltr;text-orientation:mixed;dominant-baseline:auto;baseline-shift:baseline;text-anchor:start;white-space:normal;shape-padding:0;shape-margin:0;inline-size:0;clip-rule:nonzero;display:inline;overflow:visible;visibility:visible;isolation:auto;mix-blend-mode:normal;color-interpolation:sRGB;color-interpolation-filters:linearRGB;solid-color:#000000;solid-opacity:1;vector-effect:none;fill:#000000;fill-opacity:1;fill-rule:nonzero;stroke:none;stroke-linecap:round;stroke-linejoin:round;stroke-miterlimit:4;stroke-dasharray:none;stroke-dashoffset:0;stroke-opacity:1;-inkscape-stroke:none;color-rendering:auto;image-rendering:auto;shape-rendering:auto;text-rendering:auto;enable-background:accumulate;stop-color:#000000;stop-opacity:1"
   d="m 27.841797,11.929688 a 1.58789,1.58789 0 0 0 -1.837891,1.292968 L 21.875,36.990234 a 1.58789,1.58789 0 0 0 1.292969,1.835938 1.58789,1.58789 0 0 0 1.835937,-1.292969 l 4.128906,-23.767578 a 1.58789,1.58789 0 0 0 -1.291015,-1.835937 z m 5.277344,2.480468 a 1.58789,1.58789 0 0 0 -1.076172,0.5625 1.58789,1.58789 0 0 0 0.197265,2.236328 l 9.970703,8.34375 -12.986328,7.669922 a 1.58789,1.58789 0 0 0 -0.560547,2.175781 1.58789,1.58789 0 0 0 2.175782,0.558594 l 14.919922,-8.8125 a 1.5880488,1.5880488 0 0 0 0.210937,-2.585937 L 34.279297,14.773438 A 1.58789,1.58789 0 0 0 33.119141,14.410156 Z M 21.15625,14.765625 a 1.58789,1.58789 0 0 0 -1.203125,0.175781 L 5.0332031,23.859375 a 1.5880488,1.5880488 0 0 0 -0.1972656,2.585937 l 11.5898435,9.578125 a 1.58789,1.58789 0 0 0 2.234375,-0.21289 1.58789,1.58789 0 0 0 -0.210937,-2.236328 L 8.59375,25.431641 21.582031,17.667969 a 1.58789,1.58789 0 0 0 0.548828,-2.177735 1.58789,1.58789 0 0 0 -0.974609,-0.724609 z"
   id="path1" />

</g>

</svg>
