<?xml version="1.0" encoding="UTF-8" standalone="no"?>
<svg
   width="64"
   height="64"
   version="1.0"
   id="svg10"
   sodipodi:docname="drive-harddisk-solidstate.svg"
   inkscape:version="1.1 (c68e22c387, 2021-05-23)"
   xmlns:inkscape="http://www.inkscape.org/namespaces/inkscape"
   xmlns:sodipodi="http://sodipodi.sourceforge.net/DTD/sodipodi-0.dtd"
   xmlns:xlink="http://www.w3.org/1999/xlink"
   xmlns="http://www.w3.org/2000/svg"
   xmlns:svg="http://www.w3.org/2000/svg">
  <defs
     id="defs14">
    <linearGradient
       id="linearGradient862-5"
       x1="7.9373002"
       x2="7.9373002"
       y1="15.081"
       y2="1.852"
       gradientTransform="scale(3.7796)"
       gradientUnits="userSpaceOnUse">
      <stop
         stop-color="#0e71de"
         offset="0"
         id="stop2" />
      <stop
         stop-color="#25c9ff"
         offset="1"
         id="stop4" />
    </linearGradient>
    <linearGradient
       id="linearGradient1062"
       x1="399.57001"
       x2="399.57001"
       y1="545.79999"
       y2="517.79999"
       gradientTransform="matrix(2.1429,0,0,2.1429,-826.36,-1107.5)"
       gradientUnits="userSpaceOnUse">
      <stop
         stop-color="#3889e9"
         offset="0"
         id="stop7" />
      <stop
         stop-color="#5ea5fb"
         offset="1"
         id="stop9" />
    </linearGradient>
    <linearGradient
       inkscape:collect="always"
       xlink:href="#linearGradient1062"
       id="linearGradient856"
       x1="-45"
       y1="32"
       x2="-17"
       y2="32"
       gradientUnits="userSpaceOnUse" />
    <linearGradient
       inkscape:collect="always"
       xlink:href="#linearGradient1062"
       id="linearGradient858"
       x1="-58"
       y1="-32"
       x2="-6"
       y2="-32"
       gradientUnits="userSpaceOnUse" />
  </defs>
  <sodipodi:namedview
     id="namedview12"
     pagecolor="#ffffff"
     bordercolor="#666666"
     borderopacity="1.0"
     inkscape:pageshadow="2"
     inkscape:pageopacity="0.0"
     inkscape:pagecheckerboard="0"
     showgrid="false"
     inkscape:zoom="3.421875"
     inkscape:cx="-14.90411"
     inkscape:cy="42.374429"
     inkscape:window-width="1366"
     inkscape:window-height="706"
     inkscape:window-x="0"
     inkscape:window-y="0"
     inkscape:window-maximized="1"
     inkscape:current-layer="svg10" />
  <rect
     transform="matrix(0,-1,-1,0,0,0)"
     x="-58"
     y="-53"
     width="52"
     height="42"
     rx="3"
     ry="3"
     fill="#666"
     id="rect2"
     style="fill-opacity:1.0;fill:url(#linearGradient858)" />
  <circle
     cx="32"
     cy="31"
     r="16"
     fill="#fff"
     paint-order="markers stroke fill"
     id="circle4" />
  <circle
     cx="-31"
     cy="32"
     r="14"
     fill="#7297ba"
     paint-order="markers stroke fill"
     id="circle6"
     style="fill:url(#linearGradient856);fill-opacity:1.0"
     transform="rotate(-90)" />
  <path
     d="m32 22.429a8 8 0 0 0-8 8v8h8a8 8 0 1 0 0-16zm0 4.571a3.429 3.429 0 0 1 3.429 3.429 3.429 3.429 0 0 1-3.429 3.428 3.429 3.429 0 0 1-3.429-3.428 3.429 3.429 0 0 1 3.429-3.429z"
     fill="#fff"
     id="path8" />
</svg>
