<?xml version="1.0" encoding="UTF-8" standalone="no"?>
<svg
   width="64"
   height="64"
   version="1"
   id="svg10"
   sodipodi:docname="drive-harddisk.svg"
   inkscape:version="1.1 (c68e22c387, 2021-05-23)"
   xmlns:inkscape="http://www.inkscape.org/namespaces/inkscape"
   xmlns:sodipodi="http://sodipodi.sourceforge.net/DTD/sodipodi-0.dtd"
   xmlns="http://www.w3.org/2000/svg"
   xmlns:svg="http://www.w3.org/2000/svg">
  <defs
     id="defs14">
    <linearGradient
       id="linearGradient949"
       x1="7.9373002"
       x2="7.9373002"
       y1="15.081"
       y2="1.852"
       gradientTransform="matrix(3.7796,0,0,3.7796,-66.618008,-9.9279326)"
       gradientUnits="userSpaceOnUse">
      <stop
         stop-color="#1fe0aa"
         offset="0"
         id="stop2" />
      <stop
         stop-color="#b2ff85"
         offset="1"
         id="stop4" />
    </linearGradient>
  </defs>
  <sodipodi:namedview
     id="namedview12"
     pagecolor="#ffffff"
     bordercolor="#666666"
     borderopacity="1.0"
     inkscape:pageshadow="2"
     inkscape:pageopacity="0.0"
     inkscape:pagecheckerboard="0"
     showgrid="false"
     inkscape:zoom="4.839262"
     inkscape:cx="7.4391508"
     inkscape:cy="44.221619"
     inkscape:window-width="1366"
     inkscape:window-height="706"
     inkscape:window-x="0"
     inkscape:window-y="0"
     inkscape:window-maximized="1"
     inkscape:current-layer="svg10" />
  <rect
     transform="matrix(0,-1,-1,0,0,0)"
     x="-58"
     y="-53"
     width="52"
     height="42"
     rx="3"
     ry="3"
     fill="#666"
     id="rect2"
     style="fill:#1fe0aa;fill-opacity:1;stroke-width:1" />
  <circle
     cx="32"
     cy="31"
     r="16"
     fill="#fff"
     paint-order="markers stroke fill"
     id="circle4" />
  <circle
     cx="-31"
     cy="32"
     r="14"
     fill="#7eba72"
     paint-order="markers stroke fill"
     id="circle6"
     style="fill:#1fe0aa;fill-opacity:1"
     transform="rotate(-90)" />
  <path
     d="M32 22.429a8 8 0 0 0-8 8v8h8a8 8 0 1 0 0-16zM32 27a3.429 3.429 0 0 1 3.429 3.429A3.429 3.429 0 0 1 32 33.857a3.429 3.429 0 0 1-3.429-3.428A3.429 3.429 0 0 1 32 27z"
     fill="#fff"
     id="path8" />
</svg>
