<?xml version="1.0" encoding="UTF-8" standalone="no"?>
<!-- Created with Inkscape (http://www.inkscape.org/) -->

<svg
   version="1.1"
   width="100%"
   height="100%"
   viewBox="0 0 512 512"
   id="svg2"
   sodipodi:docname="bluetooth-inactive.svg"
   inkscape:version="1.1 (c68e22c387, 2021-05-23)"
   xmlns:inkscape="http://www.inkscape.org/namespaces/inkscape"
   xmlns:sodipodi="http://sodipodi.sourceforge.net/DTD/sodipodi-0.dtd"
   xmlns:xlink="http://www.w3.org/1999/xlink"
   xmlns="http://www.w3.org/2000/svg"
   xmlns:svg="http://www.w3.org/2000/svg"
   xmlns:rdf="http://www.w3.org/1999/02/22-rdf-syntax-ns#"
   xmlns:cc="http://creativecommons.org/ns#"
   xmlns:dc="http://purl.org/dc/elements/1.1/">
  <sodipodi:namedview
     id="namedview35"
     pagecolor="#ffffff"
     bordercolor="#666666"
     borderopacity="1.0"
     inkscape:pageshadow="2"
     inkscape:pageopacity="0.0"
     inkscape:pagecheckerboard="0"
     showgrid="false"
     inkscape:zoom="0.60490776"
     inkscape:cx="-16.531446"
     inkscape:cy="157.04874"
     inkscape:window-width="1366"
     inkscape:window-height="700"
     inkscape:window-x="0"
     inkscape:window-y="0"
     inkscape:window-maximized="1"
     inkscape:current-layer="svg2" />
  <metadata
     id="metadata59">
    <rdf:RDF>
      <cc:Work
         rdf:about="">
        <dc:format>image/svg+xml</dc:format>
        <dc:type
           rdf:resource="http://purl.org/dc/dcmitype/StillImage" />
      </cc:Work>
    </rdf:RDF>
  </metadata>
  <defs
     id="defs4">
    <filter
       color-interpolation-filters="sRGB"
       id="7"
       x="-0.018107638"
       y="-0.017892786"
       width="1.0362153"
       height="1.0357856">
      <feGaussianBlur
         id="feGaussianBlur7"
         stdDeviation="3.7725" />
    </filter>
    <linearGradient
       y1="19.563999"
       x2="0"
       y2="504.01999"
       id="8"
       gradientUnits="userSpaceOnUse">
      <stop
         id="stop10"
         style="stop-color:#f3f3f3;stop-opacity:1"
         offset="0" />
      <stop
         id="stop12"
         style="stop-color:#eeeeee;stop-opacity:1"
         offset="0.5" />
      <stop
         id="stop14"
         style="stop-color:#ebebeb;stop-opacity:1"
         offset="1" />
    </linearGradient>
    <linearGradient
       x1="257"
       x2="362"
       id="5"
       xlink:href="#0"
       gradientUnits="userSpaceOnUse"
       gradientTransform="matrix(1.02835,0,0,1.46193,-445.33968,-114.14954)" />
    <linearGradient
       x1="257"
       x2="362"
       id="6"
       xlink:href="#0"
       gradientUnits="userSpaceOnUse"
       gradientTransform="matrix(1.0381,0,0,1.46193,-532.68726,-118.25)" />
    <linearGradient
       x1="257"
       x2="362"
       id="4"
       xlink:href="#0"
       gradientUnits="userSpaceOnUse"
       gradientTransform="matrix(1.02835,0,0,1.46193,-488.99526,-118.25)" />
    <linearGradient
       x1="257"
       x2="362"
       id="3"
       xlink:href="#0"
       gradientUnits="userSpaceOnUse"
       gradientTransform="matrix(1.0381,0,0,1.46193,-532.68626,-106.22)" />
    <linearGradient
       id="0">
      <stop
         id="stop21"
         style="stop-color:#000000;stop-opacity:1"
         offset="0" />
      <stop
         id="stop23"
         style="stop-color:#ffffff;stop-opacity:1"
         offset="1" />
    </linearGradient>
    <linearGradient
       x1="257"
       x2="362"
       id="2"
       xlink:href="#0"
       gradientUnits="userSpaceOnUse"
       gradientTransform="matrix(1.0381,0,0,1.46193,-492.53126,-106.22)" />
    <linearGradient
       x1="257"
       x2="362"
       id="1"
       xlink:href="#0"
       gradientUnits="userSpaceOnUse"
       gradientTransform="matrix(1.0381,0,0,1.46193,-532.69126,-106.22)" />
    <linearGradient
       id="0-3"
       x1="197.89"
       y1="364.76001"
       x2="183.33"
       y2="12.946"
       gradientUnits="userSpaceOnUse">
      <stop
         stop-color="#197cf1"
         id="stop2" />
      <stop
         offset="1"
         stop-color="#20bcfa"
         id="stop4" />
    </linearGradient>
    <linearGradient
       id="1-6"
       gradientUnits="userSpaceOnUse"
       x1="197.89"
       y1="364.76001"
       x2="183.33"
       y2="12.946">
      <stop
         stop-color="#6c6d6e"
         id="stop7" />
      <stop
         offset="1"
         stop-color="#9b9c9e"
         id="stop9" />
    </linearGradient>
    <linearGradient
       inkscape:collect="always"
       xlink:href="#1-6"
       id="linearGradient882"
       x1="38.5"
       y1="256"
       x2="473.5"
       y2="256"
       gradientUnits="userSpaceOnUse"
       gradientTransform="matrix(1.0023954,0,0,0.98700693,-513.38323,4.0422336)" />
  </defs>
  <rect
     width="436.04199"
     height="429.34799"
     rx="63.351383"
     x="-474.79099"
     y="42.042"
     id="rect33"
     style="fill:url(#linearGradient882);fill-opacity:1;stroke-width:0.994672"
     transform="rotate(-90)" />
  <g
     transform="matrix(0.98700694,0,0,1.0023953,554.97964,6.3124994)"
     id="g39"
     style="color:#000000;fill:#ffffff;fill-rule:evenodd">
    <path
       d="m -311.67975,89.85987 a 2.183455,2.183455 0 0 0 -2.11501,2.183237 V 219.45311 l -70.955,-53.08 a 2.183455,2.183455 0 0 0 -2.83138,0.20468 l -20.707,20.604 a 2.183455,2.183455 0 0 0 0.20468,3.27485 l 86.1,66.93 -82.55,66.11 a 2.183455,2.183455 0 0 0 -0.20468,3.24075 l 22.31,22.788 a 2.183455,2.183455 0 0 0 2.93373,0.17057 l 65.7,-53.15 v 126.12 a 2.183455,2.183455 0 0 0 3.51365,1.73977 l 128.95,-96.23 a 2.183455,2.183455 0 0 0 0.0682,-3.44542 l -83.34,-66.28 80.61,-65.36 a 2.183455,2.183455 0 0 0 -0.0341,-3.41131 L -310.25,90.34 a 2.183455,2.183455 0 0 0 -1.43275,-0.477583 m 34.25,66.320003 43.29,36.3 -43.29,32.783 v -69.08 m 0,136.86 44.654,32.31 -44.688,29.2 c 0,-22.14 0.034,-39.799 0.034,-61.51"
       inkscape:connector-curvature="0"
       id="path41"
       style="opacity:0.2;fill:#ffffff" />
    <path
       d="m -326.67975,74.859866 a 2.183455,2.183455 0 0 0 -2.11501,2.183237 V 204.4531 l -70.955,-53.08 a 2.183455,2.183455 0 0 0 -2.83138,0.20468 l -20.707,20.604 a 2.183455,2.183455 0 0 0 0.20468,3.27485 l 86.1,66.93 -82.55,66.11 a 2.183455,2.183455 0 0 0 -0.20468,3.24075 l 22.31,22.788 a 2.183455,2.183455 0 0 0 2.93373,0.17057 l 65.7,-53.15 v 126.12 a 2.183455,2.183455 0 0 0 3.51365,1.73977 l 128.95,-96.23 a 2.183455,2.183455 0 0 0 0.0682,-3.44542 l -83.34,-66.28 80.61,-65.36 a 2.183455,2.183455 0 0 0 -0.0341,-3.41131 L -325.25,75.34 a 2.183455,2.183455 0 0 0 -1.43275,-0.477583 m 34.25,66.320003 43.29,36.3 -43.29,32.783 v -69.08 m 0,136.86 44.654,32.31 -44.688,29.2 c 0,-22.14 0.034,-39.799 0.034,-61.51"
       inkscape:connector-curvature="0"
       id="path43"
       style="opacity:0.9;fill:#ffffff" />
  </g>
</svg>
