<?xml version="1.0" encoding="UTF-8" standalone="no"?>
<!-- Created with Inkscape (http://www.inkscape.org/) -->

<svg
   version="1.1"
   width="100%"
   height="100%"
   viewBox="0 0 512 512"
   id="svg2"
   sodipodi:docname="clementine.svg"
   inkscape:version="1.1 (c68e22c387, 2021-05-23)"
   xmlns:inkscape="http://www.inkscape.org/namespaces/inkscape"
   xmlns:sodipodi="http://sodipodi.sourceforge.net/DTD/sodipodi-0.dtd"
   xmlns:xlink="http://www.w3.org/1999/xlink"
   xmlns="http://www.w3.org/2000/svg"
   xmlns:svg="http://www.w3.org/2000/svg"
   xmlns:rdf="http://www.w3.org/1999/02/22-rdf-syntax-ns#"
   xmlns:cc="http://creativecommons.org/ns#"
   xmlns:dc="http://purl.org/dc/elements/1.1/">
  <sodipodi:namedview
     id="namedview66"
     pagecolor="#ffffff"
     bordercolor="#666666"
     borderopacity="1.0"
     inkscape:pageshadow="2"
     inkscape:pageopacity="0.0"
     inkscape:pagecheckerboard="0"
     showgrid="false"
     inkscape:zoom="0.42773438"
     inkscape:cx="-58.447488"
     inkscape:cy="236.12785"
     inkscape:window-width="1366"
     inkscape:window-height="700"
     inkscape:window-x="0"
     inkscape:window-y="0"
     inkscape:window-maximized="1"
     inkscape:current-layer="svg2" />
  <metadata
     id="metadata90">
    <rdf:RDF>
      <cc:Work
         rdf:about="">
        <dc:format>image/svg+xml</dc:format>
        <dc:type
           rdf:resource="http://purl.org/dc/dcmitype/StillImage" />
      </cc:Work>
    </rdf:RDF>
  </metadata>
  <defs
     id="defs88">
    <linearGradient
       x1="257"
       y1="256"
       x2="362"
       y2="256"
       id="linearGradient3153"
       xlink:href="#linearGradient4996-7"
       gradientUnits="userSpaceOnUse"
       gradientTransform="matrix(1.0380952,0,0,1.4619252,-337.28943,-118.25286)" />
    <linearGradient
       x1="257"
       y1="256"
       x2="362"
       y2="256"
       id="linearGradient3149"
       xlink:href="#linearGradient4996-7"
       gradientUnits="userSpaceOnUse"
       gradientTransform="matrix(1.0283468,0,0,1.4619252,209.19233,-118.25286)" />
    <linearGradient
       x1="257"
       y1="256"
       x2="362"
       y2="256"
       id="linearGradient3145"
       xlink:href="#linearGradient4996-7"
       gradientUnits="userSpaceOnUse"
       gradientTransform="matrix(1.0283468,0,0,1.4619252,101.21591,-118.25286)" />
    <linearGradient
       x1="257"
       y1="256"
       x2="362"
       y2="256"
       id="linearGradient3141"
       xlink:href="#linearGradient4996-7"
       gradientUnits="userSpaceOnUse"
       gradientTransform="matrix(1.0380952,0,0,1.4619252,-10.28943,-118.25286)" />
    <linearGradient
       x1="257"
       y1="256"
       x2="362"
       y2="256"
       id="linearGradient3137"
       xlink:href="#linearGradient4996-7"
       gradientUnits="userSpaceOnUse"
       gradientTransform="matrix(1.0380952,0,0,1.4619252,-119.28943,-118.25286)" />
    <linearGradient
       x1="257"
       y1="256"
       x2="362"
       y2="256"
       id="linearGradient3108"
       xlink:href="#linearGradient4996-7"
       gradientUnits="userSpaceOnUse"
       gradientTransform="matrix(1.0380952,0,0,1.4619252,-228.28943,-118.25286)" />
    <linearGradient
       id="linearGradient4996-7">
      <stop
         id="stop4998-9"
         style="stop-color:#000000;stop-opacity:1"
         offset="0" />
      <stop
         id="stop5000-05"
         style="stop-color:#ffffff;stop-opacity:1"
         offset="1" />
    </linearGradient>
    <linearGradient
       id="linearGradient862"
       x1="7.9373002"
       x2="7.9373002"
       y1="15.081"
       y2="1.852"
       gradientTransform="matrix(3.7796,0,0,3.7796,656.51042,211.17195)"
       gradientUnits="userSpaceOnUse">
      <stop
         stop-color="#ff670a"
         offset="0"
         id="stop15" />
      <stop
         stop-color="#ffc53f"
         offset="1"
         id="stop17" />
    </linearGradient>
    <linearGradient
       inkscape:collect="always"
       xlink:href="#linearGradient862"
       id="linearGradient1496"
       x1="38.500011"
       y1="253"
       x2="473.49997"
       y2="253"
       gradientUnits="userSpaceOnUse"
       gradientTransform="matrix(0.98700689,0,0,1.0023954,4.0422001,3.1639487)" />
    <linearGradient
       id="e"
       x2="0"
       y1="505.79999"
       y2="541.79999"
       gradientTransform="matrix(1.3333,0,0,1.3333,165.87463,-372.07972)"
       gradientUnits="userSpaceOnUse">
      <stop
         stop-color="#fffcde"
         offset="0"
         id="stop2" />
      <stop
         stop-color="#fafac5"
         offset="1"
         id="stop4" />
    </linearGradient>
    <linearGradient
       inkscape:collect="always"
       xlink:href="#e"
       id="linearGradient1686"
       x1="88.500015"
       y1="263.5"
       x2="438.49997"
       y2="263.5"
       gradientUnits="userSpaceOnUse" />
    <linearGradient
       inkscape:collect="always"
       xlink:href="#e"
       id="linearGradient884"
       gradientUnits="userSpaceOnUse"
       x1="88.500015"
       y1="263.5"
       x2="438.49997"
       y2="263.5" />
    <linearGradient
       inkscape:collect="always"
       xlink:href="#e"
       id="linearGradient886"
       gradientUnits="userSpaceOnUse"
       x1="88.500015"
       y1="263.5"
       x2="438.49997"
       y2="263.5" />
  </defs>
  <g
     transform="matrix(0.98700692,0,0,1.0023955,-602.93742,22.965279)"
     id="g8"
     style="font-size:208.33px;line-height:125%;font-family:'Gentium Book Basic';letter-spacing:0;word-spacing:0">
    <text
       x="432.23001"
       y="79.279999"
       id="text10"><tspan
         x="432.23001"
         y="79.279999"
         id="tspan12" /></text>
    <text
       x="-1926.6"
       y="357.39999"
       id="text14"><tspan
         x="-1926.6"
         y="357.39999"
         id="tspan16" /></text>
    <text
       x="-1638.38"
       y="130.11"
       id="text18"><tspan
         x="-1638.38"
         y="130.11"
         id="tspan20" /></text>
    <text
       x="2556.22"
       y="-126.79"
       id="text22"><tspan
         x="2556.22"
         y="-126.79"
         id="tspan24" /></text>
    <text
       x="428.29001"
       y="18.247"
       id="text26"><tspan
         x="428.29001"
         y="18.247"
         id="tspan28" /></text>
    <text
       x="-1930.54"
       y="296.35999"
       id="text30"><tspan
         x="-1930.54"
         y="296.35999"
         id="tspan32" /></text>
    <text
       x="-1642.33"
       y="69.080002"
       id="text34"><tspan
         x="-1642.33"
         y="69.080002"
         id="tspan36" /></text>
  </g>
  <text
     x="118.13258"
     y="252.91158"
     id="text38"
     style="font-size:128.54px;line-height:125%;font-family:'Gentium Book Basic';letter-spacing:0;word-spacing:0;stroke-width:0.994672"
     transform="scale(0.99229443,1.0077654)"><tspan
       x="118.13258"
       y="252.91158"
       id="tspan40"
       style="stroke-width:0.994672" /></text>
  <text
     x="225.47156"
     y="667.60632"
     transform="scale(3.9818994,0.25113643)"
     id="text42"
     style="font-size:46.7036px;font-family:Arial;text-anchor:middle;stroke-width:0.994667" />
  <text
     x="696.3053"
     y="173.33781"
     id="text44"
     style="font-size:128.54px;line-height:125%;font-family:'Gentium Book Basic';letter-spacing:0;word-spacing:0;stroke-width:0.994672"
     transform="scale(0.99229443,1.0077654)"><tspan
       x="696.3053"
       y="173.33781"
       id="tspan46"
       style="stroke-width:0.994672" /></text>
  <text
     x="369.54898"
     y="348.28848"
     transform="scale(3.9818994,0.25113643)"
     id="text48"
     style="font-size:46.7036px;font-family:Arial;text-anchor:middle;stroke-width:0.994667" />
  <text
     x="-369.56479"
     y="-6.9533525"
     id="text50"
     style="font-size:128.54px;line-height:125%;font-family:'Gentium Book Basic';letter-spacing:0;word-spacing:0;stroke-width:0.994672"
     transform="scale(0.99229443,1.0077654)"><tspan
       x="-369.56479"
       y="-6.9533525"
       id="tspan52"
       style="stroke-width:0.994672" /></text>
  <text
     x="103.93329"
     y="-375.19202"
     transform="scale(3.9818994,0.25113643)"
     id="text54"
     style="font-size:46.7036px;font-family:Arial;text-anchor:middle;stroke-width:0.994667" />
  <text
     x="722.63428"
     y="-222.27286"
     id="text56"
     style="font-size:128.54px;line-height:125%;font-family:'Gentium Book Basic';letter-spacing:0;word-spacing:0;stroke-width:0.994672"
     transform="scale(0.99229443,1.0077654)"><tspan
       x="722.63428"
       y="-222.27286"
       id="tspan58"
       style="stroke-width:0.994672" /></text>
  <text
     x="376.11377"
     y="-1239.2189"
     transform="scale(3.9818994,0.25113643)"
     id="text60"
     style="font-size:46.7036px;font-family:Arial;text-anchor:middle;stroke-width:0.994667" />
  <text
     x="1300.8071"
     y="-301.85657"
     id="text62"
     style="font-size:128.54px;line-height:125%;font-family:'Gentium Book Basic';letter-spacing:0;word-spacing:0;stroke-width:0.994672"
     transform="scale(0.99229443,1.0077654)"><tspan
       x="1300.8071"
       y="-301.85657"
       id="tspan64"
       style="stroke-width:0.994672" /></text>
  <text
     x="520.19122"
     y="-1558.5465"
     transform="scale(3.9818994,0.25113643)"
     id="text66"
     style="font-size:46.7036px;font-family:Arial;text-anchor:middle;stroke-width:0.994667" />
  <text
     x="913.76038"
     y="-771.7395"
     id="text68"
     style="font-size:128.54px;line-height:125%;font-family:'Gentium Book Basic';letter-spacing:0;word-spacing:0;stroke-width:0.994672"
     transform="scale(0.99229443,1.0077654)"><tspan
       x="913.76038"
       y="-771.7395"
       id="tspan70"
       style="stroke-width:0.994672" /></text>
  <text
     x="423.73837"
     y="-3444.0862"
     transform="scale(3.9818994,0.25113643)"
     id="text72"
     style="font-size:46.7036px;font-family:Arial;text-anchor:middle;stroke-width:0.994667" />
  <text
     x="1491.9231"
     y="-851.31317"
     id="text74"
     style="font-size:128.54px;line-height:125%;font-family:'Gentium Book Basic';letter-spacing:0;word-spacing:0;stroke-width:0.994672"
     transform="scale(0.99229443,1.0077654)"><tspan
       x="1491.9231"
       y="-851.31317"
       id="tspan76"
       style="stroke-width:0.994672" /></text>
  <text
     x="567.80597"
     y="-3763.4033"
     transform="scale(3.9818994,0.25113643)"
     id="text78"
     style="font-size:46.7036px;font-family:Arial;text-anchor:middle;stroke-width:0.994667" />
  <text
     x="-331.11081"
     y="555.86859"
     id="text80"
     style="font-size:207.22px;line-height:125%;font-family:'Gentium Book Basic';letter-spacing:0;word-spacing:0;stroke-width:0.994672"
     transform="scale(0.99229443,1.0077654)"><tspan
       x="-331.11081"
       y="555.86859"
       id="tspan82"
       style="stroke-width:0.994672" /></text>
  <rect
     width="429.34799"
     height="436.04199"
     rx="62.379162"
     ry="63.351723"
     x="42.042"
     y="38.749001"
     id="rect4981-0"
     style="fill:url(#linearGradient1496);fill-opacity:1;stroke:none;stroke-width:0.994672" />
  <g
     transform="matrix(0.98700692,0,0,1.0023955,-3.3603212,-4.354006)"
     id="g3257"
     style="fill:url(#linearGradient1686);fill-opacity:1">
    <path
       d="m 249.878,103.50563 c -1.9484,0.0368 -3.8096,0.18126 -5.6131,0.41331 -14.3098,1.84544 -17.1394,1.77747 -30.8587,9.66947 -6.4374,3.70261 -9.2764,9.18038 -8.1499,16.54029 44.0562,95.44464 -0.076,-0.0368 44.0562,95.58527 1.3579,1.597 2.2452,3.49948 4.3136,3.1807 l 14.9698,-2.32126 c 2.0684,-0.31876 2.3605,-2.39081 3.1716,-4.3261 12.821,-104.82815 0.091,-0.38284 13.2238,-104.35936 -1.1258,-7.35679 -7.5975,-10.68908 -14.8724,-12.1509 -7.8062,-1.56263 -14.3901,-2.3369 -20.2354,-2.22673 m 85.8918,14.53545 c -4.8777,-0.0109 -9.0122,2.17908 -12.3006,6.68019 -36.1408,98.72612 -0.01,-0.11172 -36.2187,98.78863 -0.1652,2.09235 -0.8943,4.06905 0.7923,5.31211 l 12.2095,8.97021 c 1.6875,1.24149 3.3586,-0.002 5.2969,-0.7946 82.9781,-65.02829 0.3381,-0.20079 82.9391,-64.41105 4.3917,-6.00045 2.1814,-12.95409 -1.9343,-19.14832 -5.8843,-8.85535 -11.2451,-15.16754 -16.9993,-19.62645 -11.4179,-8.8405 -13.4061,-10.89613 -28.6711,-15.04409 -1.7911,-0.48677 -3.4801,-0.72741 -5.1052,-0.73209 m -169.836,31.868 c -4.0333,-0.0595 -8.1903,1.77826 -12.0522,4.35736 -8.8298,5.90123 -15.0912,11.2774 -19.5388,17.04814 -8.8152,11.45086 -10.8649,13.41507 -15.0009,28.72324 -1.9415,7.18569 -0.084,13.05801 5.8998,17.46615 98.4426,36.24489 -0.081,0.0375 98.5361,36.35585 2.0863,0.16562 4.0262,0.8649 5.2649,-0.82741 l 8.9755,-12.24467 c 1.238,-1.69231 -0.035,-3.33619 -0.8249,-5.28008 -64.8416,-83.21715 -0.2003,-0.37113 -64.2262,-83.20933 -2.2436,-1.6517 -4.6205,-2.35175 -7.0427,-2.38613 m 248.6774,55.85574 c -0.8586,0.018 -1.7467,0.11329 -2.6645,0.25471 -95.1704,44.18298 0.037,-0.0766 -95.3106,44.18298 -1.5925,1.36182 -3.4567,2.25173 -3.1397,4.32611 l 2.2834,15.01284 c 0.3179,2.07437 2.384,2.33454 4.3137,3.14867 104.527,12.858 0.3817,0.12423 104.0597,13.29005 7.3356,-1.12898 10.6895,-7.61931 12.1471,-14.91517 2.0824,-10.43438 2.7033,-18.68811 1.7762,-25.92381 -1.8401,-14.35107 -1.7723,-17.22004 -9.6417,-30.98044 -3.2315,-5.64886 -7.8139,-8.5233 -13.8283,-8.39673 m -143.2621,37.9169 c -14.7119,0 -26.644,11.96339 -26.644,26.72075 0,14.75422 11.929,26.72074 26.644,26.72074 14.7118,0 26.644,-11.96339 26.644,-26.72074 0,-14.75423 -11.9291,-26.72075 -26.644,-26.72075 M 117.8422,254.5294 c -7.3356,1.129 -10.6895,7.61932 -12.1472,14.91518 -2.0824,10.43438 -2.7033,18.68811 -1.7762,25.92382 1.8402,14.35106 1.7723,17.18877 9.6417,30.94761 3.692,6.45595 9.154,9.30305 16.4928,8.17327 95.1704,-44.18298 -0.037,0.0766 95.3108,-44.18298 1.5923,-1.36182 3.4574,-2.25173 3.1396,-4.32611 l -2.2835,-15.01284 c -0.3178,-2.07437 -2.3839,-2.36736 -4.3137,-3.18071 -104.527,-12.85799 -0.3817,-0.0914 -104.0596,-13.26193 m 198.1316,31.10779 c -0.9075,0.0132 -1.696,0.26644 -2.3145,1.11338 l -8.9756,12.24465 c -1.238,1.69232 0.035,3.36823 0.825,5.31212 64.8415,83.21715 0.2002,0.33909 64.226,83.17809 5.9833,4.40424 12.9169,2.18766 19.0933,-1.93999 8.8299,-5.90123 15.0913,-11.2774 19.5389,-17.04815 8.8152,-11.45085 10.8656,-13.44475 15.0009,-28.75371 1.9415,-7.1857 0.084,-13.058 -5.8998,-17.46615 -98.4425,-36.24489 0.081,-0.006 -98.5361,-36.32302 -1.0431,-0.0836 -2.0395,-0.33049 -2.9494,-0.31878 m -75.359,18.09511 c -1.0696,0.13672 -2.1821,0.80787 -3.3935,1.30399 -82.9782,65.0283 -0.3702,0.2008 -82.9705,64.41107 -4.3915,6.00044 -2.1494,12.95409 1.9672,19.1483 5.8842,8.85536 11.2451,15.16755 16.9992,19.62646 11.4179,8.84051 13.3765,10.89614 28.6407,15.04411 7.1651,1.94701 13.0525,0.0516 17.444,-5.9481 36.1408,-98.72613 0.01,0.11172 36.2187,-98.78863 0.1652,-2.09235 0.8625,-4.06906 -0.825,-5.31212 l -12.1791,-8.9702 c -0.6326,-0.46644 -1.2605,-0.59068 -1.9033,-0.50863 m 47.3508,9.38351 -14.9347,2.32127 c -2.0683,0.31877 -2.3605,2.3908 -3.1715,4.32611 -12.821,104.82812 -0.092,0.38283 -13.2238,104.35935 1.1257,7.3568 7.5662,10.68908 14.8412,12.15091 10.4043,2.08842 18.6343,2.74395 25.8492,1.81263 14.3099,-1.84545 17.1707,-1.77748 30.8915,-9.66947 6.4374,-3.70262 9.2444,-9.18038 8.1195,-16.54031 -44.0561,-95.44462 0.1075,0.0368 -44.0172,-95.58525 -1.3579,-1.59699 -2.2764,-3.49948 -4.3448,-3.18071"
       inkscape:connector-curvature="0"
       id="path3255"
       style="opacity:0.2;fill:url(#linearGradient884);fill-opacity:1;fill-rule:evenodd" />
    <path
       d="m 234.878,88.505627 c -1.9484,0.03677 -3.8096,0.181258 -5.6131,0.413308 -14.3098,1.845449 -17.1394,1.777479 -30.8587,9.66947 -6.4374,3.702615 -9.2764,9.180385 -8.1499,16.540295 44.0562,95.44464 -0.076,-0.0368 44.0562,95.58527 1.3579,1.597 2.2452,3.49948 4.3136,3.1807 l 14.9698,-2.32126 c 2.0684,-0.31876 2.3605,-2.39081 3.1716,-4.3261 12.821,-104.82815 0.091,-0.38284 13.2238,-104.35936 -1.1258,-7.356795 -7.5975,-10.689077 -14.8724,-12.150903 -7.8062,-1.562625 -14.3901,-2.336897 -20.2354,-2.226732 m 85.8918,14.535455 c -4.8777,-0.0109 -9.0122,2.17908 -12.3006,6.68019 -36.1408,98.72612 -0.01,-0.11172 -36.2187,98.78863 -0.1652,2.09235 -0.8943,4.06905 0.7923,5.31211 l 12.2095,8.97021 c 1.6875,1.24149 3.3586,-0.002 5.2969,-0.7946 82.9781,-65.02829 0.3381,-0.20079 82.9391,-64.41105 4.3917,-6.00045 2.1814,-12.95409 -1.9343,-19.14832 -5.8843,-8.85535 -11.2451,-15.16754 -16.9993,-19.62645 -11.4179,-8.8405 -13.4061,-10.89613 -28.6711,-15.04409 -1.7911,-0.48677 -3.4801,-0.72741 -5.1052,-0.73209 m -169.836,31.868 c -4.0333,-0.0595 -8.1903,1.77826 -12.0522,4.35736 -8.8298,5.90123 -15.0912,11.2774 -19.5388,17.04814 -8.8152,11.45086 -10.8649,13.41507 -15.0009,28.72324 -1.9415,7.18569 -0.084,13.05801 5.8998,17.46615 98.4426,36.24489 -0.081,0.0375 98.5361,36.35585 2.0863,0.16562 4.0262,0.8649 5.2649,-0.82741 l 8.9755,-12.24467 c 1.238,-1.69231 -0.035,-3.33619 -0.8249,-5.28008 -64.8416,-83.21715 -0.2003,-0.37113 -64.2262,-83.20933 -2.2436,-1.6517 -4.6205,-2.35175 -7.0427,-2.38613 m 248.6774,55.85574 c -0.8586,0.018 -1.7467,0.11329 -2.6645,0.25471 -95.1704,44.18298 0.037,-0.0766 -95.3106,44.18298 -1.5925,1.36182 -3.4567,2.25173 -3.1397,4.32611 l 2.2834,15.01284 c 0.3179,2.07437 2.384,2.33454 4.3137,3.14867 104.527,12.858 0.3817,0.12423 104.0597,13.29005 7.3356,-1.12898 10.6895,-7.61931 12.1471,-14.91517 2.0824,-10.43438 2.7033,-18.68811 1.7762,-25.92381 -1.8401,-14.35107 -1.7723,-17.22004 -9.6417,-30.98044 -3.2315,-5.64886 -7.8139,-8.5233 -13.8283,-8.39673 m -143.2621,37.9169 c -14.7119,0 -26.644,11.96339 -26.644,26.72075 0,14.75422 11.929,26.72074 26.644,26.72074 14.7118,0 26.644,-11.96339 26.644,-26.72074 0,-14.75423 -11.9291,-26.72075 -26.644,-26.72075 M 102.8422,239.5294 c -7.3356,1.129 -10.6895,7.61932 -12.1472,14.91518 -2.0824,10.43438 -2.7033,18.68811 -1.7762,25.92382 1.8402,14.35106 1.7723,17.18877 9.6417,30.94761 3.692,6.45595 9.154,9.30305 16.4928,8.17327 95.1704,-44.18298 -0.037,0.0766 95.3108,-44.18298 1.5923,-1.36182 3.4574,-2.25173 3.1396,-4.32611 l -2.2835,-15.01284 c -0.3178,-2.07437 -2.3839,-2.36736 -4.3137,-3.18071 -104.527,-12.85799 -0.3817,-0.0914 -104.0596,-13.26193 m 198.1316,31.10779 c -0.9075,0.0132 -1.696,0.26644 -2.3145,1.11338 l -8.9756,12.24465 c -1.238,1.69232 0.035,3.36823 0.825,5.31212 64.8415,83.21715 0.2002,0.33909 64.226,83.17809 5.9833,4.40424 12.9169,2.18766 19.0933,-1.93999 8.8299,-5.90123 15.0913,-11.2774 19.5389,-17.04815 8.8152,-11.45085 10.8656,-13.44475 15.0009,-28.75371 1.9415,-7.1857 0.084,-13.058 -5.8998,-17.46615 -98.4425,-36.24489 0.081,-0.006 -98.5361,-36.32302 -1.0431,-0.0836 -2.0395,-0.33049 -2.9494,-0.31878 m -75.359,18.09511 c -1.0696,0.13672 -2.1821,0.80787 -3.3935,1.30399 -82.9782,65.0283 -0.3702,0.2008 -82.9705,64.41107 -4.3915,6.00044 -2.1494,12.95409 1.9672,19.1483 5.8842,8.85536 11.2451,15.16755 16.9992,19.62646 11.4179,8.84051 13.3765,10.89614 28.6407,15.04411 7.1651,1.94701 13.0525,0.0516 17.444,-5.9481 36.1408,-98.72613 0.01,0.11172 36.2187,-98.78863 0.1652,-2.09235 0.8625,-4.06906 -0.825,-5.31212 l -12.1791,-8.9702 c -0.6326,-0.46644 -1.2605,-0.59068 -1.9033,-0.50863 m 47.3508,9.38351 -14.9347,2.32127 c -2.0683,0.31877 -2.3605,2.3908 -3.1715,4.32611 -12.821,104.82812 -0.092,0.38283 -13.2238,104.35935 1.1257,7.3568 7.5662,10.68908 14.8412,12.15091 10.4043,2.08842 18.6343,2.74395 25.8492,1.81263 14.3099,-1.84545 17.1707,-1.77748 30.8915,-9.66947 6.4374,-3.70262 9.2444,-9.18038 8.1195,-16.54031 -44.0561,-95.44462 0.1075,0.0368 -44.0172,-95.58525 -1.3579,-1.59699 -2.2764,-3.49948 -4.3448,-3.18071"
       inkscape:connector-curvature="0"
       id="path84"
       style="fill:url(#linearGradient886);fill-opacity:1;fill-rule:evenodd" />
  </g>
</svg>
