<?xml version="1.0" encoding="UTF-8" standalone="no"?>
<!-- Created with Inkscape (http://www.inkscape.org/) -->

<svg
   version="1.1"
   width="100%"
   height="100%"
   viewBox="0 0 512 512"
   id="svg2"
   sodipodi:docname="desktop-environment-xfce.svg"
   inkscape:version="1.1 (c68e22c387, 2021-05-23)"
   xmlns:inkscape="http://www.inkscape.org/namespaces/inkscape"
   xmlns:sodipodi="http://sodipodi.sourceforge.net/DTD/sodipodi-0.dtd"
   xmlns:xlink="http://www.w3.org/1999/xlink"
   xmlns="http://www.w3.org/2000/svg"
   xmlns:svg="http://www.w3.org/2000/svg"
   xmlns:rdf="http://www.w3.org/1999/02/22-rdf-syntax-ns#"
   xmlns:cc="http://creativecommons.org/ns#"
   xmlns:dc="http://purl.org/dc/elements/1.1/">
  <sodipodi:namedview
     id="namedview51"
     pagecolor="#ffffff"
     bordercolor="#666666"
     borderopacity="1.0"
     inkscape:pageshadow="2"
     inkscape:pageopacity="0.0"
     inkscape:pagecheckerboard="0"
     showgrid="false"
     inkscape:zoom="0.85546875"
     inkscape:cx="256"
     inkscape:cy="256"
     inkscape:window-width="1366"
     inkscape:window-height="700"
     inkscape:window-x="0"
     inkscape:window-y="0"
     inkscape:window-maximized="1"
     inkscape:current-layer="svg2" />
  <metadata
     id="metadata72">
    <rdf:RDF>
      <cc:Work
         rdf:about="">
        <dc:format>image/svg+xml</dc:format>
        <dc:type
           rdf:resource="http://purl.org/dc/dcmitype/StillImage" />
      </cc:Work>
    </rdf:RDF>
  </metadata>
  <defs
     id="defs70">
    <linearGradient
       x1="257"
       y1="256"
       x2="362"
       y2="256"
       id="linearGradient3153"
       xlink:href="#linearGradient4996-0"
       gradientUnits="userSpaceOnUse"
       gradientTransform="matrix(1.0380952,0,0,1.4619252,-337.28943,-118.25286)" />
    <linearGradient
       x1="257"
       y1="256"
       x2="362"
       y2="256"
       id="linearGradient3149"
       xlink:href="#linearGradient4996-0"
       gradientUnits="userSpaceOnUse"
       gradientTransform="matrix(1.0283468,0,0,1.4619252,209.19233,-118.25286)" />
    <linearGradient
       x1="257"
       y1="256"
       x2="362"
       y2="256"
       id="linearGradient3145"
       xlink:href="#linearGradient4996-0"
       gradientUnits="userSpaceOnUse"
       gradientTransform="matrix(1.0283468,0,0,1.4619252,101.21591,-118.25286)" />
    <linearGradient
       x1="257"
       y1="256"
       x2="362"
       y2="256"
       id="linearGradient3141"
       xlink:href="#linearGradient4996-0"
       gradientUnits="userSpaceOnUse"
       gradientTransform="matrix(1.0380952,0,0,1.4619252,-10.28943,-118.25286)" />
    <linearGradient
       x1="257"
       y1="256"
       x2="362"
       y2="256"
       id="linearGradient3137"
       xlink:href="#linearGradient4996-0"
       gradientUnits="userSpaceOnUse"
       gradientTransform="matrix(1.0380952,0,0,1.4619252,-119.28943,-118.25286)" />
    <linearGradient
       x1="257"
       y1="256"
       x2="362"
       y2="256"
       id="linearGradient3108"
       xlink:href="#linearGradient4996-0"
       gradientUnits="userSpaceOnUse"
       gradientTransform="matrix(1.0380952,0,0,1.4619252,-228.28943,-118.25286)" />
    <linearGradient
       id="linearGradient4996-0">
      <stop
         id="stop4998-8"
         style="stop-color:#000000;stop-opacity:1"
         offset="0" />
      <stop
         id="stop5000-8"
         style="stop-color:#ffffff;stop-opacity:1"
         offset="1" />
    </linearGradient>
    <linearGradient
       id="linearGradient874"
       x1="357.79999"
       x2="357.79999"
       y1="546.72998"
       y2="523.47998"
       gradientTransform="matrix(2.1429,0,0,2.1429,-141.77392,-893.47645)"
       gradientUnits="userSpaceOnUse">
      <stop
         stop-color="#197ff1"
         offset="0"
         id="stop5" />
      <stop
         stop-color="#21c6fb"
         offset="1"
         id="stop7" />
    </linearGradient>
    <linearGradient
       inkscape:collect="always"
       xlink:href="#linearGradient874"
       id="linearGradient968"
       x1="38.500011"
       y1="253"
       x2="473.49997"
       y2="253"
       gradientUnits="userSpaceOnUse"
       gradientTransform="matrix(1.0023954,0,0,0.98700687,-513.38323,7.0032389)" />
  </defs>
  <text
     x="729.82581"
     y="233.26678"
     id="text22"
     style="font-size:128.541px;line-height:125%;font-family:'Gentium Book Basic';letter-spacing:0;word-spacing:0;stroke-width:0.994672"
     transform="scale(0.99229441,1.0077654)"><tspan
       x="729.82581"
       y="233.26678"
       id="tspan24"
       style="stroke-width:0.994672" /></text>
  <text
     x="377.90424"
     y="588.75909"
     transform="scale(3.9818995,0.25113643)"
     id="text26"
     style="font-size:46.7035px;font-family:Arial;text-anchor:middle;stroke-width:0.994666" />
  <text
     x="1307.9984"
     y="153.69307"
     id="text28"
     style="font-size:128.541px;line-height:125%;font-family:'Gentium Book Basic';letter-spacing:0;word-spacing:0;stroke-width:0.994672"
     transform="scale(0.99229441,1.0077654)"><tspan
       x="1307.9984"
       y="153.69307"
       id="tspan30"
       style="stroke-width:0.994672" /></text>
  <text
     x="521.98163"
     y="269.44128"
     transform="scale(3.9818995,0.25113643)"
     id="text32"
     style="font-size:46.7035px;font-family:Arial;text-anchor:middle;stroke-width:0.994666" />
  <text
     x="242.12836"
     y="-26.602097"
     id="text34"
     style="font-size:128.541px;line-height:125%;font-family:'Gentium Book Basic';letter-spacing:0;word-spacing:0;stroke-width:0.994672"
     transform="scale(0.99229441,1.0077654)"><tspan
       x="242.12836"
       y="-26.602097"
       id="tspan36"
       style="stroke-width:0.994672" /></text>
  <text
     x="256.36588"
     y="-454.03918"
     transform="scale(3.9818995,0.25113643)"
     id="text38"
     style="font-size:46.7035px;font-family:Arial;text-anchor:middle;stroke-width:0.994666" />
  <text
     x="1334.3274"
     y="-241.91763"
     id="text40"
     style="font-size:128.541px;line-height:125%;font-family:'Gentium Book Basic';letter-spacing:0;word-spacing:0;stroke-width:0.994672"
     transform="scale(0.99229441,1.0077654)"><tspan
       x="1334.3274"
       y="-241.91763"
       id="tspan42"
       style="stroke-width:0.994672" /></text>
  <text
     x="528.54639"
     y="-1318.0758"
     transform="scale(3.9818995,0.25113643)"
     id="text44"
     style="font-size:46.7035px;font-family:Arial;text-anchor:middle;stroke-width:0.994666" />
  <text
     x="1912.5001"
     y="-321.50137"
     id="text46"
     style="font-size:128.541px;line-height:125%;font-family:'Gentium Book Basic';letter-spacing:0;word-spacing:0;stroke-width:0.994672"
     transform="scale(0.99229441,1.0077654)"><tspan
       x="1912.5001"
       y="-321.50137"
       id="tspan48"
       style="stroke-width:0.994672" /></text>
  <text
     x="672.62402"
     y="-1637.4037"
     transform="scale(3.9818995,0.25113643)"
     id="text50"
     style="font-size:46.7035px;font-family:Arial;text-anchor:middle;stroke-width:0.994666" />
  <text
     x="1525.4536"
     y="-791.38416"
     id="text52"
     style="font-size:128.541px;line-height:125%;font-family:'Gentium Book Basic';letter-spacing:0;word-spacing:0;stroke-width:0.994672"
     transform="scale(0.99229441,1.0077654)"><tspan
       x="1525.4536"
       y="-791.38416"
       id="tspan54"
       style="stroke-width:0.994672" /></text>
  <text
     x="576.17102"
     y="-3522.9531"
     transform="scale(3.9818995,0.25113643)"
     id="text56"
     style="font-size:46.7035px;font-family:Arial;text-anchor:middle;stroke-width:0.994666" />
  <text
     x="2103.6162"
     y="-870.95795"
     id="text58"
     style="font-size:128.541px;line-height:125%;font-family:'Gentium Book Basic';letter-spacing:0;word-spacing:0;stroke-width:0.994672"
     transform="scale(0.99229441,1.0077654)"><tspan
       x="2103.6162"
       y="-870.95795"
       id="tspan60"
       style="stroke-width:0.994672" /></text>
  <text
     x="720.24847"
     y="-3842.271"
     transform="scale(3.9818995,0.25113643)"
     id="text62"
     style="font-size:46.7035px;font-family:Arial;text-anchor:middle;stroke-width:0.994666" />
  <text
     x="280.58234"
     y="536.22388"
     id="text64"
     style="font-size:207.221px;line-height:125%;font-family:'Gentium Book Basic';letter-spacing:0;word-spacing:0;stroke-width:0.994672"
     transform="scale(0.99229441,1.0077654)"><tspan
       x="280.58234"
       y="536.22388"
       id="tspan66"
       style="stroke-width:0.994672" /></text>
  <rect
     width="436.04199"
     height="429.34799"
     rx="63.351723"
     ry="62.379162"
     x="-474.79099"
     y="42.042"
     id="rect4981-8"
     style="fill:url(#linearGradient968);fill-opacity:1;stroke:none;stroke-width:0.994672"
     transform="rotate(-90)" />
  <g
     transform="matrix(0.98700692,0,0,1.0023955,0.92226838,-4.35398)"
     id="g3399">
    <path
       d="m 361.37855,164.51427 c -1.67427,0.0562 -3.45075,0.47361 -5.36753,1.22941 -0.0103,0.004 -0.0206,-0.004 -0.0299,0 -4.04223,1.52199 -6.32416,5.04191 -7.28657,9.08569 -0.9655,4.05706 -0.78179,8.75852 -0.14988,13.37367 0.63191,4.61515 1.72729,9.13851 2.72869,12.77394 1.0014,3.63544 1.92884,6.50177 2.09904,7.25656 0.11017,0.48735 0.0836,0.37688 -0.11997,0.53974 -0.20321,0.16287 -0.78952,0.41696 -1.52933,0.47978 -0.7397,0.0628 -1.60433,-0.0419 -2.27884,-0.2099 -0.67461,-0.16807 -1.14478,-0.49941 -1.07948,-0.4198 -0.15339,-0.18732 -0.66338,-1.10697 -1.22948,-2.30891 -0.56609,-1.20195 -1.24061,-2.74919 -2.00899,-4.49786 -1.53686,-3.49735 -3.43754,-7.78328 -5.63737,-11.8144 -2.19982,-4.03114 -4.68445,-7.79112 -7.55641,-10.31512 -1.43598,-1.262 -2.9911,-2.24744 -4.70776,-2.66873 -1.71666,-0.42129 -3.58237,-0.24779 -5.3375,0.62969 l -0.0299,0.0299 h -0.0299 c -4.4831,2.47158 -6.87118,6.40059 -7.85628,10.64495 -0.9851,4.24435 -0.65543,8.84798 0.0598,13.10379 0.71536,4.2558 1.83054,8.1925 2.54879,11.06475 0.35917,1.43614 0.59972,2.61024 0.65965,3.29844 0.0186,0.21028 0,0.24505 0,0.32985 -3.26002,1.98922 -4.83381,5.21165 -6.08711,8.51596 -1.2993,3.4259 -2.36744,7.01474 -4.61781,10.1352 l -0.0299,0.0299 c -0.69824,1.00067 -2.15382,1.87431 -4.4079,2.45884 -2.25408,0.58453 -5.20929,0.86471 -8.66592,0.86958 -6.91315,0.009 -15.75195,-1.04994 -24.94818,-2.5188 -18.39234,-2.93771 -38.15547,-7.48899 -48.21713,-8.09616 -7.55838,-0.44613 -14.74127,2.40452 -20.18038,5.09758 -2.71961,1.34653 -5.02702,2.68505 -6.65693,3.53832 -0.77663,0.40666 -1.36934,0.67669 -1.73914,0.80962 -17.58229,-17.5198 -53.17195,-47.46146 -92.626096,-57.54273 -6.121586,-1.66168 -13.192935,-4.27445 -20.150445,-7.10663 l -0.56973,-0.23989 -9.790719,-2.55348 c 5.749,2.65369 21.851435,16.61015 28.861677,19.49545 18.598433,7.65661 40.913873,21.29442 57.992563,33.764 8.53935,6.2348 15.78084,12.19184 20.5702,16.91199 2.39467,2.36006 4.16373,4.42718 5.1576,5.96717 0.49689,0.77 0.7983,1.40852 0.89959,1.79915 0.0506,0.19532 0.0629,0.28808 0.0598,0.32984 l 0.0299,0.0299 c -12.35206,17.41987 -19.63615,38.51287 -14.63307,73.97494 0.10429,0.7216 -0.58869,2.31109 -2.15897,4.228 -1.57029,1.91689 -3.83406,4.11382 -6.11713,6.44693 -2.28297,2.33312 -4.59564,4.79595 -6.29703,7.37651 -1.70129,2.58057 -2.83276,5.38833 -2.3988,8.27608 0.21074,1.27941 1.07226,2.42491 2.15897,2.90863 1.08671,0.4837 2.24078,0.46082 3.44838,0.29985 2.4152,-0.32196 5.18113,-1.35597 7.97624,-2.51881 2.79501,-1.16284 5.59198,-2.45295 7.73631,-3.23846 1.03389,-0.37876 1.88903,-0.63277 2.45884,-0.71967 0,0.38496 0.0516,0.64697 -0.0598,1.31938 -0.17918,1.08488 -0.52814,2.42875 -0.95952,3.95813 -0.86266,3.05877 -2.09564,6.77997 -3.23846,10.40507 -1.14283,3.62509 -2.21086,7.1585 -2.66876,10.04523 -0.22889,1.44337 -0.30677,2.70614 -0.11986,3.86817 0.18681,1.16203 0.8148,2.4472 2.06892,2.90862 h 0.0598 l 0.0598,0.0299 c 0.85678,0.25449 1.40782,0.0145 1.97908,-0.2099 0.57125,-0.22453 1.14241,-0.55508 1.79918,-0.95955 1.31354,-0.80893 2.89084,-1.9511 4.67774,-3.35841 3.57381,-2.81459 7.96325,-6.61482 12.29419,-10.43505 4.33095,-3.82023 8.62146,-7.66745 11.90438,-10.49503 1.64146,-1.41379 3.04196,-2.56179 4.0481,-3.32842 0.47956,-0.36543 0.831,-0.65786 1.07949,-0.80961 26.42862,7.89347 56.56421,8.8619 80.33192,7.7963 11.95451,-0.53597 22.29943,-1.60049 29.74588,-2.54879 3.72318,-0.47416 6.69901,-0.91195 8.8158,-1.2594 1.05844,-0.17373 1.91543,-0.33505 2.51877,-0.44979 0.239,-0.0454 0.40167,-0.0847 0.56981,-0.11994 0.0268,0.0115 0.0309,0.0171 0.0598,0.0299 0.34267,0.15019 0.88845,0.386 1.55925,0.68967 1.3416,0.60732 3.26776,1.49028 5.60735,2.54879 4.67929,2.117 10.97807,4.93168 17.42178,7.67636 6.44371,2.74469 13.02998,5.40507 18.32127,7.22658 2.64565,0.91075 4.96822,1.61372 6.83682,2.00904 0.93425,0.19767 1.74606,0.33789 2.48875,0.35984 0.7428,0.022 1.43681,0.0122 2.189,-0.47977 l 0.14988,-0.11995 0.11996,-0.11995 c 3.07167,-3.32725 3.21103,-7.43202 1.73925,-11.06476 -1.47188,-3.63273 -4.30609,-7.06955 -7.25665,-10.3151 -2.95046,-3.24556 -6.0539,-6.30536 -7.97614,-8.81583 -0.96117,-1.25524 -1.61629,-2.3796 -1.85911,-3.17849 -0.22374,-0.73561 -0.10986,-1.01246 0.14988,-1.37935 0.1931,-0.024 0.49771,-0.0416 0.95952,0 1.03916,0.0936 2.59469,0.42131 4.4079,0.89958 3.62652,0.95655 8.36719,2.52769 13.10383,4.07806 4.73665,1.55038 9.44317,3.05348 13.19378,3.92815 1.87521,0.43732 3.521,0.73555 4.88766,0.74964 0.68328,0.007 1.29229,-0.0488 1.91904,-0.26987 0.62676,-0.22114 1.31808,-0.70638 1.61929,-1.46931 l 0.0299,-0.0599 v -0.0299 c 0.87061,-2.6275 -0.10449,-5.45723 -1.67921,-8.30606 -1.57472,-2.84883 -3.87295,-5.81447 -6.32694,-8.66589 -2.4541,-2.85143 -5.03857,-5.57548 -7.19662,-7.88626 -2.15093,-2.30307 -3.89957,-4.26354 -4.43792,-5.15756 0,-0.007 0,-0.0224 0,-0.0299 -1.09558,-1.95034 -1.78422,-4.56551 -1.4693,-7.10664 0.31617,-2.55111 1.5477,-5.03133 4.43792,-7.04666 0.5792,-0.40372 2.34063,-1.34111 4.73778,-2.48882 2.39705,-1.14771 5.50028,-2.57903 9.02571,-4.22799 7.05076,-3.29792 15.82839,-7.47318 24.34845,-12.14425 8.52006,-4.67107 16.77574,-9.80883 22.81912,-15.11283 6.04337,-5.304 10.10994,-10.88596 9.29566,-16.64212 -1.26847,-9.4101 -7.46575,-16.58 -15.77259,-21.97958 -8.30674,-5.39958 -18.7641,-9.15159 -29.08612,-11.87437 -10.32213,-2.72279 -20.49943,-4.40879 -28.15673,-5.60734 -3.82859,-0.59929 -7.05664,-1.05817 -9.29556,-1.46931 -1.11951,-0.20557 -2.00074,-0.40907 -2.54878,-0.56973 -0.034,-0.0103 -0.0289,-0.0203 -0.0598,-0.0299 -0.0103,-0.33629 0,-0.7364 0,-1.28939 0.0103,-1.26029 0.0155,-2.99946 0,-5.0676 -0.0299,-4.13625 -0.18733,-9.54657 -0.89949,-14.93291 -0.71226,-5.38635 -1.95019,-10.77008 -4.25802,-14.93293 -2.30792,-4.16285 -5.99902,-7.18314 -10.97477,-7.01668 z m 83.69034,22.72922 -2.12906,0.89958 c -0.50957,0.21998 -0.65182,0.47957 -0.77963,0.65968 -0.1277,0.18011 -0.22085,0.34411 -0.29986,0.50976 -0.15793,0.3313 -0.27552,0.67309 -0.41973,1.10948 -0.28862,0.87277 -0.60323,2.03567 -0.9296,3.38839 -0.65275,2.70543 -1.35945,6.21821 -1.94906,9.77537 -0.58972,3.55715 -1.06691,7.14838 -1.22947,9.98526 -0.0815,1.41844 -0.0846,2.63807 0.0299,3.65827 0.0578,0.5101 0.12636,0.95063 0.29986,1.40933 0.14689,0.38857 0.49988,0.83099 0.98954,1.16945 l -0.0598,0.0599 c 0.0361,0.0268 0.10924,0.005 0.14999,0.0299 0.0526,0.031 0.032,0.0918 0.0897,0.11995 l 0.0299,-0.0599 c 0.29017,0.1532 0.60128,0.29716 0.95963,0.26987 0.46047,-0.0352 0.80861,-0.22842 1.04947,-0.41981 0.48162,-0.38274 0.69029,-0.78062 0.89959,-1.19943 0.41859,-0.83759 0.7397,-1.89412 1.07949,-3.20847 0.67956,-2.62872 1.32241,-6.18101 1.82909,-9.86532 0.50679,-3.68433 0.87576,-7.46019 0.98954,-10.46505 0.0567,-1.50243 0.067,-2.81219 -0.0299,-3.86816 -0.0485,-0.528 -0.11336,-0.99539 -0.23993,-1.43933 -0.0454,-0.1612 -0.26118,-0.33918 -0.32978,-0.50975 v -2.00905 z m 17.96147,4.49787 c -0.73372,-0.0133 -1.15365,0.273 -1.55925,0.53975 -0.40559,0.26674 -0.79932,0.56975 -1.19945,0.95954 -0.80036,0.77957 -1.68592,1.84661 -2.63874,3.08853 -1.90573,2.48385 -4.0547,5.7599 -6.02718,9.14567 -1.97247,3.38576 -3.7535,6.84632 -4.82772,9.74538 -0.53712,1.44952 -0.90764,2.74693 -1.01946,3.92814 -0.11192,1.18121 0.0124,2.52422 1.13942,3.3584 0.70659,0.5285 1.66715,0.34293 2.15898,0.09 0.49183,-0.25292 0.83563,-0.55202 1.19945,-0.92955 0.72764,-0.75506 1.46878,-1.7857 2.30886,-3.05856 1.68024,-2.5457 3.65674,-6.02707 5.5174,-9.59545 1.86076,-3.56836 3.61579,-7.23242 4.85774,-10.07522 0.62098,-1.42141 1.08692,-2.62209 1.40927,-3.56831 0.16122,-0.4731 0.28511,-0.87132 0.3599,-1.2594 0.0371,-0.19404 0.065,-0.36901 0.0598,-0.6297 -0.0103,-0.26069 0.0526,-0.70376 -0.47976,-1.22942 l -0.0598,-0.0599 -0.0598,-0.0299 c -0.15741,-0.13011 -0.43469,-0.29828 -0.68968,-0.35983 -0.25489,-0.0615 -0.39765,-0.0589 -0.44974,-0.0599 z"
       inkscape:connector-curvature="0"
       id="path3397"
       style="color:#000000;font-style:normal;font-variant:normal;font-weight:normal;font-stretch:normal;font-size:medium;line-height:normal;font-family:Sans;-inkscape-font-specification:Sans;text-indent:0;text-align:start;text-decoration:none;text-decoration-line:none;letter-spacing:normal;word-spacing:normal;text-transform:none;writing-mode:lr-tb;direction:ltr;baseline-shift:baseline;text-anchor:start;display:inline;overflow:visible;visibility:visible;opacity:0.2;fill:#ffffff;fill-opacity:1;fill-rule:evenodd;stroke:none;stroke-width:3.18019;marker:none;enable-background:accumulate" />
    <path
       d="m 346.37855,149.51427 c -1.67427,0.0562 -3.45075,0.47361 -5.36753,1.22941 -0.0103,0.004 -0.0206,-0.004 -0.0299,0 -4.04223,1.52199 -6.32416,5.04191 -7.28657,9.08569 -0.9655,4.05706 -0.78179,8.75852 -0.14988,13.37367 0.63191,4.61515 1.72729,9.13851 2.72869,12.77394 1.0014,3.63544 1.92884,6.50177 2.09904,7.25656 0.11017,0.48735 0.0836,0.37688 -0.11997,0.53974 -0.20321,0.16287 -0.78952,0.41696 -1.52933,0.47978 -0.7397,0.0628 -1.60433,-0.0419 -2.27884,-0.2099 -0.67461,-0.16807 -1.14478,-0.49941 -1.07948,-0.4198 -0.15339,-0.18732 -0.66338,-1.10697 -1.22948,-2.30891 -0.56609,-1.20195 -1.24061,-2.74919 -2.00899,-4.49786 -1.53686,-3.49735 -3.43754,-7.78328 -5.63737,-11.8144 -2.19982,-4.03114 -4.68445,-7.79112 -7.55641,-10.31512 -1.43598,-1.262 -2.9911,-2.24744 -4.70776,-2.66873 -1.71666,-0.42129 -3.58237,-0.24779 -5.3375,0.62969 l -0.0299,0.0299 h -0.0299 c -4.4831,2.47158 -6.87118,6.40059 -7.85628,10.64495 -0.9851,4.24435 -0.65543,8.84798 0.0598,13.10379 0.71536,4.2558 1.83054,8.1925 2.54879,11.06475 0.35917,1.43614 0.59972,2.61024 0.65965,3.29844 0.0186,0.21028 0,0.24505 0,0.32985 -3.26002,1.98922 -4.83381,5.21165 -6.08711,8.51596 -1.2993,3.4259 -2.36744,7.01474 -4.61781,10.1352 l -0.0299,0.0299 c -0.69824,1.00067 -2.15382,1.87431 -4.4079,2.45884 -2.25408,0.58453 -5.20929,0.86471 -8.66592,0.86958 -6.91315,0.009 -15.75195,-1.04994 -24.94818,-2.5188 -18.39234,-2.93771 -38.15547,-7.48899 -48.21713,-8.09616 -7.55838,-0.44613 -14.74127,2.40452 -20.18038,5.09758 -2.71961,1.34653 -5.02702,2.68505 -6.65693,3.53832 -0.77663,0.40666 -1.36934,0.67669 -1.73914,0.80962 -17.58229,-17.5198 -53.17195,-47.46146 -92.626096,-57.54273 -6.121586,-1.66168 -13.192935,-4.27445 -20.150445,-7.10663 l -0.56973,-0.23989 -9.790719,-2.55348 c 5.749,2.65369 21.851435,16.61015 28.861677,19.49545 18.598433,7.65661 40.913873,21.29442 57.992563,33.764 8.53935,6.2348 15.78084,12.19184 20.5702,16.91199 2.39467,2.36006 4.16373,4.42718 5.1576,5.96717 0.49689,0.77 0.7983,1.40852 0.89959,1.79915 0.0506,0.19532 0.0629,0.28808 0.0598,0.32984 l 0.0299,0.0299 c -12.35206,17.41987 -19.63615,38.51287 -14.63307,73.97494 0.10429,0.7216 -0.58869,2.31109 -2.15897,4.228 -1.57029,1.91689 -3.83406,4.11382 -6.11713,6.44693 -2.28297,2.33312 -4.59564,4.79595 -6.29703,7.37651 -1.70129,2.58057 -2.83276,5.38833 -2.3988,8.27608 0.21074,1.27941 1.07226,2.42491 2.15897,2.90863 1.08671,0.4837 2.24078,0.46082 3.44838,0.29985 2.4152,-0.32196 5.18113,-1.35597 7.97624,-2.51881 2.79501,-1.16284 5.59198,-2.45295 7.73631,-3.23846 1.03389,-0.37876 1.88903,-0.63277 2.45884,-0.71967 0,0.38496 0.0516,0.64697 -0.0598,1.31938 -0.17918,1.08488 -0.52814,2.42875 -0.95952,3.95813 -0.86266,3.05877 -2.09564,6.77997 -3.23846,10.40507 -1.14283,3.62509 -2.21086,7.1585 -2.66876,10.04523 -0.22889,1.44337 -0.30677,2.70614 -0.11986,3.86817 0.18681,1.16203 0.8148,2.4472 2.06892,2.90862 h 0.0598 l 0.0598,0.0299 c 0.85678,0.25449 1.40782,0.0145 1.97908,-0.2099 0.57125,-0.22453 1.14241,-0.55508 1.79918,-0.95955 1.31354,-0.80893 2.89084,-1.9511 4.67774,-3.35841 3.57381,-2.81459 7.96325,-6.61482 12.29419,-10.43505 4.33095,-3.82023 8.62146,-7.66745 11.90438,-10.49503 1.64146,-1.41379 3.04196,-2.56179 4.0481,-3.32842 0.47956,-0.36543 0.831,-0.65786 1.07949,-0.80961 26.42862,7.89347 56.56421,8.8619 80.33192,7.7963 11.95451,-0.53597 22.29943,-1.60049 29.74588,-2.54879 3.72318,-0.47416 6.69901,-0.91195 8.8158,-1.2594 1.05844,-0.17373 1.91543,-0.33505 2.51877,-0.44979 0.239,-0.0454 0.40167,-0.0847 0.56981,-0.11994 0.0268,0.0115 0.0309,0.0171 0.0598,0.0299 0.34267,0.15019 0.88845,0.386 1.55925,0.68967 1.3416,0.60732 3.26776,1.49028 5.60735,2.54879 4.67929,2.117 10.97807,4.93168 17.42178,7.67636 6.44371,2.74469 13.02998,5.40507 18.32127,7.22658 2.64565,0.91075 4.96822,1.61372 6.83682,2.00904 0.93425,0.19767 1.74606,0.33789 2.48875,0.35984 0.7428,0.022 1.43681,0.0122 2.189,-0.47977 l 0.14988,-0.11995 0.11996,-0.11995 c 3.07167,-3.32725 3.21103,-7.43202 1.73925,-11.06476 -1.47188,-3.63273 -4.30609,-7.06955 -7.25665,-10.3151 -2.95046,-3.24556 -6.0539,-6.30536 -7.97614,-8.81583 -0.96117,-1.25524 -1.61629,-2.3796 -1.85911,-3.17849 -0.22374,-0.73561 -0.10986,-1.01246 0.14988,-1.37935 0.1931,-0.024 0.49771,-0.0416 0.95952,0 1.03916,0.0936 2.59469,0.42131 4.4079,0.89958 3.62652,0.95655 8.36719,2.52769 13.10383,4.07806 4.73665,1.55038 9.44317,3.05348 13.19378,3.92815 1.87521,0.43732 3.521,0.73555 4.88766,0.74964 0.68328,0.007 1.29229,-0.0488 1.91904,-0.26987 0.62676,-0.22114 1.31808,-0.70638 1.61929,-1.46931 l 0.0299,-0.0599 v -0.0299 c 0.87061,-2.6275 -0.10449,-5.45723 -1.67921,-8.30606 -1.57472,-2.84883 -3.87295,-5.81447 -6.32694,-8.66589 -2.4541,-2.85143 -5.03857,-5.57548 -7.19662,-7.88626 -2.15093,-2.30307 -3.89957,-4.26354 -4.43792,-5.15756 0,-0.007 0,-0.0224 0,-0.0299 -1.09558,-1.95034 -1.78422,-4.56551 -1.4693,-7.10664 0.31617,-2.55111 1.5477,-5.03133 4.43792,-7.04666 0.5792,-0.40372 2.34063,-1.34111 4.73778,-2.48882 2.39705,-1.14771 5.50028,-2.57903 9.02571,-4.22799 7.05076,-3.29792 15.82839,-7.47318 24.34845,-12.14425 8.52006,-4.67107 16.77574,-9.80883 22.81912,-15.11283 6.04337,-5.304 10.10994,-10.88596 9.29566,-16.64212 -1.26847,-9.4101 -7.46575,-16.58 -15.77259,-21.97958 -8.30674,-5.39958 -18.7641,-9.15159 -29.08612,-11.87437 -10.32213,-2.72279 -20.49943,-4.40879 -28.15673,-5.60734 -3.82859,-0.59929 -7.05664,-1.05817 -9.29556,-1.46931 -1.11951,-0.20557 -2.00074,-0.40907 -2.54878,-0.56973 -0.034,-0.0103 -0.0289,-0.0203 -0.0598,-0.0299 -0.0103,-0.33629 0,-0.7364 0,-1.28939 0.0103,-1.26029 0.0155,-2.99946 0,-5.0676 -0.0299,-4.13625 -0.18733,-9.54657 -0.89949,-14.93291 -0.71226,-5.38635 -1.95019,-10.77008 -4.25802,-14.93293 -2.30792,-4.16285 -5.99902,-7.18314 -10.97477,-7.01668 z m 83.69034,22.72922 -2.12906,0.89958 c -0.50957,0.21998 -0.65182,0.47957 -0.77963,0.65968 -0.1277,0.18011 -0.22085,0.34411 -0.29986,0.50976 -0.15793,0.3313 -0.27552,0.67309 -0.41973,1.10948 -0.28862,0.87277 -0.60323,2.03567 -0.9296,3.38839 -0.65275,2.70543 -1.35945,6.21821 -1.94906,9.77537 -0.58972,3.55715 -1.06691,7.14838 -1.22947,9.98526 -0.0815,1.41844 -0.0846,2.63807 0.0299,3.65827 0.0578,0.5101 0.12636,0.95063 0.29986,1.40933 0.14689,0.38857 0.49988,0.83099 0.98954,1.16945 l -0.0598,0.0599 c 0.0361,0.0268 0.10924,0.005 0.14999,0.0299 0.0526,0.031 0.032,0.0918 0.0897,0.11995 l 0.0299,-0.0599 c 0.29017,0.1532 0.60128,0.29716 0.95963,0.26987 0.46047,-0.0352 0.80861,-0.22842 1.04947,-0.41981 0.48162,-0.38274 0.69029,-0.78062 0.89959,-1.19943 0.41859,-0.83759 0.7397,-1.89412 1.07949,-3.20847 0.67956,-2.62872 1.32241,-6.18101 1.82909,-9.86532 0.50679,-3.68433 0.87576,-7.46019 0.98954,-10.46505 0.0567,-1.50243 0.067,-2.81219 -0.0299,-3.86816 -0.0485,-0.528 -0.11336,-0.99539 -0.23993,-1.43933 -0.0454,-0.1612 -0.26118,-0.33918 -0.32978,-0.50975 v -2.00905 z m 17.96147,4.49787 c -0.73372,-0.0133 -1.15365,0.273 -1.55925,0.53975 -0.40559,0.26674 -0.79932,0.56975 -1.19945,0.95954 -0.80036,0.77957 -1.68592,1.84661 -2.63874,3.08853 -1.90573,2.48385 -4.0547,5.7599 -6.02718,9.14567 -1.97247,3.38576 -3.7535,6.84632 -4.82772,9.74538 -0.53712,1.44952 -0.90764,2.74693 -1.01946,3.92814 -0.11192,1.18121 0.0124,2.52422 1.13942,3.3584 0.70659,0.5285 1.66715,0.34293 2.15898,0.09 0.49183,-0.25292 0.83563,-0.55202 1.19945,-0.92955 0.72764,-0.75506 1.46878,-1.7857 2.30886,-3.05856 1.68024,-2.5457 3.65674,-6.02707 5.5174,-9.59545 1.86076,-3.56836 3.61579,-7.23242 4.85774,-10.07522 0.62098,-1.42141 1.08692,-2.62209 1.40927,-3.56831 0.16122,-0.4731 0.28511,-0.87132 0.3599,-1.2594 0.0371,-0.19404 0.065,-0.36901 0.0598,-0.6297 -0.0103,-0.26069 0.0526,-0.70376 -0.47976,-1.22942 l -0.0598,-0.0599 -0.0598,-0.0299 c -0.15741,-0.13011 -0.43469,-0.29828 -0.68968,-0.35983 -0.25489,-0.0615 -0.39765,-0.0589 -0.44974,-0.0599 z"
       inkscape:connector-curvature="0"
       id="path3169"
       style="color:#000000;font-style:normal;font-variant:normal;font-weight:normal;font-stretch:normal;font-size:medium;line-height:normal;font-family:Sans;-inkscape-font-specification:Sans;text-indent:0;text-align:start;text-decoration:none;text-decoration-line:none;letter-spacing:normal;word-spacing:normal;text-transform:none;writing-mode:lr-tb;direction:ltr;baseline-shift:baseline;text-anchor:start;display:inline;overflow:visible;visibility:visible;fill:#ffffff;fill-opacity:1;fill-rule:evenodd;stroke:none;stroke-width:3.18019;marker:none;enable-background:accumulate" />
  </g>
</svg>
