<?xml version="1.0" encoding="UTF-8" standalone="no"?>
<!-- Created with Inkscape (http://www.inkscape.org/) -->

<svg
   version="1.1"
   width="100%"
   height="100%"
   viewBox="0 0 512 512"
   id="svg2"
   sodipodi:docname="gnome-boxes.svg"
   inkscape:version="1.1 (c68e22c387, 2021-05-23)"
   xmlns:inkscape="http://www.inkscape.org/namespaces/inkscape"
   xmlns:sodipodi="http://sodipodi.sourceforge.net/DTD/sodipodi-0.dtd"
   xmlns:xlink="http://www.w3.org/1999/xlink"
   xmlns="http://www.w3.org/2000/svg"
   xmlns:svg="http://www.w3.org/2000/svg"
   xmlns:rdf="http://www.w3.org/1999/02/22-rdf-syntax-ns#"
   xmlns:cc="http://creativecommons.org/ns#"
   xmlns:dc="http://purl.org/dc/elements/1.1/">
  <sodipodi:namedview
     id="namedview39"
     pagecolor="#ffffff"
     bordercolor="#666666"
     borderopacity="1.0"
     inkscape:pageshadow="2"
     inkscape:pageopacity="0.0"
     inkscape:pagecheckerboard="0"
     showgrid="false"
     inkscape:zoom="0.60490775"
     inkscape:cx="328.97578"
     inkscape:cy="285.99402"
     inkscape:window-width="1366"
     inkscape:window-height="700"
     inkscape:window-x="0"
     inkscape:window-y="0"
     inkscape:window-maximized="1"
     inkscape:current-layer="svg2" />
  <metadata
     id="metadata65">
    <rdf:RDF>
      <cc:Work
         rdf:about="">
        <dc:format>image/svg+xml</dc:format>
        <dc:type
           rdf:resource="http://purl.org/dc/dcmitype/StillImage" />
      </cc:Work>
    </rdf:RDF>
  </metadata>
  <defs
     id="defs4">
    <filter
       color-interpolation-filters="sRGB"
       id="7"
       x="-0.018107638"
       y="-0.017892786"
       width="1.0362153"
       height="1.0357856">
      <feGaussianBlur
         id="feGaussianBlur7"
         stdDeviation="3.7725" />
    </filter>
    <linearGradient
       y1="19.563999"
       x2="0"
       y2="504.01999"
       id="8"
       gradientUnits="userSpaceOnUse">
      <stop
         id="stop10"
         style="stop-color:#f3f3f3;stop-opacity:1"
         offset="0" />
      <stop
         id="stop12"
         style="stop-color:#eeeeee;stop-opacity:1"
         offset="0.5" />
      <stop
         id="stop14"
         style="stop-color:#ebebeb;stop-opacity:1"
         offset="1" />
    </linearGradient>
    <linearGradient
       x1="257"
       x2="362"
       id="5"
       xlink:href="#0"
       gradientUnits="userSpaceOnUse"
       gradientTransform="matrix(1.02835,0,0,1.46193,-383.73694,-115.70205)" />
    <linearGradient
       x1="257"
       x2="362"
       id="6"
       xlink:href="#0"
       gradientUnits="userSpaceOnUse"
       gradientTransform="matrix(1.0381,0,0,1.46193,-467.2489,-124.14041)" />
    <linearGradient
       x1="257"
       x2="362"
       id="4"
       xlink:href="#0"
       gradientUnits="userSpaceOnUse"
       gradientTransform="matrix(1.02835,0,0,1.46193,-610.00374,-127.97146)" />
    <linearGradient
       x1="257"
       x2="362"
       id="3"
       xlink:href="#0"
       gradientUnits="userSpaceOnUse"
       gradientTransform="matrix(1.0381,0,0,1.46193,-427.0919,-112.11041)" />
    <linearGradient
       id="0">
      <stop
         id="stop21"
         style="stop-color:#000000;stop-opacity:1"
         offset="0" />
      <stop
         id="stop23"
         style="stop-color:#ffffff;stop-opacity:1"
         offset="1" />
    </linearGradient>
    <linearGradient
       x1="257"
       x2="362"
       id="2"
       xlink:href="#0"
       gradientUnits="userSpaceOnUse"
       gradientTransform="matrix(1.0381,0,0,1.46193,-467.2489,-112.11041)" />
    <linearGradient
       x1="257"
       x2="362"
       id="1"
       xlink:href="#0"
       gradientUnits="userSpaceOnUse"
       gradientTransform="matrix(1.0381,0,0,1.46193,-467.2529,-112.11041)" />
    <linearGradient
       inkscape:collect="always"
       xlink:href="#5-3"
       id="linearGradient984"
       x1="38.5"
       y1="256"
       x2="473.5"
       y2="256"
       gradientUnits="userSpaceOnUse"
       gradientTransform="matrix(1.0023953,0,0,0.98700701,-513.38326,4.0422307)" />
    <linearGradient
       id="5-3"
       x1="400.45001"
       y1="543.89001"
       x2="400.62"
       y2="532.98999"
       gradientUnits="userSpaceOnUse"
       gradientTransform="matrix(1.61348,0,0,1.61348,157.13804,-430.674)">
      <stop
         stop-color="#41b99b"
         id="stop7" />
      <stop
         offset="1"
         stop-color="#59ffd5"
         id="stop9" />
    </linearGradient>
  </defs>
  <rect
     width="436.04199"
     height="429.34799"
     rx="63.351391"
     x="-474.79099"
     y="42.042"
     id="rect33"
     style="fill:url(#linearGradient984);fill-opacity:1;stroke-width:0.994672"
     transform="rotate(-90)" />
  <path
     d="m 150.6304,120.42741 c -22.15097,0 -39.98372,16.69921 -39.98372,37.44214 V 357.5611 c 0,20.74294 17.83275,37.44215 39.98372,37.44215 h 213.24675 c 22.15098,0 39.98374,-16.69921 39.98374,-37.44215 V 157.86955 c 0,-20.74293 -17.83276,-37.44214 -39.98374,-37.44214 z m 9.42352,37.44214 h 194.40106 l -53.31172,49.9229 h -83.87258 -3.90467 l -53.3117,-49.9229 z m -9.42352,8.82449 53.31171,49.9229 v 3.65646 74.88435 3.65645 L 150.6304,348.7371 V 166.69328 Z m 213.24675,0 v 182.04382 l -53.31171,-49.92291 v -3.65646 -78.54117 l 53.31171,-49.9229 z M 217.27,220.27315 h 79.96753 V 295.1575 H 217.27 Z m -3.90466,87.36505 h 3.90466 83.87259 l 53.31171,49.9229 H 160.05325 l 53.31169,-49.9229 z"
     fill="#999999"
     stroke-linecap="square"
     stroke-width="29.1003"
     id="path2"
     style="fill:#ececec" />
  <path
     d="m 130.63754,89.225643 a 53.310668,49.921939 0 0 0 -53.310613,49.921887 53.310668,49.921939 0 0 0 53.310613,49.92199 53.310668,49.921939 0 0 0 53.31071,-49.92199 53.310668,49.921939 0 0 0 -53.31071,-49.921887 z m 253.22948,0 a 53.310668,49.921939 0 0 0 -53.3107,49.921887 53.310668,49.921939 0 0 0 53.3107,49.92199 53.310668,49.921939 0 0 0 53.31069,-49.92199 53.310668,49.921939 0 0 0 -53.31069,-49.921887 z M 210.60608,189.06952 a 26.655335,24.960969 0 0 0 -26.65539,24.96094 26.655335,24.960969 0 0 0 26.65539,24.96096 26.655335,24.960969 0 0 0 26.65532,-24.96096 26.655335,24.960969 0 0 0 -26.65532,-24.96094 z m 93.29491,0 a 26.655335,24.960969 0 0 0 -26.65531,24.96094 26.655335,24.960969 0 0 0 26.65531,24.96096 26.655335,24.960969 0 0 0 26.65533,-24.96096 26.655335,24.960969 0 0 0 -26.65533,-24.96094 z m -93.29491,87.36453 A 26.655335,24.960969 0 0 0 183.95069,301.395 26.655335,24.960969 0 0 0 210.60608,326.35603 26.655335,24.960969 0 0 0 237.2614,301.395 26.655335,24.960969 0 0 0 210.60608,276.43405 Z m 93.29491,0 a 26.655335,24.960969 0 0 0 -26.65531,24.96095 26.655335,24.960969 0 0 0 26.65531,24.96103 26.655335,24.960969 0 0 0 26.65533,-24.96103 26.655335,24.960969 0 0 0 -26.65533,-24.96095 z m -173.26093,49.92198 a 53.310668,49.921939 0 0 0 -53.310667,49.9219 53.310668,49.921939 0 0 0 53.310667,49.92198 53.310668,49.921939 0 0 0 53.31063,-49.92198 53.310668,49.921939 0 0 0 -53.31063,-49.9219 z m 253.22949,0 a 53.310668,49.921939 0 0 0 -53.3107,49.9219 53.310668,49.921939 0 0 0 53.3107,49.92198 53.310668,49.921939 0 0 0 53.31064,-49.92198 53.310668,49.921939 0 0 0 -53.31064,-49.9219 z"
     fill="#f9f9f9"
     stroke-linecap="square"
     stroke-width="13.7571"
     id="path4"
     style="fill:#ffffff" />
</svg>
