<?xml version="1.0" encoding="UTF-8" standalone="no"?>
<!-- Created with Inkscape (http://www.inkscape.org/) -->

<svg
   version="1.1"
   width="100%"
   height="100%"
   viewBox="0 0 512 512"
   id="svg2"
   sodipodi:docname="goa-account-pocket.svg"
   inkscape:version="1.1 (c68e22c387, 2021-05-23)"
   xmlns:inkscape="http://www.inkscape.org/namespaces/inkscape"
   xmlns:sodipodi="http://sodipodi.sourceforge.net/DTD/sodipodi-0.dtd"
   xmlns:xlink="http://www.w3.org/1999/xlink"
   xmlns="http://www.w3.org/2000/svg"
   xmlns:svg="http://www.w3.org/2000/svg"
   xmlns:rdf="http://www.w3.org/1999/02/22-rdf-syntax-ns#"
   xmlns:cc="http://creativecommons.org/ns#"
   xmlns:dc="http://purl.org/dc/elements/1.1/">
  <sodipodi:namedview
     id="namedview39"
     pagecolor="#ffffff"
     bordercolor="#666666"
     borderopacity="1.0"
     inkscape:pageshadow="2"
     inkscape:pageopacity="0.0"
     inkscape:pagecheckerboard="0"
     showgrid="false"
     inkscape:zoom="0.45117188"
     inkscape:cx="88.658008"
     inkscape:cy="359.06493"
     inkscape:window-width="1366"
     inkscape:window-height="700"
     inkscape:window-x="0"
     inkscape:window-y="0"
     inkscape:window-maximized="1"
     inkscape:current-layer="svg2" />
  <metadata
     id="metadata67">
    <rdf:RDF>
      <cc:Work
         rdf:about="">
        <dc:format>image/svg+xml</dc:format>
        <dc:type
           rdf:resource="http://purl.org/dc/dcmitype/StillImage" />
      </cc:Work>
    </rdf:RDF>
  </metadata>
  <defs
     id="defs4">
    <filter
       color-interpolation-filters="sRGB"
       id="7"
       x="-0.018107638"
       y="-0.017892786"
       width="1.0362153"
       height="1.0357856">
      <feGaussianBlur
         id="feGaussianBlur7"
         stdDeviation="3.7725" />
    </filter>
    <linearGradient
       y1="19.563999"
       x2="0"
       y2="504.01999"
       id="8"
       gradientUnits="userSpaceOnUse">
      <stop
         id="stop10"
         style="stop-color:#f3f3f3;stop-opacity:1"
         offset="0" />
      <stop
         id="stop12"
         style="stop-color:#eeeeee;stop-opacity:1"
         offset="0.5" />
      <stop
         id="stop14"
         style="stop-color:#ebebeb;stop-opacity:1"
         offset="1" />
    </linearGradient>
    <linearGradient
       x1="257"
       x2="362"
       id="5"
       xlink:href="#0"
       gradientUnits="userSpaceOnUse"
       gradientTransform="matrix(1.02835,0,0,1.46193,209.19,-118.25)" />
    <linearGradient
       x1="257"
       x2="362"
       id="6"
       xlink:href="#0"
       gradientUnits="userSpaceOnUse"
       gradientTransform="matrix(1.0381,0,0,1.46193,-337.29,-118.25)" />
    <linearGradient
       x1="257"
       x2="362"
       id="4"
       xlink:href="#0"
       gradientUnits="userSpaceOnUse"
       gradientTransform="matrix(1.02835,0,0,1.46193,101.22,-118.25)" />
    <linearGradient
       x1="257"
       x2="362"
       id="3"
       xlink:href="#0"
       gradientUnits="userSpaceOnUse"
       gradientTransform="matrix(1.0381,0,0,1.46193,-10.289,-118.25)" />
    <linearGradient
       id="0">
      <stop
         id="stop21"
         style="stop-color:#000000;stop-opacity:1"
         offset="0" />
      <stop
         id="stop23"
         style="stop-color:#ffffff;stop-opacity:1"
         offset="1" />
    </linearGradient>
    <linearGradient
       x1="257"
       x2="362"
       id="2"
       xlink:href="#0"
       gradientUnits="userSpaceOnUse"
       gradientTransform="matrix(1.0381,0,0,1.46193,-119.29,-118.25)" />
    <linearGradient
       x1="257"
       x2="362"
       id="1"
       xlink:href="#0"
       gradientUnits="userSpaceOnUse"
       gradientTransform="matrix(1.0381,0,0,1.46193,-228.29,-118.25)" />
    <linearGradient
       id="6-6"
       x1="403.66"
       y1="545.75"
       x2="402.64999"
       y2="517.44"
       gradientUnits="userSpaceOnUse">
      <stop
         stop-color="#dce2ff"
         id="stop17" />
      <stop
         offset="1"
         stop-color="#f8feff"
         id="stop19" />
    </linearGradient>
    <linearGradient
       id="1-7"
       x1="400.45001"
       y1="543.89001"
       x2="400.62"
       y2="532.98999"
       gradientUnits="userSpaceOnUse">
      <stop
         stop-color="#41b99b"
         id="stop42" />
      <stop
         offset="1"
         stop-color="#59ffd5"
         id="stop44" />
    </linearGradient>
    <linearGradient
       id="5-5"
       x1="400.62"
       y1="530.78003"
       x2="400.45001"
       y2="519.87"
       gradientUnits="userSpaceOnUse">
      <stop
         stop-color="#eb4646"
         id="stop7" />
      <stop
         offset="1"
         stop-color="#ff8651"
         id="stop9" />
    </linearGradient>
    <linearGradient
       id="4-3"
       x1="406.48999"
       y1="534.78998"
       x2="406.62"
       y2="528.59003"
       gradientUnits="userSpaceOnUse">
      <stop
         stop-color="#ffbc00"
         id="stop22" />
      <stop
         offset="1"
         stop-color="#ffec00"
         id="stop24" />
    </linearGradient>
    <linearGradient
       id="3-5"
       x1="394.51999"
       y1="535.15002"
       x2="394.26999"
       y2="528.96997"
       gradientUnits="userSpaceOnUse">
      <stop
         stop-color="#947ecb"
         id="stop27" />
      <stop
         offset="1"
         stop-color="#cab5ff"
         id="stop29" />
    </linearGradient>
    <linearGradient
       id="2-6"
       y1="530.78003"
       x2="0"
       y2="523.38"
       gradientUnits="userSpaceOnUse">
      <stop
         stop-color="#ec87c0"
         id="stop37" />
      <stop
         offset="1"
         stop-color="#ffc1e4"
         id="stop39" />
    </linearGradient>
    <linearGradient
       id="8-2"
       y1="541.15997"
       x2="0"
       y2="533.06"
       gradientUnits="userSpaceOnUse">
      <stop
         stop-color="#0976da"
         id="stop2" />
      <stop
         offset="1"
         stop-color="#5de5f0"
         id="stop4" />
    </linearGradient>
    <linearGradient
       id="0-9"
       x1="405.29999"
       y1="530.90997"
       x2="405.25"
       y2="523.03998"
       gradientUnits="userSpaceOnUse"
       spreadMethod="pad">
      <stop
         stop-color="#fc6e51"
         id="stop32" />
      <stop
         offset="1"
         stop-color="#ff937d"
         id="stop34" />
    </linearGradient>
    <linearGradient
       id="7-1"
       x1="405.14999"
       y1="540.40997"
       x2="404.17001"
       y2="532.98999"
       gradientUnits="userSpaceOnUse">
      <stop
         stop-color="#4fd127"
         id="stop12-2" />
      <stop
         offset="1"
         stop-color="#c6f61a"
         id="stop14-7" />
    </linearGradient>
    <linearGradient
       inkscape:collect="always"
       xlink:href="#5-5"
       id="linearGradient1553"
       x1="256"
       y1="256"
       x2="364.72"
       y2="256"
       gradientUnits="userSpaceOnUse"
       gradientTransform="matrix(0.98700689,0,0,1.0023953,4.0422361,0.156776)" />
    <linearGradient
       inkscape:collect="always"
       xlink:href="#4-3"
       id="linearGradient1561"
       x1="364.72"
       y1="256"
       x2="473.444"
       y2="256"
       gradientUnits="userSpaceOnUse"
       gradientTransform="matrix(0.98700689,0,0,1.0023953,4.04224,0.156776)" />
    <linearGradient
       inkscape:collect="always"
       xlink:href="#1-7"
       id="linearGradient1571"
       x1="147.28"
       y1="256"
       x2="256"
       y2="256"
       gradientUnits="userSpaceOnUse"
       gradientTransform="matrix(0.98700689,0,0,1.0023953,4.0422361,0.156776)" />
    <linearGradient
       inkscape:collect="always"
       xlink:href="#7-1"
       id="linearGradient1579"
       x1="38.57"
       y1="256"
       x2="147.29401"
       y2="256"
       gradientUnits="userSpaceOnUse"
       gradientTransform="matrix(0.98700689,0,0,1.0023953,4.0422361,0.156776)" />
  </defs>
  <path
     d="m 364.02339,38.749 v 436.042 h 45.00159 c 33.84446,0 61.18356,-27.09475 62.30974,-61.17619 V 99.925191 C 470.21348,65.843746 442.87141,38.749 409.03485,38.749 h -45.00159"
     inkscape:connector-curvature="0"
     id="path47"
     style="fill:url(#linearGradient1561);fill-opacity:1;stroke-width:0.994671" />
  <path
     d="m 104.41097,38.749 c -33.844471,0 -61.183574,27.094746 -62.299879,61.176187 V 413.61481 c 1.12124,34.08144 28.463305,61.17619 62.309739,61.17619 h 45.00159 V 38.749 h -45.00159"
     inkscape:connector-curvature="0"
     id="path49"
     style="fill:url(#linearGradient1579);fill-opacity:1;stroke-width:0.994671" />
  <path
     d="M 149.40861,38.749 V 474.791 H 256.716 V 38.749 H 149.40861"
     inkscape:connector-curvature="0"
     id="path51"
     style="fill:url(#linearGradient1571);fill-opacity:1;stroke-width:0.994671" />
  <path
     d="M 256.716,38.749 V 474.791 H 364.02339 V 38.749 H 256.716"
     inkscape:connector-curvature="0"
     id="path53"
     style="fill:url(#linearGradient1553);fill-opacity:1;stroke-width:0.994671" />
  <g
     transform="matrix(0.98700688,0,0,1.0023953,683.37933,64.460441)"
     id="g59">
    <path
       d="m -424.15,77.01 c -47.44,0.132 -94.95,-0.013 -142.34,0.531 -14.659,3.167 -26.03,12.716 -25.658,34.971 0.34,35.907 -1.169,79.57 1.476,115.22 7.145,82.935 87.28,149.35 169.56,145.82 79.904,-0.163 155.98,-65.976 162.44,-146.55 2.31,-41.723 1.121,-83.56 0.855,-125.3 -2.968,-20.372 -25.16,-26.885 -42.865,-24.27 -41.15,-0.345 -82.31,-0.441 -123.47,-0.423 m -77.993,85.12 c 8.808,0.096 10.513,2.79 42.18,32.34 13.02,11.851 22.2,22.752 35.586,34.02 21.728,-19.676 44.06,-43.34 66.14,-62.52 14.07,-10.08 35.25,1.053 35.471,18.56 0.554,13.156 -14.192,22.524 -31.498,40.13 -19.327,18.289 -37.62,35.997 -57.821,53.824 -16.375,12.11 -31.708,-5.314 -42.716,-16.09 -22.347,-21.06 -44.894,-42.03 -66.36,-63.934 -9.153,-10.155 -6.772,-34.875 19.02,-36.34"
       inkscape:connector-curvature="0"
       id="path61"
       style="opacity:0.450143;fill:#ffffff" />
    <path
       d="m -439.15,62.01 c -47.44,0.132 -94.95,-0.013 -142.34,0.531 -14.659,3.167 -26.03,12.716 -25.658,34.971 0.34,35.907 -1.169,79.57 1.476,115.22 7.145,82.935 87.28,149.35 169.56,145.82 79.904,-0.163 155.98,-65.976 162.44,-146.55 2.31,-41.723 1.121,-83.56 0.855,-125.3 -2.968,-20.372 -25.16,-26.885 -42.865,-24.27 -41.15,-0.345 -82.31,-0.441 -123.47,-0.423 m -77.993,85.12 c 8.808,0.096 10.513,2.79 42.18,32.34 13.02,11.851 22.2,22.752 35.586,34.02 21.728,-19.676 44.06,-43.34 66.14,-62.52 14.07,-10.08 35.25,1.053 35.471,18.56 0.554,13.156 -14.192,22.524 -31.498,40.13 -19.327,18.289 -37.62,35.997 -57.821,53.824 -16.375,12.11 -31.708,-5.314 -42.716,-16.09 -22.347,-21.06 -44.894,-42.03 -66.36,-63.934 -9.153,-10.155 -6.772,-34.875 19.02,-36.34"
       inkscape:connector-curvature="0"
       id="path63"
       style="fill:#ffffff" />
  </g>
</svg>
