<?xml version="1.0" encoding="UTF-8" standalone="no"?>
<svg
   width="64"
   height="64"
   version="1.1"
   viewBox="0 0 16.933 16.933"
   id="svg46"
   sodipodi:docname="default-folder2 (copy).svg"
   inkscape:version="1.1 (c68e22c387, 2021-05-23)"
   xmlns:inkscape="http://www.inkscape.org/namespaces/inkscape"
   xmlns:sodipodi="http://sodipodi.sourceforge.net/DTD/sodipodi-0.dtd"
   xmlns="http://www.w3.org/2000/svg"
   xmlns:svg="http://www.w3.org/2000/svg"
   xmlns:rdf="http://www.w3.org/1999/02/22-rdf-syntax-ns#"
   xmlns:cc="http://creativecommons.org/ns#"
   xmlns:dc="http://purl.org/dc/elements/1.1/">
  <sodipodi:namedview
     id="namedview48"
     pagecolor="#ffffff"
     bordercolor="#666666"
     borderopacity="1.0"
     inkscape:pageshadow="2"
     inkscape:pageopacity="0.0"
     inkscape:pagecheckerboard="0"
     showgrid="false"
     inkscape:zoom="4.839262"
     inkscape:cx="21.904166"
     inkscape:cy="25.830385"
     inkscape:window-width="1366"
     inkscape:window-height="702"
     inkscape:window-x="0"
     inkscape:window-y="0"
     inkscape:window-maximized="1"
     inkscape:current-layer="svg46" />
  <defs
     id="defs12">
    <linearGradient
       id="linearGradient3481"
       x1="25"
       x2="25"
       y1="155"
       y2="167.78"
       gradientTransform="matrix(.26458 0 0 .26458 -2.3076 -56.702)"
       gradientUnits="userSpaceOnUse">
      <stop
         stop-color="#333"
         offset="0"
         id="stop2" />
      <stop
         stop-color="#0d52bf"
         offset="1"
         id="stop4" />
    </linearGradient>
    <linearGradient
       id="linearGradient3421"
       x1="-16.147"
       x2="-.24118"
       y1="-47.834"
       y2="-47.834"
       gradientTransform="matrix(1 0 0 1.1 15.152 44.098)"
       gradientUnits="userSpaceOnUse">
      <stop
         stop-color="#333"
         offset="0"
         id="stop7" />
      <stop
         stop-color="#64baff"
         offset="1"
         id="stop9" />
    </linearGradient>
    <clipPath
       clipPathUnits="userSpaceOnUse"
       id="clipPath977">
      <path
         id="path979"
         d="M 78.994141,52 C 43.625611,52 40,53.999146 40,89.296875 V 140 H 264 V 108.92188 C 264,73.624145 260.37439,68 225.00586,68 H 138 L 122,52 Z"
         style="color:#000000;display:inline;overflow:visible;visibility:visible;fill:#f6531e;fill-opacity:1;fill-rule:nonzero;stroke:none;stroke-width:1;marker:none;enable-background:accumulate"
         inkscape:connector-curvature="0" />
    </clipPath>
    <filter
       inkscape:collect="always"
       style="color-interpolation-filters:sRGB"
       id="filter989"
       x="-0.053571429"
       width="1.1071429"
       y="-0.068181818"
       height="1.1363636">
      <feGaussianBlur
         inkscape:collect="always"
         stdDeviation="5"
         id="feGaussianBlur991" />
    </filter>
    <clipPath
       clipPathUnits="userSpaceOnUse"
       id="clipPath977-3">
      <path
         id="path979-6"
         d="M 78.994141,52 C 43.625611,52 40,53.999146 40,89.296875 V 140 H 264 V 108.92188 C 264,73.624145 260.37439,68 225.00586,68 H 138 L 122,52 Z"
         style="color:#000000;display:inline;overflow:visible;visibility:visible;fill:#f6531e;fill-opacity:1;fill-rule:nonzero;stroke:none;stroke-width:1;marker:none;enable-background:accumulate"
         inkscape:connector-curvature="0" />
    </clipPath>
  </defs>
  <metadata
     id="metadata14">
    <rdf:RDF>
      <cc:Work
         rdf:about="">
        <dc:format>image/svg+xml</dc:format>
        <dc:type
           rdf:resource="http://purl.org/dc/dcmitype/StillImage" />
        <dc:title />
      </cc:Work>
    </rdf:RDF>
  </metadata>
  <g
     fill="#5e4aa6"
     stroke-width=".26458"
     id="g24">
    <circle
       cx="-330.35"
       cy="-328.38"
       r="0"
       id="circle16" />
    <circle
       cx="-312.11"
       cy="-326.25"
       r="0"
       id="circle18" />
    <circle
       cx="-306.02"
       cy="-333.07"
       r="0"
       id="circle20" />
    <circle
       cx="-308.84"
       cy="-326.01"
       r="0"
       id="circle22" />
  </g>
  <g
     transform="translate(.000295 -.00032978)"
     fill="#5e4aa6"
     stroke-width=".26458"
     id="g36">
    <circle
       cx="-330.35"
       cy="-328.38"
       r="0"
       id="circle26" />
    <circle
       cx="-312.11"
       cy="-326.25"
       r="0"
       id="circle28" />
    <circle
       cx="-306.02"
       cy="-333.07"
       r="0"
       id="circle30" />
    <circle
       cx="-308.84"
       cy="-326.01"
       r="0"
       id="circle32" />
    <circle
       cx="-328.8"
       cy="-330.45"
       r="0"
       id="circle34" />
  </g>
  <path
     style="color:#000000;display:inline;overflow:visible;visibility:visible;fill:#333;fill-opacity:1;fill-rule:nonzero;stroke:none;stroke-width:0.0671972;marker:none;enable-background:accumulate"
     d="m 3.2929018,1.8517823 c -2.50653697,0 -2.76348097,0.1273783 -2.76348097,2.3763901 V 7.4587471 H 16.404108 V 5.4785899 c 0,-2.2490138 -0.256944,-2.6073584 -2.76348,-2.6073584 H 7.4745958 L 6.3406918,1.8517823 Z"
     id="path1046-2"
     inkscape:connector-curvature="0"
     sodipodi:nodetypes="ssccssccs" />
  <path
     sodipodi:nodetypes="ssssssssccs"
     style="color:#000000;display:inline;overflow:visible;visibility:visible;opacity:0.5;fill:#903906;fill-opacity:1;fill-rule:nonzero;stroke:none;stroke-width:1;marker:none;filter:url(#filter989);enable-background:accumulate"
     d="M 78.99353,92 C 43.625,92 40,95.625 40,130.92273 v 82.15454 C 40,248.375 43.625,252 78.99353,252 H 225.00647 C 260.375,252 264,248.375 264,213.07727 V 114.92273 C 264,79.625 260.375,76 225.00647,76 H 143.75 l -16.00782,16 z"
     id="path2061"
     inkscape:connector-curvature="0"
     clip-path="url(#clipPath977)"
     transform="matrix(0.06954828,0,0,0.0502453,-2.1208635,0.0720368)" />
  <path
     inkscape:connector-curvature="0"
     id="path1050-9"
     d="m 3.2908328,4.9079525 c -2.50469897,0 -2.76141197,0.2304762 -2.76141197,2.4746915 v 5.223353 c 0,2.244216 0.256713,2.474692 2.76141197,2.474692 H 13.631055 c 2.504698,0 2.76141,-0.230476 2.76141,-2.474692 V 6.3653711 c 0,-2.2442163 -0.256712,-2.4746915 -2.76141,-2.4746915 H 7.8767018 l -1.133627,1.0172729 z"
     style="color:#000000;display:inline;overflow:visible;visibility:visible;fill:#4d4d4d;fill-opacity:1;fill-rule:nonzero;stroke:none;stroke-width:0.0671005;marker:none;enable-background:accumulate"
     sodipodi:nodetypes="ssssssssccs" />
  <path
     style="color:#000000;display:inline;overflow:visible;visibility:visible;opacity:0.1;fill:#ffffff;fill-opacity:1;fill-rule:nonzero;stroke:none;stroke-width:0.095502;marker:none;enable-background:accumulate"
     d="m 16.615131,9.5145595 -6.541549,5.7108985 h 2.555891 c 3.615078,0 3.985658,-0.323392 3.985658,-3.473107 z"
     id="path2069"
     inkscape:connector-curvature="0"
     sodipodi:nodetypes="ccssc" />
  <g
     id="g861"
     transform="matrix(1.2007993,0,0,1.3888863,-3.2871062,-1.8090703)"
     style="opacity:1;fill:#ffffff;fill-opacity:1">
    <g
       id="g841"
       transform="translate(-3.0227468,-2.5920325)"
       style="fill:#ffffff;fill-opacity:1">
      <path
         d="m 12.435,8.4665 c -0.12549,-2.4e-6 -0.24581,0.050054 -0.33434,0.13901 -0.08854,0.088955 -0.13806,0.20935 -0.13746,0.33486 -0.0037,0.25911 -0.21471,0.46718 -0.47386,0.46715 -0.07986,-8.281e-4 -0.15817,-0.022791 -0.22686,-0.063561 -0.22674,-0.12993 -0.516,-0.051773 -0.64646,0.17466 l -0.16536,0.27233 c -0.13031,0.22615 -0.05354,0.51524 0.17208,0.64646 0.14665,0.08466 0.23719,0.24099 0.23719,0.4103 0,0.16934 -0.09054,0.32563 -0.23719,0.4103 -0.22532,0.13035 -0.30218,0.41894 -0.17208,0.64439 l 0.15606,0.26974 c 0.06113,0.1103 0.16395,0.19188 0.28525,0.22634 0.1213,0.03449 0.25121,0.01878 0.36121,-0.04289 0.10813,-0.06311 0.23716,-0.08045 0.35811,-0.04806 0.12095,0.03236 0.22411,0.11199 0.28628,0.22065 0.04076,0.0687 0.0622,0.14698 0.06304,0.22686 0,0.26176 0.21259,0.47386 0.47438,0.47386 h 0.31057 c 0.26089,0 0.47263,-0.21091 0.47386,-0.4718 -6.03e-4,-0.12589 0.04897,-0.24687 0.13797,-0.33589 0.08902,-0.08902 0.21,-0.13859 0.33589,-0.13797 0.07968,0.0022 0.15766,0.02399 0.22686,0.06356 0.22616,0.1303 0.51524,0.05301 0.64646,-0.1726 l 0.16329,-0.27181 c 0.0632,-0.10847 0.08041,-0.23783 0.04806,-0.35914 -0.03235,-0.1213 -0.11184,-0.2247 -0.22065,-0.28732 -0.10884,-0.06262 -0.18778,-0.16601 -0.22014,-0.28732 -0.03237,-0.1213 -0.01514,-0.25066 0.04806,-0.35914 0.0411,-0.07175 0.10033,-0.13098 0.17208,-0.17208 0.22425,-0.13117 0.30138,-0.41875 0.1726,-0.64439 v -0.0021 l -0.15451,-0.26768 c -0.13047,-0.2264 -0.41918,-0.30455 -0.64594,-0.17463 -0.10792,0.06358 -0.23684,0.081605 -0.35811,0.050125 -0.12126,-0.03148 -0.22497,-0.11001 -0.28835,-0.21807 -0.04075,-0.068684 -0.06272,-0.14648 -0.06356,-0.22634 0.0037,-0.12805 -0.04455,-0.25231 -0.13384,-0.34416 -0.08929,-0.091851 -0.21195,-0.14371 -0.34002,-0.14366 z m 0.14211,1.5875 a 0.79373,0.79373 0 0 1 0.01344,0 0.79373,0.79373 0 0 1 0.79373,0.79373 0.79373,0.79373 0 0 1 -0.79373,0.79374 0.79373,0.79373 0 0 1 -0.79373,-0.79374 0.79373,0.79373 0 0 1 0.7803,-0.79373 z"
         fill="#ffffff"
         opacity="0.75"
         id="path12"
         style="fill:#ffffff;fill-opacity:1" />
    </g>
  </g>
</svg>
