<?xml version="1.0" encoding="UTF-8" standalone="no"?>
<!-- Created with Inkscape (http://www.inkscape.org/) -->

<svg
   xmlns:dc="http://purl.org/dc/elements/1.1/"
   xmlns:cc="http://creativecommons.org/ns#"
   xmlns:rdf="http://www.w3.org/1999/02/22-rdf-syntax-ns#"
   xmlns:svg="http://www.w3.org/2000/svg"
   xmlns="http://www.w3.org/2000/svg"
   xmlns:xlink="http://www.w3.org/1999/xlink"
   xmlns:sodipodi="http://sodipodi.sourceforge.net/DTD/sodipodi-0.dtd"
   xmlns:inkscape="http://www.inkscape.org/namespaces/inkscape"
   width="50"
   height="20"
   viewBox="0 0 50 20"
   id="svg2"
   version="1.1"
   inkscape:version="0.92.5 (2060ec1f9f, 2020-04-08)"
   sodipodi:docname="toggle-on.svg">
  <defs
     id="defs4">
    <linearGradient
       inkscape:collect="always"
       id="linearGradient4527">
      <stop
         style="stop-color:#00429b;stop-opacity:1"
         offset="0"
         id="stop4523" />
      <stop
         style="stop-color:#499aff;stop-opacity:1"
         offset="1"
         id="stop4525" />
    </linearGradient>
    <linearGradient
       inkscape:collect="always"
       id="linearGradient4519">
      <stop
         style="stop-color:#005cd4;stop-opacity:1"
         offset="0"
         id="stop4515" />
      <stop
         style="stop-color:#6fb3ff;stop-opacity:1"
         offset="1"
         id="stop4517" />
    </linearGradient>
    <linearGradient
       inkscape:collect="always"
       xlink:href="#linearGradient4519"
       id="linearGradient4521"
       x1="15"
       y1="1050.3622"
       x2="15"
       y2="1034.3622"
       gradientUnits="userSpaceOnUse"
       gradientTransform="translate(14.787004,0.11552347)" />
    <linearGradient
       inkscape:collect="always"
       xlink:href="#linearGradient4527"
       id="linearGradient4529"
       x1="19"
       y1="1050.3622"
       x2="19"
       y2="1034.3622"
       gradientUnits="userSpaceOnUse"
       gradientTransform="translate(14.787004,0.11552347)" />
    <filter
       inkscape:collect="always"
       style="color-interpolation-filters:sRGB"
       id="filter4549"
       x="-0.035893459"
       width="1.0717869"
       y="-0.036107175"
       height="1.0722142">
      <feGaussianBlur
         inkscape:collect="always"
         stdDeviation="0.21888099"
         id="feGaussianBlur4551" />
    </filter>
  </defs>
  <sodipodi:namedview
     id="base"
     pagecolor="#ffffff"
     bordercolor="#666666"
     borderopacity="1.0"
     inkscape:pageopacity="0.0"
     inkscape:pageshadow="2"
     inkscape:zoom="17.3125"
     inkscape:cx="8.3686981"
     inkscape:cy="15.942378"
     inkscape:document-units="px"
     inkscape:current-layer="layer1"
     showgrid="true"
     units="px"
     width="40px"
     inkscape:window-width="1856"
     inkscape:window-height="1015"
     inkscape:window-x="64"
     inkscape:window-y="28"
     inkscape:window-maximized="1"
     inkscape:snap-bbox="true"
     inkscape:bbox-nodes="true"
     inkscape:snap-global="false"
     inkscape:snap-nodes="true">
    <inkscape:grid
       type="xygrid"
       id="grid4136" />
  </sodipodi:namedview>
  <metadata
     id="metadata7">
    <rdf:RDF>
      <cc:Work
         rdf:about="">
        <dc:format>image/svg+xml</dc:format>
        <dc:type
           rdf:resource="http://purl.org/dc/dcmitype/StillImage" />
        <dc:title />
      </cc:Work>
    </rdf:RDF>
  </metadata>
  <g
     inkscape:label="Layer 1"
     inkscape:groupmode="layer"
     id="layer1"
     transform="translate(0,-1032.3622)">
    <g
       id="g4562"
       transform="translate(-5.1851991,-0.59123127)">
      <g
         transform="matrix(1.0109881,0,0,0.96970664,-0.43462179,32.056001)"
         id="g4556">
        <path
           style="fill:url(#linearGradient4521);fill-opacity:1;stroke:url(#linearGradient4529);stroke-width:0.5;stroke-miterlimit:4;stroke-dasharray:none;stroke-opacity:1"
           d="m 15.787004,1034.4777 h 29 c 4.432,0 8,3.568 8,8 0,4.432 -3.568,8 -8,8 h -29 c -4.432,0 -8.0000005,-3.568 -8.0000005,-8 0,-4.432 3.5680005,-8 8.0000005,-8 z"
           id="rect4140" />
        <ellipse
           style="fill:#00429b;fill-opacity:1;stroke:none;stroke-width:1.21599948;filter:url(#filter4549)"
           id="path4142"
           cx="30.144405"
           cy="1042.701"
           rx="7.3176894"
           ry="7.2743769"
           transform="matrix(1.0073647,0,0,1.0073647,14.206039,-7.5823938)" />
        <circle
           r="7"
           cy="1042.4777"
           cx="44.787003"
           id="circle4531"
           style="fill:#ffffff;fill-opacity:1;stroke:none;stroke-width:1.16666663" />
      </g>
    </g>
    <path
       style="fill:#ff00ff;stroke-width:0.05776173"
       d="M 2.9999287,12.570643 C 2.6187318,11.582166 2.4194353,10.243242 2.5229122,9.3659249 2.5528886,9.1117733 2.5808145,8.9883588 2.5849698,9.0916704 l 0.00755,0.1878393 14.4531682,-0.014554 14.453168,-0.014554 0.06172,-0.1238034 c 0.03395,-0.068092 0.09638,-0.1655649 0.138742,-0.2166065 0.04236,-0.051042 0.06353,-0.092803 0.04705,-0.092803 -0.04628,0 0.459271,-1.1396646 0.68306,-1.5398372 0.109689,-0.1961425 0.361835,-0.5710011 0.560324,-0.8330192 0.477078,-0.6297705 0.499405,-0.6558974 0.532356,-0.6229461 0.01554,0.01554 -0.09466,0.1956861 -0.24489,0.4003237 -0.639884,0.8716253 -1.07368,1.8306719 -1.317684,2.9131683 -0.14892,0.6606702 -0.167075,2.1693817 -0.03638,3.0234597 0.09318,0.608918 0.09712,0.717591 0.02699,0.744501 -0.06753,0.02591 -0.06843,0.04018 -0.0051,0.08035 0.04237,0.02686 -6.412762,0.04924 -14.344748,0.04972 L 3.1785,13.033793 Z"
       id="path23"
       inkscape:connector-curvature="0"
       transform="translate(0,1032.3622)" />
    <path
       style="fill:#ff00ff;stroke-width:0.05776173"
       d="M 47.293167,9.3081632 C 47.241696,9.2128563 47.128163,8.9269357 47.040869,8.6727841 46.793987,7.9539956 46.307647,6.9905838 45.905053,6.4227958 44.985239,5.1255614 43.522615,4.0354644 42.032025,3.5362179 39.574674,2.7131727 36.815076,3.1253279 34.76581,4.6214518 33.41875,5.6049099 32.54725,6.7803511 31.754292,8.6832533 31.659224,8.9113938 31.550631,9.12267 31.512975,9.1527552 c -0.04247,0.033933 -5.548428,0.065096 -14.501794,0.08208 L 2.5778518,9.2622126 2.6134221,8.9218949 C 2.6981534,8.1112294 3.0787005,7.0168096 3.5536404,6.2179105 3.8351342,5.744408 4.0683122,5.4304928 4.014877,5.5969718 c -0.030841,0.096086 0.6809124,0.1010831 14.398955,0.1010831 7.93727,0 14.510827,-0.015885 14.607905,-0.035301 0.09708,-0.019416 0.23315,-0.088074 0.302383,-0.152574 0.06923,-0.0645 0.285473,-0.2443788 0.480535,-0.3997305 0.195061,-0.1553516 0.393646,-0.3145876 0.441299,-0.3538576 0.793009,-0.6534998 2.332744,-1.367828 3.407943,-1.5810441 0.238267,-0.047249 0.511191,-0.102459 0.606498,-0.1226881 0.402209,-0.08537 2.131203,-0.041854 2.714801,0.068326 1.054909,0.1991621 2.245119,0.6742924 3.063621,1.2229935 0.387907,0.2600415 1.302125,0.9529594 1.461707,1.1078786 0.133942,0.1300273 0.420145,0.2557299 0.506664,0.2225298 0.153144,-0.058767 0.734495,0.9817408 1.053097,1.8848456 0.206832,0.5862839 0.3701,1.3947566 0.344393,1.7053738 l -0.01793,0.2166412 z"
       id="path25"
       inkscape:connector-curvature="0"
       transform="translate(0,1032.3622)" />
    <path
       style="fill:#ff00ff;stroke-width:0.05776173"
       d="M 6.6647269,5.6458709 C 4.6402631,5.6190326 4.065449,5.5954233 4.065449,5.5391109 c 0,-0.1166315 0.7968947,-0.9542126 1.2698574,-1.3346917 0.239689,-0.1928198 0.6128852,-0.455787 0.8293251,-0.5843715 l 0.393527,-0.2337901 14.7135065,9.929e-4 c 9.900958,6.683e-4 14.749545,-0.018294 14.823688,-0.057974 0.0606,-0.032432 0.182634,-0.069735 0.271186,-0.082896 0.22638,-0.033645 0.469656,-0.085227 0.738621,-0.15661 0.2733,-0.072533 0.28613,-0.0748 1.076005,-0.1901494 1.094734,-0.159869 2.575132,-0.081645 3.602921,0.1903775 0.237692,0.062909 0.511844,0.1237828 0.664034,0.1474437 0.04765,0.00741 0.18693,0.047166 0.309502,0.08835 0.122572,0.041184 0.308446,0.060991 0.413052,0.044016 0.150618,-0.024442 0.27062,0.016135 0.576716,0.1950067 0.765722,0.4474623 1.739575,1.3050926 2.176369,1.916634 0.112855,0.1580043 0.11285,0.1588448 -9.3e-4,0.1588448 -0.06291,0 -0.266123,-0.1176361 -0.451586,-0.2614135 -1.470122,-1.1396947 -2.260081,-1.604766 -3.339112,-1.9658323 -0.88273,-0.2953799 -1.31627,-0.3675461 -2.461067,-0.4096638 -0.835411,-0.030735 -1.11688,-0.019334 -1.588448,0.064344 -1.52138,0.2699617 -2.89875,0.9083896 -4.166217,1.9310932 -0.349656,0.2821336 -0.687825,0.5408458 -0.751485,0.574916 -0.132122,0.070709 -22.097554,0.1304992 -26.5001871,0.072134 z"
       id="path27"
       inkscape:connector-curvature="0"
       transform="translate(0,1032.3622)" />
    <path
       style="fill:#ff00ff;stroke-width:0.05776173"
       d="M 6.9419533,3.2379321 C 7.3480645,3.0265832 8.3173474,2.7165218 8.9463154,2.5967619 9.4672064,2.4975807 10.282054,2.4922787 25.004077,2.4922787 c 14.722024,0 15.536871,0.0053 16.057762,0.1044832 0.609176,0.1159914 1.612431,0.4336366 1.948207,0.616831 l 0.217858,0.1188603 -0.259928,-0.021527 C 42.825016,3.2990866 42.365392,3.2085498 41.94659,3.1097333 40.962124,2.8774485 40.402919,2.8099682 39.462452,2.8099682 c -0.876164,0 -1.746002,0.1079631 -2.651633,0.329117 l -0.629847,0.1538076 -4.303249,0.039608 c -2.366787,0.021784 -9.007942,0.04188 -14.758122,0.044657 L 6.6647269,3.3822068 6.9419533,3.2379324 Z"
       id="path29"
       inkscape:connector-curvature="0"
       transform="translate(0,1032.3622)" />
    <path
       style="fill:#ff00ff;stroke-width:0.05776173"
       d="M 6.4914417,16.512162 C 5.1833617,15.815487 4.0561592,14.711842 3.4055319,13.490746 L 3.1620582,13.033795 H 17.587279 c 7.933872,0 14.408119,-0.0171 14.387215,-0.03801 -0.0209,-0.0209 -0.01398,-0.06695 0.01538,-0.102334 0.03301,-0.03977 0.02222,-0.284368 -0.02826,-0.640693 -0.0449,-0.317002 -0.07861,-0.862287 -0.0749,-1.211746 l 0.0067,-0.635379 0.04625,0.478737 c 0.144956,1.500357 0.749671,2.954146 1.746733,4.199307 0.305601,0.381645 1.167056,1.278983 1.298405,1.352489 0.06585,0.03685 0.06925,0.07188 0.01653,0.170383 l -0.06636,0.123994 -14.019628,-0.0015 -14.0196281,-0.0015 z"
       id="path31"
       inkscape:connector-curvature="0"
       transform="translate(0,1032.3622)" />
    <path
       style="fill:#ff00ff;stroke-width:0.05776173"
       d="M 9.1196006,17.417434 C 8.5439089,17.325904 8.0010835,17.180398 7.4445103,16.96842 l -0.5487364,-0.208993 14.0466861,-0.01456 14.046686,-0.01456 0.03893,-0.122649 c 0.03203,-0.100911 -0.06658,-0.228518 -0.556402,-0.72001 -0.327431,-0.32855 -0.580114,-0.612579 -0.561516,-0.631176 0.0186,-0.0186 0.225226,0.132153 0.459174,0.335002 0.977499,0.847555 2.036317,1.39792 3.308038,1.71949 L 38.318157,17.473 23.877723,17.470472 C 15.928073,17.46908 9.2944929,17.44524 9.1196006,17.417434 Z"
       id="path33"
       inkscape:connector-curvature="0"
       transform="translate(0,1032.3622)" />
    <path
       style="fill:#ff00ff;stroke-width:0.05776173"
       d="m 46.146708,14.092736 c -10e-4,-0.03708 0.05299,-0.193035 0.119994,-0.346571 0.452219,-1.036194 0.638298,-1.858158 0.672492,-2.970596 0.0321,-1.044393 -0.06658,-1.7890112 -0.343487,-2.5919444 -0.09347,-0.2710345 -0.181671,-0.5447755 -0.195996,-0.6083134 -0.05244,-0.2326024 0.337438,0.6498343 0.497645,1.1263538 0.177012,0.5265027 0.198753,0.6197521 0.289542,1.2418772 0.07286,0.4992518 0.141413,0.8744228 0.174154,0.9530688 0.0066,0.01588 0.03332,-0.06209 0.05936,-0.173285 0.03564,-0.152213 0.04063,-0.116532 0.02021,0.144404 -0.03729,0.476439 -0.227531,1.214408 -0.464739,1.802801 -0.258868,0.642121 -0.824016,1.611468 -0.829175,1.422205 z"
       id="path35"
       inkscape:connector-curvature="0"
       transform="translate(0,1032.3622)" />
    <path
       style="fill:#ff00ff;stroke-width:0.05776173"
       d="M 47.336338,10.665564 C 47.317216,10.586142 47.249364,10.20136 47.185555,9.8104943 47.108633,9.3393018 46.989753,8.8916305 46.832762,8.4819744 46.702534,8.1421544 46.584087,7.8121343 46.569546,7.7485964 46.519455,7.5297279 46.787412,8.075144 46.987265,8.5988458 47.09741,8.887477 47.232354,9.2171354 47.287139,9.33142 l 0.09961,0.2077901 0.03572,-0.2021661 c 0.01964,-0.1111913 0.03731,0.1227437 0.03926,0.5198556 0.0036,0.7356664 -0.05381,1.1059764 -0.125391,0.8086644 z"
       id="path37"
       inkscape:connector-curvature="0"
       transform="translate(0,1032.3622)" />
    <path
       style="fill:#ff00ff;stroke-width:0.05776173"
       d="m 47.568482,11.65811 c -0.217445,-0.01786 -0.22169,-0.02254 -0.183389,-0.202166 0.02157,-0.101135 0.05267,-0.639256 0.06913,-1.195825 0.02291,-0.7750232 0.0084,-1.1367802 -0.0621,-1.5451521 -0.05061,-0.2932649 -0.09202,-0.5607592 -0.09202,-0.5944317 0,-0.035389 0.09096,-0.053658 0.215572,-0.043296 0.210452,0.017501 0.21728,0.025472 0.287487,0.3356167 0.151354,0.6686121 0.206166,1.5895241 0.135118,2.2701311 -0.103843,0.994755 -0.104657,0.996902 -0.369801,0.975123 z"
       id="path39"
       inkscape:connector-curvature="0"
       transform="translate(0,1032.3622)" />
    <path
       style="fill:#ff00ff;stroke-width:0.05776173"
       d=""
       id="path41"
       inkscape:connector-curvature="0"
       transform="translate(0,1032.3622)" />
    <path
       style="fill:#ff00ff;stroke-width:0.05776173"
       d="M 47.136385,7.731009 C 46.955104,7.1334037 46.505923,6.2124171 46.180093,5.770257 l -0.26603,-0.3610108 h 0.276439 c 0.275384,0 0.27734,0.00138 0.512745,0.3610108 0.306304,0.4679488 0.658535,1.1759019 0.849497,1.7074136 0.198798,0.5533222 0.196061,0.5886153 -0.04566,0.5886153 -0.108544,0 -0.206017,0.024577 -0.216607,0.054615 -0.01059,0.030038 -0.07993,-0.1454132 -0.154094,-0.3898917 z"
       id="path43"
       inkscape:connector-curvature="0"
       transform="translate(0,1032.3622)" />
    <path
       style="fill:#ff00ff;stroke-width:0.05776173"
       d="M 45.247847,4.7487109 C 44.319552,3.8174914 43.50192,3.3126305 42.188193,2.8594746 l -0.462094,-0.1593942 0.638434,-0.00282 c 0.628173,-0.00277 0.64604,8.598e-4 1.111584,0.225992 0.832788,0.4027266 1.437799,0.8460046 2.221101,1.627351 0.405054,0.4040427 0.736462,0.7625271 0.736462,0.7966319 0,0.036971 -0.110782,0.057682 -0.274368,0.051293 -0.267942,-0.010465 -0.289291,-0.025686 -0.911465,-0.6498195 z"
       id="path45"
       inkscape:connector-curvature="0"
       transform="translate(0,1032.3622)" />
    <path
       style="fill:#ff00ff;stroke-width:0.05776173"
       d="M 4.9607558,3.9036025 C 6.2585115,2.8539859 7.8763493,2.2168374 9.6394562,2.0610034 10.546027,1.9808751 39.457737,1.9804566 40.362744,2.0605586 c 0.812548,0.071919 1.310626,0.1727593 2.056496,0.4163575 l 0.577617,0.1886478 -0.635379,0.028881 c -0.41503,0.018865 -0.735538,0.0035 -0.924188,-0.044292 C 41.278445,2.6099079 40.823572,2.5521823 40.42646,2.5218739 39.483902,2.4499357 10.559074,2.4480059 9.5816945,2.5198159 8.3776023,2.608283 6.9282346,3.09557 5.9485816,3.7412925 5.5535678,4.0016594 5.4945864,4.0228675 5.1687982,4.0216802 l -0.3524467,-0.00128 z"
       id="path47"
       inkscape:connector-curvature="0"
       transform="translate(0,1032.3622)" />
    <path
       style="fill:#ff00ff;stroke-width:0.05776173"
       d="M 2.625046,7.0121343 C 2.8131182,6.4057104 3.5115164,5.3629103 4.2273014,4.619757 L 4.8021155,4.0229646 h 0.3316191 0.331619 L 4.7297374,4.7594267 C 3.964238,5.5258064 3.5590086,6.0736493 3.2567847,6.7507597 L 3.0834995,7.1389925 2.8341197,7.1405451 C 2.6018023,7.141992 2.5874976,7.1332062 2.625046,7.0121343 Z"
       id="path49"
       inkscape:connector-curvature="0"
       transform="translate(0,1032.3622)" />
    <path
       style="fill:#ff00ff;stroke-width:0.05776173"
       d="M 2.0360514,9.6158446 C 2.0807197,8.9342382 2.248297,8.0585885 2.4340478,7.5361743 L 2.5638975,7.1709791 2.8168548,7.1528463 C 3.0420506,7.1367035 3.065008,7.1462123 3.0260378,7.2394889 2.7668089,7.8599634 2.4770013,9.2401258 2.4770013,9.8541883 V 10.20347 H 2.2372717 1.997542 Z"
       id="path51"
       inkscape:connector-curvature="0"
       transform="translate(0,1032.3622)" />
    <path
       style="fill:#ff00ff;stroke-width:0.05776173"
       d="M 2.4589046,12.52838 C 2.2528478,11.905492 2.1122016,11.237948 2.0451265,10.564481 L 2.009171,10.20347 h 0.2267831 0.2267831 l 0.069078,0.548805 c 0.079191,0.629145 0.2785368,1.415989 0.4915544,1.940229 0.080725,0.198664 0.1467721,0.38272 0.1467721,0.409011 0,0.02629 -0.1138108,0.0478 -0.2529129,0.0478 H 2.6643164 Z"
       id="path53"
       inkscape:connector-curvature="0"
       transform="translate(0,1032.3622)" />
    <path
       style="fill:#ff00ff;stroke-width:0.05776173"
       d="M 4.3503812,15.503109 C 3.6136878,14.756526 3.125724,14.072518 2.7845303,13.308163 L 2.713625,13.149318 h 0.2464412 c 0.2280421,0 0.2540957,0.01617 0.3489663,0.216607 0.3556632,0.751416 1.2551223,1.822097 2.0280521,2.414113 0.2377846,0.182129 0.4323355,0.340536 0.4323355,0.352017 0,0.01148 -0.1750111,0.02087 -0.3889135,0.02087 H 4.9915931 Z"
       id="path55"
       inkscape:connector-curvature="0"
       transform="translate(0,1032.3622)" />
    <path
       style="fill:#ff00ff;stroke-width:0.05776173"
       d="M 9.6203127,17.939032 C 8.1399771,17.815046 6.7996134,17.345067 5.5383732,16.507757 l -0.4909748,-0.325948 0.3631365,-0.01725 c 0.3453569,-0.01641 0.3882339,-0.0028 0.8757305,0.278583 0.8111259,0.468129 1.5779692,0.751308 2.6022883,0.960972 0.4582724,0.0938 1.4778163,0.101113 15.3068593,0.109776 8.148736,0.0051 15.231769,-0.01 15.740072,-0.03346 0.508303,-0.02351 1.13213,-0.08674 1.386282,-0.140511 1.407896,-0.297872 2.661847,-0.928395 3.786399,-1.903909 0.390563,-0.338802 0.43913,-0.364343 0.653199,-0.343508 0.127195,0.01238 0.240231,0.03148 0.251192,0.04244 0.01096,0.01096 -0.209282,0.237995 -0.489429,0.50452 -1.19154,1.133606 -2.652508,1.875836 -4.345766,2.207822 -0.60204,0.118038 -0.718141,0.118987 -15.797834,0.129115 -8.355234,0.0056 -15.4468813,-0.0112 -15.7592153,-0.03736 z"
       id="path57"
       inkscape:connector-curvature="0"
       transform="translate(0,1032.3622)" />
    <path
       style="fill:#ff00ff;stroke-width:0.05776173"
       d="m 45.531875,14.997694 c 0.03955,-0.04765 0.191538,-0.229934 0.337759,-0.405069 0.325757,-0.390173 0.860631,-1.234074 1.005615,-1.586617 0.103101,-0.2507 0.116405,-0.260597 0.350602,-0.260805 l 0.243435,-2.17e-4 -0.117376,0.274369 c -0.225672,0.527515 -0.596833,1.173703 -0.928727,1.616905 l -0.334587,0.446798 -0.314311,6.39e-4 c -0.272875,5.55e-4 -0.304833,-0.01078 -0.24241,-0.086 z"
       id="path59"
       inkscape:connector-curvature="0"
       transform="translate(0,1032.3622)" />
    <path
       style="fill:#ff00ff;stroke-width:0.05776173"
       d="m 43.176952,16.570526 c 1.988019,-1.194835 3.178902,-2.932981 3.567936,-5.207559 0.132051,-0.772069 0.123049,-1.21731 -0.0503,-2.4880168 -0.02541,-0.1862687 -0.02035,-0.1817266 0.06433,0.057762 0.06484,0.1833761 0.100564,0.5587167 0.121295,1.2744508 0.04269,1.473731 -0.0619,2.03182 -0.696099,3.714591 -0.354418,0.940402 -1.490462,1.99955 -2.911445,2.714377 -0.587942,0.295765 -0.638884,0.260849 -0.09571,-0.0656 z"
       id="path61"
       inkscape:connector-curvature="0"
       transform="translate(0,1032.3622)" />
    <path
       style="fill:#ff00ff;stroke-width:0.05776173"
       d="m 38.462561,17.311661 c -2.13324,-0.311835 -4.066473,-1.52158 -5.171339,-3.236033 -1.482776,-2.300865 -1.452025,-5.1995938 0.07923,-7.4688196 0.257834,-0.3820935 0.413406,-0.5658 0.413406,-0.4881689 0,0.012689 -0.129157,0.2379665 -0.287015,0.5006174 -0.330392,0.5497221 -0.588735,1.1866826 -0.757173,1.8668598 -0.15282,0.6171146 -0.207735,1.7730753 -0.114516,2.4106023 0.433889,2.967386 2.740737,5.274793 5.801649,5.803057 0.652291,0.112574 1.840082,0.11372 2.478496,0.0024 1.545897,-0.269582 2.990587,-1.040322 4.023828,-2.146707 0.519305,-0.556066 1.043101,-1.345171 1.283997,-1.934355 0.207426,-0.50732 0.284426,-0.563445 0.132346,-0.09647 -0.60844,1.868294 -2.15117,3.487663 -4.085377,4.288331 -0.849878,0.351807 -1.614336,0.505941 -2.61342,0.52693 -0.476534,0.01001 -1.009386,-0.0027 -1.184115,-0.02824 z"
       id="path63"
       inkscape:connector-curvature="0"
       transform="translate(0,1032.3622)" />
    <path
       style="fill:#ff00ff;stroke-width:0.05776173"
       d=""
       id="path65"
       inkscape:connector-curvature="0"
       transform="translate(0,1032.3622)" />
    <path
       style="fill:#ff00ff;stroke-width:0.05776173"
       d=""
       id="path67"
       inkscape:connector-curvature="0"
       transform="translate(0,1032.3622)" />
    <path
       style="fill:#ff00ff;stroke-width:0.05776173"
       d="m 38.029348,17.390906 c -1.159784,-0.349884 -1.48422,-0.468753 -2.03466,-0.74547 C 35.652379,16.47335 35.138373,16.150414 34.852453,15.9278 34.566532,15.705187 34.227472,15.45112 34.098986,15.363207 33.351742,14.851927 32.446344,13.193859 32.167663,11.826351 32.036648,11.183448 32.009484,9.9795081 32.111497,9.337044 32.32447,7.9957738 32.98768,6.6859292 33.974033,5.6585204 c 0.46111,-0.4803025 1.287344,-1.1592427 1.343003,-1.1035837 0.01624,0.016245 -0.06865,0.1038314 -0.188643,0.1946374 -0.447866,0.3389122 -1.646817,1.6186632 -1.905909,2.0343521 -1.650082,2.647401 -1.309214,6.0341528 0.832998,8.2763798 1.091737,1.142709 2.488408,1.896871 4.117626,2.2234 0.596466,0.119545 2.147404,0.08775 2.82159,-0.05784 1.826179,-0.394367 3.5784,-1.570781 4.55475,-3.057987 0.449426,-0.684579 0.433776,-0.663581 0.39322,-0.527585 -0.127419,0.427272 -0.968115,1.507371 -1.582481,2.033117 -0.429292,0.367368 -1.390254,1.046576 -1.75689,1.241769 -0.259587,0.138201 -1.101927,0.373304 -1.60618,0.448295 -0.234439,0.03486 -0.933112,0.0749 -1.552607,0.08898 -0.894845,0.02032 -1.185715,0.0077 -1.415162,-0.06154 z"
       id="path69"
       inkscape:connector-curvature="0"
       transform="translate(0,1032.3622)" />
    <path
       style="fill:#ff00ff;stroke-width:0.05776173"
       d="m 47.024929,12.647601 c 0.01597,-0.05763 0.09092,-0.304988 0.166549,-0.549685 l 0.137509,-0.444905 0.216307,0.01169 c 0.259074,0.014 0.261922,0.03485 0.08447,0.618189 l -0.131783,0.433213 -0.251046,0.01814 c -0.218978,0.01582 -0.247336,0.0048 -0.222006,-0.08664 z"
       id="path71"
       inkscape:connector-curvature="0"
       transform="translate(0,1032.3622)" />
  </g>
</svg>
