<?xml version="1.0" encoding="UTF-8" standalone="no"?>
<svg
   width="64"
   height="64"
   version="1.1"
   viewBox="0 0 16.933 16.933"
   id="svg46"
   sodipodi:docname="default-folder (10th copy).svg"
   inkscape:version="1.1 (c68e22c387, 2021-05-23)"
   xmlns:inkscape="http://www.inkscape.org/namespaces/inkscape"
   xmlns:sodipodi="http://sodipodi.sourceforge.net/DTD/sodipodi-0.dtd"
   xmlns="http://www.w3.org/2000/svg"
   xmlns:svg="http://www.w3.org/2000/svg"
   xmlns:rdf="http://www.w3.org/1999/02/22-rdf-syntax-ns#"
   xmlns:cc="http://creativecommons.org/ns#"
   xmlns:dc="http://purl.org/dc/elements/1.1/">
  <sodipodi:namedview
     id="namedview48"
     pagecolor="#ffffff"
     bordercolor="#666666"
     borderopacity="1.0"
     inkscape:pageshadow="2"
     inkscape:pageopacity="0.0"
     inkscape:pagecheckerboard="0"
     showgrid="false"
     inkscape:zoom="2.419631"
     inkscape:cx="-35.955896"
     inkscape:cy="24.383883"
     inkscape:window-width="1366"
     inkscape:window-height="702"
     inkscape:window-x="0"
     inkscape:window-y="0"
     inkscape:window-maximized="1"
     inkscape:current-layer="svg46" />
  <defs
     id="defs12">
    <linearGradient
       id="linearGradient3481"
       x1="25"
       x2="25"
       y1="155"
       y2="167.78"
       gradientTransform="matrix(.26458 0 0 .26458 -2.3076 -56.702)"
       gradientUnits="userSpaceOnUse">
      <stop
         stop-color="#333"
         offset="0"
         id="stop2" />
      <stop
         stop-color="#0d52bf"
         offset="1"
         id="stop4" />
    </linearGradient>
    <linearGradient
       id="linearGradient3421"
       x1="-16.147"
       x2="-.24118"
       y1="-47.834"
       y2="-47.834"
       gradientTransform="matrix(1 0 0 1.1 15.152 44.098)"
       gradientUnits="userSpaceOnUse">
      <stop
         stop-color="#333"
         offset="0"
         id="stop7" />
      <stop
         stop-color="#64baff"
         offset="1"
         id="stop9" />
    </linearGradient>
    <clipPath
       clipPathUnits="userSpaceOnUse"
       id="clipPath977">
      <path
         id="path979"
         d="M 78.994141,52 C 43.625611,52 40,53.999146 40,89.296875 V 140 H 264 V 108.92188 C 264,73.624145 260.37439,68 225.00586,68 H 138 L 122,52 Z"
         style="color:#000000;display:inline;overflow:visible;visibility:visible;fill:#f6531e;fill-opacity:1;fill-rule:nonzero;stroke:none;stroke-width:1;marker:none;enable-background:accumulate"
         inkscape:connector-curvature="0" />
    </clipPath>
    <filter
       inkscape:collect="always"
       style="color-interpolation-filters:sRGB"
       id="filter989"
       x="-0.053571429"
       width="1.1071429"
       y="-0.068181818"
       height="1.1363636">
      <feGaussianBlur
         inkscape:collect="always"
         stdDeviation="5"
         id="feGaussianBlur991" />
    </filter>
    <clipPath
       clipPathUnits="userSpaceOnUse"
       id="clipPath977-3">
      <path
         id="path979-6"
         d="M 78.994141,52 C 43.625611,52 40,53.999146 40,89.296875 V 140 H 264 V 108.92188 C 264,73.624145 260.37439,68 225.00586,68 H 138 L 122,52 Z"
         style="color:#000000;display:inline;overflow:visible;visibility:visible;fill:#f6531e;fill-opacity:1;fill-rule:nonzero;stroke:none;stroke-width:1;marker:none;enable-background:accumulate"
         inkscape:connector-curvature="0" />
    </clipPath>
  </defs>
  <metadata
     id="metadata14">
    <rdf:RDF>
      <cc:Work
         rdf:about="">
        <dc:format>image/svg+xml</dc:format>
        <dc:type
           rdf:resource="http://purl.org/dc/dcmitype/StillImage" />
        <dc:title />
      </cc:Work>
    </rdf:RDF>
  </metadata>
  <g
     fill="#5e4aa6"
     stroke-width=".26458"
     id="g24">
    <circle
       cx="-330.35"
       cy="-328.38"
       r="0"
       id="circle16" />
    <circle
       cx="-312.11"
       cy="-326.25"
       r="0"
       id="circle18" />
    <circle
       cx="-306.02"
       cy="-333.07"
       r="0"
       id="circle20" />
    <circle
       cx="-308.84"
       cy="-326.01"
       r="0"
       id="circle22" />
  </g>
  <g
     transform="translate(.000295 -.00032978)"
     fill="#5e4aa6"
     stroke-width=".26458"
     id="g36">
    <circle
       cx="-330.35"
       cy="-328.38"
       r="0"
       id="circle26" />
    <circle
       cx="-312.11"
       cy="-326.25"
       r="0"
       id="circle28" />
    <circle
       cx="-306.02"
       cy="-333.07"
       r="0"
       id="circle30" />
    <circle
       cx="-308.84"
       cy="-326.01"
       r="0"
       id="circle32" />
    <circle
       cx="-328.8"
       cy="-330.45"
       r="0"
       id="circle34" />
  </g>
  <path
     style="color:#000000;display:inline;overflow:visible;visibility:visible;fill:#333;fill-opacity:1;fill-rule:nonzero;stroke:none;stroke-width:0.0671972;marker:none;enable-background:accumulate"
     d="m 3.2929018,1.8517823 c -2.50653697,0 -2.76348097,0.1273783 -2.76348097,2.3763901 V 7.4587471 H 16.404108 V 5.4785899 c 0,-2.2490138 -0.256944,-2.6073584 -2.76348,-2.6073584 H 7.4745958 L 6.3406918,1.8517823 Z"
     id="path1046-2"
     inkscape:connector-curvature="0"
     sodipodi:nodetypes="ssccssccs" />
  <path
     sodipodi:nodetypes="ssssssssccs"
     style="color:#000000;display:inline;overflow:visible;visibility:visible;opacity:0.5;fill:#903906;fill-opacity:1;fill-rule:nonzero;stroke:none;stroke-width:1;marker:none;filter:url(#filter989);enable-background:accumulate"
     d="M 78.99353,92 C 43.625,92 40,95.625 40,130.92273 v 82.15454 C 40,248.375 43.625,252 78.99353,252 H 225.00647 C 260.375,252 264,248.375 264,213.07727 V 114.92273 C 264,79.625 260.375,76 225.00647,76 H 143.75 l -16.00782,16 z"
     id="path2061"
     inkscape:connector-curvature="0"
     clip-path="url(#clipPath977)"
     transform="matrix(0.06954828,0,0,0.0502453,-2.1208635,0.0720368)" />
  <path
     inkscape:connector-curvature="0"
     id="path1050-9"
     d="m 3.2908328,4.9079525 c -2.50469897,0 -2.76141197,0.2304762 -2.76141197,2.4746915 v 5.223353 c 0,2.244216 0.256713,2.474692 2.76141197,2.474692 H 13.631055 c 2.504698,0 2.76141,-0.230476 2.76141,-2.474692 V 6.3653711 c 0,-2.2442163 -0.256712,-2.4746915 -2.76141,-2.4746915 H 7.8767018 l -1.133627,1.0172729 z"
     style="color:#000000;display:inline;overflow:visible;visibility:visible;fill:#4d4d4d;fill-opacity:1;fill-rule:nonzero;stroke:none;stroke-width:0.0671005;marker:none;enable-background:accumulate"
     sodipodi:nodetypes="ssssssssccs" />
  <path
     style="color:#000000;display:inline;overflow:visible;visibility:visible;opacity:0.1;fill:#ffffff;fill-opacity:1;fill-rule:nonzero;stroke:none;stroke-width:0.095502;marker:none;enable-background:accumulate"
     d="m 16.615131,9.5145595 -6.541549,5.7108985 h 2.555891 c 3.615078,0 3.985658,-0.323392 3.985658,-3.473107 z"
     id="path2069"
     inkscape:connector-curvature="0"
     sodipodi:nodetypes="ccssc" />
  <path
     d="m 8.2019221,6.349875 c -1.4598099,0 -2.6457815,1.4824642 -2.6457815,3.3072266 0,1.8247624 1.1859716,3.3072264 2.6457815,3.3072264 1.4598086,0 2.6457809,-1.482464 2.6457809,-3.3072264 0,-1.8247624 -1.1859723,-3.3072266 -2.6457809,-3.3072266 z M 8.1886971,6.7641052 8.1820671,7.019175 8.4846783,7.075811 8.6890646,6.8285959 a 2.2925692,2.8657117 0 0 1 0.5728111,0.258377 l -0.0711,0.1430375 0.2017412,0.2232378 -0.2017412,0.2108356 0.078712,0.2521761 0.44846,-0.2662317 0.2804525,0.2662317 0.01455,-0.057462 c 0.06085,0.095909 0.11575,0.1971935 0.166685,0.3017846 L 9.8968713,8.22466 9.7288651,8.000182 9.2135989,8.0423492 8.8994127,8.659147 l 0.2133162,0.658138 0.6948474,0.2662319 0.134605,1.0231731 0.1676757,0.53205 0.1184,-0.08392 a 2.3157198,2.89465 0 0 1 -2.0263361,1.496107 c -1.2772512,0 -2.315059,-1.29726 -2.315059,-2.8938239 0,-0.3356836 0.047955,-0.6568979 0.1322892,-0.9566153 l 0.01125,0.056223 0.3585033,0.1260875 0.4706178,0.4340736 0.01125,0.6308535 0.3029412,0.5184076 0.17859,1.401438 0.3251012,0.252176 -0.0893,-0.518408 L 8.1371034,10.648444 8.3725783,10.004362 7.8235784,9.3594528 7.2292697,9.0097136 6.9828822,9.1911977 6.6911847,8.6446784 6.5231773,8.7430691 6.3776556,8.434668 6.6356197,8.2668261 6.8816772,8.4487236 7.3079784,7.7901722 7.9241146,7.3139316 7.7561071,6.9211984 7.2517559,7.1460898 7.1889184,7.0588617 a 2.29753,2.8719128 0 0 1 1.000105,-0.2947565 z"
     fill="#808080"
     font-family="sans-serif"
     font-weight="400"
     overflow="visible"
     style="line-height:normal;font-variant-ligatures:normal;font-variant-position:normal;font-variant-caps:normal;font-variant-numeric:normal;font-variant-alternates:normal;font-feature-settings:normal;text-indent:0;text-align:start;text-decoration-line:none;text-decoration-style:solid;text-decoration-color:#000000;text-transform:none;shape-padding:0;isolation:auto;mix-blend-mode:normal;fill:#ffffff;stroke-width:0.369759;marker:none"
     white-space="normal"
     color="#000000"
     id="path2" />
</svg>
